  0
SECTION
  2
HEADER
  9
$ANGBASE
  50
0.0
  9
$ANGDIR
  70
1
  9
$MEASUREMENT
  70
0
  0
ENDSEC
  0
SECTION
  2
TABLES
  0
TABLE
  2
LTYPE
  70
4
  0
LTYPE
  5
40F
  2
CONTINUOUS
  70
0
  3
Solid line
  72
65
  73
0
  40
0.0
  0
LTYPE
  5
410
  2
DASHDOT
 70
0
  3
Dash Dot ____ _ ____ _
 72
65
 73
4
 40
2.0
 49
1.25
 49
-0.25
 49
0.25
 49
-0.25
  0
LTYPE
  5
411
  2
DASHED
 70
0
  3
Dashed __ __ __ __ __
 72
65
 73
2
 40
0.75
 49
0.5
 49
-0.25
  0
LTYPE
  5
43B
  2
DOTTED
 70
0
  3
Dotted .  .  .  .
 72
65
 73
2
 40
0.2
 49
0.0
 49
-0.2
  0
ENDTAB
  0
TABLE
  2
STYLE
  70
4
  0
STYLE
  2
KICAD
  70
0
  40
0
  41
1
  42
1
  50
0
  71
0
  3
isocp.shx
  0
STYLE
  2
KICADB
  70
0
  40
0
  41
1
  42
1
  50
0
  71
0
  3
isocp.shx
  0
STYLE
  2
KICADI
  70
0
  40
0
  41
1
  42
1
  50
15
  71
0
  3
isocp.shx
  0
STYLE
  2
KICADBI
  70
0
  40
0
  41
1
  42
1
  50
15
  71
0
  3
isocp.shx
  0
ENDTAB
  0
TABLE
  2
LAYER
  70
1
  0
LAYER
  2
BLACK
  70
0
  62
7
  6
CONTINUOUS
  0
ENDTAB
  0
ENDSEC
  0
SECTION
  2
ENTITIES
0
LINE
8
BLACK
6
CONTINUOUS
10
0.2033930708661417
20
0.3257937007874016
11
0.2068202362204724
21
0.3257937007874016
0
LINE
8
BLACK
6
CONTINUOUS
10
0.2068202362204724
20
0.3257937007874016
11
0.2104794094488189
21
0.3253957086614173
0
LINE
8
BLACK
6
CONTINUOUS
10
0.2104794094488189
20
0.3253957086614173
11
0.2141057480314961
21
0.3251920866141732
0
LINE
8
BLACK
6
CONTINUOUS
10
0.2141057480314961
20
0.3251920866141732
11
0.2172249212598425
21
0.3246620866141732
0
LINE
8
BLACK
6
CONTINUOUS
10
0.2172249212598425
20
0.3246620866141732
11
0.2203811023622047
21
0.3243188582677165
0
LINE
8
BLACK
6
CONTINUOUS
10
0.2203811023622047
20
0.3243188582677165
11
0.2242248818897638
21
0.3234727559055118
0
LINE
8
BLACK
6
CONTINUOUS
10
0.2242248818897638
20
0.3234727559055118
11
0.2280341338582677
21
0.3228255511811023
0
LINE
8
BLACK
6
CONTINUOUS
10
0.2280341338582677
20
0.3228255511811023
11
0.2308478346456693
21
0.3220149212598425
0
LINE
8
BLACK
6
CONTINUOUS
10
0.2308478346456693
20
0.3220149212598425
11
0.233702874015748
21
0.3213864960629921
0
LINE
8
BLACK
6
CONTINUOUS
10
0.233702874015748
20
0.3213864960629921
11
0.2376761023622047
21
0.3200477559055118
0
LINE
8
BLACK
6
CONTINUOUS
10
0.2376761023622047
20
0.3200477559055118
11
0.2416099606299213
21
0.3189144488188976
0
LINE
8
BLACK
6
CONTINUOUS
10
0.2416099606299213
20
0.3189144488188976
11
0.2440963779527559
21
0.3178845275590551
0
LINE
8
BLACK
6
CONTINUOUS
10
0.2440963779527559
20
0.3178845275590551
11
0.2466292913385827
21
0.3170311023622047
0
LINE
8
BLACK
6
CONTINUOUS
10
0.2466292913385827
20
0.3170311023622047
11
0.2506707874015748
21
0.3151612992125984
0
LINE
8
BLACK
6
CONTINUOUS
10
0.2506707874015748
20
0.3151612992125984
11
0.2546625196850394
21
0.313507874015748
0
LINE
8
BLACK
6
CONTINUOUS
10
0.2546625196850394
20
0.313507874015748
11
0.2568098031496063
21
0.312321062992126
0
LINE
8
BLACK
6
CONTINUOUS
10
0.2568098031496063
20
0.312321062992126
11
0.2590093307086614
21
0.3113035039370078
0
LINE
8
BLACK
6
CONTINUOUS
10
0.2590093307086614
20
0.3113035039370078
11
0.2630505511811024
21
0.308871968503937
0
LINE
8
BLACK
6
CONTINUOUS
10
0.2630505511811024
20
0.308871968503937
11
0.2670276771653543
21
0.3066738976377953
0
LINE
8
BLACK
6
CONTINUOUS
10
0.2670276771653543
20
0.3066738976377953
11
0.2688345669291339
21
0.3053918110236221
0
LINE
8
BLACK
6
CONTINUOUS
10
0.2688345669291339
20
0.3053918110236221
11
0.2706976377952756
21
0.3042708661417323
0
LINE
8
BLACK
6
CONTINUOUS
10
0.2706976377952756
20
0.3042708661417323
11
0.2746654724409449
21
0.3012545669291338
0
LINE
8
BLACK
6
CONTINUOUS
10
0.2746654724409449
20
0.3012545669291338
11
0.2785498818897638
21
0.2984984645669291
0
LINE
8
BLACK
6
CONTINUOUS
10
0.2785498818897638
20
0.2984984645669291
11
0.2800237007874016
21
0.2971813779527559
0
LINE
8
BLACK
6
CONTINUOUS
10
0.2800237007874016
20
0.2971813779527559
11
0.2815566535433071
21
0.296016062992126
0
LINE
8
BLACK
6
CONTINUOUS
10
0.2815566535433071
20
0.296016062992126
11
0.285373937007874
21
0.2924000787401575
0
LINE
8
BLACK
6
CONTINUOUS
10
0.285373937007874
20
0.2924000787401575
11
0.2890843307086614
21
0.2890843307086614
0
LINE
8
BLACK
6
CONTINUOUS
10
0.2890843307086614
20
0.2890843307086614
11
0.2902422440944882
21
0.2877885826771653
0
LINE
8
BLACK
6
CONTINUOUS
10
0.2902422440944882
20
0.2877885826771653
11
0.2914596456692913
21
0.2866354330708661
0
LINE
8
BLACK
6
CONTINUOUS
10
0.2914596456692913
20
0.2866354330708661
11
0.2950464960629921
21
0.2824126377952756
0
LINE
8
BLACK
6
CONTINUOUS
10
0.2950464960629921
20
0.2824126377952756
11
0.2984984645669291
21
0.2785498818897638
0
LINE
8
BLACK
6
CONTINUOUS
10
0.2984984645669291
20
0.2785498818897638
11
0.2993655118110236
21
0.2773278346456693
0
LINE
8
BLACK
6
CONTINUOUS
10
0.2993655118110236
20
0.2773278346456693
11
0.3002906692913386
21
0.2762387007874016
0
LINE
8
BLACK
6
CONTINUOUS
10
0.3002906692913386
20
0.2762387007874016
11
0.303567874015748
21
0.271405157480315
0
LINE
8
BLACK
6
CONTINUOUS
10
0.303567874015748
20
0.271405157480315
11
0.3066738976377953
21
0.2670276771653543
0
LINE
8
BLACK
6
CONTINUOUS
10
0.3066738976377953
20
0.2670276771653543
11
0.3072822047244094
21
0.2659269291338582
0
LINE
8
BLACK
6
CONTINUOUS
10
0.3072822047244094
20
0.2659269291338582
11
0.3079456299212598
21
0.2649485433070866
0
LINE
8
BLACK
6
CONTINUOUS
10
0.3079456299212598
20
0.2649485433070866
11
0.3108335433070866
21
0.2595013385826772
0
LINE
8
BLACK
6
CONTINUOUS
10
0.3108335433070866
20
0.2595013385826772
11
0.313507874015748
21
0.2546625196850394
0
LINE
8
BLACK
6
CONTINUOUS
10
0.313507874015748
20
0.2546625196850394
11
0.3138970078740158
21
0.2537229527559055
0
LINE
8
BLACK
6
CONTINUOUS
10
0.3138970078740158
20
0.2537229527559055
11
0.3143348031496063
21
0.2528972834645669
0
LINE
8
BLACK
6
CONTINUOUS
10
0.3143348031496063
20
0.2528972834645669
11
0.3167526377952756
21
0.2468289763779528
0
LINE
8
BLACK
6
CONTINUOUS
10
0.3167526377952756
20
0.2468289763779528
11
0.3189144488188976
21
0.2416099606299213
0
LINE
8
BLACK
6
CONTINUOUS
10
0.3189144488188976
20
0.2416099606299213
11
0.3191294094488189
21
0.2408637401574803
0
LINE
8
BLACK
6
CONTINUOUS
10
0.3191294094488189
20
0.2408637401574803
11
0.3193839763779527
21
0.2402248818897638
0
LINE
8
BLACK
6
CONTINUOUS
10
0.3193839763779527
20
0.2402248818897638
11
0.3212576771653543
21
0.2334763385826772
0
LINE
8
BLACK
6
CONTINUOUS
10
0.3212576771653543
20
0.2334763385826772
11
0.3228255511811023
21
0.2280341338582677
0
LINE
8
BLACK
6
CONTINUOUS
10
0.3228255511811023
20
0.2280341338582677
11
0.3229151968503937
21
0.2275064566929134
0
LINE
8
BLACK
6
CONTINUOUS
10
0.3229151968503937
20
0.2275064566929134
11
0.3230331102362204
21
0.227081811023622
0
LINE
8
BLACK
6
CONTINUOUS
10
0.3230331102362204
20
0.227081811023622
11
0.3242899212598425
21
0.2194154724409449
0
LINE
8
BLACK
6
CONTINUOUS
10
0.3242899212598425
20
0.2194154724409449
11
0.3251920866141732
21
0.2141057480314961
0
LINE
8
BLACK
6
CONTINUOUS
10
0.3251920866141732
20
0.2141057480314961
11
0.3252085826771653
21
0.2138117322834646
0
LINE
8
BLACK
6
CONTINUOUS
10
0.3252085826771653
20
0.2138117322834646
11
0.3252399606299213
21
0.2136204330708661
0
LINE
8
BLACK
6
CONTINUOUS
10
0.3252399606299213
20
0.2136204330708661
11
0.3258165748031496
21
0.2029851181102362
0
LINE
8
BLACK
6
CONTINUOUS
10
0.3258165748031496
20
0.2029851181102362
11
0.3259842519685039
21
0.2
0
LINE
8
BLACK
6
CONTINUOUS
10
0.3259842519685039
20
0.2
11
0.3258166141732283
21
0.1970151181102362
0
LINE
8
BLACK
6
CONTINUOUS
10
0.3258166141732283
20
0.1970151181102362
11
0.3252399606299213
21
0.1863795275590551
0
LINE
8
BLACK
6
CONTINUOUS
10
0.3252399606299213
20
0.1863795275590551
11
0.3252085826771653
21
0.186188188976378
0
LINE
8
BLACK
6
CONTINUOUS
10
0.3252085826771653
20
0.186188188976378
11
0.3251920866141732
21
0.1858942519685039
0
LINE
8
BLACK
6
CONTINUOUS
10
0.3251920866141732
20
0.1858942519685039
11
0.3242900787401575
21
0.1805855905511811
0
LINE
8
BLACK
6
CONTINUOUS
10
0.3242900787401575
20
0.1805855905511811
11
0.3230331102362204
21
0.1729181496062992
0
LINE
8
BLACK
6
CONTINUOUS
10
0.3230331102362204
20
0.1729181496062992
11
0.322915157480315
21
0.1724934251968504
0
LINE
8
BLACK
6
CONTINUOUS
10
0.322915157480315
20
0.1724934251968504
11
0.3228255511811023
21
0.1719658661417323
0
LINE
8
BLACK
6
CONTINUOUS
10
0.3228255511811023
20
0.1719658661417323
11
0.3212579527559055
21
0.1665246456692913
0
LINE
8
BLACK
6
CONTINUOUS
10
0.3212579527559055
20
0.1665246456692913
11
0.3193839763779527
21
0.1597750787401575
0
LINE
8
BLACK
6
CONTINUOUS
10
0.3193839763779527
20
0.1597750787401575
11
0.3191293700787401
21
0.1591361023622047
0
LINE
8
BLACK
6
CONTINUOUS
10
0.3191293700787401
20
0.1591361023622047
11
0.3189144488188976
21
0.1583900393700787
0
LINE
8
BLACK
6
CONTINUOUS
10
0.3189144488188976
20
0.1583900393700787
11
0.316753031496063
21
0.1531720078740157
0
LINE
8
BLACK
6
CONTINUOUS
10
0.316753031496063
20
0.1531720078740157
11
0.3143348031496063
21
0.1471026771653543
0
LINE
8
BLACK
6
CONTINUOUS
10
0.3143348031496063
20
0.1471026771653543
11
0.313896968503937
21
0.1462768110236221
0
LINE
8
BLACK
6
CONTINUOUS
10
0.313896968503937
20
0.1462768110236221
11
0.313507874015748
21
0.1453374803149606
0
LINE
8
BLACK
6
CONTINUOUS
10
0.313507874015748
20
0.1453374803149606
11
0.3108340551181102
21
0.1404995669291338
0
LINE
8
BLACK
6
CONTINUOUS
10
0.3108340551181102
20
0.1404995669291338
11
0.3079456299212598
21
0.1350514173228347
0
LINE
8
BLACK
6
CONTINUOUS
10
0.3079456299212598
20
0.1350514173228347
11
0.3072820866141732
21
0.1340727952755905
0
LINE
8
BLACK
6
CONTINUOUS
10
0.3072820866141732
20
0.1340727952755905
11
0.3066738976377953
21
0.1329723228346457
0
LINE
8
BLACK
6
CONTINUOUS
10
0.3066738976377953
20
0.1329723228346457
11
0.3035684645669292
21
0.1285956299212598
0
LINE
8
BLACK
6
CONTINUOUS
10
0.3035684645669292
20
0.1285956299212598
11
0.3002906692913386
21
0.1237612598425197
0
LINE
8
BLACK
6
CONTINUOUS
10
0.3002906692913386
20
0.1237612598425197
11
0.2993653543307087
21
0.1226718897637795
0
LINE
8
BLACK
6
CONTINUOUS
10
0.2993653543307087
20
0.1226718897637795
11
0.2984984645669291
21
0.1214501181102362
0
LINE
8
BLACK
6
CONTINUOUS
10
0.2984984645669291
20
0.1214501181102362
11
0.2950471653543307
21
0.1175881102362205
0
LINE
8
BLACK
6
CONTINUOUS
10
0.2950471653543307
20
0.1175881102362205
11
0.2914596456692913
21
0.1133645275590551
0
LINE
8
BLACK
6
CONTINUOUS
10
0.2914596456692913
20
0.1133645275590551
11
0.2902420078740157
21
0.1122111023622047
0
LINE
8
BLACK
6
CONTINUOUS
10
0.2902420078740157
20
0.1122111023622047
11
0.2890843307086614
21
0.1109156692913386
0
LINE
8
BLACK
6
CONTINUOUS
10
0.2890843307086614
20
0.1109156692913386
11
0.2853746850393701
21
0.1076005118110236
0
LINE
8
BLACK
6
CONTINUOUS
10
0.2853746850393701
20
0.1076005118110236
11
0.2815566535433071
21
0.1039838976377953
0
LINE
8
BLACK
6
CONTINUOUS
10
0.2815566535433071
20
0.1039838976377953
11
0.2800233858267717
21
0.1028183464566929
0
LINE
8
BLACK
6
CONTINUOUS
10
0.2800233858267717
20
0.1028183464566929
11
0.2785498818897638
21
0.1015015354330709
0
LINE
8
BLACK
6
CONTINUOUS
10
0.2785498818897638
20
0.1015015354330709
11
0.2746662598425197
21
0.0987459448818898
0
LINE
8
BLACK
6
CONTINUOUS
10
0.2746662598425197
20
0.0987459448818898
11
0.2706976377952756
21
0.095729094488189
0
LINE
8
BLACK
6
CONTINUOUS
10
0.2706976377952756
20
0.095729094488189
11
0.2688341732283465
21
0.094607874015748
0
LINE
8
BLACK
6
CONTINUOUS
10
0.2688341732283465
20
0.094607874015748
11
0.2670276771653543
21
0.0933261023622047
0
LINE
8
BLACK
6
CONTINUOUS
10
0.2670276771653543
20
0.0933261023622047
11
0.2630513385826772
21
0.0911284645669291
0
LINE
8
BLACK
6
CONTINUOUS
10
0.2630513385826772
20
0.0911284645669291
11
0.2590093307086614
21
0.0886964566929134
0
LINE
8
BLACK
6
CONTINUOUS
10
0.2590093307086614
20
0.0886964566929134
11
0.2568093700787402
21
0.0876786220472441
0
LINE
8
BLACK
6
CONTINUOUS
10
0.2568093700787402
20
0.0876786220472441
11
0.2546625196850394
21
0.086492125984252
0
LINE
8
BLACK
6
CONTINUOUS
10
0.2546625196850394
20
0.086492125984252
11
0.2506716141732284
21
0.0848390157480315
0
LINE
8
BLACK
6
CONTINUOUS
10
0.2506716141732284
20
0.0848390157480315
11
0.2466292913385827
21
0.0829688582677165
0
LINE
8
BLACK
6
CONTINUOUS
10
0.2466292913385827
20
0.0829688582677165
11
0.2440958661417323
21
0.0821152362204724
0
LINE
8
BLACK
6
CONTINUOUS
10
0.2440958661417323
20
0.0821152362204724
11
0.2416099606299213
21
0.0810855511811024
0
LINE
8
BLACK
6
CONTINUOUS
10
0.2416099606299213
20
0.0810855511811024
11
0.2376768897637795
21
0.0799524409448819
0
LINE
8
BLACK
6
CONTINUOUS
10
0.2376768897637795
20
0.0799524409448819
11
0.233702874015748
21
0.0786134645669291
0
LINE
8
BLACK
6
CONTINUOUS
10
0.233702874015748
20
0.0786134645669291
11
0.2308472440944882
21
0.0779848818897638
0
LINE
8
BLACK
6
CONTINUOUS
10
0.2308472440944882
20
0.0779848818897638
11
0.2280341338582677
21
0.0771744488188976
0
LINE
8
BLACK
6
CONTINUOUS
10
0.2280341338582677
20
0.0771744488188976
11
0.2242256692913386
21
0.0765273622047244
0
LINE
8
BLACK
6
CONTINUOUS
10
0.2242256692913386
20
0.0765273622047244
11
0.2203811023622047
21
0.0756811023622047
0
LINE
8
BLACK
6
CONTINUOUS
10
0.2203811023622047
20
0.0756811023622047
11
0.2172244094488189
21
0.0753377952755905
0
LINE
8
BLACK
6
CONTINUOUS
10
0.2172244094488189
20
0.0753377952755905
11
0.2141057480314961
21
0.0748079133858268
0
LINE
8
BLACK
6
CONTINUOUS
10
0.2141057480314961
20
0.0748079133858268
11
0.2104796062992126
21
0.0746042519685039
0
LINE
8
BLACK
6
CONTINUOUS
10
0.2104796062992126
20
0.0746042519685039
11
0.2068202362204724
21
0.0742062992125984
0
LINE
8
BLACK
6
CONTINUOUS
10
0.2068202362204724
20
0.0742062992125984
11
0.2033930708661417
21
0.0742062992125984
0
LINE
8
BLACK
6
CONTINUOUS
10
0.2033930708661417
20
0.0742062992125984
11
0.2
21
0.0740157480314961
0
LINE
8
BLACK
6
CONTINUOUS
10
0.2
20
0.0740157480314961
11
0.1966069291338583
21
0.0742062992125984
0
LINE
8
BLACK
6
CONTINUOUS
10
0.1966069291338583
20
0.0742062992125984
11
0.1931797637795276
21
0.0742062992125984
0
LINE
8
BLACK
6
CONTINUOUS
10
0.1931797637795276
20
0.0742062992125984
11
0.1895203149606299
21
0.0746042519685039
0
LINE
8
BLACK
6
CONTINUOUS
10
0.1895203149606299
20
0.0746042519685039
11
0.1858942519685039
21
0.0748079133858268
0
LINE
8
BLACK
6
CONTINUOUS
10
0.1858942519685039
20
0.0748079133858268
11
0.1827755905511811
21
0.0753377559055118
0
LINE
8
BLACK
6
CONTINUOUS
10
0.1827755905511811
20
0.0753377559055118
11
0.1796188582677165
21
0.0756811023622047
0
LINE
8
BLACK
6
CONTINUOUS
10
0.1796188582677165
20
0.0756811023622047
11
0.175774094488189
21
0.0765273622047244
0
LINE
8
BLACK
6
CONTINUOUS
10
0.175774094488189
20
0.0765273622047244
11
0.1719658661417323
21
0.0771744488188976
0
LINE
8
BLACK
6
CONTINUOUS
10
0.1719658661417323
20
0.0771744488188976
11
0.1691528346456693
21
0.077984842519685
0
LINE
8
BLACK
6
CONTINUOUS
10
0.1691528346456693
20
0.077984842519685
11
0.1662970866141732
21
0.0786134645669291
0
LINE
8
BLACK
6
CONTINUOUS
10
0.1662970866141732
20
0.0786134645669291
11
0.1623227952755905
21
0.0799525196850394
0
LINE
8
BLACK
6
CONTINUOUS
10
0.1623227952755905
20
0.0799525196850394
11
0.1583900393700787
21
0.0810855511811024
0
LINE
8
BLACK
6
CONTINUOUS
10
0.1583900393700787
20
0.0810855511811024
11
0.1559042913385827
21
0.082115157480315
0
LINE
8
BLACK
6
CONTINUOUS
10
0.1559042913385827
20
0.082115157480315
11
0.1533706692913386
21
0.0829688582677165
0
LINE
8
BLACK
6
CONTINUOUS
10
0.1533706692913386
20
0.0829688582677165
11
0.1493279921259842
21
0.0848391732283465
0
LINE
8
BLACK
6
CONTINUOUS
10
0.1493279921259842
20
0.0848391732283465
11
0.1453374803149606
21
0.086492125984252
0
LINE
8
BLACK
6
CONTINUOUS
10
0.1453374803149606
20
0.086492125984252
11
0.1431907874015748
21
0.0876785433070866
0
LINE
8
BLACK
6
CONTINUOUS
10
0.1431907874015748
20
0.0876785433070866
11
0.1409906299212599
21
0.0886964566929134
0
LINE
8
BLACK
6
CONTINUOUS
10
0.1409906299212599
20
0.0886964566929134
11
0.1369481496062992
21
0.0911287401574803
0
LINE
8
BLACK
6
CONTINUOUS
10
0.1369481496062992
20
0.0911287401574803
11
0.1329723228346457
21
0.0933261023622047
0
LINE
8
BLACK
6
CONTINUOUS
10
0.1329723228346457
20
0.0933261023622047
11
0.1311659842519685
21
0.0946077165354331
0
LINE
8
BLACK
6
CONTINUOUS
10
0.1311659842519685
20
0.0946077165354331
11
0.1293023228346457
21
0.095729094488189
0
LINE
8
BLACK
6
CONTINUOUS
10
0.1293023228346457
20
0.095729094488189
11
0.1253331102362205
21
0.0987463779527559
0
LINE
8
BLACK
6
CONTINUOUS
10
0.1253331102362205
20
0.0987463779527559
11
0.1214501181102362
21
0.1015015354330709
0
LINE
8
BLACK
6
CONTINUOUS
10
0.1214501181102362
20
0.1015015354330709
11
0.1199768110236221
21
0.1028181496062992
0
LINE
8
BLACK
6
CONTINUOUS
10
0.1199768110236221
20
0.1028181496062992
11
0.1184433070866142
21
0.1039838976377953
0
LINE
8
BLACK
6
CONTINUOUS
10
0.1184433070866142
20
0.1039838976377953
11
0.1146246062992126
21
0.1076011417322835
0
LINE
8
BLACK
6
CONTINUOUS
10
0.1146246062992126
20
0.1076011417322835
11
0.1109156692913386
21
0.1109156692913386
0
LINE
8
BLACK
6
CONTINUOUS
10
0.1109156692913386
20
0.1109156692913386
11
0.1097581496062992
21
0.1122108661417323
0
LINE
8
BLACK
6
CONTINUOUS
10
0.1097581496062992
20
0.1122108661417323
11
0.1085403149606299
21
0.1133645275590551
0
LINE
8
BLACK
6
CONTINUOUS
10
0.1085403149606299
20
0.1133645275590551
11
0.1049520078740157
21
0.1175889763779528
0
LINE
8
BLACK
6
CONTINUOUS
10
0.1049520078740157
20
0.1175889763779528
11
0.1015015354330709
21
0.1214501181102362
0
LINE
8
BLACK
6
CONTINUOUS
10
0.1015015354330709
20
0.1214501181102362
11
0.1006348031496063
21
0.1226716141732283
0
LINE
8
BLACK
6
CONTINUOUS
10
0.1006348031496063
20
0.1226716141732283
11
0.0997092913385827
21
0.1237612598425197
0
LINE
8
BLACK
6
CONTINUOUS
10
0.0997092913385827
20
0.1237612598425197
11
0.0964305905511811
21
0.1285968897637795
0
LINE
8
BLACK
6
CONTINUOUS
10
0.0964305905511811
20
0.1285968897637795
11
0.0933261023622047
21
0.1329723228346457
0
LINE
8
BLACK
6
CONTINUOUS
10
0.0933261023622047
20
0.1329723228346457
11
0.092718031496063
21
0.1340724803149606
0
LINE
8
BLACK
6
CONTINUOUS
10
0.092718031496063
20
0.1340724803149606
11
0.0920543307086614
21
0.1350514173228347
0
LINE
8
BLACK
6
CONTINUOUS
10
0.0920543307086614
20
0.1350514173228347
11
0.0891649606299213
21
0.1405012992125984
0
LINE
8
BLACK
6
CONTINUOUS
10
0.0891649606299213
20
0.1405012992125984
11
0.086492125984252
21
0.1453374803149606
0
LINE
8
BLACK
6
CONTINUOUS
10
0.086492125984252
20
0.1453374803149606
11
0.0861031496062992
21
0.1462764960629921
0
LINE
8
BLACK
6
CONTINUOUS
10
0.0861031496062992
20
0.1462764960629921
11
0.085665157480315
21
0.1471026771653543
0
LINE
8
BLACK
6
CONTINUOUS
10
0.085665157480315
20
0.1471026771653543
11
0.0832458661417323
21
0.1531744881889764
0
LINE
8
BLACK
6
CONTINUOUS
10
0.0832458661417323
20
0.1531744881889764
11
0.0810855511811024
21
0.1583900393700787
0
LINE
8
BLACK
6
CONTINUOUS
10
0.0810855511811024
20
0.1583900393700787
11
0.0808707086614173
21
0.159135748031496
0
LINE
8
BLACK
6
CONTINUOUS
10
0.0808707086614173
20
0.159135748031496
11
0.0806159842519685
21
0.1597750787401575
0
LINE
8
BLACK
6
CONTINUOUS
10
0.0806159842519685
20
0.1597750787401575
11
0.078740905511811
21
0.1665284251968504
0
LINE
8
BLACK
6
CONTINUOUS
10
0.078740905511811
20
0.1665284251968504
11
0.0771744488188976
21
0.1719658661417323
0
LINE
8
BLACK
6
CONTINUOUS
10
0.0771744488188976
20
0.1719658661417323
11
0.077084842519685
21
0.172493031496063
0
LINE
8
BLACK
6
CONTINUOUS
10
0.077084842519685
20
0.172493031496063
11
0.0769668503937008
21
0.1729181496062992
0
LINE
8
BLACK
6
CONTINUOUS
10
0.0769668503937008
20
0.1729181496062992
11
0.0757087401574803
21
0.1805921653543307
0
LINE
8
BLACK
6
CONTINUOUS
10
0.0757087401574803
20
0.1805921653543307
11
0.0748079133858268
21
0.1858942519685039
0
LINE
8
BLACK
6
CONTINUOUS
10
0.0748079133858268
20
0.1858942519685039
11
0.0747914173228346
21
0.1861877952755905
0
LINE
8
BLACK
6
CONTINUOUS
10
0.0747914173228346
20
0.1861877952755905
11
0.07476
21
0.1863795275590551
0
LINE
8
BLACK
6
CONTINUOUS
10
0.07476
20
0.1863795275590551
11
0.0741822047244095
21
0.1970353937007874
0
LINE
8
BLACK
6
CONTINUOUS
10
0.0741822047244095
20
0.1970353937007874
11
0.0740157480314961
21
0.2
0
LINE
8
BLACK
6
CONTINUOUS
10
0.0740157480314961
20
0.2
11
0.0741822440944882
21
0.2029648031496063
0
LINE
8
BLACK
6
CONTINUOUS
10
0.0741822440944882
20
0.2029648031496063
11
0.07476
21
0.2136204330708661
0
LINE
8
BLACK
6
CONTINUOUS
10
0.07476
20
0.2136204330708661
11
0.0747914173228346
21
0.2138120866141732
0
LINE
8
BLACK
6
CONTINUOUS
10
0.0747914173228346
20
0.2138120866141732
11
0.0748079133858268
21
0.2141057480314961
0
LINE
8
BLACK
6
CONTINUOUS
10
0.0748079133858268
20
0.2141057480314961
11
0.075708937007874
21
0.2194088582677165
0
LINE
8
BLACK
6
CONTINUOUS
10
0.075708937007874
20
0.2194088582677165
11
0.0769668503937008
21
0.227081811023622
0
LINE
8
BLACK
6
CONTINUOUS
10
0.0769668503937008
20
0.227081811023622
11
0.077084842519685
21
0.2275068110236221
0
LINE
8
BLACK
6
CONTINUOUS
10
0.077084842519685
20
0.2275068110236221
11
0.0771744488188976
21
0.2280341338582677
0
LINE
8
BLACK
6
CONTINUOUS
10
0.0771744488188976
20
0.2280341338582677
11
0.0787412204724409
21
0.2334725984251969
0
LINE
8
BLACK
6
CONTINUOUS
10
0.0787412204724409
20
0.2334725984251969
11
0.0806159842519685
21
0.2402248818897638
0
LINE
8
BLACK
6
CONTINUOUS
10
0.0806159842519685
20
0.2402248818897638
11
0.0808706692913386
21
0.240864094488189
0
LINE
8
BLACK
6
CONTINUOUS
10
0.0808706692913386
20
0.240864094488189
11
0.0810855511811024
21
0.2416099606299213
0
LINE
8
BLACK
6
CONTINUOUS
10
0.0810855511811024
20
0.2416099606299213
11
0.0832462992125984
21
0.2468264566929134
0
LINE
8
BLACK
6
CONTINUOUS
10
0.0832462992125984
20
0.2468264566929134
11
0.085665157480315
21
0.2528972834645669
0
LINE
8
BLACK
6
CONTINUOUS
10
0.085665157480315
20
0.2528972834645669
11
0.0861030708661417
21
0.2537233070866142
0
LINE
8
BLACK
6
CONTINUOUS
10
0.0861030708661417
20
0.2537233070866142
11
0.086492125984252
21
0.2546625196850394
0
LINE
8
BLACK
6
CONTINUOUS
10
0.086492125984252
20
0.2546625196850394
11
0.0891654724409449
21
0.2594995669291338
0
LINE
8
BLACK
6
CONTINUOUS
10
0.0891654724409449
20
0.2594995669291338
11
0.0920543307086614
21
0.2649485433070866
0
LINE
8
BLACK
6
CONTINUOUS
10
0.0920543307086614
20
0.2649485433070866
11
0.0927179133858268
21
0.2659272440944882
0
LINE
8
BLACK
6
CONTINUOUS
10
0.0927179133858268
20
0.2659272440944882
11
0.0933261023622047
21
0.2670276771653543
0
LINE
8
BLACK
6
CONTINUOUS
10
0.0933261023622047
20
0.2670276771653543
11
0.0964311811023622
21
0.2714038976377953
0
LINE
8
BLACK
6
CONTINUOUS
10
0.0964311811023622
20
0.2714038976377953
11
0.0997092913385827
21
0.2762387007874016
0
LINE
8
BLACK
6
CONTINUOUS
10
0.0997092913385827
20
0.2762387007874016
11
0.1006346456692913
21
0.2773281102362204
0
LINE
8
BLACK
6
CONTINUOUS
10
0.1006346456692913
20
0.2773281102362204
11
0.1015015354330709
21
0.2785498818897638
0
LINE
8
BLACK
6
CONTINUOUS
10
0.1015015354330709
20
0.2785498818897638
11
0.1049526771653543
21
0.2824117322834646
0
LINE
8
BLACK
6
CONTINUOUS
10
0.1049526771653543
20
0.2824117322834646
11
0.1085403149606299
21
0.2866354330708661
0
LINE
8
BLACK
6
CONTINUOUS
10
0.1085403149606299
20
0.2866354330708661
11
0.1097579527559055
21
0.2877888188976378
0
LINE
8
BLACK
6
CONTINUOUS
10
0.1097579527559055
20
0.2877888188976378
11
0.1109156692913386
21
0.2890843307086614
0
LINE
8
BLACK
6
CONTINUOUS
10
0.1109156692913386
20
0.2890843307086614
11
0.1146253149606299
21
0.2923994881889764
0
LINE
8
BLACK
6
CONTINUOUS
10
0.1146253149606299
20
0.2923994881889764
11
0.1184433070866142
21
0.296016062992126
0
LINE
8
BLACK
6
CONTINUOUS
10
0.1184433070866142
20
0.296016062992126
11
0.1199764960629921
21
0.2971815748031496
0
LINE
8
BLACK
6
CONTINUOUS
10
0.1199764960629921
20
0.2971815748031496
11
0.1214501181102362
21
0.2984984645669291
0
LINE
8
BLACK
6
CONTINUOUS
10
0.1214501181102362
20
0.2984984645669291
11
0.1253338976377953
21
0.3012541338582677
0
LINE
8
BLACK
6
CONTINUOUS
10
0.1253338976377953
20
0.3012541338582677
11
0.1293023228346457
21
0.3042708661417323
0
LINE
8
BLACK
6
CONTINUOUS
10
0.1293023228346457
20
0.3042708661417323
11
0.1311656299212599
21
0.305391968503937
0
LINE
8
BLACK
6
CONTINUOUS
10
0.1311656299212599
20
0.305391968503937
11
0.1329723228346457
21
0.3066738976377953
0
LINE
8
BLACK
6
CONTINUOUS
10
0.1329723228346457
20
0.3066738976377953
11
0.136948937007874
21
0.3088716929133858
0
LINE
8
BLACK
6
CONTINUOUS
10
0.136948937007874
20
0.3088716929133858
11
0.1409906299212599
21
0.3113035039370078
0
LINE
8
BLACK
6
CONTINUOUS
10
0.1409906299212599
20
0.3113035039370078
11
0.1431903543307086
21
0.3123211811023622
0
LINE
8
BLACK
6
CONTINUOUS
10
0.1431903543307086
20
0.3123211811023622
11
0.1453374803149606
21
0.313507874015748
0
LINE
8
BLACK
6
CONTINUOUS
10
0.1453374803149606
20
0.313507874015748
11
0.1493288188976378
21
0.3151611417322834
0
LINE
8
BLACK
6
CONTINUOUS
10
0.1493288188976378
20
0.3151611417322834
11
0.1533706692913386
21
0.3170311023622047
0
LINE
8
BLACK
6
CONTINUOUS
10
0.1533706692913386
20
0.3170311023622047
11
0.155903779527559
21
0.3178846062992126
0
LINE
8
BLACK
6
CONTINUOUS
10
0.155903779527559
20
0.3178846062992126
11
0.1583900393700787
21
0.3189144488188976
0
LINE
8
BLACK
6
CONTINUOUS
10
0.1583900393700787
20
0.3189144488188976
11
0.1623235826771653
21
0.3200476771653543
0
LINE
8
BLACK
6
CONTINUOUS
10
0.1623235826771653
20
0.3200476771653543
11
0.1662970866141732
21
0.3213864960629921
0
LINE
8
BLACK
6
CONTINUOUS
10
0.1662970866141732
20
0.3213864960629921
11
0.1691522440944882
21
0.3220149606299212
0
LINE
8
BLACK
6
CONTINUOUS
10
0.1691522440944882
20
0.3220149606299212
11
0.1719658661417323
21
0.3228255511811023
0
LINE
8
BLACK
6
CONTINUOUS
10
0.1719658661417323
20
0.3228255511811023
11
0.1757748818897638
21
0.3234727165354331
0
LINE
8
BLACK
6
CONTINUOUS
10
0.1757748818897638
20
0.3234727165354331
11
0.1796188582677165
21
0.3243188582677165
0
LINE
8
BLACK
6
CONTINUOUS
10
0.1796188582677165
20
0.3243188582677165
11
0.1827751181102362
21
0.3246620866141732
0
LINE
8
BLACK
6
CONTINUOUS
10
0.1827751181102362
20
0.3246620866141732
11
0.1858942519685039
21
0.3251920866141732
0
LINE
8
BLACK
6
CONTINUOUS
10
0.1858942519685039
20
0.3251920866141732
11
0.1895205511811024
21
0.3253957086614173
0
LINE
8
BLACK
6
CONTINUOUS
10
0.1895205511811024
20
0.3253957086614173
11
0.1931797637795276
21
0.3257937007874016
0
LINE
8
BLACK
6
CONTINUOUS
10
0.1931797637795276
20
0.3257937007874016
11
0.1966069291338583
21
0.3257937007874016
0
LINE
8
BLACK
6
CONTINUOUS
10
0.1966069291338583
20
0.3257937007874016
11
0.2
21
0.3259842519685039
0
LINE
8
BLACK
6
CONTINUOUS
10
0.2
20
0.3259842519685039
11
0.2033930708661417
21
0.3257937007874016
0
LINE
8
BLACK
6
CONTINUOUS
10
1.4033930708661417
20
0.3257937007874016
11
1.4068202362204725
21
0.3257937007874016
0
LINE
8
BLACK
6
CONTINUOUS
10
1.4068202362204725
20
0.3257937007874016
11
1.4104794094488189
21
0.3253957086614173
0
LINE
8
BLACK
6
CONTINUOUS
10
1.4104794094488189
20
0.3253957086614173
11
1.414105748031496
21
0.3251920866141732
0
LINE
8
BLACK
6
CONTINUOUS
10
1.414105748031496
20
0.3251920866141732
11
1.4172249212598425
21
0.3246620866141732
0
LINE
8
BLACK
6
CONTINUOUS
10
1.4172249212598425
20
0.3246620866141732
11
1.4203811023622046
21
0.3243188582677165
0
LINE
8
BLACK
6
CONTINUOUS
10
1.4203811023622046
20
0.3243188582677165
11
1.4242248818897638
21
0.3234727559055118
0
LINE
8
BLACK
6
CONTINUOUS
10
1.4242248818897638
20
0.3234727559055118
11
1.4280341338582676
21
0.3228255511811023
0
LINE
8
BLACK
6
CONTINUOUS
10
1.4280341338582676
20
0.3228255511811023
11
1.4308478346456692
21
0.3220149212598425
0
LINE
8
BLACK
6
CONTINUOUS
10
1.4308478346456692
20
0.3220149212598425
11
1.433702874015748
21
0.3213864960629921
0
LINE
8
BLACK
6
CONTINUOUS
10
1.433702874015748
20
0.3213864960629921
11
1.4376761023622047
21
0.3200477559055118
0
LINE
8
BLACK
6
CONTINUOUS
10
1.4376761023622047
20
0.3200477559055118
11
1.4416099606299213
21
0.3189144488188976
0
LINE
8
BLACK
6
CONTINUOUS
10
1.4416099606299213
20
0.3189144488188976
11
1.4440963779527558
21
0.3178845275590551
0
LINE
8
BLACK
6
CONTINUOUS
10
1.4440963779527558
20
0.3178845275590551
11
1.4466292913385825
21
0.3170311023622047
0
LINE
8
BLACK
6
CONTINUOUS
10
1.4466292913385825
20
0.3170311023622047
11
1.4506707874015747
21
0.3151612992125984
0
LINE
8
BLACK
6
CONTINUOUS
10
1.4506707874015747
20
0.3151612992125984
11
1.4546625196850393
21
0.313507874015748
0
LINE
8
BLACK
6
CONTINUOUS
10
1.4546625196850393
20
0.313507874015748
11
1.4568098031496062
21
0.312321062992126
0
LINE
8
BLACK
6
CONTINUOUS
10
1.4568098031496062
20
0.312321062992126
11
1.4590093307086613
21
0.3113035039370078
0
LINE
8
BLACK
6
CONTINUOUS
10
1.4590093307086613
20
0.3113035039370078
11
1.4630505511811023
21
0.308871968503937
0
LINE
8
BLACK
6
CONTINUOUS
10
1.4630505511811023
20
0.308871968503937
11
1.4670276771653543
21
0.3066738976377953
0
LINE
8
BLACK
6
CONTINUOUS
10
1.4670276771653543
20
0.3066738976377953
11
1.4688345669291338
21
0.3053918110236221
0
LINE
8
BLACK
6
CONTINUOUS
10
1.4688345669291338
20
0.3053918110236221
11
1.4706976377952756
21
0.3042708661417323
0
LINE
8
BLACK
6
CONTINUOUS
10
1.4706976377952756
20
0.3042708661417323
11
1.4746654724409449
21
0.3012545669291338
0
LINE
8
BLACK
6
CONTINUOUS
10
1.4746654724409449
20
0.3012545669291338
11
1.4785498818897638
21
0.2984984645669291
0
LINE
8
BLACK
6
CONTINUOUS
10
1.4785498818897638
20
0.2984984645669291
11
1.4800237007874015
21
0.2971813779527559
0
LINE
8
BLACK
6
CONTINUOUS
10
1.4800237007874015
20
0.2971813779527559
11
1.4815566535433071
21
0.296016062992126
0
LINE
8
BLACK
6
CONTINUOUS
10
1.4815566535433071
20
0.296016062992126
11
1.485373937007874
21
0.2924000787401575
0
LINE
8
BLACK
6
CONTINUOUS
10
1.485373937007874
20
0.2924000787401575
11
1.4890843307086614
21
0.2890843307086614
0
LINE
8
BLACK
6
CONTINUOUS
10
1.4890843307086614
20
0.2890843307086614
11
1.4902422440944882
21
0.2877885826771653
0
LINE
8
BLACK
6
CONTINUOUS
10
1.4902422440944882
20
0.2877885826771653
11
1.4914596456692912
21
0.2866354330708661
0
LINE
8
BLACK
6
CONTINUOUS
10
1.4914596456692912
20
0.2866354330708661
11
1.4950464960629921
21
0.2824126377952756
0
LINE
8
BLACK
6
CONTINUOUS
10
1.4950464960629921
20
0.2824126377952756
11
1.498498464566929
21
0.2785498818897638
0
LINE
8
BLACK
6
CONTINUOUS
10
1.498498464566929
20
0.2785498818897638
11
1.4993655118110236
21
0.2773278346456693
0
LINE
8
BLACK
6
CONTINUOUS
10
1.4993655118110236
20
0.2773278346456693
11
1.5002906692913385
21
0.2762387007874016
0
LINE
8
BLACK
6
CONTINUOUS
10
1.5002906692913385
20
0.2762387007874016
11
1.5035678740157481
21
0.271405157480315
0
LINE
8
BLACK
6
CONTINUOUS
10
1.5035678740157481
20
0.271405157480315
11
1.5066738976377951
21
0.2670276771653543
0
LINE
8
BLACK
6
CONTINUOUS
10
1.5066738976377951
20
0.2670276771653543
11
1.5072822047244094
21
0.2659269291338582
0
LINE
8
BLACK
6
CONTINUOUS
10
1.5072822047244094
20
0.2659269291338582
11
1.5079456299212599
21
0.2649485433070866
0
LINE
8
BLACK
6
CONTINUOUS
10
1.5079456299212599
20
0.2649485433070866
11
1.5108335433070865
21
0.2595013385826772
0
LINE
8
BLACK
6
CONTINUOUS
10
1.5108335433070865
20
0.2595013385826772
11
1.5135078740157479
21
0.2546625196850394
0
LINE
8
BLACK
6
CONTINUOUS
10
1.5135078740157479
20
0.2546625196850394
11
1.5138970078740157
21
0.2537229527559055
0
LINE
8
BLACK
6
CONTINUOUS
10
1.5138970078740157
20
0.2537229527559055
11
1.5143348031496062
21
0.2528972834645669
0
LINE
8
BLACK
6
CONTINUOUS
10
1.5143348031496062
20
0.2528972834645669
11
1.5167526377952756
21
0.2468289763779528
0
LINE
8
BLACK
6
CONTINUOUS
10
1.5167526377952756
20
0.2468289763779528
11
1.5189144488188977
21
0.2416099606299213
0
LINE
8
BLACK
6
CONTINUOUS
10
1.5189144488188977
20
0.2416099606299213
11
1.5191294094488188
21
0.2408637401574803
0
LINE
8
BLACK
6
CONTINUOUS
10
1.5191294094488188
20
0.2408637401574803
11
1.5193839763779526
21
0.2402248818897638
0
LINE
8
BLACK
6
CONTINUOUS
10
1.5193839763779526
20
0.2402248818897638
11
1.5212576771653543
21
0.2334763385826772
0
LINE
8
BLACK
6
CONTINUOUS
10
1.5212576771653543
20
0.2334763385826772
11
1.5228255511811024
21
0.2280341338582677
0
LINE
8
BLACK
6
CONTINUOUS
10
1.5228255511811024
20
0.2280341338582677
11
1.5229151968503936
21
0.2275064566929134
0
LINE
8
BLACK
6
CONTINUOUS
10
1.5229151968503936
20
0.2275064566929134
11
1.5230331102362205
21
0.227081811023622
0
LINE
8
BLACK
6
CONTINUOUS
10
1.5230331102362205
20
0.227081811023622
11
1.5242899212598424
21
0.2194154724409449
0
LINE
8
BLACK
6
CONTINUOUS
10
1.5242899212598424
20
0.2194154724409449
11
1.5251920866141733
21
0.2141057480314961
0
LINE
8
BLACK
6
CONTINUOUS
10
1.5251920866141733
20
0.2141057480314961
11
1.5252085826771653
21
0.2138117322834646
0
LINE
8
BLACK
6
CONTINUOUS
10
1.5252085826771653
20
0.2138117322834646
11
1.5252399606299212
21
0.2136204330708661
0
LINE
8
BLACK
6
CONTINUOUS
10
1.5252399606299212
20
0.2136204330708661
11
1.5258165748031496
21
0.2029851181102362
0
LINE
8
BLACK
6
CONTINUOUS
10
1.5258165748031496
20
0.2029851181102362
11
1.5259842519685038
21
0.2
0
LINE
8
BLACK
6
CONTINUOUS
10
1.5259842519685038
20
0.2
11
1.5258166141732283
21
0.1970151181102362
0
LINE
8
BLACK
6
CONTINUOUS
10
1.5258166141732283
20
0.1970151181102362
11
1.5252399606299212
21
0.1863795275590551
0
LINE
8
BLACK
6
CONTINUOUS
10
1.5252399606299212
20
0.1863795275590551
11
1.5252085826771653
21
0.186188188976378
0
LINE
8
BLACK
6
CONTINUOUS
10
1.5252085826771653
20
0.186188188976378
11
1.5251920866141733
21
0.1858942519685039
0
LINE
8
BLACK
6
CONTINUOUS
10
1.5251920866141733
20
0.1858942519685039
11
1.5242900787401574
21
0.1805855905511811
0
LINE
8
BLACK
6
CONTINUOUS
10
1.5242900787401574
20
0.1805855905511811
11
1.5230331102362205
21
0.1729181496062992
0
LINE
8
BLACK
6
CONTINUOUS
10
1.5230331102362205
20
0.1729181496062992
11
1.522915157480315
21
0.1724934251968504
0
LINE
8
BLACK
6
CONTINUOUS
10
1.522915157480315
20
0.1724934251968504
11
1.5228255511811024
21
0.1719658661417323
0
LINE
8
BLACK
6
CONTINUOUS
10
1.5228255511811024
20
0.1719658661417323
11
1.5212579527559056
21
0.1665246456692913
0
LINE
8
BLACK
6
CONTINUOUS
10
1.5212579527559056
20
0.1665246456692913
11
1.5193839763779526
21
0.1597750787401575
0
LINE
8
BLACK
6
CONTINUOUS
10
1.5193839763779526
20
0.1597750787401575
11
1.51912937007874
21
0.1591361023622047
0
LINE
8
BLACK
6
CONTINUOUS
10
1.51912937007874
20
0.1591361023622047
11
1.5189144488188977
21
0.1583900393700787
0
LINE
8
BLACK
6
CONTINUOUS
10
1.5189144488188977
20
0.1583900393700787
11
1.5167530314960629
21
0.1531720078740157
0
LINE
8
BLACK
6
CONTINUOUS
10
1.5167530314960629
20
0.1531720078740157
11
1.5143348031496062
21
0.1471026771653543
0
LINE
8
BLACK
6
CONTINUOUS
10
1.5143348031496062
20
0.1471026771653543
11
1.513896968503937
21
0.1462768110236221
0
LINE
8
BLACK
6
CONTINUOUS
10
1.513896968503937
20
0.1462768110236221
11
1.5135078740157479
21
0.1453374803149606
0
LINE
8
BLACK
6
CONTINUOUS
10
1.5135078740157479
20
0.1453374803149606
11
1.5108340551181103
21
0.1404995669291338
0
LINE
8
BLACK
6
CONTINUOUS
10
1.5108340551181103
20
0.1404995669291338
11
1.5079456299212599
21
0.1350514173228347
0
LINE
8
BLACK
6
CONTINUOUS
10
1.5079456299212599
20
0.1350514173228347
11
1.5072820866141732
21
0.1340727952755905
0
LINE
8
BLACK
6
CONTINUOUS
10
1.5072820866141732
20
0.1340727952755905
11
1.5066738976377951
21
0.1329723228346457
0
LINE
8
BLACK
6
CONTINUOUS
10
1.5066738976377951
20
0.1329723228346457
11
1.5035684645669292
21
0.1285956299212598
0
LINE
8
BLACK
6
CONTINUOUS
10
1.5035684645669292
20
0.1285956299212598
11
1.5002906692913385
21
0.1237612598425197
0
LINE
8
BLACK
6
CONTINUOUS
10
1.5002906692913385
20
0.1237612598425197
11
1.4993653543307086
21
0.1226718897637795
0
LINE
8
BLACK
6
CONTINUOUS
10
1.4993653543307086
20
0.1226718897637795
11
1.498498464566929
21
0.1214501181102362
0
LINE
8
BLACK
6
CONTINUOUS
10
1.498498464566929
20
0.1214501181102362
11
1.4950471653543307
21
0.1175881102362205
0
LINE
8
BLACK
6
CONTINUOUS
10
1.4950471653543307
20
0.1175881102362205
11
1.4914596456692912
21
0.1133645275590551
0
LINE
8
BLACK
6
CONTINUOUS
10
1.4914596456692912
20
0.1133645275590551
11
1.4902420078740157
21
0.1122111023622047
0
LINE
8
BLACK
6
CONTINUOUS
10
1.4902420078740157
20
0.1122111023622047
11
1.4890843307086614
21
0.1109156692913386
0
LINE
8
BLACK
6
CONTINUOUS
10
1.4890843307086614
20
0.1109156692913386
11
1.4853746850393701
21
0.1076005118110236
0
LINE
8
BLACK
6
CONTINUOUS
10
1.4853746850393701
20
0.1076005118110236
11
1.4815566535433071
21
0.1039838976377953
0
LINE
8
BLACK
6
CONTINUOUS
10
1.4815566535433071
20
0.1039838976377953
11
1.4800233858267715
21
0.1028183464566929
0
LINE
8
BLACK
6
CONTINUOUS
10
1.4800233858267715
20
0.1028183464566929
11
1.4785498818897638
21
0.1015015354330709
0
LINE
8
BLACK
6
CONTINUOUS
10
1.4785498818897638
20
0.1015015354330709
11
1.4746662598425198
21
0.0987459448818898
0
LINE
8
BLACK
6
CONTINUOUS
10
1.4746662598425198
20
0.0987459448818898
11
1.4706976377952756
21
0.095729094488189
0
LINE
8
BLACK
6
CONTINUOUS
10
1.4706976377952756
20
0.095729094488189
11
1.4688341732283465
21
0.094607874015748
0
LINE
8
BLACK
6
CONTINUOUS
10
1.4688341732283465
20
0.094607874015748
11
1.4670276771653543
21
0.0933261023622047
0
LINE
8
BLACK
6
CONTINUOUS
10
1.4670276771653543
20
0.0933261023622047
11
1.4630513385826771
21
0.0911284645669291
0
LINE
8
BLACK
6
CONTINUOUS
10
1.4630513385826771
20
0.0911284645669291
11
1.4590093307086613
21
0.0886964566929134
0
LINE
8
BLACK
6
CONTINUOUS
10
1.4590093307086613
20
0.0886964566929134
11
1.4568093700787401
21
0.0876786220472441
0
LINE
8
BLACK
6
CONTINUOUS
10
1.4568093700787401
20
0.0876786220472441
11
1.4546625196850393
21
0.086492125984252
0
LINE
8
BLACK
6
CONTINUOUS
10
1.4546625196850393
20
0.086492125984252
11
1.4506716141732283
21
0.0848390157480315
0
LINE
8
BLACK
6
CONTINUOUS
10
1.4506716141732283
20
0.0848390157480315
11
1.4466292913385825
21
0.0829688582677165
0
LINE
8
BLACK
6
CONTINUOUS
10
1.4466292913385825
20
0.0829688582677165
11
1.4440958661417322
21
0.0821152362204724
0
LINE
8
BLACK
6
CONTINUOUS
10
1.4440958661417322
20
0.0821152362204724
11
1.4416099606299213
21
0.0810855511811024
0
LINE
8
BLACK
6
CONTINUOUS
10
1.4416099606299213
20
0.0810855511811024
11
1.4376768897637795
21
0.0799524409448819
0
LINE
8
BLACK
6
CONTINUOUS
10
1.4376768897637795
20
0.0799524409448819
11
1.433702874015748
21
0.0786134645669291
0
LINE
8
BLACK
6
CONTINUOUS
10
1.433702874015748
20
0.0786134645669291
11
1.4308472440944882
21
0.0779848818897638
0
LINE
8
BLACK
6
CONTINUOUS
10
1.4308472440944882
20
0.0779848818897638
11
1.4280341338582676
21
0.0771744488188976
0
LINE
8
BLACK
6
CONTINUOUS
10
1.4280341338582676
20
0.0771744488188976
11
1.4242256692913386
21
0.0765273622047244
0
LINE
8
BLACK
6
CONTINUOUS
10
1.4242256692913386
20
0.0765273622047244
11
1.4203811023622046
21
0.0756811023622047
0
LINE
8
BLACK
6
CONTINUOUS
10
1.4203811023622046
20
0.0756811023622047
11
1.4172244094488189
21
0.0753377952755905
0
LINE
8
BLACK
6
CONTINUOUS
10
1.4172244094488189
20
0.0753377952755905
11
1.414105748031496
21
0.0748079133858268
0
LINE
8
BLACK
6
CONTINUOUS
10
1.414105748031496
20
0.0748079133858268
11
1.4104796062992127
21
0.0746042519685039
0
LINE
8
BLACK
6
CONTINUOUS
10
1.4104796062992127
20
0.0746042519685039
11
1.4068202362204725
21
0.0742062992125984
0
LINE
8
BLACK
6
CONTINUOUS
10
1.4068202362204725
20
0.0742062992125984
11
1.4033930708661417
21
0.0742062992125984
0
LINE
8
BLACK
6
CONTINUOUS
10
1.4033930708661417
20
0.0742062992125984
11
1.3999999999999999
21
0.0740157480314961
0
LINE
8
BLACK
6
CONTINUOUS
10
1.3999999999999999
20
0.0740157480314961
11
1.3966069291338583
21
0.0742062992125984
0
LINE
8
BLACK
6
CONTINUOUS
10
1.3966069291338583
20
0.0742062992125984
11
1.3931797637795276
21
0.0742062992125984
0
LINE
8
BLACK
6
CONTINUOUS
10
1.3931797637795276
20
0.0742062992125984
11
1.3895203149606299
21
0.0746042519685039
0
LINE
8
BLACK
6
CONTINUOUS
10
1.3895203149606299
20
0.0746042519685039
11
1.3858942519685038
21
0.0748079133858268
0
LINE
8
BLACK
6
CONTINUOUS
10
1.3858942519685038
20
0.0748079133858268
11
1.3827755905511812
21
0.0753377559055118
0
LINE
8
BLACK
6
CONTINUOUS
10
1.3827755905511812
20
0.0753377559055118
11
1.3796188582677165
21
0.0756811023622047
0
LINE
8
BLACK
6
CONTINUOUS
10
1.3796188582677165
20
0.0756811023622047
11
1.3757740944881889
21
0.0765273622047244
0
LINE
8
BLACK
6
CONTINUOUS
10
1.3757740944881889
20
0.0765273622047244
11
1.3719658661417322
21
0.0771744488188976
0
LINE
8
BLACK
6
CONTINUOUS
10
1.3719658661417322
20
0.0771744488188976
11
1.3691528346456692
21
0.077984842519685
0
LINE
8
BLACK
6
CONTINUOUS
10
1.3691528346456692
20
0.077984842519685
11
1.3662970866141733
21
0.0786134645669291
0
LINE
8
BLACK
6
CONTINUOUS
10
1.3662970866141733
20
0.0786134645669291
11
1.3623227952755905
21
0.0799525196850394
0
LINE
8
BLACK
6
CONTINUOUS
10
1.3623227952755905
20
0.0799525196850394
11
1.3583900393700787
21
0.0810855511811024
0
LINE
8
BLACK
6
CONTINUOUS
10
1.3583900393700787
20
0.0810855511811024
11
1.3559042913385826
21
0.082115157480315
0
LINE
8
BLACK
6
CONTINUOUS
10
1.3559042913385826
20
0.082115157480315
11
1.3533706692913385
21
0.0829688582677165
0
LINE
8
BLACK
6
CONTINUOUS
10
1.3533706692913385
20
0.0829688582677165
11
1.3493279921259842
21
0.0848391732283465
0
LINE
8
BLACK
6
CONTINUOUS
10
1.3493279921259842
20
0.0848391732283465
11
1.3453374803149607
21
0.086492125984252
0
LINE
8
BLACK
6
CONTINUOUS
10
1.3453374803149607
20
0.086492125984252
11
1.3431907874015747
21
0.0876785433070866
0
LINE
8
BLACK
6
CONTINUOUS
10
1.3431907874015747
20
0.0876785433070866
11
1.3409906299212597
21
0.0886964566929134
0
LINE
8
BLACK
6
CONTINUOUS
10
1.3409906299212597
20
0.0886964566929134
11
1.3369481496062992
21
0.0911287401574803
0
LINE
8
BLACK
6
CONTINUOUS
10
1.3369481496062992
20
0.0911287401574803
11
1.3329723228346457
21
0.0933261023622047
0
LINE
8
BLACK
6
CONTINUOUS
10
1.3329723228346457
20
0.0933261023622047
11
1.3311659842519685
21
0.0946077165354331
0
LINE
8
BLACK
6
CONTINUOUS
10
1.3311659842519685
20
0.0946077165354331
11
1.3293023228346457
21
0.095729094488189
0
LINE
8
BLACK
6
CONTINUOUS
10
1.3293023228346457
20
0.095729094488189
11
1.3253331102362205
21
0.0987463779527559
0
LINE
8
BLACK
6
CONTINUOUS
10
1.3253331102362205
20
0.0987463779527559
11
1.3214501181102363
21
0.1015015354330709
0
LINE
8
BLACK
6
CONTINUOUS
10
1.3214501181102363
20
0.1015015354330709
11
1.3199768110236221
21
0.1028181496062992
0
LINE
8
BLACK
6
CONTINUOUS
10
1.3199768110236221
20
0.1028181496062992
11
1.3184433070866142
21
0.1039838976377953
0
LINE
8
BLACK
6
CONTINUOUS
10
1.3184433070866142
20
0.1039838976377953
11
1.3146246062992126
21
0.1076011417322835
0
LINE
8
BLACK
6
CONTINUOUS
10
1.3146246062992126
20
0.1076011417322835
11
1.3109156692913386
21
0.1109156692913386
0
LINE
8
BLACK
6
CONTINUOUS
10
1.3109156692913386
20
0.1109156692913386
11
1.3097581496062991
21
0.1122108661417323
0
LINE
8
BLACK
6
CONTINUOUS
10
1.3097581496062991
20
0.1122108661417323
11
1.3085403149606298
21
0.1133645275590551
0
LINE
8
BLACK
6
CONTINUOUS
10
1.3085403149606298
20
0.1133645275590551
11
1.3049520078740158
21
0.1175889763779528
0
LINE
8
BLACK
6
CONTINUOUS
10
1.3049520078740158
20
0.1175889763779528
11
1.3015015354330708
21
0.1214501181102362
0
LINE
8
BLACK
6
CONTINUOUS
10
1.3015015354330708
20
0.1214501181102362
11
1.3006348031496062
21
0.1226716141732283
0
LINE
8
BLACK
6
CONTINUOUS
10
1.3006348031496062
20
0.1226716141732283
11
1.2997092913385826
21
0.1237612598425197
0
LINE
8
BLACK
6
CONTINUOUS
10
1.2997092913385826
20
0.1237612598425197
11
1.296430590551181
21
0.1285968897637795
0
LINE
8
BLACK
6
CONTINUOUS
10
1.296430590551181
20
0.1285968897637795
11
1.2933261023622047
21
0.1329723228346457
0
LINE
8
BLACK
6
CONTINUOUS
10
1.2933261023622047
20
0.1329723228346457
11
1.2927180314960629
21
0.1340724803149606
0
LINE
8
BLACK
6
CONTINUOUS
10
1.2927180314960629
20
0.1340724803149606
11
1.2920543307086614
21
0.1350514173228347
0
LINE
8
BLACK
6
CONTINUOUS
10
1.2920543307086614
20
0.1350514173228347
11
1.2891649606299211
21
0.1405012992125984
0
LINE
8
BLACK
6
CONTINUOUS
10
1.2891649606299211
20
0.1405012992125984
11
1.2864921259842519
21
0.1453374803149606
0
LINE
8
BLACK
6
CONTINUOUS
10
1.2864921259842519
20
0.1453374803149606
11
1.2861031496062991
21
0.1462764960629921
0
LINE
8
BLACK
6
CONTINUOUS
10
1.2861031496062991
20
0.1462764960629921
11
1.2856651574803148
21
0.1471026771653543
0
LINE
8
BLACK
6
CONTINUOUS
10
1.2856651574803148
20
0.1471026771653543
11
1.2832458661417323
21
0.1531744881889764
0
LINE
8
BLACK
6
CONTINUOUS
10
1.2832458661417323
20
0.1531744881889764
11
1.2810855511811023
21
0.1583900393700787
0
LINE
8
BLACK
6
CONTINUOUS
10
1.2810855511811023
20
0.1583900393700787
11
1.2808707086614173
21
0.159135748031496
0
LINE
8
BLACK
6
CONTINUOUS
10
1.2808707086614173
20
0.159135748031496
11
1.2806159842519684
21
0.1597750787401575
0
LINE
8
BLACK
6
CONTINUOUS
10
1.2806159842519684
20
0.1597750787401575
11
1.2787409055118111
21
0.1665284251968504
0
LINE
8
BLACK
6
CONTINUOUS
10
1.2787409055118111
20
0.1665284251968504
11
1.2771744488188976
21
0.1719658661417323
0
LINE
8
BLACK
6
CONTINUOUS
10
1.2771744488188976
20
0.1719658661417323
11
1.277084842519685
21
0.172493031496063
0
LINE
8
BLACK
6
CONTINUOUS
10
1.277084842519685
20
0.172493031496063
11
1.2769668503937008
21
0.1729181496062992
0
LINE
8
BLACK
6
CONTINUOUS
10
1.2769668503937008
20
0.1729181496062992
11
1.2757087401574803
21
0.1805921653543307
0
LINE
8
BLACK
6
CONTINUOUS
10
1.2757087401574803
20
0.1805921653543307
11
1.2748079133858268
21
0.1858942519685039
0
LINE
8
BLACK
6
CONTINUOUS
10
1.2748079133858268
20
0.1858942519685039
11
1.2747914173228345
21
0.1861877952755905
0
LINE
8
BLACK
6
CONTINUOUS
10
1.2747914173228345
20
0.1861877952755905
11
1.2747599999999999
21
0.1863795275590551
0
LINE
8
BLACK
6
CONTINUOUS
10
1.2747599999999999
20
0.1863795275590551
11
1.2741822047244094
21
0.1970353937007874
0
LINE
8
BLACK
6
CONTINUOUS
10
1.2741822047244094
20
0.1970353937007874
11
1.274015748031496
21
0.2
0
LINE
8
BLACK
6
CONTINUOUS
10
1.274015748031496
20
0.2
11
1.2741822440944881
21
0.2029648031496063
0
LINE
8
BLACK
6
CONTINUOUS
10
1.2741822440944881
20
0.2029648031496063
11
1.2747599999999999
21
0.2136204330708661
0
LINE
8
BLACK
6
CONTINUOUS
10
1.2747599999999999
20
0.2136204330708661
11
1.2747914173228345
21
0.2138120866141732
0
LINE
8
BLACK
6
CONTINUOUS
10
1.2747914173228345
20
0.2138120866141732
11
1.2748079133858268
21
0.2141057480314961
0
LINE
8
BLACK
6
CONTINUOUS
10
1.2748079133858268
20
0.2141057480314961
11
1.275708937007874
21
0.2194088582677165
0
LINE
8
BLACK
6
CONTINUOUS
10
1.275708937007874
20
0.2194088582677165
11
1.2769668503937008
21
0.227081811023622
0
LINE
8
BLACK
6
CONTINUOUS
10
1.2769668503937008
20
0.227081811023622
11
1.277084842519685
21
0.2275068110236221
0
LINE
8
BLACK
6
CONTINUOUS
10
1.277084842519685
20
0.2275068110236221
11
1.2771744488188976
21
0.2280341338582677
0
LINE
8
BLACK
6
CONTINUOUS
10
1.2771744488188976
20
0.2280341338582677
11
1.2787412204724409
21
0.2334725984251969
0
LINE
8
BLACK
6
CONTINUOUS
10
1.2787412204724409
20
0.2334725984251969
11
1.2806159842519684
21
0.2402248818897638
0
LINE
8
BLACK
6
CONTINUOUS
10
1.2806159842519684
20
0.2402248818897638
11
1.2808706692913385
21
0.240864094488189
0
LINE
8
BLACK
6
CONTINUOUS
10
1.2808706692913385
20
0.240864094488189
11
1.2810855511811023
21
0.2416099606299213
0
LINE
8
BLACK
6
CONTINUOUS
10
1.2810855511811023
20
0.2416099606299213
11
1.2832462992125984
21
0.2468264566929134
0
LINE
8
BLACK
6
CONTINUOUS
10
1.2832462992125984
20
0.2468264566929134
11
1.2856651574803148
21
0.2528972834645669
0
LINE
8
BLACK
6
CONTINUOUS
10
1.2856651574803148
20
0.2528972834645669
11
1.2861030708661416
21
0.2537233070866142
0
LINE
8
BLACK
6
CONTINUOUS
10
1.2861030708661416
20
0.2537233070866142
11
1.2864921259842519
21
0.2546625196850394
0
LINE
8
BLACK
6
CONTINUOUS
10
1.2864921259842519
20
0.2546625196850394
11
1.2891654724409449
21
0.2594995669291338
0
LINE
8
BLACK
6
CONTINUOUS
10
1.2891654724409449
20
0.2594995669291338
11
1.2920543307086614
21
0.2649485433070866
0
LINE
8
BLACK
6
CONTINUOUS
10
1.2920543307086614
20
0.2649485433070866
11
1.2927179133858266
21
0.2659272440944882
0
LINE
8
BLACK
6
CONTINUOUS
10
1.2927179133858266
20
0.2659272440944882
11
1.2933261023622047
21
0.2670276771653543
0
LINE
8
BLACK
6
CONTINUOUS
10
1.2933261023622047
20
0.2670276771653543
11
1.2964311811023621
21
0.2714038976377953
0
LINE
8
BLACK
6
CONTINUOUS
10
1.2964311811023621
20
0.2714038976377953
11
1.2997092913385826
21
0.2762387007874016
0
LINE
8
BLACK
6
CONTINUOUS
10
1.2997092913385826
20
0.2762387007874016
11
1.3006346456692912
21
0.2773281102362204
0
LINE
8
BLACK
6
CONTINUOUS
10
1.3006346456692912
20
0.2773281102362204
11
1.3015015354330708
21
0.2785498818897638
0
LINE
8
BLACK
6
CONTINUOUS
10
1.3015015354330708
20
0.2785498818897638
11
1.3049526771653543
21
0.2824117322834646
0
LINE
8
BLACK
6
CONTINUOUS
10
1.3049526771653543
20
0.2824117322834646
11
1.3085403149606298
21
0.2866354330708661
0
LINE
8
BLACK
6
CONTINUOUS
10
1.3085403149606298
20
0.2866354330708661
11
1.3097579527559056
21
0.2877888188976378
0
LINE
8
BLACK
6
CONTINUOUS
10
1.3097579527559056
20
0.2877888188976378
11
1.3109156692913386
21
0.2890843307086614
0
LINE
8
BLACK
6
CONTINUOUS
10
1.3109156692913386
20
0.2890843307086614
11
1.31462531496063
21
0.2923994881889764
0
LINE
8
BLACK
6
CONTINUOUS
10
1.31462531496063
20
0.2923994881889764
11
1.3184433070866142
21
0.296016062992126
0
LINE
8
BLACK
6
CONTINUOUS
10
1.3184433070866142
20
0.296016062992126
11
1.3199764960629921
21
0.2971815748031496
0
LINE
8
BLACK
6
CONTINUOUS
10
1.3199764960629921
20
0.2971815748031496
11
1.3214501181102363
21
0.2984984645669291
0
LINE
8
BLACK
6
CONTINUOUS
10
1.3214501181102363
20
0.2984984645669291
11
1.3253338976377953
21
0.3012541338582677
0
LINE
8
BLACK
6
CONTINUOUS
10
1.3253338976377953
20
0.3012541338582677
11
1.3293023228346457
21
0.3042708661417323
0
LINE
8
BLACK
6
CONTINUOUS
10
1.3293023228346457
20
0.3042708661417323
11
1.3311656299212598
21
0.305391968503937
0
LINE
8
BLACK
6
CONTINUOUS
10
1.3311656299212598
20
0.305391968503937
11
1.3329723228346457
21
0.3066738976377953
0
LINE
8
BLACK
6
CONTINUOUS
10
1.3329723228346457
20
0.3066738976377953
11
1.336948937007874
21
0.3088716929133858
0
LINE
8
BLACK
6
CONTINUOUS
10
1.336948937007874
20
0.3088716929133858
11
1.3409906299212597
21
0.3113035039370078
0
LINE
8
BLACK
6
CONTINUOUS
10
1.3409906299212597
20
0.3113035039370078
11
1.3431903543307087
21
0.3123211811023622
0
LINE
8
BLACK
6
CONTINUOUS
10
1.3431903543307087
20
0.3123211811023622
11
1.3453374803149607
21
0.313507874015748
0
LINE
8
BLACK
6
CONTINUOUS
10
1.3453374803149607
20
0.313507874015748
11
1.3493288188976378
21
0.3151611417322834
0
LINE
8
BLACK
6
CONTINUOUS
10
1.3493288188976378
20
0.3151611417322834
11
1.3533706692913385
21
0.3170311023622047
0
LINE
8
BLACK
6
CONTINUOUS
10
1.3533706692913385
20
0.3170311023622047
11
1.355903779527559
21
0.3178846062992126
0
LINE
8
BLACK
6
CONTINUOUS
10
1.355903779527559
20
0.3178846062992126
11
1.3583900393700787
21
0.3189144488188976
0
LINE
8
BLACK
6
CONTINUOUS
10
1.3583900393700787
20
0.3189144488188976
11
1.3623235826771654
21
0.3200476771653543
0
LINE
8
BLACK
6
CONTINUOUS
10
1.3623235826771654
20
0.3200476771653543
11
1.3662970866141733
21
0.3213864960629921
0
LINE
8
BLACK
6
CONTINUOUS
10
1.3662970866141733
20
0.3213864960629921
11
1.3691522440944881
21
0.3220149606299212
0
LINE
8
BLACK
6
CONTINUOUS
10
1.3691522440944881
20
0.3220149606299212
11
1.3719658661417322
21
0.3228255511811023
0
LINE
8
BLACK
6
CONTINUOUS
10
1.3719658661417322
20
0.3228255511811023
11
1.3757748818897637
21
0.3234727165354331
0
LINE
8
BLACK
6
CONTINUOUS
10
1.3757748818897637
20
0.3234727165354331
11
1.3796188582677165
21
0.3243188582677165
0
LINE
8
BLACK
6
CONTINUOUS
10
1.3796188582677165
20
0.3243188582677165
11
1.3827751181102361
21
0.3246620866141732
0
LINE
8
BLACK
6
CONTINUOUS
10
1.3827751181102361
20
0.3246620866141732
11
1.3858942519685038
21
0.3251920866141732
0
LINE
8
BLACK
6
CONTINUOUS
10
1.3858942519685038
20
0.3251920866141732
11
1.3895205511811024
21
0.3253957086614173
0
LINE
8
BLACK
6
CONTINUOUS
10
1.3895205511811024
20
0.3253957086614173
11
1.3931797637795276
21
0.3257937007874016
0
LINE
8
BLACK
6
CONTINUOUS
10
1.3931797637795276
20
0.3257937007874016
11
1.3966069291338583
21
0.3257937007874016
0
LINE
8
BLACK
6
CONTINUOUS
10
1.3966069291338583
20
0.3257937007874016
11
1.3999999999999999
21
0.3259842519685039
0
LINE
8
BLACK
6
CONTINUOUS
10
1.3999999999999999
20
0.3259842519685039
11
1.4033930708661417
21
0.3257937007874016
0
LINE
8
BLACK
6
CONTINUOUS
10
0.8703191732283464
20
0.1678105118110236
11
0.8716588188976377
21
0.1676551181102362
0
LINE
8
BLACK
6
CONTINUOUS
10
0.8716588188976377
20
0.1676551181102362
11
0.8721164960629921
21
0.1674529921259842
0
LINE
8
BLACK
6
CONTINUOUS
10
0.8721164960629921
20
0.1674529921259842
11
0.8730132677165354
21
0.1672746456692913
0
LINE
8
BLACK
6
CONTINUOUS
10
0.8730132677165354
20
0.1672746456692913
11
0.8739732677165354
21
0.1666331496062992
0
LINE
8
BLACK
6
CONTINUOUS
10
0.8739732677165354
20
0.1666331496062992
11
0.8744112992125984
21
0.1664397637795275
0
LINE
8
BLACK
6
CONTINUOUS
10
0.8744112992125984
20
0.1664397637795275
11
0.8747104724409449
21
0.1661405511811024
0
LINE
8
BLACK
6
CONTINUOUS
10
0.8747104724409449
20
0.1661405511811024
11
0.8755677559055118
21
0.1655677559055118
0
LINE
8
BLACK
6
CONTINUOUS
10
0.8755677559055118
20
0.1655677559055118
11
0.8761405511811023
21
0.1647104724409449
0
LINE
8
BLACK
6
CONTINUOUS
10
0.8761405511811023
20
0.1647104724409449
11
0.8764397637795276
21
0.1644112992125984
0
LINE
8
BLACK
6
CONTINUOUS
10
0.8764397637795276
20
0.1644112992125984
11
0.8766331496062992
21
0.1639732677165354
0
LINE
8
BLACK
6
CONTINUOUS
10
0.8766331496062992
20
0.1639732677165354
11
0.8772746456692914
21
0.1630132677165354
0
LINE
8
BLACK
6
CONTINUOUS
10
0.8772746456692914
20
0.1630132677165354
11
0.8774529921259843
21
0.1621164960629921
0
LINE
8
BLACK
6
CONTINUOUS
10
0.8774529921259843
20
0.1621164960629921
11
0.8776551181102362
21
0.1616588188976378
0
LINE
8
BLACK
6
CONTINUOUS
10
0.8776551181102362
20
0.1616588188976378
11
0.8778105118110237
21
0.160319094488189
0
LINE
8
BLACK
6
CONTINUOUS
10
0.8778105118110237
20
0.160319094488189
11
0.8778740157480315
21
0.16
0
LINE
8
BLACK
6
CONTINUOUS
10
0.8778740157480315
20
0.16
11
0.8778740157480315
21
0.1
0
LINE
8
BLACK
6
CONTINUOUS
10
0.8778740157480315
20
0.1
11
0.8778105118110237
21
0.0996808661417323
0
LINE
8
BLACK
6
CONTINUOUS
10
0.8778105118110237
20
0.0996808661417323
11
0.8776551181102362
21
0.0983411417322835
0
LINE
8
BLACK
6
CONTINUOUS
10
0.8776551181102362
20
0.0983411417322835
11
0.8774529921259843
21
0.0978833858267717
0
LINE
8
BLACK
6
CONTINUOUS
10
0.8774529921259843
20
0.0978833858267717
11
0.8772746456692914
21
0.0969867322834646
0
LINE
8
BLACK
6
CONTINUOUS
10
0.8772746456692914
20
0.0969867322834646
11
0.876633188976378
21
0.0960267716535433
0
LINE
8
BLACK
6
CONTINUOUS
10
0.876633188976378
20
0.0960267716535433
11
0.8764397637795276
21
0.0955886614173228
0
LINE
8
BLACK
6
CONTINUOUS
10
0.8764397637795276
20
0.0955886614173228
11
0.8761404724409448
21
0.0952893700787402
0
LINE
8
BLACK
6
CONTINUOUS
10
0.8761404724409448
20
0.0952893700787402
11
0.8755677559055118
21
0.0944322440944882
0
LINE
8
BLACK
6
CONTINUOUS
10
0.8755677559055118
20
0.0944322440944882
11
0.8747105905511811
21
0.0938594881889764
0
LINE
8
BLACK
6
CONTINUOUS
10
0.8747105905511811
20
0.0938594881889764
11
0.8744112992125984
21
0.0935601968503937
0
LINE
8
BLACK
6
CONTINUOUS
10
0.8744112992125984
20
0.0935601968503937
11
0.8739731102362205
21
0.0933666929133858
0
LINE
8
BLACK
6
CONTINUOUS
10
0.8739731102362205
20
0.0933666929133858
11
0.8730132677165354
21
0.0927253543307087
0
LINE
8
BLACK
6
CONTINUOUS
10
0.8730132677165354
20
0.0927253543307087
11
0.8721166929133858
21
0.0925470078740157
0
LINE
8
BLACK
6
CONTINUOUS
10
0.8721166929133858
20
0.0925470078740157
11
0.8716588188976377
21
0.092344842519685
0
LINE
8
BLACK
6
CONTINUOUS
10
0.8716588188976377
20
0.092344842519685
11
0.8703186220472441
21
0.0921893307086614
0
LINE
8
BLACK
6
CONTINUOUS
10
0.8703186220472441
20
0.0921893307086614
11
0.87
21
0.0921259842519685
0
LINE
8
BLACK
6
CONTINUOUS
10
0.87
20
0.0921259842519685
11
0.8697723228346457
21
0.0921259842519685
0
LINE
8
BLACK
6
CONTINUOUS
10
0.8697723228346457
20
0.0921259842519685
11
0.810227716535433
21
0.0921259842519685
0
LINE
8
BLACK
6
CONTINUOUS
10
0.810227716535433
20
0.0921259842519685
11
0.8099999999999999
21
0.0921259842519685
0
LINE
8
BLACK
6
CONTINUOUS
10
0.8099999999999999
20
0.0921259842519685
11
0.8096813385826771
21
0.0921893307086614
0
LINE
8
BLACK
6
CONTINUOUS
10
0.8096813385826771
20
0.0921893307086614
11
0.8083411417322834
21
0.092344842519685
0
LINE
8
BLACK
6
CONTINUOUS
10
0.8083411417322834
20
0.092344842519685
11
0.8078832283464566
21
0.0925470078740157
0
LINE
8
BLACK
6
CONTINUOUS
10
0.8078832283464566
20
0.0925470078740157
11
0.8069867322834645
21
0.0927253543307087
0
LINE
8
BLACK
6
CONTINUOUS
10
0.8069867322834645
20
0.0927253543307087
11
0.8060269291338582
21
0.0933666535433071
0
LINE
8
BLACK
6
CONTINUOUS
10
0.8060269291338582
20
0.0933666535433071
11
0.8055886614173228
21
0.0935601968503937
0
LINE
8
BLACK
6
CONTINUOUS
10
0.8055886614173228
20
0.0935601968503937
11
0.8052892519685039
21
0.0938595669291339
0
LINE
8
BLACK
6
CONTINUOUS
10
0.8052892519685039
20
0.0938595669291339
11
0.8044322440944882
21
0.0944322440944882
0
LINE
8
BLACK
6
CONTINUOUS
10
0.8044322440944882
20
0.0944322440944882
11
0.8038595669291339
21
0.0952892519685039
0
LINE
8
BLACK
6
CONTINUOUS
10
0.8038595669291339
20
0.0952892519685039
11
0.8035601968503937
21
0.0955886614173228
0
LINE
8
BLACK
6
CONTINUOUS
10
0.8035601968503937
20
0.0955886614173228
11
0.8033666535433071
21
0.0960269291338583
0
LINE
8
BLACK
6
CONTINUOUS
10
0.8033666535433071
20
0.0960269291338583
11
0.8027253543307087
21
0.0969867322834646
0
LINE
8
BLACK
6
CONTINUOUS
10
0.8027253543307087
20
0.0969867322834646
11
0.8025470078740158
21
0.0978832283464567
0
LINE
8
BLACK
6
CONTINUOUS
10
0.8025470078740158
20
0.0978832283464567
11
0.8023448425196851
21
0.0983411417322835
0
LINE
8
BLACK
6
CONTINUOUS
10
0.8023448425196851
20
0.0983411417322835
11
0.8021893307086614
21
0.0996814173228346
0
LINE
8
BLACK
6
CONTINUOUS
10
0.8021893307086614
20
0.0996814173228346
11
0.8021259842519685
21
0.1
0
LINE
8
BLACK
6
CONTINUOUS
10
0.8021259842519685
20
0.1
11
0.8021259842519685
21
0.16
0
LINE
8
BLACK
6
CONTINUOUS
10
0.8021259842519685
20
0.16
11
0.8021893700787401
21
0.1603187007874016
0
LINE
8
BLACK
6
CONTINUOUS
10
0.8021893700787401
20
0.1603187007874016
11
0.8023448425196851
21
0.1616588188976378
0
LINE
8
BLACK
6
CONTINUOUS
10
0.8023448425196851
20
0.1616588188976378
11
0.8025470078740158
21
0.1621166929133858
0
LINE
8
BLACK
6
CONTINUOUS
10
0.8025470078740158
20
0.1621166929133858
11
0.8027253543307087
21
0.1630132677165354
0
LINE
8
BLACK
6
CONTINUOUS
10
0.8027253543307087
20
0.1630132677165354
11
0.8033666929133858
21
0.1639731102362205
0
LINE
8
BLACK
6
CONTINUOUS
10
0.8033666929133858
20
0.1639731102362205
11
0.8035601968503937
21
0.1644112992125984
0
LINE
8
BLACK
6
CONTINUOUS
10
0.8035601968503937
20
0.1644112992125984
11
0.8038594881889763
21
0.1647105905511811
0
LINE
8
BLACK
6
CONTINUOUS
10
0.8038594881889763
20
0.1647105905511811
11
0.8044322440944882
21
0.1655677559055118
0
LINE
8
BLACK
6
CONTINUOUS
10
0.8044322440944882
20
0.1655677559055118
11
0.8052893700787401
21
0.1661404724409449
0
LINE
8
BLACK
6
CONTINUOUS
10
0.8052893700787401
20
0.1661404724409449
11
0.8055886614173228
21
0.1664397637795275
0
LINE
8
BLACK
6
CONTINUOUS
10
0.8055886614173228
20
0.1664397637795275
11
0.8060267716535433
21
0.1666331889763779
0
LINE
8
BLACK
6
CONTINUOUS
10
0.8060267716535433
20
0.1666331889763779
11
0.8069867322834645
21
0.1672746456692913
0
LINE
8
BLACK
6
CONTINUOUS
10
0.8069867322834645
20
0.1672746456692913
11
0.8078833858267717
21
0.1674529921259842
0
LINE
8
BLACK
6
CONTINUOUS
10
0.8078833858267717
20
0.1674529921259842
11
0.8083411417322834
21
0.1676551181102362
0
LINE
8
BLACK
6
CONTINUOUS
10
0.8083411417322834
20
0.1676551181102362
11
0.8096809448818898
21
0.1678105511811024
0
LINE
8
BLACK
6
CONTINUOUS
10
0.8096809448818898
20
0.1678105511811024
11
0.8099999999999999
21
0.1678740157480315
0
LINE
8
BLACK
6
CONTINUOUS
10
0.8099999999999999
20
0.1678740157480315
11
0.87
21
0.1678740157480315
0
LINE
8
BLACK
6
CONTINUOUS
10
0.87
20
0.1678740157480315
11
0.8703191732283464
21
0.1678105118110236
0
LINE
8
BLACK
6
CONTINUOUS
10
0.9703191732283465
20
0.1678105118110236
11
0.9716588188976377
21
0.1676551181102362
0
LINE
8
BLACK
6
CONTINUOUS
10
0.9716588188976377
20
0.1676551181102362
11
0.9721164960629921
21
0.1674529921259842
0
LINE
8
BLACK
6
CONTINUOUS
10
0.9721164960629921
20
0.1674529921259842
11
0.9730132677165354
21
0.1672746456692913
0
LINE
8
BLACK
6
CONTINUOUS
10
0.9730132677165354
20
0.1672746456692913
11
0.9739732677165354
21
0.1666331496062992
0
LINE
8
BLACK
6
CONTINUOUS
10
0.9739732677165354
20
0.1666331496062992
11
0.9744112992125984
21
0.1664397637795275
0
LINE
8
BLACK
6
CONTINUOUS
10
0.9744112992125984
20
0.1664397637795275
11
0.9747104724409449
21
0.1661405511811024
0
LINE
8
BLACK
6
CONTINUOUS
10
0.9747104724409449
20
0.1661405511811024
11
0.9755677559055118
21
0.1655677559055118
0
LINE
8
BLACK
6
CONTINUOUS
10
0.9755677559055118
20
0.1655677559055118
11
0.9761405511811023
21
0.1647104724409449
0
LINE
8
BLACK
6
CONTINUOUS
10
0.9761405511811023
20
0.1647104724409449
11
0.9764397637795276
21
0.1644112992125984
0
LINE
8
BLACK
6
CONTINUOUS
10
0.9764397637795276
20
0.1644112992125984
11
0.9766331496062992
21
0.1639732677165354
0
LINE
8
BLACK
6
CONTINUOUS
10
0.9766331496062992
20
0.1639732677165354
11
0.9772746456692913
21
0.1630132677165354
0
LINE
8
BLACK
6
CONTINUOUS
10
0.9772746456692913
20
0.1630132677165354
11
0.9774529921259842
21
0.1621164960629921
0
LINE
8
BLACK
6
CONTINUOUS
10
0.9774529921259842
20
0.1621164960629921
11
0.9776551181102362
21
0.1616588188976378
0
LINE
8
BLACK
6
CONTINUOUS
10
0.9776551181102362
20
0.1616588188976378
11
0.9778105118110236
21
0.160319094488189
0
LINE
8
BLACK
6
CONTINUOUS
10
0.9778105118110236
20
0.160319094488189
11
0.9778740157480315
21
0.16
0
LINE
8
BLACK
6
CONTINUOUS
10
0.9778740157480315
20
0.16
11
0.9778740157480315
21
0.1
0
LINE
8
BLACK
6
CONTINUOUS
10
0.9778740157480315
20
0.1
11
0.9778105118110236
21
0.0996808661417323
0
LINE
8
BLACK
6
CONTINUOUS
10
0.9778105118110236
20
0.0996808661417323
11
0.9776551181102362
21
0.0983411417322835
0
LINE
8
BLACK
6
CONTINUOUS
10
0.9776551181102362
20
0.0983411417322835
11
0.9774529921259842
21
0.0978833858267717
0
LINE
8
BLACK
6
CONTINUOUS
10
0.9774529921259842
20
0.0978833858267717
11
0.9772746456692913
21
0.0969867322834646
0
LINE
8
BLACK
6
CONTINUOUS
10
0.9772746456692913
20
0.0969867322834646
11
0.976633188976378
21
0.0960267716535433
0
LINE
8
BLACK
6
CONTINUOUS
10
0.976633188976378
20
0.0960267716535433
11
0.9764397637795276
21
0.0955886614173228
0
LINE
8
BLACK
6
CONTINUOUS
10
0.9764397637795276
20
0.0955886614173228
11
0.9761404724409448
21
0.0952893700787402
0
LINE
8
BLACK
6
CONTINUOUS
10
0.9761404724409448
20
0.0952893700787402
11
0.9755677559055118
21
0.0944322440944882
0
LINE
8
BLACK
6
CONTINUOUS
10
0.9755677559055118
20
0.0944322440944882
11
0.974710590551181
21
0.0938594881889764
0
LINE
8
BLACK
6
CONTINUOUS
10
0.974710590551181
20
0.0938594881889764
11
0.9744112992125984
21
0.0935601968503937
0
LINE
8
BLACK
6
CONTINUOUS
10
0.9744112992125984
20
0.0935601968503937
11
0.9739731102362205
21
0.0933666929133858
0
LINE
8
BLACK
6
CONTINUOUS
10
0.9739731102362205
20
0.0933666929133858
11
0.9730132677165354
21
0.0927253543307087
0
LINE
8
BLACK
6
CONTINUOUS
10
0.9730132677165354
20
0.0927253543307087
11
0.9721166929133858
21
0.0925470078740157
0
LINE
8
BLACK
6
CONTINUOUS
10
0.9721166929133858
20
0.0925470078740157
11
0.9716588188976377
21
0.092344842519685
0
LINE
8
BLACK
6
CONTINUOUS
10
0.9716588188976377
20
0.092344842519685
11
0.9703186220472441
21
0.0921893307086614
0
LINE
8
BLACK
6
CONTINUOUS
10
0.9703186220472441
20
0.0921893307086614
11
0.97
21
0.0921259842519685
0
LINE
8
BLACK
6
CONTINUOUS
10
0.97
20
0.0921259842519685
11
0.9697723228346457
21
0.0921259842519685
0
LINE
8
BLACK
6
CONTINUOUS
10
0.9697723228346457
20
0.0921259842519685
11
0.910227716535433
21
0.0921259842519685
0
LINE
8
BLACK
6
CONTINUOUS
10
0.910227716535433
20
0.0921259842519685
11
0.91
21
0.0921259842519685
0
LINE
8
BLACK
6
CONTINUOUS
10
0.91
20
0.0921259842519685
11
0.9096813385826772
21
0.0921893307086614
0
LINE
8
BLACK
6
CONTINUOUS
10
0.9096813385826772
20
0.0921893307086614
11
0.9083411417322834
21
0.092344842519685
0
LINE
8
BLACK
6
CONTINUOUS
10
0.9083411417322834
20
0.092344842519685
11
0.9078832283464566
21
0.0925470078740157
0
LINE
8
BLACK
6
CONTINUOUS
10
0.9078832283464566
20
0.0925470078740157
11
0.9069867322834645
21
0.0927253543307087
0
LINE
8
BLACK
6
CONTINUOUS
10
0.9069867322834645
20
0.0927253543307087
11
0.9060269291338583
21
0.0933666535433071
0
LINE
8
BLACK
6
CONTINUOUS
10
0.9060269291338583
20
0.0933666535433071
11
0.9055886614173229
21
0.0935601968503937
0
LINE
8
BLACK
6
CONTINUOUS
10
0.9055886614173229
20
0.0935601968503937
11
0.905289251968504
21
0.0938595669291339
0
LINE
8
BLACK
6
CONTINUOUS
10
0.905289251968504
20
0.0938595669291339
11
0.9044322440944882
21
0.0944322440944882
0
LINE
8
BLACK
6
CONTINUOUS
10
0.9044322440944882
20
0.0944322440944882
11
0.9038595669291338
21
0.0952892519685039
0
LINE
8
BLACK
6
CONTINUOUS
10
0.9038595669291338
20
0.0952892519685039
11
0.9035601968503937
21
0.0955886614173228
0
LINE
8
BLACK
6
CONTINUOUS
10
0.9035601968503937
20
0.0955886614173228
11
0.903366653543307
21
0.0960269291338583
0
LINE
8
BLACK
6
CONTINUOUS
10
0.903366653543307
20
0.0960269291338583
11
0.9027253543307087
21
0.0969867322834646
0
LINE
8
BLACK
6
CONTINUOUS
10
0.9027253543307087
20
0.0969867322834646
11
0.9025470078740158
21
0.0978832283464567
0
LINE
8
BLACK
6
CONTINUOUS
10
0.9025470078740158
20
0.0978832283464567
11
0.9023448425196851
21
0.0983411417322835
0
LINE
8
BLACK
6
CONTINUOUS
10
0.9023448425196851
20
0.0983411417322835
11
0.9021893307086614
21
0.0996814173228346
0
LINE
8
BLACK
6
CONTINUOUS
10
0.9021893307086614
20
0.0996814173228346
11
0.9021259842519684
21
0.1
0
LINE
8
BLACK
6
CONTINUOUS
10
0.9021259842519684
20
0.1
11
0.9021259842519684
21
0.16
0
LINE
8
BLACK
6
CONTINUOUS
10
0.9021259842519684
20
0.16
11
0.9021893700787401
21
0.1603187007874016
0
LINE
8
BLACK
6
CONTINUOUS
10
0.9021893700787401
20
0.1603187007874016
11
0.9023448425196851
21
0.1616588188976378
0
LINE
8
BLACK
6
CONTINUOUS
10
0.9023448425196851
20
0.1616588188976378
11
0.9025470078740158
21
0.1621166929133858
0
LINE
8
BLACK
6
CONTINUOUS
10
0.9025470078740158
20
0.1621166929133858
11
0.9027253543307087
21
0.1630132677165354
0
LINE
8
BLACK
6
CONTINUOUS
10
0.9027253543307087
20
0.1630132677165354
11
0.9033666929133858
21
0.1639731102362205
0
LINE
8
BLACK
6
CONTINUOUS
10
0.9033666929133858
20
0.1639731102362205
11
0.9035601968503937
21
0.1644112992125984
0
LINE
8
BLACK
6
CONTINUOUS
10
0.9035601968503937
20
0.1644112992125984
11
0.9038594881889763
21
0.1647105905511811
0
LINE
8
BLACK
6
CONTINUOUS
10
0.9038594881889763
20
0.1647105905511811
11
0.9044322440944882
21
0.1655677559055118
0
LINE
8
BLACK
6
CONTINUOUS
10
0.9044322440944882
20
0.1655677559055118
11
0.9052893700787401
21
0.1661404724409449
0
LINE
8
BLACK
6
CONTINUOUS
10
0.9052893700787401
20
0.1661404724409449
11
0.9055886614173229
21
0.1664397637795275
0
LINE
8
BLACK
6
CONTINUOUS
10
0.9055886614173229
20
0.1664397637795275
11
0.9060267716535433
21
0.1666331889763779
0
LINE
8
BLACK
6
CONTINUOUS
10
0.9060267716535433
20
0.1666331889763779
11
0.9069867322834645
21
0.1672746456692913
0
LINE
8
BLACK
6
CONTINUOUS
10
0.9069867322834645
20
0.1672746456692913
11
0.9078833858267716
21
0.1674529921259842
0
LINE
8
BLACK
6
CONTINUOUS
10
0.9078833858267716
20
0.1674529921259842
11
0.9083411417322834
21
0.1676551181102362
0
LINE
8
BLACK
6
CONTINUOUS
10
0.9083411417322834
20
0.1676551181102362
11
0.9096809448818898
21
0.1678105511811024
0
LINE
8
BLACK
6
CONTINUOUS
10
0.9096809448818898
20
0.1678105511811024
11
0.91
21
0.1678740157480315
0
LINE
8
BLACK
6
CONTINUOUS
10
0.91
20
0.1678740157480315
11
0.97
21
0.1678740157480315
0
LINE
8
BLACK
6
CONTINUOUS
10
0.97
20
0.1678740157480315
11
0.9703191732283465
21
0.1678105118110236
0
LINE
8
BLACK
6
CONTINUOUS
10
1.0703191732283464
20
0.1678105118110236
11
1.0716588188976377
21
0.1676551181102362
0
LINE
8
BLACK
6
CONTINUOUS
10
1.0716588188976377
20
0.1676551181102362
11
1.0721164960629921
21
0.1674529921259842
0
LINE
8
BLACK
6
CONTINUOUS
10
1.0721164960629921
20
0.1674529921259842
11
1.0730132677165354
21
0.1672746456692913
0
LINE
8
BLACK
6
CONTINUOUS
10
1.0730132677165354
20
0.1672746456692913
11
1.0739732677165355
21
0.1666331496062992
0
LINE
8
BLACK
6
CONTINUOUS
10
1.0739732677165355
20
0.1666331496062992
11
1.0744112992125985
21
0.1664397637795275
0
LINE
8
BLACK
6
CONTINUOUS
10
1.0744112992125985
20
0.1664397637795275
11
1.0747104724409449
21
0.1661405511811024
0
LINE
8
BLACK
6
CONTINUOUS
10
1.0747104724409449
20
0.1661405511811024
11
1.0755677559055117
21
0.1655677559055118
0
LINE
8
BLACK
6
CONTINUOUS
10
1.0755677559055117
20
0.1655677559055118
11
1.0761405511811024
21
0.1647104724409449
0
LINE
8
BLACK
6
CONTINUOUS
10
1.0761405511811024
20
0.1647104724409449
11
1.0764397637795275
21
0.1644112992125984
0
LINE
8
BLACK
6
CONTINUOUS
10
1.0764397637795275
20
0.1644112992125984
11
1.0766331496062991
21
0.1639732677165354
0
LINE
8
BLACK
6
CONTINUOUS
10
1.0766331496062991
20
0.1639732677165354
11
1.0772746456692912
21
0.1630132677165354
0
LINE
8
BLACK
6
CONTINUOUS
10
1.0772746456692912
20
0.1630132677165354
11
1.0774529921259843
21
0.1621164960629921
0
LINE
8
BLACK
6
CONTINUOUS
10
1.0774529921259843
20
0.1621164960629921
11
1.0776551181102363
21
0.1616588188976378
0
LINE
8
BLACK
6
CONTINUOUS
10
1.0776551181102363
20
0.1616588188976378
11
1.0778105118110235
21
0.160319094488189
0
LINE
8
BLACK
6
CONTINUOUS
10
1.0778105118110235
20
0.160319094488189
11
1.0778740157480315
21
0.16
0
LINE
8
BLACK
6
CONTINUOUS
10
1.0778740157480315
20
0.16
11
1.0778740157480315
21
0.1
0
LINE
8
BLACK
6
CONTINUOUS
10
1.0778740157480315
20
0.1
11
1.0778105118110235
21
0.0996808661417323
0
LINE
8
BLACK
6
CONTINUOUS
10
1.0778105118110235
20
0.0996808661417323
11
1.0776551181102363
21
0.0983411417322835
0
LINE
8
BLACK
6
CONTINUOUS
10
1.0776551181102363
20
0.0983411417322835
11
1.0774529921259843
21
0.0978833858267717
0
LINE
8
BLACK
6
CONTINUOUS
10
1.0774529921259843
20
0.0978833858267717
11
1.0772746456692912
21
0.0969867322834646
0
LINE
8
BLACK
6
CONTINUOUS
10
1.0772746456692912
20
0.0969867322834646
11
1.0766331889763778
21
0.0960267716535433
0
LINE
8
BLACK
6
CONTINUOUS
10
1.0766331889763778
20
0.0960267716535433
11
1.0764397637795275
21
0.0955886614173228
0
LINE
8
BLACK
6
CONTINUOUS
10
1.0764397637795275
20
0.0955886614173228
11
1.0761404724409449
21
0.0952893700787402
0
LINE
8
BLACK
6
CONTINUOUS
10
1.0761404724409449
20
0.0952893700787402
11
1.0755677559055117
21
0.0944322440944882
0
LINE
8
BLACK
6
CONTINUOUS
10
1.0755677559055117
20
0.0944322440944882
11
1.0747105905511811
21
0.0938594881889764
0
LINE
8
BLACK
6
CONTINUOUS
10
1.0747105905511811
20
0.0938594881889764
11
1.0744112992125985
21
0.0935601968503937
0
LINE
8
BLACK
6
CONTINUOUS
10
1.0744112992125985
20
0.0935601968503937
11
1.0739731102362204
21
0.0933666929133858
0
LINE
8
BLACK
6
CONTINUOUS
10
1.0739731102362204
20
0.0933666929133858
11
1.0730132677165354
21
0.0927253543307087
0
LINE
8
BLACK
6
CONTINUOUS
10
1.0730132677165354
20
0.0927253543307087
11
1.0721166929133858
21
0.0925470078740157
0
LINE
8
BLACK
6
CONTINUOUS
10
1.0721166929133858
20
0.0925470078740157
11
1.0716588188976377
21
0.092344842519685
0
LINE
8
BLACK
6
CONTINUOUS
10
1.0716588188976377
20
0.092344842519685
11
1.070318622047244
21
0.0921893307086614
0
LINE
8
BLACK
6
CONTINUOUS
10
1.070318622047244
20
0.0921893307086614
11
1.0700000000000001
21
0.0921259842519685
0
LINE
8
BLACK
6
CONTINUOUS
10
1.0700000000000001
20
0.0921259842519685
11
1.0697723228346456
21
0.0921259842519685
0
LINE
8
BLACK
6
CONTINUOUS
10
1.0697723228346456
20
0.0921259842519685
11
1.010227716535433
21
0.0921259842519685
0
LINE
8
BLACK
6
CONTINUOUS
10
1.010227716535433
20
0.0921259842519685
11
1.01
21
0.0921259842519685
0
LINE
8
BLACK
6
CONTINUOUS
10
1.01
20
0.0921259842519685
11
1.0096813385826771
21
0.0921893307086614
0
LINE
8
BLACK
6
CONTINUOUS
10
1.0096813385826771
20
0.0921893307086614
11
1.0083411417322834
21
0.092344842519685
0
LINE
8
BLACK
6
CONTINUOUS
10
1.0083411417322834
20
0.092344842519685
11
1.0078832283464567
21
0.0925470078740157
0
LINE
8
BLACK
6
CONTINUOUS
10
1.0078832283464567
20
0.0925470078740157
11
1.0069867322834645
21
0.0927253543307087
0
LINE
8
BLACK
6
CONTINUOUS
10
1.0069867322834645
20
0.0927253543307087
11
1.0060269291338582
21
0.0933666535433071
0
LINE
8
BLACK
6
CONTINUOUS
10
1.0060269291338582
20
0.0933666535433071
11
1.0055886614173228
21
0.0935601968503937
0
LINE
8
BLACK
6
CONTINUOUS
10
1.0055886614173228
20
0.0935601968503937
11
1.0052892519685039
21
0.0938595669291339
0
LINE
8
BLACK
6
CONTINUOUS
10
1.0052892519685039
20
0.0938595669291339
11
1.0044322440944882
21
0.0944322440944882
0
LINE
8
BLACK
6
CONTINUOUS
10
1.0044322440944882
20
0.0944322440944882
11
1.0038595669291339
21
0.0952892519685039
0
LINE
8
BLACK
6
CONTINUOUS
10
1.0038595669291339
20
0.0952892519685039
11
1.0035601968503938
21
0.0955886614173228
0
LINE
8
BLACK
6
CONTINUOUS
10
1.0035601968503938
20
0.0955886614173228
11
1.003366653543307
21
0.0960269291338583
0
LINE
8
BLACK
6
CONTINUOUS
10
1.003366653543307
20
0.0960269291338583
11
1.0027253543307086
21
0.0969867322834646
0
LINE
8
BLACK
6
CONTINUOUS
10
1.0027253543307086
20
0.0969867322834646
11
1.0025470078740157
21
0.0978832283464567
0
LINE
8
BLACK
6
CONTINUOUS
10
1.0025470078740157
20
0.0978832283464567
11
1.002344842519685
21
0.0983411417322835
0
LINE
8
BLACK
6
CONTINUOUS
10
1.002344842519685
20
0.0983411417322835
11
1.0021893307086613
21
0.0996814173228346
0
LINE
8
BLACK
6
CONTINUOUS
10
1.0021893307086613
20
0.0996814173228346
11
1.0021259842519685
21
0.1
0
LINE
8
BLACK
6
CONTINUOUS
10
1.0021259842519685
20
0.1
11
1.0021259842519685
21
0.16
0
LINE
8
BLACK
6
CONTINUOUS
10
1.0021259842519685
20
0.16
11
1.0021893700787401
21
0.1603187007874016
0
LINE
8
BLACK
6
CONTINUOUS
10
1.0021893700787401
20
0.1603187007874016
11
1.002344842519685
21
0.1616588188976378
0
LINE
8
BLACK
6
CONTINUOUS
10
1.002344842519685
20
0.1616588188976378
11
1.0025470078740157
21
0.1621166929133858
0
LINE
8
BLACK
6
CONTINUOUS
10
1.0025470078740157
20
0.1621166929133858
11
1.0027253543307086
21
0.1630132677165354
0
LINE
8
BLACK
6
CONTINUOUS
10
1.0027253543307086
20
0.1630132677165354
11
1.0033666929133858
21
0.1639731102362205
0
LINE
8
BLACK
6
CONTINUOUS
10
1.0033666929133858
20
0.1639731102362205
11
1.0035601968503938
21
0.1644112992125984
0
LINE
8
BLACK
6
CONTINUOUS
10
1.0035601968503938
20
0.1644112992125984
11
1.0038594881889764
21
0.1647105905511811
0
LINE
8
BLACK
6
CONTINUOUS
10
1.0038594881889764
20
0.1647105905511811
11
1.0044322440944882
21
0.1655677559055118
0
LINE
8
BLACK
6
CONTINUOUS
10
1.0044322440944882
20
0.1655677559055118
11
1.0052893700787402
21
0.1661404724409449
0
LINE
8
BLACK
6
CONTINUOUS
10
1.0052893700787402
20
0.1661404724409449
11
1.0055886614173228
21
0.1664397637795275
0
LINE
8
BLACK
6
CONTINUOUS
10
1.0055886614173228
20
0.1664397637795275
11
1.0060267716535434
21
0.1666331889763779
0
LINE
8
BLACK
6
CONTINUOUS
10
1.0060267716535434
20
0.1666331889763779
11
1.0069867322834645
21
0.1672746456692913
0
LINE
8
BLACK
6
CONTINUOUS
10
1.0069867322834645
20
0.1672746456692913
11
1.0078833858267717
21
0.1674529921259842
0
LINE
8
BLACK
6
CONTINUOUS
10
1.0078833858267717
20
0.1674529921259842
11
1.0083411417322834
21
0.1676551181102362
0
LINE
8
BLACK
6
CONTINUOUS
10
1.0083411417322834
20
0.1676551181102362
11
1.0096809448818898
21
0.1678105511811024
0
LINE
8
BLACK
6
CONTINUOUS
10
1.0096809448818898
20
0.1678105511811024
11
1.01
21
0.1678740157480315
0
LINE
8
BLACK
6
CONTINUOUS
10
1.01
20
0.1678740157480315
11
1.0700000000000001
21
0.1678740157480315
0
LINE
8
BLACK
6
CONTINUOUS
10
1.0700000000000001
20
0.1678740157480315
11
1.0703191732283464
21
0.1678105118110236
0
LINE
8
BLACK
6
CONTINUOUS
10
1.1703191732283464
20
0.1678105118110236
11
1.1716588188976378
21
0.1676551181102362
0
LINE
8
BLACK
6
CONTINUOUS
10
1.1716588188976378
20
0.1676551181102362
11
1.1721164960629922
21
0.1674529921259842
0
LINE
8
BLACK
6
CONTINUOUS
10
1.1721164960629922
20
0.1674529921259842
11
1.1730132677165355
21
0.1672746456692913
0
LINE
8
BLACK
6
CONTINUOUS
10
1.1730132677165355
20
0.1672746456692913
11
1.1739732677165353
21
0.1666331496062992
0
LINE
8
BLACK
6
CONTINUOUS
10
1.1739732677165353
20
0.1666331496062992
11
1.1744112992125983
21
0.1664397637795275
0
LINE
8
BLACK
6
CONTINUOUS
10
1.1744112992125983
20
0.1664397637795275
11
1.174710472440945
21
0.1661405511811024
0
LINE
8
BLACK
6
CONTINUOUS
10
1.174710472440945
20
0.1661405511811024
11
1.1755677559055118
21
0.1655677559055118
0
LINE
8
BLACK
6
CONTINUOUS
10
1.1755677559055118
20
0.1655677559055118
11
1.1761405511811023
21
0.1647104724409449
0
LINE
8
BLACK
6
CONTINUOUS
10
1.1761405511811023
20
0.1647104724409449
11
1.1764397637795276
21
0.1644112992125984
0
LINE
8
BLACK
6
CONTINUOUS
10
1.1764397637795276
20
0.1644112992125984
11
1.1766331496062992
21
0.1639732677165354
0
LINE
8
BLACK
6
CONTINUOUS
10
1.1766331496062992
20
0.1639732677165354
11
1.1772746456692913
21
0.1630132677165354
0
LINE
8
BLACK
6
CONTINUOUS
10
1.1772746456692913
20
0.1630132677165354
11
1.1774529921259842
21
0.1621164960629921
0
LINE
8
BLACK
6
CONTINUOUS
10
1.1774529921259842
20
0.1621164960629921
11
1.1776551181102362
21
0.1616588188976378
0
LINE
8
BLACK
6
CONTINUOUS
10
1.1776551181102362
20
0.1616588188976378
11
1.1778105118110236
21
0.160319094488189
0
LINE
8
BLACK
6
CONTINUOUS
10
1.1778105118110236
20
0.160319094488189
11
1.1778740157480314
21
0.16
0
LINE
8
BLACK
6
CONTINUOUS
10
1.1778740157480314
20
0.16
11
1.1778740157480314
21
0.1
0
LINE
8
BLACK
6
CONTINUOUS
10
1.1778740157480314
20
0.1
11
1.1778105118110236
21
0.0996808661417323
0
LINE
8
BLACK
6
CONTINUOUS
10
1.1778105118110236
20
0.0996808661417323
11
1.1776551181102362
21
0.0983411417322835
0
LINE
8
BLACK
6
CONTINUOUS
10
1.1776551181102362
20
0.0983411417322835
11
1.1774529921259842
21
0.0978833858267717
0
LINE
8
BLACK
6
CONTINUOUS
10
1.1774529921259842
20
0.0978833858267717
11
1.1772746456692913
21
0.0969867322834646
0
LINE
8
BLACK
6
CONTINUOUS
10
1.1772746456692913
20
0.0969867322834646
11
1.1766331889763779
21
0.0960267716535433
0
LINE
8
BLACK
6
CONTINUOUS
10
1.1766331889763779
20
0.0960267716535433
11
1.1764397637795276
21
0.0955886614173228
0
LINE
8
BLACK
6
CONTINUOUS
10
1.1764397637795276
20
0.0955886614173228
11
1.1761404724409448
21
0.0952893700787402
0
LINE
8
BLACK
6
CONTINUOUS
10
1.1761404724409448
20
0.0952893700787402
11
1.1755677559055118
21
0.0944322440944882
0
LINE
8
BLACK
6
CONTINUOUS
10
1.1755677559055118
20
0.0944322440944882
11
1.174710590551181
21
0.0938594881889764
0
LINE
8
BLACK
6
CONTINUOUS
10
1.174710590551181
20
0.0938594881889764
11
1.1744112992125983
21
0.0935601968503937
0
LINE
8
BLACK
6
CONTINUOUS
10
1.1744112992125983
20
0.0935601968503937
11
1.1739731102362205
21
0.0933666929133858
0
LINE
8
BLACK
6
CONTINUOUS
10
1.1739731102362205
20
0.0933666929133858
11
1.1730132677165355
21
0.0927253543307087
0
LINE
8
BLACK
6
CONTINUOUS
10
1.1730132677165355
20
0.0927253543307087
11
1.1721166929133857
21
0.0925470078740157
0
LINE
8
BLACK
6
CONTINUOUS
10
1.1721166929133857
20
0.0925470078740157
11
1.1716588188976378
21
0.092344842519685
0
LINE
8
BLACK
6
CONTINUOUS
10
1.1716588188976378
20
0.092344842519685
11
1.1703186220472441
21
0.0921893307086614
0
LINE
8
BLACK
6
CONTINUOUS
10
1.1703186220472441
20
0.0921893307086614
11
1.1699999999999999
21
0.0921259842519685
0
LINE
8
BLACK
6
CONTINUOUS
10
1.1699999999999999
20
0.0921259842519685
11
1.1697723228346457
21
0.0921259842519685
0
LINE
8
BLACK
6
CONTINUOUS
10
1.1697723228346457
20
0.0921259842519685
11
1.1102277165354331
21
0.0921259842519685
0
LINE
8
BLACK
6
CONTINUOUS
10
1.1102277165354331
20
0.0921259842519685
11
1.1099999999999999
21
0.0921259842519685
0
LINE
8
BLACK
6
CONTINUOUS
10
1.1099999999999999
20
0.0921259842519685
11
1.1096813385826771
21
0.0921893307086614
0
LINE
8
BLACK
6
CONTINUOUS
10
1.1096813385826771
20
0.0921893307086614
11
1.1083411417322835
21
0.092344842519685
0
LINE
8
BLACK
6
CONTINUOUS
10
1.1083411417322835
20
0.092344842519685
11
1.1078832283464566
21
0.0925470078740157
0
LINE
8
BLACK
6
CONTINUOUS
10
1.1078832283464566
20
0.0925470078740157
11
1.1069867322834646
21
0.0927253543307087
0
LINE
8
BLACK
6
CONTINUOUS
10
1.1069867322834646
20
0.0927253543307087
11
1.1060269291338582
21
0.0933666535433071
0
LINE
8
BLACK
6
CONTINUOUS
10
1.1060269291338582
20
0.0933666535433071
11
1.1055886614173227
21
0.0935601968503937
0
LINE
8
BLACK
6
CONTINUOUS
10
1.1055886614173227
20
0.0935601968503937
11
1.1052892519685038
21
0.0938595669291339
0
LINE
8
BLACK
6
CONTINUOUS
10
1.1052892519685038
20
0.0938595669291339
11
1.1044322440944883
21
0.0944322440944882
0
LINE
8
BLACK
6
CONTINUOUS
10
1.1044322440944883
20
0.0944322440944882
11
1.1038595669291338
21
0.0952892519685039
0
LINE
8
BLACK
6
CONTINUOUS
10
1.1038595669291338
20
0.0952892519685039
11
1.1035601968503936
21
0.0955886614173228
0
LINE
8
BLACK
6
CONTINUOUS
10
1.1035601968503936
20
0.0955886614173228
11
1.1033666535433071
21
0.0960269291338583
0
LINE
8
BLACK
6
CONTINUOUS
10
1.1033666535433071
20
0.0960269291338583
11
1.1027253543307087
21
0.0969867322834646
0
LINE
8
BLACK
6
CONTINUOUS
10
1.1027253543307087
20
0.0969867322834646
11
1.1025470078740158
21
0.0978832283464567
0
LINE
8
BLACK
6
CONTINUOUS
10
1.1025470078740158
20
0.0978832283464567
11
1.1023448425196851
21
0.0983411417322835
0
LINE
8
BLACK
6
CONTINUOUS
10
1.1023448425196851
20
0.0983411417322835
11
1.1021893307086614
21
0.0996814173228346
0
LINE
8
BLACK
6
CONTINUOUS
10
1.1021893307086614
20
0.0996814173228346
11
1.1021259842519684
21
0.1
0
LINE
8
BLACK
6
CONTINUOUS
10
1.1021259842519684
20
0.1
11
1.1021259842519684
21
0.16
0
LINE
8
BLACK
6
CONTINUOUS
10
1.1021259842519684
20
0.16
11
1.1021893700787402
21
0.1603187007874016
0
LINE
8
BLACK
6
CONTINUOUS
10
1.1021893700787402
20
0.1603187007874016
11
1.1023448425196851
21
0.1616588188976378
0
LINE
8
BLACK
6
CONTINUOUS
10
1.1023448425196851
20
0.1616588188976378
11
1.1025470078740158
21
0.1621166929133858
0
LINE
8
BLACK
6
CONTINUOUS
10
1.1025470078740158
20
0.1621166929133858
11
1.1027253543307087
21
0.1630132677165354
0
LINE
8
BLACK
6
CONTINUOUS
10
1.1027253543307087
20
0.1630132677165354
11
1.1033666929133858
21
0.1639731102362205
0
LINE
8
BLACK
6
CONTINUOUS
10
1.1033666929133858
20
0.1639731102362205
11
1.1035601968503936
21
0.1644112992125984
0
LINE
8
BLACK
6
CONTINUOUS
10
1.1035601968503936
20
0.1644112992125984
11
1.1038594881889763
21
0.1647105905511811
0
LINE
8
BLACK
6
CONTINUOUS
10
1.1038594881889763
20
0.1647105905511811
11
1.1044322440944883
21
0.1655677559055118
0
LINE
8
BLACK
6
CONTINUOUS
10
1.1044322440944883
20
0.1655677559055118
11
1.1052893700787401
21
0.1661404724409449
0
LINE
8
BLACK
6
CONTINUOUS
10
1.1052893700787401
20
0.1661404724409449
11
1.1055886614173227
21
0.1664397637795275
0
LINE
8
BLACK
6
CONTINUOUS
10
1.1055886614173227
20
0.1664397637795275
11
1.1060267716535432
21
0.1666331889763779
0
LINE
8
BLACK
6
CONTINUOUS
10
1.1060267716535432
20
0.1666331889763779
11
1.1069867322834646
21
0.1672746456692913
0
LINE
8
BLACK
6
CONTINUOUS
10
1.1069867322834646
20
0.1672746456692913
11
1.1078833858267716
21
0.1674529921259842
0
LINE
8
BLACK
6
CONTINUOUS
10
1.1078833858267716
20
0.1674529921259842
11
1.1083411417322835
21
0.1676551181102362
0
LINE
8
BLACK
6
CONTINUOUS
10
1.1083411417322835
20
0.1676551181102362
11
1.1096809448818898
21
0.1678105511811024
0
LINE
8
BLACK
6
CONTINUOUS
10
1.1096809448818898
20
0.1678105511811024
11
1.1099999999999999
21
0.1678740157480315
0
LINE
8
BLACK
6
CONTINUOUS
10
1.1099999999999999
20
0.1678740157480315
11
1.1699999999999999
21
0.1678740157480315
0
LINE
8
BLACK
6
CONTINUOUS
10
1.1699999999999999
20
0.1678740157480315
11
1.1703191732283464
21
0.1678105118110236
0
LINE
8
BLACK
6
CONTINUOUS
10
0.8703191732283464
20
0.2678105118110236
11
0.8716588188976377
21
0.2676551181102362
0
LINE
8
BLACK
6
CONTINUOUS
10
0.8716588188976377
20
0.2676551181102362
11
0.8721164960629921
21
0.2674529921259842
0
LINE
8
BLACK
6
CONTINUOUS
10
0.8721164960629921
20
0.2674529921259842
11
0.8730132677165354
21
0.2672746456692913
0
LINE
8
BLACK
6
CONTINUOUS
10
0.8730132677165354
20
0.2672746456692913
11
0.8739732677165354
21
0.2666331496062992
0
LINE
8
BLACK
6
CONTINUOUS
10
0.8739732677165354
20
0.2666331496062992
11
0.8744112992125984
21
0.2664397637795275
0
LINE
8
BLACK
6
CONTINUOUS
10
0.8744112992125984
20
0.2664397637795275
11
0.8747104724409449
21
0.2661405511811024
0
LINE
8
BLACK
6
CONTINUOUS
10
0.8747104724409449
20
0.2661405511811024
11
0.8755677559055118
21
0.2655677559055118
0
LINE
8
BLACK
6
CONTINUOUS
10
0.8755677559055118
20
0.2655677559055118
11
0.8761405511811023
21
0.2647104724409449
0
LINE
8
BLACK
6
CONTINUOUS
10
0.8761405511811023
20
0.2647104724409449
11
0.8764397637795276
21
0.2644112992125984
0
LINE
8
BLACK
6
CONTINUOUS
10
0.8764397637795276
20
0.2644112992125984
11
0.8766331496062992
21
0.2639732677165355
0
LINE
8
BLACK
6
CONTINUOUS
10
0.8766331496062992
20
0.2639732677165355
11
0.8772746456692914
21
0.2630132677165354
0
LINE
8
BLACK
6
CONTINUOUS
10
0.8772746456692914
20
0.2630132677165354
11
0.8774529921259843
21
0.2621164960629921
0
LINE
8
BLACK
6
CONTINUOUS
10
0.8774529921259843
20
0.2621164960629921
11
0.8776551181102362
21
0.2616588188976378
0
LINE
8
BLACK
6
CONTINUOUS
10
0.8776551181102362
20
0.2616588188976378
11
0.8778105118110237
21
0.260319094488189
0
LINE
8
BLACK
6
CONTINUOUS
10
0.8778105118110237
20
0.260319094488189
11
0.8778740157480315
21
0.26
0
LINE
8
BLACK
6
CONTINUOUS
10
0.8778740157480315
20
0.26
11
0.8778740157480315
21
0.2
0
LINE
8
BLACK
6
CONTINUOUS
10
0.8778740157480315
20
0.2
11
0.8778105118110237
21
0.1996808661417323
0
LINE
8
BLACK
6
CONTINUOUS
10
0.8778105118110237
20
0.1996808661417323
11
0.8776551181102362
21
0.1983411417322835
0
LINE
8
BLACK
6
CONTINUOUS
10
0.8776551181102362
20
0.1983411417322835
11
0.8774529921259843
21
0.1978833858267716
0
LINE
8
BLACK
6
CONTINUOUS
10
0.8774529921259843
20
0.1978833858267716
11
0.8772746456692914
21
0.1969867322834646
0
LINE
8
BLACK
6
CONTINUOUS
10
0.8772746456692914
20
0.1969867322834646
11
0.876633188976378
21
0.1960267716535433
0
LINE
8
BLACK
6
CONTINUOUS
10
0.876633188976378
20
0.1960267716535433
11
0.8764397637795276
21
0.1955886614173228
0
LINE
8
BLACK
6
CONTINUOUS
10
0.8764397637795276
20
0.1955886614173228
11
0.8761404724409448
21
0.1952893700787401
0
LINE
8
BLACK
6
CONTINUOUS
10
0.8761404724409448
20
0.1952893700787401
11
0.8755677559055118
21
0.1944322440944882
0
LINE
8
BLACK
6
CONTINUOUS
10
0.8755677559055118
20
0.1944322440944882
11
0.8747105905511811
21
0.1938594881889764
0
LINE
8
BLACK
6
CONTINUOUS
10
0.8747105905511811
20
0.1938594881889764
11
0.8744112992125984
21
0.1935601968503937
0
LINE
8
BLACK
6
CONTINUOUS
10
0.8744112992125984
20
0.1935601968503937
11
0.8739731102362205
21
0.1933666929133858
0
LINE
8
BLACK
6
CONTINUOUS
10
0.8739731102362205
20
0.1933666929133858
11
0.8730132677165354
21
0.1927253543307087
0
LINE
8
BLACK
6
CONTINUOUS
10
0.8730132677165354
20
0.1927253543307087
11
0.8721166929133858
21
0.1925470078740157
0
LINE
8
BLACK
6
CONTINUOUS
10
0.8721166929133858
20
0.1925470078740157
11
0.8716588188976377
21
0.192344842519685
0
LINE
8
BLACK
6
CONTINUOUS
10
0.8716588188976377
20
0.192344842519685
11
0.8703186220472441
21
0.1921893307086614
0
LINE
8
BLACK
6
CONTINUOUS
10
0.8703186220472441
20
0.1921893307086614
11
0.87
21
0.1921259842519685
0
LINE
8
BLACK
6
CONTINUOUS
10
0.87
20
0.1921259842519685
11
0.8697723228346457
21
0.1921259842519685
0
LINE
8
BLACK
6
CONTINUOUS
10
0.8697723228346457
20
0.1921259842519685
11
0.810227716535433
21
0.1921259842519685
0
LINE
8
BLACK
6
CONTINUOUS
10
0.810227716535433
20
0.1921259842519685
11
0.8099999999999999
21
0.1921259842519685
0
LINE
8
BLACK
6
CONTINUOUS
10
0.8099999999999999
20
0.1921259842519685
11
0.8096813385826771
21
0.1921893307086614
0
LINE
8
BLACK
6
CONTINUOUS
10
0.8096813385826771
20
0.1921893307086614
11
0.8083411417322834
21
0.192344842519685
0
LINE
8
BLACK
6
CONTINUOUS
10
0.8083411417322834
20
0.192344842519685
11
0.8078832283464566
21
0.1925470078740157
0
LINE
8
BLACK
6
CONTINUOUS
10
0.8078832283464566
20
0.1925470078740157
11
0.8069867322834645
21
0.1927253543307087
0
LINE
8
BLACK
6
CONTINUOUS
10
0.8069867322834645
20
0.1927253543307087
11
0.8060269291338582
21
0.1933666535433071
0
LINE
8
BLACK
6
CONTINUOUS
10
0.8060269291338582
20
0.1933666535433071
11
0.8055886614173228
21
0.1935601968503937
0
LINE
8
BLACK
6
CONTINUOUS
10
0.8055886614173228
20
0.1935601968503937
11
0.8052892519685039
21
0.1938595669291339
0
LINE
8
BLACK
6
CONTINUOUS
10
0.8052892519685039
20
0.1938595669291339
11
0.8044322440944882
21
0.1944322440944882
0
LINE
8
BLACK
6
CONTINUOUS
10
0.8044322440944882
20
0.1944322440944882
11
0.8038595669291339
21
0.1952892519685039
0
LINE
8
BLACK
6
CONTINUOUS
10
0.8038595669291339
20
0.1952892519685039
11
0.8035601968503937
21
0.1955886614173228
0
LINE
8
BLACK
6
CONTINUOUS
10
0.8035601968503937
20
0.1955886614173228
11
0.8033666535433071
21
0.1960269291338583
0
LINE
8
BLACK
6
CONTINUOUS
10
0.8033666535433071
20
0.1960269291338583
11
0.8027253543307087
21
0.1969867322834646
0
LINE
8
BLACK
6
CONTINUOUS
10
0.8027253543307087
20
0.1969867322834646
11
0.8025470078740158
21
0.1978832283464567
0
LINE
8
BLACK
6
CONTINUOUS
10
0.8025470078740158
20
0.1978832283464567
11
0.8023448425196851
21
0.1983411417322835
0
LINE
8
BLACK
6
CONTINUOUS
10
0.8023448425196851
20
0.1983411417322835
11
0.8021893307086614
21
0.1996814173228346
0
LINE
8
BLACK
6
CONTINUOUS
10
0.8021893307086614
20
0.1996814173228346
11
0.8021259842519685
21
0.2
0
LINE
8
BLACK
6
CONTINUOUS
10
0.8021259842519685
20
0.2
11
0.8021259842519685
21
0.26
0
LINE
8
BLACK
6
CONTINUOUS
10
0.8021259842519685
20
0.26
11
0.8021893700787401
21
0.2603187007874015
0
LINE
8
BLACK
6
CONTINUOUS
10
0.8021893700787401
20
0.2603187007874015
11
0.8023448425196851
21
0.2616588188976378
0
LINE
8
BLACK
6
CONTINUOUS
10
0.8023448425196851
20
0.2616588188976378
11
0.8025470078740158
21
0.2621166929133858
0
LINE
8
BLACK
6
CONTINUOUS
10
0.8025470078740158
20
0.2621166929133858
11
0.8027253543307087
21
0.2630132677165354
0
LINE
8
BLACK
6
CONTINUOUS
10
0.8027253543307087
20
0.2630132677165354
11
0.8033666929133858
21
0.2639731102362204
0
LINE
8
BLACK
6
CONTINUOUS
10
0.8033666929133858
20
0.2639731102362204
11
0.8035601968503937
21
0.2644112992125984
0
LINE
8
BLACK
6
CONTINUOUS
10
0.8035601968503937
20
0.2644112992125984
11
0.8038594881889763
21
0.2647105905511811
0
LINE
8
BLACK
6
CONTINUOUS
10
0.8038594881889763
20
0.2647105905511811
11
0.8044322440944882
21
0.2655677559055118
0
LINE
8
BLACK
6
CONTINUOUS
10
0.8044322440944882
20
0.2655677559055118
11
0.8052893700787401
21
0.2661404724409449
0
LINE
8
BLACK
6
CONTINUOUS
10
0.8052893700787401
20
0.2661404724409449
11
0.8055886614173228
21
0.2664397637795275
0
LINE
8
BLACK
6
CONTINUOUS
10
0.8055886614173228
20
0.2664397637795275
11
0.8060267716535433
21
0.2666331889763779
0
LINE
8
BLACK
6
CONTINUOUS
10
0.8060267716535433
20
0.2666331889763779
11
0.8069867322834645
21
0.2672746456692913
0
LINE
8
BLACK
6
CONTINUOUS
10
0.8069867322834645
20
0.2672746456692913
11
0.8078833858267717
21
0.2674529921259842
0
LINE
8
BLACK
6
CONTINUOUS
10
0.8078833858267717
20
0.2674529921259842
11
0.8083411417322834
21
0.2676551181102362
0
LINE
8
BLACK
6
CONTINUOUS
10
0.8083411417322834
20
0.2676551181102362
11
0.8096809448818898
21
0.2678105511811024
0
LINE
8
BLACK
6
CONTINUOUS
10
0.8096809448818898
20
0.2678105511811024
11
0.8099999999999999
21
0.2678740157480315
0
LINE
8
BLACK
6
CONTINUOUS
10
0.8099999999999999
20
0.2678740157480315
11
0.87
21
0.2678740157480315
0
LINE
8
BLACK
6
CONTINUOUS
10
0.87
20
0.2678740157480315
11
0.8703191732283464
21
0.2678105118110236
0
LINE
8
BLACK
6
CONTINUOUS
10
0.9703191732283465
20
0.2678105118110236
11
0.9716588188976377
21
0.2676551181102362
0
LINE
8
BLACK
6
CONTINUOUS
10
0.9716588188976377
20
0.2676551181102362
11
0.9721164960629921
21
0.2674529921259842
0
LINE
8
BLACK
6
CONTINUOUS
10
0.9721164960629921
20
0.2674529921259842
11
0.9730132677165354
21
0.2672746456692913
0
LINE
8
BLACK
6
CONTINUOUS
10
0.9730132677165354
20
0.2672746456692913
11
0.9739732677165354
21
0.2666331496062992
0
LINE
8
BLACK
6
CONTINUOUS
10
0.9739732677165354
20
0.2666331496062992
11
0.9744112992125984
21
0.2664397637795275
0
LINE
8
BLACK
6
CONTINUOUS
10
0.9744112992125984
20
0.2664397637795275
11
0.9747104724409449
21
0.2661405511811024
0
LINE
8
BLACK
6
CONTINUOUS
10
0.9747104724409449
20
0.2661405511811024
11
0.9755677559055118
21
0.2655677559055118
0
LINE
8
BLACK
6
CONTINUOUS
10
0.9755677559055118
20
0.2655677559055118
11
0.9761405511811023
21
0.2647104724409449
0
LINE
8
BLACK
6
CONTINUOUS
10
0.9761405511811023
20
0.2647104724409449
11
0.9764397637795276
21
0.2644112992125984
0
LINE
8
BLACK
6
CONTINUOUS
10
0.9764397637795276
20
0.2644112992125984
11
0.9766331496062992
21
0.2639732677165355
0
LINE
8
BLACK
6
CONTINUOUS
10
0.9766331496062992
20
0.2639732677165355
11
0.9772746456692913
21
0.2630132677165354
0
LINE
8
BLACK
6
CONTINUOUS
10
0.9772746456692913
20
0.2630132677165354
11
0.9774529921259842
21
0.2621164960629921
0
LINE
8
BLACK
6
CONTINUOUS
10
0.9774529921259842
20
0.2621164960629921
11
0.9776551181102362
21
0.2616588188976378
0
LINE
8
BLACK
6
CONTINUOUS
10
0.9776551181102362
20
0.2616588188976378
11
0.9778105118110236
21
0.260319094488189
0
LINE
8
BLACK
6
CONTINUOUS
10
0.9778105118110236
20
0.260319094488189
11
0.9778740157480315
21
0.26
0
LINE
8
BLACK
6
CONTINUOUS
10
0.9778740157480315
20
0.26
11
0.9778740157480315
21
0.2
0
LINE
8
BLACK
6
CONTINUOUS
10
0.9778740157480315
20
0.2
11
0.9778105118110236
21
0.1996808661417323
0
LINE
8
BLACK
6
CONTINUOUS
10
0.9778105118110236
20
0.1996808661417323
11
0.9776551181102362
21
0.1983411417322835
0
LINE
8
BLACK
6
CONTINUOUS
10
0.9776551181102362
20
0.1983411417322835
11
0.9774529921259842
21
0.1978833858267716
0
LINE
8
BLACK
6
CONTINUOUS
10
0.9774529921259842
20
0.1978833858267716
11
0.9772746456692913
21
0.1969867322834646
0
LINE
8
BLACK
6
CONTINUOUS
10
0.9772746456692913
20
0.1969867322834646
11
0.976633188976378
21
0.1960267716535433
0
LINE
8
BLACK
6
CONTINUOUS
10
0.976633188976378
20
0.1960267716535433
11
0.9764397637795276
21
0.1955886614173228
0
LINE
8
BLACK
6
CONTINUOUS
10
0.9764397637795276
20
0.1955886614173228
11
0.9761404724409448
21
0.1952893700787401
0
LINE
8
BLACK
6
CONTINUOUS
10
0.9761404724409448
20
0.1952893700787401
11
0.9755677559055118
21
0.1944322440944882
0
LINE
8
BLACK
6
CONTINUOUS
10
0.9755677559055118
20
0.1944322440944882
11
0.974710590551181
21
0.1938594881889764
0
LINE
8
BLACK
6
CONTINUOUS
10
0.974710590551181
20
0.1938594881889764
11
0.9744112992125984
21
0.1935601968503937
0
LINE
8
BLACK
6
CONTINUOUS
10
0.9744112992125984
20
0.1935601968503937
11
0.9739731102362205
21
0.1933666929133858
0
LINE
8
BLACK
6
CONTINUOUS
10
0.9739731102362205
20
0.1933666929133858
11
0.9730132677165354
21
0.1927253543307087
0
LINE
8
BLACK
6
CONTINUOUS
10
0.9730132677165354
20
0.1927253543307087
11
0.9721166929133858
21
0.1925470078740157
0
LINE
8
BLACK
6
CONTINUOUS
10
0.9721166929133858
20
0.1925470078740157
11
0.9716588188976377
21
0.192344842519685
0
LINE
8
BLACK
6
CONTINUOUS
10
0.9716588188976377
20
0.192344842519685
11
0.9703186220472441
21
0.1921893307086614
0
LINE
8
BLACK
6
CONTINUOUS
10
0.9703186220472441
20
0.1921893307086614
11
0.97
21
0.1921259842519685
0
LINE
8
BLACK
6
CONTINUOUS
10
0.97
20
0.1921259842519685
11
0.9697723228346457
21
0.1921259842519685
0
LINE
8
BLACK
6
CONTINUOUS
10
0.9697723228346457
20
0.1921259842519685
11
0.910227716535433
21
0.1921259842519685
0
LINE
8
BLACK
6
CONTINUOUS
10
0.910227716535433
20
0.1921259842519685
11
0.91
21
0.1921259842519685
0
LINE
8
BLACK
6
CONTINUOUS
10
0.91
20
0.1921259842519685
11
0.9096813385826772
21
0.1921893307086614
0
LINE
8
BLACK
6
CONTINUOUS
10
0.9096813385826772
20
0.1921893307086614
11
0.9083411417322834
21
0.192344842519685
0
LINE
8
BLACK
6
CONTINUOUS
10
0.9083411417322834
20
0.192344842519685
11
0.9078832283464566
21
0.1925470078740157
0
LINE
8
BLACK
6
CONTINUOUS
10
0.9078832283464566
20
0.1925470078740157
11
0.9069867322834645
21
0.1927253543307087
0
LINE
8
BLACK
6
CONTINUOUS
10
0.9069867322834645
20
0.1927253543307087
11
0.9060269291338583
21
0.1933666535433071
0
LINE
8
BLACK
6
CONTINUOUS
10
0.9060269291338583
20
0.1933666535433071
11
0.9055886614173229
21
0.1935601968503937
0
LINE
8
BLACK
6
CONTINUOUS
10
0.9055886614173229
20
0.1935601968503937
11
0.905289251968504
21
0.1938595669291339
0
LINE
8
BLACK
6
CONTINUOUS
10
0.905289251968504
20
0.1938595669291339
11
0.9044322440944882
21
0.1944322440944882
0
LINE
8
BLACK
6
CONTINUOUS
10
0.9044322440944882
20
0.1944322440944882
11
0.9038595669291338
21
0.1952892519685039
0
LINE
8
BLACK
6
CONTINUOUS
10
0.9038595669291338
20
0.1952892519685039
11
0.9035601968503937
21
0.1955886614173228
0
LINE
8
BLACK
6
CONTINUOUS
10
0.9035601968503937
20
0.1955886614173228
11
0.903366653543307
21
0.1960269291338583
0
LINE
8
BLACK
6
CONTINUOUS
10
0.903366653543307
20
0.1960269291338583
11
0.9027253543307087
21
0.1969867322834646
0
LINE
8
BLACK
6
CONTINUOUS
10
0.9027253543307087
20
0.1969867322834646
11
0.9025470078740158
21
0.1978832283464567
0
LINE
8
BLACK
6
CONTINUOUS
10
0.9025470078740158
20
0.1978832283464567
11
0.9023448425196851
21
0.1983411417322835
0
LINE
8
BLACK
6
CONTINUOUS
10
0.9023448425196851
20
0.1983411417322835
11
0.9021893307086614
21
0.1996814173228346
0
LINE
8
BLACK
6
CONTINUOUS
10
0.9021893307086614
20
0.1996814173228346
11
0.9021259842519684
21
0.2
0
LINE
8
BLACK
6
CONTINUOUS
10
0.9021259842519684
20
0.2
11
0.9021259842519684
21
0.26
0
LINE
8
BLACK
6
CONTINUOUS
10
0.9021259842519684
20
0.26
11
0.9021893700787401
21
0.2603187007874015
0
LINE
8
BLACK
6
CONTINUOUS
10
0.9021893700787401
20
0.2603187007874015
11
0.9023448425196851
21
0.2616588188976378
0
LINE
8
BLACK
6
CONTINUOUS
10
0.9023448425196851
20
0.2616588188976378
11
0.9025470078740158
21
0.2621166929133858
0
LINE
8
BLACK
6
CONTINUOUS
10
0.9025470078740158
20
0.2621166929133858
11
0.9027253543307087
21
0.2630132677165354
0
LINE
8
BLACK
6
CONTINUOUS
10
0.9027253543307087
20
0.2630132677165354
11
0.9033666929133858
21
0.2639731102362204
0
LINE
8
BLACK
6
CONTINUOUS
10
0.9033666929133858
20
0.2639731102362204
11
0.9035601968503937
21
0.2644112992125984
0
LINE
8
BLACK
6
CONTINUOUS
10
0.9035601968503937
20
0.2644112992125984
11
0.9038594881889763
21
0.2647105905511811
0
LINE
8
BLACK
6
CONTINUOUS
10
0.9038594881889763
20
0.2647105905511811
11
0.9044322440944882
21
0.2655677559055118
0
LINE
8
BLACK
6
CONTINUOUS
10
0.9044322440944882
20
0.2655677559055118
11
0.9052893700787401
21
0.2661404724409449
0
LINE
8
BLACK
6
CONTINUOUS
10
0.9052893700787401
20
0.2661404724409449
11
0.9055886614173229
21
0.2664397637795275
0
LINE
8
BLACK
6
CONTINUOUS
10
0.9055886614173229
20
0.2664397637795275
11
0.9060267716535433
21
0.2666331889763779
0
LINE
8
BLACK
6
CONTINUOUS
10
0.9060267716535433
20
0.2666331889763779
11
0.9069867322834645
21
0.2672746456692913
0
LINE
8
BLACK
6
CONTINUOUS
10
0.9069867322834645
20
0.2672746456692913
11
0.9078833858267716
21
0.2674529921259842
0
LINE
8
BLACK
6
CONTINUOUS
10
0.9078833858267716
20
0.2674529921259842
11
0.9083411417322834
21
0.2676551181102362
0
LINE
8
BLACK
6
CONTINUOUS
10
0.9083411417322834
20
0.2676551181102362
11
0.9096809448818898
21
0.2678105511811024
0
LINE
8
BLACK
6
CONTINUOUS
10
0.9096809448818898
20
0.2678105511811024
11
0.91
21
0.2678740157480315
0
LINE
8
BLACK
6
CONTINUOUS
10
0.91
20
0.2678740157480315
11
0.97
21
0.2678740157480315
0
LINE
8
BLACK
6
CONTINUOUS
10
0.97
20
0.2678740157480315
11
0.9703191732283465
21
0.2678105118110236
0
LINE
8
BLACK
6
CONTINUOUS
10
1.0703191732283464
20
0.2678105118110236
11
1.0716588188976377
21
0.2676551181102362
0
LINE
8
BLACK
6
CONTINUOUS
10
1.0716588188976377
20
0.2676551181102362
11
1.0721164960629921
21
0.2674529921259842
0
LINE
8
BLACK
6
CONTINUOUS
10
1.0721164960629921
20
0.2674529921259842
11
1.0730132677165354
21
0.2672746456692913
0
LINE
8
BLACK
6
CONTINUOUS
10
1.0730132677165354
20
0.2672746456692913
11
1.0739732677165355
21
0.2666331496062992
0
LINE
8
BLACK
6
CONTINUOUS
10
1.0739732677165355
20
0.2666331496062992
11
1.0744112992125985
21
0.2664397637795275
0
LINE
8
BLACK
6
CONTINUOUS
10
1.0744112992125985
20
0.2664397637795275
11
1.0747104724409449
21
0.2661405511811024
0
LINE
8
BLACK
6
CONTINUOUS
10
1.0747104724409449
20
0.2661405511811024
11
1.0755677559055117
21
0.2655677559055118
0
LINE
8
BLACK
6
CONTINUOUS
10
1.0755677559055117
20
0.2655677559055118
11
1.0761405511811024
21
0.2647104724409449
0
LINE
8
BLACK
6
CONTINUOUS
10
1.0761405511811024
20
0.2647104724409449
11
1.0764397637795275
21
0.2644112992125984
0
LINE
8
BLACK
6
CONTINUOUS
10
1.0764397637795275
20
0.2644112992125984
11
1.0766331496062991
21
0.2639732677165355
0
LINE
8
BLACK
6
CONTINUOUS
10
1.0766331496062991
20
0.2639732677165355
11
1.0772746456692912
21
0.2630132677165354
0
LINE
8
BLACK
6
CONTINUOUS
10
1.0772746456692912
20
0.2630132677165354
11
1.0774529921259843
21
0.2621164960629921
0
LINE
8
BLACK
6
CONTINUOUS
10
1.0774529921259843
20
0.2621164960629921
11
1.0776551181102363
21
0.2616588188976378
0
LINE
8
BLACK
6
CONTINUOUS
10
1.0776551181102363
20
0.2616588188976378
11
1.0778105118110235
21
0.260319094488189
0
LINE
8
BLACK
6
CONTINUOUS
10
1.0778105118110235
20
0.260319094488189
11
1.0778740157480315
21
0.26
0
LINE
8
BLACK
6
CONTINUOUS
10
1.0778740157480315
20
0.26
11
1.0778740157480315
21
0.2
0
LINE
8
BLACK
6
CONTINUOUS
10
1.0778740157480315
20
0.2
11
1.0778105118110235
21
0.1996808661417323
0
LINE
8
BLACK
6
CONTINUOUS
10
1.0778105118110235
20
0.1996808661417323
11
1.0776551181102363
21
0.1983411417322835
0
LINE
8
BLACK
6
CONTINUOUS
10
1.0776551181102363
20
0.1983411417322835
11
1.0774529921259843
21
0.1978833858267716
0
LINE
8
BLACK
6
CONTINUOUS
10
1.0774529921259843
20
0.1978833858267716
11
1.0772746456692912
21
0.1969867322834646
0
LINE
8
BLACK
6
CONTINUOUS
10
1.0772746456692912
20
0.1969867322834646
11
1.0766331889763778
21
0.1960267716535433
0
LINE
8
BLACK
6
CONTINUOUS
10
1.0766331889763778
20
0.1960267716535433
11
1.0764397637795275
21
0.1955886614173228
0
LINE
8
BLACK
6
CONTINUOUS
10
1.0764397637795275
20
0.1955886614173228
11
1.0761404724409449
21
0.1952893700787401
0
LINE
8
BLACK
6
CONTINUOUS
10
1.0761404724409449
20
0.1952893700787401
11
1.0755677559055117
21
0.1944322440944882
0
LINE
8
BLACK
6
CONTINUOUS
10
1.0755677559055117
20
0.1944322440944882
11
1.0747105905511811
21
0.1938594881889764
0
LINE
8
BLACK
6
CONTINUOUS
10
1.0747105905511811
20
0.1938594881889764
11
1.0744112992125985
21
0.1935601968503937
0
LINE
8
BLACK
6
CONTINUOUS
10
1.0744112992125985
20
0.1935601968503937
11
1.0739731102362204
21
0.1933666929133858
0
LINE
8
BLACK
6
CONTINUOUS
10
1.0739731102362204
20
0.1933666929133858
11
1.0730132677165354
21
0.1927253543307087
0
LINE
8
BLACK
6
CONTINUOUS
10
1.0730132677165354
20
0.1927253543307087
11
1.0721166929133858
21
0.1925470078740157
0
LINE
8
BLACK
6
CONTINUOUS
10
1.0721166929133858
20
0.1925470078740157
11
1.0716588188976377
21
0.192344842519685
0
LINE
8
BLACK
6
CONTINUOUS
10
1.0716588188976377
20
0.192344842519685
11
1.070318622047244
21
0.1921893307086614
0
LINE
8
BLACK
6
CONTINUOUS
10
1.070318622047244
20
0.1921893307086614
11
1.0700000000000001
21
0.1921259842519685
0
LINE
8
BLACK
6
CONTINUOUS
10
1.0700000000000001
20
0.1921259842519685
11
1.0697723228346456
21
0.1921259842519685
0
LINE
8
BLACK
6
CONTINUOUS
10
1.0697723228346456
20
0.1921259842519685
11
1.010227716535433
21
0.1921259842519685
0
LINE
8
BLACK
6
CONTINUOUS
10
1.010227716535433
20
0.1921259842519685
11
1.01
21
0.1921259842519685
0
LINE
8
BLACK
6
CONTINUOUS
10
1.01
20
0.1921259842519685
11
1.0096813385826771
21
0.1921893307086614
0
LINE
8
BLACK
6
CONTINUOUS
10
1.0096813385826771
20
0.1921893307086614
11
1.0083411417322834
21
0.192344842519685
0
LINE
8
BLACK
6
CONTINUOUS
10
1.0083411417322834
20
0.192344842519685
11
1.0078832283464567
21
0.1925470078740157
0
LINE
8
BLACK
6
CONTINUOUS
10
1.0078832283464567
20
0.1925470078740157
11
1.0069867322834645
21
0.1927253543307087
0
LINE
8
BLACK
6
CONTINUOUS
10
1.0069867322834645
20
0.1927253543307087
11
1.0060269291338582
21
0.1933666535433071
0
LINE
8
BLACK
6
CONTINUOUS
10
1.0060269291338582
20
0.1933666535433071
11
1.0055886614173228
21
0.1935601968503937
0
LINE
8
BLACK
6
CONTINUOUS
10
1.0055886614173228
20
0.1935601968503937
11
1.0052892519685039
21
0.1938595669291339
0
LINE
8
BLACK
6
CONTINUOUS
10
1.0052892519685039
20
0.1938595669291339
11
1.0044322440944882
21
0.1944322440944882
0
LINE
8
BLACK
6
CONTINUOUS
10
1.0044322440944882
20
0.1944322440944882
11
1.0038595669291339
21
0.1952892519685039
0
LINE
8
BLACK
6
CONTINUOUS
10
1.0038595669291339
20
0.1952892519685039
11
1.0035601968503938
21
0.1955886614173228
0
LINE
8
BLACK
6
CONTINUOUS
10
1.0035601968503938
20
0.1955886614173228
11
1.003366653543307
21
0.1960269291338583
0
LINE
8
BLACK
6
CONTINUOUS
10
1.003366653543307
20
0.1960269291338583
11
1.0027253543307086
21
0.1969867322834646
0
LINE
8
BLACK
6
CONTINUOUS
10
1.0027253543307086
20
0.1969867322834646
11
1.0025470078740157
21
0.1978832283464567
0
LINE
8
BLACK
6
CONTINUOUS
10
1.0025470078740157
20
0.1978832283464567
11
1.002344842519685
21
0.1983411417322835
0
LINE
8
BLACK
6
CONTINUOUS
10
1.002344842519685
20
0.1983411417322835
11
1.0021893307086613
21
0.1996814173228346
0
LINE
8
BLACK
6
CONTINUOUS
10
1.0021893307086613
20
0.1996814173228346
11
1.0021259842519685
21
0.2
0
LINE
8
BLACK
6
CONTINUOUS
10
1.0021259842519685
20
0.2
11
1.0021259842519685
21
0.26
0
LINE
8
BLACK
6
CONTINUOUS
10
1.0021259842519685
20
0.26
11
1.0021893700787401
21
0.2603187007874015
0
LINE
8
BLACK
6
CONTINUOUS
10
1.0021893700787401
20
0.2603187007874015
11
1.002344842519685
21
0.2616588188976378
0
LINE
8
BLACK
6
CONTINUOUS
10
1.002344842519685
20
0.2616588188976378
11
1.0025470078740157
21
0.2621166929133858
0
LINE
8
BLACK
6
CONTINUOUS
10
1.0025470078740157
20
0.2621166929133858
11
1.0027253543307086
21
0.2630132677165354
0
LINE
8
BLACK
6
CONTINUOUS
10
1.0027253543307086
20
0.2630132677165354
11
1.0033666929133858
21
0.2639731102362204
0
LINE
8
BLACK
6
CONTINUOUS
10
1.0033666929133858
20
0.2639731102362204
11
1.0035601968503938
21
0.2644112992125984
0
LINE
8
BLACK
6
CONTINUOUS
10
1.0035601968503938
20
0.2644112992125984
11
1.0038594881889764
21
0.2647105905511811
0
LINE
8
BLACK
6
CONTINUOUS
10
1.0038594881889764
20
0.2647105905511811
11
1.0044322440944882
21
0.2655677559055118
0
LINE
8
BLACK
6
CONTINUOUS
10
1.0044322440944882
20
0.2655677559055118
11
1.0052893700787402
21
0.2661404724409449
0
LINE
8
BLACK
6
CONTINUOUS
10
1.0052893700787402
20
0.2661404724409449
11
1.0055886614173228
21
0.2664397637795275
0
LINE
8
BLACK
6
CONTINUOUS
10
1.0055886614173228
20
0.2664397637795275
11
1.0060267716535434
21
0.2666331889763779
0
LINE
8
BLACK
6
CONTINUOUS
10
1.0060267716535434
20
0.2666331889763779
11
1.0069867322834645
21
0.2672746456692913
0
LINE
8
BLACK
6
CONTINUOUS
10
1.0069867322834645
20
0.2672746456692913
11
1.0078833858267717
21
0.2674529921259842
0
LINE
8
BLACK
6
CONTINUOUS
10
1.0078833858267717
20
0.2674529921259842
11
1.0083411417322834
21
0.2676551181102362
0
LINE
8
BLACK
6
CONTINUOUS
10
1.0083411417322834
20
0.2676551181102362
11
1.0096809448818898
21
0.2678105511811024
0
LINE
8
BLACK
6
CONTINUOUS
10
1.0096809448818898
20
0.2678105511811024
11
1.01
21
0.2678740157480315
0
LINE
8
BLACK
6
CONTINUOUS
10
1.01
20
0.2678740157480315
11
1.0700000000000001
21
0.2678740157480315
0
LINE
8
BLACK
6
CONTINUOUS
10
1.0700000000000001
20
0.2678740157480315
11
1.0703191732283464
21
0.2678105118110236
0
LINE
8
BLACK
6
CONTINUOUS
10
1.1703191732283464
20
0.2678105118110236
11
1.1716588188976378
21
0.2676551181102362
0
LINE
8
BLACK
6
CONTINUOUS
10
1.1716588188976378
20
0.2676551181102362
11
1.1721164960629922
21
0.2674529921259842
0
LINE
8
BLACK
6
CONTINUOUS
10
1.1721164960629922
20
0.2674529921259842
11
1.1730132677165355
21
0.2672746456692913
0
LINE
8
BLACK
6
CONTINUOUS
10
1.1730132677165355
20
0.2672746456692913
11
1.1739732677165353
21
0.2666331496062992
0
LINE
8
BLACK
6
CONTINUOUS
10
1.1739732677165353
20
0.2666331496062992
11
1.1744112992125983
21
0.2664397637795275
0
LINE
8
BLACK
6
CONTINUOUS
10
1.1744112992125983
20
0.2664397637795275
11
1.174710472440945
21
0.2661405511811024
0
LINE
8
BLACK
6
CONTINUOUS
10
1.174710472440945
20
0.2661405511811024
11
1.1755677559055118
21
0.2655677559055118
0
LINE
8
BLACK
6
CONTINUOUS
10
1.1755677559055118
20
0.2655677559055118
11
1.1761405511811023
21
0.2647104724409449
0
LINE
8
BLACK
6
CONTINUOUS
10
1.1761405511811023
20
0.2647104724409449
11
1.1764397637795276
21
0.2644112992125984
0
LINE
8
BLACK
6
CONTINUOUS
10
1.1764397637795276
20
0.2644112992125984
11
1.1766331496062992
21
0.2639732677165355
0
LINE
8
BLACK
6
CONTINUOUS
10
1.1766331496062992
20
0.2639732677165355
11
1.1772746456692913
21
0.2630132677165354
0
LINE
8
BLACK
6
CONTINUOUS
10
1.1772746456692913
20
0.2630132677165354
11
1.1774529921259842
21
0.2621164960629921
0
LINE
8
BLACK
6
CONTINUOUS
10
1.1774529921259842
20
0.2621164960629921
11
1.1776551181102362
21
0.2616588188976378
0
LINE
8
BLACK
6
CONTINUOUS
10
1.1776551181102362
20
0.2616588188976378
11
1.1778105118110236
21
0.260319094488189
0
LINE
8
BLACK
6
CONTINUOUS
10
1.1778105118110236
20
0.260319094488189
11
1.1778740157480314
21
0.26
0
LINE
8
BLACK
6
CONTINUOUS
10
1.1778740157480314
20
0.26
11
1.1778740157480314
21
0.2
0
LINE
8
BLACK
6
CONTINUOUS
10
1.1778740157480314
20
0.2
11
1.1778105118110236
21
0.1996808661417323
0
LINE
8
BLACK
6
CONTINUOUS
10
1.1778105118110236
20
0.1996808661417323
11
1.1776551181102362
21
0.1983411417322835
0
LINE
8
BLACK
6
CONTINUOUS
10
1.1776551181102362
20
0.1983411417322835
11
1.1774529921259842
21
0.1978833858267716
0
LINE
8
BLACK
6
CONTINUOUS
10
1.1774529921259842
20
0.1978833858267716
11
1.1772746456692913
21
0.1969867322834646
0
LINE
8
BLACK
6
CONTINUOUS
10
1.1772746456692913
20
0.1969867322834646
11
1.1766331889763779
21
0.1960267716535433
0
LINE
8
BLACK
6
CONTINUOUS
10
1.1766331889763779
20
0.1960267716535433
11
1.1764397637795276
21
0.1955886614173228
0
LINE
8
BLACK
6
CONTINUOUS
10
1.1764397637795276
20
0.1955886614173228
11
1.1761404724409448
21
0.1952893700787401
0
LINE
8
BLACK
6
CONTINUOUS
10
1.1761404724409448
20
0.1952893700787401
11
1.1755677559055118
21
0.1944322440944882
0
LINE
8
BLACK
6
CONTINUOUS
10
1.1755677559055118
20
0.1944322440944882
11
1.174710590551181
21
0.1938594881889764
0
LINE
8
BLACK
6
CONTINUOUS
10
1.174710590551181
20
0.1938594881889764
11
1.1744112992125983
21
0.1935601968503937
0
LINE
8
BLACK
6
CONTINUOUS
10
1.1744112992125983
20
0.1935601968503937
11
1.1739731102362205
21
0.1933666929133858
0
LINE
8
BLACK
6
CONTINUOUS
10
1.1739731102362205
20
0.1933666929133858
11
1.1730132677165355
21
0.1927253543307087
0
LINE
8
BLACK
6
CONTINUOUS
10
1.1730132677165355
20
0.1927253543307087
11
1.1721166929133857
21
0.1925470078740157
0
LINE
8
BLACK
6
CONTINUOUS
10
1.1721166929133857
20
0.1925470078740157
11
1.1716588188976378
21
0.192344842519685
0
LINE
8
BLACK
6
CONTINUOUS
10
1.1716588188976378
20
0.192344842519685
11
1.1703186220472441
21
0.1921893307086614
0
LINE
8
BLACK
6
CONTINUOUS
10
1.1703186220472441
20
0.1921893307086614
11
1.1699999999999999
21
0.1921259842519685
0
LINE
8
BLACK
6
CONTINUOUS
10
1.1699999999999999
20
0.1921259842519685
11
1.1697723228346457
21
0.1921259842519685
0
LINE
8
BLACK
6
CONTINUOUS
10
1.1697723228346457
20
0.1921259842519685
11
1.1102277165354331
21
0.1921259842519685
0
LINE
8
BLACK
6
CONTINUOUS
10
1.1102277165354331
20
0.1921259842519685
11
1.1099999999999999
21
0.1921259842519685
0
LINE
8
BLACK
6
CONTINUOUS
10
1.1099999999999999
20
0.1921259842519685
11
1.1096813385826771
21
0.1921893307086614
0
LINE
8
BLACK
6
CONTINUOUS
10
1.1096813385826771
20
0.1921893307086614
11
1.1083411417322835
21
0.192344842519685
0
LINE
8
BLACK
6
CONTINUOUS
10
1.1083411417322835
20
0.192344842519685
11
1.1078832283464566
21
0.1925470078740157
0
LINE
8
BLACK
6
CONTINUOUS
10
1.1078832283464566
20
0.1925470078740157
11
1.1069867322834646
21
0.1927253543307087
0
LINE
8
BLACK
6
CONTINUOUS
10
1.1069867322834646
20
0.1927253543307087
11
1.1060269291338582
21
0.1933666535433071
0
LINE
8
BLACK
6
CONTINUOUS
10
1.1060269291338582
20
0.1933666535433071
11
1.1055886614173227
21
0.1935601968503937
0
LINE
8
BLACK
6
CONTINUOUS
10
1.1055886614173227
20
0.1935601968503937
11
1.1052892519685038
21
0.1938595669291339
0
LINE
8
BLACK
6
CONTINUOUS
10
1.1052892519685038
20
0.1938595669291339
11
1.1044322440944883
21
0.1944322440944882
0
LINE
8
BLACK
6
CONTINUOUS
10
1.1044322440944883
20
0.1944322440944882
11
1.1038595669291338
21
0.1952892519685039
0
LINE
8
BLACK
6
CONTINUOUS
10
1.1038595669291338
20
0.1952892519685039
11
1.1035601968503936
21
0.1955886614173228
0
LINE
8
BLACK
6
CONTINUOUS
10
1.1035601968503936
20
0.1955886614173228
11
1.1033666535433071
21
0.1960269291338583
0
LINE
8
BLACK
6
CONTINUOUS
10
1.1033666535433071
20
0.1960269291338583
11
1.1027253543307087
21
0.1969867322834646
0
LINE
8
BLACK
6
CONTINUOUS
10
1.1027253543307087
20
0.1969867322834646
11
1.1025470078740158
21
0.1978832283464567
0
LINE
8
BLACK
6
CONTINUOUS
10
1.1025470078740158
20
0.1978832283464567
11
1.1023448425196851
21
0.1983411417322835
0
LINE
8
BLACK
6
CONTINUOUS
10
1.1023448425196851
20
0.1983411417322835
11
1.1021893307086614
21
0.1996814173228346
0
LINE
8
BLACK
6
CONTINUOUS
10
1.1021893307086614
20
0.1996814173228346
11
1.1021259842519684
21
0.2
0
LINE
8
BLACK
6
CONTINUOUS
10
1.1021259842519684
20
0.2
11
1.1021259842519684
21
0.26
0
LINE
8
BLACK
6
CONTINUOUS
10
1.1021259842519684
20
0.26
11
1.1021893700787402
21
0.2603187007874015
0
LINE
8
BLACK
6
CONTINUOUS
10
1.1021893700787402
20
0.2603187007874015
11
1.1023448425196851
21
0.2616588188976378
0
LINE
8
BLACK
6
CONTINUOUS
10
1.1023448425196851
20
0.2616588188976378
11
1.1025470078740158
21
0.2621166929133858
0
LINE
8
BLACK
6
CONTINUOUS
10
1.1025470078740158
20
0.2621166929133858
11
1.1027253543307087
21
0.2630132677165354
0
LINE
8
BLACK
6
CONTINUOUS
10
1.1027253543307087
20
0.2630132677165354
11
1.1033666929133858
21
0.2639731102362204
0
LINE
8
BLACK
6
CONTINUOUS
10
1.1033666929133858
20
0.2639731102362204
11
1.1035601968503936
21
0.2644112992125984
0
LINE
8
BLACK
6
CONTINUOUS
10
1.1035601968503936
20
0.2644112992125984
11
1.1038594881889763
21
0.2647105905511811
0
LINE
8
BLACK
6
CONTINUOUS
10
1.1038594881889763
20
0.2647105905511811
11
1.1044322440944883
21
0.2655677559055118
0
LINE
8
BLACK
6
CONTINUOUS
10
1.1044322440944883
20
0.2655677559055118
11
1.1052893700787401
21
0.2661404724409449
0
LINE
8
BLACK
6
CONTINUOUS
10
1.1052893700787401
20
0.2661404724409449
11
1.1055886614173227
21
0.2664397637795275
0
LINE
8
BLACK
6
CONTINUOUS
10
1.1055886614173227
20
0.2664397637795275
11
1.1060267716535432
21
0.2666331889763779
0
LINE
8
BLACK
6
CONTINUOUS
10
1.1060267716535432
20
0.2666331889763779
11
1.1069867322834646
21
0.2672746456692913
0
LINE
8
BLACK
6
CONTINUOUS
10
1.1069867322834646
20
0.2672746456692913
11
1.1078833858267716
21
0.2674529921259842
0
LINE
8
BLACK
6
CONTINUOUS
10
1.1078833858267716
20
0.2674529921259842
11
1.1083411417322835
21
0.2676551181102362
0
LINE
8
BLACK
6
CONTINUOUS
10
1.1083411417322835
20
0.2676551181102362
11
1.1096809448818898
21
0.2678105511811024
0
LINE
8
BLACK
6
CONTINUOUS
10
1.1096809448818898
20
0.2678105511811024
11
1.1099999999999999
21
0.2678740157480315
0
LINE
8
BLACK
6
CONTINUOUS
10
1.1099999999999999
20
0.2678740157480315
11
1.1699999999999999
21
0.2678740157480315
0
LINE
8
BLACK
6
CONTINUOUS
10
1.1699999999999999
20
0.2678740157480315
11
1.1703191732283464
21
0.2678105118110236
0
LINE
8
BLACK
6
CONTINUOUS
10
0.2033930708661417
20
1.5257937007874016
11
0.2068202362204724
21
1.5257937007874016
0
LINE
8
BLACK
6
CONTINUOUS
10
0.2068202362204724
20
1.5257937007874016
11
0.2104794094488189
21
1.5253957086614174
0
LINE
8
BLACK
6
CONTINUOUS
10
0.2104794094488189
20
1.5253957086614174
11
0.2141057480314961
21
1.5251920866141733
0
LINE
8
BLACK
6
CONTINUOUS
10
0.2141057480314961
20
1.5251920866141733
11
0.2172249212598425
21
1.5246620866141731
0
LINE
8
BLACK
6
CONTINUOUS
10
0.2172249212598425
20
1.5246620866141731
11
0.2203811023622047
21
1.5243188582677165
0
LINE
8
BLACK
6
CONTINUOUS
10
0.2203811023622047
20
1.5243188582677165
11
0.2242248818897638
21
1.5234727559055117
0
LINE
8
BLACK
6
CONTINUOUS
10
0.2242248818897638
20
1.5234727559055117
11
0.2280341338582677
21
1.5228255511811024
0
LINE
8
BLACK
6
CONTINUOUS
10
0.2280341338582677
20
1.5228255511811024
11
0.2308478346456693
21
1.5220149212598424
0
LINE
8
BLACK
6
CONTINUOUS
10
0.2308478346456693
20
1.5220149212598424
11
0.233702874015748
21
1.5213864960629921
0
LINE
8
BLACK
6
CONTINUOUS
10
0.233702874015748
20
1.5213864960629921
11
0.2376761023622047
21
1.5200477559055117
0
LINE
8
BLACK
6
CONTINUOUS
10
0.2376761023622047
20
1.5200477559055117
11
0.2416099606299213
21
1.5189144488188977
0
LINE
8
BLACK
6
CONTINUOUS
10
0.2416099606299213
20
1.5189144488188977
11
0.2440963779527559
21
1.5178845275590551
0
LINE
8
BLACK
6
CONTINUOUS
10
0.2440963779527559
20
1.5178845275590551
11
0.2466292913385827
21
1.5170311023622047
0
LINE
8
BLACK
6
CONTINUOUS
10
0.2466292913385827
20
1.5170311023622047
11
0.2506707874015748
21
1.5151612992125985
0
LINE
8
BLACK
6
CONTINUOUS
10
0.2506707874015748
20
1.5151612992125985
11
0.2546625196850394
21
1.5135078740157479
0
LINE
8
BLACK
6
CONTINUOUS
10
0.2546625196850394
20
1.5135078740157479
11
0.2568098031496063
21
1.512321062992126
0
LINE
8
BLACK
6
CONTINUOUS
10
0.2568098031496063
20
1.512321062992126
11
0.2590093307086614
21
1.5113035039370077
0
LINE
8
BLACK
6
CONTINUOUS
10
0.2590093307086614
20
1.5113035039370077
11
0.2630505511811024
21
1.5088719685039369
0
LINE
8
BLACK
6
CONTINUOUS
10
0.2630505511811024
20
1.5088719685039369
11
0.2670276771653543
21
1.5066738976377951
0
LINE
8
BLACK
6
CONTINUOUS
10
0.2670276771653543
20
1.5066738976377951
11
0.2688345669291339
21
1.505391811023622
0
LINE
8
BLACK
6
CONTINUOUS
10
0.2688345669291339
20
1.505391811023622
11
0.2706976377952756
21
1.5042708661417323
0
LINE
8
BLACK
6
CONTINUOUS
10
0.2706976377952756
20
1.5042708661417323
11
0.2746654724409449
21
1.5012545669291337
0
LINE
8
BLACK
6
CONTINUOUS
10
0.2746654724409449
20
1.5012545669291337
11
0.2785498818897638
21
1.498498464566929
0
LINE
8
BLACK
6
CONTINUOUS
10
0.2785498818897638
20
1.498498464566929
11
0.2800237007874016
21
1.4971813779527559
0
LINE
8
BLACK
6
CONTINUOUS
10
0.2800237007874016
20
1.4971813779527559
11
0.2815566535433071
21
1.496016062992126
0
LINE
8
BLACK
6
CONTINUOUS
10
0.2815566535433071
20
1.496016062992126
11
0.285373937007874
21
1.4924000787401575
0
LINE
8
BLACK
6
CONTINUOUS
10
0.285373937007874
20
1.4924000787401575
11
0.2890843307086614
21
1.4890843307086614
0
LINE
8
BLACK
6
CONTINUOUS
10
0.2890843307086614
20
1.4890843307086614
11
0.2902422440944882
21
1.4877885826771653
0
LINE
8
BLACK
6
CONTINUOUS
10
0.2902422440944882
20
1.4877885826771653
11
0.2914596456692913
21
1.4866354330708662
0
LINE
8
BLACK
6
CONTINUOUS
10
0.2914596456692913
20
1.4866354330708662
11
0.2950464960629921
21
1.4824126377952755
0
LINE
8
BLACK
6
CONTINUOUS
10
0.2950464960629921
20
1.4824126377952755
11
0.2984984645669291
21
1.4785498818897638
0
LINE
8
BLACK
6
CONTINUOUS
10
0.2984984645669291
20
1.4785498818897638
11
0.2993655118110236
21
1.4773278346456693
0
LINE
8
BLACK
6
CONTINUOUS
10
0.2993655118110236
20
1.4773278346456693
11
0.3002906692913386
21
1.4762387007874016
0
LINE
8
BLACK
6
CONTINUOUS
10
0.3002906692913386
20
1.4762387007874016
11
0.303567874015748
21
1.4714051574803149
0
LINE
8
BLACK
6
CONTINUOUS
10
0.303567874015748
20
1.4714051574803149
11
0.3066738976377953
21
1.4670276771653543
0
LINE
8
BLACK
6
CONTINUOUS
10
0.3066738976377953
20
1.4670276771653543
11
0.3072822047244094
21
1.4659269291338581
0
LINE
8
BLACK
6
CONTINUOUS
10
0.3072822047244094
20
1.4659269291338581
11
0.3079456299212598
21
1.4649485433070866
0
LINE
8
BLACK
6
CONTINUOUS
10
0.3079456299212598
20
1.4649485433070866
11
0.3108335433070866
21
1.4595013385826772
0
LINE
8
BLACK
6
CONTINUOUS
10
0.3108335433070866
20
1.4595013385826772
11
0.313507874015748
21
1.4546625196850393
0
LINE
8
BLACK
6
CONTINUOUS
10
0.313507874015748
20
1.4546625196850393
11
0.3138970078740158
21
1.4537229527559055
0
LINE
8
BLACK
6
CONTINUOUS
10
0.3138970078740158
20
1.4537229527559055
11
0.3143348031496063
21
1.4528972834645668
0
LINE
8
BLACK
6
CONTINUOUS
10
0.3143348031496063
20
1.4528972834645668
11
0.3167526377952756
21
1.4468289763779527
0
LINE
8
BLACK
6
CONTINUOUS
10
0.3167526377952756
20
1.4468289763779527
11
0.3189144488188976
21
1.4416099606299213
0
LINE
8
BLACK
6
CONTINUOUS
10
0.3189144488188976
20
1.4416099606299213
11
0.3191294094488189
21
1.4408637401574802
0
LINE
8
BLACK
6
CONTINUOUS
10
0.3191294094488189
20
1.4408637401574802
11
0.3193839763779527
21
1.4402248818897638
0
LINE
8
BLACK
6
CONTINUOUS
10
0.3193839763779527
20
1.4402248818897638
11
0.3212576771653543
21
1.4334763385826772
0
LINE
8
BLACK
6
CONTINUOUS
10
0.3212576771653543
20
1.4334763385826772
11
0.3228255511811023
21
1.4280341338582676
0
LINE
8
BLACK
6
CONTINUOUS
10
0.3228255511811023
20
1.4280341338582676
11
0.3229151968503937
21
1.4275064566929134
0
LINE
8
BLACK
6
CONTINUOUS
10
0.3229151968503937
20
1.4275064566929134
11
0.3230331102362204
21
1.4270818110236221
0
LINE
8
BLACK
6
CONTINUOUS
10
0.3230331102362204
20
1.4270818110236221
11
0.3242899212598425
21
1.4194154724409449
0
LINE
8
BLACK
6
CONTINUOUS
10
0.3242899212598425
20
1.4194154724409449
11
0.3251920866141732
21
1.414105748031496
0
LINE
8
BLACK
6
CONTINUOUS
10
0.3251920866141732
20
1.414105748031496
11
0.3252085826771653
21
1.4138117322834645
0
LINE
8
BLACK
6
CONTINUOUS
10
0.3252085826771653
20
1.4138117322834645
11
0.3252399606299213
21
1.4136204330708662
0
LINE
8
BLACK
6
CONTINUOUS
10
0.3252399606299213
20
1.4136204330708662
11
0.3258165748031496
21
1.4029851181102362
0
LINE
8
BLACK
6
CONTINUOUS
10
0.3258165748031496
20
1.4029851181102362
11
0.3259842519685039
21
1.3999999999999999
0
LINE
8
BLACK
6
CONTINUOUS
10
0.3259842519685039
20
1.3999999999999999
11
0.3258166141732283
21
1.3970151181102362
0
LINE
8
BLACK
6
CONTINUOUS
10
0.3258166141732283
20
1.3970151181102362
11
0.3252399606299213
21
1.3863795275590551
0
LINE
8
BLACK
6
CONTINUOUS
10
0.3252399606299213
20
1.3863795275590551
11
0.3252085826771653
21
1.3861881889763779
0
LINE
8
BLACK
6
CONTINUOUS
10
0.3252085826771653
20
1.3861881889763779
11
0.3251920866141732
21
1.3858942519685038
0
LINE
8
BLACK
6
CONTINUOUS
10
0.3251920866141732
20
1.3858942519685038
11
0.3242900787401575
21
1.380585590551181
0
LINE
8
BLACK
6
CONTINUOUS
10
0.3242900787401575
20
1.380585590551181
11
0.3230331102362204
21
1.3729181496062992
0
LINE
8
BLACK
6
CONTINUOUS
10
0.3230331102362204
20
1.3729181496062992
11
0.322915157480315
21
1.3724934251968504
0
LINE
8
BLACK
6
CONTINUOUS
10
0.322915157480315
20
1.3724934251968504
11
0.3228255511811023
21
1.3719658661417322
0
LINE
8
BLACK
6
CONTINUOUS
10
0.3228255511811023
20
1.3719658661417322
11
0.3212579527559055
21
1.3665246456692912
0
LINE
8
BLACK
6
CONTINUOUS
10
0.3212579527559055
20
1.3665246456692912
11
0.3193839763779527
21
1.3597750787401575
0
LINE
8
BLACK
6
CONTINUOUS
10
0.3193839763779527
20
1.3597750787401575
11
0.3191293700787401
21
1.3591361023622046
0
LINE
8
BLACK
6
CONTINUOUS
10
0.3191293700787401
20
1.3591361023622046
11
0.3189144488188976
21
1.3583900393700787
0
LINE
8
BLACK
6
CONTINUOUS
10
0.3189144488188976
20
1.3583900393700787
11
0.316753031496063
21
1.3531720078740157
0
LINE
8
BLACK
6
CONTINUOUS
10
0.316753031496063
20
1.3531720078740157
11
0.3143348031496063
21
1.3471026771653543
0
LINE
8
BLACK
6
CONTINUOUS
10
0.3143348031496063
20
1.3471026771653543
11
0.313896968503937
21
1.3462768110236221
0
LINE
8
BLACK
6
CONTINUOUS
10
0.313896968503937
20
1.3462768110236221
11
0.313507874015748
21
1.3453374803149607
0
LINE
8
BLACK
6
CONTINUOUS
10
0.313507874015748
20
1.3453374803149607
11
0.3108340551181102
21
1.3404995669291337
0
LINE
8
BLACK
6
CONTINUOUS
10
0.3108340551181102
20
1.3404995669291337
11
0.3079456299212598
21
1.3350514173228347
0
LINE
8
BLACK
6
CONTINUOUS
10
0.3079456299212598
20
1.3350514173228347
11
0.3072820866141732
21
1.3340727952755904
0
LINE
8
BLACK
6
CONTINUOUS
10
0.3072820866141732
20
1.3340727952755904
11
0.3066738976377953
21
1.3329723228346457
0
LINE
8
BLACK
6
CONTINUOUS
10
0.3066738976377953
20
1.3329723228346457
11
0.3035684645669292
21
1.3285956299212598
0
LINE
8
BLACK
6
CONTINUOUS
10
0.3035684645669292
20
1.3285956299212598
11
0.3002906692913386
21
1.3237612598425197
0
LINE
8
BLACK
6
CONTINUOUS
10
0.3002906692913386
20
1.3237612598425197
11
0.2993653543307087
21
1.3226718897637795
0
LINE
8
BLACK
6
CONTINUOUS
10
0.2993653543307087
20
1.3226718897637795
11
0.2984984645669291
21
1.3214501181102363
0
LINE
8
BLACK
6
CONTINUOUS
10
0.2984984645669291
20
1.3214501181102363
11
0.2950471653543307
21
1.3175881102362204
0
LINE
8
BLACK
6
CONTINUOUS
10
0.2950471653543307
20
1.3175881102362204
11
0.2914596456692913
21
1.3133645275590551
0
LINE
8
BLACK
6
CONTINUOUS
10
0.2914596456692913
20
1.3133645275590551
11
0.2902420078740157
21
1.3122111023622047
0
LINE
8
BLACK
6
CONTINUOUS
10
0.2902420078740157
20
1.3122111023622047
11
0.2890843307086614
21
1.3109156692913386
0
LINE
8
BLACK
6
CONTINUOUS
10
0.2890843307086614
20
1.3109156692913386
11
0.2853746850393701
21
1.3076005118110237
0
LINE
8
BLACK
6
CONTINUOUS
10
0.2853746850393701
20
1.3076005118110237
11
0.2815566535433071
21
1.3039838976377953
0
LINE
8
BLACK
6
CONTINUOUS
10
0.2815566535433071
20
1.3039838976377953
11
0.2800233858267717
21
1.3028183464566929
0
LINE
8
BLACK
6
CONTINUOUS
10
0.2800233858267717
20
1.3028183464566929
11
0.2785498818897638
21
1.3015015354330708
0
LINE
8
BLACK
6
CONTINUOUS
10
0.2785498818897638
20
1.3015015354330708
11
0.2746662598425197
21
1.2987459448818897
0
LINE
8
BLACK
6
CONTINUOUS
10
0.2746662598425197
20
1.2987459448818897
11
0.2706976377952756
21
1.295729094488189
0
LINE
8
BLACK
6
CONTINUOUS
10
0.2706976377952756
20
1.295729094488189
11
0.2688341732283465
21
1.2946078740157481
0
LINE
8
BLACK
6
CONTINUOUS
10
0.2688341732283465
20
1.2946078740157481
11
0.2670276771653543
21
1.2933261023622047
0
LINE
8
BLACK
6
CONTINUOUS
10
0.2670276771653543
20
1.2933261023622047
11
0.2630513385826772
21
1.2911284645669292
0
LINE
8
BLACK
6
CONTINUOUS
10
0.2630513385826772
20
1.2911284645669292
11
0.2590093307086614
21
1.2886964566929133
0
LINE
8
BLACK
6
CONTINUOUS
10
0.2590093307086614
20
1.2886964566929133
11
0.2568093700787402
21
1.287678622047244
0
LINE
8
BLACK
6
CONTINUOUS
10
0.2568093700787402
20
1.287678622047244
11
0.2546625196850394
21
1.2864921259842519
0
LINE
8
BLACK
6
CONTINUOUS
10
0.2546625196850394
20
1.2864921259842519
11
0.2506716141732284
21
1.2848390157480314
0
LINE
8
BLACK
6
CONTINUOUS
10
0.2506716141732284
20
1.2848390157480314
11
0.2466292913385827
21
1.2829688582677166
0
LINE
8
BLACK
6
CONTINUOUS
10
0.2466292913385827
20
1.2829688582677166
11
0.2440958661417323
21
1.2821152362204724
0
LINE
8
BLACK
6
CONTINUOUS
10
0.2440958661417323
20
1.2821152362204724
11
0.2416099606299213
21
1.2810855511811023
0
LINE
8
BLACK
6
CONTINUOUS
10
0.2416099606299213
20
1.2810855511811023
11
0.2376768897637795
21
1.2799524409448819
0
LINE
8
BLACK
6
CONTINUOUS
10
0.2376768897637795
20
1.2799524409448819
11
0.233702874015748
21
1.2786134645669291
0
LINE
8
BLACK
6
CONTINUOUS
10
0.233702874015748
20
1.2786134645669291
11
0.2308472440944882
21
1.2779848818897637
0
LINE
8
BLACK
6
CONTINUOUS
10
0.2308472440944882
20
1.2779848818897637
11
0.2280341338582677
21
1.2771744488188976
0
LINE
8
BLACK
6
CONTINUOUS
10
0.2280341338582677
20
1.2771744488188976
11
0.2242256692913386
21
1.2765273622047244
0
LINE
8
BLACK
6
CONTINUOUS
10
0.2242256692913386
20
1.2765273622047244
11
0.2203811023622047
21
1.2756811023622048
0
LINE
8
BLACK
6
CONTINUOUS
10
0.2203811023622047
20
1.2756811023622048
11
0.2172244094488189
21
1.2753377952755904
0
LINE
8
BLACK
6
CONTINUOUS
10
0.2172244094488189
20
1.2753377952755904
11
0.2141057480314961
21
1.2748079133858268
0
LINE
8
BLACK
6
CONTINUOUS
10
0.2141057480314961
20
1.2748079133858268
11
0.2104796062992126
21
1.2746042519685039
0
LINE
8
BLACK
6
CONTINUOUS
10
0.2104796062992126
20
1.2746042519685039
11
0.2068202362204724
21
1.2742062992125984
0
LINE
8
BLACK
6
CONTINUOUS
10
0.2068202362204724
20
1.2742062992125984
11
0.2033930708661417
21
1.2742062992125984
0
LINE
8
BLACK
6
CONTINUOUS
10
0.2033930708661417
20
1.2742062992125984
11
0.2
21
1.274015748031496
0
LINE
8
BLACK
6
CONTINUOUS
10
0.2
20
1.274015748031496
11
0.1966069291338583
21
1.2742062992125984
0
LINE
8
BLACK
6
CONTINUOUS
10
0.1966069291338583
20
1.2742062992125984
11
0.1931797637795276
21
1.2742062992125984
0
LINE
8
BLACK
6
CONTINUOUS
10
0.1931797637795276
20
1.2742062992125984
11
0.1895203149606299
21
1.2746042519685039
0
LINE
8
BLACK
6
CONTINUOUS
10
0.1895203149606299
20
1.2746042519685039
11
0.1858942519685039
21
1.2748079133858268
0
LINE
8
BLACK
6
CONTINUOUS
10
0.1858942519685039
20
1.2748079133858268
11
0.1827755905511811
21
1.2753377559055117
0
LINE
8
BLACK
6
CONTINUOUS
10
0.1827755905511811
20
1.2753377559055117
11
0.1796188582677165
21
1.2756811023622048
0
LINE
8
BLACK
6
CONTINUOUS
10
0.1796188582677165
20
1.2756811023622048
11
0.175774094488189
21
1.2765273622047244
0
LINE
8
BLACK
6
CONTINUOUS
10
0.175774094488189
20
1.2765273622047244
11
0.1719658661417323
21
1.2771744488188976
0
LINE
8
BLACK
6
CONTINUOUS
10
0.1719658661417323
20
1.2771744488188976
11
0.1691528346456693
21
1.2779848425196849
0
LINE
8
BLACK
6
CONTINUOUS
10
0.1691528346456693
20
1.2779848425196849
11
0.1662970866141732
21
1.2786134645669291
0
LINE
8
BLACK
6
CONTINUOUS
10
0.1662970866141732
20
1.2786134645669291
11
0.1623227952755905
21
1.2799525196850394
0
LINE
8
BLACK
6
CONTINUOUS
10
0.1623227952755905
20
1.2799525196850394
11
0.1583900393700787
21
1.2810855511811023
0
LINE
8
BLACK
6
CONTINUOUS
10
0.1583900393700787
20
1.2810855511811023
11
0.1559042913385827
21
1.2821151574803149
0
LINE
8
BLACK
6
CONTINUOUS
10
0.1559042913385827
20
1.2821151574803149
11
0.1533706692913386
21
1.2829688582677166
0
LINE
8
BLACK
6
CONTINUOUS
10
0.1533706692913386
20
1.2829688582677166
11
0.1493279921259842
21
1.2848391732283464
0
LINE
8
BLACK
6
CONTINUOUS
10
0.1493279921259842
20
1.2848391732283464
11
0.1453374803149606
21
1.2864921259842519
0
LINE
8
BLACK
6
CONTINUOUS
10
0.1453374803149606
20
1.2864921259842519
11
0.1431907874015748
21
1.2876785433070865
0
LINE
8
BLACK
6
CONTINUOUS
10
0.1431907874015748
20
1.2876785433070865
11
0.1409906299212599
21
1.2886964566929133
0
LINE
8
BLACK
6
CONTINUOUS
10
0.1409906299212599
20
1.2886964566929133
11
0.1369481496062992
21
1.2911287401574802
0
LINE
8
BLACK
6
CONTINUOUS
10
0.1369481496062992
20
1.2911287401574802
11
0.1329723228346457
21
1.2933261023622047
0
LINE
8
BLACK
6
CONTINUOUS
10
0.1329723228346457
20
1.2933261023622047
11
0.1311659842519685
21
1.2946077165354331
0
LINE
8
BLACK
6
CONTINUOUS
10
0.1311659842519685
20
1.2946077165354331
11
0.1293023228346457
21
1.295729094488189
0
LINE
8
BLACK
6
CONTINUOUS
10
0.1293023228346457
20
1.295729094488189
11
0.1253331102362205
21
1.2987463779527559
0
LINE
8
BLACK
6
CONTINUOUS
10
0.1253331102362205
20
1.2987463779527559
11
0.1214501181102362
21
1.3015015354330708
0
LINE
8
BLACK
6
CONTINUOUS
10
0.1214501181102362
20
1.3015015354330708
11
0.1199768110236221
21
1.3028181496062992
0
LINE
8
BLACK
6
CONTINUOUS
10
0.1199768110236221
20
1.3028181496062992
11
0.1184433070866142
21
1.3039838976377953
0
LINE
8
BLACK
6
CONTINUOUS
10
0.1184433070866142
20
1.3039838976377953
11
0.1146246062992126
21
1.3076011417322835
0
LINE
8
BLACK
6
CONTINUOUS
10
0.1146246062992126
20
1.3076011417322835
11
0.1109156692913386
21
1.3109156692913386
0
LINE
8
BLACK
6
CONTINUOUS
10
0.1109156692913386
20
1.3109156692913386
11
0.1097581496062992
21
1.3122108661417322
0
LINE
8
BLACK
6
CONTINUOUS
10
0.1097581496062992
20
1.3122108661417322
11
0.1085403149606299
21
1.3133645275590551
0
LINE
8
BLACK
6
CONTINUOUS
10
0.1085403149606299
20
1.3133645275590551
11
0.1049520078740157
21
1.3175889763779527
0
LINE
8
BLACK
6
CONTINUOUS
10
0.1049520078740157
20
1.3175889763779527
11
0.1015015354330709
21
1.3214501181102363
0
LINE
8
BLACK
6
CONTINUOUS
10
0.1015015354330709
20
1.3214501181102363
11
0.1006348031496063
21
1.3226716141732284
0
LINE
8
BLACK
6
CONTINUOUS
10
0.1006348031496063
20
1.3226716141732284
11
0.0997092913385827
21
1.3237612598425197
0
LINE
8
BLACK
6
CONTINUOUS
10
0.0997092913385827
20
1.3237612598425197
11
0.0964305905511811
21
1.3285968897637794
0
LINE
8
BLACK
6
CONTINUOUS
10
0.0964305905511811
20
1.3285968897637794
11
0.0933261023622047
21
1.3329723228346457
0
LINE
8
BLACK
6
CONTINUOUS
10
0.0933261023622047
20
1.3329723228346457
11
0.092718031496063
21
1.3340724803149606
0
LINE
8
BLACK
6
CONTINUOUS
10
0.092718031496063
20
1.3340724803149606
11
0.0920543307086614
21
1.3350514173228347
0
LINE
8
BLACK
6
CONTINUOUS
10
0.0920543307086614
20
1.3350514173228347
11
0.0891649606299213
21
1.3405012992125984
0
LINE
8
BLACK
6
CONTINUOUS
10
0.0891649606299213
20
1.3405012992125984
11
0.086492125984252
21
1.3453374803149607
0
LINE
8
BLACK
6
CONTINUOUS
10
0.086492125984252
20
1.3453374803149607
11
0.0861031496062992
21
1.346276496062992
0
LINE
8
BLACK
6
CONTINUOUS
10
0.0861031496062992
20
1.346276496062992
11
0.085665157480315
21
1.3471026771653543
0
LINE
8
BLACK
6
CONTINUOUS
10
0.085665157480315
20
1.3471026771653543
11
0.0832458661417323
21
1.3531744881889765
0
LINE
8
BLACK
6
CONTINUOUS
10
0.0832458661417323
20
1.3531744881889765
11
0.0810855511811024
21
1.3583900393700787
0
LINE
8
BLACK
6
CONTINUOUS
10
0.0810855511811024
20
1.3583900393700787
11
0.0808707086614173
21
1.3591357480314961
0
LINE
8
BLACK
6
CONTINUOUS
10
0.0808707086614173
20
1.3591357480314961
11
0.0806159842519685
21
1.3597750787401575
0
LINE
8
BLACK
6
CONTINUOUS
10
0.0806159842519685
20
1.3597750787401575
11
0.078740905511811
21
1.3665284251968504
0
LINE
8
BLACK
6
CONTINUOUS
10
0.078740905511811
20
1.3665284251968504
11
0.0771744488188976
21
1.3719658661417322
0
LINE
8
BLACK
6
CONTINUOUS
10
0.0771744488188976
20
1.3719658661417322
11
0.077084842519685
21
1.3724930314960631
0
LINE
8
BLACK
6
CONTINUOUS
10
0.077084842519685
20
1.3724930314960631
11
0.0769668503937008
21
1.3729181496062992
0
LINE
8
BLACK
6
CONTINUOUS
10
0.0769668503937008
20
1.3729181496062992
11
0.0757087401574803
21
1.3805921653543307
0
LINE
8
BLACK
6
CONTINUOUS
10
0.0757087401574803
20
1.3805921653543307
11
0.0748079133858268
21
1.3858942519685038
0
LINE
8
BLACK
6
CONTINUOUS
10
0.0748079133858268
20
1.3858942519685038
11
0.0747914173228346
21
1.3861877952755906
0
LINE
8
BLACK
6
CONTINUOUS
10
0.0747914173228346
20
1.3861877952755906
11
0.07476
21
1.3863795275590551
0
LINE
8
BLACK
6
CONTINUOUS
10
0.07476
20
1.3863795275590551
11
0.0741822047244095
21
1.3970353937007873
0
LINE
8
BLACK
6
CONTINUOUS
10
0.0741822047244095
20
1.3970353937007873
11
0.0740157480314961
21
1.3999999999999999
0
LINE
8
BLACK
6
CONTINUOUS
10
0.0740157480314961
20
1.3999999999999999
11
0.0741822440944882
21
1.4029648031496063
0
LINE
8
BLACK
6
CONTINUOUS
10
0.0741822440944882
20
1.4029648031496063
11
0.07476
21
1.4136204330708662
0
LINE
8
BLACK
6
CONTINUOUS
10
0.07476
20
1.4136204330708662
11
0.0747914173228346
21
1.4138120866141732
0
LINE
8
BLACK
6
CONTINUOUS
10
0.0747914173228346
20
1.4138120866141732
11
0.0748079133858268
21
1.414105748031496
0
LINE
8
BLACK
6
CONTINUOUS
10
0.0748079133858268
20
1.414105748031496
11
0.075708937007874
21
1.4194088582677165
0
LINE
8
BLACK
6
CONTINUOUS
10
0.075708937007874
20
1.4194088582677165
11
0.0769668503937008
21
1.4270818110236221
0
LINE
8
BLACK
6
CONTINUOUS
10
0.0769668503937008
20
1.4270818110236221
11
0.077084842519685
21
1.427506811023622
0
LINE
8
BLACK
6
CONTINUOUS
10
0.077084842519685
20
1.427506811023622
11
0.0771744488188976
21
1.4280341338582676
0
LINE
8
BLACK
6
CONTINUOUS
10
0.0771744488188976
20
1.4280341338582676
11
0.0787412204724409
21
1.4334725984251968
0
LINE
8
BLACK
6
CONTINUOUS
10
0.0787412204724409
20
1.4334725984251968
11
0.0806159842519685
21
1.4402248818897638
0
LINE
8
BLACK
6
CONTINUOUS
10
0.0806159842519685
20
1.4402248818897638
11
0.0808706692913386
21
1.440864094488189
0
LINE
8
BLACK
6
CONTINUOUS
10
0.0808706692913386
20
1.440864094488189
11
0.0810855511811024
21
1.4416099606299213
0
LINE
8
BLACK
6
CONTINUOUS
10
0.0810855511811024
20
1.4416099606299213
11
0.0832462992125984
21
1.4468264566929134
0
LINE
8
BLACK
6
CONTINUOUS
10
0.0832462992125984
20
1.4468264566929134
11
0.085665157480315
21
1.4528972834645668
0
LINE
8
BLACK
6
CONTINUOUS
10
0.085665157480315
20
1.4528972834645668
11
0.0861030708661417
21
1.4537233070866142
0
LINE
8
BLACK
6
CONTINUOUS
10
0.0861030708661417
20
1.4537233070866142
11
0.086492125984252
21
1.4546625196850393
0
LINE
8
BLACK
6
CONTINUOUS
10
0.086492125984252
20
1.4546625196850393
11
0.0891654724409449
21
1.4594995669291337
0
LINE
8
BLACK
6
CONTINUOUS
10
0.0891654724409449
20
1.4594995669291337
11
0.0920543307086614
21
1.4649485433070866
0
LINE
8
BLACK
6
CONTINUOUS
10
0.0920543307086614
20
1.4649485433070866
11
0.0927179133858268
21
1.4659272440944882
0
LINE
8
BLACK
6
CONTINUOUS
10
0.0927179133858268
20
1.4659272440944882
11
0.0933261023622047
21
1.4670276771653543
0
LINE
8
BLACK
6
CONTINUOUS
10
0.0933261023622047
20
1.4670276771653543
11
0.0964311811023622
21
1.4714038976377952
0
LINE
8
BLACK
6
CONTINUOUS
10
0.0964311811023622
20
1.4714038976377952
11
0.0997092913385827
21
1.4762387007874016
0
LINE
8
BLACK
6
CONTINUOUS
10
0.0997092913385827
20
1.4762387007874016
11
0.1006346456692913
21
1.4773281102362203
0
LINE
8
BLACK
6
CONTINUOUS
10
0.1006346456692913
20
1.4773281102362203
11
0.1015015354330709
21
1.4785498818897638
0
LINE
8
BLACK
6
CONTINUOUS
10
0.1015015354330709
20
1.4785498818897638
11
0.1049526771653543
21
1.4824117322834645
0
LINE
8
BLACK
6
CONTINUOUS
10
0.1049526771653543
20
1.4824117322834645
11
0.1085403149606299
21
1.4866354330708662
0
LINE
8
BLACK
6
CONTINUOUS
10
0.1085403149606299
20
1.4866354330708662
11
0.1097579527559055
21
1.4877888188976378
0
LINE
8
BLACK
6
CONTINUOUS
10
0.1097579527559055
20
1.4877888188976378
11
0.1109156692913386
21
1.4890843307086614
0
LINE
8
BLACK
6
CONTINUOUS
10
0.1109156692913386
20
1.4890843307086614
11
0.1146253149606299
21
1.4923994881889764
0
LINE
8
BLACK
6
CONTINUOUS
10
0.1146253149606299
20
1.4923994881889764
11
0.1184433070866142
21
1.496016062992126
0
LINE
8
BLACK
6
CONTINUOUS
10
0.1184433070866142
20
1.496016062992126
11
0.1199764960629921
21
1.4971815748031496
0
LINE
8
BLACK
6
CONTINUOUS
10
0.1199764960629921
20
1.4971815748031496
11
0.1214501181102362
21
1.498498464566929
0
LINE
8
BLACK
6
CONTINUOUS
10
0.1214501181102362
20
1.498498464566929
11
0.1253338976377953
21
1.5012541338582677
0
LINE
8
BLACK
6
CONTINUOUS
10
0.1253338976377953
20
1.5012541338582677
11
0.1293023228346457
21
1.5042708661417323
0
LINE
8
BLACK
6
CONTINUOUS
10
0.1293023228346457
20
1.5042708661417323
11
0.1311656299212599
21
1.505391968503937
0
LINE
8
BLACK
6
CONTINUOUS
10
0.1311656299212599
20
1.505391968503937
11
0.1329723228346457
21
1.5066738976377951
0
LINE
8
BLACK
6
CONTINUOUS
10
0.1329723228346457
20
1.5066738976377951
11
0.136948937007874
21
1.5088716929133859
0
LINE
8
BLACK
6
CONTINUOUS
10
0.136948937007874
20
1.5088716929133859
11
0.1409906299212599
21
1.5113035039370077
0
LINE
8
BLACK
6
CONTINUOUS
10
0.1409906299212599
20
1.5113035039370077
11
0.1431903543307086
21
1.5123211811023622
0
LINE
8
BLACK
6
CONTINUOUS
10
0.1431903543307086
20
1.5123211811023622
11
0.1453374803149606
21
1.5135078740157479
0
LINE
8
BLACK
6
CONTINUOUS
10
0.1453374803149606
20
1.5135078740157479
11
0.1493288188976378
21
1.5151611417322834
0
LINE
8
BLACK
6
CONTINUOUS
10
0.1493288188976378
20
1.5151611417322834
11
0.1533706692913386
21
1.5170311023622047
0
LINE
8
BLACK
6
CONTINUOUS
10
0.1533706692913386
20
1.5170311023622047
11
0.155903779527559
21
1.5178846062992126
0
LINE
8
BLACK
6
CONTINUOUS
10
0.155903779527559
20
1.5178846062992126
11
0.1583900393700787
21
1.5189144488188977
0
LINE
8
BLACK
6
CONTINUOUS
10
0.1583900393700787
20
1.5189144488188977
11
0.1623235826771653
21
1.5200476771653544
0
LINE
8
BLACK
6
CONTINUOUS
10
0.1623235826771653
20
1.5200476771653544
11
0.1662970866141732
21
1.5213864960629921
0
LINE
8
BLACK
6
CONTINUOUS
10
0.1662970866141732
20
1.5213864960629921
11
0.1691522440944882
21
1.5220149606299211
0
LINE
8
BLACK
6
CONTINUOUS
10
0.1691522440944882
20
1.5220149606299211
11
0.1719658661417323
21
1.5228255511811024
0
LINE
8
BLACK
6
CONTINUOUS
10
0.1719658661417323
20
1.5228255511811024
11
0.1757748818897638
21
1.5234727165354331
0
LINE
8
BLACK
6
CONTINUOUS
10
0.1757748818897638
20
1.5234727165354331
11
0.1796188582677165
21
1.5243188582677165
0
LINE
8
BLACK
6
CONTINUOUS
10
0.1796188582677165
20
1.5243188582677165
11
0.1827751181102362
21
1.5246620866141731
0
LINE
8
BLACK
6
CONTINUOUS
10
0.1827751181102362
20
1.5246620866141731
11
0.1858942519685039
21
1.5251920866141733
0
LINE
8
BLACK
6
CONTINUOUS
10
0.1858942519685039
20
1.5251920866141733
11
0.1895205511811024
21
1.5253957086614174
0
LINE
8
BLACK
6
CONTINUOUS
10
0.1895205511811024
20
1.5253957086614174
11
0.1931797637795276
21
1.5257937007874016
0
LINE
8
BLACK
6
CONTINUOUS
10
0.1931797637795276
20
1.5257937007874016
11
0.1966069291338583
21
1.5257937007874016
0
LINE
8
BLACK
6
CONTINUOUS
10
0.1966069291338583
20
1.5257937007874016
11
0.2
21
1.5259842519685038
0
LINE
8
BLACK
6
CONTINUOUS
10
0.2
20
1.5259842519685038
11
0.2033930708661417
21
1.5257937007874016
0
LINE
8
BLACK
6
CONTINUOUS
10
1.4033930708661417
20
1.5257937007874016
11
1.4068202362204725
21
1.5257937007874016
0
LINE
8
BLACK
6
CONTINUOUS
10
1.4068202362204725
20
1.5257937007874016
11
1.4104794094488189
21
1.5253957086614174
0
LINE
8
BLACK
6
CONTINUOUS
10
1.4104794094488189
20
1.5253957086614174
11
1.414105748031496
21
1.5251920866141733
0
LINE
8
BLACK
6
CONTINUOUS
10
1.414105748031496
20
1.5251920866141733
11
1.4172249212598425
21
1.5246620866141731
0
LINE
8
BLACK
6
CONTINUOUS
10
1.4172249212598425
20
1.5246620866141731
11
1.4203811023622046
21
1.5243188582677165
0
LINE
8
BLACK
6
CONTINUOUS
10
1.4203811023622046
20
1.5243188582677165
11
1.4242248818897638
21
1.5234727559055117
0
LINE
8
BLACK
6
CONTINUOUS
10
1.4242248818897638
20
1.5234727559055117
11
1.4280341338582676
21
1.5228255511811024
0
LINE
8
BLACK
6
CONTINUOUS
10
1.4280341338582676
20
1.5228255511811024
11
1.4308478346456692
21
1.5220149212598424
0
LINE
8
BLACK
6
CONTINUOUS
10
1.4308478346456692
20
1.5220149212598424
11
1.433702874015748
21
1.5213864960629921
0
LINE
8
BLACK
6
CONTINUOUS
10
1.433702874015748
20
1.5213864960629921
11
1.4376761023622047
21
1.5200477559055117
0
LINE
8
BLACK
6
CONTINUOUS
10
1.4376761023622047
20
1.5200477559055117
11
1.4416099606299213
21
1.5189144488188977
0
LINE
8
BLACK
6
CONTINUOUS
10
1.4416099606299213
20
1.5189144488188977
11
1.4440963779527558
21
1.5178845275590551
0
LINE
8
BLACK
6
CONTINUOUS
10
1.4440963779527558
20
1.5178845275590551
11
1.4466292913385825
21
1.5170311023622047
0
LINE
8
BLACK
6
CONTINUOUS
10
1.4466292913385825
20
1.5170311023622047
11
1.4506707874015747
21
1.5151612992125985
0
LINE
8
BLACK
6
CONTINUOUS
10
1.4506707874015747
20
1.5151612992125985
11
1.4546625196850393
21
1.5135078740157479
0
LINE
8
BLACK
6
CONTINUOUS
10
1.4546625196850393
20
1.5135078740157479
11
1.4568098031496062
21
1.512321062992126
0
LINE
8
BLACK
6
CONTINUOUS
10
1.4568098031496062
20
1.512321062992126
11
1.4590093307086613
21
1.5113035039370077
0
LINE
8
BLACK
6
CONTINUOUS
10
1.4590093307086613
20
1.5113035039370077
11
1.4630505511811023
21
1.5088719685039369
0
LINE
8
BLACK
6
CONTINUOUS
10
1.4630505511811023
20
1.5088719685039369
11
1.4670276771653543
21
1.5066738976377951
0
LINE
8
BLACK
6
CONTINUOUS
10
1.4670276771653543
20
1.5066738976377951
11
1.4688345669291338
21
1.505391811023622
0
LINE
8
BLACK
6
CONTINUOUS
10
1.4688345669291338
20
1.505391811023622
11
1.4706976377952756
21
1.5042708661417323
0
LINE
8
BLACK
6
CONTINUOUS
10
1.4706976377952756
20
1.5042708661417323
11
1.4746654724409449
21
1.5012545669291337
0
LINE
8
BLACK
6
CONTINUOUS
10
1.4746654724409449
20
1.5012545669291337
11
1.4785498818897638
21
1.498498464566929
0
LINE
8
BLACK
6
CONTINUOUS
10
1.4785498818897638
20
1.498498464566929
11
1.4800237007874015
21
1.4971813779527559
0
LINE
8
BLACK
6
CONTINUOUS
10
1.4800237007874015
20
1.4971813779527559
11
1.4815566535433071
21
1.496016062992126
0
LINE
8
BLACK
6
CONTINUOUS
10
1.4815566535433071
20
1.496016062992126
11
1.485373937007874
21
1.4924000787401575
0
LINE
8
BLACK
6
CONTINUOUS
10
1.485373937007874
20
1.4924000787401575
11
1.4890843307086614
21
1.4890843307086614
0
LINE
8
BLACK
6
CONTINUOUS
10
1.4890843307086614
20
1.4890843307086614
11
1.4902422440944882
21
1.4877885826771653
0
LINE
8
BLACK
6
CONTINUOUS
10
1.4902422440944882
20
1.4877885826771653
11
1.4914596456692912
21
1.4866354330708662
0
LINE
8
BLACK
6
CONTINUOUS
10
1.4914596456692912
20
1.4866354330708662
11
1.4950464960629921
21
1.4824126377952755
0
LINE
8
BLACK
6
CONTINUOUS
10
1.4950464960629921
20
1.4824126377952755
11
1.498498464566929
21
1.4785498818897638
0
LINE
8
BLACK
6
CONTINUOUS
10
1.498498464566929
20
1.4785498818897638
11
1.4993655118110236
21
1.4773278346456693
0
LINE
8
BLACK
6
CONTINUOUS
10
1.4993655118110236
20
1.4773278346456693
11
1.5002906692913385
21
1.4762387007874016
0
LINE
8
BLACK
6
CONTINUOUS
10
1.5002906692913385
20
1.4762387007874016
11
1.5035678740157481
21
1.4714051574803149
0
LINE
8
BLACK
6
CONTINUOUS
10
1.5035678740157481
20
1.4714051574803149
11
1.5066738976377951
21
1.4670276771653543
0
LINE
8
BLACK
6
CONTINUOUS
10
1.5066738976377951
20
1.4670276771653543
11
1.5072822047244094
21
1.4659269291338581
0
LINE
8
BLACK
6
CONTINUOUS
10
1.5072822047244094
20
1.4659269291338581
11
1.5079456299212599
21
1.4649485433070866
0
LINE
8
BLACK
6
CONTINUOUS
10
1.5079456299212599
20
1.4649485433070866
11
1.5108335433070865
21
1.4595013385826772
0
LINE
8
BLACK
6
CONTINUOUS
10
1.5108335433070865
20
1.4595013385826772
11
1.5135078740157479
21
1.4546625196850393
0
LINE
8
BLACK
6
CONTINUOUS
10
1.5135078740157479
20
1.4546625196850393
11
1.5138970078740157
21
1.4537229527559055
0
LINE
8
BLACK
6
CONTINUOUS
10
1.5138970078740157
20
1.4537229527559055
11
1.5143348031496062
21
1.4528972834645668
0
LINE
8
BLACK
6
CONTINUOUS
10
1.5143348031496062
20
1.4528972834645668
11
1.5167526377952756
21
1.4468289763779527
0
LINE
8
BLACK
6
CONTINUOUS
10
1.5167526377952756
20
1.4468289763779527
11
1.5189144488188977
21
1.4416099606299213
0
LINE
8
BLACK
6
CONTINUOUS
10
1.5189144488188977
20
1.4416099606299213
11
1.5191294094488188
21
1.4408637401574802
0
LINE
8
BLACK
6
CONTINUOUS
10
1.5191294094488188
20
1.4408637401574802
11
1.5193839763779526
21
1.4402248818897638
0
LINE
8
BLACK
6
CONTINUOUS
10
1.5193839763779526
20
1.4402248818897638
11
1.5212576771653543
21
1.4334763385826772
0
LINE
8
BLACK
6
CONTINUOUS
10
1.5212576771653543
20
1.4334763385826772
11
1.5228255511811024
21
1.4280341338582676
0
LINE
8
BLACK
6
CONTINUOUS
10
1.5228255511811024
20
1.4280341338582676
11
1.5229151968503936
21
1.4275064566929134
0
LINE
8
BLACK
6
CONTINUOUS
10
1.5229151968503936
20
1.4275064566929134
11
1.5230331102362205
21
1.4270818110236221
0
LINE
8
BLACK
6
CONTINUOUS
10
1.5230331102362205
20
1.4270818110236221
11
1.5242899212598424
21
1.4194154724409449
0
LINE
8
BLACK
6
CONTINUOUS
10
1.5242899212598424
20
1.4194154724409449
11
1.5251920866141733
21
1.414105748031496
0
LINE
8
BLACK
6
CONTINUOUS
10
1.5251920866141733
20
1.414105748031496
11
1.5252085826771653
21
1.4138117322834645
0
LINE
8
BLACK
6
CONTINUOUS
10
1.5252085826771653
20
1.4138117322834645
11
1.5252399606299212
21
1.4136204330708662
0
LINE
8
BLACK
6
CONTINUOUS
10
1.5252399606299212
20
1.4136204330708662
11
1.5258165748031496
21
1.4029851181102362
0
LINE
8
BLACK
6
CONTINUOUS
10
1.5258165748031496
20
1.4029851181102362
11
1.5259842519685038
21
1.3999999999999999
0
LINE
8
BLACK
6
CONTINUOUS
10
1.5259842519685038
20
1.3999999999999999
11
1.5258166141732283
21
1.3970151181102362
0
LINE
8
BLACK
6
CONTINUOUS
10
1.5258166141732283
20
1.3970151181102362
11
1.5252399606299212
21
1.3863795275590551
0
LINE
8
BLACK
6
CONTINUOUS
10
1.5252399606299212
20
1.3863795275590551
11
1.5252085826771653
21
1.3861881889763779
0
LINE
8
BLACK
6
CONTINUOUS
10
1.5252085826771653
20
1.3861881889763779
11
1.5251920866141733
21
1.3858942519685038
0
LINE
8
BLACK
6
CONTINUOUS
10
1.5251920866141733
20
1.3858942519685038
11
1.5242900787401574
21
1.380585590551181
0
LINE
8
BLACK
6
CONTINUOUS
10
1.5242900787401574
20
1.380585590551181
11
1.5230331102362205
21
1.3729181496062992
0
LINE
8
BLACK
6
CONTINUOUS
10
1.5230331102362205
20
1.3729181496062992
11
1.522915157480315
21
1.3724934251968504
0
LINE
8
BLACK
6
CONTINUOUS
10
1.522915157480315
20
1.3724934251968504
11
1.5228255511811024
21
1.3719658661417322
0
LINE
8
BLACK
6
CONTINUOUS
10
1.5228255511811024
20
1.3719658661417322
11
1.5212579527559056
21
1.3665246456692912
0
LINE
8
BLACK
6
CONTINUOUS
10
1.5212579527559056
20
1.3665246456692912
11
1.5193839763779526
21
1.3597750787401575
0
LINE
8
BLACK
6
CONTINUOUS
10
1.5193839763779526
20
1.3597750787401575
11
1.51912937007874
21
1.3591361023622046
0
LINE
8
BLACK
6
CONTINUOUS
10
1.51912937007874
20
1.3591361023622046
11
1.5189144488188977
21
1.3583900393700787
0
LINE
8
BLACK
6
CONTINUOUS
10
1.5189144488188977
20
1.3583900393700787
11
1.5167530314960629
21
1.3531720078740157
0
LINE
8
BLACK
6
CONTINUOUS
10
1.5167530314960629
20
1.3531720078740157
11
1.5143348031496062
21
1.3471026771653543
0
LINE
8
BLACK
6
CONTINUOUS
10
1.5143348031496062
20
1.3471026771653543
11
1.513896968503937
21
1.3462768110236221
0
LINE
8
BLACK
6
CONTINUOUS
10
1.513896968503937
20
1.3462768110236221
11
1.5135078740157479
21
1.3453374803149607
0
LINE
8
BLACK
6
CONTINUOUS
10
1.5135078740157479
20
1.3453374803149607
11
1.5108340551181103
21
1.3404995669291337
0
LINE
8
BLACK
6
CONTINUOUS
10
1.5108340551181103
20
1.3404995669291337
11
1.5079456299212599
21
1.3350514173228347
0
LINE
8
BLACK
6
CONTINUOUS
10
1.5079456299212599
20
1.3350514173228347
11
1.5072820866141732
21
1.3340727952755904
0
LINE
8
BLACK
6
CONTINUOUS
10
1.5072820866141732
20
1.3340727952755904
11
1.5066738976377951
21
1.3329723228346457
0
LINE
8
BLACK
6
CONTINUOUS
10
1.5066738976377951
20
1.3329723228346457
11
1.5035684645669292
21
1.3285956299212598
0
LINE
8
BLACK
6
CONTINUOUS
10
1.5035684645669292
20
1.3285956299212598
11
1.5002906692913385
21
1.3237612598425197
0
LINE
8
BLACK
6
CONTINUOUS
10
1.5002906692913385
20
1.3237612598425197
11
1.4993653543307086
21
1.3226718897637795
0
LINE
8
BLACK
6
CONTINUOUS
10
1.4993653543307086
20
1.3226718897637795
11
1.498498464566929
21
1.3214501181102363
0
LINE
8
BLACK
6
CONTINUOUS
10
1.498498464566929
20
1.3214501181102363
11
1.4950471653543307
21
1.3175881102362204
0
LINE
8
BLACK
6
CONTINUOUS
10
1.4950471653543307
20
1.3175881102362204
11
1.4914596456692912
21
1.3133645275590551
0
LINE
8
BLACK
6
CONTINUOUS
10
1.4914596456692912
20
1.3133645275590551
11
1.4902420078740157
21
1.3122111023622047
0
LINE
8
BLACK
6
CONTINUOUS
10
1.4902420078740157
20
1.3122111023622047
11
1.4890843307086614
21
1.3109156692913386
0
LINE
8
BLACK
6
CONTINUOUS
10
1.4890843307086614
20
1.3109156692913386
11
1.4853746850393701
21
1.3076005118110237
0
LINE
8
BLACK
6
CONTINUOUS
10
1.4853746850393701
20
1.3076005118110237
11
1.4815566535433071
21
1.3039838976377953
0
LINE
8
BLACK
6
CONTINUOUS
10
1.4815566535433071
20
1.3039838976377953
11
1.4800233858267715
21
1.3028183464566929
0
LINE
8
BLACK
6
CONTINUOUS
10
1.4800233858267715
20
1.3028183464566929
11
1.4785498818897638
21
1.3015015354330708
0
LINE
8
BLACK
6
CONTINUOUS
10
1.4785498818897638
20
1.3015015354330708
11
1.4746662598425198
21
1.2987459448818897
0
LINE
8
BLACK
6
CONTINUOUS
10
1.4746662598425198
20
1.2987459448818897
11
1.4706976377952756
21
1.295729094488189
0
LINE
8
BLACK
6
CONTINUOUS
10
1.4706976377952756
20
1.295729094488189
11
1.4688341732283465
21
1.2946078740157481
0
LINE
8
BLACK
6
CONTINUOUS
10
1.4688341732283465
20
1.2946078740157481
11
1.4670276771653543
21
1.2933261023622047
0
LINE
8
BLACK
6
CONTINUOUS
10
1.4670276771653543
20
1.2933261023622047
11
1.4630513385826771
21
1.2911284645669292
0
LINE
8
BLACK
6
CONTINUOUS
10
1.4630513385826771
20
1.2911284645669292
11
1.4590093307086613
21
1.2886964566929133
0
LINE
8
BLACK
6
CONTINUOUS
10
1.4590093307086613
20
1.2886964566929133
11
1.4568093700787401
21
1.287678622047244
0
LINE
8
BLACK
6
CONTINUOUS
10
1.4568093700787401
20
1.287678622047244
11
1.4546625196850393
21
1.2864921259842519
0
LINE
8
BLACK
6
CONTINUOUS
10
1.4546625196850393
20
1.2864921259842519
11
1.4506716141732283
21
1.2848390157480314
0
LINE
8
BLACK
6
CONTINUOUS
10
1.4506716141732283
20
1.2848390157480314
11
1.4466292913385825
21
1.2829688582677166
0
LINE
8
BLACK
6
CONTINUOUS
10
1.4466292913385825
20
1.2829688582677166
11
1.4440958661417322
21
1.2821152362204724
0
LINE
8
BLACK
6
CONTINUOUS
10
1.4440958661417322
20
1.2821152362204724
11
1.4416099606299213
21
1.2810855511811023
0
LINE
8
BLACK
6
CONTINUOUS
10
1.4416099606299213
20
1.2810855511811023
11
1.4376768897637795
21
1.2799524409448819
0
LINE
8
BLACK
6
CONTINUOUS
10
1.4376768897637795
20
1.2799524409448819
11
1.433702874015748
21
1.2786134645669291
0
LINE
8
BLACK
6
CONTINUOUS
10
1.433702874015748
20
1.2786134645669291
11
1.4308472440944882
21
1.2779848818897637
0
LINE
8
BLACK
6
CONTINUOUS
10
1.4308472440944882
20
1.2779848818897637
11
1.4280341338582676
21
1.2771744488188976
0
LINE
8
BLACK
6
CONTINUOUS
10
1.4280341338582676
20
1.2771744488188976
11
1.4242256692913386
21
1.2765273622047244
0
LINE
8
BLACK
6
CONTINUOUS
10
1.4242256692913386
20
1.2765273622047244
11
1.4203811023622046
21
1.2756811023622048
0
LINE
8
BLACK
6
CONTINUOUS
10
1.4203811023622046
20
1.2756811023622048
11
1.4172244094488189
21
1.2753377952755904
0
LINE
8
BLACK
6
CONTINUOUS
10
1.4172244094488189
20
1.2753377952755904
11
1.414105748031496
21
1.2748079133858268
0
LINE
8
BLACK
6
CONTINUOUS
10
1.414105748031496
20
1.2748079133858268
11
1.4104796062992127
21
1.2746042519685039
0
LINE
8
BLACK
6
CONTINUOUS
10
1.4104796062992127
20
1.2746042519685039
11
1.4068202362204725
21
1.2742062992125984
0
LINE
8
BLACK
6
CONTINUOUS
10
1.4068202362204725
20
1.2742062992125984
11
1.4033930708661417
21
1.2742062992125984
0
LINE
8
BLACK
6
CONTINUOUS
10
1.4033930708661417
20
1.2742062992125984
11
1.3999999999999999
21
1.274015748031496
0
LINE
8
BLACK
6
CONTINUOUS
10
1.3999999999999999
20
1.274015748031496
11
1.3966069291338583
21
1.2742062992125984
0
LINE
8
BLACK
6
CONTINUOUS
10
1.3966069291338583
20
1.2742062992125984
11
1.3931797637795276
21
1.2742062992125984
0
LINE
8
BLACK
6
CONTINUOUS
10
1.3931797637795276
20
1.2742062992125984
11
1.3895203149606299
21
1.2746042519685039
0
LINE
8
BLACK
6
CONTINUOUS
10
1.3895203149606299
20
1.2746042519685039
11
1.3858942519685038
21
1.2748079133858268
0
LINE
8
BLACK
6
CONTINUOUS
10
1.3858942519685038
20
1.2748079133858268
11
1.3827755905511812
21
1.2753377559055117
0
LINE
8
BLACK
6
CONTINUOUS
10
1.3827755905511812
20
1.2753377559055117
11
1.3796188582677165
21
1.2756811023622048
0
LINE
8
BLACK
6
CONTINUOUS
10
1.3796188582677165
20
1.2756811023622048
11
1.3757740944881889
21
1.2765273622047244
0
LINE
8
BLACK
6
CONTINUOUS
10
1.3757740944881889
20
1.2765273622047244
11
1.3719658661417322
21
1.2771744488188976
0
LINE
8
BLACK
6
CONTINUOUS
10
1.3719658661417322
20
1.2771744488188976
11
1.3691528346456692
21
1.2779848425196849
0
LINE
8
BLACK
6
CONTINUOUS
10
1.3691528346456692
20
1.2779848425196849
11
1.3662970866141733
21
1.2786134645669291
0
LINE
8
BLACK
6
CONTINUOUS
10
1.3662970866141733
20
1.2786134645669291
11
1.3623227952755905
21
1.2799525196850394
0
LINE
8
BLACK
6
CONTINUOUS
10
1.3623227952755905
20
1.2799525196850394
11
1.3583900393700787
21
1.2810855511811023
0
LINE
8
BLACK
6
CONTINUOUS
10
1.3583900393700787
20
1.2810855511811023
11
1.3559042913385826
21
1.2821151574803149
0
LINE
8
BLACK
6
CONTINUOUS
10
1.3559042913385826
20
1.2821151574803149
11
1.3533706692913385
21
1.2829688582677166
0
LINE
8
BLACK
6
CONTINUOUS
10
1.3533706692913385
20
1.2829688582677166
11
1.3493279921259842
21
1.2848391732283464
0
LINE
8
BLACK
6
CONTINUOUS
10
1.3493279921259842
20
1.2848391732283464
11
1.3453374803149607
21
1.2864921259842519
0
LINE
8
BLACK
6
CONTINUOUS
10
1.3453374803149607
20
1.2864921259842519
11
1.3431907874015747
21
1.2876785433070865
0
LINE
8
BLACK
6
CONTINUOUS
10
1.3431907874015747
20
1.2876785433070865
11
1.3409906299212597
21
1.2886964566929133
0
LINE
8
BLACK
6
CONTINUOUS
10
1.3409906299212597
20
1.2886964566929133
11
1.3369481496062992
21
1.2911287401574802
0
LINE
8
BLACK
6
CONTINUOUS
10
1.3369481496062992
20
1.2911287401574802
11
1.3329723228346457
21
1.2933261023622047
0
LINE
8
BLACK
6
CONTINUOUS
10
1.3329723228346457
20
1.2933261023622047
11
1.3311659842519685
21
1.2946077165354331
0
LINE
8
BLACK
6
CONTINUOUS
10
1.3311659842519685
20
1.2946077165354331
11
1.3293023228346457
21
1.295729094488189
0
LINE
8
BLACK
6
CONTINUOUS
10
1.3293023228346457
20
1.295729094488189
11
1.3253331102362205
21
1.2987463779527559
0
LINE
8
BLACK
6
CONTINUOUS
10
1.3253331102362205
20
1.2987463779527559
11
1.3214501181102363
21
1.3015015354330708
0
LINE
8
BLACK
6
CONTINUOUS
10
1.3214501181102363
20
1.3015015354330708
11
1.3199768110236221
21
1.3028181496062992
0
LINE
8
BLACK
6
CONTINUOUS
10
1.3199768110236221
20
1.3028181496062992
11
1.3184433070866142
21
1.3039838976377953
0
LINE
8
BLACK
6
CONTINUOUS
10
1.3184433070866142
20
1.3039838976377953
11
1.3146246062992126
21
1.3076011417322835
0
LINE
8
BLACK
6
CONTINUOUS
10
1.3146246062992126
20
1.3076011417322835
11
1.3109156692913386
21
1.3109156692913386
0
LINE
8
BLACK
6
CONTINUOUS
10
1.3109156692913386
20
1.3109156692913386
11
1.3097581496062991
21
1.3122108661417322
0
LINE
8
BLACK
6
CONTINUOUS
10
1.3097581496062991
20
1.3122108661417322
11
1.3085403149606298
21
1.3133645275590551
0
LINE
8
BLACK
6
CONTINUOUS
10
1.3085403149606298
20
1.3133645275590551
11
1.3049520078740158
21
1.3175889763779527
0
LINE
8
BLACK
6
CONTINUOUS
10
1.3049520078740158
20
1.3175889763779527
11
1.3015015354330708
21
1.3214501181102363
0
LINE
8
BLACK
6
CONTINUOUS
10
1.3015015354330708
20
1.3214501181102363
11
1.3006348031496062
21
1.3226716141732284
0
LINE
8
BLACK
6
CONTINUOUS
10
1.3006348031496062
20
1.3226716141732284
11
1.2997092913385826
21
1.3237612598425197
0
LINE
8
BLACK
6
CONTINUOUS
10
1.2997092913385826
20
1.3237612598425197
11
1.296430590551181
21
1.3285968897637794
0
LINE
8
BLACK
6
CONTINUOUS
10
1.296430590551181
20
1.3285968897637794
11
1.2933261023622047
21
1.3329723228346457
0
LINE
8
BLACK
6
CONTINUOUS
10
1.2933261023622047
20
1.3329723228346457
11
1.2927180314960629
21
1.3340724803149606
0
LINE
8
BLACK
6
CONTINUOUS
10
1.2927180314960629
20
1.3340724803149606
11
1.2920543307086614
21
1.3350514173228347
0
LINE
8
BLACK
6
CONTINUOUS
10
1.2920543307086614
20
1.3350514173228347
11
1.2891649606299211
21
1.3405012992125984
0
LINE
8
BLACK
6
CONTINUOUS
10
1.2891649606299211
20
1.3405012992125984
11
1.2864921259842519
21
1.3453374803149607
0
LINE
8
BLACK
6
CONTINUOUS
10
1.2864921259842519
20
1.3453374803149607
11
1.2861031496062991
21
1.346276496062992
0
LINE
8
BLACK
6
CONTINUOUS
10
1.2861031496062991
20
1.346276496062992
11
1.2856651574803148
21
1.3471026771653543
0
LINE
8
BLACK
6
CONTINUOUS
10
1.2856651574803148
20
1.3471026771653543
11
1.2832458661417323
21
1.3531744881889765
0
LINE
8
BLACK
6
CONTINUOUS
10
1.2832458661417323
20
1.3531744881889765
11
1.2810855511811023
21
1.3583900393700787
0
LINE
8
BLACK
6
CONTINUOUS
10
1.2810855511811023
20
1.3583900393700787
11
1.2808707086614173
21
1.3591357480314961
0
LINE
8
BLACK
6
CONTINUOUS
10
1.2808707086614173
20
1.3591357480314961
11
1.2806159842519684
21
1.3597750787401575
0
LINE
8
BLACK
6
CONTINUOUS
10
1.2806159842519684
20
1.3597750787401575
11
1.2787409055118111
21
1.3665284251968504
0
LINE
8
BLACK
6
CONTINUOUS
10
1.2787409055118111
20
1.3665284251968504
11
1.2771744488188976
21
1.3719658661417322
0
LINE
8
BLACK
6
CONTINUOUS
10
1.2771744488188976
20
1.3719658661417322
11
1.277084842519685
21
1.3724930314960631
0
LINE
8
BLACK
6
CONTINUOUS
10
1.277084842519685
20
1.3724930314960631
11
1.2769668503937008
21
1.3729181496062992
0
LINE
8
BLACK
6
CONTINUOUS
10
1.2769668503937008
20
1.3729181496062992
11
1.2757087401574803
21
1.3805921653543307
0
LINE
8
BLACK
6
CONTINUOUS
10
1.2757087401574803
20
1.3805921653543307
11
1.2748079133858268
21
1.3858942519685038
0
LINE
8
BLACK
6
CONTINUOUS
10
1.2748079133858268
20
1.3858942519685038
11
1.2747914173228345
21
1.3861877952755906
0
LINE
8
BLACK
6
CONTINUOUS
10
1.2747914173228345
20
1.3861877952755906
11
1.2747599999999999
21
1.3863795275590551
0
LINE
8
BLACK
6
CONTINUOUS
10
1.2747599999999999
20
1.3863795275590551
11
1.2741822047244094
21
1.3970353937007873
0
LINE
8
BLACK
6
CONTINUOUS
10
1.2741822047244094
20
1.3970353937007873
11
1.274015748031496
21
1.3999999999999999
0
LINE
8
BLACK
6
CONTINUOUS
10
1.274015748031496
20
1.3999999999999999
11
1.2741822440944881
21
1.4029648031496063
0
LINE
8
BLACK
6
CONTINUOUS
10
1.2741822440944881
20
1.4029648031496063
11
1.2747599999999999
21
1.4136204330708662
0
LINE
8
BLACK
6
CONTINUOUS
10
1.2747599999999999
20
1.4136204330708662
11
1.2747914173228345
21
1.4138120866141732
0
LINE
8
BLACK
6
CONTINUOUS
10
1.2747914173228345
20
1.4138120866141732
11
1.2748079133858268
21
1.414105748031496
0
LINE
8
BLACK
6
CONTINUOUS
10
1.2748079133858268
20
1.414105748031496
11
1.275708937007874
21
1.4194088582677165
0
LINE
8
BLACK
6
CONTINUOUS
10
1.275708937007874
20
1.4194088582677165
11
1.2769668503937008
21
1.4270818110236221
0
LINE
8
BLACK
6
CONTINUOUS
10
1.2769668503937008
20
1.4270818110236221
11
1.277084842519685
21
1.427506811023622
0
LINE
8
BLACK
6
CONTINUOUS
10
1.277084842519685
20
1.427506811023622
11
1.2771744488188976
21
1.4280341338582676
0
LINE
8
BLACK
6
CONTINUOUS
10
1.2771744488188976
20
1.4280341338582676
11
1.2787412204724409
21
1.4334725984251968
0
LINE
8
BLACK
6
CONTINUOUS
10
1.2787412204724409
20
1.4334725984251968
11
1.2806159842519684
21
1.4402248818897638
0
LINE
8
BLACK
6
CONTINUOUS
10
1.2806159842519684
20
1.4402248818897638
11
1.2808706692913385
21
1.440864094488189
0
LINE
8
BLACK
6
CONTINUOUS
10
1.2808706692913385
20
1.440864094488189
11
1.2810855511811023
21
1.4416099606299213
0
LINE
8
BLACK
6
CONTINUOUS
10
1.2810855511811023
20
1.4416099606299213
11
1.2832462992125984
21
1.4468264566929134
0
LINE
8
BLACK
6
CONTINUOUS
10
1.2832462992125984
20
1.4468264566929134
11
1.2856651574803148
21
1.4528972834645668
0
LINE
8
BLACK
6
CONTINUOUS
10
1.2856651574803148
20
1.4528972834645668
11
1.2861030708661416
21
1.4537233070866142
0
LINE
8
BLACK
6
CONTINUOUS
10
1.2861030708661416
20
1.4537233070866142
11
1.2864921259842519
21
1.4546625196850393
0
LINE
8
BLACK
6
CONTINUOUS
10
1.2864921259842519
20
1.4546625196850393
11
1.2891654724409449
21
1.4594995669291337
0
LINE
8
BLACK
6
CONTINUOUS
10
1.2891654724409449
20
1.4594995669291337
11
1.2920543307086614
21
1.4649485433070866
0
LINE
8
BLACK
6
CONTINUOUS
10
1.2920543307086614
20
1.4649485433070866
11
1.2927179133858266
21
1.4659272440944882
0
LINE
8
BLACK
6
CONTINUOUS
10
1.2927179133858266
20
1.4659272440944882
11
1.2933261023622047
21
1.4670276771653543
0
LINE
8
BLACK
6
CONTINUOUS
10
1.2933261023622047
20
1.4670276771653543
11
1.2964311811023621
21
1.4714038976377952
0
LINE
8
BLACK
6
CONTINUOUS
10
1.2964311811023621
20
1.4714038976377952
11
1.2997092913385826
21
1.4762387007874016
0
LINE
8
BLACK
6
CONTINUOUS
10
1.2997092913385826
20
1.4762387007874016
11
1.3006346456692912
21
1.4773281102362203
0
LINE
8
BLACK
6
CONTINUOUS
10
1.3006346456692912
20
1.4773281102362203
11
1.3015015354330708
21
1.4785498818897638
0
LINE
8
BLACK
6
CONTINUOUS
10
1.3015015354330708
20
1.4785498818897638
11
1.3049526771653543
21
1.4824117322834645
0
LINE
8
BLACK
6
CONTINUOUS
10
1.3049526771653543
20
1.4824117322834645
11
1.3085403149606298
21
1.4866354330708662
0
LINE
8
BLACK
6
CONTINUOUS
10
1.3085403149606298
20
1.4866354330708662
11
1.3097579527559056
21
1.4877888188976378
0
LINE
8
BLACK
6
CONTINUOUS
10
1.3097579527559056
20
1.4877888188976378
11
1.3109156692913386
21
1.4890843307086614
0
LINE
8
BLACK
6
CONTINUOUS
10
1.3109156692913386
20
1.4890843307086614
11
1.31462531496063
21
1.4923994881889764
0
LINE
8
BLACK
6
CONTINUOUS
10
1.31462531496063
20
1.4923994881889764
11
1.3184433070866142
21
1.496016062992126
0
LINE
8
BLACK
6
CONTINUOUS
10
1.3184433070866142
20
1.496016062992126
11
1.3199764960629921
21
1.4971815748031496
0
LINE
8
BLACK
6
CONTINUOUS
10
1.3199764960629921
20
1.4971815748031496
11
1.3214501181102363
21
1.498498464566929
0
LINE
8
BLACK
6
CONTINUOUS
10
1.3214501181102363
20
1.498498464566929
11
1.3253338976377953
21
1.5012541338582677
0
LINE
8
BLACK
6
CONTINUOUS
10
1.3253338976377953
20
1.5012541338582677
11
1.3293023228346457
21
1.5042708661417323
0
LINE
8
BLACK
6
CONTINUOUS
10
1.3293023228346457
20
1.5042708661417323
11
1.3311656299212598
21
1.505391968503937
0
LINE
8
BLACK
6
CONTINUOUS
10
1.3311656299212598
20
1.505391968503937
11
1.3329723228346457
21
1.5066738976377951
0
LINE
8
BLACK
6
CONTINUOUS
10
1.3329723228346457
20
1.5066738976377951
11
1.336948937007874
21
1.5088716929133859
0
LINE
8
BLACK
6
CONTINUOUS
10
1.336948937007874
20
1.5088716929133859
11
1.3409906299212597
21
1.5113035039370077
0
LINE
8
BLACK
6
CONTINUOUS
10
1.3409906299212597
20
1.5113035039370077
11
1.3431903543307087
21
1.5123211811023622
0
LINE
8
BLACK
6
CONTINUOUS
10
1.3431903543307087
20
1.5123211811023622
11
1.3453374803149607
21
1.5135078740157479
0
LINE
8
BLACK
6
CONTINUOUS
10
1.3453374803149607
20
1.5135078740157479
11
1.3493288188976378
21
1.5151611417322834
0
LINE
8
BLACK
6
CONTINUOUS
10
1.3493288188976378
20
1.5151611417322834
11
1.3533706692913385
21
1.5170311023622047
0
LINE
8
BLACK
6
CONTINUOUS
10
1.3533706692913385
20
1.5170311023622047
11
1.355903779527559
21
1.5178846062992126
0
LINE
8
BLACK
6
CONTINUOUS
10
1.355903779527559
20
1.5178846062992126
11
1.3583900393700787
21
1.5189144488188977
0
LINE
8
BLACK
6
CONTINUOUS
10
1.3583900393700787
20
1.5189144488188977
11
1.3623235826771654
21
1.5200476771653544
0
LINE
8
BLACK
6
CONTINUOUS
10
1.3623235826771654
20
1.5200476771653544
11
1.3662970866141733
21
1.5213864960629921
0
LINE
8
BLACK
6
CONTINUOUS
10
1.3662970866141733
20
1.5213864960629921
11
1.3691522440944881
21
1.5220149606299211
0
LINE
8
BLACK
6
CONTINUOUS
10
1.3691522440944881
20
1.5220149606299211
11
1.3719658661417322
21
1.5228255511811024
0
LINE
8
BLACK
6
CONTINUOUS
10
1.3719658661417322
20
1.5228255511811024
11
1.3757748818897637
21
1.5234727165354331
0
LINE
8
BLACK
6
CONTINUOUS
10
1.3757748818897637
20
1.5234727165354331
11
1.3796188582677165
21
1.5243188582677165
0
LINE
8
BLACK
6
CONTINUOUS
10
1.3796188582677165
20
1.5243188582677165
11
1.3827751181102361
21
1.5246620866141731
0
LINE
8
BLACK
6
CONTINUOUS
10
1.3827751181102361
20
1.5246620866141731
11
1.3858942519685038
21
1.5251920866141733
0
LINE
8
BLACK
6
CONTINUOUS
10
1.3858942519685038
20
1.5251920866141733
11
1.3895205511811024
21
1.5253957086614174
0
LINE
8
BLACK
6
CONTINUOUS
10
1.3895205511811024
20
1.5253957086614174
11
1.3931797637795276
21
1.5257937007874016
0
LINE
8
BLACK
6
CONTINUOUS
10
1.3931797637795276
20
1.5257937007874016
11
1.3966069291338583
21
1.5257937007874016
0
LINE
8
BLACK
6
CONTINUOUS
10
1.3966069291338583
20
1.5257937007874016
11
1.3999999999999999
21
1.5259842519685038
0
LINE
8
BLACK
6
CONTINUOUS
10
1.3999999999999999
20
1.5259842519685038
11
1.4033930708661417
21
1.5257937007874016
  0
ENDSEC
  0
EOF
