  0
SECTION
  2
HEADER
  9
$ANGBASE
  50
0.0
  9
$ANGDIR
  70
1
  9
$MEASUREMENT
  70
0
  0
ENDSEC
  0
SECTION
  2
TABLES
  0
TABLE
  2
LTYPE
  70
4
  0
LTYPE
  5
40F
  2
CONTINUOUS
  70
0
  3
Solid line
  72
65
  73
0
  40
0.0
  0
LTYPE
  5
410
  2
DASHDOT
 70
0
  3
Dash Dot ____ _ ____ _
 72
65
 73
4
 40
2.0
 49
1.25
 49
-0.25
 49
0.25
 49
-0.25
  0
LTYPE
  5
411
  2
DASHED
 70
0
  3
Dashed __ __ __ __ __
 72
65
 73
2
 40
0.75
 49
0.5
 49
-0.25
  0
LTYPE
  5
43B
  2
DOTTED
 70
0
  3
Dotted .  .  .  .
 72
65
 73
2
 40
0.2
 49
0.0
 49
-0.2
  0
ENDTAB
  0
TABLE
  2
STYLE
  70
4
  0
STYLE
  2
KICAD
  70
0
  40
0
  41
1
  42
1
  50
0
  71
0
  3
isocp.shx
  0
STYLE
  2
KICADB
  70
0
  40
0
  41
1
  42
1
  50
0
  71
0
  3
isocp.shx
  0
STYLE
  2
KICADI
  70
0
  40
0
  41
1
  42
1
  50
15
  71
0
  3
isocp.shx
  0
STYLE
  2
KICADBI
  70
0
  40
0
  41
1
  42
1
  50
15
  71
0
  3
isocp.shx
  0
ENDTAB
  0
TABLE
  2
LAYER
  70
1
  0
LAYER
  2
BLACK
  70
0
  62
7
  6
CONTINUOUS
  0
ENDTAB
  0
ENDSEC
  0
SECTION
  2
ENTITIES
0
LINE
8
BLACK
6
CONTINUOUS
10
0.2205096456692913
20
0.3163158661417323
11
0.2338744094488189
21
0.3131483858267716
0
LINE
8
BLACK
6
CONTINUOUS
10
0.2338744094488189
20
0.3131483858267716
11
0.246781062992126
21
0.3084507086614173
0
LINE
8
BLACK
6
CONTINUOUS
10
0.246781062992126
20
0.3084507086614173
11
0.2590551181102362
21
0.3022864566929134
0
LINE
8
BLACK
6
CONTINUOUS
10
0.2590551181102362
20
0.3022864566929134
11
0.2705305511811024
21
0.2947389763779528
0
LINE
8
BLACK
6
CONTINUOUS
10
0.2705305511811024
20
0.2947389763779528
11
0.2810521653543307
21
0.2859102755905512
0
LINE
8
BLACK
6
CONTINUOUS
10
0.2810521653543307
20
0.2859102755905512
11
0.2904776771653543
21
0.2759198031496063
0
LINE
8
BLACK
6
CONTINUOUS
10
0.2904776771653543
20
0.2759198031496063
11
0.2986796456692913
21
0.2649026377952756
0
LINE
8
BLACK
6
CONTINUOUS
10
0.2986796456692913
20
0.2649026377952756
11
0.3055471653543307
21
0.2530077952755905
0
LINE
8
BLACK
6
CONTINUOUS
10
0.3055471653543307
20
0.2530077952755905
11
0.3109873228346456
21
0.240396062992126
0
LINE
8
BLACK
6
CONTINUOUS
10
0.3109873228346456
20
0.240396062992126
11
0.3149265748031496
21
0.2272381102362205
0
LINE
8
BLACK
6
CONTINUOUS
10
0.3149265748031496
20
0.2272381102362205
11
0.3173116141732283
21
0.2137117716535433
0
LINE
8
BLACK
6
CONTINUOUS
10
0.3173116141732283
20
0.2137117716535433
11
0.3181102362204724
21
0.2
0
LINE
8
BLACK
6
CONTINUOUS
10
0.3181102362204724
20
0.2
11
0.3173116141732283
21
0.1862882283464567
0
LINE
8
BLACK
6
CONTINUOUS
10
0.3173116141732283
20
0.1862882283464567
11
0.3149265748031496
21
0.1727618897637795
0
LINE
8
BLACK
6
CONTINUOUS
10
0.3149265748031496
20
0.1727618897637795
11
0.3109873228346456
21
0.159603937007874
0
LINE
8
BLACK
6
CONTINUOUS
10
0.3109873228346456
20
0.159603937007874
11
0.3055471653543307
21
0.1469922047244094
0
LINE
8
BLACK
6
CONTINUOUS
10
0.3055471653543307
20
0.1469922047244094
11
0.2986796456692913
21
0.1350973622047244
0
LINE
8
BLACK
6
CONTINUOUS
10
0.2986796456692913
20
0.1350973622047244
11
0.2904776771653543
21
0.1240801968503937
0
LINE
8
BLACK
6
CONTINUOUS
10
0.2904776771653543
20
0.1240801968503937
11
0.2810521653543307
21
0.1140897244094488
0
LINE
8
BLACK
6
CONTINUOUS
10
0.2810521653543307
20
0.1140897244094488
11
0.2705305511811024
21
0.1052610236220472
0
LINE
8
BLACK
6
CONTINUOUS
10
0.2705305511811024
20
0.1052610236220472
11
0.2590551181102362
21
0.0977135433070866
0
LINE
8
BLACK
6
CONTINUOUS
10
0.2590551181102362
20
0.0977135433070866
11
0.246781062992126
21
0.0915492913385827
0
LINE
8
BLACK
6
CONTINUOUS
10
0.246781062992126
20
0.0915492913385827
11
0.2338744094488189
21
0.0868516141732283
0
LINE
8
BLACK
6
CONTINUOUS
10
0.2338744094488189
20
0.0868516141732283
11
0.2205096456692913
21
0.0836841338582677
0
LINE
8
BLACK
6
CONTINUOUS
10
0.2205096456692913
20
0.0836841338582677
11
0.2068674803149606
21
0.0820896062992126
0
LINE
8
BLACK
6
CONTINUOUS
10
0.2068674803149606
20
0.0820896062992126
11
0.1931325196850394
21
0.0820896062992126
0
LINE
8
BLACK
6
CONTINUOUS
10
0.1931325196850394
20
0.0820896062992126
11
0.1794903543307086
21
0.0836841338582677
0
LINE
8
BLACK
6
CONTINUOUS
10
0.1794903543307086
20
0.0836841338582677
11
0.1661255905511811
21
0.0868516141732283
0
LINE
8
BLACK
6
CONTINUOUS
10
0.1661255905511811
20
0.0868516141732283
11
0.153218937007874
21
0.0915492913385827
0
LINE
8
BLACK
6
CONTINUOUS
10
0.153218937007874
20
0.0915492913385827
11
0.1409448818897638
21
0.0977135433070866
0
LINE
8
BLACK
6
CONTINUOUS
10
0.1409448818897638
20
0.0977135433070866
11
0.1294694488188976
21
0.1052610236220472
0
LINE
8
BLACK
6
CONTINUOUS
10
0.1294694488188976
20
0.1052610236220472
11
0.1189478346456693
21
0.1140897244094488
0
LINE
8
BLACK
6
CONTINUOUS
10
0.1189478346456693
20
0.1140897244094488
11
0.1095223228346457
21
0.1240801968503937
0
LINE
8
BLACK
6
CONTINUOUS
10
0.1095223228346457
20
0.1240801968503937
11
0.1013203543307087
21
0.1350973622047244
0
LINE
8
BLACK
6
CONTINUOUS
10
0.1013203543307087
20
0.1350973622047244
11
0.0944528346456693
21
0.1469922047244094
0
LINE
8
BLACK
6
CONTINUOUS
10
0.0944528346456693
20
0.1469922047244094
11
0.0890126771653543
21
0.159603937007874
0
LINE
8
BLACK
6
CONTINUOUS
10
0.0890126771653543
20
0.159603937007874
11
0.0850734251968504
21
0.1727618897637795
0
LINE
8
BLACK
6
CONTINUOUS
10
0.0850734251968504
20
0.1727618897637795
11
0.0826883858267717
21
0.1862882283464567
0
LINE
8
BLACK
6
CONTINUOUS
10
0.0826883858267717
20
0.1862882283464567
11
0.0818897637795276
21
0.2
0
LINE
8
BLACK
6
CONTINUOUS
10
0.0818897637795276
20
0.2
11
0.0826883858267717
21
0.2137117716535433
0
LINE
8
BLACK
6
CONTINUOUS
10
0.0826883858267717
20
0.2137117716535433
11
0.0850734251968504
21
0.2272381102362205
0
LINE
8
BLACK
6
CONTINUOUS
10
0.0850734251968504
20
0.2272381102362205
11
0.0890126771653543
21
0.240396062992126
0
LINE
8
BLACK
6
CONTINUOUS
10
0.0890126771653543
20
0.240396062992126
11
0.0944528346456693
21
0.2530077952755905
0
LINE
8
BLACK
6
CONTINUOUS
10
0.0944528346456693
20
0.2530077952755905
11
0.1013203543307087
21
0.2649026377952756
0
LINE
8
BLACK
6
CONTINUOUS
10
0.1013203543307087
20
0.2649026377952756
11
0.1095223228346457
21
0.2759198031496063
0
LINE
8
BLACK
6
CONTINUOUS
10
0.1095223228346457
20
0.2759198031496063
11
0.1189478346456693
21
0.2859102755905512
0
LINE
8
BLACK
6
CONTINUOUS
10
0.1189478346456693
20
0.2859102755905512
11
0.1294694488188976
21
0.2947389763779528
0
LINE
8
BLACK
6
CONTINUOUS
10
0.1294694488188976
20
0.2947389763779528
11
0.1409448818897638
21
0.3022864566929134
0
LINE
8
BLACK
6
CONTINUOUS
10
0.1409448818897638
20
0.3022864566929134
11
0.153218937007874
21
0.3084507086614173
0
LINE
8
BLACK
6
CONTINUOUS
10
0.153218937007874
20
0.3084507086614173
11
0.1661255905511811
21
0.3131483858267716
0
LINE
8
BLACK
6
CONTINUOUS
10
0.1661255905511811
20
0.3131483858267716
11
0.1794903543307086
21
0.3163158661417323
0
LINE
8
BLACK
6
CONTINUOUS
10
0.1794903543307086
20
0.3163158661417323
11
0.1931325196850394
21
0.3179103937007874
0
LINE
8
BLACK
6
CONTINUOUS
10
0.1931325196850394
20
0.3179103937007874
11
0.2068674803149606
21
0.3179103937007874
0
LINE
8
BLACK
6
CONTINUOUS
10
0.2068674803149606
20
0.3179103937007874
11
0.2205096456692913
21
0.3163158661417323
0
LINE
8
BLACK
6
CONTINUOUS
10
1.4205096456692914
20
0.3163158661417323
11
1.4338744094488189
21
0.3131483858267716
0
LINE
8
BLACK
6
CONTINUOUS
10
1.4338744094488189
20
0.3131483858267716
11
1.4467810629921261
21
0.3084507086614173
0
LINE
8
BLACK
6
CONTINUOUS
10
1.4467810629921261
20
0.3084507086614173
11
1.4590551181102362
21
0.3022864566929134
0
LINE
8
BLACK
6
CONTINUOUS
10
1.4590551181102362
20
0.3022864566929134
11
1.4705305511811024
21
0.2947389763779528
0
LINE
8
BLACK
6
CONTINUOUS
10
1.4705305511811024
20
0.2947389763779528
11
1.4810521653543307
21
0.2859102755905512
0
LINE
8
BLACK
6
CONTINUOUS
10
1.4810521653543307
20
0.2859102755905512
11
1.4904776771653543
21
0.2759198031496063
0
LINE
8
BLACK
6
CONTINUOUS
10
1.4904776771653543
20
0.2759198031496063
11
1.4986796456692912
21
0.2649026377952756
0
LINE
8
BLACK
6
CONTINUOUS
10
1.4986796456692912
20
0.2649026377952756
11
1.5055471653543306
21
0.2530077952755905
0
LINE
8
BLACK
6
CONTINUOUS
10
1.5055471653543306
20
0.2530077952755905
11
1.5109873228346455
21
0.240396062992126
0
LINE
8
BLACK
6
CONTINUOUS
10
1.5109873228346455
20
0.240396062992126
11
1.5149265748031495
21
0.2272381102362205
0
LINE
8
BLACK
6
CONTINUOUS
10
1.5149265748031495
20
0.2272381102362205
11
1.5173116141732284
21
0.2137117716535433
0
LINE
8
BLACK
6
CONTINUOUS
10
1.5173116141732284
20
0.2137117716535433
11
1.5181102362204724
21
0.2
0
LINE
8
BLACK
6
CONTINUOUS
10
1.5181102362204724
20
0.2
11
1.5173116141732284
21
0.1862882283464567
0
LINE
8
BLACK
6
CONTINUOUS
10
1.5173116141732284
20
0.1862882283464567
11
1.5149265748031495
21
0.1727618897637795
0
LINE
8
BLACK
6
CONTINUOUS
10
1.5149265748031495
20
0.1727618897637795
11
1.5109873228346455
21
0.159603937007874
0
LINE
8
BLACK
6
CONTINUOUS
10
1.5109873228346455
20
0.159603937007874
11
1.5055471653543306
21
0.1469922047244094
0
LINE
8
BLACK
6
CONTINUOUS
10
1.5055471653543306
20
0.1469922047244094
11
1.4986796456692912
21
0.1350973622047244
0
LINE
8
BLACK
6
CONTINUOUS
10
1.4986796456692912
20
0.1350973622047244
11
1.4904776771653543
21
0.1240801968503937
0
LINE
8
BLACK
6
CONTINUOUS
10
1.4904776771653543
20
0.1240801968503937
11
1.4810521653543307
21
0.1140897244094488
0
LINE
8
BLACK
6
CONTINUOUS
10
1.4810521653543307
20
0.1140897244094488
11
1.4705305511811024
21
0.1052610236220472
0
LINE
8
BLACK
6
CONTINUOUS
10
1.4705305511811024
20
0.1052610236220472
11
1.4590551181102362
21
0.0977135433070866
0
LINE
8
BLACK
6
CONTINUOUS
10
1.4590551181102362
20
0.0977135433070866
11
1.4467810629921261
21
0.0915492913385827
0
LINE
8
BLACK
6
CONTINUOUS
10
1.4467810629921261
20
0.0915492913385827
11
1.4338744094488189
21
0.0868516141732283
0
LINE
8
BLACK
6
CONTINUOUS
10
1.4338744094488189
20
0.0868516141732283
11
1.4205096456692914
21
0.0836841338582677
0
LINE
8
BLACK
6
CONTINUOUS
10
1.4205096456692914
20
0.0836841338582677
11
1.4068674803149606
21
0.0820896062992126
0
LINE
8
BLACK
6
CONTINUOUS
10
1.4068674803149606
20
0.0820896062992126
11
1.3931325196850393
21
0.0820896062992126
0
LINE
8
BLACK
6
CONTINUOUS
10
1.3931325196850393
20
0.0820896062992126
11
1.3794903543307087
21
0.0836841338582677
0
LINE
8
BLACK
6
CONTINUOUS
10
1.3794903543307087
20
0.0836841338582677
11
1.3661255905511811
21
0.0868516141732283
0
LINE
8
BLACK
6
CONTINUOUS
10
1.3661255905511811
20
0.0868516141732283
11
1.353218937007874
21
0.0915492913385827
0
LINE
8
BLACK
6
CONTINUOUS
10
1.353218937007874
20
0.0915492913385827
11
1.3409448818897638
21
0.0977135433070866
0
LINE
8
BLACK
6
CONTINUOUS
10
1.3409448818897638
20
0.0977135433070866
11
1.3294694488188976
21
0.1052610236220472
0
LINE
8
BLACK
6
CONTINUOUS
10
1.3294694488188976
20
0.1052610236220472
11
1.3189478346456693
21
0.1140897244094488
0
LINE
8
BLACK
6
CONTINUOUS
10
1.3189478346456693
20
0.1140897244094488
11
1.3095223228346455
21
0.1240801968503937
0
LINE
8
BLACK
6
CONTINUOUS
10
1.3095223228346455
20
0.1240801968503937
11
1.3013203543307086
21
0.1350973622047244
0
LINE
8
BLACK
6
CONTINUOUS
10
1.3013203543307086
20
0.1350973622047244
11
1.2944528346456692
21
0.1469922047244094
0
LINE
8
BLACK
6
CONTINUOUS
10
1.2944528346456692
20
0.1469922047244094
11
1.2890126771653543
21
0.159603937007874
0
LINE
8
BLACK
6
CONTINUOUS
10
1.2890126771653543
20
0.159603937007874
11
1.2850734251968503
21
0.1727618897637795
0
LINE
8
BLACK
6
CONTINUOUS
10
1.2850734251968503
20
0.1727618897637795
11
1.2826883858267717
21
0.1862882283464567
0
LINE
8
BLACK
6
CONTINUOUS
10
1.2826883858267717
20
0.1862882283464567
11
1.2818897637795275
21
0.2
0
LINE
8
BLACK
6
CONTINUOUS
10
1.2818897637795275
20
0.2
11
1.2826883858267717
21
0.2137117716535433
0
LINE
8
BLACK
6
CONTINUOUS
10
1.2826883858267717
20
0.2137117716535433
11
1.2850734251968503
21
0.2272381102362205
0
LINE
8
BLACK
6
CONTINUOUS
10
1.2850734251968503
20
0.2272381102362205
11
1.2890126771653543
21
0.240396062992126
0
LINE
8
BLACK
6
CONTINUOUS
10
1.2890126771653543
20
0.240396062992126
11
1.2944528346456692
21
0.2530077952755905
0
LINE
8
BLACK
6
CONTINUOUS
10
1.2944528346456692
20
0.2530077952755905
11
1.3013203543307086
21
0.2649026377952756
0
LINE
8
BLACK
6
CONTINUOUS
10
1.3013203543307086
20
0.2649026377952756
11
1.3095223228346455
21
0.2759198031496063
0
LINE
8
BLACK
6
CONTINUOUS
10
1.3095223228346455
20
0.2759198031496063
11
1.3189478346456693
21
0.2859102755905512
0
LINE
8
BLACK
6
CONTINUOUS
10
1.3189478346456693
20
0.2859102755905512
11
1.3294694488188976
21
0.2947389763779528
0
LINE
8
BLACK
6
CONTINUOUS
10
1.3294694488188976
20
0.2947389763779528
11
1.3409448818897638
21
0.3022864566929134
0
LINE
8
BLACK
6
CONTINUOUS
10
1.3409448818897638
20
0.3022864566929134
11
1.353218937007874
21
0.3084507086614173
0
LINE
8
BLACK
6
CONTINUOUS
10
1.353218937007874
20
0.3084507086614173
11
1.3661255905511811
21
0.3131483858267716
0
LINE
8
BLACK
6
CONTINUOUS
10
1.3661255905511811
20
0.3131483858267716
11
1.3794903543307087
21
0.3163158661417323
0
LINE
8
BLACK
6
CONTINUOUS
10
1.3794903543307087
20
0.3163158661417323
11
1.3931325196850393
21
0.3179103937007874
0
LINE
8
BLACK
6
CONTINUOUS
10
1.3931325196850393
20
0.3179103937007874
11
1.4068674803149606
21
0.3179103937007874
0
LINE
8
BLACK
6
CONTINUOUS
10
1.4068674803149606
20
0.3179103937007874
11
1.4205096456692914
21
0.3163158661417323
0
LINE
8
BLACK
6
CONTINUOUS
10
0.5448358661417323
20
0.2148833070866142
11
0.5491983858267716
21
0.2126605118110236
0
LINE
8
BLACK
6
CONTINUOUS
10
0.5491983858267716
20
0.2126605118110236
11
0.5526605118110236
21
0.2091983858267716
0
LINE
8
BLACK
6
CONTINUOUS
10
0.5526605118110236
20
0.2091983858267716
11
0.5548833070866142
21
0.2048358661417323
0
LINE
8
BLACK
6
CONTINUOUS
10
0.5548833070866142
20
0.2048358661417323
11
0.5556492519685039
21
0.2
0
LINE
8
BLACK
6
CONTINUOUS
10
0.5556492519685039
20
0.2
11
0.5548833070866142
21
0.1951641338582677
0
LINE
8
BLACK
6
CONTINUOUS
10
0.5548833070866142
20
0.1951641338582677
11
0.5526605118110236
21
0.1908016141732283
0
LINE
8
BLACK
6
CONTINUOUS
10
0.5526605118110236
20
0.1908016141732283
11
0.5491983858267716
21
0.1873394881889764
0
LINE
8
BLACK
6
CONTINUOUS
10
0.5491983858267716
20
0.1873394881889764
11
0.5448358661417323
21
0.1851166929133858
0
LINE
8
BLACK
6
CONTINUOUS
10
0.5448358661417323
20
0.1851166929133858
11
0.54
21
0.1843507480314961
0
LINE
8
BLACK
6
CONTINUOUS
10
0.54
20
0.1843507480314961
11
0.5351641338582677
21
0.1851166929133858
0
LINE
8
BLACK
6
CONTINUOUS
10
0.5351641338582677
20
0.1851166929133858
11
0.5308016141732284
21
0.1873394881889764
0
LINE
8
BLACK
6
CONTINUOUS
10
0.5308016141732284
20
0.1873394881889764
11
0.5273394881889764
21
0.1908016141732283
0
LINE
8
BLACK
6
CONTINUOUS
10
0.5273394881889764
20
0.1908016141732283
11
0.5251166929133858
21
0.1951641338582677
0
LINE
8
BLACK
6
CONTINUOUS
10
0.5251166929133858
20
0.1951641338582677
11
0.5243507480314961
21
0.2
0
LINE
8
BLACK
6
CONTINUOUS
10
0.5243507480314961
20
0.2
11
0.5251166929133858
21
0.2048358661417323
0
LINE
8
BLACK
6
CONTINUOUS
10
0.5251166929133858
20
0.2048358661417323
11
0.5273394881889764
21
0.2091983858267716
0
LINE
8
BLACK
6
CONTINUOUS
10
0.5273394881889764
20
0.2091983858267716
11
0.5308016141732284
21
0.2126605118110236
0
LINE
8
BLACK
6
CONTINUOUS
10
0.5308016141732284
20
0.2126605118110236
11
0.5351641338582677
21
0.2148833070866142
0
LINE
8
BLACK
6
CONTINUOUS
10
0.5351641338582677
20
0.2148833070866142
11
0.54
21
0.2156492519685039
0
LINE
8
BLACK
6
CONTINUOUS
10
0.54
20
0.2156492519685039
11
0.5448358661417323
21
0.2148833070866142
0
LINE
8
BLACK
6
CONTINUOUS
10
0.5395030708661417
20
0.1995030708661417
11
0.54
21
0.1992972440944882
0
LINE
8
BLACK
6
CONTINUOUS
10
0.54
20
0.1992972440944882
11
0.5404969291338583
21
0.1995030708661417
0
LINE
8
BLACK
6
CONTINUOUS
10
0.5404969291338583
20
0.1995030708661417
11
0.5407027559055118
21
0.2
0
LINE
8
BLACK
6
CONTINUOUS
10
0.5407027559055118
20
0.2
11
0.5404969291338583
21
0.2004969291338583
0
LINE
8
BLACK
6
CONTINUOUS
10
0.5404969291338583
20
0.2004969291338583
11
0.54
21
0.2007027559055118
0
LINE
8
BLACK
6
CONTINUOUS
10
0.54
20
0.2007027559055118
11
0.5395030708661417
21
0.2004969291338583
0
LINE
8
BLACK
6
CONTINUOUS
10
0.5395030708661417
20
0.2004969291338583
11
0.5392972440944882
21
0.2
0
LINE
8
BLACK
6
CONTINUOUS
10
0.5392972440944882
20
0.2
11
0.5395030708661417
21
0.1995030708661417
0
LINE
8
BLACK
6
CONTINUOUS
10
0.5448358661417323
20
0.4148833070866141
11
0.5491983858267716
21
0.4126605118110236
0
LINE
8
BLACK
6
CONTINUOUS
10
0.5491983858267716
20
0.4126605118110236
11
0.5526605118110236
21
0.4091983858267716
0
LINE
8
BLACK
6
CONTINUOUS
10
0.5526605118110236
20
0.4091983858267716
11
0.5548833070866142
21
0.4048358661417323
0
LINE
8
BLACK
6
CONTINUOUS
10
0.5548833070866142
20
0.4048358661417323
11
0.5556492519685039
21
0.4
0
LINE
8
BLACK
6
CONTINUOUS
10
0.5556492519685039
20
0.4
11
0.5548833070866142
21
0.3951641338582677
0
LINE
8
BLACK
6
CONTINUOUS
10
0.5548833070866142
20
0.3951641338582677
11
0.5526605118110236
21
0.3908016141732283
0
LINE
8
BLACK
6
CONTINUOUS
10
0.5526605118110236
20
0.3908016141732283
11
0.5491983858267716
21
0.3873394881889763
0
LINE
8
BLACK
6
CONTINUOUS
10
0.5491983858267716
20
0.3873394881889763
11
0.5448358661417323
21
0.3851166929133858
0
LINE
8
BLACK
6
CONTINUOUS
10
0.5448358661417323
20
0.3851166929133858
11
0.54
21
0.384350748031496
0
LINE
8
BLACK
6
CONTINUOUS
10
0.54
20
0.384350748031496
11
0.5351641338582677
21
0.3851166929133858
0
LINE
8
BLACK
6
CONTINUOUS
10
0.5351641338582677
20
0.3851166929133858
11
0.5308016141732284
21
0.3873394881889763
0
LINE
8
BLACK
6
CONTINUOUS
10
0.5308016141732284
20
0.3873394881889763
11
0.5273394881889764
21
0.3908016141732283
0
LINE
8
BLACK
6
CONTINUOUS
10
0.5273394881889764
20
0.3908016141732283
11
0.5251166929133858
21
0.3951641338582677
0
LINE
8
BLACK
6
CONTINUOUS
10
0.5251166929133858
20
0.3951641338582677
11
0.5243507480314961
21
0.4
0
LINE
8
BLACK
6
CONTINUOUS
10
0.5243507480314961
20
0.4
11
0.5251166929133858
21
0.4048358661417323
0
LINE
8
BLACK
6
CONTINUOUS
10
0.5251166929133858
20
0.4048358661417323
11
0.5273394881889764
21
0.4091983858267716
0
LINE
8
BLACK
6
CONTINUOUS
10
0.5273394881889764
20
0.4091983858267716
11
0.5308016141732284
21
0.4126605118110236
0
LINE
8
BLACK
6
CONTINUOUS
10
0.5308016141732284
20
0.4126605118110236
11
0.5351641338582677
21
0.4148833070866141
0
LINE
8
BLACK
6
CONTINUOUS
10
0.5351641338582677
20
0.4148833070866141
11
0.54
21
0.4156492519685039
0
LINE
8
BLACK
6
CONTINUOUS
10
0.54
20
0.4156492519685039
11
0.5448358661417323
21
0.4148833070866141
0
LINE
8
BLACK
6
CONTINUOUS
10
0.5395030708661417
20
0.3995030708661417
11
0.54
21
0.3992972440944882
0
LINE
8
BLACK
6
CONTINUOUS
10
0.54
20
0.3992972440944882
11
0.5404969291338583
21
0.3995030708661417
0
LINE
8
BLACK
6
CONTINUOUS
10
0.5404969291338583
20
0.3995030708661417
11
0.5407027559055118
21
0.4
0
LINE
8
BLACK
6
CONTINUOUS
10
0.5407027559055118
20
0.4
11
0.5404969291338583
21
0.4004969291338583
0
LINE
8
BLACK
6
CONTINUOUS
10
0.5404969291338583
20
0.4004969291338583
11
0.54
21
0.4007027559055118
0
LINE
8
BLACK
6
CONTINUOUS
10
0.54
20
0.4007027559055118
11
0.5395030708661417
21
0.4004969291338583
0
LINE
8
BLACK
6
CONTINUOUS
10
0.5395030708661417
20
0.4004969291338583
11
0.5392972440944882
21
0.4
0
LINE
8
BLACK
6
CONTINUOUS
10
0.5392972440944882
20
0.4
11
0.5395030708661417
21
0.3995030708661417
0
LINE
8
BLACK
6
CONTINUOUS
10
0.8648358661417322
20
0.4148833070866141
11
0.8691983858267717
21
0.4126605118110236
0
LINE
8
BLACK
6
CONTINUOUS
10
0.8691983858267717
20
0.4126605118110236
11
0.8726605118110236
21
0.4091983858267716
0
LINE
8
BLACK
6
CONTINUOUS
10
0.8726605118110236
20
0.4091983858267716
11
0.8748833070866141
21
0.4048358661417323
0
LINE
8
BLACK
6
CONTINUOUS
10
0.8748833070866141
20
0.4048358661417323
11
0.875649251968504
21
0.4
0
LINE
8
BLACK
6
CONTINUOUS
10
0.875649251968504
20
0.4
11
0.8748833070866141
21
0.3951641338582677
0
LINE
8
BLACK
6
CONTINUOUS
10
0.8748833070866141
20
0.3951641338582677
11
0.8726605118110236
21
0.3908016141732283
0
LINE
8
BLACK
6
CONTINUOUS
10
0.8726605118110236
20
0.3908016141732283
11
0.8691983858267717
21
0.3873394881889763
0
LINE
8
BLACK
6
CONTINUOUS
10
0.8691983858267717
20
0.3873394881889763
11
0.8648358661417322
21
0.3851166929133858
0
LINE
8
BLACK
6
CONTINUOUS
10
0.8648358661417322
20
0.3851166929133858
11
0.86
21
0.384350748031496
0
LINE
8
BLACK
6
CONTINUOUS
10
0.86
20
0.384350748031496
11
0.8551641338582677
21
0.3851166929133858
0
LINE
8
BLACK
6
CONTINUOUS
10
0.8551641338582677
20
0.3851166929133858
11
0.8508016141732283
21
0.3873394881889763
0
LINE
8
BLACK
6
CONTINUOUS
10
0.8508016141732283
20
0.3873394881889763
11
0.8473394881889763
21
0.3908016141732283
0
LINE
8
BLACK
6
CONTINUOUS
10
0.8473394881889763
20
0.3908016141732283
11
0.8451166929133858
21
0.3951641338582677
0
LINE
8
BLACK
6
CONTINUOUS
10
0.8451166929133858
20
0.3951641338582677
11
0.844350748031496
21
0.4
0
LINE
8
BLACK
6
CONTINUOUS
10
0.844350748031496
20
0.4
11
0.8451166929133858
21
0.4048358661417323
0
LINE
8
BLACK
6
CONTINUOUS
10
0.8451166929133858
20
0.4048358661417323
11
0.8473394881889763
21
0.4091983858267716
0
LINE
8
BLACK
6
CONTINUOUS
10
0.8473394881889763
20
0.4091983858267716
11
0.8508016141732283
21
0.4126605118110236
0
LINE
8
BLACK
6
CONTINUOUS
10
0.8508016141732283
20
0.4126605118110236
11
0.8551641338582677
21
0.4148833070866141
0
LINE
8
BLACK
6
CONTINUOUS
10
0.8551641338582677
20
0.4148833070866141
11
0.86
21
0.4156492519685039
0
LINE
8
BLACK
6
CONTINUOUS
10
0.86
20
0.4156492519685039
11
0.8648358661417322
21
0.4148833070866141
0
LINE
8
BLACK
6
CONTINUOUS
10
0.8595030708661417
20
0.3995030708661417
11
0.86
21
0.3992972440944882
0
LINE
8
BLACK
6
CONTINUOUS
10
0.86
20
0.3992972440944882
11
0.8604969291338582
21
0.3995030708661417
0
LINE
8
BLACK
6
CONTINUOUS
10
0.8604969291338582
20
0.3995030708661417
11
0.8607027559055118
21
0.4
0
LINE
8
BLACK
6
CONTINUOUS
10
0.8607027559055118
20
0.4
11
0.8604969291338582
21
0.4004969291338583
0
LINE
8
BLACK
6
CONTINUOUS
10
0.8604969291338582
20
0.4004969291338583
11
0.86
21
0.4007027559055118
0
LINE
8
BLACK
6
CONTINUOUS
10
0.86
20
0.4007027559055118
11
0.8595030708661417
21
0.4004969291338583
0
LINE
8
BLACK
6
CONTINUOUS
10
0.8595030708661417
20
0.4004969291338583
11
0.8592972440944882
21
0.4
0
LINE
8
BLACK
6
CONTINUOUS
10
0.8592972440944882
20
0.4
11
0.8595030708661417
21
0.3995030708661417
0
LINE
8
BLACK
6
CONTINUOUS
10
1.1848358661417322
20
0.4148833070866141
11
1.1891983858267716
21
0.4126605118110236
0
LINE
8
BLACK
6
CONTINUOUS
10
1.1891983858267716
20
0.4126605118110236
11
1.1926605118110236
21
0.4091983858267716
0
LINE
8
BLACK
6
CONTINUOUS
10
1.1926605118110236
20
0.4091983858267716
11
1.1948833070866141
21
0.4048358661417323
0
LINE
8
BLACK
6
CONTINUOUS
10
1.1948833070866141
20
0.4048358661417323
11
1.1956492519685038
21
0.4
0
LINE
8
BLACK
6
CONTINUOUS
10
1.1956492519685038
20
0.4
11
1.1948833070866141
21
0.3951641338582677
0
LINE
8
BLACK
6
CONTINUOUS
10
1.1948833070866141
20
0.3951641338582677
11
1.1926605118110236
21
0.3908016141732283
0
LINE
8
BLACK
6
CONTINUOUS
10
1.1926605118110236
20
0.3908016141732283
11
1.1891983858267716
21
0.3873394881889763
0
LINE
8
BLACK
6
CONTINUOUS
10
1.1891983858267716
20
0.3873394881889763
11
1.1848358661417322
21
0.3851166929133858
0
LINE
8
BLACK
6
CONTINUOUS
10
1.1848358661417322
20
0.3851166929133858
11
1.1799999999999999
21
0.384350748031496
0
LINE
8
BLACK
6
CONTINUOUS
10
1.1799999999999999
20
0.384350748031496
11
1.1751641338582677
21
0.3851166929133858
0
LINE
8
BLACK
6
CONTINUOUS
10
1.1751641338582677
20
0.3851166929133858
11
1.1708016141732283
21
0.3873394881889763
0
LINE
8
BLACK
6
CONTINUOUS
10
1.1708016141732283
20
0.3873394881889763
11
1.1673394881889763
21
0.3908016141732283
0
LINE
8
BLACK
6
CONTINUOUS
10
1.1673394881889763
20
0.3908016141732283
11
1.1651166929133858
21
0.3951641338582677
0
LINE
8
BLACK
6
CONTINUOUS
10
1.1651166929133858
20
0.3951641338582677
11
1.1643507480314961
21
0.4
0
LINE
8
BLACK
6
CONTINUOUS
10
1.1643507480314961
20
0.4
11
1.1651166929133858
21
0.4048358661417323
0
LINE
8
BLACK
6
CONTINUOUS
10
1.1651166929133858
20
0.4048358661417323
11
1.1673394881889763
21
0.4091983858267716
0
LINE
8
BLACK
6
CONTINUOUS
10
1.1673394881889763
20
0.4091983858267716
11
1.1708016141732283
21
0.4126605118110236
0
LINE
8
BLACK
6
CONTINUOUS
10
1.1708016141732283
20
0.4126605118110236
11
1.1751641338582677
21
0.4148833070866141
0
LINE
8
BLACK
6
CONTINUOUS
10
1.1751641338582677
20
0.4148833070866141
11
1.1799999999999999
21
0.4156492519685039
0
LINE
8
BLACK
6
CONTINUOUS
10
1.1799999999999999
20
0.4156492519685039
11
1.1848358661417322
21
0.4148833070866141
0
LINE
8
BLACK
6
CONTINUOUS
10
1.1795030708661418
20
0.3995030708661417
11
1.1799999999999999
21
0.3992972440944882
0
LINE
8
BLACK
6
CONTINUOUS
10
1.1799999999999999
20
0.3992972440944882
11
1.1804969291338583
21
0.3995030708661417
0
LINE
8
BLACK
6
CONTINUOUS
10
1.1804969291338583
20
0.3995030708661417
11
1.1807027559055119
21
0.4
0
LINE
8
BLACK
6
CONTINUOUS
10
1.1807027559055119
20
0.4
11
1.1804969291338583
21
0.4004969291338583
0
LINE
8
BLACK
6
CONTINUOUS
10
1.1804969291338583
20
0.4004969291338583
11
1.1799999999999999
21
0.4007027559055118
0
LINE
8
BLACK
6
CONTINUOUS
10
1.1799999999999999
20
0.4007027559055118
11
1.1795030708661418
21
0.4004969291338583
0
LINE
8
BLACK
6
CONTINUOUS
10
1.1795030708661418
20
0.4004969291338583
11
1.1792972440944882
21
0.4
0
LINE
8
BLACK
6
CONTINUOUS
10
1.1792972440944882
20
0.4
11
1.1795030708661418
21
0.3995030708661417
0
LINE
8
BLACK
6
CONTINUOUS
10
0.2248358661417323
20
0.5948833070866142
11
0.2291983858267717
21
0.5926605118110236
0
LINE
8
BLACK
6
CONTINUOUS
10
0.2291983858267717
20
0.5926605118110236
11
0.2326605118110236
21
0.5891983858267716
0
LINE
8
BLACK
6
CONTINUOUS
10
0.2326605118110236
20
0.5891983858267716
11
0.2348833070866142
21
0.5848358661417322
0
LINE
8
BLACK
6
CONTINUOUS
10
0.2348833070866142
20
0.5848358661417322
11
0.2356492519685039
21
0.58
0
LINE
8
BLACK
6
CONTINUOUS
10
0.2356492519685039
20
0.58
11
0.2348833070866142
21
0.5751641338582677
0
LINE
8
BLACK
6
CONTINUOUS
10
0.2348833070866142
20
0.5751641338582677
11
0.2326605118110236
21
0.5708016141732284
0
LINE
8
BLACK
6
CONTINUOUS
10
0.2326605118110236
20
0.5708016141732284
11
0.2291983858267717
21
0.5673394881889764
0
LINE
8
BLACK
6
CONTINUOUS
10
0.2291983858267717
20
0.5673394881889764
11
0.2248358661417323
21
0.5651166929133858
0
LINE
8
BLACK
6
CONTINUOUS
10
0.2248358661417323
20
0.5651166929133858
11
0.22
21
0.5643507480314961
0
LINE
8
BLACK
6
CONTINUOUS
10
0.22
20
0.5643507480314961
11
0.2151641338582677
21
0.5651166929133858
0
LINE
8
BLACK
6
CONTINUOUS
10
0.2151641338582677
20
0.5651166929133858
11
0.2108016141732283
21
0.5673394881889764
0
LINE
8
BLACK
6
CONTINUOUS
10
0.2108016141732283
20
0.5673394881889764
11
0.2073394881889764
21
0.5708016141732284
0
LINE
8
BLACK
6
CONTINUOUS
10
0.2073394881889764
20
0.5708016141732284
11
0.2051166929133858
21
0.5751641338582677
0
LINE
8
BLACK
6
CONTINUOUS
10
0.2051166929133858
20
0.5751641338582677
11
0.2043507480314961
21
0.58
0
LINE
8
BLACK
6
CONTINUOUS
10
0.2043507480314961
20
0.58
11
0.2051166929133858
21
0.5848358661417322
0
LINE
8
BLACK
6
CONTINUOUS
10
0.2051166929133858
20
0.5848358661417322
11
0.2073394881889764
21
0.5891983858267716
0
LINE
8
BLACK
6
CONTINUOUS
10
0.2073394881889764
20
0.5891983858267716
11
0.2108016141732283
21
0.5926605118110236
0
LINE
8
BLACK
6
CONTINUOUS
10
0.2108016141732283
20
0.5926605118110236
11
0.2151641338582677
21
0.5948833070866142
0
LINE
8
BLACK
6
CONTINUOUS
10
0.2151641338582677
20
0.5948833070866142
11
0.22
21
0.5956492519685039
0
LINE
8
BLACK
6
CONTINUOUS
10
0.22
20
0.5956492519685039
11
0.2248358661417323
21
0.5948833070866142
0
LINE
8
BLACK
6
CONTINUOUS
10
0.2195030708661417
20
0.5795030708661417
11
0.22
21
0.5792972440944881
0
LINE
8
BLACK
6
CONTINUOUS
10
0.22
20
0.5792972440944881
11
0.2204969291338583
21
0.5795030708661417
0
LINE
8
BLACK
6
CONTINUOUS
10
0.2204969291338583
20
0.5795030708661417
11
0.2207027559055118
21
0.58
0
LINE
8
BLACK
6
CONTINUOUS
10
0.2207027559055118
20
0.58
11
0.2204969291338583
21
0.5804969291338583
0
LINE
8
BLACK
6
CONTINUOUS
10
0.2204969291338583
20
0.5804969291338583
11
0.22
21
0.5807027559055118
0
LINE
8
BLACK
6
CONTINUOUS
10
0.22
20
0.5807027559055118
11
0.2195030708661417
21
0.5804969291338583
0
LINE
8
BLACK
6
CONTINUOUS
10
0.2195030708661417
20
0.5804969291338583
11
0.2192972440944882
21
0.58
0
LINE
8
BLACK
6
CONTINUOUS
10
0.2192972440944882
20
0.58
11
0.2195030708661417
21
0.5795030708661417
0
LINE
8
BLACK
6
CONTINUOUS
10
0.5448358661417323
20
0.5948833070866142
11
0.5491983858267716
21
0.5926605118110236
0
LINE
8
BLACK
6
CONTINUOUS
10
0.5491983858267716
20
0.5926605118110236
11
0.5526605118110236
21
0.5891983858267716
0
LINE
8
BLACK
6
CONTINUOUS
10
0.5526605118110236
20
0.5891983858267716
11
0.5548833070866142
21
0.5848358661417322
0
LINE
8
BLACK
6
CONTINUOUS
10
0.5548833070866142
20
0.5848358661417322
11
0.5556492519685039
21
0.58
0
LINE
8
BLACK
6
CONTINUOUS
10
0.5556492519685039
20
0.58
11
0.5548833070866142
21
0.5751641338582677
0
LINE
8
BLACK
6
CONTINUOUS
10
0.5548833070866142
20
0.5751641338582677
11
0.5526605118110236
21
0.5708016141732284
0
LINE
8
BLACK
6
CONTINUOUS
10
0.5526605118110236
20
0.5708016141732284
11
0.5491983858267716
21
0.5673394881889764
0
LINE
8
BLACK
6
CONTINUOUS
10
0.5491983858267716
20
0.5673394881889764
11
0.5448358661417323
21
0.5651166929133858
0
LINE
8
BLACK
6
CONTINUOUS
10
0.5448358661417323
20
0.5651166929133858
11
0.54
21
0.5643507480314961
0
LINE
8
BLACK
6
CONTINUOUS
10
0.54
20
0.5643507480314961
11
0.5351641338582677
21
0.5651166929133858
0
LINE
8
BLACK
6
CONTINUOUS
10
0.5351641338582677
20
0.5651166929133858
11
0.5308016141732284
21
0.5673394881889764
0
LINE
8
BLACK
6
CONTINUOUS
10
0.5308016141732284
20
0.5673394881889764
11
0.5273394881889764
21
0.5708016141732284
0
LINE
8
BLACK
6
CONTINUOUS
10
0.5273394881889764
20
0.5708016141732284
11
0.5251166929133858
21
0.5751641338582677
0
LINE
8
BLACK
6
CONTINUOUS
10
0.5251166929133858
20
0.5751641338582677
11
0.5243507480314961
21
0.58
0
LINE
8
BLACK
6
CONTINUOUS
10
0.5243507480314961
20
0.58
11
0.5251166929133858
21
0.5848358661417322
0
LINE
8
BLACK
6
CONTINUOUS
10
0.5251166929133858
20
0.5848358661417322
11
0.5273394881889764
21
0.5891983858267716
0
LINE
8
BLACK
6
CONTINUOUS
10
0.5273394881889764
20
0.5891983858267716
11
0.5308016141732284
21
0.5926605118110236
0
LINE
8
BLACK
6
CONTINUOUS
10
0.5308016141732284
20
0.5926605118110236
11
0.5351641338582677
21
0.5948833070866142
0
LINE
8
BLACK
6
CONTINUOUS
10
0.5351641338582677
20
0.5948833070866142
11
0.54
21
0.5956492519685039
0
LINE
8
BLACK
6
CONTINUOUS
10
0.54
20
0.5956492519685039
11
0.5448358661417323
21
0.5948833070866142
0
LINE
8
BLACK
6
CONTINUOUS
10
0.5395030708661417
20
0.5795030708661417
11
0.54
21
0.5792972440944881
0
LINE
8
BLACK
6
CONTINUOUS
10
0.54
20
0.5792972440944881
11
0.5404969291338583
21
0.5795030708661417
0
LINE
8
BLACK
6
CONTINUOUS
10
0.5404969291338583
20
0.5795030708661417
11
0.5407027559055118
21
0.58
0
LINE
8
BLACK
6
CONTINUOUS
10
0.5407027559055118
20
0.58
11
0.5404969291338583
21
0.5804969291338583
0
LINE
8
BLACK
6
CONTINUOUS
10
0.5404969291338583
20
0.5804969291338583
11
0.54
21
0.5807027559055118
0
LINE
8
BLACK
6
CONTINUOUS
10
0.54
20
0.5807027559055118
11
0.5395030708661417
21
0.5804969291338583
0
LINE
8
BLACK
6
CONTINUOUS
10
0.5395030708661417
20
0.5804969291338583
11
0.5392972440944882
21
0.58
0
LINE
8
BLACK
6
CONTINUOUS
10
0.5392972440944882
20
0.58
11
0.5395030708661417
21
0.5795030708661417
0
LINE
8
BLACK
6
CONTINUOUS
10
0.8648358661417322
20
0.5948833070866142
11
0.8691983858267717
21
0.5926605118110236
0
LINE
8
BLACK
6
CONTINUOUS
10
0.8691983858267717
20
0.5926605118110236
11
0.8726605118110236
21
0.5891983858267716
0
LINE
8
BLACK
6
CONTINUOUS
10
0.8726605118110236
20
0.5891983858267716
11
0.8748833070866141
21
0.5848358661417322
0
LINE
8
BLACK
6
CONTINUOUS
10
0.8748833070866141
20
0.5848358661417322
11
0.875649251968504
21
0.58
0
LINE
8
BLACK
6
CONTINUOUS
10
0.875649251968504
20
0.58
11
0.8748833070866141
21
0.5751641338582677
0
LINE
8
BLACK
6
CONTINUOUS
10
0.8748833070866141
20
0.5751641338582677
11
0.8726605118110236
21
0.5708016141732284
0
LINE
8
BLACK
6
CONTINUOUS
10
0.8726605118110236
20
0.5708016141732284
11
0.8691983858267717
21
0.5673394881889764
0
LINE
8
BLACK
6
CONTINUOUS
10
0.8691983858267717
20
0.5673394881889764
11
0.8648358661417322
21
0.5651166929133858
0
LINE
8
BLACK
6
CONTINUOUS
10
0.8648358661417322
20
0.5651166929133858
11
0.86
21
0.5643507480314961
0
LINE
8
BLACK
6
CONTINUOUS
10
0.86
20
0.5643507480314961
11
0.8551641338582677
21
0.5651166929133858
0
LINE
8
BLACK
6
CONTINUOUS
10
0.8551641338582677
20
0.5651166929133858
11
0.8508016141732283
21
0.5673394881889764
0
LINE
8
BLACK
6
CONTINUOUS
10
0.8508016141732283
20
0.5673394881889764
11
0.8473394881889763
21
0.5708016141732284
0
LINE
8
BLACK
6
CONTINUOUS
10
0.8473394881889763
20
0.5708016141732284
11
0.8451166929133858
21
0.5751641338582677
0
LINE
8
BLACK
6
CONTINUOUS
10
0.8451166929133858
20
0.5751641338582677
11
0.844350748031496
21
0.58
0
LINE
8
BLACK
6
CONTINUOUS
10
0.844350748031496
20
0.58
11
0.8451166929133858
21
0.5848358661417322
0
LINE
8
BLACK
6
CONTINUOUS
10
0.8451166929133858
20
0.5848358661417322
11
0.8473394881889763
21
0.5891983858267716
0
LINE
8
BLACK
6
CONTINUOUS
10
0.8473394881889763
20
0.5891983858267716
11
0.8508016141732283
21
0.5926605118110236
0
LINE
8
BLACK
6
CONTINUOUS
10
0.8508016141732283
20
0.5926605118110236
11
0.8551641338582677
21
0.5948833070866142
0
LINE
8
BLACK
6
CONTINUOUS
10
0.8551641338582677
20
0.5948833070866142
11
0.86
21
0.5956492519685039
0
LINE
8
BLACK
6
CONTINUOUS
10
0.86
20
0.5956492519685039
11
0.8648358661417322
21
0.5948833070866142
0
LINE
8
BLACK
6
CONTINUOUS
10
0.8595030708661417
20
0.5795030708661417
11
0.86
21
0.5792972440944881
0
LINE
8
BLACK
6
CONTINUOUS
10
0.86
20
0.5792972440944881
11
0.8604969291338582
21
0.5795030708661417
0
LINE
8
BLACK
6
CONTINUOUS
10
0.8604969291338582
20
0.5795030708661417
11
0.8607027559055118
21
0.58
0
LINE
8
BLACK
6
CONTINUOUS
10
0.8607027559055118
20
0.58
11
0.8604969291338582
21
0.5804969291338583
0
LINE
8
BLACK
6
CONTINUOUS
10
0.8604969291338582
20
0.5804969291338583
11
0.86
21
0.5807027559055118
0
LINE
8
BLACK
6
CONTINUOUS
10
0.86
20
0.5807027559055118
11
0.8595030708661417
21
0.5804969291338583
0
LINE
8
BLACK
6
CONTINUOUS
10
0.8595030708661417
20
0.5804969291338583
11
0.8592972440944882
21
0.58
0
LINE
8
BLACK
6
CONTINUOUS
10
0.8592972440944882
20
0.58
11
0.8595030708661417
21
0.5795030708661417
0
LINE
8
BLACK
6
CONTINUOUS
10
1.1848358661417322
20
0.5948833070866142
11
1.1891983858267716
21
0.5926605118110236
0
LINE
8
BLACK
6
CONTINUOUS
10
1.1891983858267716
20
0.5926605118110236
11
1.1926605118110236
21
0.5891983858267716
0
LINE
8
BLACK
6
CONTINUOUS
10
1.1926605118110236
20
0.5891983858267716
11
1.1948833070866141
21
0.5848358661417322
0
LINE
8
BLACK
6
CONTINUOUS
10
1.1948833070866141
20
0.5848358661417322
11
1.1956492519685038
21
0.58
0
LINE
8
BLACK
6
CONTINUOUS
10
1.1956492519685038
20
0.58
11
1.1948833070866141
21
0.5751641338582677
0
LINE
8
BLACK
6
CONTINUOUS
10
1.1948833070866141
20
0.5751641338582677
11
1.1926605118110236
21
0.5708016141732284
0
LINE
8
BLACK
6
CONTINUOUS
10
1.1926605118110236
20
0.5708016141732284
11
1.1891983858267716
21
0.5673394881889764
0
LINE
8
BLACK
6
CONTINUOUS
10
1.1891983858267716
20
0.5673394881889764
11
1.1848358661417322
21
0.5651166929133858
0
LINE
8
BLACK
6
CONTINUOUS
10
1.1848358661417322
20
0.5651166929133858
11
1.1799999999999999
21
0.5643507480314961
0
LINE
8
BLACK
6
CONTINUOUS
10
1.1799999999999999
20
0.5643507480314961
11
1.1751641338582677
21
0.5651166929133858
0
LINE
8
BLACK
6
CONTINUOUS
10
1.1751641338582677
20
0.5651166929133858
11
1.1708016141732283
21
0.5673394881889764
0
LINE
8
BLACK
6
CONTINUOUS
10
1.1708016141732283
20
0.5673394881889764
11
1.1673394881889763
21
0.5708016141732284
0
LINE
8
BLACK
6
CONTINUOUS
10
1.1673394881889763
20
0.5708016141732284
11
1.1651166929133858
21
0.5751641338582677
0
LINE
8
BLACK
6
CONTINUOUS
10
1.1651166929133858
20
0.5751641338582677
11
1.1643507480314961
21
0.58
0
LINE
8
BLACK
6
CONTINUOUS
10
1.1643507480314961
20
0.58
11
1.1651166929133858
21
0.5848358661417322
0
LINE
8
BLACK
6
CONTINUOUS
10
1.1651166929133858
20
0.5848358661417322
11
1.1673394881889763
21
0.5891983858267716
0
LINE
8
BLACK
6
CONTINUOUS
10
1.1673394881889763
20
0.5891983858267716
11
1.1708016141732283
21
0.5926605118110236
0
LINE
8
BLACK
6
CONTINUOUS
10
1.1708016141732283
20
0.5926605118110236
11
1.1751641338582677
21
0.5948833070866142
0
LINE
8
BLACK
6
CONTINUOUS
10
1.1751641338582677
20
0.5948833070866142
11
1.1799999999999999
21
0.5956492519685039
0
LINE
8
BLACK
6
CONTINUOUS
10
1.1799999999999999
20
0.5956492519685039
11
1.1848358661417322
21
0.5948833070866142
0
LINE
8
BLACK
6
CONTINUOUS
10
1.1795030708661418
20
0.5795030708661417
11
1.1799999999999999
21
0.5792972440944881
0
LINE
8
BLACK
6
CONTINUOUS
10
1.1799999999999999
20
0.5792972440944881
11
1.1804969291338583
21
0.5795030708661417
0
LINE
8
BLACK
6
CONTINUOUS
10
1.1804969291338583
20
0.5795030708661417
11
1.1807027559055119
21
0.58
0
LINE
8
BLACK
6
CONTINUOUS
10
1.1807027559055119
20
0.58
11
1.1804969291338583
21
0.5804969291338583
0
LINE
8
BLACK
6
CONTINUOUS
10
1.1804969291338583
20
0.5804969291338583
11
1.1799999999999999
21
0.5807027559055118
0
LINE
8
BLACK
6
CONTINUOUS
10
1.1799999999999999
20
0.5807027559055118
11
1.1795030708661418
21
0.5804969291338583
0
LINE
8
BLACK
6
CONTINUOUS
10
1.1795030708661418
20
0.5804969291338583
11
1.1792972440944882
21
0.58
0
LINE
8
BLACK
6
CONTINUOUS
10
1.1792972440944882
20
0.58
11
1.1795030708661418
21
0.5795030708661417
0
LINE
8
BLACK
6
CONTINUOUS
10
1.4648358661417322
20
0.6948833070866142
11
1.4691983858267716
21
0.6926605118110236
0
LINE
8
BLACK
6
CONTINUOUS
10
1.4691983858267716
20
0.6926605118110236
11
1.4726605118110236
21
0.6891983858267716
0
LINE
8
BLACK
6
CONTINUOUS
10
1.4726605118110236
20
0.6891983858267716
11
1.4748833070866141
21
0.6848358661417323
0
LINE
8
BLACK
6
CONTINUOUS
10
1.4748833070866141
20
0.6848358661417323
11
1.4756492519685038
21
0.6799999999999999
0
LINE
8
BLACK
6
CONTINUOUS
10
1.4756492519685038
20
0.6799999999999999
11
1.4748833070866141
21
0.6751641338582677
0
LINE
8
BLACK
6
CONTINUOUS
10
1.4748833070866141
20
0.6751641338582677
11
1.4726605118110236
21
0.6708016141732284
0
LINE
8
BLACK
6
CONTINUOUS
10
1.4726605118110236
20
0.6708016141732284
11
1.4691983858267716
21
0.6673394881889764
0
LINE
8
BLACK
6
CONTINUOUS
10
1.4691983858267716
20
0.6673394881889764
11
1.4648358661417322
21
0.6651166929133858
0
LINE
8
BLACK
6
CONTINUOUS
10
1.4648358661417322
20
0.6651166929133858
11
1.46
21
0.6643507480314961
0
LINE
8
BLACK
6
CONTINUOUS
10
1.46
20
0.6643507480314961
11
1.4551641338582677
21
0.6651166929133858
0
LINE
8
BLACK
6
CONTINUOUS
10
1.4551641338582677
20
0.6651166929133858
11
1.4508016141732283
21
0.6673394881889764
0
LINE
8
BLACK
6
CONTINUOUS
10
1.4508016141732283
20
0.6673394881889764
11
1.4473394881889763
21
0.6708016141732284
0
LINE
8
BLACK
6
CONTINUOUS
10
1.4473394881889763
20
0.6708016141732284
11
1.4451166929133858
21
0.6751641338582677
0
LINE
8
BLACK
6
CONTINUOUS
10
1.4451166929133858
20
0.6751641338582677
11
1.4443507480314961
21
0.6799999999999999
0
LINE
8
BLACK
6
CONTINUOUS
10
1.4443507480314961
20
0.6799999999999999
11
1.4451166929133858
21
0.6848358661417323
0
LINE
8
BLACK
6
CONTINUOUS
10
1.4451166929133858
20
0.6848358661417323
11
1.4473394881889763
21
0.6891983858267716
0
LINE
8
BLACK
6
CONTINUOUS
10
1.4473394881889763
20
0.6891983858267716
11
1.4508016141732283
21
0.6926605118110236
0
LINE
8
BLACK
6
CONTINUOUS
10
1.4508016141732283
20
0.6926605118110236
11
1.4551641338582677
21
0.6948833070866142
0
LINE
8
BLACK
6
CONTINUOUS
10
1.4551641338582677
20
0.6948833070866142
11
1.46
21
0.6956492519685039
0
LINE
8
BLACK
6
CONTINUOUS
10
1.46
20
0.6956492519685039
11
1.4648358661417322
21
0.6948833070866142
0
LINE
8
BLACK
6
CONTINUOUS
10
1.4595030708661416
20
0.6795030708661417
11
1.46
21
0.6792972440944882
0
LINE
8
BLACK
6
CONTINUOUS
10
1.46
20
0.6792972440944882
11
1.4604969291338583
21
0.6795030708661417
0
LINE
8
BLACK
6
CONTINUOUS
10
1.4604969291338583
20
0.6795030708661417
11
1.4607027559055117
21
0.6799999999999999
0
LINE
8
BLACK
6
CONTINUOUS
10
1.4607027559055117
20
0.6799999999999999
11
1.4604969291338583
21
0.6804969291338583
0
LINE
8
BLACK
6
CONTINUOUS
10
1.4604969291338583
20
0.6804969291338583
11
1.46
21
0.6807027559055118
0
LINE
8
BLACK
6
CONTINUOUS
10
1.46
20
0.6807027559055118
11
1.4595030708661416
21
0.6804969291338583
0
LINE
8
BLACK
6
CONTINUOUS
10
1.4595030708661416
20
0.6804969291338583
11
1.4592972440944882
21
0.6799999999999999
0
LINE
8
BLACK
6
CONTINUOUS
10
1.4592972440944882
20
0.6799999999999999
11
1.4595030708661416
21
0.6795030708661417
0
LINE
8
BLACK
6
CONTINUOUS
10
0.2248358661417323
20
0.7748833070866141
11
0.2291983858267717
21
0.7726605118110236
0
LINE
8
BLACK
6
CONTINUOUS
10
0.2291983858267717
20
0.7726605118110236
11
0.2326605118110236
21
0.7691983858267717
0
LINE
8
BLACK
6
CONTINUOUS
10
0.2326605118110236
20
0.7691983858267717
11
0.2348833070866142
21
0.7648358661417323
0
LINE
8
BLACK
6
CONTINUOUS
10
0.2348833070866142
20
0.7648358661417323
11
0.2356492519685039
21
0.76
0
LINE
8
BLACK
6
CONTINUOUS
10
0.2356492519685039
20
0.76
11
0.2348833070866142
21
0.7551641338582677
0
LINE
8
BLACK
6
CONTINUOUS
10
0.2348833070866142
20
0.7551641338582677
11
0.2326605118110236
21
0.7508016141732283
0
LINE
8
BLACK
6
CONTINUOUS
10
0.2326605118110236
20
0.7508016141732283
11
0.2291983858267717
21
0.7473394881889763
0
LINE
8
BLACK
6
CONTINUOUS
10
0.2291983858267717
20
0.7473394881889763
11
0.2248358661417323
21
0.7451166929133858
0
LINE
8
BLACK
6
CONTINUOUS
10
0.2248358661417323
20
0.7451166929133858
11
0.22
21
0.744350748031496
0
LINE
8
BLACK
6
CONTINUOUS
10
0.22
20
0.744350748031496
11
0.2151641338582677
21
0.7451166929133858
0
LINE
8
BLACK
6
CONTINUOUS
10
0.2151641338582677
20
0.7451166929133858
11
0.2108016141732283
21
0.7473394881889763
0
LINE
8
BLACK
6
CONTINUOUS
10
0.2108016141732283
20
0.7473394881889763
11
0.2073394881889764
21
0.7508016141732283
0
LINE
8
BLACK
6
CONTINUOUS
10
0.2073394881889764
20
0.7508016141732283
11
0.2051166929133858
21
0.7551641338582677
0
LINE
8
BLACK
6
CONTINUOUS
10
0.2051166929133858
20
0.7551641338582677
11
0.2043507480314961
21
0.76
0
LINE
8
BLACK
6
CONTINUOUS
10
0.2043507480314961
20
0.76
11
0.2051166929133858
21
0.7648358661417323
0
LINE
8
BLACK
6
CONTINUOUS
10
0.2051166929133858
20
0.7648358661417323
11
0.2073394881889764
21
0.7691983858267717
0
LINE
8
BLACK
6
CONTINUOUS
10
0.2073394881889764
20
0.7691983858267717
11
0.2108016141732283
21
0.7726605118110236
0
LINE
8
BLACK
6
CONTINUOUS
10
0.2108016141732283
20
0.7726605118110236
11
0.2151641338582677
21
0.7748833070866141
0
LINE
8
BLACK
6
CONTINUOUS
10
0.2151641338582677
20
0.7748833070866141
11
0.22
21
0.7756492519685039
0
LINE
8
BLACK
6
CONTINUOUS
10
0.22
20
0.7756492519685039
11
0.2248358661417323
21
0.7748833070866141
0
LINE
8
BLACK
6
CONTINUOUS
10
0.2195030708661417
20
0.7595030708661417
11
0.22
21
0.7592972440944882
0
LINE
8
BLACK
6
CONTINUOUS
10
0.22
20
0.7592972440944882
11
0.2204969291338583
21
0.7595030708661417
0
LINE
8
BLACK
6
CONTINUOUS
10
0.2204969291338583
20
0.7595030708661417
11
0.2207027559055118
21
0.76
0
LINE
8
BLACK
6
CONTINUOUS
10
0.2207027559055118
20
0.76
11
0.2204969291338583
21
0.7604969291338582
0
LINE
8
BLACK
6
CONTINUOUS
10
0.2204969291338583
20
0.7604969291338582
11
0.22
21
0.7607027559055118
0
LINE
8
BLACK
6
CONTINUOUS
10
0.22
20
0.7607027559055118
11
0.2195030708661417
21
0.7604969291338582
0
LINE
8
BLACK
6
CONTINUOUS
10
0.2195030708661417
20
0.7604969291338582
11
0.2192972440944882
21
0.76
0
LINE
8
BLACK
6
CONTINUOUS
10
0.2192972440944882
20
0.76
11
0.2195030708661417
21
0.7595030708661417
0
LINE
8
BLACK
6
CONTINUOUS
10
0.5448358661417323
20
0.7748833070866141
11
0.5491983858267716
21
0.7726605118110236
0
LINE
8
BLACK
6
CONTINUOUS
10
0.5491983858267716
20
0.7726605118110236
11
0.5526605118110236
21
0.7691983858267717
0
LINE
8
BLACK
6
CONTINUOUS
10
0.5526605118110236
20
0.7691983858267717
11
0.5548833070866142
21
0.7648358661417323
0
LINE
8
BLACK
6
CONTINUOUS
10
0.5548833070866142
20
0.7648358661417323
11
0.5556492519685039
21
0.76
0
LINE
8
BLACK
6
CONTINUOUS
10
0.5556492519685039
20
0.76
11
0.5548833070866142
21
0.7551641338582677
0
LINE
8
BLACK
6
CONTINUOUS
10
0.5548833070866142
20
0.7551641338582677
11
0.5526605118110236
21
0.7508016141732283
0
LINE
8
BLACK
6
CONTINUOUS
10
0.5526605118110236
20
0.7508016141732283
11
0.5491983858267716
21
0.7473394881889763
0
LINE
8
BLACK
6
CONTINUOUS
10
0.5491983858267716
20
0.7473394881889763
11
0.5448358661417323
21
0.7451166929133858
0
LINE
8
BLACK
6
CONTINUOUS
10
0.5448358661417323
20
0.7451166929133858
11
0.54
21
0.744350748031496
0
LINE
8
BLACK
6
CONTINUOUS
10
0.54
20
0.744350748031496
11
0.5351641338582677
21
0.7451166929133858
0
LINE
8
BLACK
6
CONTINUOUS
10
0.5351641338582677
20
0.7451166929133858
11
0.5308016141732284
21
0.7473394881889763
0
LINE
8
BLACK
6
CONTINUOUS
10
0.5308016141732284
20
0.7473394881889763
11
0.5273394881889764
21
0.7508016141732283
0
LINE
8
BLACK
6
CONTINUOUS
10
0.5273394881889764
20
0.7508016141732283
11
0.5251166929133858
21
0.7551641338582677
0
LINE
8
BLACK
6
CONTINUOUS
10
0.5251166929133858
20
0.7551641338582677
11
0.5243507480314961
21
0.76
0
LINE
8
BLACK
6
CONTINUOUS
10
0.5243507480314961
20
0.76
11
0.5251166929133858
21
0.7648358661417323
0
LINE
8
BLACK
6
CONTINUOUS
10
0.5251166929133858
20
0.7648358661417323
11
0.5273394881889764
21
0.7691983858267717
0
LINE
8
BLACK
6
CONTINUOUS
10
0.5273394881889764
20
0.7691983858267717
11
0.5308016141732284
21
0.7726605118110236
0
LINE
8
BLACK
6
CONTINUOUS
10
0.5308016141732284
20
0.7726605118110236
11
0.5351641338582677
21
0.7748833070866141
0
LINE
8
BLACK
6
CONTINUOUS
10
0.5351641338582677
20
0.7748833070866141
11
0.54
21
0.7756492519685039
0
LINE
8
BLACK
6
CONTINUOUS
10
0.54
20
0.7756492519685039
11
0.5448358661417323
21
0.7748833070866141
0
LINE
8
BLACK
6
CONTINUOUS
10
0.5395030708661417
20
0.7595030708661417
11
0.54
21
0.7592972440944882
0
LINE
8
BLACK
6
CONTINUOUS
10
0.54
20
0.7592972440944882
11
0.5404969291338583
21
0.7595030708661417
0
LINE
8
BLACK
6
CONTINUOUS
10
0.5404969291338583
20
0.7595030708661417
11
0.5407027559055118
21
0.76
0
LINE
8
BLACK
6
CONTINUOUS
10
0.5407027559055118
20
0.76
11
0.5404969291338583
21
0.7604969291338582
0
LINE
8
BLACK
6
CONTINUOUS
10
0.5404969291338583
20
0.7604969291338582
11
0.54
21
0.7607027559055118
0
LINE
8
BLACK
6
CONTINUOUS
10
0.54
20
0.7607027559055118
11
0.5395030708661417
21
0.7604969291338582
0
LINE
8
BLACK
6
CONTINUOUS
10
0.5395030708661417
20
0.7604969291338582
11
0.5392972440944882
21
0.76
0
LINE
8
BLACK
6
CONTINUOUS
10
0.5392972440944882
20
0.76
11
0.5395030708661417
21
0.7595030708661417
0
LINE
8
BLACK
6
CONTINUOUS
10
0.8648358661417322
20
0.7748833070866141
11
0.8691983858267717
21
0.7726605118110236
0
LINE
8
BLACK
6
CONTINUOUS
10
0.8691983858267717
20
0.7726605118110236
11
0.8726605118110236
21
0.7691983858267717
0
LINE
8
BLACK
6
CONTINUOUS
10
0.8726605118110236
20
0.7691983858267717
11
0.8748833070866141
21
0.7648358661417323
0
LINE
8
BLACK
6
CONTINUOUS
10
0.8748833070866141
20
0.7648358661417323
11
0.875649251968504
21
0.76
0
LINE
8
BLACK
6
CONTINUOUS
10
0.875649251968504
20
0.76
11
0.8748833070866141
21
0.7551641338582677
0
LINE
8
BLACK
6
CONTINUOUS
10
0.8748833070866141
20
0.7551641338582677
11
0.8726605118110236
21
0.7508016141732283
0
LINE
8
BLACK
6
CONTINUOUS
10
0.8726605118110236
20
0.7508016141732283
11
0.8691983858267717
21
0.7473394881889763
0
LINE
8
BLACK
6
CONTINUOUS
10
0.8691983858267717
20
0.7473394881889763
11
0.8648358661417322
21
0.7451166929133858
0
LINE
8
BLACK
6
CONTINUOUS
10
0.8648358661417322
20
0.7451166929133858
11
0.86
21
0.744350748031496
0
LINE
8
BLACK
6
CONTINUOUS
10
0.86
20
0.744350748031496
11
0.8551641338582677
21
0.7451166929133858
0
LINE
8
BLACK
6
CONTINUOUS
10
0.8551641338582677
20
0.7451166929133858
11
0.8508016141732283
21
0.7473394881889763
0
LINE
8
BLACK
6
CONTINUOUS
10
0.8508016141732283
20
0.7473394881889763
11
0.8473394881889763
21
0.7508016141732283
0
LINE
8
BLACK
6
CONTINUOUS
10
0.8473394881889763
20
0.7508016141732283
11
0.8451166929133858
21
0.7551641338582677
0
LINE
8
BLACK
6
CONTINUOUS
10
0.8451166929133858
20
0.7551641338582677
11
0.844350748031496
21
0.76
0
LINE
8
BLACK
6
CONTINUOUS
10
0.844350748031496
20
0.76
11
0.8451166929133858
21
0.7648358661417323
0
LINE
8
BLACK
6
CONTINUOUS
10
0.8451166929133858
20
0.7648358661417323
11
0.8473394881889763
21
0.7691983858267717
0
LINE
8
BLACK
6
CONTINUOUS
10
0.8473394881889763
20
0.7691983858267717
11
0.8508016141732283
21
0.7726605118110236
0
LINE
8
BLACK
6
CONTINUOUS
10
0.8508016141732283
20
0.7726605118110236
11
0.8551641338582677
21
0.7748833070866141
0
LINE
8
BLACK
6
CONTINUOUS
10
0.8551641338582677
20
0.7748833070866141
11
0.86
21
0.7756492519685039
0
LINE
8
BLACK
6
CONTINUOUS
10
0.86
20
0.7756492519685039
11
0.8648358661417322
21
0.7748833070866141
0
LINE
8
BLACK
6
CONTINUOUS
10
0.8595030708661417
20
0.7595030708661417
11
0.86
21
0.7592972440944882
0
LINE
8
BLACK
6
CONTINUOUS
10
0.86
20
0.7592972440944882
11
0.8604969291338582
21
0.7595030708661417
0
LINE
8
BLACK
6
CONTINUOUS
10
0.8604969291338582
20
0.7595030708661417
11
0.8607027559055118
21
0.76
0
LINE
8
BLACK
6
CONTINUOUS
10
0.8607027559055118
20
0.76
11
0.8604969291338582
21
0.7604969291338582
0
LINE
8
BLACK
6
CONTINUOUS
10
0.8604969291338582
20
0.7604969291338582
11
0.86
21
0.7607027559055118
0
LINE
8
BLACK
6
CONTINUOUS
10
0.86
20
0.7607027559055118
11
0.8595030708661417
21
0.7604969291338582
0
LINE
8
BLACK
6
CONTINUOUS
10
0.8595030708661417
20
0.7604969291338582
11
0.8592972440944882
21
0.76
0
LINE
8
BLACK
6
CONTINUOUS
10
0.8592972440944882
20
0.76
11
0.8595030708661417
21
0.7595030708661417
0
LINE
8
BLACK
6
CONTINUOUS
10
1.1848358661417322
20
0.7748833070866141
11
1.1891983858267716
21
0.7726605118110236
0
LINE
8
BLACK
6
CONTINUOUS
10
1.1891983858267716
20
0.7726605118110236
11
1.1926605118110236
21
0.7691983858267717
0
LINE
8
BLACK
6
CONTINUOUS
10
1.1926605118110236
20
0.7691983858267717
11
1.1948833070866141
21
0.7648358661417323
0
LINE
8
BLACK
6
CONTINUOUS
10
1.1948833070866141
20
0.7648358661417323
11
1.1956492519685038
21
0.76
0
LINE
8
BLACK
6
CONTINUOUS
10
1.1956492519685038
20
0.76
11
1.1948833070866141
21
0.7551641338582677
0
LINE
8
BLACK
6
CONTINUOUS
10
1.1948833070866141
20
0.7551641338582677
11
1.1926605118110236
21
0.7508016141732283
0
LINE
8
BLACK
6
CONTINUOUS
10
1.1926605118110236
20
0.7508016141732283
11
1.1891983858267716
21
0.7473394881889763
0
LINE
8
BLACK
6
CONTINUOUS
10
1.1891983858267716
20
0.7473394881889763
11
1.1848358661417322
21
0.7451166929133858
0
LINE
8
BLACK
6
CONTINUOUS
10
1.1848358661417322
20
0.7451166929133858
11
1.1799999999999999
21
0.744350748031496
0
LINE
8
BLACK
6
CONTINUOUS
10
1.1799999999999999
20
0.744350748031496
11
1.1751641338582677
21
0.7451166929133858
0
LINE
8
BLACK
6
CONTINUOUS
10
1.1751641338582677
20
0.7451166929133858
11
1.1708016141732283
21
0.7473394881889763
0
LINE
8
BLACK
6
CONTINUOUS
10
1.1708016141732283
20
0.7473394881889763
11
1.1673394881889763
21
0.7508016141732283
0
LINE
8
BLACK
6
CONTINUOUS
10
1.1673394881889763
20
0.7508016141732283
11
1.1651166929133858
21
0.7551641338582677
0
LINE
8
BLACK
6
CONTINUOUS
10
1.1651166929133858
20
0.7551641338582677
11
1.1643507480314961
21
0.76
0
LINE
8
BLACK
6
CONTINUOUS
10
1.1643507480314961
20
0.76
11
1.1651166929133858
21
0.7648358661417323
0
LINE
8
BLACK
6
CONTINUOUS
10
1.1651166929133858
20
0.7648358661417323
11
1.1673394881889763
21
0.7691983858267717
0
LINE
8
BLACK
6
CONTINUOUS
10
1.1673394881889763
20
0.7691983858267717
11
1.1708016141732283
21
0.7726605118110236
0
LINE
8
BLACK
6
CONTINUOUS
10
1.1708016141732283
20
0.7726605118110236
11
1.1751641338582677
21
0.7748833070866141
0
LINE
8
BLACK
6
CONTINUOUS
10
1.1751641338582677
20
0.7748833070866141
11
1.1799999999999999
21
0.7756492519685039
0
LINE
8
BLACK
6
CONTINUOUS
10
1.1799999999999999
20
0.7756492519685039
11
1.1848358661417322
21
0.7748833070866141
0
LINE
8
BLACK
6
CONTINUOUS
10
1.1795030708661418
20
0.7595030708661417
11
1.1799999999999999
21
0.7592972440944882
0
LINE
8
BLACK
6
CONTINUOUS
10
1.1799999999999999
20
0.7592972440944882
11
1.1804969291338583
21
0.7595030708661417
0
LINE
8
BLACK
6
CONTINUOUS
10
1.1804969291338583
20
0.7595030708661417
11
1.1807027559055119
21
0.76
0
LINE
8
BLACK
6
CONTINUOUS
10
1.1807027559055119
20
0.76
11
1.1804969291338583
21
0.7604969291338582
0
LINE
8
BLACK
6
CONTINUOUS
10
1.1804969291338583
20
0.7604969291338582
11
1.1799999999999999
21
0.7607027559055118
0
LINE
8
BLACK
6
CONTINUOUS
10
1.1799999999999999
20
0.7607027559055118
11
1.1795030708661418
21
0.7604969291338582
0
LINE
8
BLACK
6
CONTINUOUS
10
1.1795030708661418
20
0.7604969291338582
11
1.1792972440944882
21
0.76
0
LINE
8
BLACK
6
CONTINUOUS
10
1.1792972440944882
20
0.76
11
1.1795030708661418
21
0.7595030708661417
0
LINE
8
BLACK
6
CONTINUOUS
10
0.2248358661417323
20
0.9548833070866142
11
0.2291983858267717
21
0.9526605118110236
0
LINE
8
BLACK
6
CONTINUOUS
10
0.2291983858267717
20
0.9526605118110236
11
0.2326605118110236
21
0.9491983858267716
0
LINE
8
BLACK
6
CONTINUOUS
10
0.2326605118110236
20
0.9491983858267716
11
0.2348833070866142
21
0.9448358661417323
0
LINE
8
BLACK
6
CONTINUOUS
10
0.2348833070866142
20
0.9448358661417323
11
0.2356492519685039
21
0.9399999999999999
0
LINE
8
BLACK
6
CONTINUOUS
10
0.2356492519685039
20
0.9399999999999999
11
0.2348833070866142
21
0.9351641338582677
0
LINE
8
BLACK
6
CONTINUOUS
10
0.2348833070866142
20
0.9351641338582677
11
0.2326605118110236
21
0.9308016141732284
0
LINE
8
BLACK
6
CONTINUOUS
10
0.2326605118110236
20
0.9308016141732284
11
0.2291983858267717
21
0.9273394881889764
0
LINE
8
BLACK
6
CONTINUOUS
10
0.2291983858267717
20
0.9273394881889764
11
0.2248358661417323
21
0.9251166929133858
0
LINE
8
BLACK
6
CONTINUOUS
10
0.2248358661417323
20
0.9251166929133858
11
0.22
21
0.9243507480314961
0
LINE
8
BLACK
6
CONTINUOUS
10
0.22
20
0.9243507480314961
11
0.2151641338582677
21
0.9251166929133858
0
LINE
8
BLACK
6
CONTINUOUS
10
0.2151641338582677
20
0.9251166929133858
11
0.2108016141732283
21
0.9273394881889764
0
LINE
8
BLACK
6
CONTINUOUS
10
0.2108016141732283
20
0.9273394881889764
11
0.2073394881889764
21
0.9308016141732284
0
LINE
8
BLACK
6
CONTINUOUS
10
0.2073394881889764
20
0.9308016141732284
11
0.2051166929133858
21
0.9351641338582677
0
LINE
8
BLACK
6
CONTINUOUS
10
0.2051166929133858
20
0.9351641338582677
11
0.2043507480314961
21
0.9399999999999999
0
LINE
8
BLACK
6
CONTINUOUS
10
0.2043507480314961
20
0.9399999999999999
11
0.2051166929133858
21
0.9448358661417323
0
LINE
8
BLACK
6
CONTINUOUS
10
0.2051166929133858
20
0.9448358661417323
11
0.2073394881889764
21
0.9491983858267716
0
LINE
8
BLACK
6
CONTINUOUS
10
0.2073394881889764
20
0.9491983858267716
11
0.2108016141732283
21
0.9526605118110236
0
LINE
8
BLACK
6
CONTINUOUS
10
0.2108016141732283
20
0.9526605118110236
11
0.2151641338582677
21
0.9548833070866142
0
LINE
8
BLACK
6
CONTINUOUS
10
0.2151641338582677
20
0.9548833070866142
11
0.22
21
0.9556492519685039
0
LINE
8
BLACK
6
CONTINUOUS
10
0.22
20
0.9556492519685039
11
0.2248358661417323
21
0.9548833070866142
0
LINE
8
BLACK
6
CONTINUOUS
10
0.2195030708661417
20
0.9395030708661417
11
0.22
21
0.9392972440944881
0
LINE
8
BLACK
6
CONTINUOUS
10
0.22
20
0.9392972440944881
11
0.2204969291338583
21
0.9395030708661417
0
LINE
8
BLACK
6
CONTINUOUS
10
0.2204969291338583
20
0.9395030708661417
11
0.2207027559055118
21
0.9399999999999999
0
LINE
8
BLACK
6
CONTINUOUS
10
0.2207027559055118
20
0.9399999999999999
11
0.2204969291338583
21
0.9404969291338583
0
LINE
8
BLACK
6
CONTINUOUS
10
0.2204969291338583
20
0.9404969291338583
11
0.22
21
0.9407027559055118
0
LINE
8
BLACK
6
CONTINUOUS
10
0.22
20
0.9407027559055118
11
0.2195030708661417
21
0.9404969291338583
0
LINE
8
BLACK
6
CONTINUOUS
10
0.2195030708661417
20
0.9404969291338583
11
0.2192972440944882
21
0.9399999999999999
0
LINE
8
BLACK
6
CONTINUOUS
10
0.2192972440944882
20
0.9399999999999999
11
0.2195030708661417
21
0.9395030708661417
0
LINE
8
BLACK
6
CONTINUOUS
10
0.5448358661417323
20
0.9548833070866142
11
0.5491983858267716
21
0.9526605118110236
0
LINE
8
BLACK
6
CONTINUOUS
10
0.5491983858267716
20
0.9526605118110236
11
0.5526605118110236
21
0.9491983858267716
0
LINE
8
BLACK
6
CONTINUOUS
10
0.5526605118110236
20
0.9491983858267716
11
0.5548833070866142
21
0.9448358661417323
0
LINE
8
BLACK
6
CONTINUOUS
10
0.5548833070866142
20
0.9448358661417323
11
0.5556492519685039
21
0.9399999999999999
0
LINE
8
BLACK
6
CONTINUOUS
10
0.5556492519685039
20
0.9399999999999999
11
0.5548833070866142
21
0.9351641338582677
0
LINE
8
BLACK
6
CONTINUOUS
10
0.5548833070866142
20
0.9351641338582677
11
0.5526605118110236
21
0.9308016141732284
0
LINE
8
BLACK
6
CONTINUOUS
10
0.5526605118110236
20
0.9308016141732284
11
0.5491983858267716
21
0.9273394881889764
0
LINE
8
BLACK
6
CONTINUOUS
10
0.5491983858267716
20
0.9273394881889764
11
0.5448358661417323
21
0.9251166929133858
0
LINE
8
BLACK
6
CONTINUOUS
10
0.5448358661417323
20
0.9251166929133858
11
0.54
21
0.9243507480314961
0
LINE
8
BLACK
6
CONTINUOUS
10
0.54
20
0.9243507480314961
11
0.5351641338582677
21
0.9251166929133858
0
LINE
8
BLACK
6
CONTINUOUS
10
0.5351641338582677
20
0.9251166929133858
11
0.5308016141732284
21
0.9273394881889764
0
LINE
8
BLACK
6
CONTINUOUS
10
0.5308016141732284
20
0.9273394881889764
11
0.5273394881889764
21
0.9308016141732284
0
LINE
8
BLACK
6
CONTINUOUS
10
0.5273394881889764
20
0.9308016141732284
11
0.5251166929133858
21
0.9351641338582677
0
LINE
8
BLACK
6
CONTINUOUS
10
0.5251166929133858
20
0.9351641338582677
11
0.5243507480314961
21
0.9399999999999999
0
LINE
8
BLACK
6
CONTINUOUS
10
0.5243507480314961
20
0.9399999999999999
11
0.5251166929133858
21
0.9448358661417323
0
LINE
8
BLACK
6
CONTINUOUS
10
0.5251166929133858
20
0.9448358661417323
11
0.5273394881889764
21
0.9491983858267716
0
LINE
8
BLACK
6
CONTINUOUS
10
0.5273394881889764
20
0.9491983858267716
11
0.5308016141732284
21
0.9526605118110236
0
LINE
8
BLACK
6
CONTINUOUS
10
0.5308016141732284
20
0.9526605118110236
11
0.5351641338582677
21
0.9548833070866142
0
LINE
8
BLACK
6
CONTINUOUS
10
0.5351641338582677
20
0.9548833070866142
11
0.54
21
0.9556492519685039
0
LINE
8
BLACK
6
CONTINUOUS
10
0.54
20
0.9556492519685039
11
0.5448358661417323
21
0.9548833070866142
0
LINE
8
BLACK
6
CONTINUOUS
10
0.5395030708661417
20
0.9395030708661417
11
0.54
21
0.9392972440944881
0
LINE
8
BLACK
6
CONTINUOUS
10
0.54
20
0.9392972440944881
11
0.5404969291338583
21
0.9395030708661417
0
LINE
8
BLACK
6
CONTINUOUS
10
0.5404969291338583
20
0.9395030708661417
11
0.5407027559055118
21
0.9399999999999999
0
LINE
8
BLACK
6
CONTINUOUS
10
0.5407027559055118
20
0.9399999999999999
11
0.5404969291338583
21
0.9404969291338583
0
LINE
8
BLACK
6
CONTINUOUS
10
0.5404969291338583
20
0.9404969291338583
11
0.54
21
0.9407027559055118
0
LINE
8
BLACK
6
CONTINUOUS
10
0.54
20
0.9407027559055118
11
0.5395030708661417
21
0.9404969291338583
0
LINE
8
BLACK
6
CONTINUOUS
10
0.5395030708661417
20
0.9404969291338583
11
0.5392972440944882
21
0.9399999999999999
0
LINE
8
BLACK
6
CONTINUOUS
10
0.5392972440944882
20
0.9399999999999999
11
0.5395030708661417
21
0.9395030708661417
0
LINE
8
BLACK
6
CONTINUOUS
10
0.8648358661417322
20
0.9548833070866142
11
0.8691983858267717
21
0.9526605118110236
0
LINE
8
BLACK
6
CONTINUOUS
10
0.8691983858267717
20
0.9526605118110236
11
0.8726605118110236
21
0.9491983858267716
0
LINE
8
BLACK
6
CONTINUOUS
10
0.8726605118110236
20
0.9491983858267716
11
0.8748833070866141
21
0.9448358661417323
0
LINE
8
BLACK
6
CONTINUOUS
10
0.8748833070866141
20
0.9448358661417323
11
0.875649251968504
21
0.9399999999999999
0
LINE
8
BLACK
6
CONTINUOUS
10
0.875649251968504
20
0.9399999999999999
11
0.8748833070866141
21
0.9351641338582677
0
LINE
8
BLACK
6
CONTINUOUS
10
0.8748833070866141
20
0.9351641338582677
11
0.8726605118110236
21
0.9308016141732284
0
LINE
8
BLACK
6
CONTINUOUS
10
0.8726605118110236
20
0.9308016141732284
11
0.8691983858267717
21
0.9273394881889764
0
LINE
8
BLACK
6
CONTINUOUS
10
0.8691983858267717
20
0.9273394881889764
11
0.8648358661417322
21
0.9251166929133858
0
LINE
8
BLACK
6
CONTINUOUS
10
0.8648358661417322
20
0.9251166929133858
11
0.86
21
0.9243507480314961
0
LINE
8
BLACK
6
CONTINUOUS
10
0.86
20
0.9243507480314961
11
0.8551641338582677
21
0.9251166929133858
0
LINE
8
BLACK
6
CONTINUOUS
10
0.8551641338582677
20
0.9251166929133858
11
0.8508016141732283
21
0.9273394881889764
0
LINE
8
BLACK
6
CONTINUOUS
10
0.8508016141732283
20
0.9273394881889764
11
0.8473394881889763
21
0.9308016141732284
0
LINE
8
BLACK
6
CONTINUOUS
10
0.8473394881889763
20
0.9308016141732284
11
0.8451166929133858
21
0.9351641338582677
0
LINE
8
BLACK
6
CONTINUOUS
10
0.8451166929133858
20
0.9351641338582677
11
0.844350748031496
21
0.9399999999999999
0
LINE
8
BLACK
6
CONTINUOUS
10
0.844350748031496
20
0.9399999999999999
11
0.8451166929133858
21
0.9448358661417323
0
LINE
8
BLACK
6
CONTINUOUS
10
0.8451166929133858
20
0.9448358661417323
11
0.8473394881889763
21
0.9491983858267716
0
LINE
8
BLACK
6
CONTINUOUS
10
0.8473394881889763
20
0.9491983858267716
11
0.8508016141732283
21
0.9526605118110236
0
LINE
8
BLACK
6
CONTINUOUS
10
0.8508016141732283
20
0.9526605118110236
11
0.8551641338582677
21
0.9548833070866142
0
LINE
8
BLACK
6
CONTINUOUS
10
0.8551641338582677
20
0.9548833070866142
11
0.86
21
0.9556492519685039
0
LINE
8
BLACK
6
CONTINUOUS
10
0.86
20
0.9556492519685039
11
0.8648358661417322
21
0.9548833070866142
0
LINE
8
BLACK
6
CONTINUOUS
10
0.8595030708661417
20
0.9395030708661417
11
0.86
21
0.9392972440944881
0
LINE
8
BLACK
6
CONTINUOUS
10
0.86
20
0.9392972440944881
11
0.8604969291338582
21
0.9395030708661417
0
LINE
8
BLACK
6
CONTINUOUS
10
0.8604969291338582
20
0.9395030708661417
11
0.8607027559055118
21
0.9399999999999999
0
LINE
8
BLACK
6
CONTINUOUS
10
0.8607027559055118
20
0.9399999999999999
11
0.8604969291338582
21
0.9404969291338583
0
LINE
8
BLACK
6
CONTINUOUS
10
0.8604969291338582
20
0.9404969291338583
11
0.86
21
0.9407027559055118
0
LINE
8
BLACK
6
CONTINUOUS
10
0.86
20
0.9407027559055118
11
0.8595030708661417
21
0.9404969291338583
0
LINE
8
BLACK
6
CONTINUOUS
10
0.8595030708661417
20
0.9404969291338583
11
0.8592972440944882
21
0.9399999999999999
0
LINE
8
BLACK
6
CONTINUOUS
10
0.8592972440944882
20
0.9399999999999999
11
0.8595030708661417
21
0.9395030708661417
0
LINE
8
BLACK
6
CONTINUOUS
10
1.1848358661417322
20
0.9548833070866142
11
1.1891983858267716
21
0.9526605118110236
0
LINE
8
BLACK
6
CONTINUOUS
10
1.1891983858267716
20
0.9526605118110236
11
1.1926605118110236
21
0.9491983858267716
0
LINE
8
BLACK
6
CONTINUOUS
10
1.1926605118110236
20
0.9491983858267716
11
1.1948833070866141
21
0.9448358661417323
0
LINE
8
BLACK
6
CONTINUOUS
10
1.1948833070866141
20
0.9448358661417323
11
1.1956492519685038
21
0.9399999999999999
0
LINE
8
BLACK
6
CONTINUOUS
10
1.1956492519685038
20
0.9399999999999999
11
1.1948833070866141
21
0.9351641338582677
0
LINE
8
BLACK
6
CONTINUOUS
10
1.1948833070866141
20
0.9351641338582677
11
1.1926605118110236
21
0.9308016141732284
0
LINE
8
BLACK
6
CONTINUOUS
10
1.1926605118110236
20
0.9308016141732284
11
1.1891983858267716
21
0.9273394881889764
0
LINE
8
BLACK
6
CONTINUOUS
10
1.1891983858267716
20
0.9273394881889764
11
1.1848358661417322
21
0.9251166929133858
0
LINE
8
BLACK
6
CONTINUOUS
10
1.1848358661417322
20
0.9251166929133858
11
1.1799999999999999
21
0.9243507480314961
0
LINE
8
BLACK
6
CONTINUOUS
10
1.1799999999999999
20
0.9243507480314961
11
1.1751641338582677
21
0.9251166929133858
0
LINE
8
BLACK
6
CONTINUOUS
10
1.1751641338582677
20
0.9251166929133858
11
1.1708016141732283
21
0.9273394881889764
0
LINE
8
BLACK
6
CONTINUOUS
10
1.1708016141732283
20
0.9273394881889764
11
1.1673394881889763
21
0.9308016141732284
0
LINE
8
BLACK
6
CONTINUOUS
10
1.1673394881889763
20
0.9308016141732284
11
1.1651166929133858
21
0.9351641338582677
0
LINE
8
BLACK
6
CONTINUOUS
10
1.1651166929133858
20
0.9351641338582677
11
1.1643507480314961
21
0.9399999999999999
0
LINE
8
BLACK
6
CONTINUOUS
10
1.1643507480314961
20
0.9399999999999999
11
1.1651166929133858
21
0.9448358661417323
0
LINE
8
BLACK
6
CONTINUOUS
10
1.1651166929133858
20
0.9448358661417323
11
1.1673394881889763
21
0.9491983858267716
0
LINE
8
BLACK
6
CONTINUOUS
10
1.1673394881889763
20
0.9491983858267716
11
1.1708016141732283
21
0.9526605118110236
0
LINE
8
BLACK
6
CONTINUOUS
10
1.1708016141732283
20
0.9526605118110236
11
1.1751641338582677
21
0.9548833070866142
0
LINE
8
BLACK
6
CONTINUOUS
10
1.1751641338582677
20
0.9548833070866142
11
1.1799999999999999
21
0.9556492519685039
0
LINE
8
BLACK
6
CONTINUOUS
10
1.1799999999999999
20
0.9556492519685039
11
1.1848358661417322
21
0.9548833070866142
0
LINE
8
BLACK
6
CONTINUOUS
10
1.1795030708661418
20
0.9395030708661417
11
1.1799999999999999
21
0.9392972440944881
0
LINE
8
BLACK
6
CONTINUOUS
10
1.1799999999999999
20
0.9392972440944881
11
1.1804969291338583
21
0.9395030708661417
0
LINE
8
BLACK
6
CONTINUOUS
10
1.1804969291338583
20
0.9395030708661417
11
1.1807027559055119
21
0.9399999999999999
0
LINE
8
BLACK
6
CONTINUOUS
10
1.1807027559055119
20
0.9399999999999999
11
1.1804969291338583
21
0.9404969291338583
0
LINE
8
BLACK
6
CONTINUOUS
10
1.1804969291338583
20
0.9404969291338583
11
1.1799999999999999
21
0.9407027559055118
0
LINE
8
BLACK
6
CONTINUOUS
10
1.1799999999999999
20
0.9407027559055118
11
1.1795030708661418
21
0.9404969291338583
0
LINE
8
BLACK
6
CONTINUOUS
10
1.1795030708661418
20
0.9404969291338583
11
1.1792972440944882
21
0.9399999999999999
0
LINE
8
BLACK
6
CONTINUOUS
10
1.1792972440944882
20
0.9399999999999999
11
1.1795030708661418
21
0.9395030708661417
0
LINE
8
BLACK
6
CONTINUOUS
10
1.4648358661417322
20
1.0548833070866142
11
1.4691983858267716
21
1.0526605118110235
0
LINE
8
BLACK
6
CONTINUOUS
10
1.4691983858267716
20
1.0526605118110235
11
1.4726605118110236
21
1.0491983858267717
0
LINE
8
BLACK
6
CONTINUOUS
10
1.4726605118110236
20
1.0491983858267717
11
1.4748833070866141
21
1.0448358661417323
0
LINE
8
BLACK
6
CONTINUOUS
10
1.4748833070866141
20
1.0448358661417323
11
1.4756492519685038
21
1.04
0
LINE
8
BLACK
6
CONTINUOUS
10
1.4756492519685038
20
1.04
11
1.4748833070866141
21
1.0351641338582678
0
LINE
8
BLACK
6
CONTINUOUS
10
1.4748833070866141
20
1.0351641338582678
11
1.4726605118110236
21
1.0308016141732284
0
LINE
8
BLACK
6
CONTINUOUS
10
1.4726605118110236
20
1.0308016141732284
11
1.4691983858267716
21
1.0273394881889764
0
LINE
8
BLACK
6
CONTINUOUS
10
1.4691983858267716
20
1.0273394881889764
11
1.4648358661417322
21
1.0251166929133857
0
LINE
8
BLACK
6
CONTINUOUS
10
1.4648358661417322
20
1.0251166929133857
11
1.46
21
1.024350748031496
0
LINE
8
BLACK
6
CONTINUOUS
10
1.46
20
1.024350748031496
11
1.4551641338582677
21
1.0251166929133857
0
LINE
8
BLACK
6
CONTINUOUS
10
1.4551641338582677
20
1.0251166929133857
11
1.4508016141732283
21
1.0273394881889764
0
LINE
8
BLACK
6
CONTINUOUS
10
1.4508016141732283
20
1.0273394881889764
11
1.4473394881889763
21
1.0308016141732284
0
LINE
8
BLACK
6
CONTINUOUS
10
1.4473394881889763
20
1.0308016141732284
11
1.4451166929133858
21
1.0351641338582678
0
LINE
8
BLACK
6
CONTINUOUS
10
1.4451166929133858
20
1.0351641338582678
11
1.4443507480314961
21
1.04
0
LINE
8
BLACK
6
CONTINUOUS
10
1.4443507480314961
20
1.04
11
1.4451166929133858
21
1.0448358661417323
0
LINE
8
BLACK
6
CONTINUOUS
10
1.4451166929133858
20
1.0448358661417323
11
1.4473394881889763
21
1.0491983858267717
0
LINE
8
BLACK
6
CONTINUOUS
10
1.4473394881889763
20
1.0491983858267717
11
1.4508016141732283
21
1.0526605118110235
0
LINE
8
BLACK
6
CONTINUOUS
10
1.4508016141732283
20
1.0526605118110235
11
1.4551641338582677
21
1.0548833070866142
0
LINE
8
BLACK
6
CONTINUOUS
10
1.4551641338582677
20
1.0548833070866142
11
1.46
21
1.0556492519685039
0
LINE
8
BLACK
6
CONTINUOUS
10
1.46
20
1.0556492519685039
11
1.4648358661417322
21
1.0548833070866142
0
LINE
8
BLACK
6
CONTINUOUS
10
1.4595030708661416
20
1.0395030708661417
11
1.46
21
1.0392972440944881
0
LINE
8
BLACK
6
CONTINUOUS
10
1.46
20
1.0392972440944881
11
1.4604969291338583
21
1.0395030708661417
0
LINE
8
BLACK
6
CONTINUOUS
10
1.4604969291338583
20
1.0395030708661417
11
1.4607027559055117
21
1.04
0
LINE
8
BLACK
6
CONTINUOUS
10
1.4607027559055117
20
1.04
11
1.4604969291338583
21
1.0404969291338582
0
LINE
8
BLACK
6
CONTINUOUS
10
1.4604969291338583
20
1.0404969291338582
11
1.46
21
1.0407027559055118
0
LINE
8
BLACK
6
CONTINUOUS
10
1.46
20
1.0407027559055118
11
1.4595030708661416
21
1.0404969291338582
0
LINE
8
BLACK
6
CONTINUOUS
10
1.4595030708661416
20
1.0404969291338582
11
1.4592972440944882
21
1.04
0
LINE
8
BLACK
6
CONTINUOUS
10
1.4592972440944882
20
1.04
11
1.4595030708661416
21
1.0395030708661417
0
LINE
8
BLACK
6
CONTINUOUS
10
0.2248358661417323
20
1.1348833070866142
11
0.2291983858267717
21
1.1326605118110236
0
LINE
8
BLACK
6
CONTINUOUS
10
0.2291983858267717
20
1.1326605118110236
11
0.2326605118110236
21
1.1291983858267716
0
LINE
8
BLACK
6
CONTINUOUS
10
0.2326605118110236
20
1.1291983858267716
11
0.2348833070866142
21
1.1248358661417324
0
LINE
8
BLACK
6
CONTINUOUS
10
0.2348833070866142
20
1.1248358661417324
11
0.2356492519685039
21
1.1199999999999999
0
LINE
8
BLACK
6
CONTINUOUS
10
0.2356492519685039
20
1.1199999999999999
11
0.2348833070866142
21
1.1151641338582676
0
LINE
8
BLACK
6
CONTINUOUS
10
0.2348833070866142
20
1.1151641338582676
11
0.2326605118110236
21
1.1108016141732284
0
LINE
8
BLACK
6
CONTINUOUS
10
0.2326605118110236
20
1.1108016141732284
11
0.2291983858267717
21
1.1073394881889764
0
LINE
8
BLACK
6
CONTINUOUS
10
0.2291983858267717
20
1.1073394881889764
11
0.2248358661417323
21
1.1051166929133858
0
LINE
8
BLACK
6
CONTINUOUS
10
0.2248358661417323
20
1.1051166929133858
11
0.22
21
1.104350748031496
0
LINE
8
BLACK
6
CONTINUOUS
10
0.22
20
1.104350748031496
11
0.2151641338582677
21
1.1051166929133858
0
LINE
8
BLACK
6
CONTINUOUS
10
0.2151641338582677
20
1.1051166929133858
11
0.2108016141732283
21
1.1073394881889764
0
LINE
8
BLACK
6
CONTINUOUS
10
0.2108016141732283
20
1.1073394881889764
11
0.2073394881889764
21
1.1108016141732284
0
LINE
8
BLACK
6
CONTINUOUS
10
0.2073394881889764
20
1.1108016141732284
11
0.2051166929133858
21
1.1151641338582676
0
LINE
8
BLACK
6
CONTINUOUS
10
0.2051166929133858
20
1.1151641338582676
11
0.2043507480314961
21
1.1199999999999999
0
LINE
8
BLACK
6
CONTINUOUS
10
0.2043507480314961
20
1.1199999999999999
11
0.2051166929133858
21
1.1248358661417324
0
LINE
8
BLACK
6
CONTINUOUS
10
0.2051166929133858
20
1.1248358661417324
11
0.2073394881889764
21
1.1291983858267716
0
LINE
8
BLACK
6
CONTINUOUS
10
0.2073394881889764
20
1.1291983858267716
11
0.2108016141732283
21
1.1326605118110236
0
LINE
8
BLACK
6
CONTINUOUS
10
0.2108016141732283
20
1.1326605118110236
11
0.2151641338582677
21
1.1348833070866142
0
LINE
8
BLACK
6
CONTINUOUS
10
0.2151641338582677
20
1.1348833070866142
11
0.22
21
1.135649251968504
0
LINE
8
BLACK
6
CONTINUOUS
10
0.22
20
1.135649251968504
11
0.2248358661417323
21
1.1348833070866142
0
LINE
8
BLACK
6
CONTINUOUS
10
0.2195030708661417
20
1.1195030708661418
11
0.22
21
1.1192972440944882
0
LINE
8
BLACK
6
CONTINUOUS
10
0.22
20
1.1192972440944882
11
0.2204969291338583
21
1.1195030708661418
0
LINE
8
BLACK
6
CONTINUOUS
10
0.2204969291338583
20
1.1195030708661418
11
0.2207027559055118
21
1.1199999999999999
0
LINE
8
BLACK
6
CONTINUOUS
10
0.2207027559055118
20
1.1199999999999999
11
0.2204969291338583
21
1.1204969291338582
0
LINE
8
BLACK
6
CONTINUOUS
10
0.2204969291338583
20
1.1204969291338582
11
0.22
21
1.1207027559055118
0
LINE
8
BLACK
6
CONTINUOUS
10
0.22
20
1.1207027559055118
11
0.2195030708661417
21
1.1204969291338582
0
LINE
8
BLACK
6
CONTINUOUS
10
0.2195030708661417
20
1.1204969291338582
11
0.2192972440944882
21
1.1199999999999999
0
LINE
8
BLACK
6
CONTINUOUS
10
0.2192972440944882
20
1.1199999999999999
11
0.2195030708661417
21
1.1195030708661418
0
LINE
8
BLACK
6
CONTINUOUS
10
0.5448358661417323
20
1.1348833070866142
11
0.5491983858267716
21
1.1326605118110236
0
LINE
8
BLACK
6
CONTINUOUS
10
0.5491983858267716
20
1.1326605118110236
11
0.5526605118110236
21
1.1291983858267716
0
LINE
8
BLACK
6
CONTINUOUS
10
0.5526605118110236
20
1.1291983858267716
11
0.5548833070866142
21
1.1248358661417324
0
LINE
8
BLACK
6
CONTINUOUS
10
0.5548833070866142
20
1.1248358661417324
11
0.5556492519685039
21
1.1199999999999999
0
LINE
8
BLACK
6
CONTINUOUS
10
0.5556492519685039
20
1.1199999999999999
11
0.5548833070866142
21
1.1151641338582676
0
LINE
8
BLACK
6
CONTINUOUS
10
0.5548833070866142
20
1.1151641338582676
11
0.5526605118110236
21
1.1108016141732284
0
LINE
8
BLACK
6
CONTINUOUS
10
0.5526605118110236
20
1.1108016141732284
11
0.5491983858267716
21
1.1073394881889764
0
LINE
8
BLACK
6
CONTINUOUS
10
0.5491983858267716
20
1.1073394881889764
11
0.5448358661417323
21
1.1051166929133858
0
LINE
8
BLACK
6
CONTINUOUS
10
0.5448358661417323
20
1.1051166929133858
11
0.54
21
1.104350748031496
0
LINE
8
BLACK
6
CONTINUOUS
10
0.54
20
1.104350748031496
11
0.5351641338582677
21
1.1051166929133858
0
LINE
8
BLACK
6
CONTINUOUS
10
0.5351641338582677
20
1.1051166929133858
11
0.5308016141732284
21
1.1073394881889764
0
LINE
8
BLACK
6
CONTINUOUS
10
0.5308016141732284
20
1.1073394881889764
11
0.5273394881889764
21
1.1108016141732284
0
LINE
8
BLACK
6
CONTINUOUS
10
0.5273394881889764
20
1.1108016141732284
11
0.5251166929133858
21
1.1151641338582676
0
LINE
8
BLACK
6
CONTINUOUS
10
0.5251166929133858
20
1.1151641338582676
11
0.5243507480314961
21
1.1199999999999999
0
LINE
8
BLACK
6
CONTINUOUS
10
0.5243507480314961
20
1.1199999999999999
11
0.5251166929133858
21
1.1248358661417324
0
LINE
8
BLACK
6
CONTINUOUS
10
0.5251166929133858
20
1.1248358661417324
11
0.5273394881889764
21
1.1291983858267716
0
LINE
8
BLACK
6
CONTINUOUS
10
0.5273394881889764
20
1.1291983858267716
11
0.5308016141732284
21
1.1326605118110236
0
LINE
8
BLACK
6
CONTINUOUS
10
0.5308016141732284
20
1.1326605118110236
11
0.5351641338582677
21
1.1348833070866142
0
LINE
8
BLACK
6
CONTINUOUS
10
0.5351641338582677
20
1.1348833070866142
11
0.54
21
1.135649251968504
0
LINE
8
BLACK
6
CONTINUOUS
10
0.54
20
1.135649251968504
11
0.5448358661417323
21
1.1348833070866142
0
LINE
8
BLACK
6
CONTINUOUS
10
0.5395030708661417
20
1.1195030708661418
11
0.54
21
1.1192972440944882
0
LINE
8
BLACK
6
CONTINUOUS
10
0.54
20
1.1192972440944882
11
0.5404969291338583
21
1.1195030708661418
0
LINE
8
BLACK
6
CONTINUOUS
10
0.5404969291338583
20
1.1195030708661418
11
0.5407027559055118
21
1.1199999999999999
0
LINE
8
BLACK
6
CONTINUOUS
10
0.5407027559055118
20
1.1199999999999999
11
0.5404969291338583
21
1.1204969291338582
0
LINE
8
BLACK
6
CONTINUOUS
10
0.5404969291338583
20
1.1204969291338582
11
0.54
21
1.1207027559055118
0
LINE
8
BLACK
6
CONTINUOUS
10
0.54
20
1.1207027559055118
11
0.5395030708661417
21
1.1204969291338582
0
LINE
8
BLACK
6
CONTINUOUS
10
0.5395030708661417
20
1.1204969291338582
11
0.5392972440944882
21
1.1199999999999999
0
LINE
8
BLACK
6
CONTINUOUS
10
0.5392972440944882
20
1.1199999999999999
11
0.5395030708661417
21
1.1195030708661418
0
LINE
8
BLACK
6
CONTINUOUS
10
0.8648358661417322
20
1.1348833070866142
11
0.8691983858267717
21
1.1326605118110236
0
LINE
8
BLACK
6
CONTINUOUS
10
0.8691983858267717
20
1.1326605118110236
11
0.8726605118110236
21
1.1291983858267716
0
LINE
8
BLACK
6
CONTINUOUS
10
0.8726605118110236
20
1.1291983858267716
11
0.8748833070866141
21
1.1248358661417324
0
LINE
8
BLACK
6
CONTINUOUS
10
0.8748833070866141
20
1.1248358661417324
11
0.875649251968504
21
1.1199999999999999
0
LINE
8
BLACK
6
CONTINUOUS
10
0.875649251968504
20
1.1199999999999999
11
0.8748833070866141
21
1.1151641338582676
0
LINE
8
BLACK
6
CONTINUOUS
10
0.8748833070866141
20
1.1151641338582676
11
0.8726605118110236
21
1.1108016141732284
0
LINE
8
BLACK
6
CONTINUOUS
10
0.8726605118110236
20
1.1108016141732284
11
0.8691983858267717
21
1.1073394881889764
0
LINE
8
BLACK
6
CONTINUOUS
10
0.8691983858267717
20
1.1073394881889764
11
0.8648358661417322
21
1.1051166929133858
0
LINE
8
BLACK
6
CONTINUOUS
10
0.8648358661417322
20
1.1051166929133858
11
0.86
21
1.104350748031496
0
LINE
8
BLACK
6
CONTINUOUS
10
0.86
20
1.104350748031496
11
0.8551641338582677
21
1.1051166929133858
0
LINE
8
BLACK
6
CONTINUOUS
10
0.8551641338582677
20
1.1051166929133858
11
0.8508016141732283
21
1.1073394881889764
0
LINE
8
BLACK
6
CONTINUOUS
10
0.8508016141732283
20
1.1073394881889764
11
0.8473394881889763
21
1.1108016141732284
0
LINE
8
BLACK
6
CONTINUOUS
10
0.8473394881889763
20
1.1108016141732284
11
0.8451166929133858
21
1.1151641338582676
0
LINE
8
BLACK
6
CONTINUOUS
10
0.8451166929133858
20
1.1151641338582676
11
0.844350748031496
21
1.1199999999999999
0
LINE
8
BLACK
6
CONTINUOUS
10
0.844350748031496
20
1.1199999999999999
11
0.8451166929133858
21
1.1248358661417324
0
LINE
8
BLACK
6
CONTINUOUS
10
0.8451166929133858
20
1.1248358661417324
11
0.8473394881889763
21
1.1291983858267716
0
LINE
8
BLACK
6
CONTINUOUS
10
0.8473394881889763
20
1.1291983858267716
11
0.8508016141732283
21
1.1326605118110236
0
LINE
8
BLACK
6
CONTINUOUS
10
0.8508016141732283
20
1.1326605118110236
11
0.8551641338582677
21
1.1348833070866142
0
LINE
8
BLACK
6
CONTINUOUS
10
0.8551641338582677
20
1.1348833070866142
11
0.86
21
1.135649251968504
0
LINE
8
BLACK
6
CONTINUOUS
10
0.86
20
1.135649251968504
11
0.8648358661417322
21
1.1348833070866142
0
LINE
8
BLACK
6
CONTINUOUS
10
0.8595030708661417
20
1.1195030708661418
11
0.86
21
1.1192972440944882
0
LINE
8
BLACK
6
CONTINUOUS
10
0.86
20
1.1192972440944882
11
0.8604969291338582
21
1.1195030708661418
0
LINE
8
BLACK
6
CONTINUOUS
10
0.8604969291338582
20
1.1195030708661418
11
0.8607027559055118
21
1.1199999999999999
0
LINE
8
BLACK
6
CONTINUOUS
10
0.8607027559055118
20
1.1199999999999999
11
0.8604969291338582
21
1.1204969291338582
0
LINE
8
BLACK
6
CONTINUOUS
10
0.8604969291338582
20
1.1204969291338582
11
0.86
21
1.1207027559055118
0
LINE
8
BLACK
6
CONTINUOUS
10
0.86
20
1.1207027559055118
11
0.8595030708661417
21
1.1204969291338582
0
LINE
8
BLACK
6
CONTINUOUS
10
0.8595030708661417
20
1.1204969291338582
11
0.8592972440944882
21
1.1199999999999999
0
LINE
8
BLACK
6
CONTINUOUS
10
0.8592972440944882
20
1.1199999999999999
11
0.8595030708661417
21
1.1195030708661418
0
LINE
8
BLACK
6
CONTINUOUS
10
1.1848358661417322
20
1.1348833070866142
11
1.1891983858267716
21
1.1326605118110236
0
LINE
8
BLACK
6
CONTINUOUS
10
1.1891983858267716
20
1.1326605118110236
11
1.1926605118110236
21
1.1291983858267716
0
LINE
8
BLACK
6
CONTINUOUS
10
1.1926605118110236
20
1.1291983858267716
11
1.1948833070866141
21
1.1248358661417324
0
LINE
8
BLACK
6
CONTINUOUS
10
1.1948833070866141
20
1.1248358661417324
11
1.1956492519685038
21
1.1199999999999999
0
LINE
8
BLACK
6
CONTINUOUS
10
1.1956492519685038
20
1.1199999999999999
11
1.1948833070866141
21
1.1151641338582676
0
LINE
8
BLACK
6
CONTINUOUS
10
1.1948833070866141
20
1.1151641338582676
11
1.1926605118110236
21
1.1108016141732284
0
LINE
8
BLACK
6
CONTINUOUS
10
1.1926605118110236
20
1.1108016141732284
11
1.1891983858267716
21
1.1073394881889764
0
LINE
8
BLACK
6
CONTINUOUS
10
1.1891983858267716
20
1.1073394881889764
11
1.1848358661417322
21
1.1051166929133858
0
LINE
8
BLACK
6
CONTINUOUS
10
1.1848358661417322
20
1.1051166929133858
11
1.1799999999999999
21
1.104350748031496
0
LINE
8
BLACK
6
CONTINUOUS
10
1.1799999999999999
20
1.104350748031496
11
1.1751641338582677
21
1.1051166929133858
0
LINE
8
BLACK
6
CONTINUOUS
10
1.1751641338582677
20
1.1051166929133858
11
1.1708016141732283
21
1.1073394881889764
0
LINE
8
BLACK
6
CONTINUOUS
10
1.1708016141732283
20
1.1073394881889764
11
1.1673394881889763
21
1.1108016141732284
0
LINE
8
BLACK
6
CONTINUOUS
10
1.1673394881889763
20
1.1108016141732284
11
1.1651166929133858
21
1.1151641338582676
0
LINE
8
BLACK
6
CONTINUOUS
10
1.1651166929133858
20
1.1151641338582676
11
1.1643507480314961
21
1.1199999999999999
0
LINE
8
BLACK
6
CONTINUOUS
10
1.1643507480314961
20
1.1199999999999999
11
1.1651166929133858
21
1.1248358661417324
0
LINE
8
BLACK
6
CONTINUOUS
10
1.1651166929133858
20
1.1248358661417324
11
1.1673394881889763
21
1.1291983858267716
0
LINE
8
BLACK
6
CONTINUOUS
10
1.1673394881889763
20
1.1291983858267716
11
1.1708016141732283
21
1.1326605118110236
0
LINE
8
BLACK
6
CONTINUOUS
10
1.1708016141732283
20
1.1326605118110236
11
1.1751641338582677
21
1.1348833070866142
0
LINE
8
BLACK
6
CONTINUOUS
10
1.1751641338582677
20
1.1348833070866142
11
1.1799999999999999
21
1.135649251968504
0
LINE
8
BLACK
6
CONTINUOUS
10
1.1799999999999999
20
1.135649251968504
11
1.1848358661417322
21
1.1348833070866142
0
LINE
8
BLACK
6
CONTINUOUS
10
1.1795030708661418
20
1.1195030708661418
11
1.1799999999999999
21
1.1192972440944882
0
LINE
8
BLACK
6
CONTINUOUS
10
1.1799999999999999
20
1.1192972440944882
11
1.1804969291338583
21
1.1195030708661418
0
LINE
8
BLACK
6
CONTINUOUS
10
1.1804969291338583
20
1.1195030708661418
11
1.1807027559055119
21
1.1199999999999999
0
LINE
8
BLACK
6
CONTINUOUS
10
1.1807027559055119
20
1.1199999999999999
11
1.1804969291338583
21
1.1204969291338582
0
LINE
8
BLACK
6
CONTINUOUS
10
1.1804969291338583
20
1.1204969291338582
11
1.1799999999999999
21
1.1207027559055118
0
LINE
8
BLACK
6
CONTINUOUS
10
1.1799999999999999
20
1.1207027559055118
11
1.1795030708661418
21
1.1204969291338582
0
LINE
8
BLACK
6
CONTINUOUS
10
1.1795030708661418
20
1.1204969291338582
11
1.1792972440944882
21
1.1199999999999999
0
LINE
8
BLACK
6
CONTINUOUS
10
1.1792972440944882
20
1.1199999999999999
11
1.1795030708661418
21
1.1195030708661418
0
LINE
8
BLACK
6
CONTINUOUS
10
0.2205096456692913
20
1.5163158661417322
11
0.2338744094488189
21
1.5131483858267716
0
LINE
8
BLACK
6
CONTINUOUS
10
0.2338744094488189
20
1.5131483858267716
11
0.246781062992126
21
1.5084507086614174
0
LINE
8
BLACK
6
CONTINUOUS
10
0.246781062992126
20
1.5084507086614174
11
0.2590551181102362
21
1.5022864566929133
0
LINE
8
BLACK
6
CONTINUOUS
10
0.2590551181102362
20
1.5022864566929133
11
0.2705305511811024
21
1.4947389763779528
0
LINE
8
BLACK
6
CONTINUOUS
10
0.2705305511811024
20
1.4947389763779528
11
0.2810521653543307
21
1.4859102755905511
0
LINE
8
BLACK
6
CONTINUOUS
10
0.2810521653543307
20
1.4859102755905511
11
0.2904776771653543
21
1.4759198031496064
0
LINE
8
BLACK
6
CONTINUOUS
10
0.2904776771653543
20
1.4759198031496064
11
0.2986796456692913
21
1.4649026377952756
0
LINE
8
BLACK
6
CONTINUOUS
10
0.2986796456692913
20
1.4649026377952756
11
0.3055471653543307
21
1.4530077952755904
0
LINE
8
BLACK
6
CONTINUOUS
10
0.3055471653543307
20
1.4530077952755904
11
0.3109873228346456
21
1.440396062992126
0
LINE
8
BLACK
6
CONTINUOUS
10
0.3109873228346456
20
1.440396062992126
11
0.3149265748031496
21
1.4272381102362204
0
LINE
8
BLACK
6
CONTINUOUS
10
0.3149265748031496
20
1.4272381102362204
11
0.3173116141732283
21
1.4137117716535432
0
LINE
8
BLACK
6
CONTINUOUS
10
0.3173116141732283
20
1.4137117716535432
11
0.3181102362204724
21
1.3999999999999999
0
LINE
8
BLACK
6
CONTINUOUS
10
0.3181102362204724
20
1.3999999999999999
11
0.3173116141732283
21
1.3862882283464566
0
LINE
8
BLACK
6
CONTINUOUS
10
0.3173116141732283
20
1.3862882283464566
11
0.3149265748031496
21
1.3727618897637794
0
LINE
8
BLACK
6
CONTINUOUS
10
0.3149265748031496
20
1.3727618897637794
11
0.3109873228346456
21
1.3596039370078741
0
LINE
8
BLACK
6
CONTINUOUS
10
0.3109873228346456
20
1.3596039370078741
11
0.3055471653543307
21
1.3469922047244094
0
LINE
8
BLACK
6
CONTINUOUS
10
0.3055471653543307
20
1.3469922047244094
11
0.2986796456692913
21
1.3350973622047244
0
LINE
8
BLACK
6
CONTINUOUS
10
0.2986796456692913
20
1.3350973622047244
11
0.2904776771653543
21
1.3240801968503937
0
LINE
8
BLACK
6
CONTINUOUS
10
0.2904776771653543
20
1.3240801968503937
11
0.2810521653543307
21
1.3140897244094487
0
LINE
8
BLACK
6
CONTINUOUS
10
0.2810521653543307
20
1.3140897244094487
11
0.2705305511811024
21
1.3052610236220472
0
LINE
8
BLACK
6
CONTINUOUS
10
0.2705305511811024
20
1.3052610236220472
11
0.2590551181102362
21
1.2977135433070865
0
LINE
8
BLACK
6
CONTINUOUS
10
0.2590551181102362
20
1.2977135433070865
11
0.246781062992126
21
1.2915492913385827
0
LINE
8
BLACK
6
CONTINUOUS
10
0.246781062992126
20
1.2915492913385827
11
0.2338744094488189
21
1.2868516141732282
0
LINE
8
BLACK
6
CONTINUOUS
10
0.2338744094488189
20
1.2868516141732282
11
0.2205096456692913
21
1.2836841338582676
0
LINE
8
BLACK
6
CONTINUOUS
10
0.2205096456692913
20
1.2836841338582676
11
0.2068674803149606
21
1.2820896062992126
0
LINE
8
BLACK
6
CONTINUOUS
10
0.2068674803149606
20
1.2820896062992126
11
0.1931325196850394
21
1.2820896062992126
0
LINE
8
BLACK
6
CONTINUOUS
10
0.1931325196850394
20
1.2820896062992126
11
0.1794903543307086
21
1.2836841338582676
0
LINE
8
BLACK
6
CONTINUOUS
10
0.1794903543307086
20
1.2836841338582676
11
0.1661255905511811
21
1.2868516141732282
0
LINE
8
BLACK
6
CONTINUOUS
10
0.1661255905511811
20
1.2868516141732282
11
0.153218937007874
21
1.2915492913385827
0
LINE
8
BLACK
6
CONTINUOUS
10
0.153218937007874
20
1.2915492913385827
11
0.1409448818897638
21
1.2977135433070865
0
LINE
8
BLACK
6
CONTINUOUS
10
0.1409448818897638
20
1.2977135433070865
11
0.1294694488188976
21
1.3052610236220472
0
LINE
8
BLACK
6
CONTINUOUS
10
0.1294694488188976
20
1.3052610236220472
11
0.1189478346456693
21
1.3140897244094487
0
LINE
8
BLACK
6
CONTINUOUS
10
0.1189478346456693
20
1.3140897244094487
11
0.1095223228346457
21
1.3240801968503937
0
LINE
8
BLACK
6
CONTINUOUS
10
0.1095223228346457
20
1.3240801968503937
11
0.1013203543307087
21
1.3350973622047244
0
LINE
8
BLACK
6
CONTINUOUS
10
0.1013203543307087
20
1.3350973622047244
11
0.0944528346456693
21
1.3469922047244094
0
LINE
8
BLACK
6
CONTINUOUS
10
0.0944528346456693
20
1.3469922047244094
11
0.0890126771653543
21
1.3596039370078741
0
LINE
8
BLACK
6
CONTINUOUS
10
0.0890126771653543
20
1.3596039370078741
11
0.0850734251968504
21
1.3727618897637794
0
LINE
8
BLACK
6
CONTINUOUS
10
0.0850734251968504
20
1.3727618897637794
11
0.0826883858267717
21
1.3862882283464566
0
LINE
8
BLACK
6
CONTINUOUS
10
0.0826883858267717
20
1.3862882283464566
11
0.0818897637795276
21
1.3999999999999999
0
LINE
8
BLACK
6
CONTINUOUS
10
0.0818897637795276
20
1.3999999999999999
11
0.0826883858267717
21
1.4137117716535432
0
LINE
8
BLACK
6
CONTINUOUS
10
0.0826883858267717
20
1.4137117716535432
11
0.0850734251968504
21
1.4272381102362204
0
LINE
8
BLACK
6
CONTINUOUS
10
0.0850734251968504
20
1.4272381102362204
11
0.0890126771653543
21
1.440396062992126
0
LINE
8
BLACK
6
CONTINUOUS
10
0.0890126771653543
20
1.440396062992126
11
0.0944528346456693
21
1.4530077952755904
0
LINE
8
BLACK
6
CONTINUOUS
10
0.0944528346456693
20
1.4530077952755904
11
0.1013203543307087
21
1.4649026377952756
0
LINE
8
BLACK
6
CONTINUOUS
10
0.1013203543307087
20
1.4649026377952756
11
0.1095223228346457
21
1.4759198031496064
0
LINE
8
BLACK
6
CONTINUOUS
10
0.1095223228346457
20
1.4759198031496064
11
0.1189478346456693
21
1.4859102755905511
0
LINE
8
BLACK
6
CONTINUOUS
10
0.1189478346456693
20
1.4859102755905511
11
0.1294694488188976
21
1.4947389763779528
0
LINE
8
BLACK
6
CONTINUOUS
10
0.1294694488188976
20
1.4947389763779528
11
0.1409448818897638
21
1.5022864566929133
0
LINE
8
BLACK
6
CONTINUOUS
10
0.1409448818897638
20
1.5022864566929133
11
0.153218937007874
21
1.5084507086614174
0
LINE
8
BLACK
6
CONTINUOUS
10
0.153218937007874
20
1.5084507086614174
11
0.1661255905511811
21
1.5131483858267716
0
LINE
8
BLACK
6
CONTINUOUS
10
0.1661255905511811
20
1.5131483858267716
11
0.1794903543307086
21
1.5163158661417322
0
LINE
8
BLACK
6
CONTINUOUS
10
0.1794903543307086
20
1.5163158661417322
11
0.1931325196850394
21
1.5179103937007874
0
LINE
8
BLACK
6
CONTINUOUS
10
0.1931325196850394
20
1.5179103937007874
11
0.2068674803149606
21
1.5179103937007874
0
LINE
8
BLACK
6
CONTINUOUS
10
0.2068674803149606
20
1.5179103937007874
11
0.2205096456692913
21
1.5163158661417322
0
LINE
8
BLACK
6
CONTINUOUS
10
1.4205096456692914
20
1.5163158661417322
11
1.4338744094488189
21
1.5131483858267716
0
LINE
8
BLACK
6
CONTINUOUS
10
1.4338744094488189
20
1.5131483858267716
11
1.4467810629921261
21
1.5084507086614174
0
LINE
8
BLACK
6
CONTINUOUS
10
1.4467810629921261
20
1.5084507086614174
11
1.4590551181102362
21
1.5022864566929133
0
LINE
8
BLACK
6
CONTINUOUS
10
1.4590551181102362
20
1.5022864566929133
11
1.4705305511811024
21
1.4947389763779528
0
LINE
8
BLACK
6
CONTINUOUS
10
1.4705305511811024
20
1.4947389763779528
11
1.4810521653543307
21
1.4859102755905511
0
LINE
8
BLACK
6
CONTINUOUS
10
1.4810521653543307
20
1.4859102755905511
11
1.4904776771653543
21
1.4759198031496064
0
LINE
8
BLACK
6
CONTINUOUS
10
1.4904776771653543
20
1.4759198031496064
11
1.4986796456692912
21
1.4649026377952756
0
LINE
8
BLACK
6
CONTINUOUS
10
1.4986796456692912
20
1.4649026377952756
11
1.5055471653543306
21
1.4530077952755904
0
LINE
8
BLACK
6
CONTINUOUS
10
1.5055471653543306
20
1.4530077952755904
11
1.5109873228346455
21
1.440396062992126
0
LINE
8
BLACK
6
CONTINUOUS
10
1.5109873228346455
20
1.440396062992126
11
1.5149265748031495
21
1.4272381102362204
0
LINE
8
BLACK
6
CONTINUOUS
10
1.5149265748031495
20
1.4272381102362204
11
1.5173116141732284
21
1.4137117716535432
0
LINE
8
BLACK
6
CONTINUOUS
10
1.5173116141732284
20
1.4137117716535432
11
1.5181102362204724
21
1.3999999999999999
0
LINE
8
BLACK
6
CONTINUOUS
10
1.5181102362204724
20
1.3999999999999999
11
1.5173116141732284
21
1.3862882283464566
0
LINE
8
BLACK
6
CONTINUOUS
10
1.5173116141732284
20
1.3862882283464566
11
1.5149265748031495
21
1.3727618897637794
0
LINE
8
BLACK
6
CONTINUOUS
10
1.5149265748031495
20
1.3727618897637794
11
1.5109873228346455
21
1.3596039370078741
0
LINE
8
BLACK
6
CONTINUOUS
10
1.5109873228346455
20
1.3596039370078741
11
1.5055471653543306
21
1.3469922047244094
0
LINE
8
BLACK
6
CONTINUOUS
10
1.5055471653543306
20
1.3469922047244094
11
1.4986796456692912
21
1.3350973622047244
0
LINE
8
BLACK
6
CONTINUOUS
10
1.4986796456692912
20
1.3350973622047244
11
1.4904776771653543
21
1.3240801968503937
0
LINE
8
BLACK
6
CONTINUOUS
10
1.4904776771653543
20
1.3240801968503937
11
1.4810521653543307
21
1.3140897244094487
0
LINE
8
BLACK
6
CONTINUOUS
10
1.4810521653543307
20
1.3140897244094487
11
1.4705305511811024
21
1.3052610236220472
0
LINE
8
BLACK
6
CONTINUOUS
10
1.4705305511811024
20
1.3052610236220472
11
1.4590551181102362
21
1.2977135433070865
0
LINE
8
BLACK
6
CONTINUOUS
10
1.4590551181102362
20
1.2977135433070865
11
1.4467810629921261
21
1.2915492913385827
0
LINE
8
BLACK
6
CONTINUOUS
10
1.4467810629921261
20
1.2915492913385827
11
1.4338744094488189
21
1.2868516141732282
0
LINE
8
BLACK
6
CONTINUOUS
10
1.4338744094488189
20
1.2868516141732282
11
1.4205096456692914
21
1.2836841338582676
0
LINE
8
BLACK
6
CONTINUOUS
10
1.4205096456692914
20
1.2836841338582676
11
1.4068674803149606
21
1.2820896062992126
0
LINE
8
BLACK
6
CONTINUOUS
10
1.4068674803149606
20
1.2820896062992126
11
1.3931325196850393
21
1.2820896062992126
0
LINE
8
BLACK
6
CONTINUOUS
10
1.3931325196850393
20
1.2820896062992126
11
1.3794903543307087
21
1.2836841338582676
0
LINE
8
BLACK
6
CONTINUOUS
10
1.3794903543307087
20
1.2836841338582676
11
1.3661255905511811
21
1.2868516141732282
0
LINE
8
BLACK
6
CONTINUOUS
10
1.3661255905511811
20
1.2868516141732282
11
1.353218937007874
21
1.2915492913385827
0
LINE
8
BLACK
6
CONTINUOUS
10
1.353218937007874
20
1.2915492913385827
11
1.3409448818897638
21
1.2977135433070865
0
LINE
8
BLACK
6
CONTINUOUS
10
1.3409448818897638
20
1.2977135433070865
11
1.3294694488188976
21
1.3052610236220472
0
LINE
8
BLACK
6
CONTINUOUS
10
1.3294694488188976
20
1.3052610236220472
11
1.3189478346456693
21
1.3140897244094487
0
LINE
8
BLACK
6
CONTINUOUS
10
1.3189478346456693
20
1.3140897244094487
11
1.3095223228346455
21
1.3240801968503937
0
LINE
8
BLACK
6
CONTINUOUS
10
1.3095223228346455
20
1.3240801968503937
11
1.3013203543307086
21
1.3350973622047244
0
LINE
8
BLACK
6
CONTINUOUS
10
1.3013203543307086
20
1.3350973622047244
11
1.2944528346456692
21
1.3469922047244094
0
LINE
8
BLACK
6
CONTINUOUS
10
1.2944528346456692
20
1.3469922047244094
11
1.2890126771653543
21
1.3596039370078741
0
LINE
8
BLACK
6
CONTINUOUS
10
1.2890126771653543
20
1.3596039370078741
11
1.2850734251968503
21
1.3727618897637794
0
LINE
8
BLACK
6
CONTINUOUS
10
1.2850734251968503
20
1.3727618897637794
11
1.2826883858267717
21
1.3862882283464566
0
LINE
8
BLACK
6
CONTINUOUS
10
1.2826883858267717
20
1.3862882283464566
11
1.2818897637795275
21
1.3999999999999999
0
LINE
8
BLACK
6
CONTINUOUS
10
1.2818897637795275
20
1.3999999999999999
11
1.2826883858267717
21
1.4137117716535432
0
LINE
8
BLACK
6
CONTINUOUS
10
1.2826883858267717
20
1.4137117716535432
11
1.2850734251968503
21
1.4272381102362204
0
LINE
8
BLACK
6
CONTINUOUS
10
1.2850734251968503
20
1.4272381102362204
11
1.2890126771653543
21
1.440396062992126
0
LINE
8
BLACK
6
CONTINUOUS
10
1.2890126771653543
20
1.440396062992126
11
1.2944528346456692
21
1.4530077952755904
0
LINE
8
BLACK
6
CONTINUOUS
10
1.2944528346456692
20
1.4530077952755904
11
1.3013203543307086
21
1.4649026377952756
0
LINE
8
BLACK
6
CONTINUOUS
10
1.3013203543307086
20
1.4649026377952756
11
1.3095223228346455
21
1.4759198031496064
0
LINE
8
BLACK
6
CONTINUOUS
10
1.3095223228346455
20
1.4759198031496064
11
1.3189478346456693
21
1.4859102755905511
0
LINE
8
BLACK
6
CONTINUOUS
10
1.3189478346456693
20
1.4859102755905511
11
1.3294694488188976
21
1.4947389763779528
0
LINE
8
BLACK
6
CONTINUOUS
10
1.3294694488188976
20
1.4947389763779528
11
1.3409448818897638
21
1.5022864566929133
0
LINE
8
BLACK
6
CONTINUOUS
10
1.3409448818897638
20
1.5022864566929133
11
1.353218937007874
21
1.5084507086614174
0
LINE
8
BLACK
6
CONTINUOUS
10
1.353218937007874
20
1.5084507086614174
11
1.3661255905511811
21
1.5131483858267716
0
LINE
8
BLACK
6
CONTINUOUS
10
1.3661255905511811
20
1.5131483858267716
11
1.3794903543307087
21
1.5163158661417322
0
LINE
8
BLACK
6
CONTINUOUS
10
1.3794903543307087
20
1.5163158661417322
11
1.3931325196850393
21
1.5179103937007874
0
LINE
8
BLACK
6
CONTINUOUS
10
1.3931325196850393
20
1.5179103937007874
11
1.4068674803149606
21
1.5179103937007874
0
LINE
8
BLACK
6
CONTINUOUS
10
1.4068674803149606
20
1.5179103937007874
11
1.4205096456692914
21
1.5163158661417322
0
LINE
8
BLACK
6
CONTINUOUS
10
0.4848358661417323
20
1.3948833070866142
11
0.4891983858267717
21
1.3926605118110236
0
LINE
8
BLACK
6
CONTINUOUS
10
0.4891983858267717
20
1.3926605118110236
11
0.4926605118110236
21
1.3891983858267716
0
LINE
8
BLACK
6
CONTINUOUS
10
0.4926605118110236
20
1.3891983858267716
11
0.4948833070866142
21
1.3848358661417322
0
LINE
8
BLACK
6
CONTINUOUS
10
0.4948833070866142
20
1.3848358661417322
11
0.4956492519685039
21
1.3799999999999999
0
LINE
8
BLACK
6
CONTINUOUS
10
0.4956492519685039
20
1.3799999999999999
11
0.4948833070866142
21
1.3751641338582676
0
LINE
8
BLACK
6
CONTINUOUS
10
0.4948833070866142
20
1.3751641338582676
11
0.4926605118110236
21
1.3708016141732282
0
LINE
8
BLACK
6
CONTINUOUS
10
0.4926605118110236
20
1.3708016141732282
11
0.4891983858267717
21
1.3673394881889764
0
LINE
8
BLACK
6
CONTINUOUS
10
0.4891983858267717
20
1.3673394881889764
11
0.4848358661417323
21
1.3651166929133858
0
LINE
8
BLACK
6
CONTINUOUS
10
0.4848358661417323
20
1.3651166929133858
11
0.48
21
1.364350748031496
0
LINE
8
BLACK
6
CONTINUOUS
10
0.48
20
1.364350748031496
11
0.4751641338582677
21
1.3651166929133858
0
LINE
8
BLACK
6
CONTINUOUS
10
0.4751641338582677
20
1.3651166929133858
11
0.4708016141732284
21
1.3673394881889764
0
LINE
8
BLACK
6
CONTINUOUS
10
0.4708016141732284
20
1.3673394881889764
11
0.4673394881889764
21
1.3708016141732282
0
LINE
8
BLACK
6
CONTINUOUS
10
0.4673394881889764
20
1.3708016141732282
11
0.4651166929133858
21
1.3751641338582676
0
LINE
8
BLACK
6
CONTINUOUS
10
0.4651166929133858
20
1.3751641338582676
11
0.4643507480314961
21
1.3799999999999999
0
LINE
8
BLACK
6
CONTINUOUS
10
0.4643507480314961
20
1.3799999999999999
11
0.4651166929133858
21
1.3848358661417322
0
LINE
8
BLACK
6
CONTINUOUS
10
0.4651166929133858
20
1.3848358661417322
11
0.4673394881889764
21
1.3891983858267716
0
LINE
8
BLACK
6
CONTINUOUS
10
0.4673394881889764
20
1.3891983858267716
11
0.4708016141732284
21
1.3926605118110236
0
LINE
8
BLACK
6
CONTINUOUS
10
0.4708016141732284
20
1.3926605118110236
11
0.4751641338582677
21
1.3948833070866142
0
LINE
8
BLACK
6
CONTINUOUS
10
0.4751641338582677
20
1.3948833070866142
11
0.48
21
1.395649251968504
0
LINE
8
BLACK
6
CONTINUOUS
10
0.48
20
1.395649251968504
11
0.4848358661417323
21
1.3948833070866142
0
LINE
8
BLACK
6
CONTINUOUS
10
0.4795030708661417
20
1.3795030708661418
11
0.48
21
1.3792972440944882
0
LINE
8
BLACK
6
CONTINUOUS
10
0.48
20
1.3792972440944882
11
0.4804969291338583
21
1.3795030708661418
0
LINE
8
BLACK
6
CONTINUOUS
10
0.4804969291338583
20
1.3795030708661418
11
0.4807027559055118
21
1.3799999999999999
0
LINE
8
BLACK
6
CONTINUOUS
10
0.4807027559055118
20
1.3799999999999999
11
0.4804969291338583
21
1.3804969291338582
0
LINE
8
BLACK
6
CONTINUOUS
10
0.4804969291338583
20
1.3804969291338582
11
0.48
21
1.3807027559055118
0
LINE
8
BLACK
6
CONTINUOUS
10
0.48
20
1.3807027559055118
11
0.4795030708661417
21
1.3804969291338582
0
LINE
8
BLACK
6
CONTINUOUS
10
0.4795030708661417
20
1.3804969291338582
11
0.4792972440944882
21
1.3799999999999999
0
LINE
8
BLACK
6
CONTINUOUS
10
0.4792972440944882
20
1.3799999999999999
11
0.4795030708661417
21
1.3795030708661418
0
LINE
8
BLACK
6
CONTINUOUS
10
0.6848358661417323
20
1.3948833070866142
11
0.6891983858267716
21
1.3926605118110236
0
LINE
8
BLACK
6
CONTINUOUS
10
0.6891983858267716
20
1.3926605118110236
11
0.6926605118110236
21
1.3891983858267716
0
LINE
8
BLACK
6
CONTINUOUS
10
0.6926605118110236
20
1.3891983858267716
11
0.6948833070866142
21
1.3848358661417322
0
LINE
8
BLACK
6
CONTINUOUS
10
0.6948833070866142
20
1.3848358661417322
11
0.6956492519685039
21
1.3799999999999999
0
LINE
8
BLACK
6
CONTINUOUS
10
0.6956492519685039
20
1.3799999999999999
11
0.6948833070866142
21
1.3751641338582676
0
LINE
8
BLACK
6
CONTINUOUS
10
0.6948833070866142
20
1.3751641338582676
11
0.6926605118110236
21
1.3708016141732282
0
LINE
8
BLACK
6
CONTINUOUS
10
0.6926605118110236
20
1.3708016141732282
11
0.6891983858267716
21
1.3673394881889764
0
LINE
8
BLACK
6
CONTINUOUS
10
0.6891983858267716
20
1.3673394881889764
11
0.6848358661417323
21
1.3651166929133858
0
LINE
8
BLACK
6
CONTINUOUS
10
0.6848358661417323
20
1.3651166929133858
11
0.6799999999999999
21
1.364350748031496
0
LINE
8
BLACK
6
CONTINUOUS
10
0.6799999999999999
20
1.364350748031496
11
0.6751641338582677
21
1.3651166929133858
0
LINE
8
BLACK
6
CONTINUOUS
10
0.6751641338582677
20
1.3651166929133858
11
0.6708016141732284
21
1.3673394881889764
0
LINE
8
BLACK
6
CONTINUOUS
10
0.6708016141732284
20
1.3673394881889764
11
0.6673394881889764
21
1.3708016141732282
0
LINE
8
BLACK
6
CONTINUOUS
10
0.6673394881889764
20
1.3708016141732282
11
0.6651166929133858
21
1.3751641338582676
0
LINE
8
BLACK
6
CONTINUOUS
10
0.6651166929133858
20
1.3751641338582676
11
0.6643507480314961
21
1.3799999999999999
0
LINE
8
BLACK
6
CONTINUOUS
10
0.6643507480314961
20
1.3799999999999999
11
0.6651166929133858
21
1.3848358661417322
0
LINE
8
BLACK
6
CONTINUOUS
10
0.6651166929133858
20
1.3848358661417322
11
0.6673394881889764
21
1.3891983858267716
0
LINE
8
BLACK
6
CONTINUOUS
10
0.6673394881889764
20
1.3891983858267716
11
0.6708016141732284
21
1.3926605118110236
0
LINE
8
BLACK
6
CONTINUOUS
10
0.6708016141732284
20
1.3926605118110236
11
0.6751641338582677
21
1.3948833070866142
0
LINE
8
BLACK
6
CONTINUOUS
10
0.6751641338582677
20
1.3948833070866142
11
0.6799999999999999
21
1.395649251968504
0
LINE
8
BLACK
6
CONTINUOUS
10
0.6799999999999999
20
1.395649251968504
11
0.6848358661417323
21
1.3948833070866142
0
LINE
8
BLACK
6
CONTINUOUS
10
0.6795030708661417
20
1.3795030708661418
11
0.6799999999999999
21
1.3792972440944882
0
LINE
8
BLACK
6
CONTINUOUS
10
0.6799999999999999
20
1.3792972440944882
11
0.6804969291338583
21
1.3795030708661418
0
LINE
8
BLACK
6
CONTINUOUS
10
0.6804969291338583
20
1.3795030708661418
11
0.6807027559055118
21
1.3799999999999999
0
LINE
8
BLACK
6
CONTINUOUS
10
0.6807027559055118
20
1.3799999999999999
11
0.6804969291338583
21
1.3804969291338582
0
LINE
8
BLACK
6
CONTINUOUS
10
0.6804969291338583
20
1.3804969291338582
11
0.6799999999999999
21
1.3807027559055118
0
LINE
8
BLACK
6
CONTINUOUS
10
0.6799999999999999
20
1.3807027559055118
11
0.6795030708661417
21
1.3804969291338582
0
LINE
8
BLACK
6
CONTINUOUS
10
0.6795030708661417
20
1.3804969291338582
11
0.6792972440944882
21
1.3799999999999999
0
LINE
8
BLACK
6
CONTINUOUS
10
0.6792972440944882
20
1.3799999999999999
11
0.6795030708661417
21
1.3795030708661418
0
LINE
8
BLACK
6
CONTINUOUS
10
0.8848358661417323
20
1.3948833070866142
11
0.8891983858267717
21
1.3926605118110236
0
LINE
8
BLACK
6
CONTINUOUS
10
0.8891983858267717
20
1.3926605118110236
11
0.8926605118110236
21
1.3891983858267716
0
LINE
8
BLACK
6
CONTINUOUS
10
0.8926605118110236
20
1.3891983858267716
11
0.8948833070866141
21
1.3848358661417322
0
LINE
8
BLACK
6
CONTINUOUS
10
0.8948833070866141
20
1.3848358661417322
11
0.8956492519685039
21
1.3799999999999999
0
LINE
8
BLACK
6
CONTINUOUS
10
0.8956492519685039
20
1.3799999999999999
11
0.8948833070866141
21
1.3751641338582676
0
LINE
8
BLACK
6
CONTINUOUS
10
0.8948833070866141
20
1.3751641338582676
11
0.8926605118110236
21
1.3708016141732282
0
LINE
8
BLACK
6
CONTINUOUS
10
0.8926605118110236
20
1.3708016141732282
11
0.8891983858267717
21
1.3673394881889764
0
LINE
8
BLACK
6
CONTINUOUS
10
0.8891983858267717
20
1.3673394881889764
11
0.8848358661417323
21
1.3651166929133858
0
LINE
8
BLACK
6
CONTINUOUS
10
0.8848358661417323
20
1.3651166929133858
11
0.88
21
1.364350748031496
0
LINE
8
BLACK
6
CONTINUOUS
10
0.88
20
1.364350748031496
11
0.8751641338582677
21
1.3651166929133858
0
LINE
8
BLACK
6
CONTINUOUS
10
0.8751641338582677
20
1.3651166929133858
11
0.8708016141732283
21
1.3673394881889764
0
LINE
8
BLACK
6
CONTINUOUS
10
0.8708016141732283
20
1.3673394881889764
11
0.8673394881889763
21
1.3708016141732282
0
LINE
8
BLACK
6
CONTINUOUS
10
0.8673394881889763
20
1.3708016141732282
11
0.8651166929133858
21
1.3751641338582676
0
LINE
8
BLACK
6
CONTINUOUS
10
0.8651166929133858
20
1.3751641338582676
11
0.864350748031496
21
1.3799999999999999
0
LINE
8
BLACK
6
CONTINUOUS
10
0.864350748031496
20
1.3799999999999999
11
0.8651166929133858
21
1.3848358661417322
0
LINE
8
BLACK
6
CONTINUOUS
10
0.8651166929133858
20
1.3848358661417322
11
0.8673394881889763
21
1.3891983858267716
0
LINE
8
BLACK
6
CONTINUOUS
10
0.8673394881889763
20
1.3891983858267716
11
0.8708016141732283
21
1.3926605118110236
0
LINE
8
BLACK
6
CONTINUOUS
10
0.8708016141732283
20
1.3926605118110236
11
0.8751641338582677
21
1.3948833070866142
0
LINE
8
BLACK
6
CONTINUOUS
10
0.8751641338582677
20
1.3948833070866142
11
0.88
21
1.395649251968504
0
LINE
8
BLACK
6
CONTINUOUS
10
0.88
20
1.395649251968504
11
0.8848358661417323
21
1.3948833070866142
0
LINE
8
BLACK
6
CONTINUOUS
10
0.8795030708661418
20
1.3795030708661418
11
0.88
21
1.3792972440944882
0
LINE
8
BLACK
6
CONTINUOUS
10
0.88
20
1.3792972440944882
11
0.8804969291338582
21
1.3795030708661418
0
LINE
8
BLACK
6
CONTINUOUS
10
0.8804969291338582
20
1.3795030708661418
11
0.8807027559055118
21
1.3799999999999999
0
LINE
8
BLACK
6
CONTINUOUS
10
0.8807027559055118
20
1.3799999999999999
11
0.8804969291338582
21
1.3804969291338582
0
LINE
8
BLACK
6
CONTINUOUS
10
0.8804969291338582
20
1.3804969291338582
11
0.88
21
1.3807027559055118
0
LINE
8
BLACK
6
CONTINUOUS
10
0.88
20
1.3807027559055118
11
0.8795030708661418
21
1.3804969291338582
0
LINE
8
BLACK
6
CONTINUOUS
10
0.8795030708661418
20
1.3804969291338582
11
0.8792972440944882
21
1.3799999999999999
0
LINE
8
BLACK
6
CONTINUOUS
10
0.8792972440944882
20
1.3799999999999999
11
0.8795030708661418
21
1.3795030708661418
0
LINE
8
BLACK
6
CONTINUOUS
10
1.0848358661417323
20
1.3948833070866142
11
1.0891983858267715
21
1.3926605118110236
0
LINE
8
BLACK
6
CONTINUOUS
10
1.0891983858267715
20
1.3926605118110236
11
1.0926605118110235
21
1.3891983858267716
0
LINE
8
BLACK
6
CONTINUOUS
10
1.0926605118110235
20
1.3891983858267716
11
1.0948833070866142
21
1.3848358661417322
0
LINE
8
BLACK
6
CONTINUOUS
10
1.0948833070866142
20
1.3848358661417322
11
1.0956492519685039
21
1.3799999999999999
0
LINE
8
BLACK
6
CONTINUOUS
10
1.0956492519685039
20
1.3799999999999999
11
1.0948833070866142
21
1.3751641338582676
0
LINE
8
BLACK
6
CONTINUOUS
10
1.0948833070866142
20
1.3751641338582676
11
1.0926605118110235
21
1.3708016141732282
0
LINE
8
BLACK
6
CONTINUOUS
10
1.0926605118110235
20
1.3708016141732282
11
1.0891983858267715
21
1.3673394881889764
0
LINE
8
BLACK
6
CONTINUOUS
10
1.0891983858267715
20
1.3673394881889764
11
1.0848358661417323
21
1.3651166929133858
0
LINE
8
BLACK
6
CONTINUOUS
10
1.0848358661417323
20
1.3651166929133858
11
1.0800000000000001
21
1.364350748031496
0
LINE
8
BLACK
6
CONTINUOUS
10
1.0800000000000001
20
1.364350748031496
11
1.0751641338582676
21
1.3651166929133858
0
LINE
8
BLACK
6
CONTINUOUS
10
1.0751641338582676
20
1.3651166929133858
11
1.0708016141732284
21
1.3673394881889764
0
LINE
8
BLACK
6
CONTINUOUS
10
1.0708016141732284
20
1.3673394881889764
11
1.0673394881889764
21
1.3708016141732282
0
LINE
8
BLACK
6
CONTINUOUS
10
1.0673394881889764
20
1.3708016141732282
11
1.0651166929133857
21
1.3751641338582676
0
LINE
8
BLACK
6
CONTINUOUS
10
1.0651166929133857
20
1.3751641338582676
11
1.064350748031496
21
1.3799999999999999
0
LINE
8
BLACK
6
CONTINUOUS
10
1.064350748031496
20
1.3799999999999999
11
1.0651166929133857
21
1.3848358661417322
0
LINE
8
BLACK
6
CONTINUOUS
10
1.0651166929133857
20
1.3848358661417322
11
1.0673394881889764
21
1.3891983858267716
0
LINE
8
BLACK
6
CONTINUOUS
10
1.0673394881889764
20
1.3891983858267716
11
1.0708016141732284
21
1.3926605118110236
0
LINE
8
BLACK
6
CONTINUOUS
10
1.0708016141732284
20
1.3926605118110236
11
1.0751641338582676
21
1.3948833070866142
0
LINE
8
BLACK
6
CONTINUOUS
10
1.0751641338582676
20
1.3948833070866142
11
1.0800000000000001
21
1.395649251968504
0
LINE
8
BLACK
6
CONTINUOUS
10
1.0800000000000001
20
1.395649251968504
11
1.0848358661417323
21
1.3948833070866142
0
LINE
8
BLACK
6
CONTINUOUS
10
1.0795030708661417
20
1.3795030708661418
11
1.0800000000000001
21
1.3792972440944882
0
LINE
8
BLACK
6
CONTINUOUS
10
1.0800000000000001
20
1.3792972440944882
11
1.0804969291338582
21
1.3795030708661418
0
LINE
8
BLACK
6
CONTINUOUS
10
1.0804969291338582
20
1.3795030708661418
11
1.0807027559055118
21
1.3799999999999999
0
LINE
8
BLACK
6
CONTINUOUS
10
1.0807027559055118
20
1.3799999999999999
11
1.0804969291338582
21
1.3804969291338582
0
LINE
8
BLACK
6
CONTINUOUS
10
1.0804969291338582
20
1.3804969291338582
11
1.0800000000000001
21
1.3807027559055118
0
LINE
8
BLACK
6
CONTINUOUS
10
1.0800000000000001
20
1.3807027559055118
11
1.0795030708661417
21
1.3804969291338582
0
LINE
8
BLACK
6
CONTINUOUS
10
1.0795030708661417
20
1.3804969291338582
11
1.0792972440944881
21
1.3799999999999999
0
LINE
8
BLACK
6
CONTINUOUS
10
1.0792972440944881
20
1.3799999999999999
11
1.0795030708661417
21
1.3795030708661418
  0
ENDSEC
  0
EOF
