  0
SECTION
  2
HEADER
  9
$ANGBASE
  50
0.0
  9
$ANGDIR
  70
1
  9
$MEASUREMENT
  70
0
  0
ENDSEC
  0
SECTION
  2
TABLES
  0
TABLE
  2
LTYPE
  70
4
  0
LTYPE
  5
40F
  2
CONTINUOUS
  70
0
  3
Solid line
  72
65
  73
0
  40
0.0
  0
LTYPE
  5
410
  2
DASHDOT
 70
0
  3
Dash Dot ____ _ ____ _
 72
65
 73
4
 40
2.0
 49
1.25
 49
-0.25
 49
0.25
 49
-0.25
  0
LTYPE
  5
411
  2
DASHED
 70
0
  3
Dashed __ __ __ __ __
 72
65
 73
2
 40
0.75
 49
0.5
 49
-0.25
  0
LTYPE
  5
43B
  2
DOTTED
 70
0
  3
Dotted .  .  .  .
 72
65
 73
2
 40
0.2
 49
0.0
 49
-0.2
  0
ENDTAB
  0
TABLE
  2
STYLE
  70
4
  0
STYLE
  2
KICAD
  70
0
  40
0
  41
1
  42
1
  50
0
  71
0
  3
isocp.shx
  0
STYLE
  2
KICADB
  70
0
  40
0
  41
1
  42
1
  50
0
  71
0
  3
isocp.shx
  0
STYLE
  2
KICADI
  70
0
  40
0
  41
1
  42
1
  50
15
  71
0
  3
isocp.shx
  0
STYLE
  2
KICADBI
  70
0
  40
0
  41
1
  42
1
  50
15
  71
0
  3
isocp.shx
  0
ENDTAB
  0
TABLE
  2
LAYER
  70
1
  0
LAYER
  2
BLACK
  70
0
  62
7
  6
CONTINUOUS
  0
ENDTAB
  0
ENDSEC
  0
SECTION
  2
ENTITIES
0
LINE
8
BLACK
6
CONTINUOUS
10
1.1699999999999999
20
0.1
11
1.1099999999999999
21
0.1
0
LINE
8
BLACK
6
CONTINUOUS
10
1.1099999999999999
20
0.1
11
1.1099999999999999
21
0.16
0
LINE
8
BLACK
6
CONTINUOUS
10
1.1099999999999999
20
0.16
11
1.1699999999999999
21
0.16
0
LINE
8
BLACK
6
CONTINUOUS
10
1.1699999999999999
20
0.16
11
1.1699999999999999
21
0.1
0
LINE
8
BLACK
6
CONTINUOUS
10
1.1699999999999999
20
0.2
11
1.1099999999999999
21
0.2
0
LINE
8
BLACK
6
CONTINUOUS
10
1.1099999999999999
20
0.2
11
1.1099999999999999
21
0.26
0
LINE
8
BLACK
6
CONTINUOUS
10
1.1099999999999999
20
0.26
11
1.1699999999999999
21
0.26
0
LINE
8
BLACK
6
CONTINUOUS
10
1.1699999999999999
20
0.26
11
1.1699999999999999
21
0.2
0
LINE
8
BLACK
6
CONTINUOUS
10
0.2205096456692913
20
0.3163158661417323
11
0.2338744094488189
21
0.3131483858267716
0
LINE
8
BLACK
6
CONTINUOUS
10
0.2338744094488189
20
0.3131483858267716
11
0.246781062992126
21
0.3084507086614173
0
LINE
8
BLACK
6
CONTINUOUS
10
0.246781062992126
20
0.3084507086614173
11
0.2590551181102362
21
0.3022864566929134
0
LINE
8
BLACK
6
CONTINUOUS
10
0.2590551181102362
20
0.3022864566929134
11
0.2705305511811024
21
0.2947389763779528
0
LINE
8
BLACK
6
CONTINUOUS
10
0.2705305511811024
20
0.2947389763779528
11
0.2810521653543307
21
0.2859102755905512
0
LINE
8
BLACK
6
CONTINUOUS
10
0.2810521653543307
20
0.2859102755905512
11
0.2904776771653543
21
0.2759198031496063
0
LINE
8
BLACK
6
CONTINUOUS
10
0.2904776771653543
20
0.2759198031496063
11
0.2986796456692913
21
0.2649026377952756
0
LINE
8
BLACK
6
CONTINUOUS
10
0.2986796456692913
20
0.2649026377952756
11
0.3055471653543307
21
0.2530077952755905
0
LINE
8
BLACK
6
CONTINUOUS
10
0.3055471653543307
20
0.2530077952755905
11
0.3109873228346456
21
0.240396062992126
0
LINE
8
BLACK
6
CONTINUOUS
10
0.3109873228346456
20
0.240396062992126
11
0.3149265748031496
21
0.2272381102362205
0
LINE
8
BLACK
6
CONTINUOUS
10
0.3149265748031496
20
0.2272381102362205
11
0.3173116141732283
21
0.2137117716535433
0
LINE
8
BLACK
6
CONTINUOUS
10
0.3173116141732283
20
0.2137117716535433
11
0.3181102362204724
21
0.2
0
LINE
8
BLACK
6
CONTINUOUS
10
0.3181102362204724
20
0.2
11
0.3173116141732283
21
0.1862882283464567
0
LINE
8
BLACK
6
CONTINUOUS
10
0.3173116141732283
20
0.1862882283464567
11
0.3149265748031496
21
0.1727618897637795
0
LINE
8
BLACK
6
CONTINUOUS
10
0.3149265748031496
20
0.1727618897637795
11
0.3109873228346456
21
0.159603937007874
0
LINE
8
BLACK
6
CONTINUOUS
10
0.3109873228346456
20
0.159603937007874
11
0.3055471653543307
21
0.1469922047244094
0
LINE
8
BLACK
6
CONTINUOUS
10
0.3055471653543307
20
0.1469922047244094
11
0.2986796456692913
21
0.1350973622047244
0
LINE
8
BLACK
6
CONTINUOUS
10
0.2986796456692913
20
0.1350973622047244
11
0.2904776771653543
21
0.1240801968503937
0
LINE
8
BLACK
6
CONTINUOUS
10
0.2904776771653543
20
0.1240801968503937
11
0.2810521653543307
21
0.1140897244094488
0
LINE
8
BLACK
6
CONTINUOUS
10
0.2810521653543307
20
0.1140897244094488
11
0.2705305511811024
21
0.1052610236220472
0
LINE
8
BLACK
6
CONTINUOUS
10
0.2705305511811024
20
0.1052610236220472
11
0.2590551181102362
21
0.0977135433070866
0
LINE
8
BLACK
6
CONTINUOUS
10
0.2590551181102362
20
0.0977135433070866
11
0.246781062992126
21
0.0915492913385827
0
LINE
8
BLACK
6
CONTINUOUS
10
0.246781062992126
20
0.0915492913385827
11
0.2338744094488189
21
0.0868516141732283
0
LINE
8
BLACK
6
CONTINUOUS
10
0.2338744094488189
20
0.0868516141732283
11
0.2205096456692913
21
0.0836841338582677
0
LINE
8
BLACK
6
CONTINUOUS
10
0.2205096456692913
20
0.0836841338582677
11
0.2068674803149606
21
0.0820896062992126
0
LINE
8
BLACK
6
CONTINUOUS
10
0.2068674803149606
20
0.0820896062992126
11
0.1931325196850394
21
0.0820896062992126
0
LINE
8
BLACK
6
CONTINUOUS
10
0.1931325196850394
20
0.0820896062992126
11
0.1794903543307086
21
0.0836841338582677
0
LINE
8
BLACK
6
CONTINUOUS
10
0.1794903543307086
20
0.0836841338582677
11
0.1661255905511811
21
0.0868516141732283
0
LINE
8
BLACK
6
CONTINUOUS
10
0.1661255905511811
20
0.0868516141732283
11
0.153218937007874
21
0.0915492913385827
0
LINE
8
BLACK
6
CONTINUOUS
10
0.153218937007874
20
0.0915492913385827
11
0.1409448818897638
21
0.0977135433070866
0
LINE
8
BLACK
6
CONTINUOUS
10
0.1409448818897638
20
0.0977135433070866
11
0.1294694488188976
21
0.1052610236220472
0
LINE
8
BLACK
6
CONTINUOUS
10
0.1294694488188976
20
0.1052610236220472
11
0.1189478346456693
21
0.1140897244094488
0
LINE
8
BLACK
6
CONTINUOUS
10
0.1189478346456693
20
0.1140897244094488
11
0.1095223228346457
21
0.1240801968503937
0
LINE
8
BLACK
6
CONTINUOUS
10
0.1095223228346457
20
0.1240801968503937
11
0.1013203543307087
21
0.1350973622047244
0
LINE
8
BLACK
6
CONTINUOUS
10
0.1013203543307087
20
0.1350973622047244
11
0.0944528346456693
21
0.1469922047244094
0
LINE
8
BLACK
6
CONTINUOUS
10
0.0944528346456693
20
0.1469922047244094
11
0.0890126771653543
21
0.159603937007874
0
LINE
8
BLACK
6
CONTINUOUS
10
0.0890126771653543
20
0.159603937007874
11
0.0850734251968504
21
0.1727618897637795
0
LINE
8
BLACK
6
CONTINUOUS
10
0.0850734251968504
20
0.1727618897637795
11
0.0826883858267717
21
0.1862882283464567
0
LINE
8
BLACK
6
CONTINUOUS
10
0.0826883858267717
20
0.1862882283464567
11
0.0818897637795276
21
0.2
0
LINE
8
BLACK
6
CONTINUOUS
10
0.0818897637795276
20
0.2
11
0.0826883858267717
21
0.2137117716535433
0
LINE
8
BLACK
6
CONTINUOUS
10
0.0826883858267717
20
0.2137117716535433
11
0.0850734251968504
21
0.2272381102362205
0
LINE
8
BLACK
6
CONTINUOUS
10
0.0850734251968504
20
0.2272381102362205
11
0.0890126771653543
21
0.240396062992126
0
LINE
8
BLACK
6
CONTINUOUS
10
0.0890126771653543
20
0.240396062992126
11
0.0944528346456693
21
0.2530077952755905
0
LINE
8
BLACK
6
CONTINUOUS
10
0.0944528346456693
20
0.2530077952755905
11
0.1013203543307087
21
0.2649026377952756
0
LINE
8
BLACK
6
CONTINUOUS
10
0.1013203543307087
20
0.2649026377952756
11
0.1095223228346457
21
0.2759198031496063
0
LINE
8
BLACK
6
CONTINUOUS
10
0.1095223228346457
20
0.2759198031496063
11
0.1189478346456693
21
0.2859102755905512
0
LINE
8
BLACK
6
CONTINUOUS
10
0.1189478346456693
20
0.2859102755905512
11
0.1294694488188976
21
0.2947389763779528
0
LINE
8
BLACK
6
CONTINUOUS
10
0.1294694488188976
20
0.2947389763779528
11
0.1409448818897638
21
0.3022864566929134
0
LINE
8
BLACK
6
CONTINUOUS
10
0.1409448818897638
20
0.3022864566929134
11
0.153218937007874
21
0.3084507086614173
0
LINE
8
BLACK
6
CONTINUOUS
10
0.153218937007874
20
0.3084507086614173
11
0.1661255905511811
21
0.3131483858267716
0
LINE
8
BLACK
6
CONTINUOUS
10
0.1661255905511811
20
0.3131483858267716
11
0.1794903543307086
21
0.3163158661417323
0
LINE
8
BLACK
6
CONTINUOUS
10
0.1794903543307086
20
0.3163158661417323
11
0.1931325196850394
21
0.3179103937007874
0
LINE
8
BLACK
6
CONTINUOUS
10
0.1931325196850394
20
0.3179103937007874
11
0.2068674803149606
21
0.3179103937007874
0
LINE
8
BLACK
6
CONTINUOUS
10
0.2068674803149606
20
0.3179103937007874
11
0.2205096456692913
21
0.3163158661417323
0
LINE
8
BLACK
6
CONTINUOUS
10
1.4205096456692914
20
0.3163158661417323
11
1.4338744094488189
21
0.3131483858267716
0
LINE
8
BLACK
6
CONTINUOUS
10
1.4338744094488189
20
0.3131483858267716
11
1.4467810629921261
21
0.3084507086614173
0
LINE
8
BLACK
6
CONTINUOUS
10
1.4467810629921261
20
0.3084507086614173
11
1.4590551181102362
21
0.3022864566929134
0
LINE
8
BLACK
6
CONTINUOUS
10
1.4590551181102362
20
0.3022864566929134
11
1.4705305511811024
21
0.2947389763779528
0
LINE
8
BLACK
6
CONTINUOUS
10
1.4705305511811024
20
0.2947389763779528
11
1.4810521653543307
21
0.2859102755905512
0
LINE
8
BLACK
6
CONTINUOUS
10
1.4810521653543307
20
0.2859102755905512
11
1.4904776771653543
21
0.2759198031496063
0
LINE
8
BLACK
6
CONTINUOUS
10
1.4904776771653543
20
0.2759198031496063
11
1.4986796456692912
21
0.2649026377952756
0
LINE
8
BLACK
6
CONTINUOUS
10
1.4986796456692912
20
0.2649026377952756
11
1.5055471653543306
21
0.2530077952755905
0
LINE
8
BLACK
6
CONTINUOUS
10
1.5055471653543306
20
0.2530077952755905
11
1.5109873228346455
21
0.240396062992126
0
LINE
8
BLACK
6
CONTINUOUS
10
1.5109873228346455
20
0.240396062992126
11
1.5149265748031495
21
0.2272381102362205
0
LINE
8
BLACK
6
CONTINUOUS
10
1.5149265748031495
20
0.2272381102362205
11
1.5173116141732284
21
0.2137117716535433
0
LINE
8
BLACK
6
CONTINUOUS
10
1.5173116141732284
20
0.2137117716535433
11
1.5181102362204724
21
0.2
0
LINE
8
BLACK
6
CONTINUOUS
10
1.5181102362204724
20
0.2
11
1.5173116141732284
21
0.1862882283464567
0
LINE
8
BLACK
6
CONTINUOUS
10
1.5173116141732284
20
0.1862882283464567
11
1.5149265748031495
21
0.1727618897637795
0
LINE
8
BLACK
6
CONTINUOUS
10
1.5149265748031495
20
0.1727618897637795
11
1.5109873228346455
21
0.159603937007874
0
LINE
8
BLACK
6
CONTINUOUS
10
1.5109873228346455
20
0.159603937007874
11
1.5055471653543306
21
0.1469922047244094
0
LINE
8
BLACK
6
CONTINUOUS
10
1.5055471653543306
20
0.1469922047244094
11
1.4986796456692912
21
0.1350973622047244
0
LINE
8
BLACK
6
CONTINUOUS
10
1.4986796456692912
20
0.1350973622047244
11
1.4904776771653543
21
0.1240801968503937
0
LINE
8
BLACK
6
CONTINUOUS
10
1.4904776771653543
20
0.1240801968503937
11
1.4810521653543307
21
0.1140897244094488
0
LINE
8
BLACK
6
CONTINUOUS
10
1.4810521653543307
20
0.1140897244094488
11
1.4705305511811024
21
0.1052610236220472
0
LINE
8
BLACK
6
CONTINUOUS
10
1.4705305511811024
20
0.1052610236220472
11
1.4590551181102362
21
0.0977135433070866
0
LINE
8
BLACK
6
CONTINUOUS
10
1.4590551181102362
20
0.0977135433070866
11
1.4467810629921261
21
0.0915492913385827
0
LINE
8
BLACK
6
CONTINUOUS
10
1.4467810629921261
20
0.0915492913385827
11
1.4338744094488189
21
0.0868516141732283
0
LINE
8
BLACK
6
CONTINUOUS
10
1.4338744094488189
20
0.0868516141732283
11
1.4205096456692914
21
0.0836841338582677
0
LINE
8
BLACK
6
CONTINUOUS
10
1.4205096456692914
20
0.0836841338582677
11
1.4068674803149606
21
0.0820896062992126
0
LINE
8
BLACK
6
CONTINUOUS
10
1.4068674803149606
20
0.0820896062992126
11
1.3931325196850393
21
0.0820896062992126
0
LINE
8
BLACK
6
CONTINUOUS
10
1.3931325196850393
20
0.0820896062992126
11
1.3794903543307087
21
0.0836841338582677
0
LINE
8
BLACK
6
CONTINUOUS
10
1.3794903543307087
20
0.0836841338582677
11
1.3661255905511811
21
0.0868516141732283
0
LINE
8
BLACK
6
CONTINUOUS
10
1.3661255905511811
20
0.0868516141732283
11
1.353218937007874
21
0.0915492913385827
0
LINE
8
BLACK
6
CONTINUOUS
10
1.353218937007874
20
0.0915492913385827
11
1.3409448818897638
21
0.0977135433070866
0
LINE
8
BLACK
6
CONTINUOUS
10
1.3409448818897638
20
0.0977135433070866
11
1.3294694488188976
21
0.1052610236220472
0
LINE
8
BLACK
6
CONTINUOUS
10
1.3294694488188976
20
0.1052610236220472
11
1.3189478346456693
21
0.1140897244094488
0
LINE
8
BLACK
6
CONTINUOUS
10
1.3189478346456693
20
0.1140897244094488
11
1.3095223228346455
21
0.1240801968503937
0
LINE
8
BLACK
6
CONTINUOUS
10
1.3095223228346455
20
0.1240801968503937
11
1.3013203543307086
21
0.1350973622047244
0
LINE
8
BLACK
6
CONTINUOUS
10
1.3013203543307086
20
0.1350973622047244
11
1.2944528346456692
21
0.1469922047244094
0
LINE
8
BLACK
6
CONTINUOUS
10
1.2944528346456692
20
0.1469922047244094
11
1.2890126771653543
21
0.159603937007874
0
LINE
8
BLACK
6
CONTINUOUS
10
1.2890126771653543
20
0.159603937007874
11
1.2850734251968503
21
0.1727618897637795
0
LINE
8
BLACK
6
CONTINUOUS
10
1.2850734251968503
20
0.1727618897637795
11
1.2826883858267717
21
0.1862882283464567
0
LINE
8
BLACK
6
CONTINUOUS
10
1.2826883858267717
20
0.1862882283464567
11
1.2818897637795275
21
0.2
0
LINE
8
BLACK
6
CONTINUOUS
10
1.2818897637795275
20
0.2
11
1.2826883858267717
21
0.2137117716535433
0
LINE
8
BLACK
6
CONTINUOUS
10
1.2826883858267717
20
0.2137117716535433
11
1.2850734251968503
21
0.2272381102362205
0
LINE
8
BLACK
6
CONTINUOUS
10
1.2850734251968503
20
0.2272381102362205
11
1.2890126771653543
21
0.240396062992126
0
LINE
8
BLACK
6
CONTINUOUS
10
1.2890126771653543
20
0.240396062992126
11
1.2944528346456692
21
0.2530077952755905
0
LINE
8
BLACK
6
CONTINUOUS
10
1.2944528346456692
20
0.2530077952755905
11
1.3013203543307086
21
0.2649026377952756
0
LINE
8
BLACK
6
CONTINUOUS
10
1.3013203543307086
20
0.2649026377952756
11
1.3095223228346455
21
0.2759198031496063
0
LINE
8
BLACK
6
CONTINUOUS
10
1.3095223228346455
20
0.2759198031496063
11
1.3189478346456693
21
0.2859102755905512
0
LINE
8
BLACK
6
CONTINUOUS
10
1.3189478346456693
20
0.2859102755905512
11
1.3294694488188976
21
0.2947389763779528
0
LINE
8
BLACK
6
CONTINUOUS
10
1.3294694488188976
20
0.2947389763779528
11
1.3409448818897638
21
0.3022864566929134
0
LINE
8
BLACK
6
CONTINUOUS
10
1.3409448818897638
20
0.3022864566929134
11
1.353218937007874
21
0.3084507086614173
0
LINE
8
BLACK
6
CONTINUOUS
10
1.353218937007874
20
0.3084507086614173
11
1.3661255905511811
21
0.3131483858267716
0
LINE
8
BLACK
6
CONTINUOUS
10
1.3661255905511811
20
0.3131483858267716
11
1.3794903543307087
21
0.3163158661417323
0
LINE
8
BLACK
6
CONTINUOUS
10
1.3794903543307087
20
0.3163158661417323
11
1.3931325196850393
21
0.3179103937007874
0
LINE
8
BLACK
6
CONTINUOUS
10
1.3931325196850393
20
0.3179103937007874
11
1.4068674803149606
21
0.3179103937007874
0
LINE
8
BLACK
6
CONTINUOUS
10
1.4068674803149606
20
0.3179103937007874
11
1.4205096456692914
21
0.3163158661417323
0
LINE
8
BLACK
6
CONTINUOUS
10
0.87
20
0.1
11
0.8099999999999999
21
0.1
0
LINE
8
BLACK
6
CONTINUOUS
10
0.8099999999999999
20
0.1
11
0.8099999999999999
21
0.16
0
LINE
8
BLACK
6
CONTINUOUS
10
0.8099999999999999
20
0.16
11
0.87
21
0.16
0
LINE
8
BLACK
6
CONTINUOUS
10
0.87
20
0.16
11
0.87
21
0.1
0
LINE
8
BLACK
6
CONTINUOUS
10
0.97
20
0.1
11
0.91
21
0.1
0
LINE
8
BLACK
6
CONTINUOUS
10
0.91
20
0.1
11
0.91
21
0.16
0
LINE
8
BLACK
6
CONTINUOUS
10
0.91
20
0.16
11
0.97
21
0.16
0
LINE
8
BLACK
6
CONTINUOUS
10
0.97
20
0.16
11
0.97
21
0.1
0
LINE
8
BLACK
6
CONTINUOUS
10
0.87
20
0.2
11
0.8099999999999999
21
0.2
0
LINE
8
BLACK
6
CONTINUOUS
10
0.8099999999999999
20
0.2
11
0.8099999999999999
21
0.26
0
LINE
8
BLACK
6
CONTINUOUS
10
0.8099999999999999
20
0.26
11
0.87
21
0.26
0
LINE
8
BLACK
6
CONTINUOUS
10
0.87
20
0.26
11
0.87
21
0.2
0
LINE
8
BLACK
6
CONTINUOUS
10
0.3461138188976378
20
0.502817125984252
11
0.3518110236220472
21
0.500457283464567
0
LINE
8
BLACK
6
CONTINUOUS
10
0.3518110236220472
20
0.500457283464567
11
0.3567033070866142
21
0.4967033070866141
0
LINE
8
BLACK
6
CONTINUOUS
10
0.3567033070866142
20
0.4967033070866141
11
0.4897845669291339
21
0.3636220472440945
0
LINE
8
BLACK
6
CONTINUOUS
10
0.4897845669291339
20
0.3636220472440945
11
0.6600787401574802
21
0.3636220472440945
0
LINE
8
BLACK
6
CONTINUOUS
10
0.6600787401574802
20
0.3636220472440945
11
0.907244094488189
21
0.3636220472440945
0
LINE
8
BLACK
6
CONTINUOUS
10
0.907244094488189
20
0.3636220472440945
11
0.9133579133858267
21
0.362817125984252
0
LINE
8
BLACK
6
CONTINUOUS
10
0.9133579133858267
20
0.362817125984252
11
0.9190551181102362
21
0.3604572834645669
0
LINE
8
BLACK
6
CONTINUOUS
10
0.9190551181102362
20
0.3604572834645669
11
0.9239474015748032
21
0.3567033070866142
0
LINE
8
BLACK
6
CONTINUOUS
10
0.9239474015748032
20
0.3567033070866142
11
0.9399999999999999
21
0.3406507086614173
0
LINE
8
BLACK
6
CONTINUOUS
10
0.9399999999999999
20
0.3406507086614173
11
1.0160525984251969
21
0.4167033070866142
0
LINE
8
BLACK
6
CONTINUOUS
10
1.0160525984251969
20
0.4167033070866142
11
1.0166775984251968
21
0.417182874015748
0
LINE
8
BLACK
6
CONTINUOUS
10
1.0166775984251968
20
0.417182874015748
11
1.0209448818897637
21
0.4204572834645669
0
LINE
8
BLACK
6
CONTINUOUS
10
1.0209448818897637
20
0.4204572834645669
11
1.0266420866141732
21
0.422817125984252
0
LINE
8
BLACK
6
CONTINUOUS
10
1.0266420866141732
20
0.422817125984252
11
1.032755905511811
21
0.4236220472440945
0
LINE
8
BLACK
6
CONTINUOUS
10
1.032755905511811
20
0.4236220472440945
11
1.22
21
0.4236220472440945
0
LINE
8
BLACK
6
CONTINUOUS
10
1.22
20
0.4236220472440945
11
1.2261138188976377
21
0.422817125984252
0
LINE
8
BLACK
6
CONTINUOUS
10
1.2261138188976377
20
0.422817125984252
11
1.2318110236220472
21
0.4204572834645669
0
LINE
8
BLACK
6
CONTINUOUS
10
1.2318110236220472
20
0.4204572834645669
11
1.2367033070866142
21
0.4167033070866142
0
LINE
8
BLACK
6
CONTINUOUS
10
1.2367033070866142
20
0.4167033070866142
11
1.2404572834645669
21
0.4118110236220472
0
LINE
8
BLACK
6
CONTINUOUS
10
1.2404572834645669
20
0.4118110236220472
11
1.242817125984252
21
0.4061138188976378
0
LINE
8
BLACK
6
CONTINUOUS
10
1.242817125984252
20
0.4061138188976378
11
1.2436220472440944
21
0.4
0
LINE
8
BLACK
6
CONTINUOUS
10
1.2436220472440944
20
0.4
11
1.242817125984252
21
0.3938861811023622
0
LINE
8
BLACK
6
CONTINUOUS
10
1.242817125984252
20
0.3938861811023622
11
1.2404572834645669
21
0.3881889763779527
0
LINE
8
BLACK
6
CONTINUOUS
10
1.2404572834645669
20
0.3881889763779527
11
1.2367033070866142
21
0.3832966929133858
0
LINE
8
BLACK
6
CONTINUOUS
10
1.2367033070866142
20
0.3832966929133858
11
1.2318110236220472
21
0.3795427165354331
0
LINE
8
BLACK
6
CONTINUOUS
10
1.2318110236220472
20
0.3795427165354331
11
1.2261138188976377
21
0.377182874015748
0
LINE
8
BLACK
6
CONTINUOUS
10
1.2261138188976377
20
0.377182874015748
11
1.22
21
0.3763779527559055
0
LINE
8
BLACK
6
CONTINUOUS
10
1.22
20
0.3763779527559055
11
1.0425404724409448
21
0.3763779527559055
0
LINE
8
BLACK
6
CONTINUOUS
10
1.0425404724409448
20
0.3763779527559055
11
0.9636220472440945
21
0.2974595275590551
0
LINE
8
BLACK
6
CONTINUOUS
10
0.9636220472440945
20
0.2974595275590551
11
0.9636220472440945
21
0.26
0
LINE
8
BLACK
6
CONTINUOUS
10
0.9636220472440945
20
0.26
11
0.97
21
0.26
0
LINE
8
BLACK
6
CONTINUOUS
10
0.97
20
0.26
11
0.97
21
0.2
0
LINE
8
BLACK
6
CONTINUOUS
10
0.97
20
0.2
11
0.91
21
0.2
0
LINE
8
BLACK
6
CONTINUOUS
10
0.91
20
0.2
11
0.91
21
0.26
0
LINE
8
BLACK
6
CONTINUOUS
10
0.91
20
0.26
11
0.9163779527559055
21
0.26
0
LINE
8
BLACK
6
CONTINUOUS
10
0.9163779527559055
20
0.26
11
0.9163779527559055
21
0.2974595275590551
0
LINE
8
BLACK
6
CONTINUOUS
10
0.9163779527559055
20
0.2974595275590551
11
0.8974595275590551
21
0.3163779527559055
0
LINE
8
BLACK
6
CONTINUOUS
10
0.8974595275590551
20
0.3163779527559055
11
0.6600787401574802
21
0.3163779527559055
0
LINE
8
BLACK
6
CONTINUOUS
10
0.6600787401574802
20
0.3163779527559055
11
0.48
21
0.3163779527559055
0
LINE
8
BLACK
6
CONTINUOUS
10
0.48
20
0.3163779527559055
11
0.4738861417322834
21
0.317182874015748
0
LINE
8
BLACK
6
CONTINUOUS
10
0.4738861417322834
20
0.317182874015748
11
0.4721297637795275
21
0.3179103937007874
0
LINE
8
BLACK
6
CONTINUOUS
10
0.4721297637795275
20
0.3179103937007874
11
0.4681889763779528
21
0.3195427165354331
0
LINE
8
BLACK
6
CONTINUOUS
10
0.4681889763779528
20
0.3195427165354331
11
0.4632966929133858
21
0.3232966929133858
0
LINE
8
BLACK
6
CONTINUOUS
10
0.4632966929133858
20
0.3232966929133858
11
0.3232966929133858
21
0.4632966929133858
0
LINE
8
BLACK
6
CONTINUOUS
10
0.3232966929133858
20
0.4632966929133858
11
0.3195427165354331
21
0.4681889763779528
0
LINE
8
BLACK
6
CONTINUOUS
10
0.3195427165354331
20
0.4681889763779528
11
0.317182874015748
21
0.4738861811023622
0
LINE
8
BLACK
6
CONTINUOUS
10
0.317182874015748
20
0.4738861811023622
11
0.3163779527559055
21
0.48
0
LINE
8
BLACK
6
CONTINUOUS
10
0.3163779527559055
20
0.48
11
0.317182874015748
21
0.4861138188976378
0
LINE
8
BLACK
6
CONTINUOUS
10
0.317182874015748
20
0.4861138188976378
11
0.3195427165354331
21
0.4918110236220472
0
LINE
8
BLACK
6
CONTINUOUS
10
0.3195427165354331
20
0.4918110236220472
11
0.3232966929133858
21
0.4967033070866141
0
LINE
8
BLACK
6
CONTINUOUS
10
0.3232966929133858
20
0.4967033070866141
11
0.3281889763779527
21
0.500457283464567
0
LINE
8
BLACK
6
CONTINUOUS
10
0.3281889763779527
20
0.500457283464567
11
0.3338861811023622
21
0.502817125984252
0
LINE
8
BLACK
6
CONTINUOUS
10
0.3338861811023622
20
0.502817125984252
11
0.34
21
0.5036220472440944
0
LINE
8
BLACK
6
CONTINUOUS
10
0.34
20
0.5036220472440944
11
0.3461138188976378
21
0.502817125984252
0
LINE
8
BLACK
6
CONTINUOUS
10
1.4061138188976379
20
0.9428171259842519
11
1.4118110236220471
21
0.9404572834645669
0
LINE
8
BLACK
6
CONTINUOUS
10
1.4118110236220471
20
0.9404572834645669
11
1.4167033070866142
21
0.9367033070866142
0
LINE
8
BLACK
6
CONTINUOUS
10
1.4167033070866142
20
0.9367033070866142
11
1.4204572834645668
21
0.9318110236220473
0
LINE
8
BLACK
6
CONTINUOUS
10
1.4204572834645668
20
0.9318110236220473
11
1.4228171259842519
21
0.9261138188976378
0
LINE
8
BLACK
6
CONTINUOUS
10
1.4228171259842519
20
0.9261138188976378
11
1.4236220472440944
21
0.9199999999999999
0
LINE
8
BLACK
6
CONTINUOUS
10
1.4236220472440944
20
0.9199999999999999
11
1.4236220472440944
21
0.58
0
LINE
8
BLACK
6
CONTINUOUS
10
1.4236220472440944
20
0.58
11
1.4228171259842519
21
0.5738861811023622
0
LINE
8
BLACK
6
CONTINUOUS
10
1.4228171259842519
20
0.5738861811023622
11
1.4204572834645668
21
0.5681889763779527
0
LINE
8
BLACK
6
CONTINUOUS
10
1.4204572834645668
20
0.5681889763779527
11
1.4167033070866142
21
0.5632966929133858
0
LINE
8
BLACK
6
CONTINUOUS
10
1.4167033070866142
20
0.5632966929133858
11
1.4118110236220471
21
0.5595427165354331
0
LINE
8
BLACK
6
CONTINUOUS
10
1.4118110236220471
20
0.5595427165354331
11
1.4061138188976379
21
0.5571828740157481
0
LINE
8
BLACK
6
CONTINUOUS
10
1.4061138188976379
20
0.5571828740157481
11
1.3999999999999999
21
0.5563779527559055
0
LINE
8
BLACK
6
CONTINUOUS
10
1.3999999999999999
20
0.5563779527559055
11
1.1199999999999999
21
0.5563779527559055
0
LINE
8
BLACK
6
CONTINUOUS
10
1.1199999999999999
20
0.5563779527559055
11
0.82
21
0.5563779527559055
0
LINE
8
BLACK
6
CONTINUOUS
10
0.82
20
0.5563779527559055
11
0.8138861811023622
21
0.5571828740157481
0
LINE
8
BLACK
6
CONTINUOUS
10
0.8138861811023622
20
0.5571828740157481
11
0.8081889763779527
21
0.5595427165354331
0
LINE
8
BLACK
6
CONTINUOUS
10
0.8081889763779527
20
0.5595427165354331
11
0.8032966929133858
21
0.5632966929133858
0
LINE
8
BLACK
6
CONTINUOUS
10
0.8032966929133858
20
0.5632966929133858
11
0.7995427165354331
21
0.5681889763779527
0
LINE
8
BLACK
6
CONTINUOUS
10
0.7995427165354331
20
0.5681889763779527
11
0.7971828740157481
21
0.5738861811023622
0
LINE
8
BLACK
6
CONTINUOUS
10
0.7971828740157481
20
0.5738861811023622
11
0.7963779527559055
21
0.58
0
LINE
8
BLACK
6
CONTINUOUS
10
0.7963779527559055
20
0.58
11
0.7971828740157481
21
0.5861138188976378
0
LINE
8
BLACK
6
CONTINUOUS
10
0.7971828740157481
20
0.5861138188976378
11
0.7995427165354331
21
0.5918110236220472
0
LINE
8
BLACK
6
CONTINUOUS
10
0.7995427165354331
20
0.5918110236220472
11
0.8032966929133858
21
0.5967033070866141
0
LINE
8
BLACK
6
CONTINUOUS
10
0.8032966929133858
20
0.5967033070866141
11
0.8081889763779527
21
0.6004572834645669
0
LINE
8
BLACK
6
CONTINUOUS
10
0.8081889763779527
20
0.6004572834645669
11
0.8138861811023622
21
0.602817125984252
0
LINE
8
BLACK
6
CONTINUOUS
10
0.8138861811023622
20
0.602817125984252
11
0.82
21
0.6036220472440945
0
LINE
8
BLACK
6
CONTINUOUS
10
0.82
20
0.6036220472440945
11
1.1199999999999999
21
0.6036220472440945
0
LINE
8
BLACK
6
CONTINUOUS
10
1.1199999999999999
20
0.6036220472440945
11
1.3763779527559055
21
0.6036220472440945
0
LINE
8
BLACK
6
CONTINUOUS
10
1.3763779527559055
20
0.6036220472440945
11
1.3763779527559055
21
0.9199999999999999
0
LINE
8
BLACK
6
CONTINUOUS
10
1.3763779527559055
20
0.9199999999999999
11
1.3771828740157479
21
0.9261138188976378
0
LINE
8
BLACK
6
CONTINUOUS
10
1.3771828740157479
20
0.9261138188976378
11
1.379542716535433
21
0.9318110236220473
0
LINE
8
BLACK
6
CONTINUOUS
10
1.379542716535433
20
0.9318110236220473
11
1.3832966929133859
21
0.9367033070866142
0
LINE
8
BLACK
6
CONTINUOUS
10
1.3832966929133859
20
0.9367033070866142
11
1.3881889763779527
21
0.9404572834645669
0
LINE
8
BLACK
6
CONTINUOUS
10
1.3881889763779527
20
0.9404572834645669
11
1.3938861811023622
21
0.9428171259842519
0
LINE
8
BLACK
6
CONTINUOUS
10
1.3938861811023622
20
0.9428171259842519
11
1.3999999999999999
21
0.9436220472440945
0
LINE
8
BLACK
6
CONTINUOUS
10
1.3999999999999999
20
0.9436220472440945
11
1.4061138188976379
21
0.9428171259842519
0
LINE
8
BLACK
6
CONTINUOUS
10
0.2205096456692913
20
1.5163158661417322
11
0.2338744094488189
21
1.5131483858267716
0
LINE
8
BLACK
6
CONTINUOUS
10
0.2338744094488189
20
1.5131483858267716
11
0.246781062992126
21
1.5084507086614174
0
LINE
8
BLACK
6
CONTINUOUS
10
0.246781062992126
20
1.5084507086614174
11
0.2590551181102362
21
1.5022864566929133
0
LINE
8
BLACK
6
CONTINUOUS
10
0.2590551181102362
20
1.5022864566929133
11
0.2705305511811024
21
1.4947389763779528
0
LINE
8
BLACK
6
CONTINUOUS
10
0.2705305511811024
20
1.4947389763779528
11
0.2810521653543307
21
1.4859102755905511
0
LINE
8
BLACK
6
CONTINUOUS
10
0.2810521653543307
20
1.4859102755905511
11
0.2904776771653543
21
1.4759198031496064
0
LINE
8
BLACK
6
CONTINUOUS
10
0.2904776771653543
20
1.4759198031496064
11
0.2986796456692913
21
1.4649026377952756
0
LINE
8
BLACK
6
CONTINUOUS
10
0.2986796456692913
20
1.4649026377952756
11
0.3055471653543307
21
1.4530077952755904
0
LINE
8
BLACK
6
CONTINUOUS
10
0.3055471653543307
20
1.4530077952755904
11
0.3109873228346456
21
1.440396062992126
0
LINE
8
BLACK
6
CONTINUOUS
10
0.3109873228346456
20
1.440396062992126
11
0.3149265748031496
21
1.4272381102362204
0
LINE
8
BLACK
6
CONTINUOUS
10
0.3149265748031496
20
1.4272381102362204
11
0.3173116141732283
21
1.4137117716535432
0
LINE
8
BLACK
6
CONTINUOUS
10
0.3173116141732283
20
1.4137117716535432
11
0.3181102362204724
21
1.3999999999999999
0
LINE
8
BLACK
6
CONTINUOUS
10
0.3181102362204724
20
1.3999999999999999
11
0.3173116141732283
21
1.3862882283464566
0
LINE
8
BLACK
6
CONTINUOUS
10
0.3173116141732283
20
1.3862882283464566
11
0.3149265748031496
21
1.3727618897637794
0
LINE
8
BLACK
6
CONTINUOUS
10
0.3149265748031496
20
1.3727618897637794
11
0.3109873228346456
21
1.3596039370078741
0
LINE
8
BLACK
6
CONTINUOUS
10
0.3109873228346456
20
1.3596039370078741
11
0.3055471653543307
21
1.3469922047244094
0
LINE
8
BLACK
6
CONTINUOUS
10
0.3055471653543307
20
1.3469922047244094
11
0.2986796456692913
21
1.3350973622047244
0
LINE
8
BLACK
6
CONTINUOUS
10
0.2986796456692913
20
1.3350973622047244
11
0.2904776771653543
21
1.3240801968503937
0
LINE
8
BLACK
6
CONTINUOUS
10
0.2904776771653543
20
1.3240801968503937
11
0.2810521653543307
21
1.3140897244094487
0
LINE
8
BLACK
6
CONTINUOUS
10
0.2810521653543307
20
1.3140897244094487
11
0.2705305511811024
21
1.3052610236220472
0
LINE
8
BLACK
6
CONTINUOUS
10
0.2705305511811024
20
1.3052610236220472
11
0.2590551181102362
21
1.2977135433070865
0
LINE
8
BLACK
6
CONTINUOUS
10
0.2590551181102362
20
1.2977135433070865
11
0.246781062992126
21
1.2915492913385827
0
LINE
8
BLACK
6
CONTINUOUS
10
0.246781062992126
20
1.2915492913385827
11
0.2338744094488189
21
1.2868516141732282
0
LINE
8
BLACK
6
CONTINUOUS
10
0.2338744094488189
20
1.2868516141732282
11
0.2205096456692913
21
1.2836841338582676
0
LINE
8
BLACK
6
CONTINUOUS
10
0.2205096456692913
20
1.2836841338582676
11
0.2068674803149606
21
1.2820896062992126
0
LINE
8
BLACK
6
CONTINUOUS
10
0.2068674803149606
20
1.2820896062992126
11
0.1931325196850394
21
1.2820896062992126
0
LINE
8
BLACK
6
CONTINUOUS
10
0.1931325196850394
20
1.2820896062992126
11
0.1794903543307086
21
1.2836841338582676
0
LINE
8
BLACK
6
CONTINUOUS
10
0.1794903543307086
20
1.2836841338582676
11
0.1661255905511811
21
1.2868516141732282
0
LINE
8
BLACK
6
CONTINUOUS
10
0.1661255905511811
20
1.2868516141732282
11
0.153218937007874
21
1.2915492913385827
0
LINE
8
BLACK
6
CONTINUOUS
10
0.153218937007874
20
1.2915492913385827
11
0.1409448818897638
21
1.2977135433070865
0
LINE
8
BLACK
6
CONTINUOUS
10
0.1409448818897638
20
1.2977135433070865
11
0.1294694488188976
21
1.3052610236220472
0
LINE
8
BLACK
6
CONTINUOUS
10
0.1294694488188976
20
1.3052610236220472
11
0.1189478346456693
21
1.3140897244094487
0
LINE
8
BLACK
6
CONTINUOUS
10
0.1189478346456693
20
1.3140897244094487
11
0.1095223228346457
21
1.3240801968503937
0
LINE
8
BLACK
6
CONTINUOUS
10
0.1095223228346457
20
1.3240801968503937
11
0.1013203543307087
21
1.3350973622047244
0
LINE
8
BLACK
6
CONTINUOUS
10
0.1013203543307087
20
1.3350973622047244
11
0.0944528346456693
21
1.3469922047244094
0
LINE
8
BLACK
6
CONTINUOUS
10
0.0944528346456693
20
1.3469922047244094
11
0.0890126771653543
21
1.3596039370078741
0
LINE
8
BLACK
6
CONTINUOUS
10
0.0890126771653543
20
1.3596039370078741
11
0.0850734251968504
21
1.3727618897637794
0
LINE
8
BLACK
6
CONTINUOUS
10
0.0850734251968504
20
1.3727618897637794
11
0.0826883858267717
21
1.3862882283464566
0
LINE
8
BLACK
6
CONTINUOUS
10
0.0826883858267717
20
1.3862882283464566
11
0.0818897637795276
21
1.3999999999999999
0
LINE
8
BLACK
6
CONTINUOUS
10
0.0818897637795276
20
1.3999999999999999
11
0.0826883858267717
21
1.4137117716535432
0
LINE
8
BLACK
6
CONTINUOUS
10
0.0826883858267717
20
1.4137117716535432
11
0.0850734251968504
21
1.4272381102362204
0
LINE
8
BLACK
6
CONTINUOUS
10
0.0850734251968504
20
1.4272381102362204
11
0.0890126771653543
21
1.440396062992126
0
LINE
8
BLACK
6
CONTINUOUS
10
0.0890126771653543
20
1.440396062992126
11
0.0944528346456693
21
1.4530077952755904
0
LINE
8
BLACK
6
CONTINUOUS
10
0.0944528346456693
20
1.4530077952755904
11
0.1013203543307087
21
1.4649026377952756
0
LINE
8
BLACK
6
CONTINUOUS
10
0.1013203543307087
20
1.4649026377952756
11
0.1095223228346457
21
1.4759198031496064
0
LINE
8
BLACK
6
CONTINUOUS
10
0.1095223228346457
20
1.4759198031496064
11
0.1189478346456693
21
1.4859102755905511
0
LINE
8
BLACK
6
CONTINUOUS
10
0.1189478346456693
20
1.4859102755905511
11
0.1294694488188976
21
1.4947389763779528
0
LINE
8
BLACK
6
CONTINUOUS
10
0.1294694488188976
20
1.4947389763779528
11
0.1409448818897638
21
1.5022864566929133
0
LINE
8
BLACK
6
CONTINUOUS
10
0.1409448818897638
20
1.5022864566929133
11
0.153218937007874
21
1.5084507086614174
0
LINE
8
BLACK
6
CONTINUOUS
10
0.153218937007874
20
1.5084507086614174
11
0.1661255905511811
21
1.5131483858267716
0
LINE
8
BLACK
6
CONTINUOUS
10
0.1661255905511811
20
1.5131483858267716
11
0.1794903543307086
21
1.5163158661417322
0
LINE
8
BLACK
6
CONTINUOUS
10
0.1794903543307086
20
1.5163158661417322
11
0.1931325196850394
21
1.5179103937007874
0
LINE
8
BLACK
6
CONTINUOUS
10
0.1931325196850394
20
1.5179103937007874
11
0.2068674803149606
21
1.5179103937007874
0
LINE
8
BLACK
6
CONTINUOUS
10
0.2068674803149606
20
1.5179103937007874
11
0.2205096456692913
21
1.5163158661417322
0
LINE
8
BLACK
6
CONTINUOUS
10
1.4205096456692914
20
1.5163158661417322
11
1.4338744094488189
21
1.5131483858267716
0
LINE
8
BLACK
6
CONTINUOUS
10
1.4338744094488189
20
1.5131483858267716
11
1.4467810629921261
21
1.5084507086614174
0
LINE
8
BLACK
6
CONTINUOUS
10
1.4467810629921261
20
1.5084507086614174
11
1.4590551181102362
21
1.5022864566929133
0
LINE
8
BLACK
6
CONTINUOUS
10
1.4590551181102362
20
1.5022864566929133
11
1.4705305511811024
21
1.4947389763779528
0
LINE
8
BLACK
6
CONTINUOUS
10
1.4705305511811024
20
1.4947389763779528
11
1.4810521653543307
21
1.4859102755905511
0
LINE
8
BLACK
6
CONTINUOUS
10
1.4810521653543307
20
1.4859102755905511
11
1.4904776771653543
21
1.4759198031496064
0
LINE
8
BLACK
6
CONTINUOUS
10
1.4904776771653543
20
1.4759198031496064
11
1.4986796456692912
21
1.4649026377952756
0
LINE
8
BLACK
6
CONTINUOUS
10
1.4986796456692912
20
1.4649026377952756
11
1.5055471653543306
21
1.4530077952755904
0
LINE
8
BLACK
6
CONTINUOUS
10
1.5055471653543306
20
1.4530077952755904
11
1.5109873228346455
21
1.440396062992126
0
LINE
8
BLACK
6
CONTINUOUS
10
1.5109873228346455
20
1.440396062992126
11
1.5149265748031495
21
1.4272381102362204
0
LINE
8
BLACK
6
CONTINUOUS
10
1.5149265748031495
20
1.4272381102362204
11
1.5173116141732284
21
1.4137117716535432
0
LINE
8
BLACK
6
CONTINUOUS
10
1.5173116141732284
20
1.4137117716535432
11
1.5181102362204724
21
1.3999999999999999
0
LINE
8
BLACK
6
CONTINUOUS
10
1.5181102362204724
20
1.3999999999999999
11
1.5173116141732284
21
1.3862882283464566
0
LINE
8
BLACK
6
CONTINUOUS
10
1.5173116141732284
20
1.3862882283464566
11
1.5149265748031495
21
1.3727618897637794
0
LINE
8
BLACK
6
CONTINUOUS
10
1.5149265748031495
20
1.3727618897637794
11
1.5109873228346455
21
1.3596039370078741
0
LINE
8
BLACK
6
CONTINUOUS
10
1.5109873228346455
20
1.3596039370078741
11
1.5055471653543306
21
1.3469922047244094
0
LINE
8
BLACK
6
CONTINUOUS
10
1.5055471653543306
20
1.3469922047244094
11
1.4986796456692912
21
1.3350973622047244
0
LINE
8
BLACK
6
CONTINUOUS
10
1.4986796456692912
20
1.3350973622047244
11
1.4904776771653543
21
1.3240801968503937
0
LINE
8
BLACK
6
CONTINUOUS
10
1.4904776771653543
20
1.3240801968503937
11
1.4810521653543307
21
1.3140897244094487
0
LINE
8
BLACK
6
CONTINUOUS
10
1.4810521653543307
20
1.3140897244094487
11
1.4705305511811024
21
1.3052610236220472
0
LINE
8
BLACK
6
CONTINUOUS
10
1.4705305511811024
20
1.3052610236220472
11
1.4590551181102362
21
1.2977135433070865
0
LINE
8
BLACK
6
CONTINUOUS
10
1.4590551181102362
20
1.2977135433070865
11
1.4467810629921261
21
1.2915492913385827
0
LINE
8
BLACK
6
CONTINUOUS
10
1.4467810629921261
20
1.2915492913385827
11
1.4338744094488189
21
1.2868516141732282
0
LINE
8
BLACK
6
CONTINUOUS
10
1.4338744094488189
20
1.2868516141732282
11
1.4205096456692914
21
1.2836841338582676
0
LINE
8
BLACK
6
CONTINUOUS
10
1.4205096456692914
20
1.2836841338582676
11
1.4068674803149606
21
1.2820896062992126
0
LINE
8
BLACK
6
CONTINUOUS
10
1.4068674803149606
20
1.2820896062992126
11
1.3931325196850393
21
1.2820896062992126
0
LINE
8
BLACK
6
CONTINUOUS
10
1.3931325196850393
20
1.2820896062992126
11
1.3794903543307087
21
1.2836841338582676
0
LINE
8
BLACK
6
CONTINUOUS
10
1.3794903543307087
20
1.2836841338582676
11
1.3661255905511811
21
1.2868516141732282
0
LINE
8
BLACK
6
CONTINUOUS
10
1.3661255905511811
20
1.2868516141732282
11
1.353218937007874
21
1.2915492913385827
0
LINE
8
BLACK
6
CONTINUOUS
10
1.353218937007874
20
1.2915492913385827
11
1.3409448818897638
21
1.2977135433070865
0
LINE
8
BLACK
6
CONTINUOUS
10
1.3409448818897638
20
1.2977135433070865
11
1.3294694488188976
21
1.3052610236220472
0
LINE
8
BLACK
6
CONTINUOUS
10
1.3294694488188976
20
1.3052610236220472
11
1.3189478346456693
21
1.3140897244094487
0
LINE
8
BLACK
6
CONTINUOUS
10
1.3189478346456693
20
1.3140897244094487
11
1.3095223228346455
21
1.3240801968503937
0
LINE
8
BLACK
6
CONTINUOUS
10
1.3095223228346455
20
1.3240801968503937
11
1.3013203543307086
21
1.3350973622047244
0
LINE
8
BLACK
6
CONTINUOUS
10
1.3013203543307086
20
1.3350973622047244
11
1.2944528346456692
21
1.3469922047244094
0
LINE
8
BLACK
6
CONTINUOUS
10
1.2944528346456692
20
1.3469922047244094
11
1.2890126771653543
21
1.3596039370078741
0
LINE
8
BLACK
6
CONTINUOUS
10
1.2890126771653543
20
1.3596039370078741
11
1.2850734251968503
21
1.3727618897637794
0
LINE
8
BLACK
6
CONTINUOUS
10
1.2850734251968503
20
1.3727618897637794
11
1.2826883858267717
21
1.3862882283464566
0
LINE
8
BLACK
6
CONTINUOUS
10
1.2826883858267717
20
1.3862882283464566
11
1.2818897637795275
21
1.3999999999999999
0
LINE
8
BLACK
6
CONTINUOUS
10
1.2818897637795275
20
1.3999999999999999
11
1.2826883858267717
21
1.4137117716535432
0
LINE
8
BLACK
6
CONTINUOUS
10
1.2826883858267717
20
1.4137117716535432
11
1.2850734251968503
21
1.4272381102362204
0
LINE
8
BLACK
6
CONTINUOUS
10
1.2850734251968503
20
1.4272381102362204
11
1.2890126771653543
21
1.440396062992126
0
LINE
8
BLACK
6
CONTINUOUS
10
1.2890126771653543
20
1.440396062992126
11
1.2944528346456692
21
1.4530077952755904
0
LINE
8
BLACK
6
CONTINUOUS
10
1.2944528346456692
20
1.4530077952755904
11
1.3013203543307086
21
1.4649026377952756
0
LINE
8
BLACK
6
CONTINUOUS
10
1.3013203543307086
20
1.4649026377952756
11
1.3095223228346455
21
1.4759198031496064
0
LINE
8
BLACK
6
CONTINUOUS
10
1.3095223228346455
20
1.4759198031496064
11
1.3189478346456693
21
1.4859102755905511
0
LINE
8
BLACK
6
CONTINUOUS
10
1.3189478346456693
20
1.4859102755905511
11
1.3294694488188976
21
1.4947389763779528
0
LINE
8
BLACK
6
CONTINUOUS
10
1.3294694488188976
20
1.4947389763779528
11
1.3409448818897638
21
1.5022864566929133
0
LINE
8
BLACK
6
CONTINUOUS
10
1.3409448818897638
20
1.5022864566929133
11
1.353218937007874
21
1.5084507086614174
0
LINE
8
BLACK
6
CONTINUOUS
10
1.353218937007874
20
1.5084507086614174
11
1.3661255905511811
21
1.5131483858267716
0
LINE
8
BLACK
6
CONTINUOUS
10
1.3661255905511811
20
1.5131483858267716
11
1.3794903543307087
21
1.5163158661417322
0
LINE
8
BLACK
6
CONTINUOUS
10
1.3794903543307087
20
1.5163158661417322
11
1.3931325196850393
21
1.5179103937007874
0
LINE
8
BLACK
6
CONTINUOUS
10
1.3931325196850393
20
1.5179103937007874
11
1.4068674803149606
21
1.5179103937007874
0
LINE
8
BLACK
6
CONTINUOUS
10
1.4068674803149606
20
1.5179103937007874
11
1.4205096456692914
21
1.5163158661417322
0
LINE
8
BLACK
6
CONTINUOUS
10
1.5847488582677165
20
1.5862400787401574
11
1.5865792913385826
21
1.5841276377952755
0
LINE
8
BLACK
6
CONTINUOUS
10
1.5865792913385826
20
1.5841276377952755
11
1.5870275590551182
21
1.5820669291338583
0
LINE
8
BLACK
6
CONTINUOUS
10
1.5870275590551182
20
1.5820669291338583
11
1.5870275590551182
21
0.0179330708661417
0
LINE
8
BLACK
6
CONTINUOUS
10
1.5870275590551182
20
0.0179330708661417
11
1.5862400787401574
21
0.0152511417322835
0
LINE
8
BLACK
6
CONTINUOUS
10
1.5862400787401574
20
0.0152511417322835
11
1.5841276377952755
21
0.0134207086614173
0
LINE
8
BLACK
6
CONTINUOUS
10
1.5841276377952755
20
0.0134207086614173
11
1.5820669291338583
21
0.0129724409448819
0
LINE
8
BLACK
6
CONTINUOUS
10
1.5820669291338583
20
0.0129724409448819
11
0.0179330708661417
21
0.0129724409448819
0
LINE
8
BLACK
6
CONTINUOUS
10
0.0179330708661417
20
0.0129724409448819
11
0.0152511417322835
21
0.0137599212598425
0
LINE
8
BLACK
6
CONTINUOUS
10
0.0152511417322835
20
0.0137599212598425
11
0.0134207086614173
21
0.0158723622047244
0
LINE
8
BLACK
6
CONTINUOUS
10
0.0134207086614173
20
0.0158723622047244
11
0.0129724409448819
21
0.0179330708661417
0
LINE
8
BLACK
6
CONTINUOUS
10
0.0129724409448819
20
0.0179330708661417
11
0.0129724409448819
21
0.199999842519685
0
LINE
8
BLACK
6
CONTINUOUS
10
0.0129724409448819
20
0.199999842519685
11
0.0129724409448819
21
0.4831275590551181
0
LINE
8
BLACK
6
CONTINUOUS
10
0.0129724409448819
20
0.4831275590551181
11
0.0129724409448819
21
0.5820860236220472
0
LINE
8
BLACK
6
CONTINUOUS
10
0.0129724409448819
20
0.5820860236220472
11
0.0129724409448819
21
1.3999998425196849
0
LINE
8
BLACK
6
CONTINUOUS
10
0.0129724409448819
20
1.3999998425196849
11
0.0129724409448819
21
1.5820669291338583
0
LINE
8
BLACK
6
CONTINUOUS
10
0.0129724409448819
20
1.5820669291338583
11
0.0137599212598425
21
1.5847488582677165
0
LINE
8
BLACK
6
CONTINUOUS
10
0.0137599212598425
20
1.5847488582677165
11
0.0158723622047244
21
1.5865792913385826
0
LINE
8
BLACK
6
CONTINUOUS
10
0.0158723622047244
20
1.5865792913385826
11
0.0179330708661417
21
1.5870275590551182
0
LINE
8
BLACK
6
CONTINUOUS
10
0.0179330708661417
20
1.5870275590551182
11
1.5820669291338583
21
1.5870275590551182
0
LINE
8
BLACK
6
CONTINUOUS
10
1.5820669291338583
20
1.5870275590551182
11
1.5847488582677165
21
1.5862400787401574
0
LINE
8
BLACK
6
CONTINUOUS
10
1.1900196850393701
20
0.2619146456692913
11
1.1900196456692913
21
0.2619153149606299
0
LINE
8
BLACK
6
CONTINUOUS
10
1.1900196456692913
20
0.2619153149606299
11
1.1897633858267715
21
0.2642990551181102
0
LINE
8
BLACK
6
CONTINUOUS
10
1.1897633858267715
20
0.2642990551181102
11
1.189763307086614
21
0.2642993700787402
0
LINE
8
BLACK
6
CONTINUOUS
10
1.189763307086614
20
0.2642993700787402
11
1.1894866141732283
21
0.2650411417322834
0
LINE
8
BLACK
6
CONTINUOUS
10
1.1894866141732283
20
0.2650411417322834
11
1.1877515354330708
21
0.2696930708661417
0
LINE
8
BLACK
6
CONTINUOUS
10
1.1877515354330708
20
0.2696930708661417
11
1.1843016141732283
21
0.2743016141732283
0
LINE
8
BLACK
6
CONTINUOUS
10
1.1843016141732283
20
0.2743016141732283
11
1.1813912598425196
21
0.2764802755905512
0
LINE
8
BLACK
6
CONTINUOUS
10
1.1813912598425196
20
0.2764802755905512
11
1.179693188976378
21
0.2777514566929134
0
LINE
8
BLACK
6
CONTINUOUS
10
1.179693188976378
20
0.2777514566929134
11
1.1796931496062992
21
0.2777514566929134
0
LINE
8
BLACK
6
CONTINUOUS
10
1.1796931496062992
20
0.2777514566929134
11
1.1796930708661417
21
0.2777515354330709
0
LINE
8
BLACK
6
CONTINUOUS
10
1.1796930708661417
20
0.2777515354330709
11
1.1742992519685038
21
0.2797633464566929
0
LINE
8
BLACK
6
CONTINUOUS
10
1.1742992519685038
20
0.2797633464566929
11
1.1742991732283465
21
0.2797633464566929
0
LINE
8
BLACK
6
CONTINUOUS
10
1.1742991732283465
20
0.2797633464566929
11
1.1742990551181103
21
0.2797633858267716
0
LINE
8
BLACK
6
CONTINUOUS
10
1.1742990551181103
20
0.2797633858267716
11
1.1719153149606298
21
0.2800196456692913
0
LINE
8
BLACK
6
CONTINUOUS
10
1.1719153149606298
20
0.2800196456692913
11
1.1719151574803148
21
0.2800196456692913
0
LINE
8
BLACK
6
CONTINUOUS
10
1.1719151574803148
20
0.2800196456692913
11
1.1719148818897638
21
0.2800196850393701
0
LINE
8
BLACK
6
CONTINUOUS
10
1.1719148818897638
20
0.2800196850393701
11
1.1080851181102362
21
0.2800196850393701
0
LINE
8
BLACK
6
CONTINUOUS
10
1.1080851181102362
20
0.2800196850393701
11
1.108084842519685
21
0.2800196456692913
0
LINE
8
BLACK
6
CONTINUOUS
10
1.108084842519685
20
0.2800196456692913
11
1.1080846456692912
21
0.2800196456692913
0
LINE
8
BLACK
6
CONTINUOUS
10
1.1080846456692912
20
0.2800196456692913
11
1.105700905511811
21
0.2797633858267716
0
LINE
8
BLACK
6
CONTINUOUS
10
1.105700905511811
20
0.2797633858267716
11
1.105700590551181
21
0.2797633070866142
0
LINE
8
BLACK
6
CONTINUOUS
10
1.105700590551181
20
0.2797633070866142
11
1.1026328740157481
21
0.2786190551181102
0
LINE
8
BLACK
6
CONTINUOUS
10
1.1026328740157481
20
0.2786190551181102
11
1.1003069291338583
21
0.2777515354330709
0
LINE
8
BLACK
6
CONTINUOUS
10
1.1003069291338583
20
0.2777515354330709
11
1.1003068503937008
21
0.2777514960629921
0
LINE
8
BLACK
6
CONTINUOUS
10
1.1003068503937008
20
0.2777514960629921
11
1.1003067716535433
21
0.2777514566929134
0
LINE
8
BLACK
6
CONTINUOUS
10
1.1003067716535433
20
0.2777514566929134
11
1.095698346456693
21
0.2743016141732283
0
LINE
8
BLACK
6
CONTINUOUS
10
1.095698346456693
20
0.2743016141732283
11
1.0922485039370078
21
0.269693188976378
0
LINE
8
BLACK
6
CONTINUOUS
10
1.0922485039370078
20
0.269693188976378
11
1.0922484251968503
21
0.2696929921259842
0
LINE
8
BLACK
6
CONTINUOUS
10
1.0922484251968503
20
0.2696929921259842
11
1.090236653543307
21
0.2642993700787402
0
LINE
8
BLACK
6
CONTINUOUS
10
1.090236653543307
20
0.2642993700787402
11
1.0902365748031495
21
0.2642990551181102
0
LINE
8
BLACK
6
CONTINUOUS
10
1.0902365748031495
20
0.2642990551181102
11
1.08998031496063
21
0.2619153149606299
0
LINE
8
BLACK
6
CONTINUOUS
10
1.08998031496063
20
0.2619153149606299
11
1.08998031496063
21
0.1980846456692913
0
LINE
8
BLACK
6
CONTINUOUS
10
1.08998031496063
20
0.1980846456692913
11
1.0902365748031495
21
0.195700905511811
0
LINE
8
BLACK
6
CONTINUOUS
10
1.0902365748031495
20
0.195700905511811
11
1.090236653543307
21
0.1957005905511811
0
LINE
8
BLACK
6
CONTINUOUS
10
1.090236653543307
20
0.1957005905511811
11
1.0922484251968503
21
0.190306968503937
0
LINE
8
BLACK
6
CONTINUOUS
10
1.0922484251968503
20
0.190306968503937
11
1.0922485039370078
21
0.1903067716535433
0
LINE
8
BLACK
6
CONTINUOUS
10
1.0922485039370078
20
0.1903067716535433
11
1.0956983858267717
21
0.1856983464566929
0
LINE
8
BLACK
6
CONTINUOUS
10
1.0956983858267717
20
0.1856983464566929
11
1.0980056299212597
21
0.1839711417322835
0
LINE
8
BLACK
6
CONTINUOUS
10
1.0980056299212597
20
0.1839711417322835
11
1.0996806692913386
21
0.1817335039370079
0
LINE
8
BLACK
6
CONTINUOUS
10
1.0996806692913386
20
0.1817335039370079
11
1.0998800393700787
21
0.1789455118110236
0
LINE
8
BLACK
6
CONTINUOUS
10
1.0998800393700787
20
0.1789455118110236
11
1.0985404724409449
21
0.1764922834645669
0
LINE
8
BLACK
6
CONTINUOUS
10
1.0985404724409449
20
0.1764922834645669
11
1.0980056299212597
21
0.1760288582677165
0
LINE
8
BLACK
6
CONTINUOUS
10
1.0980056299212597
20
0.1760288582677165
11
1.0956983858267717
21
0.1743016141732283
0
LINE
8
BLACK
6
CONTINUOUS
10
1.0956983858267717
20
0.1743016141732283
11
1.0922485039370078
21
0.1696931889763779
0
LINE
8
BLACK
6
CONTINUOUS
10
1.0922485039370078
20
0.1696931889763779
11
1.0922484251968503
21
0.1696929921259842
0
LINE
8
BLACK
6
CONTINUOUS
10
1.0922484251968503
20
0.1696929921259842
11
1.090236653543307
21
0.1642993700787402
0
LINE
8
BLACK
6
CONTINUOUS
10
1.090236653543307
20
0.1642993700787402
11
1.0902365748031495
21
0.1642990551181102
0
LINE
8
BLACK
6
CONTINUOUS
10
1.0902365748031495
20
0.1642990551181102
11
1.08998031496063
21
0.1619153149606299
0
LINE
8
BLACK
6
CONTINUOUS
10
1.08998031496063
20
0.1619153149606299
11
1.08998031496063
21
0.0980846456692913
0
LINE
8
BLACK
6
CONTINUOUS
10
1.08998031496063
20
0.0980846456692913
11
1.0902365748031495
21
0.095700905511811
0
LINE
8
BLACK
6
CONTINUOUS
10
1.0902365748031495
20
0.095700905511811
11
1.090236653543307
21
0.0957005905511811
0
LINE
8
BLACK
6
CONTINUOUS
10
1.090236653543307
20
0.0957005905511811
11
1.0922484251968503
21
0.090306968503937
0
LINE
8
BLACK
6
CONTINUOUS
10
1.0922484251968503
20
0.090306968503937
11
1.0922485039370078
21
0.0903067716535433
0
LINE
8
BLACK
6
CONTINUOUS
10
1.0922485039370078
20
0.0903067716535433
11
1.095698346456693
21
0.0856983464566929
0
LINE
8
BLACK
6
CONTINUOUS
10
1.095698346456693
20
0.0856983464566929
11
1.1003067716535433
21
0.0822485039370079
0
LINE
8
BLACK
6
CONTINUOUS
10
1.1003067716535433
20
0.0822485039370079
11
1.1003069685039371
21
0.0822484251968504
0
LINE
8
BLACK
6
CONTINUOUS
10
1.1003069685039371
20
0.0822484251968504
11
1.105700590551181
21
0.0802366535433071
0
LINE
8
BLACK
6
CONTINUOUS
10
1.105700590551181
20
0.0802366535433071
11
1.105700905511811
21
0.0802365748031496
0
LINE
8
BLACK
6
CONTINUOUS
10
1.105700905511811
20
0.0802365748031496
11
1.1080846456692912
21
0.0799803149606299
0
LINE
8
BLACK
6
CONTINUOUS
10
1.1080846456692912
20
0.0799803149606299
11
1.1080851181102362
21
0.0799803149606299
0
LINE
8
BLACK
6
CONTINUOUS
10
1.1080851181102362
20
0.0799803149606299
11
1.1719153149606298
21
0.0799803149606299
0
LINE
8
BLACK
6
CONTINUOUS
10
1.1719153149606298
20
0.0799803149606299
11
1.1742990551181103
21
0.0802365748031496
0
LINE
8
BLACK
6
CONTINUOUS
10
1.1742990551181103
20
0.0802365748031496
11
1.1742993700787401
21
0.0802366535433071
0
LINE
8
BLACK
6
CONTINUOUS
10
1.1742993700787401
20
0.0802366535433071
11
1.1796929921259842
21
0.0822484251968504
0
LINE
8
BLACK
6
CONTINUOUS
10
1.1796929921259842
20
0.0822484251968504
11
1.179693188976378
21
0.0822485039370079
0
LINE
8
BLACK
6
CONTINUOUS
10
1.179693188976378
20
0.0822485039370079
11
1.1843016141732283
21
0.0856983464566929
0
LINE
8
BLACK
6
CONTINUOUS
10
1.1843016141732283
20
0.0856983464566929
11
1.1877514566929133
21
0.0903067716535433
0
LINE
8
BLACK
6
CONTINUOUS
10
1.1877514566929133
20
0.0903067716535433
11
1.1877515354330708
21
0.090306968503937
0
LINE
8
BLACK
6
CONTINUOUS
10
1.1877515354330708
20
0.090306968503937
11
1.189763307086614
21
0.0957005905511811
0
LINE
8
BLACK
6
CONTINUOUS
10
1.189763307086614
20
0.0957005905511811
11
1.1897633858267715
21
0.095700905511811
0
LINE
8
BLACK
6
CONTINUOUS
10
1.1897633858267715
20
0.095700905511811
11
1.1900196456692913
21
0.0980846456692913
0
LINE
8
BLACK
6
CONTINUOUS
10
1.1900196456692913
20
0.0980846456692913
11
1.1900196850393701
21
0.0980853149606299
0
LINE
8
BLACK
6
CONTINUOUS
10
1.1900196850393701
20
0.0980853149606299
11
1.1900196850393701
21
0.1619146456692913
0
LINE
8
BLACK
6
CONTINUOUS
10
1.1900196850393701
20
0.1619146456692913
11
1.1900196456692913
21
0.1619153149606299
0
LINE
8
BLACK
6
CONTINUOUS
10
1.1900196456692913
20
0.1619153149606299
11
1.1897633858267715
21
0.1642990551181102
0
LINE
8
BLACK
6
CONTINUOUS
10
1.1897633858267715
20
0.1642990551181102
11
1.189763307086614
21
0.1642993700787402
0
LINE
8
BLACK
6
CONTINUOUS
10
1.189763307086614
20
0.1642993700787402
11
1.1894866141732283
21
0.1650411417322835
0
LINE
8
BLACK
6
CONTINUOUS
10
1.1894866141732283
20
0.1650411417322835
11
1.1877515354330708
21
0.1696930708661417
0
LINE
8
BLACK
6
CONTINUOUS
10
1.1877515354330708
20
0.1696930708661417
11
1.1843016141732283
21
0.1743016141732283
0
LINE
8
BLACK
6
CONTINUOUS
10
1.1843016141732283
20
0.1743016141732283
11
1.1819943700787401
21
0.1760288188976378
0
LINE
8
BLACK
6
CONTINUOUS
10
1.1819943700787401
20
0.1760288188976378
11
1.1803192913385827
21
0.1782664566929134
0
LINE
8
BLACK
6
CONTINUOUS
10
1.1803192913385827
20
0.1782664566929134
11
1.1801199212598426
21
0.1810544881889764
0
LINE
8
BLACK
6
CONTINUOUS
10
1.1801199212598426
20
0.1810544881889764
11
1.1814594881889764
21
0.1835077165354331
0
LINE
8
BLACK
6
CONTINUOUS
10
1.1814594881889764
20
0.1835077165354331
11
1.1819943700787401
21
0.1839711811023622
0
LINE
8
BLACK
6
CONTINUOUS
10
1.1819943700787401
20
0.1839711811023622
11
1.1843016141732283
21
0.1856983464566929
0
LINE
8
BLACK
6
CONTINUOUS
10
1.1843016141732283
20
0.1856983464566929
11
1.1877514566929133
21
0.1903067716535433
0
LINE
8
BLACK
6
CONTINUOUS
10
1.1877514566929133
20
0.1903067716535433
11
1.1877515354330708
21
0.190306968503937
0
LINE
8
BLACK
6
CONTINUOUS
10
1.1877515354330708
20
0.190306968503937
11
1.189763307086614
21
0.1957005905511811
0
LINE
8
BLACK
6
CONTINUOUS
10
1.189763307086614
20
0.1957005905511811
11
1.1897633858267715
21
0.195700905511811
0
LINE
8
BLACK
6
CONTINUOUS
10
1.1897633858267715
20
0.195700905511811
11
1.1900196456692913
21
0.1980846456692913
0
LINE
8
BLACK
6
CONTINUOUS
10
1.1900196456692913
20
0.1980846456692913
11
1.1900196850393701
21
0.1980853149606299
0
LINE
8
BLACK
6
CONTINUOUS
10
1.1900196850393701
20
0.1980853149606299
11
1.1900196850393701
21
0.199999842519685
0
LINE
8
BLACK
6
CONTINUOUS
10
1.1900196850393701
20
0.199999842519685
11
1.1900196850393701
21
0.2619146456692913
0
LINE
8
BLACK
6
CONTINUOUS
10
0.0430693700787402
20
0.184543779527559
11
0.0430694094488189
21
0.1845432283464567
0
LINE
8
BLACK
6
CONTINUOUS
10
0.0430694094488189
20
0.1845432283464567
11
0.0442636614173228
21
0.1764922834645669
0
LINE
8
BLACK
6
CONTINUOUS
10
0.0442636614173228
20
0.1764922834645669
11
0.04534
21
0.1692362204724409
0
LINE
8
BLACK
6
CONTINUOUS
10
0.04534
20
0.1692362204724409
11
0.0465766141732283
21
0.1642993700787402
0
LINE
8
BLACK
6
CONTINUOUS
10
0.0465766141732283
20
0.1642993700787402
11
0.049100157480315
21
0.1542248031496063
0
LINE
8
BLACK
6
CONTINUOUS
10
0.049100157480315
20
0.1542248031496063
11
0.0543134251968504
21
0.1396547244094488
0
LINE
8
BLACK
6
CONTINUOUS
10
0.0543134251968504
20
0.1396547244094488
11
0.0609299606299213
21
0.1256653149606299
0
LINE
8
BLACK
6
CONTINUOUS
10
0.0609299606299213
20
0.1256653149606299
11
0.0688856692913386
21
0.112391968503937
0
LINE
8
BLACK
6
CONTINUOUS
10
0.0688856692913386
20
0.112391968503937
11
0.0781037007874016
21
0.099962874015748
0
LINE
8
BLACK
6
CONTINUOUS
10
0.0781037007874016
20
0.099962874015748
11
0.0884963779527559
21
0.0884963779527559
0
LINE
8
BLACK
6
CONTINUOUS
10
0.0884963779527559
20
0.0884963779527559
11
0.099962874015748
21
0.0781037007874016
0
LINE
8
BLACK
6
CONTINUOUS
10
0.099962874015748
20
0.0781037007874016
11
0.112391968503937
21
0.0688856692913386
0
LINE
8
BLACK
6
CONTINUOUS
10
0.112391968503937
20
0.0688856692913386
11
0.1256653149606299
21
0.0609299606299213
0
LINE
8
BLACK
6
CONTINUOUS
10
0.1256653149606299
20
0.0609299606299213
11
0.1396547244094488
21
0.0543134251968504
0
LINE
8
BLACK
6
CONTINUOUS
10
0.1396547244094488
20
0.0543134251968504
11
0.1542248031496063
21
0.049100157480315
0
LINE
8
BLACK
6
CONTINUOUS
10
0.1542248031496063
20
0.049100157480315
11
0.1617306299212598
21
0.0472200393700787
0
LINE
8
BLACK
6
CONTINUOUS
10
0.1617306299212598
20
0.0472200393700787
11
0.1692362204724409
21
0.04534
0
LINE
8
BLACK
6
CONTINUOUS
10
0.1692362204724409
20
0.04534
11
0.1692363779527559
21
0.0453399606299213
0
LINE
8
BLACK
6
CONTINUOUS
10
0.1692363779527559
20
0.0453399606299213
11
0.1692364566929134
21
0.0453399606299213
0
LINE
8
BLACK
6
CONTINUOUS
10
0.1692364566929134
20
0.0453399606299213
11
0.1845432283464567
21
0.0430694094488189
0
LINE
8
BLACK
6
CONTINUOUS
10
0.1845432283464567
20
0.0430694094488189
11
0.1845435433070866
21
0.0430693700787402
0
LINE
8
BLACK
6
CONTINUOUS
10
0.1845435433070866
20
0.0430693700787402
11
0.1845436614173228
21
0.0430693700787402
0
LINE
8
BLACK
6
CONTINUOUS
10
0.1845436614173228
20
0.0430693700787402
11
0.1911677952755906
21
0.042743937007874
0
LINE
8
BLACK
6
CONTINUOUS
10
0.1911677952755906
20
0.042743937007874
11
0.199999842519685
21
0.0423100393700787
0
LINE
8
BLACK
6
CONTINUOUS
10
0.199999842519685
20
0.0423100393700787
11
0.2
21
0.0423100393700787
0
LINE
8
BLACK
6
CONTINUOUS
10
0.2
20
0.0423100393700787
11
0.200000157480315
21
0.0423100393700787
0
LINE
8
BLACK
6
CONTINUOUS
10
0.200000157480315
20
0.0423100393700787
11
0.2077281496062992
21
0.0426896850393701
0
LINE
8
BLACK
6
CONTINUOUS
10
0.2077281496062992
20
0.0426896850393701
11
0.2154563385826772
21
0.0430693700787402
0
LINE
8
BLACK
6
CONTINUOUS
10
0.2154563385826772
20
0.0430693700787402
11
0.2154564566929134
21
0.0430693700787402
0
LINE
8
BLACK
6
CONTINUOUS
10
0.2154564566929134
20
0.0430693700787402
11
0.2154567322834646
21
0.0430694094488189
0
LINE
8
BLACK
6
CONTINUOUS
10
0.2154567322834646
20
0.0430694094488189
11
0.2307635039370079
21
0.0453399606299213
0
LINE
8
BLACK
6
CONTINUOUS
10
0.2307635039370079
20
0.0453399606299213
11
0.2307637795275591
21
0.04534
0
LINE
8
BLACK
6
CONTINUOUS
10
0.2307637795275591
20
0.04534
11
0.2420076771653543
21
0.0481564566929134
0
LINE
8
BLACK
6
CONTINUOUS
10
0.2420076771653543
20
0.0481564566929134
11
0.2457751574803149
21
0.049100157480315
0
LINE
8
BLACK
6
CONTINUOUS
10
0.2457751574803149
20
0.049100157480315
11
0.2603452362204725
21
0.0543134251968504
0
LINE
8
BLACK
6
CONTINUOUS
10
0.2603452362204725
20
0.0543134251968504
11
0.2603453543307087
21
0.0543134645669291
0
LINE
8
BLACK
6
CONTINUOUS
10
0.2603453543307087
20
0.0543134645669291
11
0.2743345275590551
21
0.0609298818897638
0
LINE
8
BLACK
6
CONTINUOUS
10
0.2743345275590551
20
0.0609298818897638
11
0.2788050787401575
21
0.0636094488188976
0
LINE
8
BLACK
6
CONTINUOUS
10
0.2788050787401575
20
0.0636094488188976
11
0.2876079921259843
21
0.0688856692913386
0
LINE
8
BLACK
6
CONTINUOUS
10
0.2876079921259843
20
0.0688856692913386
11
0.3000370866141732
21
0.0781037007874016
0
LINE
8
BLACK
6
CONTINUOUS
10
0.3000370866141732
20
0.0781037007874016
11
0.3046101574803149
21
0.0822485039370079
0
LINE
8
BLACK
6
CONTINUOUS
10
0.3046101574803149
20
0.0822485039370079
11
0.3115036220472441
21
0.0884963779527559
0
LINE
8
BLACK
6
CONTINUOUS
10
0.3115036220472441
20
0.0884963779527559
11
0.3218959842519685
21
0.0999625590551181
0
LINE
8
BLACK
6
CONTINUOUS
10
0.3218959842519685
20
0.0999625590551181
11
0.3218960236220472
21
0.0999625984251968
0
LINE
8
BLACK
6
CONTINUOUS
10
0.3218960236220472
20
0.0999625984251968
11
0.3218962598425197
21
0.099962874015748
0
LINE
8
BLACK
6
CONTINUOUS
10
0.3218962598425197
20
0.099962874015748
11
0.3311142913385827
21
0.112391968503937
0
LINE
8
BLACK
6
CONTINUOUS
10
0.3311142913385827
20
0.112391968503937
11
0.3311144094488189
21
0.1123921653543307
0
LINE
8
BLACK
6
CONTINUOUS
10
0.3311144094488189
20
0.1123921653543307
11
0.3390701181102362
21
0.1256654724409449
0
LINE
8
BLACK
6
CONTINUOUS
10
0.3390701181102362
20
0.1256654724409449
11
0.3456865354330709
21
0.1396546456692913
0
LINE
8
BLACK
6
CONTINUOUS
10
0.3456865354330709
20
0.1396546456692913
11
0.3508998818897638
21
0.1542250393700787
0
LINE
8
BLACK
6
CONTINUOUS
10
0.3508998818897638
20
0.1542250393700787
11
0.35466
21
0.1692362204724409
0
LINE
8
BLACK
6
CONTINUOUS
10
0.35466
20
0.1692362204724409
11
0.3569306299212598
21
0.1845436614173228
0
LINE
8
BLACK
6
CONTINUOUS
10
0.3569306299212598
20
0.1845436614173228
11
0.3576899606299213
21
0.2
0
LINE
8
BLACK
6
CONTINUOUS
10
0.3576899606299213
20
0.2
11
0.3569306299212598
21
0.2154563385826772
0
LINE
8
BLACK
6
CONTINUOUS
10
0.3569306299212598
20
0.2154563385826772
11
0.35466
21
0.2307637795275591
0
LINE
8
BLACK
6
CONTINUOUS
10
0.35466
20
0.2307637795275591
11
0.3508998818897638
21
0.2457749606299212
0
LINE
8
BLACK
6
CONTINUOUS
10
0.3508998818897638
20
0.2457749606299212
11
0.3456865354330709
21
0.2603453543307087
0
LINE
8
BLACK
6
CONTINUOUS
10
0.3456865354330709
20
0.2603453543307087
11
0.3390701181102362
21
0.2743345275590551
0
LINE
8
BLACK
6
CONTINUOUS
10
0.3390701181102362
20
0.2743345275590551
11
0.3311144094488189
21
0.2876078346456693
0
LINE
8
BLACK
6
CONTINUOUS
10
0.3311144094488189
20
0.2876078346456693
11
0.3257022440944882
21
0.2949053149606299
0
LINE
8
BLACK
6
CONTINUOUS
10
0.3257022440944882
20
0.2949053149606299
11
0.3218962598425197
21
0.3000370866141732
0
LINE
8
BLACK
6
CONTINUOUS
10
0.3218962598425197
20
0.3000370866141732
11
0.3218961811023622
21
0.300037125984252
0
LINE
8
BLACK
6
CONTINUOUS
10
0.3218961811023622
20
0.300037125984252
11
0.3218959842519685
21
0.3000374409448819
0
LINE
8
BLACK
6
CONTINUOUS
10
0.3218959842519685
20
0.3000374409448819
11
0.3115036220472441
21
0.3115036220472441
0
LINE
8
BLACK
6
CONTINUOUS
10
0.3115036220472441
20
0.3115036220472441
11
0.3000374409448819
21
0.3218959842519685
0
LINE
8
BLACK
6
CONTINUOUS
10
0.3000374409448819
20
0.3218959842519685
11
0.2876078346456693
21
0.3311144094488189
0
LINE
8
BLACK
6
CONTINUOUS
10
0.2876078346456693
20
0.3311144094488189
11
0.2743345275590551
21
0.3390701181102362
0
LINE
8
BLACK
6
CONTINUOUS
10
0.2743345275590551
20
0.3390701181102362
11
0.2603453543307087
21
0.3456865354330709
0
LINE
8
BLACK
6
CONTINUOUS
10
0.2603453543307087
20
0.3456865354330709
11
0.2457749606299212
21
0.3508998818897638
0
LINE
8
BLACK
6
CONTINUOUS
10
0.2457749606299212
20
0.3508998818897638
11
0.2307637795275591
21
0.35466
0
LINE
8
BLACK
6
CONTINUOUS
10
0.2307637795275591
20
0.35466
11
0.2154563385826772
21
0.3569306299212598
0
LINE
8
BLACK
6
CONTINUOUS
10
0.2154563385826772
20
0.3569306299212598
11
0.2021804724409449
21
0.3575828346456693
0
LINE
8
BLACK
6
CONTINUOUS
10
0.2021804724409449
20
0.3575828346456693
11
0.200000157480315
21
0.3576899606299213
0
LINE
8
BLACK
6
CONTINUOUS
10
0.200000157480315
20
0.3576899606299213
11
0.199999842519685
21
0.3576899606299213
0
LINE
8
BLACK
6
CONTINUOUS
10
0.199999842519685
20
0.3576899606299213
11
0.1977397637795276
21
0.3575788976377953
0
LINE
8
BLACK
6
CONTINUOUS
10
0.1977397637795276
20
0.3575788976377953
11
0.1845436614173228
21
0.3569306299212598
0
LINE
8
BLACK
6
CONTINUOUS
10
0.1845436614173228
20
0.3569306299212598
11
0.1692362204724409
21
0.35466
0
LINE
8
BLACK
6
CONTINUOUS
10
0.1692362204724409
20
0.35466
11
0.1542250393700787
21
0.3508998818897638
0
LINE
8
BLACK
6
CONTINUOUS
10
0.1542250393700787
20
0.3508998818897638
11
0.1396546456692913
21
0.3456865354330709
0
LINE
8
BLACK
6
CONTINUOUS
10
0.1396546456692913
20
0.3456865354330709
11
0.1256654724409449
21
0.3390701181102362
0
LINE
8
BLACK
6
CONTINUOUS
10
0.1256654724409449
20
0.3390701181102362
11
0.1123921653543307
21
0.3311144094488189
0
LINE
8
BLACK
6
CONTINUOUS
10
0.1123921653543307
20
0.3311144094488189
11
0.112391968503937
21
0.3311142913385827
0
LINE
8
BLACK
6
CONTINUOUS
10
0.112391968503937
20
0.3311142913385827
11
0.099962874015748
21
0.3218962598425197
0
LINE
8
BLACK
6
CONTINUOUS
10
0.099962874015748
20
0.3218962598425197
11
0.0999625984251968
21
0.3218960236220472
0
LINE
8
BLACK
6
CONTINUOUS
10
0.0999625984251968
20
0.3218960236220472
11
0.0999625590551181
21
0.3218959842519685
0
LINE
8
BLACK
6
CONTINUOUS
10
0.0999625590551181
20
0.3218959842519685
11
0.0884963779527559
21
0.3115036220472441
0
LINE
8
BLACK
6
CONTINUOUS
10
0.0884963779527559
20
0.3115036220472441
11
0.0785779921259843
21
0.3005603937007874
0
LINE
8
BLACK
6
CONTINUOUS
10
0.0785779921259843
20
0.3005603937007874
11
0.0781037007874016
21
0.3000370866141732
0
LINE
8
BLACK
6
CONTINUOUS
10
0.0781037007874016
20
0.3000370866141732
11
0.0688856692913386
21
0.2876079921259843
0
LINE
8
BLACK
6
CONTINUOUS
10
0.0688856692913386
20
0.2876079921259843
11
0.0643374409448819
21
0.2800196850393701
0
LINE
8
BLACK
6
CONTINUOUS
10
0.0643374409448819
20
0.2800196850393701
11
0.0609298818897638
21
0.2743345275590551
0
LINE
8
BLACK
6
CONTINUOUS
10
0.0609298818897638
20
0.2743345275590551
11
0.0543134645669291
21
0.2603453543307087
0
LINE
8
BLACK
6
CONTINUOUS
10
0.0543134645669291
20
0.2603453543307087
11
0.0543134251968504
21
0.2603452362204725
0
LINE
8
BLACK
6
CONTINUOUS
10
0.0543134251968504
20
0.2603452362204725
11
0.049100157480315
21
0.2457751574803149
0
LINE
8
BLACK
6
CONTINUOUS
10
0.049100157480315
20
0.2457751574803149
11
0.0491001181102362
21
0.2457749606299212
0
LINE
8
BLACK
6
CONTINUOUS
10
0.0491001181102362
20
0.2457749606299212
11
0.04534
21
0.2307637795275591
0
LINE
8
BLACK
6
CONTINUOUS
10
0.04534
20
0.2307637795275591
11
0.0453399606299213
21
0.2307635039370079
0
LINE
8
BLACK
6
CONTINUOUS
10
0.0453399606299213
20
0.2307635039370079
11
0.0430694094488189
21
0.2154567322834646
0
LINE
8
BLACK
6
CONTINUOUS
10
0.0430694094488189
20
0.2154567322834646
11
0.0430693700787402
21
0.2154561811023622
0
LINE
8
BLACK
6
CONTINUOUS
10
0.0430693700787402
20
0.2154561811023622
11
0.0423100393700787
21
0.2000001181102362
0
LINE
8
BLACK
6
CONTINUOUS
10
0.0423100393700787
20
0.2000001181102362
11
0.0423100393700787
21
0.199999842519685
0
LINE
8
BLACK
6
CONTINUOUS
10
0.0423100393700787
20
0.199999842519685
11
0.0430693700787402
21
0.184543779527559
0
LINE
8
BLACK
6
CONTINUOUS
10
1.2430693700787401
20
0.184543779527559
11
1.2430694094488188
21
0.1845432283464567
0
LINE
8
BLACK
6
CONTINUOUS
10
1.2430694094488188
20
0.1845432283464567
11
1.2442636614173228
21
0.1764922834645669
0
LINE
8
BLACK
6
CONTINUOUS
10
1.2442636614173228
20
0.1764922834645669
11
1.2453399999999999
21
0.1692362204724409
0
LINE
8
BLACK
6
CONTINUOUS
10
1.2453399999999999
20
0.1692362204724409
11
1.2465766141732284
21
0.1642993700787402
0
LINE
8
BLACK
6
CONTINUOUS
10
1.2465766141732284
20
0.1642993700787402
11
1.2491001574803149
21
0.1542248031496063
0
LINE
8
BLACK
6
CONTINUOUS
10
1.2491001574803149
20
0.1542248031496063
11
1.2543134251968504
21
0.1396547244094488
0
LINE
8
BLACK
6
CONTINUOUS
10
1.2543134251968504
20
0.1396547244094488
11
1.2609299606299211
21
0.1256653149606299
0
LINE
8
BLACK
6
CONTINUOUS
10
1.2609299606299211
20
0.1256653149606299
11
1.2688856692913386
21
0.112391968503937
0
LINE
8
BLACK
6
CONTINUOUS
10
1.2688856692913386
20
0.112391968503937
11
1.2781037007874017
21
0.099962874015748
0
LINE
8
BLACK
6
CONTINUOUS
10
1.2781037007874017
20
0.099962874015748
11
1.2884963779527558
21
0.0884963779527559
0
LINE
8
BLACK
6
CONTINUOUS
10
1.2884963779527558
20
0.0884963779527559
11
1.2999628740157481
21
0.0781037007874016
0
LINE
8
BLACK
6
CONTINUOUS
10
1.2999628740157481
20
0.0781037007874016
11
1.3123919685039369
21
0.0688856692913386
0
LINE
8
BLACK
6
CONTINUOUS
10
1.3123919685039369
20
0.0688856692913386
11
1.3256653149606299
21
0.0609299606299213
0
LINE
8
BLACK
6
CONTINUOUS
10
1.3256653149606299
20
0.0609299606299213
11
1.3396547244094488
21
0.0543134251968504
0
LINE
8
BLACK
6
CONTINUOUS
10
1.3396547244094488
20
0.0543134251968504
11
1.3542248031496062
21
0.049100157480315
0
LINE
8
BLACK
6
CONTINUOUS
10
1.3542248031496062
20
0.049100157480315
11
1.3617306299212597
21
0.0472200393700787
0
LINE
8
BLACK
6
CONTINUOUS
10
1.3617306299212597
20
0.0472200393700787
11
1.3692362204724409
21
0.04534
0
LINE
8
BLACK
6
CONTINUOUS
10
1.3692362204724409
20
0.04534
11
1.3692363779527559
21
0.0453399606299213
0
LINE
8
BLACK
6
CONTINUOUS
10
1.3692363779527559
20
0.0453399606299213
11
1.3692364566929134
21
0.0453399606299213
0
LINE
8
BLACK
6
CONTINUOUS
10
1.3692364566929134
20
0.0453399606299213
11
1.3845432283464567
21
0.0430694094488189
0
LINE
8
BLACK
6
CONTINUOUS
10
1.3845432283464567
20
0.0430694094488189
11
1.3845435433070865
21
0.0430693700787402
0
LINE
8
BLACK
6
CONTINUOUS
10
1.3845435433070865
20
0.0430693700787402
11
1.3845436614173228
21
0.0430693700787402
0
LINE
8
BLACK
6
CONTINUOUS
10
1.3845436614173228
20
0.0430693700787402
11
1.3911677952755905
21
0.042743937007874
0
LINE
8
BLACK
6
CONTINUOUS
10
1.3911677952755905
20
0.042743937007874
11
1.3999998425196849
21
0.0423100393700787
0
LINE
8
BLACK
6
CONTINUOUS
10
1.3999998425196849
20
0.0423100393700787
11
1.3999999999999999
21
0.0423100393700787
0
LINE
8
BLACK
6
CONTINUOUS
10
1.3999999999999999
20
0.0423100393700787
11
1.4000001574803149
21
0.0423100393700787
0
LINE
8
BLACK
6
CONTINUOUS
10
1.4000001574803149
20
0.0423100393700787
11
1.4077281496062992
21
0.0426896850393701
0
LINE
8
BLACK
6
CONTINUOUS
10
1.4077281496062992
20
0.0426896850393701
11
1.4154563385826771
21
0.0430693700787402
0
LINE
8
BLACK
6
CONTINUOUS
10
1.4154563385826771
20
0.0430693700787402
11
1.4154564566929133
21
0.0430693700787402
0
LINE
8
BLACK
6
CONTINUOUS
10
1.4154564566929133
20
0.0430693700787402
11
1.4154567322834646
21
0.0430694094488189
0
LINE
8
BLACK
6
CONTINUOUS
10
1.4154567322834646
20
0.0430694094488189
11
1.4307635039370079
21
0.0453399606299213
0
LINE
8
BLACK
6
CONTINUOUS
10
1.4307635039370079
20
0.0453399606299213
11
1.430763779527559
21
0.04534
0
LINE
8
BLACK
6
CONTINUOUS
10
1.430763779527559
20
0.04534
11
1.4420076771653543
21
0.0481564566929134
0
LINE
8
BLACK
6
CONTINUOUS
10
1.4420076771653543
20
0.0481564566929134
11
1.4457751574803148
21
0.049100157480315
0
LINE
8
BLACK
6
CONTINUOUS
10
1.4457751574803148
20
0.049100157480315
11
1.4603452362204723
21
0.0543134251968504
0
LINE
8
BLACK
6
CONTINUOUS
10
1.4603452362204723
20
0.0543134251968504
11
1.4603453543307086
21
0.0543134645669291
0
LINE
8
BLACK
6
CONTINUOUS
10
1.4603453543307086
20
0.0543134645669291
11
1.4743345275590551
21
0.0609298818897638
0
LINE
8
BLACK
6
CONTINUOUS
10
1.4743345275590551
20
0.0609298818897638
11
1.4788050787401574
21
0.0636094488188976
0
LINE
8
BLACK
6
CONTINUOUS
10
1.4788050787401574
20
0.0636094488188976
11
1.4876079921259842
21
0.0688856692913386
0
LINE
8
BLACK
6
CONTINUOUS
10
1.4876079921259842
20
0.0688856692913386
11
1.5000370866141732
21
0.0781037007874016
0
LINE
8
BLACK
6
CONTINUOUS
10
1.5000370866141732
20
0.0781037007874016
11
1.504610157480315
21
0.0822485039370079
0
LINE
8
BLACK
6
CONTINUOUS
10
1.504610157480315
20
0.0822485039370079
11
1.511503622047244
21
0.0884963779527559
0
LINE
8
BLACK
6
CONTINUOUS
10
1.511503622047244
20
0.0884963779527559
11
1.5218959842519684
21
0.0999625590551181
0
LINE
8
BLACK
6
CONTINUOUS
10
1.5218959842519684
20
0.0999625590551181
11
1.5218960236220471
21
0.0999625984251968
0
LINE
8
BLACK
6
CONTINUOUS
10
1.5218960236220471
20
0.0999625984251968
11
1.5218962598425196
21
0.099962874015748
0
LINE
8
BLACK
6
CONTINUOUS
10
1.5218962598425196
20
0.099962874015748
11
1.5311142913385827
21
0.112391968503937
0
LINE
8
BLACK
6
CONTINUOUS
10
1.5311142913385827
20
0.112391968503937
11
1.5311144094488189
21
0.1123921653543307
0
LINE
8
BLACK
6
CONTINUOUS
10
1.5311144094488189
20
0.1123921653543307
11
1.5390701181102362
21
0.1256654724409449
0
LINE
8
BLACK
6
CONTINUOUS
10
1.5390701181102362
20
0.1256654724409449
11
1.5456865354330709
21
0.1396546456692913
0
LINE
8
BLACK
6
CONTINUOUS
10
1.5456865354330709
20
0.1396546456692913
11
1.5508998818897637
21
0.1542250393700787
0
LINE
8
BLACK
6
CONTINUOUS
10
1.5508998818897637
20
0.1542250393700787
11
1.5546599999999999
21
0.1692362204724409
0
LINE
8
BLACK
6
CONTINUOUS
10
1.5546599999999999
20
0.1692362204724409
11
1.5569306299212597
21
0.1845436614173228
0
LINE
8
BLACK
6
CONTINUOUS
10
1.5569306299212597
20
0.1845436614173228
11
1.5576899606299213
21
0.2
0
LINE
8
BLACK
6
CONTINUOUS
10
1.5576899606299213
20
0.2
11
1.5569306299212597
21
0.2154563385826772
0
LINE
8
BLACK
6
CONTINUOUS
10
1.5569306299212597
20
0.2154563385826772
11
1.5546599999999999
21
0.2307637795275591
0
LINE
8
BLACK
6
CONTINUOUS
10
1.5546599999999999
20
0.2307637795275591
11
1.5508998818897637
21
0.2457749606299212
0
LINE
8
BLACK
6
CONTINUOUS
10
1.5508998818897637
20
0.2457749606299212
11
1.5456865354330709
21
0.2603453543307087
0
LINE
8
BLACK
6
CONTINUOUS
10
1.5456865354330709
20
0.2603453543307087
11
1.5390701181102362
21
0.2743345275590551
0
LINE
8
BLACK
6
CONTINUOUS
10
1.5390701181102362
20
0.2743345275590551
11
1.5311144094488189
21
0.2876078346456693
0
LINE
8
BLACK
6
CONTINUOUS
10
1.5311144094488189
20
0.2876078346456693
11
1.5257022440944881
21
0.2949053149606299
0
LINE
8
BLACK
6
CONTINUOUS
10
1.5257022440944881
20
0.2949053149606299
11
1.5218962598425196
21
0.3000370866141732
0
LINE
8
BLACK
6
CONTINUOUS
10
1.5218962598425196
20
0.3000370866141732
11
1.5218961811023621
21
0.300037125984252
0
LINE
8
BLACK
6
CONTINUOUS
10
1.5218961811023621
20
0.300037125984252
11
1.5218959842519684
21
0.3000374409448819
0
LINE
8
BLACK
6
CONTINUOUS
10
1.5218959842519684
20
0.3000374409448819
11
1.511503622047244
21
0.3115036220472441
0
LINE
8
BLACK
6
CONTINUOUS
10
1.511503622047244
20
0.3115036220472441
11
1.5000374409448818
21
0.3218959842519685
0
LINE
8
BLACK
6
CONTINUOUS
10
1.5000374409448818
20
0.3218959842519685
11
1.4876078346456691
21
0.3311144094488189
0
LINE
8
BLACK
6
CONTINUOUS
10
1.4876078346456691
20
0.3311144094488189
11
1.4743345275590551
21
0.3390701181102362
0
LINE
8
BLACK
6
CONTINUOUS
10
1.4743345275590551
20
0.3390701181102362
11
1.4603453543307086
21
0.3456865354330709
0
LINE
8
BLACK
6
CONTINUOUS
10
1.4603453543307086
20
0.3456865354330709
11
1.4457749606299213
21
0.3508998818897638
0
LINE
8
BLACK
6
CONTINUOUS
10
1.4457749606299213
20
0.3508998818897638
11
1.430763779527559
21
0.35466
0
LINE
8
BLACK
6
CONTINUOUS
10
1.430763779527559
20
0.35466
11
1.4154563385826771
21
0.3569306299212598
0
LINE
8
BLACK
6
CONTINUOUS
10
1.4154563385826771
20
0.3569306299212598
11
1.4021804724409448
21
0.3575828346456693
0
LINE
8
BLACK
6
CONTINUOUS
10
1.4021804724409448
20
0.3575828346456693
11
1.4000001574803149
21
0.3576899606299213
0
LINE
8
BLACK
6
CONTINUOUS
10
1.4000001574803149
20
0.3576899606299213
11
1.3999998425196849
21
0.3576899606299213
0
LINE
8
BLACK
6
CONTINUOUS
10
1.3999998425196849
20
0.3576899606299213
11
1.3977397637795275
21
0.3575788976377953
0
LINE
8
BLACK
6
CONTINUOUS
10
1.3977397637795275
20
0.3575788976377953
11
1.3845436614173228
21
0.3569306299212598
0
LINE
8
BLACK
6
CONTINUOUS
10
1.3845436614173228
20
0.3569306299212598
11
1.3692362204724409
21
0.35466
0
LINE
8
BLACK
6
CONTINUOUS
10
1.3692362204724409
20
0.35466
11
1.3542250393700788
21
0.3508998818897638
0
LINE
8
BLACK
6
CONTINUOUS
10
1.3542250393700788
20
0.3508998818897638
11
1.3396546456692913
21
0.3456865354330709
0
LINE
8
BLACK
6
CONTINUOUS
10
1.3396546456692913
20
0.3456865354330709
11
1.3256654724409449
21
0.3390701181102362
0
LINE
8
BLACK
6
CONTINUOUS
10
1.3256654724409449
20
0.3390701181102362
11
1.3123921653543307
21
0.3311144094488189
0
LINE
8
BLACK
6
CONTINUOUS
10
1.3123921653543307
20
0.3311144094488189
11
1.3123919685039369
21
0.3311142913385827
0
LINE
8
BLACK
6
CONTINUOUS
10
1.3123919685039369
20
0.3311142913385827
11
1.2999628740157481
21
0.3218962598425197
0
LINE
8
BLACK
6
CONTINUOUS
10
1.2999628740157481
20
0.3218962598425197
11
1.2999625984251968
21
0.3218960236220472
0
LINE
8
BLACK
6
CONTINUOUS
10
1.2999625984251968
20
0.3218960236220472
11
1.299962559055118
21
0.3218959842519685
0
LINE
8
BLACK
6
CONTINUOUS
10
1.299962559055118
20
0.3218959842519685
11
1.2884963779527558
21
0.3115036220472441
0
LINE
8
BLACK
6
CONTINUOUS
10
1.2884963779527558
20
0.3115036220472441
11
1.2785779921259843
21
0.3005603937007874
0
LINE
8
BLACK
6
CONTINUOUS
10
1.2785779921259843
20
0.3005603937007874
11
1.2781037007874017
21
0.3000370866141732
0
LINE
8
BLACK
6
CONTINUOUS
10
1.2781037007874017
20
0.3000370866141732
11
1.2688856692913386
21
0.2876079921259843
0
LINE
8
BLACK
6
CONTINUOUS
10
1.2688856692913386
20
0.2876079921259843
11
1.2643374409448818
21
0.2800196850393701
0
LINE
8
BLACK
6
CONTINUOUS
10
1.2643374409448818
20
0.2800196850393701
11
1.2609298818897638
21
0.2743345275590551
0
LINE
8
BLACK
6
CONTINUOUS
10
1.2609298818897638
20
0.2743345275590551
11
1.2543134645669292
21
0.2603453543307087
0
LINE
8
BLACK
6
CONTINUOUS
10
1.2543134645669292
20
0.2603453543307087
11
1.2543134251968504
21
0.2603452362204725
0
LINE
8
BLACK
6
CONTINUOUS
10
1.2543134251968504
20
0.2603452362204725
11
1.2491001574803149
21
0.2457751574803149
0
LINE
8
BLACK
6
CONTINUOUS
10
1.2491001574803149
20
0.2457751574803149
11
1.2491001181102361
21
0.2457749606299212
0
LINE
8
BLACK
6
CONTINUOUS
10
1.2491001181102361
20
0.2457749606299212
11
1.2453399999999999
21
0.2307637795275591
0
LINE
8
BLACK
6
CONTINUOUS
10
1.2453399999999999
20
0.2307637795275591
11
1.2453399606299211
21
0.2307635039370079
0
LINE
8
BLACK
6
CONTINUOUS
10
1.2453399606299211
20
0.2307635039370079
11
1.2430694094488188
21
0.2154567322834646
0
LINE
8
BLACK
6
CONTINUOUS
10
1.2430694094488188
20
0.2154567322834646
11
1.2430693700787401
21
0.2154561811023622
0
LINE
8
BLACK
6
CONTINUOUS
10
1.2430693700787401
20
0.2154561811023622
11
1.2423100393700788
21
0.2000001181102362
0
LINE
8
BLACK
6
CONTINUOUS
10
1.2423100393700788
20
0.2000001181102362
11
1.2423100393700788
21
0.199999842519685
0
LINE
8
BLACK
6
CONTINUOUS
10
1.2423100393700788
20
0.199999842519685
11
1.2430693700787401
21
0.184543779527559
0
LINE
8
BLACK
6
CONTINUOUS
10
0.3327299606299213
20
0.5232332677165354
11
0.3246794094488189
21
0.5210761023622047
0
LINE
8
BLACK
6
CONTINUOUS
10
0.3246794094488189
20
0.5210761023622047
11
0.324679094488189
21
0.5210759448818898
0
LINE
8
BLACK
6
CONTINUOUS
10
0.324679094488189
20
0.5210759448818898
11
0.3246789763779527
21
0.521075905511811
0
LINE
8
BLACK
6
CONTINUOUS
10
0.3246789763779527
20
0.521075905511811
11
0.3171828346456693
21
0.5174344881889764
0
LINE
8
BLACK
6
CONTINUOUS
10
0.3171828346456693
20
0.5174344881889764
11
0.3171826771653543
21
0.5174343700787402
0
LINE
8
BLACK
6
CONTINUOUS
10
0.3171826771653543
20
0.5174343700787402
11
0.3171825590551181
21
0.5174343307086614
0
LINE
8
BLACK
6
CONTINUOUS
10
0.3171825590551181
20
0.5174343307086614
11
0.3105103937007874
21
0.5124396456692913
0
LINE
8
BLACK
6
CONTINUOUS
10
0.3105103937007874
20
0.5124396456692913
11
0.3049040551181103
21
0.5062724803149606
0
LINE
8
BLACK
6
CONTINUOUS
10
0.3049040551181103
20
0.5062724803149606
11
0.3005662204724409
21
0.499155748031496
0
LINE
8
BLACK
6
CONTINUOUS
10
0.3005662204724409
20
0.499155748031496
11
0.2980407086614173
21
0.4923846850393701
0
LINE
8
BLACK
6
CONTINUOUS
10
0.2980407086614173
20
0.4923846850393701
11
0.2976535039370078
21
0.4913464960629921
0
LINE
8
BLACK
6
CONTINUOUS
10
0.2976535039370078
20
0.4913464960629921
11
0.2962714173228346
21
0.4831276377952756
0
LINE
8
BLACK
6
CONTINUOUS
10
0.2962714173228346
20
0.4831276377952756
11
0.2962714173228346
21
0.4831275590551181
0
LINE
8
BLACK
6
CONTINUOUS
10
0.2962714173228346
20
0.4831275590551181
11
0.2964562598425197
21
0.4753633858267716
0
LINE
8
BLACK
6
CONTINUOUS
10
0.2964562598425197
20
0.4753633858267716
11
0.2964698031496063
21
0.4747953149606299
0
LINE
8
BLACK
6
CONTINUOUS
10
0.2964698031496063
20
0.4747953149606299
11
0.2975327952755906
21
0.4699088582677165
0
LINE
8
BLACK
6
CONTINUOUS
10
0.2975327952755906
20
0.4699088582677165
11
0.2982414566929134
21
0.4666511417322834
0
LINE
8
BLACK
6
CONTINUOUS
10
0.2982414566929134
20
0.4666511417322834
11
0.3015224015748031
21
0.4589894488188976
0
LINE
8
BLACK
6
CONTINUOUS
10
0.3015224015748031
20
0.4589894488188976
11
0.3061940157480315
21
0.4520872047244094
0
LINE
8
BLACK
6
CONTINUOUS
10
0.3061940157480315
20
0.4520872047244094
11
0.4462712598425197
21
0.3120099212598425
0
LINE
8
BLACK
6
CONTINUOUS
10
0.4462712598425197
20
0.3120099212598425
11
0.4468040157480315
21
0.3113801968503937
0
LINE
8
BLACK
6
CONTINUOUS
10
0.4468040157480315
20
0.3113801968503937
11
0.4468674409448819
21
0.3112911417322834
0
LINE
8
BLACK
6
CONTINUOUS
10
0.4468674409448819
20
0.3112911417322834
11
0.4468677952755906
21
0.3112907086614173
0
LINE
8
BLACK
6
CONTINUOUS
10
0.4468677952755906
20
0.3112907086614173
11
0.4494651181102362
21
0.308814094488189
0
LINE
8
BLACK
6
CONTINUOUS
10
0.4494651181102362
20
0.308814094488189
11
0.4495493700787401
21
0.308731811023622
0
LINE
8
BLACK
6
CONTINUOUS
10
0.4495493700787401
20
0.308731811023622
11
0.4506104330708661
21
0.3076707874015748
0
LINE
8
BLACK
6
CONTINUOUS
10
0.4506104330708661
20
0.3076707874015748
11
0.4508755511811023
21
0.3074518503937008
0
LINE
8
BLACK
6
CONTINUOUS
10
0.4508755511811023
20
0.3074518503937008
11
0.4511396850393701
21
0.3072173622047244
0
LINE
8
BLACK
6
CONTINUOUS
10
0.4511396850393701
20
0.3072173622047244
11
0.4528997244094488
21
0.305539251968504
0
LINE
8
BLACK
6
CONTINUOUS
10
0.4528997244094488
20
0.305539251968504
11
0.4528997637795276
21
0.3055392125984252
0
LINE
8
BLACK
6
CONTINUOUS
10
0.4528997637795276
20
0.3055392125984252
11
0.453969842519685
21
0.3048514960629921
0
LINE
8
BLACK
6
CONTINUOUS
10
0.453969842519685
20
0.3048514960629921
11
0.4544460236220472
21
0.304503779527559
0
LINE
8
BLACK
6
CONTINUOUS
10
0.4544460236220472
20
0.304503779527559
11
0.4554270078740157
21
0.3036938188976378
0
LINE
8
BLACK
6
CONTINUOUS
10
0.4554270078740157
20
0.3036938188976378
11
0.4554272440944882
21
0.3036937007874015
0
LINE
8
BLACK
6
CONTINUOUS
10
0.4554272440944882
20
0.3036937007874015
11
0.4575613779527559
21
0.3025283464566929
0
LINE
8
BLACK
6
CONTINUOUS
10
0.4575613779527559
20
0.3025283464566929
11
0.4578657874015748
21
0.3023477165354331
0
LINE
8
BLACK
6
CONTINUOUS
10
0.4578657874015748
20
0.3023477165354331
11
0.4599111811023622
21
0.3010332283464567
0
LINE
8
BLACK
6
CONTINUOUS
10
0.4599111811023622
20
0.3010332283464567
11
0.4610922440944882
21
0.3005603937007874
0
LINE
8
BLACK
6
CONTINUOUS
10
0.4610922440944882
20
0.3005603937007874
11
0.4616255905511811
21
0.300309094488189
0
LINE
8
BLACK
6
CONTINUOUS
10
0.4616255905511811
20
0.300309094488189
11
0.4627421653543307
21
0.2996994488188977
0
LINE
8
BLACK
6
CONTINUOUS
10
0.4627421653543307
20
0.2996994488188977
11
0.4627422440944882
21
0.2996994094488189
0
LINE
8
BLACK
6
CONTINUOUS
10
0.4627422440944882
20
0.2996994094488189
11
0.4650579527559055
21
0.2989591338582677
0
LINE
8
BLACK
6
CONTINUOUS
10
0.4650579527559055
20
0.2989591338582677
11
0.4653909842519685
21
0.2988394094488189
0
LINE
8
BLACK
6
CONTINUOUS
10
0.4653909842519685
20
0.2988394094488189
11
0.4676487795275591
21
0.2979355905511811
0
LINE
8
BLACK
6
CONTINUOUS
10
0.4676487795275591
20
0.2979355905511811
11
0.4688982283464567
21
0.2976947637795275
0
LINE
8
BLACK
6
CONTINUOUS
10
0.4688982283464567
20
0.2976947637795275
11
0.4694696456692913
21
0.2975488976377953
0
LINE
8
BLACK
6
CONTINUOUS
10
0.4694696456692913
20
0.2975488976377953
11
0.4706808661417323
21
0.2971617322834645
0
LINE
8
BLACK
6
CONTINUOUS
10
0.4706808661417323
20
0.2971617322834645
11
0.4706809448818898
21
0.2971616929133858
0
LINE
8
BLACK
6
CONTINUOUS
10
0.4706809448818898
20
0.2971616929133858
11
0.470681062992126
21
0.2971616929133858
0
LINE
8
BLACK
6
CONTINUOUS
10
0.470681062992126
20
0.2971616929133858
11
0.4720607480314961
21
0.2969966929133858
0
LINE
8
BLACK
6
CONTINUOUS
10
0.4720607480314961
20
0.2969966929133858
11
0.4730950393700787
21
0.296873031496063
0
LINE
8
BLACK
6
CONTINUOUS
10
0.4730950393700787
20
0.296873031496063
11
0.4734447244094488
21
0.2968184645669291
0
LINE
8
BLACK
6
CONTINUOUS
10
0.4734447244094488
20
0.2968184645669291
11
0.4758326377952756
21
0.2963582677165355
0
LINE
8
BLACK
6
CONTINUOUS
10
0.4758326377952756
20
0.2963582677165355
11
0.4758327165354331
21
0.2963582677165355
0
LINE
8
BLACK
6
CONTINUOUS
10
0.4758327165354331
20
0.2963582677165355
11
0.4771050393700788
21
0.2963582677165355
0
LINE
8
BLACK
6
CONTINUOUS
10
0.4771050393700788
20
0.2963582677165355
11
0.4776938976377952
21
0.2963231889763779
0
LINE
8
BLACK
6
CONTINUOUS
10
0.4776938976377952
20
0.2963231889763779
11
0.4789566929133858
21
0.2961722047244094
0
LINE
8
BLACK
6
CONTINUOUS
10
0.4789566929133858
20
0.2961722047244094
11
0.4813816929133858
21
0.2963456299212598
0
LINE
8
BLACK
6
CONTINUOUS
10
0.4813816929133858
20
0.2963456299212598
11
0.4817355511811023
21
0.2963582677165355
0
LINE
8
BLACK
6
CONTINUOUS
10
0.4817355511811023
20
0.2963582677165355
11
0.6621575984251968
21
0.2963582677165355
0
LINE
8
BLACK
6
CONTINUOUS
10
0.6621575984251968
20
0.2963582677165355
11
0.8871124015748031
21
0.2963582677165355
0
LINE
8
BLACK
6
CONTINUOUS
10
0.8871124015748031
20
0.2963582677165355
11
0.8897943307086614
21
0.2955707874015748
0
LINE
8
BLACK
6
CONTINUOUS
10
0.8897943307086614
20
0.2955707874015748
11
0.8906200787401575
21
0.2949053149606299
0
LINE
8
BLACK
6
CONTINUOUS
10
0.8906200787401575
20
0.2949053149606299
11
0.8949053149606299
21
0.2906200787401575
0
LINE
8
BLACK
6
CONTINUOUS
10
0.8949053149606299
20
0.2906200787401575
11
0.8962449212598425
21
0.2881668503937008
0
LINE
8
BLACK
6
CONTINUOUS
10
0.8962449212598425
20
0.2881668503937008
11
0.8963582677165354
21
0.2871124015748032
0
LINE
8
BLACK
6
CONTINUOUS
10
0.8963582677165354
20
0.2871124015748032
11
0.8963582677165354
21
0.2768341732283465
0
LINE
8
BLACK
6
CONTINUOUS
10
0.8963582677165354
20
0.2768341732283465
11
0.8955707874015748
21
0.2741522440944882
0
LINE
8
BLACK
6
CONTINUOUS
10
0.8955707874015748
20
0.2741522440944882
11
0.8953688188976378
21
0.2738613779527559
0
LINE
8
BLACK
6
CONTINUOUS
10
0.8953688188976378
20
0.2738613779527559
11
0.8939711811023622
21
0.2719943700787402
0
LINE
8
BLACK
6
CONTINUOUS
10
0.8939711811023622
20
0.2719943700787402
11
0.8917335433070865
21
0.2703192913385827
0
LINE
8
BLACK
6
CONTINUOUS
10
0.8917335433070865
20
0.2703192913385827
11
0.8889455118110235
21
0.2701199212598425
0
LINE
8
BLACK
6
CONTINUOUS
10
0.8889455118110235
20
0.2701199212598425
11
0.8864922834645669
21
0.2714594881889764
0
LINE
8
BLACK
6
CONTINUOUS
10
0.8864922834645669
20
0.2714594881889764
11
0.8860288188976377
21
0.2719943700787402
0
LINE
8
BLACK
6
CONTINUOUS
10
0.8860288188976377
20
0.2719943700787402
11
0.8843016141732283
21
0.2743016141732283
0
LINE
8
BLACK
6
CONTINUOUS
10
0.8843016141732283
20
0.2743016141732283
11
0.8796931889763779
21
0.2777514566929134
0
LINE
8
BLACK
6
CONTINUOUS
10
0.8796931889763779
20
0.2777514566929134
11
0.8796931496062992
21
0.2777514566929134
0
LINE
8
BLACK
6
CONTINUOUS
10
0.8796931496062992
20
0.2777514566929134
11
0.8796930708661417
21
0.2777515354330709
0
LINE
8
BLACK
6
CONTINUOUS
10
0.8796930708661417
20
0.2777515354330709
11
0.8742992519685039
21
0.2797633464566929
0
LINE
8
BLACK
6
CONTINUOUS
10
0.8742992519685039
20
0.2797633464566929
11
0.8742991732283464
21
0.2797633464566929
0
LINE
8
BLACK
6
CONTINUOUS
10
0.8742991732283464
20
0.2797633464566929
11
0.8742990551181102
21
0.2797633858267716
0
LINE
8
BLACK
6
CONTINUOUS
10
0.8742990551181102
20
0.2797633858267716
11
0.8719153149606299
21
0.2800196456692913
0
LINE
8
BLACK
6
CONTINUOUS
10
0.8719153149606299
20
0.2800196456692913
11
0.8719151574803149
21
0.2800196456692913
0
LINE
8
BLACK
6
CONTINUOUS
10
0.8719151574803149
20
0.2800196456692913
11
0.8719148818897637
21
0.2800196850393701
0
LINE
8
BLACK
6
CONTINUOUS
10
0.8719148818897637
20
0.2800196850393701
11
0.8080851181102362
21
0.2800196850393701
0
LINE
8
BLACK
6
CONTINUOUS
10
0.8080851181102362
20
0.2800196850393701
11
0.808084842519685
21
0.2800196456692913
0
LINE
8
BLACK
6
CONTINUOUS
10
0.808084842519685
20
0.2800196456692913
11
0.8080846456692913
21
0.2800196456692913
0
LINE
8
BLACK
6
CONTINUOUS
10
0.8080846456692913
20
0.2800196456692913
11
0.8057009055118111
21
0.2797633858267716
0
LINE
8
BLACK
6
CONTINUOUS
10
0.8057009055118111
20
0.2797633858267716
11
0.805700590551181
21
0.2797633070866142
0
LINE
8
BLACK
6
CONTINUOUS
10
0.805700590551181
20
0.2797633070866142
11
0.802632874015748
21
0.2786190551181102
0
LINE
8
BLACK
6
CONTINUOUS
10
0.802632874015748
20
0.2786190551181102
11
0.8003069291338583
21
0.2777515354330709
0
LINE
8
BLACK
6
CONTINUOUS
10
0.8003069291338583
20
0.2777515354330709
11
0.8003068503937008
21
0.2777514960629921
0
LINE
8
BLACK
6
CONTINUOUS
10
0.8003068503937008
20
0.2777514960629921
11
0.8003067716535432
21
0.2777514566929134
0
LINE
8
BLACK
6
CONTINUOUS
10
0.8003067716535432
20
0.2777514566929134
11
0.7956983464566929
21
0.2743016141732283
0
LINE
8
BLACK
6
CONTINUOUS
10
0.7956983464566929
20
0.2743016141732283
11
0.7922485039370079
21
0.269693188976378
0
LINE
8
BLACK
6
CONTINUOUS
10
0.7922485039370079
20
0.269693188976378
11
0.7922484251968503
21
0.2696929921259842
0
LINE
8
BLACK
6
CONTINUOUS
10
0.7922484251968503
20
0.2696929921259842
11
0.7902366535433071
21
0.2642993700787402
0
LINE
8
BLACK
6
CONTINUOUS
10
0.7902366535433071
20
0.2642993700787402
11
0.7902365748031496
21
0.2642990551181102
0
LINE
8
BLACK
6
CONTINUOUS
10
0.7902365748031496
20
0.2642990551181102
11
0.7899803149606299
21
0.2619153149606299
0
LINE
8
BLACK
6
CONTINUOUS
10
0.7899803149606299
20
0.2619153149606299
11
0.7899803149606299
21
0.1980846456692913
0
LINE
8
BLACK
6
CONTINUOUS
10
0.7899803149606299
20
0.1980846456692913
11
0.7902365748031496
21
0.195700905511811
0
LINE
8
BLACK
6
CONTINUOUS
10
0.7902365748031496
20
0.195700905511811
11
0.7902366535433071
21
0.1957005905511811
0
LINE
8
BLACK
6
CONTINUOUS
10
0.7902366535433071
20
0.1957005905511811
11
0.7922484251968503
21
0.190306968503937
0
LINE
8
BLACK
6
CONTINUOUS
10
0.7922484251968503
20
0.190306968503937
11
0.7922485039370079
21
0.1903067716535433
0
LINE
8
BLACK
6
CONTINUOUS
10
0.7922485039370079
20
0.1903067716535433
11
0.7956983858267717
21
0.1856983464566929
0
LINE
8
BLACK
6
CONTINUOUS
10
0.7956983858267717
20
0.1856983464566929
11
0.7980056299212598
21
0.1839711417322835
0
LINE
8
BLACK
6
CONTINUOUS
10
0.7980056299212598
20
0.1839711417322835
11
0.7996806692913385
21
0.1817335039370079
0
LINE
8
BLACK
6
CONTINUOUS
10
0.7996806692913385
20
0.1817335039370079
11
0.7998800393700787
21
0.1789455118110236
0
LINE
8
BLACK
6
CONTINUOUS
10
0.7998800393700787
20
0.1789455118110236
11
0.7985404724409448
21
0.1764922834645669
0
LINE
8
BLACK
6
CONTINUOUS
10
0.7985404724409448
20
0.1764922834645669
11
0.7980056299212598
21
0.1760288582677165
0
LINE
8
BLACK
6
CONTINUOUS
10
0.7980056299212598
20
0.1760288582677165
11
0.7956983858267717
21
0.1743016141732283
0
LINE
8
BLACK
6
CONTINUOUS
10
0.7956983858267717
20
0.1743016141732283
11
0.7922485039370079
21
0.1696931889763779
0
LINE
8
BLACK
6
CONTINUOUS
10
0.7922485039370079
20
0.1696931889763779
11
0.7922484251968503
21
0.1696929921259842
0
LINE
8
BLACK
6
CONTINUOUS
10
0.7922484251968503
20
0.1696929921259842
11
0.7902366535433071
21
0.1642993700787402
0
LINE
8
BLACK
6
CONTINUOUS
10
0.7902366535433071
20
0.1642993700787402
11
0.7902365748031496
21
0.1642990551181102
0
LINE
8
BLACK
6
CONTINUOUS
10
0.7902365748031496
20
0.1642990551181102
11
0.7899803149606299
21
0.1619153149606299
0
LINE
8
BLACK
6
CONTINUOUS
10
0.7899803149606299
20
0.1619153149606299
11
0.7899803149606299
21
0.0980846456692913
0
LINE
8
BLACK
6
CONTINUOUS
10
0.7899803149606299
20
0.0980846456692913
11
0.7902365748031496
21
0.095700905511811
0
LINE
8
BLACK
6
CONTINUOUS
10
0.7902365748031496
20
0.095700905511811
11
0.7902366535433071
21
0.0957005905511811
0
LINE
8
BLACK
6
CONTINUOUS
10
0.7902366535433071
20
0.0957005905511811
11
0.7922484251968503
21
0.090306968503937
0
LINE
8
BLACK
6
CONTINUOUS
10
0.7922484251968503
20
0.090306968503937
11
0.7922485039370079
21
0.0903067716535433
0
LINE
8
BLACK
6
CONTINUOUS
10
0.7922485039370079
20
0.0903067716535433
11
0.7956983464566929
21
0.0856983464566929
0
LINE
8
BLACK
6
CONTINUOUS
10
0.7956983464566929
20
0.0856983464566929
11
0.7984719291338582
21
0.0836220472440945
0
LINE
8
BLACK
6
CONTINUOUS
10
0.7984719291338582
20
0.0836220472440945
11
0.8815279921259842
21
0.0836220472440945
0
LINE
8
BLACK
6
CONTINUOUS
10
0.8815279921259842
20
0.0836220472440945
11
0.8843016141732283
21
0.0856983858267717
0
LINE
8
BLACK
6
CONTINUOUS
10
0.8843016141732283
20
0.0856983858267717
11
0.8860288582677165
21
0.0880056299212598
0
LINE
8
BLACK
6
CONTINUOUS
10
0.8860288582677165
20
0.0880056299212598
11
0.8882664960629921
21
0.0896806692913386
0
LINE
8
BLACK
6
CONTINUOUS
10
0.8882664960629921
20
0.0896806692913386
11
0.8910544881889764
21
0.0898800393700787
0
LINE
8
BLACK
6
CONTINUOUS
10
0.8910544881889764
20
0.0898800393700787
11
0.893507716535433
21
0.0885404724409449
0
LINE
8
BLACK
6
CONTINUOUS
10
0.893507716535433
20
0.0885404724409449
11
0.8939711417322834
21
0.0880056299212598
0
LINE
8
BLACK
6
CONTINUOUS
10
0.8939711417322834
20
0.0880056299212598
11
0.8956983464566929
21
0.0856983858267717
0
LINE
8
BLACK
6
CONTINUOUS
10
0.8956983464566929
20
0.0856983858267717
11
0.898471968503937
21
0.0836220472440945
0
LINE
8
BLACK
6
CONTINUOUS
10
0.898471968503937
20
0.0836220472440945
11
0.9815280314960629
21
0.0836220472440945
0
LINE
8
BLACK
6
CONTINUOUS
10
0.9815280314960629
20
0.0836220472440945
11
0.9843016141732284
21
0.0856983464566929
0
LINE
8
BLACK
6
CONTINUOUS
10
0.9843016141732284
20
0.0856983464566929
11
0.9877514566929133
21
0.0903067716535433
0
LINE
8
BLACK
6
CONTINUOUS
10
0.9877514566929133
20
0.0903067716535433
11
0.9877515354330708
21
0.090306968503937
0
LINE
8
BLACK
6
CONTINUOUS
10
0.9877515354330708
20
0.090306968503937
11
0.9897633070866142
21
0.0957005905511811
0
LINE
8
BLACK
6
CONTINUOUS
10
0.9897633070866142
20
0.0957005905511811
11
0.9897633858267716
21
0.095700905511811
0
LINE
8
BLACK
6
CONTINUOUS
10
0.9897633858267716
20
0.095700905511811
11
0.9900196456692913
21
0.0980846456692913
0
LINE
8
BLACK
6
CONTINUOUS
10
0.9900196456692913
20
0.0980846456692913
11
0.9900196850393701
21
0.0980853149606299
0
LINE
8
BLACK
6
CONTINUOUS
10
0.9900196850393701
20
0.0980853149606299
11
0.9900196850393701
21
0.1619146456692913
0
LINE
8
BLACK
6
CONTINUOUS
10
0.9900196850393701
20
0.1619146456692913
11
0.9900196456692913
21
0.1619153149606299
0
LINE
8
BLACK
6
CONTINUOUS
10
0.9900196456692913
20
0.1619153149606299
11
0.9897633858267716
21
0.1642990551181102
0
LINE
8
BLACK
6
CONTINUOUS
10
0.9897633858267716
20
0.1642990551181102
11
0.9897633070866142
21
0.1642993700787402
0
LINE
8
BLACK
6
CONTINUOUS
10
0.9897633070866142
20
0.1642993700787402
11
0.9894866141732284
21
0.1650411417322835
0
LINE
8
BLACK
6
CONTINUOUS
10
0.9894866141732284
20
0.1650411417322835
11
0.9877515354330708
21
0.1696930708661417
0
LINE
8
BLACK
6
CONTINUOUS
10
0.9877515354330708
20
0.1696930708661417
11
0.9843016141732284
21
0.1743016141732283
0
LINE
8
BLACK
6
CONTINUOUS
10
0.9843016141732284
20
0.1743016141732283
11
0.9819943700787401
21
0.1760288188976378
0
LINE
8
BLACK
6
CONTINUOUS
10
0.9819943700787401
20
0.1760288188976378
11
0.9803192913385826
21
0.1782664566929134
0
LINE
8
BLACK
6
CONTINUOUS
10
0.9803192913385826
20
0.1782664566929134
11
0.9801199212598425
21
0.1810544881889764
0
LINE
8
BLACK
6
CONTINUOUS
10
0.9801199212598425
20
0.1810544881889764
11
0.9814594881889763
21
0.1835077165354331
0
LINE
8
BLACK
6
CONTINUOUS
10
0.9814594881889763
20
0.1835077165354331
11
0.9819943700787401
21
0.1839711811023622
0
LINE
8
BLACK
6
CONTINUOUS
10
0.9819943700787401
20
0.1839711811023622
11
0.9843016141732284
21
0.1856983464566929
0
LINE
8
BLACK
6
CONTINUOUS
10
0.9843016141732284
20
0.1856983464566929
11
0.9877514566929133
21
0.1903067716535433
0
LINE
8
BLACK
6
CONTINUOUS
10
0.9877514566929133
20
0.1903067716535433
11
0.9877515354330708
21
0.190306968503937
0
LINE
8
BLACK
6
CONTINUOUS
10
0.9877515354330708
20
0.190306968503937
11
0.9897633070866142
21
0.1957005905511811
0
LINE
8
BLACK
6
CONTINUOUS
10
0.9897633070866142
20
0.1957005905511811
11
0.9897633858267716
21
0.195700905511811
0
LINE
8
BLACK
6
CONTINUOUS
10
0.9897633858267716
20
0.195700905511811
11
0.9900196456692913
21
0.1980846456692913
0
LINE
8
BLACK
6
CONTINUOUS
10
0.9900196456692913
20
0.1980846456692913
11
0.9900196850393701
21
0.1980853149606299
0
LINE
8
BLACK
6
CONTINUOUS
10
0.9900196850393701
20
0.1980853149606299
11
0.9900196850393701
21
0.2619146456692913
0
LINE
8
BLACK
6
CONTINUOUS
10
0.9900196850393701
20
0.2619146456692913
11
0.9900196456692913
21
0.2619153149606299
0
LINE
8
BLACK
6
CONTINUOUS
10
0.9900196456692913
20
0.2619153149606299
11
0.9897633858267716
21
0.2642990551181102
0
LINE
8
BLACK
6
CONTINUOUS
10
0.9897633858267716
20
0.2642990551181102
11
0.9897633070866142
21
0.2642993700787402
0
LINE
8
BLACK
6
CONTINUOUS
10
0.9897633070866142
20
0.2642993700787402
11
0.9894866141732284
21
0.2650411417322834
0
LINE
8
BLACK
6
CONTINUOUS
10
0.9894866141732284
20
0.2650411417322834
11
0.9877515354330708
21
0.2696930708661417
0
LINE
8
BLACK
6
CONTINUOUS
10
0.9877515354330708
20
0.2696930708661417
11
0.9846311811023621
21
0.2738613779527559
0
LINE
8
BLACK
6
CONTINUOUS
10
0.9846311811023621
20
0.2738613779527559
11
0.9836543700787401
21
0.2764802755905512
0
LINE
8
BLACK
6
CONTINUOUS
10
0.9836543700787401
20
0.2764802755905512
11
0.9836417322834645
21
0.2768341732283465
0
LINE
8
BLACK
6
CONTINUOUS
10
0.9836417322834645
20
0.2768341732283465
11
0.9836417322834645
21
0.2871123622047244
0
LINE
8
BLACK
6
CONTINUOUS
10
0.9836417322834645
20
0.2871123622047244
11
0.9844292125984252
21
0.2897942913385826
0
LINE
8
BLACK
6
CONTINUOUS
10
0.9844292125984252
20
0.2897942913385826
11
0.98509468503937
21
0.2906200393700787
0
LINE
8
BLACK
6
CONTINUOUS
10
0.98509468503937
20
0.2906200393700787
11
1.0493799606299212
21
0.3549053149606299
0
LINE
8
BLACK
6
CONTINUOUS
10
1.0493799606299212
20
0.3549053149606299
11
1.0518331889763779
21
0.3562449212598425
0
LINE
8
BLACK
6
CONTINUOUS
10
1.0518331889763779
20
0.3562449212598425
11
1.0528876377952756
21
0.3563582677165354
0
LINE
8
BLACK
6
CONTINUOUS
10
1.0528876377952756
20
0.3563582677165354
11
1.1229516535433071
21
0.3563582677165354
0
LINE
8
BLACK
6
CONTINUOUS
10
1.1229516535433071
20
0.3563582677165354
11
1.1232966929133859
21
0.3567033070866142
0
LINE
8
BLACK
6
CONTINUOUS
10
1.1232966929133859
20
0.3567033070866142
11
1.1281889763779527
21
0.3604572834645669
0
LINE
8
BLACK
6
CONTINUOUS
10
1.1281889763779527
20
0.3604572834645669
11
1.1338861811023622
21
0.3628171653543307
0
LINE
8
BLACK
6
CONTINUOUS
10
1.1338861811023622
20
0.3628171653543307
11
1.1399999999999999
21
0.3636220472440945
0
LINE
8
BLACK
6
CONTINUOUS
10
1.1399999999999999
20
0.3636220472440945
11
1.1461138188976379
21
0.3628171653543307
0
LINE
8
BLACK
6
CONTINUOUS
10
1.1461138188976379
20
0.3628171653543307
11
1.1518110236220471
21
0.3604572834645669
0
LINE
8
BLACK
6
CONTINUOUS
10
1.1518110236220471
20
0.3604572834645669
11
1.1567033070866142
21
0.3567033070866142
0
LINE
8
BLACK
6
CONTINUOUS
10
1.1567033070866142
20
0.3567033070866142
11
1.1569680708661416
21
0.3563582677165354
0
LINE
8
BLACK
6
CONTINUOUS
10
1.1569680708661416
20
0.3563582677165354
11
1.2220787795275589
21
0.3563582677165354
0
LINE
8
BLACK
6
CONTINUOUS
10
1.2220787795275589
20
0.3563582677165354
11
1.2220788582677165
21
0.3563582677165354
0
LINE
8
BLACK
6
CONTINUOUS
10
1.2220788582677165
20
0.3563582677165354
11
1.2220788976377952
21
0.3563582677165354
0
LINE
8
BLACK
6
CONTINUOUS
10
1.2220788976377952
20
0.3563582677165354
11
1.2220796062992125
21
0.3563583070866141
0
LINE
8
BLACK
6
CONTINUOUS
10
1.2220796062992125
20
0.3563583070866141
11
1.2282963779527558
21
0.3569519291338583
0
LINE
8
BLACK
6
CONTINUOUS
10
1.2282963779527558
20
0.3569519291338583
11
1.2282967322834646
21
0.356951968503937
0
LINE
8
BLACK
6
CONTINUOUS
10
1.2282967322834646
20
0.356951968503937
11
1.2282968110236221
21
0.3569520078740158
0
LINE
8
BLACK
6
CONTINUOUS
10
1.2282968110236221
20
0.3569520078740158
11
1.2282968897637796
21
0.3569520078740158
0
LINE
8
BLACK
6
CONTINUOUS
10
1.2282968897637796
20
0.3569520078740158
11
1.2282969685039369
21
0.3569520472440945
0
LINE
8
BLACK
6
CONTINUOUS
10
1.2282969685039369
20
0.3569520472440945
11
1.2362938582677165
21
0.3593001181102362
0
LINE
8
BLACK
6
CONTINUOUS
10
1.2362938582677165
20
0.3593001181102362
11
1.2437016929133857
21
0.3631191732283465
0
LINE
8
BLACK
6
CONTINUOUS
10
1.2437016929133857
20
0.3631191732283465
11
1.2502533464566929
21
0.3682714173228346
0
LINE
8
BLACK
6
CONTINUOUS
10
1.2502533464566929
20
0.3682714173228346
11
1.255711062992126
21
0.3745699606299213
0
LINE
8
BLACK
6
CONTINUOUS
10
1.255711062992126
20
0.3745699606299213
11
1.2557113779527558
21
0.3745703937007874
0
LINE
8
BLACK
6
CONTINUOUS
10
1.2557113779527558
20
0.3745703937007874
11
1.2598783464566929
21
0.381787874015748
0
LINE
8
BLACK
6
CONTINUOUS
10
1.2598783464566929
20
0.381787874015748
11
1.2598784645669292
21
0.3817881496062992
0
LINE
8
BLACK
6
CONTINUOUS
10
1.2598784645669292
20
0.3817881496062992
11
1.2600574015748032
21
0.382305157480315
0
LINE
8
BLACK
6
CONTINUOUS
10
1.2600574015748032
20
0.382305157480315
11
1.2626044488188977
21
0.3896642913385827
0
LINE
8
BLACK
6
CONTINUOUS
10
1.2626044488188977
20
0.3896642913385827
11
1.263790590551181
21
0.3979140157480315
0
LINE
8
BLACK
6
CONTINUOUS
10
1.263790590551181
20
0.3979140157480315
11
1.2633940157480315
21
0.4062391338582677
0
LINE
8
BLACK
6
CONTINUOUS
10
1.2633940157480315
20
0.4062391338582677
11
1.2614290551181102
21
0.4143387401574803
0
LINE
8
BLACK
6
CONTINUOUS
10
1.2614290551181102
20
0.4143387401574803
11
1.2579667716535432
21
0.4219201181102362
0
LINE
8
BLACK
6
CONTINUOUS
10
1.2579667716535432
20
0.4219201181102362
11
1.2531322440944881
21
0.4287092519685039
0
LINE
8
BLACK
6
CONTINUOUS
10
1.2531322440944881
20
0.4287092519685039
11
1.2471002362204724
21
0.434460748031496
0
LINE
8
BLACK
6
CONTINUOUS
10
1.2471002362204724
20
0.434460748031496
11
1.2400887401574803
21
0.4389667716535433
0
LINE
8
BLACK
6
CONTINUOUS
10
1.2400887401574803
20
0.4389667716535433
11
1.2323512204724409
21
0.4420644094488189
0
LINE
8
BLACK
6
CONTINUOUS
10
1.2323512204724409
20
0.4420644094488189
11
1.2241672834645669
21
0.4436417322834645
0
LINE
8
BLACK
6
CONTINUOUS
10
1.2241672834645669
20
0.4436417322834645
11
1.2241671259842519
21
0.4436417322834645
0
LINE
8
BLACK
6
CONTINUOUS
10
1.2241671259842519
20
0.4436417322834645
11
1.0368139370078739
21
0.4436417322834645
0
LINE
8
BLACK
6
CONTINUOUS
10
1.0368139370078739
20
0.4436417322834645
11
1.0359914566929134
21
0.4437103937007874
0
LINE
8
BLACK
6
CONTINUOUS
10
1.0359914566929134
20
0.4437103937007874
11
1.035883464566929
21
0.4437285433070866
0
LINE
8
BLACK
6
CONTINUOUS
10
1.035883464566929
20
0.4437285433070866
11
1.0358834251968503
21
0.4437285039370079
0
LINE
8
BLACK
6
CONTINUOUS
10
1.0358834251968503
20
0.4437285039370079
11
1.0358834251968503
21
0.4437285433070866
0
LINE
8
BLACK
6
CONTINUOUS
10
1.0358834251968503
20
0.4437285433070866
11
1.0331109448818898
21
0.4436625196850393
0
LINE
8
BLACK
6
CONTINUOUS
10
1.0331109448818898
20
0.4436625196850393
11
1.0322961811023621
21
0.4436431496062992
0
LINE
8
BLACK
6
CONTINUOUS
10
1.0322961811023621
20
0.4436431496062992
11
1.0321781102362204
21
0.4436417322834645
0
LINE
8
BLACK
6
CONTINUOUS
10
1.0321781102362204
20
0.4436417322834645
11
1.0306770472440945
21
0.4436417322834645
0
LINE
8
BLACK
6
CONTINUOUS
10
1.0306770472440945
20
0.4436417322834645
11
1.0303351968503938
21
0.4436090551181102
0
LINE
8
BLACK
6
CONTINUOUS
10
1.0303351968503938
20
0.4436090551181102
11
1.0299821653543306
21
0.443588031496063
0
LINE
8
BLACK
6
CONTINUOUS
10
1.0299821653543306
20
0.443588031496063
11
1.0275512204724409
21
0.4435301968503937
0
LINE
8
BLACK
6
CONTINUOUS
10
1.0275512204724409
20
0.4435301968503937
11
1.0263077559055118
21
0.4432596456692913
0
LINE
8
BLACK
6
CONTINUOUS
10
1.0263077559055118
20
0.4432596456692913
11
1.0257257480314961
21
0.4431688976377953
0
LINE
8
BLACK
6
CONTINUOUS
10
1.0257257480314961
20
0.4431688976377953
11
1.0244590944881891
21
0.4430479921259842
0
LINE
8
BLACK
6
CONTINUOUS
10
1.0244590944881891
20
0.4430479921259842
11
1.0221255118110235
21
0.4423627559055118
0
LINE
8
BLACK
6
CONTINUOUS
10
1.0221255118110235
20
0.4423627559055118
11
1.0217831496062992
21
0.4422753937007874
0
LINE
8
BLACK
6
CONTINUOUS
10
1.0217831496062992
20
0.4422753937007874
11
1.0194071259842519
21
0.4417585433070866
0
LINE
8
BLACK
6
CONTINUOUS
10
1.0194071259842519
20
0.4417585433070866
11
1.0190331496062992
21
0.4415983858267716
0
LINE
8
BLACK
6
CONTINUOUS
10
1.0190331496062992
20
0.4415983858267716
11
1.0182375196850393
21
0.4412577165354331
0
LINE
8
BLACK
6
CONTINUOUS
10
1.0182375196850393
20
0.4412577165354331
11
1.0176824409448819
21
0.4410581889763779
0
LINE
8
BLACK
6
CONTINUOUS
10
1.0176824409448819
20
0.4410581889763779
11
1.0164621259842519
21
0.4406998818897638
0
LINE
8
BLACK
6
CONTINUOUS
10
1.0164621259842519
20
0.4406998818897638
11
1.0142998031496062
21
0.4395850787401575
0
LINE
8
BLACK
6
CONTINUOUS
10
1.0142998031496062
20
0.4395850787401575
11
1.013980748031496
21
0.4394348031496063
0
LINE
8
BLACK
6
CONTINUOUS
10
1.013980748031496
20
0.4394348031496063
11
1.0117455118110237
21
0.4384776377952756
0
LINE
8
BLACK
6
CONTINUOUS
10
1.0117455118110237
20
0.4384776377952756
11
1.0106918897637795
21
0.4377645275590551
0
LINE
8
BLACK
6
CONTINUOUS
10
1.0106918897637795
20
0.4377645275590551
11
1.0101847637795276
21
0.4374636614173228
0
LINE
8
BLACK
6
CONTINUOUS
10
1.0101847637795276
20
0.4374636614173228
11
1.0090541732283465
21
0.4368807874015748
0
LINE
8
BLACK
6
CONTINUOUS
10
1.0090541732283465
20
0.4368807874015748
11
1.0090539370078739
21
0.4368806299212598
0
LINE
8
BLACK
6
CONTINUOUS
10
1.0090539370078739
20
0.4368806299212598
11
1.007142716535433
21
0.4353776771653543
0
LINE
8
BLACK
6
CONTINUOUS
10
1.007142716535433
20
0.4353776771653543
11
1.006856811023622
21
0.4351688976377953
0
LINE
8
BLACK
6
CONTINUOUS
10
1.006856811023622
20
0.4351688976377953
11
1.0061658661417323
21
0.4347012204724409
0
LINE
8
BLACK
6
CONTINUOUS
10
1.0061658661417323
20
0.4347012204724409
11
1.0048432677165353
21
0.433806062992126
0
LINE
8
BLACK
6
CONTINUOUS
10
1.0048432677165353
20
0.433806062992126
11
1.0039437007874015
21
0.4329064960629921
0
LINE
8
BLACK
6
CONTINUOUS
10
1.0039437007874015
20
0.4329064960629921
11
1.0035027165354331
21
0.4325150787401575
0
LINE
8
BLACK
6
CONTINUOUS
10
1.0035027165354331
20
0.4325150787401575
11
1.0025025984251967
21
0.4317286220472441
0
LINE
8
BLACK
6
CONTINUOUS
10
1.0025025984251967
20
0.4317286220472441
11
1.0009100393700787
21
0.4298906692913386
0
LINE
8
BLACK
6
CONTINUOUS
10
1.0009100393700787
20
0.4298906692913386
11
1.0006687007874016
21
0.4296314960629921
0
LINE
8
BLACK
6
CONTINUOUS
10
1.0006687007874016
20
0.4296314960629921
11
0.9435049212598425
21
0.3724677559055118
0
LINE
8
BLACK
6
CONTINUOUS
10
0.9435049212598425
20
0.3724677559055118
11
0.9410516929133858
21
0.3711281496062992
0
LINE
8
BLACK
6
CONTINUOUS
10
0.9410516929133858
20
0.3711281496062992
11
0.9382636614173228
21
0.3713275590551181
0
LINE
8
BLACK
6
CONTINUOUS
10
0.9382636614173228
20
0.3713275590551181
11
0.9367312992125985
21
0.372261811023622
0
LINE
8
BLACK
6
CONTINUOUS
10
0.9367312992125985
20
0.372261811023622
11
0.9367248031496063
21
0.372253937007874
0
LINE
8
BLACK
6
CONTINUOUS
10
0.9367248031496063
20
0.372253937007874
11
0.936669842519685
21
0.3722992519685039
0
LINE
8
BLACK
6
CONTINUOUS
10
0.936669842519685
20
0.3722992519685039
11
0.9366595275590551
21
0.3723055905511811
0
LINE
8
BLACK
6
CONTINUOUS
10
0.9366595275590551
20
0.3723055905511811
11
0.936635
21
0.3723277952755906
0
LINE
8
BLACK
6
CONTINUOUS
10
0.936635
20
0.3723277952755906
11
0.9366335039370078
21
0.3723293307086614
0
LINE
8
BLACK
6
CONTINUOUS
10
0.9366335039370078
20
0.3723293307086614
11
0.9363684645669291
21
0.3725481102362205
0
LINE
8
BLACK
6
CONTINUOUS
10
0.9363684645669291
20
0.3725481102362205
11
0.9361040157480315
21
0.372782874015748
0
LINE
8
BLACK
6
CONTINUOUS
10
0.9361040157480315
20
0.372782874015748
11
0.9357033464566928
21
0.3731648818897638
0
LINE
8
BLACK
6
CONTINUOUS
10
0.9357033464566928
20
0.3731648818897638
11
0.9343443307086614
21
0.374460748031496
0
LINE
8
BLACK
6
CONTINUOUS
10
0.9343443307086614
20
0.374460748031496
11
0.9332738582677165
21
0.3751486220472441
0
LINE
8
BLACK
6
CONTINUOUS
10
0.9332738582677165
20
0.3751486220472441
11
0.9327982677165354
21
0.375495905511811
0
LINE
8
BLACK
6
CONTINUOUS
10
0.9327982677165354
20
0.375495905511811
11
0.9318168897637795
21
0.3763062598425197
0
LINE
8
BLACK
6
CONTINUOUS
10
0.9318168897637795
20
0.3763062598425197
11
0.9296821259842519
21
0.3774718503937008
0
LINE
8
BLACK
6
CONTINUOUS
10
0.9296821259842519
20
0.3774718503937008
11
0.9293788582677165
21
0.3776518110236221
0
LINE
8
BLACK
6
CONTINUOUS
10
0.9293788582677165
20
0.3776518110236221
11
0.9273328346456693
21
0.3789667716535433
0
LINE
8
BLACK
6
CONTINUOUS
10
0.9273328346456693
20
0.3789667716535433
11
0.9261520078740157
21
0.3794394881889764
0
LINE
8
BLACK
6
CONTINUOUS
10
0.9261520078740157
20
0.3794394881889764
11
0.9256181102362204
21
0.3796910236220472
0
LINE
8
BLACK
6
CONTINUOUS
10
0.9256181102362204
20
0.3796910236220472
11
0.9256115748031496
21
0.3796945669291338
0
LINE
8
BLACK
6
CONTINUOUS
10
0.9256115748031496
20
0.3796945669291338
11
0.9245018110236221
21
0.3803005905511811
0
LINE
8
BLACK
6
CONTINUOUS
10
0.9245018110236221
20
0.3803005905511811
11
0.9221855905511811
21
0.3810409448818898
0
LINE
8
BLACK
6
CONTINUOUS
10
0.9221855905511811
20
0.3810409448818898
11
0.9218531496062992
21
0.3811604724409449
0
LINE
8
BLACK
6
CONTINUOUS
10
0.9218531496062992
20
0.3811604724409449
11
0.9195953149606299
21
0.3820644094488189
0
LINE
8
BLACK
6
CONTINUOUS
10
0.9195953149606299
20
0.3820644094488189
11
0.9183459448818897
21
0.382305157480315
0
LINE
8
BLACK
6
CONTINUOUS
10
0.9183459448818897
20
0.382305157480315
11
0.9177744881889763
21
0.3824510236220472
0
LINE
8
BLACK
6
CONTINUOUS
10
0.9177744881889763
20
0.3824510236220472
11
0.9165629921259842
21
0.3828383464566929
0
LINE
8
BLACK
6
CONTINUOUS
10
0.9165629921259842
20
0.3828383464566929
11
0.9141484645669291
21
0.3831270078740157
0
LINE
8
BLACK
6
CONTINUOUS
10
0.9141484645669291
20
0.3831270078740157
11
0.9138000393700787
21
0.3831813385826772
0
LINE
8
BLACK
6
CONTINUOUS
10
0.9138000393700787
20
0.3831813385826772
11
0.9114113779527558
21
0.3836417322834645
0
LINE
8
BLACK
6
CONTINUOUS
10
0.9114113779527558
20
0.3836417322834645
11
0.9114112204724409
21
0.3836417322834645
0
LINE
8
BLACK
6
CONTINUOUS
10
0.9114112204724409
20
0.3836417322834645
11
0.910139094488189
21
0.3836417322834645
0
LINE
8
BLACK
6
CONTINUOUS
10
0.910139094488189
20
0.3836417322834645
11
0.9095502362204724
21
0.3836768110236221
0
LINE
8
BLACK
6
CONTINUOUS
10
0.9095502362204724
20
0.3836768110236221
11
0.9095320078740158
21
0.3836789763779527
0
LINE
8
BLACK
6
CONTINUOUS
10
0.9095320078740158
20
0.3836789763779527
11
0.9082874015748031
21
0.3838277952755905
0
LINE
8
BLACK
6
CONTINUOUS
10
0.9082874015748031
20
0.3838277952755905
11
0.9058624015748031
21
0.3836543700787401
0
LINE
8
BLACK
6
CONTINUOUS
10
0.9058624015748031
20
0.3836543700787401
11
0.9055085433070866
21
0.3836417322834645
0
LINE
8
BLACK
6
CONTINUOUS
10
0.9055085433070866
20
0.3836417322834645
11
0.5001317322834645
21
0.3836417322834645
0
LINE
8
BLACK
6
CONTINUOUS
10
0.5001317322834645
20
0.3836417322834645
11
0.4974498031496063
21
0.3844292125984252
0
LINE
8
BLACK
6
CONTINUOUS
10
0.4974498031496063
20
0.3844292125984252
11
0.4966240551181103
21
0.3850946850393701
0
LINE
8
BLACK
6
CONTINUOUS
10
0.4966240551181103
20
0.3850946850393701
11
0.3693899606299212
21
0.5123287795275591
0
LINE
8
BLACK
6
CONTINUOUS
10
0.3693899606299212
20
0.5123287795275591
11
0.3693894094488189
21
0.5123293307086614
0
LINE
8
BLACK
6
CONTINUOUS
10
0.3693894094488189
20
0.5123293307086614
11
0.3645727952755906
21
0.5163062598425197
0
LINE
8
BLACK
6
CONTINUOUS
10
0.3645727952755906
20
0.5163062598425197
11
0.3572577165354331
21
0.5203005905511811
0
LINE
8
BLACK
6
CONTINUOUS
10
0.3572577165354331
20
0.5203005905511811
11
0.3548323228346457
21
0.521075905511811
0
LINE
8
BLACK
6
CONTINUOUS
10
0.3548323228346457
20
0.521075905511811
11
0.3493190551181102
21
0.5228383070866142
0
LINE
8
BLACK
6
CONTINUOUS
10
0.3493190551181102
20
0.5228383070866142
11
0.3493189763779527
21
0.5228383070866142
0
LINE
8
BLACK
6
CONTINUOUS
10
0.3493189763779527
20
0.5228383070866142
11
0.3493188976377953
21
0.5228383464566929
0
LINE
8
BLACK
6
CONTINUOUS
10
0.3493188976377953
20
0.5228383464566929
11
0.3410433070866142
21
0.5238277952755905
0
LINE
8
BLACK
6
CONTINUOUS
10
0.3410433070866142
20
0.5238277952755905
11
0.3327299606299213
21
0.5232332677165354
0
LINE
8
BLACK
6
CONTINUOUS
10
1.3965355511811024
20
0.9635261811023622
11
1.3937612598425198
21
0.9633940551181102
0
LINE
8
BLACK
6
CONTINUOUS
10
1.3937612598425198
20
0.9633940551181102
11
1.393761062992126
21
0.9633940157480315
0
LINE
8
BLACK
6
CONTINUOUS
10
1.393761062992126
20
0.9633940157480315
11
1.3937608661417322
21
0.9633940157480315
0
LINE
8
BLACK
6
CONTINUOUS
10
1.3937608661417322
20
0.9633940157480315
11
1.3856612598425198
21
0.9614290551181102
0
LINE
8
BLACK
6
CONTINUOUS
10
1.3856612598425198
20
0.9614290551181102
11
1.3780798818897637
21
0.9579667716535433
0
LINE
8
BLACK
6
CONTINUOUS
10
1.3780798818897637
20
0.9579667716535433
11
1.378079842519685
21
0.9579667322834645
0
LINE
8
BLACK
6
CONTINUOUS
10
1.378079842519685
20
0.9579667322834645
11
1.3780795669291339
21
0.9579665748031496
0
LINE
8
BLACK
6
CONTINUOUS
10
1.3780795669291339
20
0.9579665748031496
11
1.3712909842519685
21
0.9531324409448819
0
LINE
8
BLACK
6
CONTINUOUS
10
1.3712909842519685
20
0.9531324409448819
11
1.3712908267716535
21
0.9531322834645669
0
LINE
8
BLACK
6
CONTINUOUS
10
1.3712908267716535
20
0.9531322834645669
11
1.371290748031496
21
0.9531322440944882
0
LINE
8
BLACK
6
CONTINUOUS
10
1.371290748031496
20
0.9531322440944882
11
1.3655392519685039
21
0.9471002362204725
0
LINE
8
BLACK
6
CONTINUOUS
10
1.3655392519685039
20
0.9471002362204725
11
1.3610332283464566
21
0.9400887401574803
0
LINE
8
BLACK
6
CONTINUOUS
10
1.3610332283464566
20
0.9400887401574803
11
1.3595139763779527
21
0.936293779527559
0
LINE
8
BLACK
6
CONTINUOUS
10
1.3595139763779527
20
0.936293779527559
11
1.3579355511811024
21
0.9323511023622048
0
LINE
8
BLACK
6
CONTINUOUS
10
1.3579355511811024
20
0.9323511023622048
11
1.3563582677165353
21
0.9241674409448819
0
LINE
8
BLACK
6
CONTINUOUS
10
1.3563582677165353
20
0.9241674409448819
11
1.3563582677165353
21
0.6286023622047244
0
LINE
8
BLACK
6
CONTINUOUS
10
1.3563582677165353
20
0.6286023622047244
11
1.3555707874015748
21
0.6259204330708661
0
LINE
8
BLACK
6
CONTINUOUS
10
1.3555707874015748
20
0.6259204330708661
11
1.3534583464566929
21
0.62409
0
LINE
8
BLACK
6
CONTINUOUS
10
1.3534583464566929
20
0.62409
11
1.3513976377952757
21
0.6236417322834645
0
LINE
8
BLACK
6
CONTINUOUS
10
1.3513976377952757
20
0.6236417322834645
11
1.1241672834645668
21
0.6236417322834645
0
LINE
8
BLACK
6
CONTINUOUS
10
1.1241672834645668
20
0.6236417322834645
11
0.8179211417322835
21
0.6236417322834645
0
LINE
8
BLACK
6
CONTINUOUS
10
0.8179211417322835
20
0.6236417322834645
11
0.8117031889763779
21
0.6230479921259843
0
LINE
8
BLACK
6
CONTINUOUS
10
0.8117031889763779
20
0.6230479921259843
11
0.8037062204724409
21
0.6206998818897638
0
LINE
8
BLACK
6
CONTINUOUS
10
0.8037062204724409
20
0.6206998818897638
11
0.8037061023622047
21
0.620699842519685
0
LINE
8
BLACK
6
CONTINUOUS
10
0.8037061023622047
20
0.620699842519685
11
0.7966967716535432
21
0.6170862204724409
0
LINE
8
BLACK
6
CONTINUOUS
10
0.7966967716535432
20
0.6170862204724409
11
0.7962981889763779
21
0.6168807480314961
0
LINE
8
BLACK
6
CONTINUOUS
10
0.7962981889763779
20
0.6168807480314961
11
0.7910746456692913
21
0.6127729133858267
0
LINE
8
BLACK
6
CONTINUOUS
10
0.7910746456692913
20
0.6127729133858267
11
0.7897466141732283
21
0.6117285433070866
0
LINE
8
BLACK
6
CONTINUOUS
10
0.7897466141732283
20
0.6117285433070866
11
0.7842888976377953
21
0.60543
0
LINE
8
BLACK
6
CONTINUOUS
10
0.7842888976377953
20
0.60543
11
0.7842885826771654
21
0.6054295669291339
0
LINE
8
BLACK
6
CONTINUOUS
10
0.7842885826771654
20
0.6054295669291339
11
0.7801216141732283
21
0.5982120866141732
0
LINE
8
BLACK
6
CONTINUOUS
10
0.7801216141732283
20
0.5982120866141732
11
0.7801214960629921
21
0.5982118110236221
0
LINE
8
BLACK
6
CONTINUOUS
10
0.7801214960629921
20
0.5982118110236221
11
0.7773955905511811
21
0.5903358267716535
0
LINE
8
BLACK
6
CONTINUOUS
10
0.7773955905511811
20
0.5903358267716535
11
0.7773954724409449
21
0.5903353937007874
0
LINE
8
BLACK
6
CONTINUOUS
10
0.7773954724409449
20
0.5903353937007874
11
0.7762093700787401
21
0.5820860236220472
0
LINE
8
BLACK
6
CONTINUOUS
10
0.7762093700787401
20
0.5820860236220472
11
0.776605905511811
21
0.5737612598425197
0
LINE
8
BLACK
6
CONTINUOUS
10
0.776605905511811
20
0.5737612598425197
11
0.7766059842519685
21
0.573760748031496
0
LINE
8
BLACK
6
CONTINUOUS
10
0.7766059842519685
20
0.573760748031496
11
0.7785708661417323
21
0.5656614566929133
0
LINE
8
BLACK
6
CONTINUOUS
10
0.7785708661417323
20
0.5656614566929133
11
0.7785709448818897
21
0.5656612204724409
0
LINE
8
BLACK
6
CONTINUOUS
10
0.7785709448818897
20
0.5656612204724409
11
0.7820332283464567
21
0.558079842519685
0
LINE
8
BLACK
6
CONTINUOUS
10
0.7820332283464567
20
0.558079842519685
11
0.7820333858267716
21
0.5580795669291339
0
LINE
8
BLACK
6
CONTINUOUS
10
0.7820333858267716
20
0.5580795669291339
11
0.7868675196850393
21
0.5512909842519685
0
LINE
8
BLACK
6
CONTINUOUS
10
0.7868675196850393
20
0.5512909842519685
11
0.786867874015748
21
0.5512905905511811
0
LINE
8
BLACK
6
CONTINUOUS
10
0.786867874015748
20
0.5512905905511811
11
0.792899842519685
21
0.5455391732283464
0
LINE
8
BLACK
6
CONTINUOUS
10
0.792899842519685
20
0.5455391732283464
11
0.7999112204724409
21
0.5410332283464567
0
LINE
8
BLACK
6
CONTINUOUS
10
0.7999112204724409
20
0.5410332283464567
11
0.8076488582677165
21
0.5379355511811024
0
LINE
8
BLACK
6
CONTINUOUS
10
0.8076488582677165
20
0.5379355511811024
11
0.8158325196850393
21
0.5363582677165354
0
LINE
8
BLACK
6
CONTINUOUS
10
0.8158325196850393
20
0.5363582677165354
11
0.8158327165354331
21
0.5363582677165354
0
LINE
8
BLACK
6
CONTINUOUS
10
0.8158327165354331
20
0.5363582677165354
11
1.1158327165354331
21
0.5363582677165354
0
LINE
8
BLACK
6
CONTINUOUS
10
1.1158327165354331
20
0.5363582677165354
11
1.3965239763779527
21
0.5363582677165354
0
LINE
8
BLACK
6
CONTINUOUS
10
1.3965239763779527
20
0.5363582677165354
11
1.3972299212598425
21
0.5363077559055118
0
LINE
8
BLACK
6
CONTINUOUS
10
1.3972299212598425
20
0.5363077559055118
11
1.3974037007874016
21
0.5362827559055118
0
LINE
8
BLACK
6
CONTINUOUS
10
1.3974037007874016
20
0.5362827559055118
11
1.3979140944881889
21
0.5362093700787401
0
LINE
8
BLACK
6
CONTINUOUS
10
1.3979140944881889
20
0.5362093700787401
11
1.4007883070866141
21
0.5363462992125985
0
LINE
8
BLACK
6
CONTINUOUS
10
1.4007883070866141
20
0.5363462992125985
11
1.4009207874015748
21
0.5363526377952755
0
LINE
8
BLACK
6
CONTINUOUS
10
1.4009207874015748
20
0.5363526377952755
11
1.4011567716535434
21
0.5363582677165354
0
LINE
8
BLACK
6
CONTINUOUS
10
1.4011567716535434
20
0.5363582677165354
11
1.4020794094488189
21
0.5363582677165354
0
LINE
8
BLACK
6
CONTINUOUS
10
1.4020794094488189
20
0.5363582677165354
11
1.4029970078740157
21
0.5364458661417323
0
LINE
8
BLACK
6
CONTINUOUS
10
1.4029970078740157
20
0.5364458661417323
11
1.4032321653543307
21
0.5364626771653543
0
LINE
8
BLACK
6
CONTINUOUS
10
1.4032321653543307
20
0.5364626771653543
11
1.4062388582677166
21
0.5366059448818897
0
LINE
8
BLACK
6
CONTINUOUS
10
1.4062388582677166
20
0.5366059448818897
11
1.4062393700787401
21
0.5366059842519685
0
LINE
8
BLACK
6
CONTINUOUS
10
1.4062393700787401
20
0.5366059842519685
11
1.4069110236220472
21
0.536768937007874
0
LINE
8
BLACK
6
CONTINUOUS
10
1.4069110236220472
20
0.536768937007874
11
1.4076087007874016
21
0.5368862598425197
0
LINE
8
BLACK
6
CONTINUOUS
10
1.4076087007874016
20
0.5368862598425197
11
1.4082967322834645
21
0.536951968503937
0
LINE
8
BLACK
6
CONTINUOUS
10
1.4082967322834645
20
0.536951968503937
11
1.4100529527559056
21
0.5374676377952756
0
LINE
8
BLACK
6
CONTINUOUS
10
1.4100529527559056
20
0.5374676377952756
11
1.4111852362204724
21
0.5378000787401575
0
LINE
8
BLACK
6
CONTINUOUS
10
1.4111852362204724
20
0.5378000787401575
11
1.4114128346456694
21
0.5378611023622047
0
LINE
8
BLACK
6
CONTINUOUS
10
1.4114128346456694
20
0.5378611023622047
11
1.4143385826771653
21
0.538570905511811
0
LINE
8
BLACK
6
CONTINUOUS
10
1.4143385826771653
20
0.538570905511811
11
1.4143387401574803
21
0.5385709448818897
0
LINE
8
BLACK
6
CONTINUOUS
10
1.4143387401574803
20
0.5385709448818897
11
1.4149673622047243
21
0.5388580314960629
0
LINE
8
BLACK
6
CONTINUOUS
10
1.4149673622047243
20
0.5388580314960629
11
1.4156301968503937
21
0.5391052362204725
0
LINE
8
BLACK
6
CONTINUOUS
10
1.4156301968503937
20
0.5391052362204725
11
1.416293622047244
21
0.5393000393700788
0
LINE
8
BLACK
6
CONTINUOUS
10
1.416293622047244
20
0.5393000393700788
11
1.4162938188976377
21
0.5393001181102363
0
LINE
8
BLACK
6
CONTINUOUS
10
1.4162938188976377
20
0.5393001181102363
11
1.418969251968504
21
0.5406794094488189
0
LINE
8
BLACK
6
CONTINUOUS
10
1.418969251968504
20
0.5406794094488189
11
1.4191815748031495
21
0.5407825590551181
0
LINE
8
BLACK
6
CONTINUOUS
10
1.4191815748031495
20
0.5407825590551181
11
1.420987874015748
21
0.5416074803149606
0
LINE
8
BLACK
6
CONTINUOUS
10
1.420987874015748
20
0.5416074803149606
11
1.4219201181102361
21
0.5420332283464567
0
LINE
8
BLACK
6
CONTINUOUS
10
1.4219201181102361
20
0.5420332283464567
11
1.4224831496062993
21
0.5424341732283464
0
LINE
8
BLACK
6
CONTINUOUS
10
1.4224831496062993
20
0.5424341732283464
11
1.4230874015748032
21
0.5428024803149606
0
LINE
8
BLACK
6
CONTINUOUS
10
1.4230874015748032
20
0.5428024803149606
11
1.4237016929133859
21
0.5431191732283465
0
LINE
8
BLACK
6
CONTINUOUS
10
1.4237016929133859
20
0.5431191732283465
11
1.4260679921259842
21
0.54498
0
LINE
8
BLACK
6
CONTINUOUS
10
1.4260679921259842
20
0.54498
11
1.4262568897637795
21
0.5451213779527559
0
LINE
8
BLACK
6
CONTINUOUS
10
1.4262568897637795
20
0.5451213779527559
11
1.4287091732283463
21
0.5468676771653543
0
LINE
8
BLACK
6
CONTINUOUS
10
1.4287091732283463
20
0.5468676771653543
11
1.4287093307086614
21
0.5468678346456692
0
LINE
8
BLACK
6
CONTINUOUS
10
1.4287093307086614
20
0.5468678346456692
11
1.4291861417322835
21
0.5473679133858268
0
LINE
8
BLACK
6
CONTINUOUS
10
1.4291861417322835
20
0.5473679133858268
11
1.4297099606299213
21
0.5478441338582677
0
LINE
8
BLACK
6
CONTINUOUS
10
1.4297099606299213
20
0.5478441338582677
11
1.4302532677165354
21
0.5482713779527559
0
LINE
8
BLACK
6
CONTINUOUS
10
1.4302532677165354
20
0.5482713779527559
11
1.4322248031496063
21
0.5505466141732284
0
LINE
8
BLACK
6
CONTINUOUS
10
1.4322248031496063
20
0.5505466141732284
11
1.4323836220472441
21
0.5507212992125984
0
LINE
8
BLACK
6
CONTINUOUS
10
1.4323836220472441
20
0.5507212992125984
11
1.4344605905511811
21
0.5528995275590551
0
LINE
8
BLACK
6
CONTINUOUS
10
1.4344605905511811
20
0.5528995275590551
11
1.4344607480314959
21
0.5528997637795275
0
LINE
8
BLACK
6
CONTINUOUS
10
1.4344607480314959
20
0.5528997637795275
11
1.43483437007874
21
0.5534811023622047
0
LINE
8
BLACK
6
CONTINUOUS
10
1.43483437007874
20
0.5534811023622047
11
1.4352584251968503
21
0.554047559055118
0
LINE
8
BLACK
6
CONTINUOUS
10
1.4352584251968503
20
0.554047559055118
11
1.4357110236220472
21
0.5545698818897637
0
LINE
8
BLACK
6
CONTINUOUS
10
1.4357110236220472
20
0.5545698818897637
11
1.4357111023622047
21
0.55457
0
LINE
8
BLACK
6
CONTINUOUS
10
1.4357111023622047
20
0.55457
11
1.4357112204724409
21
0.5545701574803149
0
LINE
8
BLACK
6
CONTINUOUS
10
1.4357112204724409
20
0.5545701574803149
11
1.4372167322834646
21
0.5571778346456693
0
LINE
8
BLACK
6
CONTINUOUS
10
1.4372167322834646
20
0.5571778346456693
11
1.4373393307086615
21
0.557378937007874
0
LINE
8
BLACK
6
CONTINUOUS
10
1.4373393307086615
20
0.557378937007874
11
1.4389666141732282
21
0.5599109842519685
0
LINE
8
BLACK
6
CONTINUOUS
10
1.4389666141732282
20
0.5599109842519685
11
1.4389666141732282
21
0.559911062992126
0
LINE
8
BLACK
6
CONTINUOUS
10
1.4389666141732282
20
0.559911062992126
11
1.4389667716535433
21
0.5599112598425197
0
LINE
8
BLACK
6
CONTINUOUS
10
1.4389667716535433
20
0.5599112598425197
11
1.4392237795275591
21
0.5605532677165355
0
LINE
8
BLACK
6
CONTINUOUS
10
1.4392237795275591
20
0.5605532677165355
11
1.4395329133858268
21
0.5611895669291338
0
LINE
8
BLACK
6
CONTINUOUS
10
1.4395329133858268
20
0.5611895669291338
11
1.4398783464566929
21
0.5617879133858268
0
LINE
8
BLACK
6
CONTINUOUS
10
1.4398783464566929
20
0.5617879133858268
11
1.4398784645669291
21
0.5617881102362204
0
LINE
8
BLACK
6
CONTINUOUS
10
1.4398784645669291
20
0.5617881102362204
11
1.4408635039370079
21
0.5646343307086614
0
LINE
8
BLACK
6
CONTINUOUS
10
1.4408635039370079
20
0.5646343307086614
11
1.4409446850393701
21
0.5648518897637795
0
LINE
8
BLACK
6
CONTINUOUS
10
1.4409446850393701
20
0.5648518897637795
11
1.4420644094488189
21
0.567648779527559
0
LINE
8
BLACK
6
CONTINUOUS
10
1.4420644094488189
20
0.567648779527559
11
1.4421952755905512
21
0.5683279921259843
0
LINE
8
BLACK
6
CONTINUOUS
10
1.4421952755905512
20
0.5683279921259843
11
1.4423784645669291
21
0.5690114173228347
0
LINE
8
BLACK
6
CONTINUOUS
10
1.4423784645669291
20
0.5690114173228347
11
1.4426043700787401
21
0.5696640551181102
0
LINE
8
BLACK
6
CONTINUOUS
10
1.4426043700787401
20
0.5696640551181102
11
1.4426043700787401
21
0.569664094488189
0
LINE
8
BLACK
6
CONTINUOUS
10
1.4426043700787401
20
0.569664094488189
11
1.4426044488188976
21
0.5696642913385827
0
LINE
8
BLACK
6
CONTINUOUS
10
1.4426044488188976
20
0.5696642913385827
11
1.4430329527559054
21
0.5726450787401575
0
LINE
8
BLACK
6
CONTINUOUS
10
1.4430329527559054
20
0.5726450787401575
11
1.443071653543307
21
0.5728750393700788
0
LINE
8
BLACK
6
CONTINUOUS
10
1.443071653543307
20
0.5728750393700788
11
1.4436417322834645
21
0.5758327165354331
0
LINE
8
BLACK
6
CONTINUOUS
10
1.4436417322834645
20
0.5758327165354331
11
1.4436417322834645
21
0.5765237795275591
0
LINE
8
BLACK
6
CONTINUOUS
10
1.4436417322834645
20
0.5765237795275591
11
1.4436922047244094
21
0.5772297244094488
0
LINE
8
BLACK
6
CONTINUOUS
10
1.4436922047244094
20
0.5772297244094488
11
1.443790590551181
21
0.577914094488189
0
LINE
8
BLACK
6
CONTINUOUS
10
1.443790590551181
20
0.577914094488189
11
1.4436473622047243
21
0.5809206692913386
0
LINE
8
BLACK
6
CONTINUOUS
10
1.4436473622047243
20
0.5809206692913386
11
1.4436417322834645
21
0.5811567322834645
0
LINE
8
BLACK
6
CONTINUOUS
10
1.4436417322834645
20
0.5811567322834645
11
1.4436417322834645
21
0.6430319291338582
0
LINE
8
BLACK
6
CONTINUOUS
10
1.4436417322834645
20
0.6430319291338582
11
1.4432966929133857
21
0.6432966929133858
0
LINE
8
BLACK
6
CONTINUOUS
10
1.4432966929133857
20
0.6432966929133858
11
1.4395427165354331
21
0.6481889763779527
0
LINE
8
BLACK
6
CONTINUOUS
10
1.4395427165354331
20
0.6481889763779527
11
1.437182874015748
21
0.6538861811023622
0
LINE
8
BLACK
6
CONTINUOUS
10
1.437182874015748
20
0.6538861811023622
11
1.4363779527559055
21
0.66
0
LINE
8
BLACK
6
CONTINUOUS
10
1.4363779527559055
20
0.66
11
1.4363779527559055
21
0.9443411417322835
0
LINE
8
BLACK
6
CONTINUOUS
10
1.4363779527559055
20
0.9443411417322835
11
1.4317286614173228
21
0.9502532283464566
0
LINE
8
BLACK
6
CONTINUOUS
10
1.4317286614173228
20
0.9502532283464566
11
1.425429842519685
21
0.9557112204724409
0
LINE
8
BLACK
6
CONTINUOUS
10
1.425429842519685
20
0.9557112204724409
11
1.4182118897637794
21
0.9598784645669292
0
LINE
8
BLACK
6
CONTINUOUS
10
1.4182118897637794
20
0.9598784645669292
11
1.4103357086614172
21
0.9626044488188976
0
LINE
8
BLACK
6
CONTINUOUS
10
1.4103357086614172
20
0.9626044488188976
11
1.4020859842519684
21
0.9637905905511811
0
LINE
8
BLACK
6
CONTINUOUS
10
1.4020859842519684
20
0.9637905905511811
11
1.3965355511811024
21
0.9635261811023622
0
LINE
8
BLACK
6
CONTINUOUS
10
0.0430693700787402
20
1.384543779527559
11
0.0430694094488189
21
1.3845432283464567
0
LINE
8
BLACK
6
CONTINUOUS
10
0.0430694094488189
20
1.3845432283464567
11
0.0453399606299213
21
1.3692364566929134
0
LINE
8
BLACK
6
CONTINUOUS
10
0.0453399606299213
20
1.3692364566929134
11
0.04534
21
1.3692362204724409
0
LINE
8
BLACK
6
CONTINUOUS
10
0.04534
20
1.3692362204724409
11
0.0472200393700787
21
1.3617306299212597
0
LINE
8
BLACK
6
CONTINUOUS
10
0.0472200393700787
20
1.3617306299212597
11
0.049100157480315
21
1.3542248031496062
0
LINE
8
BLACK
6
CONTINUOUS
10
0.049100157480315
20
1.3542248031496062
11
0.0543134251968504
21
1.3396547244094488
0
LINE
8
BLACK
6
CONTINUOUS
10
0.0543134251968504
20
1.3396547244094488
11
0.0609299606299213
21
1.3256653149606299
0
LINE
8
BLACK
6
CONTINUOUS
10
0.0609299606299213
20
1.3256653149606299
11
0.0688856692913386
21
1.3123919685039369
0
LINE
8
BLACK
6
CONTINUOUS
10
0.0688856692913386
20
1.3123919685039369
11
0.0781037007874016
21
1.2999628740157481
0
LINE
8
BLACK
6
CONTINUOUS
10
0.0781037007874016
20
1.2999628740157481
11
0.0884963779527559
21
1.2884963779527558
0
LINE
8
BLACK
6
CONTINUOUS
10
0.0884963779527559
20
1.2884963779527558
11
0.099962874015748
21
1.2781037007874017
0
LINE
8
BLACK
6
CONTINUOUS
10
0.099962874015748
20
1.2781037007874017
11
0.112391968503937
21
1.2688856692913386
0
LINE
8
BLACK
6
CONTINUOUS
10
0.112391968503937
20
1.2688856692913386
11
0.1256653149606299
21
1.2609299606299211
0
LINE
8
BLACK
6
CONTINUOUS
10
0.1256653149606299
20
1.2609299606299211
11
0.1396547244094488
21
1.2543134251968504
0
LINE
8
BLACK
6
CONTINUOUS
10
0.1396547244094488
20
1.2543134251968504
11
0.1542248031496063
21
1.2491001574803149
0
LINE
8
BLACK
6
CONTINUOUS
10
0.1542248031496063
20
1.2491001574803149
11
0.1617306299212598
21
1.2472200393700787
0
LINE
8
BLACK
6
CONTINUOUS
10
0.1617306299212598
20
1.2472200393700787
11
0.1692362204724409
21
1.2453399999999999
0
LINE
8
BLACK
6
CONTINUOUS
10
0.1692362204724409
20
1.2453399999999999
11
0.1692363779527559
21
1.2453399606299211
0
LINE
8
BLACK
6
CONTINUOUS
10
0.1692363779527559
20
1.2453399606299211
11
0.1692364566929134
21
1.2453399606299211
0
LINE
8
BLACK
6
CONTINUOUS
10
0.1692364566929134
20
1.2453399606299211
11
0.1845432283464567
21
1.2430694094488188
0
LINE
8
BLACK
6
CONTINUOUS
10
0.1845432283464567
20
1.2430694094488188
11
0.1845435433070866
21
1.2430693700787401
0
LINE
8
BLACK
6
CONTINUOUS
10
0.1845435433070866
20
1.2430693700787401
11
0.1845436614173228
21
1.2430693700787401
0
LINE
8
BLACK
6
CONTINUOUS
10
0.1845436614173228
20
1.2430693700787401
11
0.1911677952755906
21
1.2427439370078739
0
LINE
8
BLACK
6
CONTINUOUS
10
0.1911677952755906
20
1.2427439370078739
11
0.199999842519685
21
1.2423100393700788
0
LINE
8
BLACK
6
CONTINUOUS
10
0.199999842519685
20
1.2423100393700788
11
0.2
21
1.2423100393700788
0
LINE
8
BLACK
6
CONTINUOUS
10
0.2
20
1.2423100393700788
11
0.200000157480315
21
1.2423100393700788
0
LINE
8
BLACK
6
CONTINUOUS
10
0.200000157480315
20
1.2423100393700788
11
0.2077281496062992
21
1.2426896850393701
0
LINE
8
BLACK
6
CONTINUOUS
10
0.2077281496062992
20
1.2426896850393701
11
0.2154563385826772
21
1.2430693700787401
0
LINE
8
BLACK
6
CONTINUOUS
10
0.2154563385826772
20
1.2430693700787401
11
0.2154564566929134
21
1.2430693700787401
0
LINE
8
BLACK
6
CONTINUOUS
10
0.2154564566929134
20
1.2430693700787401
11
0.2154567322834646
21
1.2430694094488188
0
LINE
8
BLACK
6
CONTINUOUS
10
0.2154567322834646
20
1.2430694094488188
11
0.2307635039370079
21
1.2453399606299211
0
LINE
8
BLACK
6
CONTINUOUS
10
0.2307635039370079
20
1.2453399606299211
11
0.2307637795275591
21
1.2453399999999999
0
LINE
8
BLACK
6
CONTINUOUS
10
0.2307637795275591
20
1.2453399999999999
11
0.2420076771653543
21
1.2481564566929133
0
LINE
8
BLACK
6
CONTINUOUS
10
0.2420076771653543
20
1.2481564566929133
11
0.2457751574803149
21
1.2491001574803149
0
LINE
8
BLACK
6
CONTINUOUS
10
0.2457751574803149
20
1.2491001574803149
11
0.2603452362204725
21
1.2543134251968504
0
LINE
8
BLACK
6
CONTINUOUS
10
0.2603452362204725
20
1.2543134251968504
11
0.2603453543307087
21
1.2543134645669292
0
LINE
8
BLACK
6
CONTINUOUS
10
0.2603453543307087
20
1.2543134645669292
11
0.2743345275590551
21
1.2609298818897638
0
LINE
8
BLACK
6
CONTINUOUS
10
0.2743345275590551
20
1.2609298818897638
11
0.2788050787401575
21
1.2636094488188976
0
LINE
8
BLACK
6
CONTINUOUS
10
0.2788050787401575
20
1.2636094488188976
11
0.2876079921259843
21
1.2688856692913386
0
LINE
8
BLACK
6
CONTINUOUS
10
0.2876079921259843
20
1.2688856692913386
11
0.3000370866141732
21
1.2781037007874017
0
LINE
8
BLACK
6
CONTINUOUS
10
0.3000370866141732
20
1.2781037007874017
11
0.3000374409448819
21
1.2781040157480315
0
LINE
8
BLACK
6
CONTINUOUS
10
0.3000374409448819
20
1.2781040157480315
11
0.3115036220472441
21
1.2884963779527558
0
LINE
8
BLACK
6
CONTINUOUS
10
0.3115036220472441
20
1.2884963779527558
11
0.3218959842519685
21
1.299962559055118
0
LINE
8
BLACK
6
CONTINUOUS
10
0.3218959842519685
20
1.299962559055118
11
0.3218960236220472
21
1.2999625984251968
0
LINE
8
BLACK
6
CONTINUOUS
10
0.3218960236220472
20
1.2999625984251968
11
0.3218962598425197
21
1.2999628740157481
0
LINE
8
BLACK
6
CONTINUOUS
10
0.3218962598425197
20
1.2999628740157481
11
0.3311142913385827
21
1.3123919685039369
0
LINE
8
BLACK
6
CONTINUOUS
10
0.3311142913385827
20
1.3123919685039369
11
0.3311144094488189
21
1.3123921653543307
0
LINE
8
BLACK
6
CONTINUOUS
10
0.3311144094488189
20
1.3123921653543307
11
0.3390701181102362
21
1.3256654724409449
0
LINE
8
BLACK
6
CONTINUOUS
10
0.3390701181102362
20
1.3256654724409449
11
0.3456865354330709
21
1.3396546456692913
0
LINE
8
BLACK
6
CONTINUOUS
10
0.3456865354330709
20
1.3396546456692913
11
0.3508998818897638
21
1.3542250393700788
0
LINE
8
BLACK
6
CONTINUOUS
10
0.3508998818897638
20
1.3542250393700788
11
0.35466
21
1.3692362204724409
0
LINE
8
BLACK
6
CONTINUOUS
10
0.35466
20
1.3692362204724409
11
0.3569306299212598
21
1.3845436614173228
0
LINE
8
BLACK
6
CONTINUOUS
10
0.3569306299212598
20
1.3845436614173228
11
0.3576899606299213
21
1.3999998425196849
0
LINE
8
BLACK
6
CONTINUOUS
10
0.3576899606299213
20
1.3999998425196849
11
0.3576899606299213
21
1.3999999999999999
0
LINE
8
BLACK
6
CONTINUOUS
10
0.3576899606299213
20
1.3999999999999999
11
0.3569306299212598
21
1.4154563385826771
0
LINE
8
BLACK
6
CONTINUOUS
10
0.3569306299212598
20
1.4154563385826771
11
0.35466
21
1.430763779527559
0
LINE
8
BLACK
6
CONTINUOUS
10
0.35466
20
1.430763779527559
11
0.3508998818897638
21
1.4457749606299213
0
LINE
8
BLACK
6
CONTINUOUS
10
0.3508998818897638
20
1.4457749606299213
11
0.3456865354330709
21
1.4603453543307086
0
LINE
8
BLACK
6
CONTINUOUS
10
0.3456865354330709
20
1.4603453543307086
11
0.3390701181102362
21
1.4743345275590551
0
LINE
8
BLACK
6
CONTINUOUS
10
0.3390701181102362
20
1.4743345275590551
11
0.3311144094488189
21
1.4876078346456691
0
LINE
8
BLACK
6
CONTINUOUS
10
0.3311144094488189
20
1.4876078346456691
11
0.3218959842519685
21
1.5000374409448818
0
LINE
8
BLACK
6
CONTINUOUS
10
0.3218959842519685
20
1.5000374409448818
11
0.3115036220472441
21
1.511503622047244
0
LINE
8
BLACK
6
CONTINUOUS
10
0.3115036220472441
20
1.511503622047244
11
0.3000374409448819
21
1.5218959842519684
0
LINE
8
BLACK
6
CONTINUOUS
10
0.3000374409448819
20
1.5218959842519684
11
0.2876078346456693
21
1.5311144094488189
0
LINE
8
BLACK
6
CONTINUOUS
10
0.2876078346456693
20
1.5311144094488189
11
0.2743345275590551
21
1.5390701181102362
0
LINE
8
BLACK
6
CONTINUOUS
10
0.2743345275590551
20
1.5390701181102362
11
0.2603453543307087
21
1.5456865354330709
0
LINE
8
BLACK
6
CONTINUOUS
10
0.2603453543307087
20
1.5456865354330709
11
0.2457749606299212
21
1.5508998818897637
0
LINE
8
BLACK
6
CONTINUOUS
10
0.2457749606299212
20
1.5508998818897637
11
0.2307637795275591
21
1.5546599999999999
0
LINE
8
BLACK
6
CONTINUOUS
10
0.2307637795275591
20
1.5546599999999999
11
0.2154563385826772
21
1.5569306299212597
0
LINE
8
BLACK
6
CONTINUOUS
10
0.2154563385826772
20
1.5569306299212597
11
0.2021804724409449
21
1.5575828346456693
0
LINE
8
BLACK
6
CONTINUOUS
10
0.2021804724409449
20
1.5575828346456693
11
0.200000157480315
21
1.5576899606299213
0
LINE
8
BLACK
6
CONTINUOUS
10
0.200000157480315
20
1.5576899606299213
11
0.199999842519685
21
1.5576899606299213
0
LINE
8
BLACK
6
CONTINUOUS
10
0.199999842519685
20
1.5576899606299213
11
0.1977397637795276
21
1.5575788976377953
0
LINE
8
BLACK
6
CONTINUOUS
10
0.1977397637795276
20
1.5575788976377953
11
0.1845436614173228
21
1.5569306299212597
0
LINE
8
BLACK
6
CONTINUOUS
10
0.1845436614173228
20
1.5569306299212597
11
0.1692362204724409
21
1.5546599999999999
0
LINE
8
BLACK
6
CONTINUOUS
10
0.1692362204724409
20
1.5546599999999999
11
0.1542250393700787
21
1.5508998818897637
0
LINE
8
BLACK
6
CONTINUOUS
10
0.1542250393700787
20
1.5508998818897637
11
0.1396546456692913
21
1.5456865354330709
0
LINE
8
BLACK
6
CONTINUOUS
10
0.1396546456692913
20
1.5456865354330709
11
0.1256654724409449
21
1.5390701181102362
0
LINE
8
BLACK
6
CONTINUOUS
10
0.1256654724409449
20
1.5390701181102362
11
0.1123921653543307
21
1.5311144094488189
0
LINE
8
BLACK
6
CONTINUOUS
10
0.1123921653543307
20
1.5311144094488189
11
0.112391968503937
21
1.5311142913385827
0
LINE
8
BLACK
6
CONTINUOUS
10
0.112391968503937
20
1.5311142913385827
11
0.099962874015748
21
1.5218962598425196
0
LINE
8
BLACK
6
CONTINUOUS
10
0.099962874015748
20
1.5218962598425196
11
0.0999625984251968
21
1.5218960236220471
0
LINE
8
BLACK
6
CONTINUOUS
10
0.0999625984251968
20
1.5218960236220471
11
0.0999625590551181
21
1.5218959842519684
0
LINE
8
BLACK
6
CONTINUOUS
10
0.0999625590551181
20
1.5218959842519684
11
0.0884963779527559
21
1.511503622047244
0
LINE
8
BLACK
6
CONTINUOUS
10
0.0884963779527559
20
1.511503622047244
11
0.0781040157480315
21
1.5000374409448818
0
LINE
8
BLACK
6
CONTINUOUS
10
0.0781040157480315
20
1.5000374409448818
11
0.0781037007874016
21
1.5000370866141732
0
LINE
8
BLACK
6
CONTINUOUS
10
0.0781037007874016
20
1.5000370866141732
11
0.0688856692913386
21
1.4876079921259842
0
LINE
8
BLACK
6
CONTINUOUS
10
0.0688856692913386
20
1.4876079921259842
11
0.0688855905511811
21
1.4876078346456691
0
LINE
8
BLACK
6
CONTINUOUS
10
0.0688855905511811
20
1.4876078346456691
11
0.0609298818897638
21
1.4743345275590551
0
LINE
8
BLACK
6
CONTINUOUS
10
0.0609298818897638
20
1.4743345275590551
11
0.0543134645669291
21
1.4603453543307086
0
LINE
8
BLACK
6
CONTINUOUS
10
0.0543134645669291
20
1.4603453543307086
11
0.0543134251968504
21
1.4603452362204723
0
LINE
8
BLACK
6
CONTINUOUS
10
0.0543134251968504
20
1.4603452362204723
11
0.049100157480315
21
1.4457751574803148
0
LINE
8
BLACK
6
CONTINUOUS
10
0.049100157480315
20
1.4457751574803148
11
0.0491001181102362
21
1.4457749606299213
0
LINE
8
BLACK
6
CONTINUOUS
10
0.0491001181102362
20
1.4457749606299213
11
0.04534
21
1.430763779527559
0
LINE
8
BLACK
6
CONTINUOUS
10
0.04534
20
1.430763779527559
11
0.0453399606299213
21
1.4307635039370079
0
LINE
8
BLACK
6
CONTINUOUS
10
0.0453399606299213
20
1.4307635039370079
11
0.0430694094488189
21
1.4154567322834646
0
LINE
8
BLACK
6
CONTINUOUS
10
0.0430694094488189
20
1.4154567322834646
11
0.0430693700787402
21
1.4154561811023623
0
LINE
8
BLACK
6
CONTINUOUS
10
0.0430693700787402
20
1.4154561811023623
11
0.0423100393700787
21
1.4000001181102362
0
LINE
8
BLACK
6
CONTINUOUS
10
0.0423100393700787
20
1.4000001181102362
11
0.0423100393700787
21
1.3999998425196849
0
LINE
8
BLACK
6
CONTINUOUS
10
0.0423100393700787
20
1.3999998425196849
11
0.0430693700787402
21
1.384543779527559
0
LINE
8
BLACK
6
CONTINUOUS
10
1.2430693700787401
20
1.384543779527559
11
1.2430694094488188
21
1.3845432283464567
0
LINE
8
BLACK
6
CONTINUOUS
10
1.2430694094488188
20
1.3845432283464567
11
1.2453399606299211
21
1.3692364566929134
0
LINE
8
BLACK
6
CONTINUOUS
10
1.2453399606299211
20
1.3692364566929134
11
1.2453399999999999
21
1.3692362204724409
0
LINE
8
BLACK
6
CONTINUOUS
10
1.2453399999999999
20
1.3692362204724409
11
1.2472200393700787
21
1.3617306299212597
0
LINE
8
BLACK
6
CONTINUOUS
10
1.2472200393700787
20
1.3617306299212597
11
1.2491001574803149
21
1.3542248031496062
0
LINE
8
BLACK
6
CONTINUOUS
10
1.2491001574803149
20
1.3542248031496062
11
1.2543134251968504
21
1.3396547244094488
0
LINE
8
BLACK
6
CONTINUOUS
10
1.2543134251968504
20
1.3396547244094488
11
1.2609299606299211
21
1.3256653149606299
0
LINE
8
BLACK
6
CONTINUOUS
10
1.2609299606299211
20
1.3256653149606299
11
1.2688856692913386
21
1.3123919685039369
0
LINE
8
BLACK
6
CONTINUOUS
10
1.2688856692913386
20
1.3123919685039369
11
1.2781037007874017
21
1.2999628740157481
0
LINE
8
BLACK
6
CONTINUOUS
10
1.2781037007874017
20
1.2999628740157481
11
1.2884963779527558
21
1.2884963779527558
0
LINE
8
BLACK
6
CONTINUOUS
10
1.2884963779527558
20
1.2884963779527558
11
1.2999628740157481
21
1.2781037007874017
0
LINE
8
BLACK
6
CONTINUOUS
10
1.2999628740157481
20
1.2781037007874017
11
1.3123919685039369
21
1.2688856692913386
0
LINE
8
BLACK
6
CONTINUOUS
10
1.3123919685039369
20
1.2688856692913386
11
1.3256653149606299
21
1.2609299606299211
0
LINE
8
BLACK
6
CONTINUOUS
10
1.3256653149606299
20
1.2609299606299211
11
1.3396547244094488
21
1.2543134251968504
0
LINE
8
BLACK
6
CONTINUOUS
10
1.3396547244094488
20
1.2543134251968504
11
1.3542248031496062
21
1.2491001574803149
0
LINE
8
BLACK
6
CONTINUOUS
10
1.3542248031496062
20
1.2491001574803149
11
1.3617306299212597
21
1.2472200393700787
0
LINE
8
BLACK
6
CONTINUOUS
10
1.3617306299212597
20
1.2472200393700787
11
1.3692362204724409
21
1.2453399999999999
0
LINE
8
BLACK
6
CONTINUOUS
10
1.3692362204724409
20
1.2453399999999999
11
1.3692363779527559
21
1.2453399606299211
0
LINE
8
BLACK
6
CONTINUOUS
10
1.3692363779527559
20
1.2453399606299211
11
1.3692364566929134
21
1.2453399606299211
0
LINE
8
BLACK
6
CONTINUOUS
10
1.3692364566929134
20
1.2453399606299211
11
1.3845432283464567
21
1.2430694094488188
0
LINE
8
BLACK
6
CONTINUOUS
10
1.3845432283464567
20
1.2430694094488188
11
1.3845435433070865
21
1.2430693700787401
0
LINE
8
BLACK
6
CONTINUOUS
10
1.3845435433070865
20
1.2430693700787401
11
1.3845436614173228
21
1.2430693700787401
0
LINE
8
BLACK
6
CONTINUOUS
10
1.3845436614173228
20
1.2430693700787401
11
1.3911677952755905
21
1.2427439370078739
0
LINE
8
BLACK
6
CONTINUOUS
10
1.3911677952755905
20
1.2427439370078739
11
1.3999998425196849
21
1.2423100393700788
0
LINE
8
BLACK
6
CONTINUOUS
10
1.3999998425196849
20
1.2423100393700788
11
1.3999999999999999
21
1.2423100393700788
0
LINE
8
BLACK
6
CONTINUOUS
10
1.3999999999999999
20
1.2423100393700788
11
1.4000001574803149
21
1.2423100393700788
0
LINE
8
BLACK
6
CONTINUOUS
10
1.4000001574803149
20
1.2423100393700788
11
1.4077281496062992
21
1.2426896850393701
0
LINE
8
BLACK
6
CONTINUOUS
10
1.4077281496062992
20
1.2426896850393701
11
1.4154563385826771
21
1.2430693700787401
0
LINE
8
BLACK
6
CONTINUOUS
10
1.4154563385826771
20
1.2430693700787401
11
1.4154564566929133
21
1.2430693700787401
0
LINE
8
BLACK
6
CONTINUOUS
10
1.4154564566929133
20
1.2430693700787401
11
1.4154567322834646
21
1.2430694094488188
0
LINE
8
BLACK
6
CONTINUOUS
10
1.4154567322834646
20
1.2430694094488188
11
1.4307635039370079
21
1.2453399606299211
0
LINE
8
BLACK
6
CONTINUOUS
10
1.4307635039370079
20
1.2453399606299211
11
1.430763779527559
21
1.2453399999999999
0
LINE
8
BLACK
6
CONTINUOUS
10
1.430763779527559
20
1.2453399999999999
11
1.4420076771653543
21
1.2481564566929133
0
LINE
8
BLACK
6
CONTINUOUS
10
1.4420076771653543
20
1.2481564566929133
11
1.4457751574803148
21
1.2491001574803149
0
LINE
8
BLACK
6
CONTINUOUS
10
1.4457751574803148
20
1.2491001574803149
11
1.4603452362204723
21
1.2543134251968504
0
LINE
8
BLACK
6
CONTINUOUS
10
1.4603452362204723
20
1.2543134251968504
11
1.4603453543307086
21
1.2543134645669292
0
LINE
8
BLACK
6
CONTINUOUS
10
1.4603453543307086
20
1.2543134645669292
11
1.4743345275590551
21
1.2609298818897638
0
LINE
8
BLACK
6
CONTINUOUS
10
1.4743345275590551
20
1.2609298818897638
11
1.4788050787401574
21
1.2636094488188976
0
LINE
8
BLACK
6
CONTINUOUS
10
1.4788050787401574
20
1.2636094488188976
11
1.4876079921259842
21
1.2688856692913386
0
LINE
8
BLACK
6
CONTINUOUS
10
1.4876079921259842
20
1.2688856692913386
11
1.5000370866141732
21
1.2781037007874017
0
LINE
8
BLACK
6
CONTINUOUS
10
1.5000370866141732
20
1.2781037007874017
11
1.5000374409448818
21
1.2781040157480315
0
LINE
8
BLACK
6
CONTINUOUS
10
1.5000374409448818
20
1.2781040157480315
11
1.511503622047244
21
1.2884963779527558
0
LINE
8
BLACK
6
CONTINUOUS
10
1.511503622047244
20
1.2884963779527558
11
1.5218959842519684
21
1.299962559055118
0
LINE
8
BLACK
6
CONTINUOUS
10
1.5218959842519684
20
1.299962559055118
11
1.5218960236220471
21
1.2999625984251968
0
LINE
8
BLACK
6
CONTINUOUS
10
1.5218960236220471
20
1.2999625984251968
11
1.5218962598425196
21
1.2999628740157481
0
LINE
8
BLACK
6
CONTINUOUS
10
1.5218962598425196
20
1.2999628740157481
11
1.5311142913385827
21
1.3123919685039369
0
LINE
8
BLACK
6
CONTINUOUS
10
1.5311142913385827
20
1.3123919685039369
11
1.5311144094488189
21
1.3123921653543307
0
LINE
8
BLACK
6
CONTINUOUS
10
1.5311144094488189
20
1.3123921653543307
11
1.5390701181102362
21
1.3256654724409449
0
LINE
8
BLACK
6
CONTINUOUS
10
1.5390701181102362
20
1.3256654724409449
11
1.5456865354330709
21
1.3396546456692913
0
LINE
8
BLACK
6
CONTINUOUS
10
1.5456865354330709
20
1.3396546456692913
11
1.5508998818897637
21
1.3542250393700788
0
LINE
8
BLACK
6
CONTINUOUS
10
1.5508998818897637
20
1.3542250393700788
11
1.5546599999999999
21
1.3692362204724409
0
LINE
8
BLACK
6
CONTINUOUS
10
1.5546599999999999
20
1.3692362204724409
11
1.5569306299212597
21
1.3845436614173228
0
LINE
8
BLACK
6
CONTINUOUS
10
1.5569306299212597
20
1.3845436614173228
11
1.5576899606299213
21
1.3999999999999999
0
LINE
8
BLACK
6
CONTINUOUS
10
1.5576899606299213
20
1.3999999999999999
11
1.5569306299212597
21
1.4154563385826771
0
LINE
8
BLACK
6
CONTINUOUS
10
1.5569306299212597
20
1.4154563385826771
11
1.5546599999999999
21
1.430763779527559
0
LINE
8
BLACK
6
CONTINUOUS
10
1.5546599999999999
20
1.430763779527559
11
1.5508998818897637
21
1.4457749606299213
0
LINE
8
BLACK
6
CONTINUOUS
10
1.5508998818897637
20
1.4457749606299213
11
1.5456865354330709
21
1.4603453543307086
0
LINE
8
BLACK
6
CONTINUOUS
10
1.5456865354330709
20
1.4603453543307086
11
1.5390701181102362
21
1.4743345275590551
0
LINE
8
BLACK
6
CONTINUOUS
10
1.5390701181102362
20
1.4743345275590551
11
1.5311144094488189
21
1.4876078346456691
0
LINE
8
BLACK
6
CONTINUOUS
10
1.5311144094488189
20
1.4876078346456691
11
1.5218959842519684
21
1.5000374409448818
0
LINE
8
BLACK
6
CONTINUOUS
10
1.5218959842519684
20
1.5000374409448818
11
1.511503622047244
21
1.511503622047244
0
LINE
8
BLACK
6
CONTINUOUS
10
1.511503622047244
20
1.511503622047244
11
1.5000374409448818
21
1.5218959842519684
0
LINE
8
BLACK
6
CONTINUOUS
10
1.5000374409448818
20
1.5218959842519684
11
1.4876078346456691
21
1.5311144094488189
0
LINE
8
BLACK
6
CONTINUOUS
10
1.4876078346456691
20
1.5311144094488189
11
1.4743345275590551
21
1.5390701181102362
0
LINE
8
BLACK
6
CONTINUOUS
10
1.4743345275590551
20
1.5390701181102362
11
1.4603453543307086
21
1.5456865354330709
0
LINE
8
BLACK
6
CONTINUOUS
10
1.4603453543307086
20
1.5456865354330709
11
1.4457749606299213
21
1.5508998818897637
0
LINE
8
BLACK
6
CONTINUOUS
10
1.4457749606299213
20
1.5508998818897637
11
1.430763779527559
21
1.5546599999999999
0
LINE
8
BLACK
6
CONTINUOUS
10
1.430763779527559
20
1.5546599999999999
11
1.4154563385826771
21
1.5569306299212597
0
LINE
8
BLACK
6
CONTINUOUS
10
1.4154563385826771
20
1.5569306299212597
11
1.4021804724409448
21
1.5575828346456693
0
LINE
8
BLACK
6
CONTINUOUS
10
1.4021804724409448
20
1.5575828346456693
11
1.4000001574803149
21
1.5576899606299213
0
LINE
8
BLACK
6
CONTINUOUS
10
1.4000001574803149
20
1.5576899606299213
11
1.3999998425196849
21
1.5576899606299213
0
LINE
8
BLACK
6
CONTINUOUS
10
1.3999998425196849
20
1.5576899606299213
11
1.3977397637795275
21
1.5575788976377953
0
LINE
8
BLACK
6
CONTINUOUS
10
1.3977397637795275
20
1.5575788976377953
11
1.3845436614173228
21
1.5569306299212597
0
LINE
8
BLACK
6
CONTINUOUS
10
1.3845436614173228
20
1.5569306299212597
11
1.3692362204724409
21
1.5546599999999999
0
LINE
8
BLACK
6
CONTINUOUS
10
1.3692362204724409
20
1.5546599999999999
11
1.3542250393700788
21
1.5508998818897637
0
LINE
8
BLACK
6
CONTINUOUS
10
1.3542250393700788
20
1.5508998818897637
11
1.3396546456692913
21
1.5456865354330709
0
LINE
8
BLACK
6
CONTINUOUS
10
1.3396546456692913
20
1.5456865354330709
11
1.3256654724409449
21
1.5390701181102362
0
LINE
8
BLACK
6
CONTINUOUS
10
1.3256654724409449
20
1.5390701181102362
11
1.3123921653543307
21
1.5311144094488189
0
LINE
8
BLACK
6
CONTINUOUS
10
1.3123921653543307
20
1.5311144094488189
11
1.3123919685039369
21
1.5311142913385827
0
LINE
8
BLACK
6
CONTINUOUS
10
1.3123919685039369
20
1.5311142913385827
11
1.2999628740157481
21
1.5218962598425196
0
LINE
8
BLACK
6
CONTINUOUS
10
1.2999628740157481
20
1.5218962598425196
11
1.2999625984251968
21
1.5218960236220471
0
LINE
8
BLACK
6
CONTINUOUS
10
1.2999625984251968
20
1.5218960236220471
11
1.299962559055118
21
1.5218959842519684
0
LINE
8
BLACK
6
CONTINUOUS
10
1.299962559055118
20
1.5218959842519684
11
1.2884963779527558
21
1.511503622047244
0
LINE
8
BLACK
6
CONTINUOUS
10
1.2884963779527558
20
1.511503622047244
11
1.2781040157480315
21
1.5000374409448818
0
LINE
8
BLACK
6
CONTINUOUS
10
1.2781040157480315
20
1.5000374409448818
11
1.2781037007874017
21
1.5000370866141732
0
LINE
8
BLACK
6
CONTINUOUS
10
1.2781037007874017
20
1.5000370866141732
11
1.2688856692913386
21
1.4876079921259842
0
LINE
8
BLACK
6
CONTINUOUS
10
1.2688856692913386
20
1.4876079921259842
11
1.2688855905511811
21
1.4876078346456691
0
LINE
8
BLACK
6
CONTINUOUS
10
1.2688855905511811
20
1.4876078346456691
11
1.2609298818897638
21
1.4743345275590551
0
LINE
8
BLACK
6
CONTINUOUS
10
1.2609298818897638
20
1.4743345275590551
11
1.2543134645669292
21
1.4603453543307086
0
LINE
8
BLACK
6
CONTINUOUS
10
1.2543134645669292
20
1.4603453543307086
11
1.2543134251968504
21
1.4603452362204723
0
LINE
8
BLACK
6
CONTINUOUS
10
1.2543134251968504
20
1.4603452362204723
11
1.2491001574803149
21
1.4457751574803148
0
LINE
8
BLACK
6
CONTINUOUS
10
1.2491001574803149
20
1.4457751574803148
11
1.2491001181102361
21
1.4457749606299213
0
LINE
8
BLACK
6
CONTINUOUS
10
1.2491001181102361
20
1.4457749606299213
11
1.2453399999999999
21
1.430763779527559
0
LINE
8
BLACK
6
CONTINUOUS
10
1.2453399999999999
20
1.430763779527559
11
1.2453399606299211
21
1.4307635039370079
0
LINE
8
BLACK
6
CONTINUOUS
10
1.2453399606299211
20
1.4307635039370079
11
1.2430694094488188
21
1.4154567322834646
0
LINE
8
BLACK
6
CONTINUOUS
10
1.2430694094488188
20
1.4154567322834646
11
1.2430693700787401
21
1.4154561811023623
0
LINE
8
BLACK
6
CONTINUOUS
10
1.2430693700787401
20
1.4154561811023623
11
1.2423100393700788
21
1.4000001181102362
0
LINE
8
BLACK
6
CONTINUOUS
10
1.2423100393700788
20
1.4000001181102362
11
1.2423100393700788
21
1.3999998425196849
0
LINE
8
BLACK
6
CONTINUOUS
10
1.2423100393700788
20
1.3999998425196849
11
1.2430693700787401
21
1.384543779527559
0
CIRCLE
8
BLACK
10
0.84
20
0.13
40
0.0068897637795276
0
CIRCLE
8
BLACK
10
0.84
20
0.23
40
0.0068897637795276
0
CIRCLE
8
BLACK
10
0.9399999999999999
20
0.13
40
0.0068897637795276
0
CIRCLE
8
BLACK
10
0.9399999999999999
20
0.23
40
0.0068897637795276
0
CIRCLE
8
BLACK
10
1.04
20
0.13
40
0.0068897637795276
0
CIRCLE
8
BLACK
10
1.04
20
0.23
40
0.0068897637795276
0
CIRCLE
8
BLACK
10
1.1399999999999999
20
0.13
40
0.0068897637795276
0
CIRCLE
8
BLACK
10
1.1399999999999999
20
0.23
40
0.0068897637795276
0
CIRCLE
8
BLACK
10
1.3999999999999999
20
0.2
40
0.0068897637795276
0
CIRCLE
8
BLACK
10
0.2
20
1.3999999999999999
40
0.0068897637795276
0
CIRCLE
8
BLACK
10
0.2
20
0.2
40
0.0068897637795276
0
CIRCLE
8
BLACK
10
1.3999999999999999
20
1.3999999999999999
40
0.0068897637795276
0
CIRCLE
8
BLACK
10
0.6600787401574802
20
0.34
40
0.0078740157480315
0
CIRCLE
8
BLACK
10
1.22
20
0.4
40
0.0078740157480315
0
CIRCLE
8
BLACK
10
0.34
20
0.48
40
0.0078740157480315
0
CIRCLE
8
BLACK
10
1.3999999999999999
20
0.58
40
0.0078740157480315
0
CIRCLE
8
BLACK
10
1.1199999999999999
20
0.58
40
0.0078740157480315
0
CIRCLE
8
BLACK
10
0.82
20
0.58
40
0.0078740157480315
0
CIRCLE
8
BLACK
10
1.3999999999999999
20
0.9199999999999999
40
0.0078740157480315
0
CIRCLE
8
BLACK
10
0.54
20
0.58
40
0.0078740157480315
0
CIRCLE
8
BLACK
10
1.1799999999999999
20
0.74
40
0.0078740157480315
0
CIRCLE
8
BLACK
10
1.1799999999999999
20
0.9399999999999999
40
0.0078740157480315
0
CIRCLE
8
BLACK
10
0.86
20
0.9399999999999999
40
0.0078740157480315
0
CIRCLE
8
BLACK
10
0.96
20
1.3599999999999999
40
0.0078740157480315
0
CIRCLE
8
BLACK
10
0.54
20
0.22
40
0.0078740157480315
0
CIRCLE
8
BLACK
10
0.34
20
0.34
40
0.0078740157480315
0
CIRCLE
8
BLACK
10
0.48
20
0.24
40
0.0078740157480315
0
CIRCLE
8
BLACK
10
0.86
20
0.76
40
0.0078740157480315
0
CIRCLE
8
BLACK
10
1.04
20
0.307244094488189
40
0.0078740157480315
0
CIRCLE
8
BLACK
10
0.22
20
0.58
40
0.0078740157480315
0
CIRCLE
8
BLACK
10
0.22
20
0.76
40
0.0078740157480315
0
CIRCLE
8
BLACK
10
1.4199999999999999
20
0.44
40
0.0078740157480315
0
CIRCLE
8
BLACK
10
1.46
20
0.66
40
0.0078740157480315
0
CIRCLE
8
BLACK
10
0.22
20
1.1199999999999999
40
0.0078740157480315
0
CIRCLE
8
BLACK
10
0.78
20
1.3599999999999999
40
0.0078740157480315
0
CIRCLE
8
BLACK
10
0.54
20
0.9399999999999999
40
0.0078740157480315
0
CIRCLE
8
BLACK
10
1.4399999999999999
20
1.04
40
0.0078740157480315
0
CIRCLE
8
BLACK
10
0.58
20
1.3599999999999999
40
0.0078740157480315
0
CIRCLE
8
BLACK
10
1.1399999999999999
20
0.34
40
0.0078740157480315
0
CIRCLE
8
BLACK
10
0.86
20
1.1199999999999999
40
0.0078740157480315
0
CIRCLE
8
BLACK
10
1.1799999999999999
20
1.1199999999999999
40
0.0078740157480315
0
CIRCLE
8
BLACK
10
1.1799999999999999
20
1.3599999999999999
40
0.0078740157480315
0
CIRCLE
8
BLACK
10
0.54
20
1.1199999999999999
40
0.0078740157480315
0
CIRCLE
8
BLACK
10
1.1799999999999999
20
0.5
40
0.0078740157480315
0
CIRCLE
8
BLACK
10
0.54
20
0.76
40
0.0078740157480315
0
CIRCLE
8
BLACK
10
0.22
20
0.9399999999999999
40
0.0078740157480315
  0
ENDSEC
  0
EOF
