  0
SECTION
  2
HEADER
  9
$ANGBASE
  50
0.0
  9
$ANGDIR
  70
1
  9
$MEASUREMENT
  70
0
  0
ENDSEC
  0
SECTION
  2
TABLES
  0
TABLE
  2
LTYPE
  70
4
  0
LTYPE
  5
40F
  2
CONTINUOUS
  70
0
  3
Solid line
  72
65
  73
0
  40
0.0
  0
LTYPE
  5
410
  2
DASHDOT
 70
0
  3
Dash Dot ____ _ ____ _
 72
65
 73
4
 40
2.0
 49
1.25
 49
-0.25
 49
0.25
 49
-0.25
  0
LTYPE
  5
411
  2
DASHED
 70
0
  3
Dashed __ __ __ __ __
 72
65
 73
2
 40
0.75
 49
0.5
 49
-0.25
  0
LTYPE
  5
43B
  2
DOTTED
 70
0
  3
Dotted .  .  .  .
 72
65
 73
2
 40
0.2
 49
0.0
 49
-0.2
  0
ENDTAB
  0
TABLE
  2
STYLE
  70
4
  0
STYLE
  2
KICAD
  70
0
  40
0
  41
1
  42
1
  50
0
  71
0
  3
isocp.shx
  0
STYLE
  2
KICADB
  70
0
  40
0
  41
1
  42
1
  50
0
  71
0
  3
isocp.shx
  0
STYLE
  2
KICADI
  70
0
  40
0
  41
1
  42
1
  50
15
  71
0
  3
isocp.shx
  0
STYLE
  2
KICADBI
  70
0
  40
0
  41
1
  42
1
  50
15
  71
0
  3
isocp.shx
  0
ENDTAB
  0
TABLE
  2
LAYER
  70
1
  0
LAYER
  2
BLACK
  70
0
  62
7
  6
CONTINUOUS
  0
ENDTAB
  0
ENDSEC
  0
SECTION
  2
ENTITIES
0
LINE
8
BLACK
6
CONTINUOUS
10
1.5903835039370078
20
1.5928851181102361
11
1.5905127559055117
21
1.5929079133858268
0
LINE
8
BLACK
6
CONTINUOUS
10
1.5905127559055117
20
1.5929079133858268
11
1.5906263385826771
21
1.5928422834645668
0
LINE
8
BLACK
6
CONTINUOUS
10
1.5906263385826771
20
1.5928422834645668
11
1.5910099212598425
21
1.59277468503937
0
LINE
8
BLACK
6
CONTINUOUS
10
1.5910099212598425
20
1.59277468503937
11
1.5915975984251969
21
1.5922815354330708
0
LINE
8
BLACK
6
CONTINUOUS
10
1.5915975984251969
20
1.5922815354330708
11
1.5922619291338582
21
1.5918979921259842
0
LINE
8
BLACK
6
CONTINUOUS
10
1.5922619291338582
20
1.5918979921259842
11
1.592353031496063
21
1.5916476377952755
0
LINE
8
BLACK
6
CONTINUOUS
10
1.592353031496063
20
1.5916476377952755
11
1.5925571653543307
21
1.5914763779527559
0
LINE
8
BLACK
6
CONTINUOUS
10
1.5925571653543307
20
1.5914763779527559
11
1.5926903937007875
21
1.5907207874015747
0
LINE
8
BLACK
6
CONTINUOUS
10
1.5926903937007875
20
1.5907207874015747
11
1.5929527559055119
21
1.5899999999999999
0
LINE
8
BLACK
6
CONTINUOUS
10
1.5929527559055119
20
1.5899999999999999
11
1.5929527559055119
21
0.01
0
LINE
8
BLACK
6
CONTINUOUS
10
1.5929527559055119
20
0.01
11
1.5928851181102361
21
0.0096164566929134
0
LINE
8
BLACK
6
CONTINUOUS
10
1.5928851181102361
20
0.0096164566929134
11
1.5929079133858268
21
0.0094872440944882
0
LINE
8
BLACK
6
CONTINUOUS
10
1.5929079133858268
20
0.0094872440944882
11
1.5928422834645668
21
0.0093736220472441
0
LINE
8
BLACK
6
CONTINUOUS
10
1.5928422834645668
20
0.0093736220472441
11
1.59277468503937
21
0.0089900787401575
0
LINE
8
BLACK
6
CONTINUOUS
10
1.59277468503937
20
0.0089900787401575
11
1.5922815354330708
21
0.0084023622047244
0
LINE
8
BLACK
6
CONTINUOUS
10
1.5922815354330708
20
0.0084023622047244
11
1.5918979921259842
21
0.0077380708661417
0
LINE
8
BLACK
6
CONTINUOUS
10
1.5918979921259842
20
0.0077380708661417
11
1.5916476377952755
21
0.0076469291338583
0
LINE
8
BLACK
6
CONTINUOUS
10
1.5916476377952755
20
0.0076469291338583
11
1.5914763779527559
21
0.0074428346456693
0
LINE
8
BLACK
6
CONTINUOUS
10
1.5914763779527559
20
0.0074428346456693
11
1.5907207874015747
21
0.0073095669291339
0
LINE
8
BLACK
6
CONTINUOUS
10
1.5907207874015747
20
0.0073095669291339
11
1.5899999999999999
21
0.0070472440944882
0
LINE
8
BLACK
6
CONTINUOUS
10
1.5899999999999999
20
0.0070472440944882
11
0.01
21
0.0070472440944882
0
LINE
8
BLACK
6
CONTINUOUS
10
0.01
20
0.0070472440944882
11
0.0096164566929134
21
0.007114842519685
0
LINE
8
BLACK
6
CONTINUOUS
10
0.0096164566929134
20
0.007114842519685
11
0.0094872440944882
21
0.0070920866141732
0
LINE
8
BLACK
6
CONTINUOUS
10
0.0094872440944882
20
0.0070920866141732
11
0.0093736220472441
21
0.0071576771653543
0
LINE
8
BLACK
6
CONTINUOUS
10
0.0093736220472441
20
0.0071576771653543
11
0.0089900787401575
21
0.0072253149606299
0
LINE
8
BLACK
6
CONTINUOUS
10
0.0089900787401575
20
0.0072253149606299
11
0.0084023622047244
21
0.0077184251968504
0
LINE
8
BLACK
6
CONTINUOUS
10
0.0084023622047244
20
0.0077184251968504
11
0.0077380708661417
21
0.0081020078740157
0
LINE
8
BLACK
6
CONTINUOUS
10
0.0077380708661417
20
0.0081020078740157
11
0.0076469291338583
21
0.0083523228346457
0
LINE
8
BLACK
6
CONTINUOUS
10
0.0076469291338583
20
0.0083523228346457
11
0.0074428346456693
21
0.0085236220472441
0
LINE
8
BLACK
6
CONTINUOUS
10
0.0074428346456693
20
0.0085236220472441
11
0.0073095669291339
21
0.0092791732283465
0
LINE
8
BLACK
6
CONTINUOUS
10
0.0073095669291339
20
0.0092791732283465
11
0.0070472440944882
21
0.01
0
LINE
8
BLACK
6
CONTINUOUS
10
0.0070472440944882
20
0.01
11
0.0070472440944882
21
1.5899999999999999
0
LINE
8
BLACK
6
CONTINUOUS
10
0.0070472440944882
20
1.5899999999999999
11
0.007114842519685
21
1.5903835039370078
0
LINE
8
BLACK
6
CONTINUOUS
10
0.007114842519685
20
1.5903835039370078
11
0.0070920866141732
21
1.5905127559055117
0
LINE
8
BLACK
6
CONTINUOUS
10
0.0070920866141732
20
1.5905127559055117
11
0.0071576771653543
21
1.5906263385826771
0
LINE
8
BLACK
6
CONTINUOUS
10
0.0071576771653543
20
1.5906263385826771
11
0.0072253149606299
21
1.5910099212598425
0
LINE
8
BLACK
6
CONTINUOUS
10
0.0072253149606299
20
1.5910099212598425
11
0.0077184251968504
21
1.5915975984251969
0
LINE
8
BLACK
6
CONTINUOUS
10
0.0077184251968504
20
1.5915975984251969
11
0.0081020078740157
21
1.5922619291338582
0
LINE
8
BLACK
6
CONTINUOUS
10
0.0081020078740157
20
1.5922619291338582
11
0.0083523228346457
21
1.592353031496063
0
LINE
8
BLACK
6
CONTINUOUS
10
0.0083523228346457
20
1.592353031496063
11
0.0085236220472441
21
1.5925571653543307
0
LINE
8
BLACK
6
CONTINUOUS
10
0.0085236220472441
20
1.5925571653543307
11
0.0092791732283465
21
1.5926903937007875
0
LINE
8
BLACK
6
CONTINUOUS
10
0.0092791732283465
20
1.5926903937007875
11
0.01
21
1.5929527559055119
0
LINE
8
BLACK
6
CONTINUOUS
10
0.01
20
1.5929527559055119
11
1.5899999999999999
21
1.5929527559055119
0
LINE
8
BLACK
6
CONTINUOUS
10
1.5899999999999999
20
1.5929527559055119
11
1.5903835039370078
21
1.5928851181102361
0
LINE
8
BLACK
6
CONTINUOUS
10
0.0129527559055118
20
1.5870472440944881
11
0.0129527559055118
21
0.0129527559055118
0
LINE
8
BLACK
6
CONTINUOUS
10
0.0129527559055118
20
0.0129527559055118
11
1.5870472440944881
21
0.0129527559055118
0
LINE
8
BLACK
6
CONTINUOUS
10
1.5870472440944881
20
0.0129527559055118
11
1.5870472440944881
21
1.5870472440944881
0
LINE
8
BLACK
6
CONTINUOUS
10
1.5870472440944881
20
1.5870472440944881
11
0.0129527559055118
21
1.5870472440944881
  0
ENDSEC
  0
EOF
