  0
SECTION
  2
HEADER
  9
$ANGBASE
  50
0.0
  9
$ANGDIR
  70
1
  9
$MEASUREMENT
  70
0
  0
ENDSEC
  0
SECTION
  2
TABLES
  0
TABLE
  2
LTYPE
  70
4
  0
LTYPE
  5
40F
  2
CONTINUOUS
  70
0
  3
Solid line
  72
65
  73
0
  40
0.0
  0
LTYPE
  5
410
  2
DASHDOT
 70
0
  3
Dash Dot ____ _ ____ _
 72
65
 73
4
 40
2.0
 49
1.25
 49
-0.25
 49
0.25
 49
-0.25
  0
LTYPE
  5
411
  2
DASHED
 70
0
  3
Dashed __ __ __ __ __
 72
65
 73
2
 40
0.75
 49
0.5
 49
-0.25
  0
LTYPE
  5
43B
  2
DOTTED
 70
0
  3
Dotted .  .  .  .
 72
65
 73
2
 40
0.2
 49
0.0
 49
-0.2
  0
ENDTAB
  0
TABLE
  2
STYLE
  70
4
  0
STYLE
  2
KICAD
  70
0
  40
0
  41
1
  42
1
  50
0
  71
0
  3
isocp.shx
  0
STYLE
  2
KICADB
  70
0
  40
0
  41
1
  42
1
  50
0
  71
0
  3
isocp.shx
  0
STYLE
  2
KICADI
  70
0
  40
0
  41
1
  42
1
  50
15
  71
0
  3
isocp.shx
  0
STYLE
  2
KICADBI
  70
0
  40
0
  41
1
  42
1
  50
15
  71
0
  3
isocp.shx
  0
ENDTAB
  0
TABLE
  2
LAYER
  70
1
  0
LAYER
  2
BLACK
  70
0
  62
7
  6
CONTINUOUS
  0
ENDTAB
  0
ENDSEC
  0
SECTION
  2
ENTITIES
0
LINE
8
BLACK
6
CONTINUOUS
10
0.6876377952755905
20
0.1606299212598425
11
0.6325196850393701
21
0.1606299212598425
0
LINE
8
BLACK
6
CONTINUOUS
10
0.6325196850393701
20
0.1606299212598425
11
0.6325196850393701
21
0.2393700787401575
0
LINE
8
BLACK
6
CONTINUOUS
10
0.6325196850393701
20
0.2393700787401575
11
0.6876377952755905
21
0.2393700787401575
0
LINE
8
BLACK
6
CONTINUOUS
10
0.6876377952755905
20
0.2393700787401575
11
0.6876377952755905
21
0.1606299212598425
0
LINE
8
BLACK
6
CONTINUOUS
10
0.4474803149606299
20
0.1763779527559055
11
0.3923622047244094
21
0.1763779527559055
0
LINE
8
BLACK
6
CONTINUOUS
10
0.3923622047244094
20
0.1763779527559055
11
0.3923622047244094
21
0.2236220472440945
0
LINE
8
BLACK
6
CONTINUOUS
10
0.3923622047244094
20
0.2236220472440945
11
0.4474803149606299
21
0.2236220472440945
0
LINE
8
BLACK
6
CONTINUOUS
10
0.4474803149606299
20
0.2236220472440945
11
0.4474803149606299
21
0.1763779527559055
0
LINE
8
BLACK
6
CONTINUOUS
10
0.6876377952755905
20
0.3606299212598425
11
0.6325196850393701
21
0.3606299212598425
0
LINE
8
BLACK
6
CONTINUOUS
10
0.6325196850393701
20
0.3606299212598425
11
0.6325196850393701
21
0.4393700787401575
0
LINE
8
BLACK
6
CONTINUOUS
10
0.6325196850393701
20
0.4393700787401575
11
0.6876377952755905
21
0.4393700787401575
0
LINE
8
BLACK
6
CONTINUOUS
10
0.6876377952755905
20
0.4393700787401575
11
0.6876377952755905
21
0.3606299212598425
0
LINE
8
BLACK
6
CONTINUOUS
10
1.0076377952755906
20
0.3606299212598425
11
0.95251968503937
21
0.3606299212598425
0
LINE
8
BLACK
6
CONTINUOUS
10
0.95251968503937
20
0.3606299212598425
11
0.95251968503937
21
0.4393700787401575
0
LINE
8
BLACK
6
CONTINUOUS
10
0.95251968503937
20
0.4393700787401575
11
1.0076377952755906
21
0.4393700787401575
0
LINE
8
BLACK
6
CONTINUOUS
10
1.0076377952755906
20
0.4393700787401575
11
1.0076377952755906
21
0.3606299212598425
0
LINE
8
BLACK
6
CONTINUOUS
10
1.3276377952755904
20
0.3606299212598425
11
1.2725196850393701
21
0.3606299212598425
0
LINE
8
BLACK
6
CONTINUOUS
10
1.2725196850393701
20
0.3606299212598425
11
1.2725196850393701
21
0.4393700787401575
0
LINE
8
BLACK
6
CONTINUOUS
10
1.2725196850393701
20
0.4393700787401575
11
1.3276377952755904
21
0.4393700787401575
0
LINE
8
BLACK
6
CONTINUOUS
10
1.3276377952755904
20
0.4393700787401575
11
1.3276377952755904
21
0.3606299212598425
0
LINE
8
BLACK
6
CONTINUOUS
10
0.4474803149606299
20
0.3763779527559055
11
0.3923622047244094
21
0.3763779527559055
0
LINE
8
BLACK
6
CONTINUOUS
10
0.3923622047244094
20
0.3763779527559055
11
0.3923622047244094
21
0.4236220472440945
0
LINE
8
BLACK
6
CONTINUOUS
10
0.3923622047244094
20
0.4236220472440945
11
0.4474803149606299
21
0.4236220472440945
0
LINE
8
BLACK
6
CONTINUOUS
10
0.4474803149606299
20
0.4236220472440945
11
0.4474803149606299
21
0.3763779527559055
0
LINE
8
BLACK
6
CONTINUOUS
10
0.7674803149606299
20
0.3763779527559055
11
0.7123622047244095
21
0.3763779527559055
0
LINE
8
BLACK
6
CONTINUOUS
10
0.7123622047244095
20
0.3763779527559055
11
0.7123622047244095
21
0.4236220472440945
0
LINE
8
BLACK
6
CONTINUOUS
10
0.7123622047244095
20
0.4236220472440945
11
0.7674803149606299
21
0.4236220472440945
0
LINE
8
BLACK
6
CONTINUOUS
10
0.7674803149606299
20
0.4236220472440945
11
0.7674803149606299
21
0.3763779527559055
0
LINE
8
BLACK
6
CONTINUOUS
10
1.0874803149606298
20
0.3763779527559055
11
1.0323622047244094
21
0.3763779527559055
0
LINE
8
BLACK
6
CONTINUOUS
10
1.0323622047244094
20
0.3763779527559055
11
1.0323622047244094
21
0.4236220472440945
0
LINE
8
BLACK
6
CONTINUOUS
10
1.0323622047244094
20
0.4236220472440945
11
1.0874803149606298
21
0.4236220472440945
0
LINE
8
BLACK
6
CONTINUOUS
10
1.0874803149606298
20
0.4236220472440945
11
1.0874803149606298
21
0.3763779527559055
0
LINE
8
BLACK
6
CONTINUOUS
10
1.4836220472440944
20
0.5323622047244094
11
1.4363779527559055
21
0.5323622047244094
0
LINE
8
BLACK
6
CONTINUOUS
10
1.4363779527559055
20
0.5323622047244094
11
1.4363779527559055
21
0.5874803149606299
0
LINE
8
BLACK
6
CONTINUOUS
10
1.4363779527559055
20
0.5874803149606299
11
1.4836220472440944
21
0.5874803149606299
0
LINE
8
BLACK
6
CONTINUOUS
10
1.4836220472440944
20
0.5874803149606299
11
1.4836220472440944
21
0.5323622047244094
0
LINE
8
BLACK
6
CONTINUOUS
10
0.3676377952755905
20
0.5406299212598425
11
0.3125196850393701
21
0.5406299212598425
0
LINE
8
BLACK
6
CONTINUOUS
10
0.3125196850393701
20
0.5406299212598425
11
0.3125196850393701
21
0.6193700787401575
0
LINE
8
BLACK
6
CONTINUOUS
10
0.3125196850393701
20
0.6193700787401575
11
0.3676377952755905
21
0.6193700787401575
0
LINE
8
BLACK
6
CONTINUOUS
10
0.3676377952755905
20
0.6193700787401575
11
0.3676377952755905
21
0.5406299212598425
0
LINE
8
BLACK
6
CONTINUOUS
10
0.6876377952755905
20
0.5406299212598425
11
0.6325196850393701
21
0.5406299212598425
0
LINE
8
BLACK
6
CONTINUOUS
10
0.6325196850393701
20
0.5406299212598425
11
0.6325196850393701
21
0.6193700787401575
0
LINE
8
BLACK
6
CONTINUOUS
10
0.6325196850393701
20
0.6193700787401575
11
0.6876377952755905
21
0.6193700787401575
0
LINE
8
BLACK
6
CONTINUOUS
10
0.6876377952755905
20
0.6193700787401575
11
0.6876377952755905
21
0.5406299212598425
0
LINE
8
BLACK
6
CONTINUOUS
10
1.0076377952755906
20
0.5406299212598425
11
0.95251968503937
21
0.5406299212598425
0
LINE
8
BLACK
6
CONTINUOUS
10
0.95251968503937
20
0.5406299212598425
11
0.95251968503937
21
0.6193700787401575
0
LINE
8
BLACK
6
CONTINUOUS
10
0.95251968503937
20
0.6193700787401575
11
1.0076377952755906
21
0.6193700787401575
0
LINE
8
BLACK
6
CONTINUOUS
10
1.0076377952755906
20
0.6193700787401575
11
1.0076377952755906
21
0.5406299212598425
0
LINE
8
BLACK
6
CONTINUOUS
10
1.3276377952755904
20
0.5406299212598425
11
1.2725196850393701
21
0.5406299212598425
0
LINE
8
BLACK
6
CONTINUOUS
10
1.2725196850393701
20
0.5406299212598425
11
1.2725196850393701
21
0.6193700787401575
0
LINE
8
BLACK
6
CONTINUOUS
10
1.2725196850393701
20
0.6193700787401575
11
1.3276377952755904
21
0.6193700787401575
0
LINE
8
BLACK
6
CONTINUOUS
10
1.3276377952755904
20
0.6193700787401575
11
1.3276377952755904
21
0.5406299212598425
0
LINE
8
BLACK
6
CONTINUOUS
10
0.1274803149606299
20
0.5563779527559055
11
0.0723622047244094
21
0.5563779527559055
0
LINE
8
BLACK
6
CONTINUOUS
10
0.0723622047244094
20
0.5563779527559055
11
0.0723622047244094
21
0.6036220472440945
0
LINE
8
BLACK
6
CONTINUOUS
10
0.0723622047244094
20
0.6036220472440945
11
0.1274803149606299
21
0.6036220472440945
0
LINE
8
BLACK
6
CONTINUOUS
10
0.1274803149606299
20
0.6036220472440945
11
0.1274803149606299
21
0.5563779527559055
0
LINE
8
BLACK
6
CONTINUOUS
10
0.4474803149606299
20
0.5563779527559055
11
0.3923622047244094
21
0.5563779527559055
0
LINE
8
BLACK
6
CONTINUOUS
10
0.3923622047244094
20
0.5563779527559055
11
0.3923622047244094
21
0.6036220472440945
0
LINE
8
BLACK
6
CONTINUOUS
10
0.3923622047244094
20
0.6036220472440945
11
0.4474803149606299
21
0.6036220472440945
0
LINE
8
BLACK
6
CONTINUOUS
10
0.4474803149606299
20
0.6036220472440945
11
0.4474803149606299
21
0.5563779527559055
0
LINE
8
BLACK
6
CONTINUOUS
10
0.7674803149606299
20
0.5563779527559055
11
0.7123622047244095
21
0.5563779527559055
0
LINE
8
BLACK
6
CONTINUOUS
10
0.7123622047244095
20
0.5563779527559055
11
0.7123622047244095
21
0.6036220472440945
0
LINE
8
BLACK
6
CONTINUOUS
10
0.7123622047244095
20
0.6036220472440945
11
0.7674803149606299
21
0.6036220472440945
0
LINE
8
BLACK
6
CONTINUOUS
10
0.7674803149606299
20
0.6036220472440945
11
0.7674803149606299
21
0.5563779527559055
0
LINE
8
BLACK
6
CONTINUOUS
10
1.0874803149606298
20
0.5563779527559055
11
1.0323622047244094
21
0.5563779527559055
0
LINE
8
BLACK
6
CONTINUOUS
10
1.0323622047244094
20
0.5563779527559055
11
1.0323622047244094
21
0.6036220472440945
0
LINE
8
BLACK
6
CONTINUOUS
10
1.0323622047244094
20
0.6036220472440945
11
1.0874803149606298
21
0.6036220472440945
0
LINE
8
BLACK
6
CONTINUOUS
10
1.0874803149606298
20
0.6036220472440945
11
1.0874803149606298
21
0.5563779527559055
0
LINE
8
BLACK
6
CONTINUOUS
10
0.3676377952755905
20
0.7206299212598425
11
0.3125196850393701
21
0.7206299212598425
0
LINE
8
BLACK
6
CONTINUOUS
10
0.3125196850393701
20
0.7206299212598425
11
0.3125196850393701
21
0.7993700787401574
0
LINE
8
BLACK
6
CONTINUOUS
10
0.3125196850393701
20
0.7993700787401574
11
0.3676377952755905
21
0.7993700787401574
0
LINE
8
BLACK
6
CONTINUOUS
10
0.3676377952755905
20
0.7993700787401574
11
0.3676377952755905
21
0.7206299212598425
0
LINE
8
BLACK
6
CONTINUOUS
10
0.6876377952755905
20
0.7206299212598425
11
0.6325196850393701
21
0.7206299212598425
0
LINE
8
BLACK
6
CONTINUOUS
10
0.6325196850393701
20
0.7206299212598425
11
0.6325196850393701
21
0.7993700787401574
0
LINE
8
BLACK
6
CONTINUOUS
10
0.6325196850393701
20
0.7993700787401574
11
0.6876377952755905
21
0.7993700787401574
0
LINE
8
BLACK
6
CONTINUOUS
10
0.6876377952755905
20
0.7993700787401574
11
0.6876377952755905
21
0.7206299212598425
0
LINE
8
BLACK
6
CONTINUOUS
10
1.0076377952755906
20
0.7206299212598425
11
0.95251968503937
21
0.7206299212598425
0
LINE
8
BLACK
6
CONTINUOUS
10
0.95251968503937
20
0.7206299212598425
11
0.95251968503937
21
0.7993700787401574
0
LINE
8
BLACK
6
CONTINUOUS
10
0.95251968503937
20
0.7993700787401574
11
1.0076377952755906
21
0.7993700787401574
0
LINE
8
BLACK
6
CONTINUOUS
10
1.0076377952755906
20
0.7993700787401574
11
1.0076377952755906
21
0.7206299212598425
0
LINE
8
BLACK
6
CONTINUOUS
10
1.3276377952755904
20
0.7206299212598425
11
1.2725196850393701
21
0.7206299212598425
0
LINE
8
BLACK
6
CONTINUOUS
10
1.2725196850393701
20
0.7206299212598425
11
1.2725196850393701
21
0.7993700787401574
0
LINE
8
BLACK
6
CONTINUOUS
10
1.2725196850393701
20
0.7993700787401574
11
1.3276377952755904
21
0.7993700787401574
0
LINE
8
BLACK
6
CONTINUOUS
10
1.3276377952755904
20
0.7993700787401574
11
1.3276377952755904
21
0.7206299212598425
0
LINE
8
BLACK
6
CONTINUOUS
10
0.1274803149606299
20
0.7363779527559055
11
0.0723622047244094
21
0.7363779527559055
0
LINE
8
BLACK
6
CONTINUOUS
10
0.0723622047244094
20
0.7363779527559055
11
0.0723622047244094
21
0.7836220472440945
0
LINE
8
BLACK
6
CONTINUOUS
10
0.0723622047244094
20
0.7836220472440945
11
0.1274803149606299
21
0.7836220472440945
0
LINE
8
BLACK
6
CONTINUOUS
10
0.1274803149606299
20
0.7836220472440945
11
0.1274803149606299
21
0.7363779527559055
0
LINE
8
BLACK
6
CONTINUOUS
10
0.4474803149606299
20
0.7363779527559055
11
0.3923622047244094
21
0.7363779527559055
0
LINE
8
BLACK
6
CONTINUOUS
10
0.3923622047244094
20
0.7363779527559055
11
0.3923622047244094
21
0.7836220472440945
0
LINE
8
BLACK
6
CONTINUOUS
10
0.3923622047244094
20
0.7836220472440945
11
0.4474803149606299
21
0.7836220472440945
0
LINE
8
BLACK
6
CONTINUOUS
10
0.4474803149606299
20
0.7836220472440945
11
0.4474803149606299
21
0.7363779527559055
0
LINE
8
BLACK
6
CONTINUOUS
10
0.7674803149606299
20
0.7363779527559055
11
0.7123622047244095
21
0.7363779527559055
0
LINE
8
BLACK
6
CONTINUOUS
10
0.7123622047244095
20
0.7363779527559055
11
0.7123622047244095
21
0.7836220472440945
0
LINE
8
BLACK
6
CONTINUOUS
10
0.7123622047244095
20
0.7836220472440945
11
0.7674803149606299
21
0.7836220472440945
0
LINE
8
BLACK
6
CONTINUOUS
10
0.7674803149606299
20
0.7836220472440945
11
0.7674803149606299
21
0.7363779527559055
0
LINE
8
BLACK
6
CONTINUOUS
10
1.0874803149606298
20
0.7363779527559055
11
1.0323622047244094
21
0.7363779527559055
0
LINE
8
BLACK
6
CONTINUOUS
10
1.0323622047244094
20
0.7363779527559055
11
1.0323622047244094
21
0.7836220472440945
0
LINE
8
BLACK
6
CONTINUOUS
10
1.0323622047244094
20
0.7836220472440945
11
1.0874803149606298
21
0.7836220472440945
0
LINE
8
BLACK
6
CONTINUOUS
10
1.0874803149606298
20
0.7836220472440945
11
1.0874803149606298
21
0.7363779527559055
0
LINE
8
BLACK
6
CONTINUOUS
10
1.4993700787401574
20
0.7725196850393701
11
1.4206299212598426
21
0.7725196850393701
0
LINE
8
BLACK
6
CONTINUOUS
10
1.4206299212598426
20
0.7725196850393701
11
1.4206299212598426
21
0.8276377952755906
0
LINE
8
BLACK
6
CONTINUOUS
10
1.4206299212598426
20
0.8276377952755906
11
1.4993700787401574
21
0.8276377952755906
0
LINE
8
BLACK
6
CONTINUOUS
10
1.4993700787401574
20
0.8276377952755906
11
1.4993700787401574
21
0.7725196850393701
0
LINE
8
BLACK
6
CONTINUOUS
10
1.4836220472440944
20
0.8923622047244094
11
1.4363779527559055
21
0.8923622047244094
0
LINE
8
BLACK
6
CONTINUOUS
10
1.4363779527559055
20
0.8923622047244094
11
1.4363779527559055
21
0.9474803149606299
0
LINE
8
BLACK
6
CONTINUOUS
10
1.4363779527559055
20
0.9474803149606299
11
1.4836220472440944
21
0.9474803149606299
0
LINE
8
BLACK
6
CONTINUOUS
10
1.4836220472440944
20
0.9474803149606299
11
1.4836220472440944
21
0.8923622047244094
0
LINE
8
BLACK
6
CONTINUOUS
10
0.3676377952755905
20
0.9006299212598425
11
0.3125196850393701
21
0.9006299212598425
0
LINE
8
BLACK
6
CONTINUOUS
10
0.3125196850393701
20
0.9006299212598425
11
0.3125196850393701
21
0.9793700787401575
0
LINE
8
BLACK
6
CONTINUOUS
10
0.3125196850393701
20
0.9793700787401575
11
0.3676377952755905
21
0.9793700787401575
0
LINE
8
BLACK
6
CONTINUOUS
10
0.3676377952755905
20
0.9793700787401575
11
0.3676377952755905
21
0.9006299212598425
0
LINE
8
BLACK
6
CONTINUOUS
10
0.6876377952755905
20
0.9006299212598425
11
0.6325196850393701
21
0.9006299212598425
0
LINE
8
BLACK
6
CONTINUOUS
10
0.6325196850393701
20
0.9006299212598425
11
0.6325196850393701
21
0.9793700787401575
0
LINE
8
BLACK
6
CONTINUOUS
10
0.6325196850393701
20
0.9793700787401575
11
0.6876377952755905
21
0.9793700787401575
0
LINE
8
BLACK
6
CONTINUOUS
10
0.6876377952755905
20
0.9793700787401575
11
0.6876377952755905
21
0.9006299212598425
0
LINE
8
BLACK
6
CONTINUOUS
10
1.0076377952755906
20
0.9006299212598425
11
0.95251968503937
21
0.9006299212598425
0
LINE
8
BLACK
6
CONTINUOUS
10
0.95251968503937
20
0.9006299212598425
11
0.95251968503937
21
0.9793700787401575
0
LINE
8
BLACK
6
CONTINUOUS
10
0.95251968503937
20
0.9793700787401575
11
1.0076377952755906
21
0.9793700787401575
0
LINE
8
BLACK
6
CONTINUOUS
10
1.0076377952755906
20
0.9793700787401575
11
1.0076377952755906
21
0.9006299212598425
0
LINE
8
BLACK
6
CONTINUOUS
10
1.3276377952755904
20
0.9006299212598425
11
1.2725196850393701
21
0.9006299212598425
0
LINE
8
BLACK
6
CONTINUOUS
10
1.2725196850393701
20
0.9006299212598425
11
1.2725196850393701
21
0.9793700787401575
0
LINE
8
BLACK
6
CONTINUOUS
10
1.2725196850393701
20
0.9793700787401575
11
1.3276377952755904
21
0.9793700787401575
0
LINE
8
BLACK
6
CONTINUOUS
10
1.3276377952755904
20
0.9793700787401575
11
1.3276377952755904
21
0.9006299212598425
0
LINE
8
BLACK
6
CONTINUOUS
10
0.1274803149606299
20
0.9163779527559055
11
0.0723622047244094
21
0.9163779527559055
0
LINE
8
BLACK
6
CONTINUOUS
10
0.0723622047244094
20
0.9163779527559055
11
0.0723622047244094
21
0.9636220472440945
0
LINE
8
BLACK
6
CONTINUOUS
10
0.0723622047244094
20
0.9636220472440945
11
0.1274803149606299
21
0.9636220472440945
0
LINE
8
BLACK
6
CONTINUOUS
10
0.1274803149606299
20
0.9636220472440945
11
0.1274803149606299
21
0.9163779527559055
0
LINE
8
BLACK
6
CONTINUOUS
10
0.4474803149606299
20
0.9163779527559055
11
0.3923622047244094
21
0.9163779527559055
0
LINE
8
BLACK
6
CONTINUOUS
10
0.3923622047244094
20
0.9163779527559055
11
0.3923622047244094
21
0.9636220472440945
0
LINE
8
BLACK
6
CONTINUOUS
10
0.3923622047244094
20
0.9636220472440945
11
0.4474803149606299
21
0.9636220472440945
0
LINE
8
BLACK
6
CONTINUOUS
10
0.4474803149606299
20
0.9636220472440945
11
0.4474803149606299
21
0.9163779527559055
0
LINE
8
BLACK
6
CONTINUOUS
10
0.7674803149606299
20
0.9163779527559055
11
0.7123622047244095
21
0.9163779527559055
0
LINE
8
BLACK
6
CONTINUOUS
10
0.7123622047244095
20
0.9163779527559055
11
0.7123622047244095
21
0.9636220472440945
0
LINE
8
BLACK
6
CONTINUOUS
10
0.7123622047244095
20
0.9636220472440945
11
0.7674803149606299
21
0.9636220472440945
0
LINE
8
BLACK
6
CONTINUOUS
10
0.7674803149606299
20
0.9636220472440945
11
0.7674803149606299
21
0.9163779527559055
0
LINE
8
BLACK
6
CONTINUOUS
10
1.0874803149606298
20
0.9163779527559055
11
1.0323622047244094
21
0.9163779527559055
0
LINE
8
BLACK
6
CONTINUOUS
10
1.0323622047244094
20
0.9163779527559055
11
1.0323622047244094
21
0.9636220472440945
0
LINE
8
BLACK
6
CONTINUOUS
10
1.0323622047244094
20
0.9636220472440945
11
1.0874803149606298
21
0.9636220472440945
0
LINE
8
BLACK
6
CONTINUOUS
10
1.0874803149606298
20
0.9636220472440945
11
1.0874803149606298
21
0.9163779527559055
0
LINE
8
BLACK
6
CONTINUOUS
10
0.3676377952755905
20
1.0806299212598425
11
0.3125196850393701
21
1.0806299212598425
0
LINE
8
BLACK
6
CONTINUOUS
10
0.3125196850393701
20
1.0806299212598425
11
0.3125196850393701
21
1.1593700787401575
0
LINE
8
BLACK
6
CONTINUOUS
10
0.3125196850393701
20
1.1593700787401575
11
0.3676377952755905
21
1.1593700787401575
0
LINE
8
BLACK
6
CONTINUOUS
10
0.3676377952755905
20
1.1593700787401575
11
0.3676377952755905
21
1.0806299212598425
0
LINE
8
BLACK
6
CONTINUOUS
10
0.6876377952755905
20
1.0806299212598425
11
0.6325196850393701
21
1.0806299212598425
0
LINE
8
BLACK
6
CONTINUOUS
10
0.6325196850393701
20
1.0806299212598425
11
0.6325196850393701
21
1.1593700787401575
0
LINE
8
BLACK
6
CONTINUOUS
10
0.6325196850393701
20
1.1593700787401575
11
0.6876377952755905
21
1.1593700787401575
0
LINE
8
BLACK
6
CONTINUOUS
10
0.6876377952755905
20
1.1593700787401575
11
0.6876377952755905
21
1.0806299212598425
0
LINE
8
BLACK
6
CONTINUOUS
10
1.0076377952755906
20
1.0806299212598425
11
0.95251968503937
21
1.0806299212598425
0
LINE
8
BLACK
6
CONTINUOUS
10
0.95251968503937
20
1.0806299212598425
11
0.95251968503937
21
1.1593700787401575
0
LINE
8
BLACK
6
CONTINUOUS
10
0.95251968503937
20
1.1593700787401575
11
1.0076377952755906
21
1.1593700787401575
0
LINE
8
BLACK
6
CONTINUOUS
10
1.0076377952755906
20
1.1593700787401575
11
1.0076377952755906
21
1.0806299212598425
0
LINE
8
BLACK
6
CONTINUOUS
10
1.3276377952755904
20
1.0806299212598425
11
1.2725196850393701
21
1.0806299212598425
0
LINE
8
BLACK
6
CONTINUOUS
10
1.2725196850393701
20
1.0806299212598425
11
1.2725196850393701
21
1.1593700787401575
0
LINE
8
BLACK
6
CONTINUOUS
10
1.2725196850393701
20
1.1593700787401575
11
1.3276377952755904
21
1.1593700787401575
0
LINE
8
BLACK
6
CONTINUOUS
10
1.3276377952755904
20
1.1593700787401575
11
1.3276377952755904
21
1.0806299212598425
0
LINE
8
BLACK
6
CONTINUOUS
10
0.1274803149606299
20
1.0963779527559054
11
0.0723622047244094
21
1.0963779527559054
0
LINE
8
BLACK
6
CONTINUOUS
10
0.0723622047244094
20
1.0963779527559054
11
0.0723622047244094
21
1.1436220472440946
0
LINE
8
BLACK
6
CONTINUOUS
10
0.0723622047244094
20
1.1436220472440946
11
0.1274803149606299
21
1.1436220472440946
0
LINE
8
BLACK
6
CONTINUOUS
10
0.1274803149606299
20
1.1436220472440946
11
0.1274803149606299
21
1.0963779527559054
0
LINE
8
BLACK
6
CONTINUOUS
10
0.4474803149606299
20
1.0963779527559054
11
0.3923622047244094
21
1.0963779527559054
0
LINE
8
BLACK
6
CONTINUOUS
10
0.3923622047244094
20
1.0963779527559054
11
0.3923622047244094
21
1.1436220472440946
0
LINE
8
BLACK
6
CONTINUOUS
10
0.3923622047244094
20
1.1436220472440946
11
0.4474803149606299
21
1.1436220472440946
0
LINE
8
BLACK
6
CONTINUOUS
10
0.4474803149606299
20
1.1436220472440946
11
0.4474803149606299
21
1.0963779527559054
0
LINE
8
BLACK
6
CONTINUOUS
10
0.7674803149606299
20
1.0963779527559054
11
0.7123622047244095
21
1.0963779527559054
0
LINE
8
BLACK
6
CONTINUOUS
10
0.7123622047244095
20
1.0963779527559054
11
0.7123622047244095
21
1.1436220472440946
0
LINE
8
BLACK
6
CONTINUOUS
10
0.7123622047244095
20
1.1436220472440946
11
0.7674803149606299
21
1.1436220472440946
0
LINE
8
BLACK
6
CONTINUOUS
10
0.7674803149606299
20
1.1436220472440946
11
0.7674803149606299
21
1.0963779527559054
0
LINE
8
BLACK
6
CONTINUOUS
10
1.0874803149606298
20
1.0963779527559054
11
1.0323622047244094
21
1.0963779527559054
0
LINE
8
BLACK
6
CONTINUOUS
10
1.0323622047244094
20
1.0963779527559054
11
1.0323622047244094
21
1.1436220472440946
0
LINE
8
BLACK
6
CONTINUOUS
10
1.0323622047244094
20
1.1436220472440946
11
1.0874803149606298
21
1.1436220472440946
0
LINE
8
BLACK
6
CONTINUOUS
10
1.0874803149606298
20
1.1436220472440946
11
1.0874803149606298
21
1.0963779527559054
0
LINE
8
BLACK
6
CONTINUOUS
10
1.4993700787401574
20
1.1325196850393699
11
1.4206299212598426
21
1.1325196850393699
0
LINE
8
BLACK
6
CONTINUOUS
10
1.4206299212598426
20
1.1325196850393699
11
1.4206299212598426
21
1.1876377952755905
0
LINE
8
BLACK
6
CONTINUOUS
10
1.4206299212598426
20
1.1876377952755905
11
1.4993700787401574
21
1.1876377952755905
0
LINE
8
BLACK
6
CONTINUOUS
10
1.4993700787401574
20
1.1876377952755905
11
1.4993700787401574
21
1.1325196850393699
0
LINE
8
BLACK
6
CONTINUOUS
10
0.5036220472440944
20
1.2323622047244094
11
0.4563779527559055
21
1.2323622047244094
0
LINE
8
BLACK
6
CONTINUOUS
10
0.4563779527559055
20
1.2323622047244094
11
0.4563779527559055
21
1.28748031496063
0
LINE
8
BLACK
6
CONTINUOUS
10
0.4563779527559055
20
1.28748031496063
11
0.5036220472440944
21
1.28748031496063
0
LINE
8
BLACK
6
CONTINUOUS
10
0.5036220472440944
20
1.28748031496063
11
0.5036220472440944
21
1.2323622047244094
0
LINE
8
BLACK
6
CONTINUOUS
10
0.7036220472440945
20
1.2323622047244094
11
0.6563779527559055
21
1.2323622047244094
0
LINE
8
BLACK
6
CONTINUOUS
10
0.6563779527559055
20
1.2323622047244094
11
0.6563779527559055
21
1.28748031496063
0
LINE
8
BLACK
6
CONTINUOUS
10
0.6563779527559055
20
1.28748031496063
11
0.7036220472440945
21
1.28748031496063
0
LINE
8
BLACK
6
CONTINUOUS
10
0.7036220472440945
20
1.28748031496063
11
0.7036220472440945
21
1.2323622047244094
0
LINE
8
BLACK
6
CONTINUOUS
10
0.9036220472440945
20
1.2323622047244094
11
0.8563779527559054
21
1.2323622047244094
0
LINE
8
BLACK
6
CONTINUOUS
10
0.8563779527559054
20
1.2323622047244094
11
0.8563779527559054
21
1.28748031496063
0
LINE
8
BLACK
6
CONTINUOUS
10
0.8563779527559054
20
1.28748031496063
11
0.9036220472440945
21
1.28748031496063
0
LINE
8
BLACK
6
CONTINUOUS
10
0.9036220472440945
20
1.28748031496063
11
0.9036220472440945
21
1.2323622047244094
0
LINE
8
BLACK
6
CONTINUOUS
10
1.1036220472440945
20
1.2323622047244094
11
1.0563779527559054
21
1.2323622047244094
0
LINE
8
BLACK
6
CONTINUOUS
10
1.0563779527559054
20
1.2323622047244094
11
1.0563779527559054
21
1.28748031496063
0
LINE
8
BLACK
6
CONTINUOUS
10
1.0563779527559054
20
1.28748031496063
11
1.1036220472440945
21
1.28748031496063
0
LINE
8
BLACK
6
CONTINUOUS
10
1.1036220472440945
20
1.28748031496063
11
1.1036220472440945
21
1.2323622047244094
0
LINE
8
BLACK
6
CONTINUOUS
10
0.5193700787401575
20
1.47251968503937
11
0.4406299212598425
21
1.47251968503937
0
LINE
8
BLACK
6
CONTINUOUS
10
0.4406299212598425
20
1.47251968503937
11
0.4406299212598425
21
1.5276377952755906
0
LINE
8
BLACK
6
CONTINUOUS
10
0.4406299212598425
20
1.5276377952755906
11
0.5193700787401575
21
1.5276377952755906
0
LINE
8
BLACK
6
CONTINUOUS
10
0.5193700787401575
20
1.5276377952755906
11
0.5193700787401575
21
1.47251968503937
0
LINE
8
BLACK
6
CONTINUOUS
10
0.7193700787401575
20
1.47251968503937
11
0.6406299212598425
21
1.47251968503937
0
LINE
8
BLACK
6
CONTINUOUS
10
0.6406299212598425
20
1.47251968503937
11
0.6406299212598425
21
1.5276377952755906
0
LINE
8
BLACK
6
CONTINUOUS
10
0.6406299212598425
20
1.5276377952755906
11
0.7193700787401575
21
1.5276377952755906
0
LINE
8
BLACK
6
CONTINUOUS
10
0.7193700787401575
20
1.5276377952755906
11
0.7193700787401575
21
1.47251968503937
0
LINE
8
BLACK
6
CONTINUOUS
10
0.9193700787401574
20
1.47251968503937
11
0.8406299212598425
21
1.47251968503937
0
LINE
8
BLACK
6
CONTINUOUS
10
0.8406299212598425
20
1.47251968503937
11
0.8406299212598425
21
1.5276377952755906
0
LINE
8
BLACK
6
CONTINUOUS
10
0.8406299212598425
20
1.5276377952755906
11
0.9193700787401574
21
1.5276377952755906
0
LINE
8
BLACK
6
CONTINUOUS
10
0.9193700787401574
20
1.5276377952755906
11
0.9193700787401574
21
1.47251968503937
0
LINE
8
BLACK
6
CONTINUOUS
10
1.1193700787401575
20
1.47251968503937
11
1.0406299212598424
21
1.47251968503937
0
LINE
8
BLACK
6
CONTINUOUS
10
1.0406299212598424
20
1.47251968503937
11
1.0406299212598424
21
1.5276377952755906
0
LINE
8
BLACK
6
CONTINUOUS
10
1.0406299212598424
20
1.5276377952755906
11
1.1193700787401575
21
1.5276377952755906
0
LINE
8
BLACK
6
CONTINUOUS
10
1.1193700787401575
20
1.5276377952755906
11
1.1193700787401575
21
1.47251968503937
  0
ENDSEC
  0
EOF
