%TF.GenerationSoftware,KiCad,Pcbnew,7.0.11+1*%
%TF.CreationDate,2024-07-04T22:31:09+00:00*%
%TF.ProjectId,PIND01,50494e44-3031-42e6-9b69-6361645f7063,rev?*%
%TF.SameCoordinates,Original*%
%TF.FileFunction,Copper,L1,Top*%
%TF.FilePolarity,Positive*%
%FSLAX46Y46*%
G04 Gerber Fmt 4.6, Leading zero omitted, Abs format (unit mm)*
G04 Created by KiCad (PCBNEW 7.0.11+1) date 2024-07-04 22:31:09*
%MOMM*%
%LPD*%
G01*
G04 APERTURE LIST*
%TA.AperFunction,ComponentPad*%
%ADD10R,1.524000X1.524000*%
%TD*%
%TA.AperFunction,ComponentPad*%
%ADD11C,6.000000*%
%TD*%
%TA.AperFunction,ViaPad*%
%ADD12C,0.800000*%
%TD*%
%TA.AperFunction,Conductor*%
%ADD13C,1.200000*%
%TD*%
G04 APERTURE END LIST*
D10*
%TO.P,J1,1*%
%TO.N,/A*%
X21336000Y3302000D03*
%TO.P,J1,2*%
X21336000Y5842000D03*
%TD*%
%TO.P,J2,1*%
%TO.N,/K*%
X23876000Y3302000D03*
%TO.P,J2,2*%
X23876000Y5842000D03*
%TD*%
%TO.P,J3,1*%
%TO.N,GNDA*%
X26416000Y3302000D03*
%TO.P,J3,2*%
X26416000Y5842000D03*
%TD*%
%TO.P,J4,1*%
%TO.N,GND*%
X28956000Y3302000D03*
%TO.P,J4,2*%
X28956000Y5842000D03*
%TD*%
D11*
%TO.P,M1,1*%
%TO.N,GND*%
X35560000Y5080000D03*
%TD*%
%TO.P,M2,1*%
%TO.N,GND*%
X5080000Y35560000D03*
%TD*%
%TO.P,M3,1*%
%TO.N,GND*%
X5080000Y5080000D03*
%TD*%
%TO.P,M4,1*%
%TO.N,GND*%
X35560000Y35560000D03*
%TD*%
D12*
%TO.N,/K*%
X16766000Y8636000D03*
X30988000Y10160000D03*
X8636000Y12192000D03*
%TO.N,/A*%
X35560000Y14732000D03*
X28448000Y14732000D03*
X20828000Y14732000D03*
X35560000Y23368000D03*
%TO.N,GNDA*%
X13716000Y14732000D03*
X29972000Y18796000D03*
X29972000Y23876000D03*
X21844000Y23876000D03*
X24384000Y34544000D03*
X13716000Y5588000D03*
X8636000Y8636000D03*
X12192000Y6096000D03*
X21844000Y19304000D03*
X26416000Y7804000D03*
X5588000Y14732000D03*
X5588000Y19304000D03*
X36068000Y11176000D03*
X37084000Y16764000D03*
X5588000Y28448000D03*
X19812000Y34544000D03*
X13716000Y23876000D03*
X36576000Y26416000D03*
X14732000Y34544000D03*
X28956000Y8636000D03*
X21844000Y28448000D03*
X29972000Y28448000D03*
X29972000Y34544000D03*
X13716000Y28448000D03*
X29972000Y12700000D03*
X13716000Y19304000D03*
X5588000Y23876000D03*
%TD*%
D13*
%TO.N,/K*%
X26232000Y10160000D02*
X23876000Y7804000D01*
X23044000Y8636000D02*
X23876000Y7804000D01*
X12192000Y8636000D02*
X23044000Y8636000D01*
X8636000Y12192000D02*
X12192000Y8636000D01*
X23876000Y7804000D02*
X23876000Y5842000D01*
X16766000Y8636000D02*
X12192000Y8636000D01*
X30988000Y10160000D02*
X26232000Y10160000D01*
%TO.N,/A*%
X35560000Y23368000D02*
X35560000Y14732000D01*
X28448000Y14732000D02*
X35560000Y14732000D01*
X28448000Y14732000D02*
X20828000Y14732000D01*
%TO.N,GNDA*%
X13716000Y4064000D02*
X13716000Y5588000D01*
X29972000Y18796000D02*
X29972000Y23876000D01*
X26416000Y1524000D02*
X16256000Y1524000D01*
X5588000Y11684000D02*
X5588000Y14732000D01*
X21844000Y23876000D02*
X21844000Y28448000D01*
X37084000Y25908000D02*
X37084000Y16764000D01*
X17272000Y14732000D02*
X21844000Y19304000D01*
X29972000Y12700000D02*
X34544000Y12700000D01*
X8636000Y8636000D02*
X5588000Y11684000D01*
X26416000Y7804000D02*
X28124000Y7804000D01*
X28124000Y7804000D02*
X28956000Y8636000D01*
X34544000Y28448000D02*
X36576000Y26416000D01*
X26416000Y3302000D02*
X26416000Y2877998D01*
X36576000Y26416000D02*
X37084000Y25908000D01*
X26416000Y5842000D02*
X26416000Y7804000D01*
X34544000Y12700000D02*
X36068000Y11176000D01*
X29972000Y28448000D02*
X29972000Y34544000D01*
X26416000Y2877998D02*
X26416000Y1524000D01*
X13716000Y14732000D02*
X17272000Y14732000D01*
X11176000Y6096000D02*
X8636000Y8636000D01*
X16256000Y1524000D02*
X13716000Y4064000D01*
X29972000Y28448000D02*
X34544000Y28448000D01*
X24384000Y34544000D02*
X19812000Y34544000D01*
X13716000Y23876000D02*
X13716000Y19304000D01*
X12192000Y6096000D02*
X11176000Y6096000D01*
X5588000Y28448000D02*
X13716000Y28448000D01*
X5588000Y19304000D02*
X5588000Y23876000D01*
%TD*%
%TA.AperFunction,Conductor*%
%TO.N,GNDA*%
G36*
X40252621Y40290498D02*
G01*
X40299114Y40236842D01*
X40310500Y40184500D01*
X40310500Y455500D01*
X40290498Y387379D01*
X40236842Y340886D01*
X40184500Y329500D01*
X455500Y329500D01*
X387379Y349502D01*
X340886Y403158D01*
X329500Y455500D01*
X329500Y5079996D01*
X1074675Y5079996D01*
X1093962Y4687412D01*
X1093963Y4687398D01*
X1124297Y4482904D01*
X1151636Y4298600D01*
X1183046Y4173204D01*
X1247144Y3917310D01*
X1379561Y3547230D01*
X1547621Y3191899D01*
X1749696Y2854756D01*
X1983834Y2539057D01*
X2247808Y2247808D01*
X2539057Y1983834D01*
X2854756Y1749696D01*
X3191899Y1547621D01*
X3547230Y1379561D01*
X3917310Y1247144D01*
X4107958Y1199389D01*
X4298600Y1151636D01*
X4298604Y1151635D01*
X4298606Y1151635D01*
X4687398Y1093963D01*
X4687406Y1093962D01*
X4687409Y1093962D01*
X4855662Y1085696D01*
X5079996Y1074675D01*
X5080000Y1074675D01*
X5080004Y1074675D01*
X5276295Y1084318D01*
X5472591Y1093962D01*
X5472594Y1093962D01*
X5472601Y1093963D01*
X5861393Y1151635D01*
X5861400Y1151636D01*
X6146995Y1223174D01*
X6242689Y1247144D01*
X6612769Y1379561D01*
X6612772Y1379562D01*
X6968097Y1547619D01*
X7081649Y1615680D01*
X7305243Y1749696D01*
X7620942Y1983834D01*
X7737098Y2089112D01*
X7912192Y2247808D01*
X8176158Y2539049D01*
X8176159Y2539050D01*
X8176165Y2539057D01*
X8410303Y2854756D01*
X8410306Y2854761D01*
X8612381Y3191903D01*
X8780438Y3547228D01*
X8912857Y3917316D01*
X9008364Y4298600D01*
X9066038Y4687409D01*
X9085325Y5080000D01*
X9066038Y5472591D01*
X9008364Y5861400D01*
X8912857Y6242684D01*
X8780438Y6612772D01*
X8612381Y6968097D01*
X8410306Y7305239D01*
X8272837Y7490595D01*
X8176165Y7620942D01*
X8176163Y7620943D01*
X8176158Y7620951D01*
X7912192Y7912192D01*
X7620951Y8176158D01*
X7305239Y8410306D01*
X6968097Y8612381D01*
X6612772Y8780438D01*
X6242684Y8912857D01*
X5861400Y9008364D01*
X5472591Y9066038D01*
X5135384Y9082604D01*
X5080004Y9085325D01*
X5079996Y9085325D01*
X5022590Y9082504D01*
X4687409Y9066038D01*
X4298600Y9008364D01*
X3917316Y8912857D01*
X3547228Y8780438D01*
X3191903Y8612381D01*
X2854761Y8410306D01*
X2854756Y8410303D01*
X2539057Y8176165D01*
X2539050Y8176159D01*
X2539049Y8176158D01*
X2247808Y7912192D01*
X1995881Y7634234D01*
X1983834Y7620942D01*
X1749696Y7305243D01*
X1634171Y7112500D01*
X1547619Y6968097D01*
X1379562Y6612772D01*
X1379561Y6612769D01*
X1247144Y6242689D01*
X1247143Y6242684D01*
X1151636Y5861400D01*
X1151635Y5861393D01*
X1093963Y5472601D01*
X1093962Y5472587D01*
X1074675Y5080003D01*
X1074675Y5079996D01*
X329500Y5079996D01*
X329500Y12271440D01*
X7525294Y12271440D01*
X7529989Y12074230D01*
X7530333Y12059801D01*
X7557333Y11935685D01*
X7575333Y11852939D01*
X7658669Y11658332D01*
X7777328Y11483015D01*
X11335290Y7925052D01*
X11348822Y7909057D01*
X11350433Y7906795D01*
X11350442Y7906784D01*
X11416414Y7843878D01*
X11418554Y7841788D01*
X11445505Y7814838D01*
X11452239Y7809277D01*
X11458948Y7803321D01*
X11503653Y7760697D01*
X11503654Y7760696D01*
X11530834Y7743228D01*
X11542929Y7734396D01*
X11567846Y7713823D01*
X11567852Y7713820D01*
X11622059Y7684220D01*
X11629791Y7679632D01*
X11681744Y7646244D01*
X11711743Y7634234D01*
X11725290Y7627851D01*
X11753651Y7612366D01*
X11753653Y7612365D01*
X11812472Y7593562D01*
X11820931Y7590521D01*
X11878279Y7567564D01*
X11910015Y7561447D01*
X11924529Y7557742D01*
X11955294Y7547908D01*
X11955296Y7547907D01*
X11955299Y7547907D01*
X11990343Y7543716D01*
X12016614Y7540575D01*
X12025496Y7539189D01*
X12086149Y7527500D01*
X12086151Y7527500D01*
X12118468Y7527500D01*
X12133425Y7526609D01*
X12165500Y7522774D01*
X12227095Y7527179D01*
X12236083Y7527500D01*
X16818803Y7527500D01*
X22532655Y7527500D01*
X22600776Y7507498D01*
X22621750Y7490595D01*
X22730595Y7381750D01*
X22764621Y7319438D01*
X22767500Y7292655D01*
X22767500Y7031588D01*
X22747498Y6963467D01*
X22742368Y6956079D01*
X22706868Y6908657D01*
X22650032Y6866110D01*
X22579216Y6861046D01*
X22516904Y6895071D01*
X22505132Y6908657D01*
X22461261Y6967261D01*
X22344207Y7054887D01*
X22344206Y7054887D01*
X22344204Y7054889D01*
X22207201Y7105989D01*
X22207199Y7105989D01*
X22207196Y7105990D01*
X22146649Y7112499D01*
X22146645Y7112499D01*
X22146638Y7112500D01*
X20525362Y7112500D01*
X20525355Y7112499D01*
X20525350Y7112499D01*
X20464803Y7105990D01*
X20464795Y7105988D01*
X20386875Y7076924D01*
X20327796Y7054889D01*
X20327794Y7054888D01*
X20327792Y7054887D01*
X20210738Y6967261D01*
X20123112Y6850207D01*
X20123110Y6850202D01*
X20072011Y6713204D01*
X20072009Y6713196D01*
X20065500Y6652649D01*
X20065500Y5031350D01*
X20072009Y4970803D01*
X20072011Y4970795D01*
X20123110Y4833797D01*
X20123112Y4833792D01*
X20210739Y4716738D01*
X20269343Y4672867D01*
X20311889Y4616031D01*
X20316953Y4545216D01*
X20282928Y4482904D01*
X20269343Y4471133D01*
X20210739Y4427261D01*
X20123112Y4310207D01*
X20123110Y4310202D01*
X20072011Y4173204D01*
X20072009Y4173196D01*
X20065500Y4112649D01*
X20065500Y2491350D01*
X20072009Y2430803D01*
X20072011Y2430795D01*
X20123110Y2293797D01*
X20123112Y2293792D01*
X20210738Y2176738D01*
X20327792Y2089112D01*
X20327797Y2089110D01*
X20464795Y2038011D01*
X20464803Y2038009D01*
X20525350Y2031500D01*
X20525362Y2031500D01*
X22146649Y2031500D01*
X22207196Y2038009D01*
X22207204Y2038011D01*
X22344202Y2089110D01*
X22344207Y2089112D01*
X22461261Y2176739D01*
X22505133Y2235343D01*
X22561969Y2277889D01*
X22632784Y2282953D01*
X22695096Y2248928D01*
X22706867Y2235343D01*
X22750738Y2176739D01*
X22867792Y2089112D01*
X22867797Y2089110D01*
X23004795Y2038011D01*
X23004803Y2038009D01*
X23065350Y2031500D01*
X23065362Y2031500D01*
X24686649Y2031500D01*
X24747196Y2038009D01*
X24747204Y2038011D01*
X24884202Y2089110D01*
X24884207Y2089112D01*
X25001261Y2176738D01*
X25088887Y2293792D01*
X25088889Y2293797D01*
X25139988Y2430795D01*
X25139990Y2430803D01*
X25146499Y2491350D01*
X27685500Y2491350D01*
X27692009Y2430803D01*
X27692011Y2430795D01*
X27743110Y2293797D01*
X27743112Y2293792D01*
X27830738Y2176738D01*
X27947792Y2089112D01*
X27947797Y2089110D01*
X28084795Y2038011D01*
X28084803Y2038009D01*
X28145350Y2031500D01*
X28145362Y2031500D01*
X29766649Y2031500D01*
X29827196Y2038009D01*
X29827204Y2038011D01*
X29964202Y2089110D01*
X29964207Y2089112D01*
X30081261Y2176738D01*
X30168887Y2293792D01*
X30168889Y2293797D01*
X30219988Y2430795D01*
X30219990Y2430803D01*
X30226499Y2491350D01*
X30226500Y2491367D01*
X30226500Y4112632D01*
X30226499Y4112649D01*
X30219990Y4173196D01*
X30219988Y4173204D01*
X30212960Y4192045D01*
X30168889Y4310204D01*
X30081261Y4427261D01*
X30022657Y4471132D01*
X29980110Y4527968D01*
X29975046Y4598784D01*
X30009071Y4661096D01*
X30022657Y4672868D01*
X30081261Y4716738D01*
X30168887Y4833792D01*
X30168889Y4833797D01*
X30219988Y4970795D01*
X30219990Y4970803D01*
X30226499Y5031350D01*
X30226500Y5031367D01*
X30226500Y5079996D01*
X31554675Y5079996D01*
X31573962Y4687412D01*
X31573963Y4687398D01*
X31604297Y4482904D01*
X31631636Y4298600D01*
X31663046Y4173204D01*
X31727144Y3917310D01*
X31859561Y3547230D01*
X32027621Y3191899D01*
X32229696Y2854756D01*
X32463834Y2539057D01*
X32727808Y2247808D01*
X33019057Y1983834D01*
X33334756Y1749696D01*
X33671899Y1547621D01*
X34027230Y1379561D01*
X34397310Y1247144D01*
X34587958Y1199389D01*
X34778600Y1151636D01*
X34778604Y1151635D01*
X34778606Y1151635D01*
X35167398Y1093963D01*
X35167406Y1093962D01*
X35167409Y1093962D01*
X35335662Y1085696D01*
X35559996Y1074675D01*
X35560000Y1074675D01*
X35560004Y1074675D01*
X35756295Y1084318D01*
X35952591Y1093962D01*
X35952594Y1093962D01*
X35952601Y1093963D01*
X36341393Y1151635D01*
X36341400Y1151636D01*
X36626995Y1223174D01*
X36722689Y1247144D01*
X37092769Y1379561D01*
X37092772Y1379562D01*
X37448097Y1547619D01*
X37561649Y1615680D01*
X37785243Y1749696D01*
X38100942Y1983834D01*
X38217098Y2089112D01*
X38392192Y2247808D01*
X38656158Y2539049D01*
X38656159Y2539050D01*
X38656165Y2539057D01*
X38890303Y2854756D01*
X38890306Y2854761D01*
X39092381Y3191903D01*
X39260438Y3547228D01*
X39392857Y3917316D01*
X39488364Y4298600D01*
X39546038Y4687409D01*
X39565325Y5080000D01*
X39546038Y5472591D01*
X39488364Y5861400D01*
X39392857Y6242684D01*
X39260438Y6612772D01*
X39092381Y6968097D01*
X38890306Y7305239D01*
X38752837Y7490595D01*
X38656165Y7620942D01*
X38656163Y7620943D01*
X38656158Y7620951D01*
X38392192Y7912192D01*
X38100951Y8176158D01*
X37785239Y8410306D01*
X37448097Y8612381D01*
X37092772Y8780438D01*
X36722684Y8912857D01*
X36341400Y9008364D01*
X35952591Y9066038D01*
X35615384Y9082604D01*
X35560004Y9085325D01*
X35559996Y9085325D01*
X35502590Y9082504D01*
X35167409Y9066038D01*
X34778600Y9008364D01*
X34397316Y8912857D01*
X34027228Y8780438D01*
X33671903Y8612381D01*
X33334761Y8410306D01*
X33334756Y8410303D01*
X33019057Y8176165D01*
X33019050Y8176159D01*
X33019049Y8176158D01*
X32727808Y7912192D01*
X32475881Y7634234D01*
X32463834Y7620942D01*
X32229696Y7305243D01*
X32114171Y7112500D01*
X32027619Y6968097D01*
X31859562Y6612772D01*
X31859561Y6612769D01*
X31727144Y6242689D01*
X31727143Y6242684D01*
X31631636Y5861400D01*
X31631635Y5861393D01*
X31573963Y5472601D01*
X31573962Y5472587D01*
X31554675Y5080003D01*
X31554675Y5079996D01*
X30226500Y5079996D01*
X30226500Y6652632D01*
X30226499Y6652649D01*
X30219990Y6713196D01*
X30219988Y6713204D01*
X30212960Y6732045D01*
X30168889Y6850204D01*
X30081261Y6967261D01*
X30007338Y7022599D01*
X29964207Y7054887D01*
X29964206Y7054887D01*
X29964204Y7054889D01*
X29827201Y7105989D01*
X29827199Y7105989D01*
X29827196Y7105990D01*
X29766649Y7112499D01*
X29766645Y7112499D01*
X29766638Y7112500D01*
X28145362Y7112500D01*
X28145355Y7112499D01*
X28145350Y7112499D01*
X28084803Y7105990D01*
X28084795Y7105988D01*
X28006875Y7076924D01*
X27947796Y7054889D01*
X27947794Y7054888D01*
X27947792Y7054887D01*
X27830738Y6967261D01*
X27743112Y6850207D01*
X27743110Y6850202D01*
X27692011Y6713204D01*
X27692009Y6713196D01*
X27685500Y6652649D01*
X27685500Y5031350D01*
X27692009Y4970803D01*
X27692011Y4970795D01*
X27743110Y4833797D01*
X27743112Y4833792D01*
X27830739Y4716738D01*
X27889343Y4672867D01*
X27931889Y4616031D01*
X27936953Y4545216D01*
X27902928Y4482904D01*
X27889343Y4471133D01*
X27830739Y4427261D01*
X27743112Y4310207D01*
X27743110Y4310202D01*
X27692011Y4173204D01*
X27692009Y4173196D01*
X27685500Y4112649D01*
X27685500Y2491350D01*
X25146499Y2491350D01*
X25146500Y2491367D01*
X25146500Y4112632D01*
X25146499Y4112649D01*
X25139990Y4173196D01*
X25139988Y4173204D01*
X25132960Y4192045D01*
X25088889Y4310204D01*
X25001261Y4427261D01*
X24942657Y4471132D01*
X24900110Y4527968D01*
X24895046Y4598784D01*
X24929071Y4661096D01*
X24942657Y4672868D01*
X25001261Y4716738D01*
X25088887Y4833792D01*
X25088889Y4833797D01*
X25139988Y4970795D01*
X25139990Y4970803D01*
X25146499Y5031350D01*
X25146500Y5031367D01*
X25146500Y6652632D01*
X25146499Y6652649D01*
X25139990Y6713196D01*
X25139988Y6713204D01*
X25132960Y6732045D01*
X25088889Y6850204D01*
X25009632Y6956079D01*
X24984821Y7022599D01*
X24984500Y7031588D01*
X24984500Y7292654D01*
X25004502Y7360775D01*
X25021405Y7381749D01*
X26654251Y9014595D01*
X26716563Y9048621D01*
X26743346Y9051500D01*
X31040801Y9051500D01*
X31040803Y9051500D01*
X31040804Y9051500D01*
X31040822Y9051501D01*
X31198728Y9066579D01*
X31198737Y9066580D01*
X31198739Y9066581D01*
X31198741Y9066581D01*
X31198743Y9066582D01*
X31401864Y9126223D01*
X31590023Y9223227D01*
X31756435Y9354094D01*
X31895061Y9514077D01*
X31895069Y9514088D01*
X32000910Y9697412D01*
X32000913Y9697419D01*
X32005458Y9710551D01*
X32070153Y9897473D01*
X32100281Y10107016D01*
X32090208Y10318474D01*
X32040298Y10524204D01*
X31952356Y10716771D01*
X31829559Y10889215D01*
X31676346Y11035303D01*
X31498254Y11149756D01*
X31301721Y11228436D01*
X31093849Y11268500D01*
X31093845Y11268500D01*
X26335074Y11268500D01*
X26314183Y11270244D01*
X26311440Y11270705D01*
X26311439Y11270704D01*
X26311439Y11270705D01*
X26241018Y11269028D01*
X26220323Y11268536D01*
X26217324Y11268500D01*
X26179197Y11268500D01*
X26170514Y11267670D01*
X26161547Y11267136D01*
X26099801Y11265667D01*
X26068217Y11258795D01*
X26053434Y11256490D01*
X26021261Y11253419D01*
X25961988Y11236014D01*
X25953292Y11233795D01*
X25892941Y11220667D01*
X25883442Y11216599D01*
X25863233Y11207946D01*
X25849134Y11202878D01*
X25818138Y11193777D01*
X25763215Y11165461D01*
X25755111Y11161644D01*
X25698336Y11137332D01*
X25671574Y11119219D01*
X25658693Y11111577D01*
X25629976Y11096772D01*
X25629970Y11096768D01*
X25581425Y11058593D01*
X25574163Y11053290D01*
X25556613Y11041411D01*
X25523019Y11018674D01*
X25500170Y10995825D01*
X25488969Y10985883D01*
X25463566Y10965907D01*
X25423115Y10919223D01*
X25416985Y10912640D01*
X23965025Y9460681D01*
X23902713Y9426655D01*
X23831897Y9431720D01*
X23792975Y9455450D01*
X23792810Y9455250D01*
X23791414Y9456401D01*
X23791152Y9456562D01*
X23790529Y9457126D01*
X23790491Y9457165D01*
X23783759Y9462722D01*
X23777042Y9468685D01*
X23766865Y9478388D01*
X23732346Y9511303D01*
X23705156Y9528775D01*
X23693076Y9537596D01*
X23668149Y9558179D01*
X23613926Y9587785D01*
X23606223Y9592356D01*
X23554254Y9625756D01*
X23524261Y9637763D01*
X23510700Y9644152D01*
X23510534Y9644242D01*
X23482346Y9659635D01*
X23423514Y9678440D01*
X23415070Y9681476D01*
X23357721Y9704436D01*
X23325987Y9710551D01*
X23311472Y9714256D01*
X23280700Y9724094D01*
X23219371Y9731426D01*
X23210521Y9732806D01*
X23149849Y9744500D01*
X23149845Y9744500D01*
X23117533Y9744500D01*
X23102576Y9745391D01*
X23102113Y9745446D01*
X23070500Y9749226D01*
X23008905Y9744821D01*
X22999917Y9744500D01*
X12703346Y9744500D01*
X12635225Y9764502D01*
X12614251Y9781405D01*
X9382505Y13013151D01*
X9382491Y13013165D01*
X9260149Y13114179D01*
X9074346Y13215635D01*
X9012741Y13235328D01*
X8872704Y13280093D01*
X8872702Y13280093D01*
X8872700Y13280094D01*
X8662500Y13305226D01*
X8451341Y13290125D01*
X8246857Y13235333D01*
X8246849Y13235329D01*
X8246846Y13235328D01*
X8056444Y13142836D01*
X8056440Y13142833D01*
X8056437Y13142832D01*
X7886964Y13015967D01*
X7744563Y12859321D01*
X7634382Y12678556D01*
X7570234Y12506571D01*
X7560399Y12480201D01*
X7525294Y12271442D01*
X7525294Y12271440D01*
X329500Y12271440D01*
X329500Y14784985D01*
X19715718Y14784985D01*
X19725790Y14573536D01*
X19725792Y14573523D01*
X19775700Y14367801D01*
X19775702Y14367795D01*
X19863644Y14175228D01*
X19863648Y14175221D01*
X19986435Y14002791D01*
X19986444Y14002781D01*
X20139656Y13856695D01*
X20317745Y13742244D01*
X20514281Y13663563D01*
X20722146Y13623500D01*
X20722151Y13623500D01*
X28342151Y13623500D01*
X35471709Y13623500D01*
X35489640Y13622217D01*
X35494054Y13621582D01*
X35507018Y13619718D01*
X35580023Y13623196D01*
X35583388Y13623357D01*
X35589382Y13623500D01*
X35612817Y13623500D01*
X35636124Y13625725D01*
X35642097Y13626152D01*
X35718467Y13629791D01*
X35718480Y13629792D01*
X35735540Y13633931D01*
X35753261Y13636911D01*
X35770737Y13638580D01*
X35815345Y13651678D01*
X35844105Y13660122D01*
X35849886Y13661672D01*
X35924200Y13679701D01*
X35924204Y13679702D01*
X35940171Y13686994D01*
X35957007Y13693273D01*
X35973858Y13698221D01*
X35973863Y13698223D01*
X36041819Y13733257D01*
X36047212Y13735877D01*
X36093092Y13756830D01*
X36116771Y13767644D01*
X36131072Y13777828D01*
X36146420Y13787183D01*
X36162023Y13795227D01*
X36222127Y13842492D01*
X36226925Y13846083D01*
X36289213Y13890439D01*
X36289217Y13890443D01*
X36301328Y13903145D01*
X36314633Y13915241D01*
X36328433Y13926093D01*
X36378510Y13983884D01*
X36382544Y13988321D01*
X36435299Y14043648D01*
X36435303Y14043654D01*
X36444793Y14058420D01*
X36455564Y14072808D01*
X36467060Y14086075D01*
X36467062Y14086078D01*
X36467065Y14086082D01*
X36505305Y14152317D01*
X36508419Y14157425D01*
X36549752Y14221739D01*
X36549752Y14221741D01*
X36549756Y14221746D01*
X36556284Y14238053D01*
X36564136Y14254215D01*
X36572910Y14269413D01*
X36572913Y14269418D01*
X36597933Y14341712D01*
X36599995Y14347238D01*
X36628436Y14418279D01*
X36631760Y14435531D01*
X36636413Y14452890D01*
X36642151Y14469467D01*
X36642151Y14469468D01*
X36642153Y14469473D01*
X36653037Y14545185D01*
X36654020Y14551026D01*
X36668500Y14626151D01*
X36668500Y14643704D01*
X36669782Y14661635D01*
X36672281Y14679018D01*
X36668643Y14755385D01*
X36668500Y14761381D01*
X36668500Y23420801D01*
X36668498Y23420822D01*
X36653420Y23578728D01*
X36653419Y23578739D01*
X36593777Y23781862D01*
X36496771Y23970026D01*
X36365908Y24136432D01*
X36205918Y24275065D01*
X36022582Y24380913D01*
X35822527Y24450153D01*
X35612984Y24480281D01*
X35472003Y24473565D01*
X35401536Y24470209D01*
X35401531Y24470208D01*
X35401526Y24470208D01*
X35195796Y24420298D01*
X35003229Y24332356D01*
X35003228Y24332355D01*
X35003221Y24332351D01*
X34830791Y24209564D01*
X34830787Y24209560D01*
X34830785Y24209559D01*
X34684697Y24056346D01*
X34570244Y23878254D01*
X34531655Y23781862D01*
X34491563Y23681718D01*
X34451500Y23473853D01*
X34451500Y15966500D01*
X34431498Y15898379D01*
X34377842Y15851886D01*
X34325500Y15840500D01*
X28553849Y15840500D01*
X20775197Y15840500D01*
X20617261Y15825419D01*
X20414138Y15765777D01*
X20414135Y15765776D01*
X20236098Y15673990D01*
X20225974Y15668771D01*
X20093296Y15564432D01*
X20059564Y15537905D01*
X19920938Y15377922D01*
X19920930Y15377911D01*
X19815089Y15194587D01*
X19815086Y15194580D01*
X19745848Y14994530D01*
X19745845Y14994519D01*
X19715718Y14784985D01*
X329500Y14784985D01*
X329500Y35559996D01*
X1074675Y35559996D01*
X1093962Y35167412D01*
X1093963Y35167398D01*
X1151635Y34778606D01*
X1151636Y34778600D01*
X1199389Y34587958D01*
X1247144Y34397310D01*
X1379561Y34027230D01*
X1547621Y33671899D01*
X1749696Y33334756D01*
X1983834Y33019057D01*
X2247808Y32727808D01*
X2539057Y32463834D01*
X2854756Y32229696D01*
X3191899Y32027621D01*
X3547230Y31859561D01*
X3917310Y31727144D01*
X4107958Y31679389D01*
X4298600Y31631636D01*
X4298604Y31631635D01*
X4298606Y31631635D01*
X4687398Y31573963D01*
X4687406Y31573962D01*
X4687409Y31573962D01*
X4855662Y31565696D01*
X5079996Y31554675D01*
X5080000Y31554675D01*
X5080004Y31554675D01*
X5276295Y31564318D01*
X5472591Y31573962D01*
X5472594Y31573962D01*
X5472601Y31573963D01*
X5861393Y31631635D01*
X5861400Y31631636D01*
X6146995Y31703174D01*
X6242689Y31727144D01*
X6612769Y31859561D01*
X6612772Y31859562D01*
X6968097Y32027619D01*
X7081649Y32095680D01*
X7305243Y32229696D01*
X7620942Y32463834D01*
X7620951Y32463842D01*
X7912192Y32727808D01*
X8176158Y33019049D01*
X8176159Y33019050D01*
X8176165Y33019057D01*
X8410303Y33334756D01*
X8410306Y33334761D01*
X8612381Y33671903D01*
X8780438Y34027228D01*
X8912857Y34397316D01*
X9008364Y34778600D01*
X9066038Y35167409D01*
X9085325Y35559996D01*
X31554675Y35559996D01*
X31573962Y35167412D01*
X31573963Y35167398D01*
X31631635Y34778606D01*
X31631636Y34778600D01*
X31679389Y34587958D01*
X31727144Y34397310D01*
X31859561Y34027230D01*
X32027621Y33671899D01*
X32229696Y33334756D01*
X32463834Y33019057D01*
X32727808Y32727808D01*
X33019057Y32463834D01*
X33334756Y32229696D01*
X33671899Y32027621D01*
X34027230Y31859561D01*
X34397310Y31727144D01*
X34587958Y31679389D01*
X34778600Y31631636D01*
X34778604Y31631635D01*
X34778606Y31631635D01*
X35167398Y31573963D01*
X35167406Y31573962D01*
X35167409Y31573962D01*
X35335662Y31565696D01*
X35559996Y31554675D01*
X35560000Y31554675D01*
X35560004Y31554675D01*
X35756295Y31564318D01*
X35952591Y31573962D01*
X35952594Y31573962D01*
X35952601Y31573963D01*
X36341393Y31631635D01*
X36341400Y31631636D01*
X36626995Y31703174D01*
X36722689Y31727144D01*
X37092769Y31859561D01*
X37092772Y31859562D01*
X37448097Y32027619D01*
X37561649Y32095680D01*
X37785243Y32229696D01*
X38100942Y32463834D01*
X38100951Y32463842D01*
X38392192Y32727808D01*
X38656158Y33019049D01*
X38656159Y33019050D01*
X38656165Y33019057D01*
X38890303Y33334756D01*
X38890306Y33334761D01*
X39092381Y33671903D01*
X39260438Y34027228D01*
X39392857Y34397316D01*
X39488364Y34778600D01*
X39546038Y35167409D01*
X39565325Y35560000D01*
X39546038Y35952591D01*
X39488364Y36341400D01*
X39392857Y36722684D01*
X39260438Y37092772D01*
X39092381Y37448097D01*
X38890306Y37785239D01*
X38656158Y38100951D01*
X38392192Y38392192D01*
X38100951Y38656158D01*
X37785239Y38890306D01*
X37448097Y39092381D01*
X37092772Y39260438D01*
X36722684Y39392857D01*
X36341400Y39488364D01*
X35952591Y39546038D01*
X35615384Y39562604D01*
X35560004Y39565325D01*
X35559996Y39565325D01*
X35502590Y39562504D01*
X35167409Y39546038D01*
X34778600Y39488364D01*
X34397316Y39392857D01*
X34027228Y39260438D01*
X33671903Y39092381D01*
X33334761Y38890306D01*
X33334756Y38890303D01*
X33019057Y38656165D01*
X33019050Y38656159D01*
X33019049Y38656158D01*
X32727808Y38392192D01*
X32463842Y38100951D01*
X32463834Y38100942D01*
X32229696Y37785243D01*
X32229694Y37785239D01*
X32027619Y37448097D01*
X31859562Y37092772D01*
X31859561Y37092769D01*
X31727144Y36722689D01*
X31727143Y36722684D01*
X31631636Y36341400D01*
X31631635Y36341393D01*
X31573963Y35952601D01*
X31573962Y35952587D01*
X31554675Y35560003D01*
X31554675Y35559996D01*
X9085325Y35559996D01*
X9085325Y35560000D01*
X9066038Y35952591D01*
X9008364Y36341400D01*
X8912857Y36722684D01*
X8780438Y37092772D01*
X8612381Y37448097D01*
X8410306Y37785239D01*
X8176158Y38100951D01*
X7912192Y38392192D01*
X7620951Y38656158D01*
X7305239Y38890306D01*
X6968097Y39092381D01*
X6612772Y39260438D01*
X6242684Y39392857D01*
X5861400Y39488364D01*
X5472591Y39546038D01*
X5135384Y39562604D01*
X5080004Y39565325D01*
X5079996Y39565325D01*
X5022590Y39562504D01*
X4687409Y39546038D01*
X4298600Y39488364D01*
X3917316Y39392857D01*
X3547228Y39260438D01*
X3191903Y39092381D01*
X2854761Y38890306D01*
X2854756Y38890303D01*
X2539057Y38656165D01*
X2539050Y38656159D01*
X2539049Y38656158D01*
X2247808Y38392192D01*
X1983842Y38100951D01*
X1983834Y38100942D01*
X1749696Y37785243D01*
X1749694Y37785239D01*
X1547619Y37448097D01*
X1379562Y37092772D01*
X1379561Y37092769D01*
X1247144Y36722689D01*
X1247143Y36722684D01*
X1151636Y36341400D01*
X1151635Y36341393D01*
X1093963Y35952601D01*
X1093962Y35952587D01*
X1074675Y35560003D01*
X1074675Y35559996D01*
X329500Y35559996D01*
X329500Y40184500D01*
X349502Y40252621D01*
X403158Y40299114D01*
X455500Y40310500D01*
X40184500Y40310500D01*
X40252621Y40290498D01*
G37*
%TD.AperFunction*%
%TD*%
M02*
