%TF.GenerationSoftware,KiCad,Pcbnew,7.0.11+1*%
%TF.CreationDate,2024-07-04T22:31:09+00:00*%
%TF.ProjectId,PIND01,50494e44-3031-42e6-9b69-6361645f7063,rev?*%
%TF.SameCoordinates,Original*%
%TF.FileFunction,Legend,Bot*%
%TF.FilePolarity,Positive*%
%FSLAX46Y46*%
G04 Gerber Fmt 4.6, Leading zero omitted, Abs format (unit mm)*
G04 Created by KiCad (PCBNEW 7.0.11+1) date 2024-07-04 22:31:09*
%MOMM*%
%LPD*%
G01*
G04 APERTURE LIST*
%ADD10C,0.304800*%
%ADD11C,0.099060*%
%ADD12C,0.150000*%
G04 APERTURE END LIST*
D10*
X22905356Y27746118D02*
X22905356Y29270118D01*
X22905356Y29270118D02*
X22542499Y29270118D01*
X22542499Y29270118D02*
X22324785Y29197547D01*
X22324785Y29197547D02*
X22179642Y29052404D01*
X22179642Y29052404D02*
X22107071Y28907261D01*
X22107071Y28907261D02*
X22034499Y28616975D01*
X22034499Y28616975D02*
X22034499Y28399261D01*
X22034499Y28399261D02*
X22107071Y28108975D01*
X22107071Y28108975D02*
X22179642Y27963832D01*
X22179642Y27963832D02*
X22324785Y27818690D01*
X22324785Y27818690D02*
X22542499Y27746118D01*
X22542499Y27746118D02*
X22905356Y27746118D01*
X20583071Y27746118D02*
X21453928Y27746118D01*
X21018499Y27746118D02*
X21018499Y29270118D01*
X21018499Y29270118D02*
X21163642Y29052404D01*
X21163642Y29052404D02*
X21308785Y28907261D01*
X21308785Y28907261D02*
X21453928Y28834690D01*
D11*
X24974791Y29920926D02*
X24974791Y30421306D01*
X24688860Y29920926D02*
X24903309Y30206857D01*
X24688860Y30421306D02*
X24974791Y30135374D01*
X18663677Y29964832D02*
X18425401Y29964832D01*
X18711332Y29821866D02*
X18544539Y30322246D01*
X18544539Y30322246D02*
X18377746Y29821866D01*
D10*
X22905356Y23174118D02*
X22905356Y24698118D01*
X22905356Y24698118D02*
X22542499Y24698118D01*
X22542499Y24698118D02*
X22324785Y24625547D01*
X22324785Y24625547D02*
X22179642Y24480404D01*
X22179642Y24480404D02*
X22107071Y24335261D01*
X22107071Y24335261D02*
X22034499Y24044975D01*
X22034499Y24044975D02*
X22034499Y23827261D01*
X22034499Y23827261D02*
X22107071Y23536975D01*
X22107071Y23536975D02*
X22179642Y23391832D01*
X22179642Y23391832D02*
X22324785Y23246690D01*
X22324785Y23246690D02*
X22542499Y23174118D01*
X22542499Y23174118D02*
X22905356Y23174118D01*
X21453928Y24552975D02*
X21381356Y24625547D01*
X21381356Y24625547D02*
X21236214Y24698118D01*
X21236214Y24698118D02*
X20873356Y24698118D01*
X20873356Y24698118D02*
X20728214Y24625547D01*
X20728214Y24625547D02*
X20655642Y24552975D01*
X20655642Y24552975D02*
X20583071Y24407832D01*
X20583071Y24407832D02*
X20583071Y24262690D01*
X20583071Y24262690D02*
X20655642Y24044975D01*
X20655642Y24044975D02*
X21526499Y23174118D01*
X21526499Y23174118D02*
X20583071Y23174118D01*
D11*
X24974791Y25348926D02*
X24974791Y25849306D01*
X24688860Y25348926D02*
X24903309Y25634857D01*
X24688860Y25849306D02*
X24974791Y25563374D01*
X18663677Y25392832D02*
X18425401Y25392832D01*
X18711332Y25249866D02*
X18544539Y25750246D01*
X18544539Y25750246D02*
X18377746Y25249866D01*
D10*
X31033356Y23174118D02*
X31033356Y24698118D01*
X31033356Y24698118D02*
X30670499Y24698118D01*
X30670499Y24698118D02*
X30452785Y24625547D01*
X30452785Y24625547D02*
X30307642Y24480404D01*
X30307642Y24480404D02*
X30235071Y24335261D01*
X30235071Y24335261D02*
X30162499Y24044975D01*
X30162499Y24044975D02*
X30162499Y23827261D01*
X30162499Y23827261D02*
X30235071Y23536975D01*
X30235071Y23536975D02*
X30307642Y23391832D01*
X30307642Y23391832D02*
X30452785Y23246690D01*
X30452785Y23246690D02*
X30670499Y23174118D01*
X30670499Y23174118D02*
X31033356Y23174118D01*
X29654499Y24698118D02*
X28711071Y24698118D01*
X28711071Y24698118D02*
X29219071Y24117547D01*
X29219071Y24117547D02*
X29001356Y24117547D01*
X29001356Y24117547D02*
X28856214Y24044975D01*
X28856214Y24044975D02*
X28783642Y23972404D01*
X28783642Y23972404D02*
X28711071Y23827261D01*
X28711071Y23827261D02*
X28711071Y23464404D01*
X28711071Y23464404D02*
X28783642Y23319261D01*
X28783642Y23319261D02*
X28856214Y23246690D01*
X28856214Y23246690D02*
X29001356Y23174118D01*
X29001356Y23174118D02*
X29436785Y23174118D01*
X29436785Y23174118D02*
X29581928Y23246690D01*
X29581928Y23246690D02*
X29654499Y23319261D01*
D11*
X33102791Y25348926D02*
X33102791Y25849306D01*
X32816860Y25348926D02*
X33031309Y25634857D01*
X32816860Y25849306D02*
X33102791Y25563374D01*
X26791677Y25392832D02*
X26553401Y25392832D01*
X26839332Y25249866D02*
X26672539Y25750246D01*
X26672539Y25750246D02*
X26505746Y25249866D01*
D10*
X6649356Y18602118D02*
X6649356Y20126118D01*
X6649356Y20126118D02*
X6286499Y20126118D01*
X6286499Y20126118D02*
X6068785Y20053547D01*
X6068785Y20053547D02*
X5923642Y19908404D01*
X5923642Y19908404D02*
X5851071Y19763261D01*
X5851071Y19763261D02*
X5778499Y19472975D01*
X5778499Y19472975D02*
X5778499Y19255261D01*
X5778499Y19255261D02*
X5851071Y18964975D01*
X5851071Y18964975D02*
X5923642Y18819832D01*
X5923642Y18819832D02*
X6068785Y18674690D01*
X6068785Y18674690D02*
X6286499Y18602118D01*
X6286499Y18602118D02*
X6649356Y18602118D01*
X4472214Y19618118D02*
X4472214Y18602118D01*
X4835071Y20198690D02*
X5197928Y19110118D01*
X5197928Y19110118D02*
X4254499Y19110118D01*
D11*
X8718791Y20776926D02*
X8718791Y21277306D01*
X8432860Y20776926D02*
X8647309Y21062857D01*
X8432860Y21277306D02*
X8718791Y20991374D01*
X2407677Y20820832D02*
X2169401Y20820832D01*
X2455332Y20677866D02*
X2288539Y21178246D01*
X2288539Y21178246D02*
X2121746Y20677866D01*
D10*
X37785881Y27477356D02*
X36261881Y27477356D01*
X36261881Y27477356D02*
X36261881Y27114499D01*
X36261881Y27114499D02*
X36334452Y26896785D01*
X36334452Y26896785D02*
X36479595Y26751642D01*
X36479595Y26751642D02*
X36624738Y26679071D01*
X36624738Y26679071D02*
X36915024Y26606499D01*
X36915024Y26606499D02*
X37132738Y26606499D01*
X37132738Y26606499D02*
X37423024Y26679071D01*
X37423024Y26679071D02*
X37568167Y26751642D01*
X37568167Y26751642D02*
X37713310Y26896785D01*
X37713310Y26896785D02*
X37785881Y27114499D01*
X37785881Y27114499D02*
X37785881Y27477356D01*
X36261881Y25227642D02*
X36261881Y25953356D01*
X36261881Y25953356D02*
X36987595Y26025928D01*
X36987595Y26025928D02*
X36915024Y25953356D01*
X36915024Y25953356D02*
X36842452Y25808214D01*
X36842452Y25808214D02*
X36842452Y25445356D01*
X36842452Y25445356D02*
X36915024Y25300214D01*
X36915024Y25300214D02*
X36987595Y25227642D01*
X36987595Y25227642D02*
X37132738Y25155071D01*
X37132738Y25155071D02*
X37495595Y25155071D01*
X37495595Y25155071D02*
X37640738Y25227642D01*
X37640738Y25227642D02*
X37713310Y25300214D01*
X37713310Y25300214D02*
X37785881Y25445356D01*
X37785881Y25445356D02*
X37785881Y25808214D01*
X37785881Y25808214D02*
X37713310Y25953356D01*
X37713310Y25953356D02*
X37640738Y26025928D01*
D11*
X35611073Y29546791D02*
X35110693Y29546791D01*
X35611073Y29260860D02*
X35325142Y29475309D01*
X35110693Y29260860D02*
X35396625Y29546791D01*
X35567167Y23235677D02*
X35567167Y22997401D01*
X35710133Y23283332D02*
X35209753Y23116539D01*
X35209753Y23116539D02*
X35710133Y22949746D01*
D10*
X6649356Y23174118D02*
X6649356Y24698118D01*
X6649356Y24698118D02*
X6286499Y24698118D01*
X6286499Y24698118D02*
X6068785Y24625547D01*
X6068785Y24625547D02*
X5923642Y24480404D01*
X5923642Y24480404D02*
X5851071Y24335261D01*
X5851071Y24335261D02*
X5778499Y24044975D01*
X5778499Y24044975D02*
X5778499Y23827261D01*
X5778499Y23827261D02*
X5851071Y23536975D01*
X5851071Y23536975D02*
X5923642Y23391832D01*
X5923642Y23391832D02*
X6068785Y23246690D01*
X6068785Y23246690D02*
X6286499Y23174118D01*
X6286499Y23174118D02*
X6649356Y23174118D01*
X4472214Y24698118D02*
X4762499Y24698118D01*
X4762499Y24698118D02*
X4907642Y24625547D01*
X4907642Y24625547D02*
X4980214Y24552975D01*
X4980214Y24552975D02*
X5125356Y24335261D01*
X5125356Y24335261D02*
X5197928Y24044975D01*
X5197928Y24044975D02*
X5197928Y23464404D01*
X5197928Y23464404D02*
X5125356Y23319261D01*
X5125356Y23319261D02*
X5052785Y23246690D01*
X5052785Y23246690D02*
X4907642Y23174118D01*
X4907642Y23174118D02*
X4617356Y23174118D01*
X4617356Y23174118D02*
X4472214Y23246690D01*
X4472214Y23246690D02*
X4399642Y23319261D01*
X4399642Y23319261D02*
X4327071Y23464404D01*
X4327071Y23464404D02*
X4327071Y23827261D01*
X4327071Y23827261D02*
X4399642Y23972404D01*
X4399642Y23972404D02*
X4472214Y24044975D01*
X4472214Y24044975D02*
X4617356Y24117547D01*
X4617356Y24117547D02*
X4907642Y24117547D01*
X4907642Y24117547D02*
X5052785Y24044975D01*
X5052785Y24044975D02*
X5125356Y23972404D01*
X5125356Y23972404D02*
X5197928Y23827261D01*
D11*
X8718791Y25348926D02*
X8718791Y25849306D01*
X8432860Y25348926D02*
X8647309Y25634857D01*
X8432860Y25849306D02*
X8718791Y25563374D01*
X2407677Y25392832D02*
X2169401Y25392832D01*
X2455332Y25249866D02*
X2288539Y25750246D01*
X2288539Y25750246D02*
X2121746Y25249866D01*
D10*
X14777356Y23174118D02*
X14777356Y24698118D01*
X14777356Y24698118D02*
X14414499Y24698118D01*
X14414499Y24698118D02*
X14196785Y24625547D01*
X14196785Y24625547D02*
X14051642Y24480404D01*
X14051642Y24480404D02*
X13979071Y24335261D01*
X13979071Y24335261D02*
X13906499Y24044975D01*
X13906499Y24044975D02*
X13906499Y23827261D01*
X13906499Y23827261D02*
X13979071Y23536975D01*
X13979071Y23536975D02*
X14051642Y23391832D01*
X14051642Y23391832D02*
X14196785Y23246690D01*
X14196785Y23246690D02*
X14414499Y23174118D01*
X14414499Y23174118D02*
X14777356Y23174118D01*
X13398499Y24698118D02*
X12382499Y24698118D01*
X12382499Y24698118D02*
X13035642Y23174118D01*
D11*
X16846791Y25348926D02*
X16846791Y25849306D01*
X16560860Y25348926D02*
X16775309Y25634857D01*
X16560860Y25849306D02*
X16846791Y25563374D01*
X10535677Y25392832D02*
X10297401Y25392832D01*
X10583332Y25249866D02*
X10416539Y25750246D01*
X10416539Y25750246D02*
X10249746Y25249866D01*
D10*
X31033356Y9458118D02*
X31033356Y10982118D01*
X31033356Y10982118D02*
X30670499Y10982118D01*
X30670499Y10982118D02*
X30452785Y10909547D01*
X30452785Y10909547D02*
X30307642Y10764404D01*
X30307642Y10764404D02*
X30235071Y10619261D01*
X30235071Y10619261D02*
X30162499Y10328975D01*
X30162499Y10328975D02*
X30162499Y10111261D01*
X30162499Y10111261D02*
X30235071Y9820975D01*
X30235071Y9820975D02*
X30307642Y9675832D01*
X30307642Y9675832D02*
X30452785Y9530690D01*
X30452785Y9530690D02*
X30670499Y9458118D01*
X30670499Y9458118D02*
X31033356Y9458118D01*
X29291642Y10328975D02*
X29436785Y10401547D01*
X29436785Y10401547D02*
X29509356Y10474118D01*
X29509356Y10474118D02*
X29581928Y10619261D01*
X29581928Y10619261D02*
X29581928Y10691832D01*
X29581928Y10691832D02*
X29509356Y10836975D01*
X29509356Y10836975D02*
X29436785Y10909547D01*
X29436785Y10909547D02*
X29291642Y10982118D01*
X29291642Y10982118D02*
X29001356Y10982118D01*
X29001356Y10982118D02*
X28856214Y10909547D01*
X28856214Y10909547D02*
X28783642Y10836975D01*
X28783642Y10836975D02*
X28711071Y10691832D01*
X28711071Y10691832D02*
X28711071Y10619261D01*
X28711071Y10619261D02*
X28783642Y10474118D01*
X28783642Y10474118D02*
X28856214Y10401547D01*
X28856214Y10401547D02*
X29001356Y10328975D01*
X29001356Y10328975D02*
X29291642Y10328975D01*
X29291642Y10328975D02*
X29436785Y10256404D01*
X29436785Y10256404D02*
X29509356Y10183832D01*
X29509356Y10183832D02*
X29581928Y10038690D01*
X29581928Y10038690D02*
X29581928Y9748404D01*
X29581928Y9748404D02*
X29509356Y9603261D01*
X29509356Y9603261D02*
X29436785Y9530690D01*
X29436785Y9530690D02*
X29291642Y9458118D01*
X29291642Y9458118D02*
X29001356Y9458118D01*
X29001356Y9458118D02*
X28856214Y9530690D01*
X28856214Y9530690D02*
X28783642Y9603261D01*
X28783642Y9603261D02*
X28711071Y9748404D01*
X28711071Y9748404D02*
X28711071Y10038690D01*
X28711071Y10038690D02*
X28783642Y10183832D01*
X28783642Y10183832D02*
X28856214Y10256404D01*
X28856214Y10256404D02*
X29001356Y10328975D01*
D11*
X33102791Y11632926D02*
X33102791Y12133306D01*
X32816860Y11632926D02*
X33031309Y11918857D01*
X32816860Y12133306D02*
X33102791Y11847374D01*
X26791677Y11676832D02*
X26553401Y11676832D01*
X26839332Y11533866D02*
X26672539Y12034246D01*
X26672539Y12034246D02*
X26505746Y11533866D01*
D10*
X14777356Y4378118D02*
X14777356Y5902118D01*
X14777356Y5902118D02*
X14414499Y5902118D01*
X14414499Y5902118D02*
X14196785Y5829547D01*
X14196785Y5829547D02*
X14051642Y5684404D01*
X14051642Y5684404D02*
X13979071Y5539261D01*
X13979071Y5539261D02*
X13906499Y5248975D01*
X13906499Y5248975D02*
X13906499Y5031261D01*
X13906499Y5031261D02*
X13979071Y4740975D01*
X13979071Y4740975D02*
X14051642Y4595832D01*
X14051642Y4595832D02*
X14196785Y4450690D01*
X14196785Y4450690D02*
X14414499Y4378118D01*
X14414499Y4378118D02*
X14777356Y4378118D01*
X13180785Y4378118D02*
X12890499Y4378118D01*
X12890499Y4378118D02*
X12745356Y4450690D01*
X12745356Y4450690D02*
X12672785Y4523261D01*
X12672785Y4523261D02*
X12527642Y4740975D01*
X12527642Y4740975D02*
X12455071Y5031261D01*
X12455071Y5031261D02*
X12455071Y5611832D01*
X12455071Y5611832D02*
X12527642Y5756975D01*
X12527642Y5756975D02*
X12600214Y5829547D01*
X12600214Y5829547D02*
X12745356Y5902118D01*
X12745356Y5902118D02*
X13035642Y5902118D01*
X13035642Y5902118D02*
X13180785Y5829547D01*
X13180785Y5829547D02*
X13253356Y5756975D01*
X13253356Y5756975D02*
X13325928Y5611832D01*
X13325928Y5611832D02*
X13325928Y5248975D01*
X13325928Y5248975D02*
X13253356Y5103832D01*
X13253356Y5103832D02*
X13180785Y5031261D01*
X13180785Y5031261D02*
X13035642Y4958690D01*
X13035642Y4958690D02*
X12745356Y4958690D01*
X12745356Y4958690D02*
X12600214Y5031261D01*
X12600214Y5031261D02*
X12527642Y5103832D01*
X12527642Y5103832D02*
X12455071Y5248975D01*
D11*
X10535677Y6596832D02*
X10297401Y6596832D01*
X10583332Y6453866D02*
X10416539Y6954246D01*
X10416539Y6954246D02*
X10249746Y6453866D01*
X16846791Y6552926D02*
X16846791Y7053306D01*
X16560860Y6552926D02*
X16775309Y6838857D01*
X16560860Y7053306D02*
X16846791Y6767374D01*
D10*
X31759071Y27746118D02*
X31759071Y29270118D01*
X31759071Y29270118D02*
X31396214Y29270118D01*
X31396214Y29270118D02*
X31178500Y29197547D01*
X31178500Y29197547D02*
X31033357Y29052404D01*
X31033357Y29052404D02*
X30960786Y28907261D01*
X30960786Y28907261D02*
X30888214Y28616975D01*
X30888214Y28616975D02*
X30888214Y28399261D01*
X30888214Y28399261D02*
X30960786Y28108975D01*
X30960786Y28108975D02*
X31033357Y27963832D01*
X31033357Y27963832D02*
X31178500Y27818690D01*
X31178500Y27818690D02*
X31396214Y27746118D01*
X31396214Y27746118D02*
X31759071Y27746118D01*
X29436786Y27746118D02*
X30307643Y27746118D01*
X29872214Y27746118D02*
X29872214Y29270118D01*
X29872214Y29270118D02*
X30017357Y29052404D01*
X30017357Y29052404D02*
X30162500Y28907261D01*
X30162500Y28907261D02*
X30307643Y28834690D01*
X28493357Y29270118D02*
X28348214Y29270118D01*
X28348214Y29270118D02*
X28203071Y29197547D01*
X28203071Y29197547D02*
X28130500Y29124975D01*
X28130500Y29124975D02*
X28057928Y28979832D01*
X28057928Y28979832D02*
X27985357Y28689547D01*
X27985357Y28689547D02*
X27985357Y28326690D01*
X27985357Y28326690D02*
X28057928Y28036404D01*
X28057928Y28036404D02*
X28130500Y27891261D01*
X28130500Y27891261D02*
X28203071Y27818690D01*
X28203071Y27818690D02*
X28348214Y27746118D01*
X28348214Y27746118D02*
X28493357Y27746118D01*
X28493357Y27746118D02*
X28638500Y27818690D01*
X28638500Y27818690D02*
X28711071Y27891261D01*
X28711071Y27891261D02*
X28783642Y28036404D01*
X28783642Y28036404D02*
X28856214Y28326690D01*
X28856214Y28326690D02*
X28856214Y28689547D01*
X28856214Y28689547D02*
X28783642Y28979832D01*
X28783642Y28979832D02*
X28711071Y29124975D01*
X28711071Y29124975D02*
X28638500Y29197547D01*
X28638500Y29197547D02*
X28493357Y29270118D01*
D11*
X26791677Y29964832D02*
X26553401Y29964832D01*
X26839332Y29821866D02*
X26672539Y30322246D01*
X26672539Y30322246D02*
X26505746Y29821866D01*
X33102791Y29920926D02*
X33102791Y30421306D01*
X32816860Y29920926D02*
X33031309Y30206857D01*
X32816860Y30421306D02*
X33102791Y30135374D01*
D10*
X28133881Y36839071D02*
X26609881Y36839071D01*
X26609881Y36839071D02*
X26609881Y36476214D01*
X26609881Y36476214D02*
X26682452Y36258500D01*
X26682452Y36258500D02*
X26827595Y36113357D01*
X26827595Y36113357D02*
X26972738Y36040786D01*
X26972738Y36040786D02*
X27263024Y35968214D01*
X27263024Y35968214D02*
X27480738Y35968214D01*
X27480738Y35968214D02*
X27771024Y36040786D01*
X27771024Y36040786D02*
X27916167Y36113357D01*
X27916167Y36113357D02*
X28061310Y36258500D01*
X28061310Y36258500D02*
X28133881Y36476214D01*
X28133881Y36476214D02*
X28133881Y36839071D01*
X28133881Y34516786D02*
X28133881Y35387643D01*
X28133881Y34952214D02*
X26609881Y34952214D01*
X26609881Y34952214D02*
X26827595Y35097357D01*
X26827595Y35097357D02*
X26972738Y35242500D01*
X26972738Y35242500D02*
X27045310Y35387643D01*
X28133881Y33065357D02*
X28133881Y33936214D01*
X28133881Y33500785D02*
X26609881Y33500785D01*
X26609881Y33500785D02*
X26827595Y33645928D01*
X26827595Y33645928D02*
X26972738Y33791071D01*
X26972738Y33791071D02*
X27045310Y33936214D01*
D11*
X25915167Y31871677D02*
X25915167Y31633401D01*
X26058133Y31919332D02*
X25557753Y31752539D01*
X25557753Y31752539D02*
X26058133Y31585746D01*
X25959073Y38182791D02*
X25458693Y38182791D01*
X25959073Y37896860D02*
X25673142Y38111309D01*
X25458693Y37896860D02*
X25744625Y38182791D01*
D10*
X15503071Y27746118D02*
X15503071Y29270118D01*
X15503071Y29270118D02*
X15140214Y29270118D01*
X15140214Y29270118D02*
X14922500Y29197547D01*
X14922500Y29197547D02*
X14777357Y29052404D01*
X14777357Y29052404D02*
X14704786Y28907261D01*
X14704786Y28907261D02*
X14632214Y28616975D01*
X14632214Y28616975D02*
X14632214Y28399261D01*
X14632214Y28399261D02*
X14704786Y28108975D01*
X14704786Y28108975D02*
X14777357Y27963832D01*
X14777357Y27963832D02*
X14922500Y27818690D01*
X14922500Y27818690D02*
X15140214Y27746118D01*
X15140214Y27746118D02*
X15503071Y27746118D01*
X13180786Y27746118D02*
X14051643Y27746118D01*
X13616214Y27746118D02*
X13616214Y29270118D01*
X13616214Y29270118D02*
X13761357Y29052404D01*
X13761357Y29052404D02*
X13906500Y28907261D01*
X13906500Y28907261D02*
X14051643Y28834690D01*
X12600214Y29124975D02*
X12527642Y29197547D01*
X12527642Y29197547D02*
X12382500Y29270118D01*
X12382500Y29270118D02*
X12019642Y29270118D01*
X12019642Y29270118D02*
X11874500Y29197547D01*
X11874500Y29197547D02*
X11801928Y29124975D01*
X11801928Y29124975D02*
X11729357Y28979832D01*
X11729357Y28979832D02*
X11729357Y28834690D01*
X11729357Y28834690D02*
X11801928Y28616975D01*
X11801928Y28616975D02*
X12672785Y27746118D01*
X12672785Y27746118D02*
X11729357Y27746118D01*
D11*
X16846791Y29920926D02*
X16846791Y30421306D01*
X16560860Y29920926D02*
X16775309Y30206857D01*
X16560860Y30421306D02*
X16846791Y30135374D01*
X10535677Y29964832D02*
X10297401Y29964832D01*
X10583332Y29821866D02*
X10416539Y30322246D01*
X10416539Y30322246D02*
X10249746Y29821866D01*
D10*
X12893881Y36839071D02*
X11369881Y36839071D01*
X11369881Y36839071D02*
X11369881Y36476214D01*
X11369881Y36476214D02*
X11442452Y36258500D01*
X11442452Y36258500D02*
X11587595Y36113357D01*
X11587595Y36113357D02*
X11732738Y36040786D01*
X11732738Y36040786D02*
X12023024Y35968214D01*
X12023024Y35968214D02*
X12240738Y35968214D01*
X12240738Y35968214D02*
X12531024Y36040786D01*
X12531024Y36040786D02*
X12676167Y36113357D01*
X12676167Y36113357D02*
X12821310Y36258500D01*
X12821310Y36258500D02*
X12893881Y36476214D01*
X12893881Y36476214D02*
X12893881Y36839071D01*
X12893881Y34516786D02*
X12893881Y35387643D01*
X12893881Y34952214D02*
X11369881Y34952214D01*
X11369881Y34952214D02*
X11587595Y35097357D01*
X11587595Y35097357D02*
X11732738Y35242500D01*
X11732738Y35242500D02*
X11805310Y35387643D01*
X11369881Y34008785D02*
X11369881Y33065357D01*
X11369881Y33065357D02*
X11950452Y33573357D01*
X11950452Y33573357D02*
X11950452Y33355642D01*
X11950452Y33355642D02*
X12023024Y33210500D01*
X12023024Y33210500D02*
X12095595Y33137928D01*
X12095595Y33137928D02*
X12240738Y33065357D01*
X12240738Y33065357D02*
X12603595Y33065357D01*
X12603595Y33065357D02*
X12748738Y33137928D01*
X12748738Y33137928D02*
X12821310Y33210500D01*
X12821310Y33210500D02*
X12893881Y33355642D01*
X12893881Y33355642D02*
X12893881Y33791071D01*
X12893881Y33791071D02*
X12821310Y33936214D01*
X12821310Y33936214D02*
X12748738Y34008785D01*
D11*
X10719073Y38182791D02*
X10218693Y38182791D01*
X10719073Y37896860D02*
X10433142Y38111309D01*
X10218693Y37896860D02*
X10504625Y38182791D01*
X10675167Y31871677D02*
X10675167Y31633401D01*
X10818133Y31919332D02*
X10317753Y31752539D01*
X10317753Y31752539D02*
X10818133Y31585746D01*
D10*
X23631071Y18602118D02*
X23631071Y20126118D01*
X23631071Y20126118D02*
X23268214Y20126118D01*
X23268214Y20126118D02*
X23050500Y20053547D01*
X23050500Y20053547D02*
X22905357Y19908404D01*
X22905357Y19908404D02*
X22832786Y19763261D01*
X22832786Y19763261D02*
X22760214Y19472975D01*
X22760214Y19472975D02*
X22760214Y19255261D01*
X22760214Y19255261D02*
X22832786Y18964975D01*
X22832786Y18964975D02*
X22905357Y18819832D01*
X22905357Y18819832D02*
X23050500Y18674690D01*
X23050500Y18674690D02*
X23268214Y18602118D01*
X23268214Y18602118D02*
X23631071Y18602118D01*
X21308786Y18602118D02*
X22179643Y18602118D01*
X21744214Y18602118D02*
X21744214Y20126118D01*
X21744214Y20126118D02*
X21889357Y19908404D01*
X21889357Y19908404D02*
X22034500Y19763261D01*
X22034500Y19763261D02*
X22179643Y19690690D01*
X20002500Y19618118D02*
X20002500Y18602118D01*
X20365357Y20198690D02*
X20728214Y19110118D01*
X20728214Y19110118D02*
X19784785Y19110118D01*
D11*
X18663677Y20820832D02*
X18425401Y20820832D01*
X18711332Y20677866D02*
X18544539Y21178246D01*
X18544539Y21178246D02*
X18377746Y20677866D01*
X24974791Y20776926D02*
X24974791Y21277306D01*
X24688860Y20776926D02*
X24903309Y21062857D01*
X24688860Y21277306D02*
X24974791Y20991374D01*
D10*
X31759071Y18602118D02*
X31759071Y20126118D01*
X31759071Y20126118D02*
X31396214Y20126118D01*
X31396214Y20126118D02*
X31178500Y20053547D01*
X31178500Y20053547D02*
X31033357Y19908404D01*
X31033357Y19908404D02*
X30960786Y19763261D01*
X30960786Y19763261D02*
X30888214Y19472975D01*
X30888214Y19472975D02*
X30888214Y19255261D01*
X30888214Y19255261D02*
X30960786Y18964975D01*
X30960786Y18964975D02*
X31033357Y18819832D01*
X31033357Y18819832D02*
X31178500Y18674690D01*
X31178500Y18674690D02*
X31396214Y18602118D01*
X31396214Y18602118D02*
X31759071Y18602118D01*
X29436786Y18602118D02*
X30307643Y18602118D01*
X29872214Y18602118D02*
X29872214Y20126118D01*
X29872214Y20126118D02*
X30017357Y19908404D01*
X30017357Y19908404D02*
X30162500Y19763261D01*
X30162500Y19763261D02*
X30307643Y19690690D01*
X28057928Y20126118D02*
X28783642Y20126118D01*
X28783642Y20126118D02*
X28856214Y19400404D01*
X28856214Y19400404D02*
X28783642Y19472975D01*
X28783642Y19472975D02*
X28638500Y19545547D01*
X28638500Y19545547D02*
X28275642Y19545547D01*
X28275642Y19545547D02*
X28130500Y19472975D01*
X28130500Y19472975D02*
X28057928Y19400404D01*
X28057928Y19400404D02*
X27985357Y19255261D01*
X27985357Y19255261D02*
X27985357Y18892404D01*
X27985357Y18892404D02*
X28057928Y18747261D01*
X28057928Y18747261D02*
X28130500Y18674690D01*
X28130500Y18674690D02*
X28275642Y18602118D01*
X28275642Y18602118D02*
X28638500Y18602118D01*
X28638500Y18602118D02*
X28783642Y18674690D01*
X28783642Y18674690D02*
X28856214Y18747261D01*
D11*
X26791677Y20820832D02*
X26553401Y20820832D01*
X26839332Y20677866D02*
X26672539Y21178246D01*
X26672539Y21178246D02*
X26505746Y20677866D01*
X33102791Y20776926D02*
X33102791Y21277306D01*
X32816860Y20776926D02*
X33031309Y21062857D01*
X32816860Y21277306D02*
X33102791Y20991374D01*
D10*
X15503071Y18602118D02*
X15503071Y20126118D01*
X15503071Y20126118D02*
X15140214Y20126118D01*
X15140214Y20126118D02*
X14922500Y20053547D01*
X14922500Y20053547D02*
X14777357Y19908404D01*
X14777357Y19908404D02*
X14704786Y19763261D01*
X14704786Y19763261D02*
X14632214Y19472975D01*
X14632214Y19472975D02*
X14632214Y19255261D01*
X14632214Y19255261D02*
X14704786Y18964975D01*
X14704786Y18964975D02*
X14777357Y18819832D01*
X14777357Y18819832D02*
X14922500Y18674690D01*
X14922500Y18674690D02*
X15140214Y18602118D01*
X15140214Y18602118D02*
X15503071Y18602118D01*
X13180786Y18602118D02*
X14051643Y18602118D01*
X13616214Y18602118D02*
X13616214Y20126118D01*
X13616214Y20126118D02*
X13761357Y19908404D01*
X13761357Y19908404D02*
X13906500Y19763261D01*
X13906500Y19763261D02*
X14051643Y19690690D01*
X11874500Y20126118D02*
X12164785Y20126118D01*
X12164785Y20126118D02*
X12309928Y20053547D01*
X12309928Y20053547D02*
X12382500Y19980975D01*
X12382500Y19980975D02*
X12527642Y19763261D01*
X12527642Y19763261D02*
X12600214Y19472975D01*
X12600214Y19472975D02*
X12600214Y18892404D01*
X12600214Y18892404D02*
X12527642Y18747261D01*
X12527642Y18747261D02*
X12455071Y18674690D01*
X12455071Y18674690D02*
X12309928Y18602118D01*
X12309928Y18602118D02*
X12019642Y18602118D01*
X12019642Y18602118D02*
X11874500Y18674690D01*
X11874500Y18674690D02*
X11801928Y18747261D01*
X11801928Y18747261D02*
X11729357Y18892404D01*
X11729357Y18892404D02*
X11729357Y19255261D01*
X11729357Y19255261D02*
X11801928Y19400404D01*
X11801928Y19400404D02*
X11874500Y19472975D01*
X11874500Y19472975D02*
X12019642Y19545547D01*
X12019642Y19545547D02*
X12309928Y19545547D01*
X12309928Y19545547D02*
X12455071Y19472975D01*
X12455071Y19472975D02*
X12527642Y19400404D01*
X12527642Y19400404D02*
X12600214Y19255261D01*
D11*
X16846791Y20776926D02*
X16846791Y21277306D01*
X16560860Y20776926D02*
X16775309Y21062857D01*
X16560860Y21277306D02*
X16846791Y20991374D01*
X10535677Y20820832D02*
X10297401Y20820832D01*
X10583332Y20677866D02*
X10416539Y21178246D01*
X10416539Y21178246D02*
X10249746Y20677866D01*
D10*
X17973881Y36839071D02*
X16449881Y36839071D01*
X16449881Y36839071D02*
X16449881Y36476214D01*
X16449881Y36476214D02*
X16522452Y36258500D01*
X16522452Y36258500D02*
X16667595Y36113357D01*
X16667595Y36113357D02*
X16812738Y36040786D01*
X16812738Y36040786D02*
X17103024Y35968214D01*
X17103024Y35968214D02*
X17320738Y35968214D01*
X17320738Y35968214D02*
X17611024Y36040786D01*
X17611024Y36040786D02*
X17756167Y36113357D01*
X17756167Y36113357D02*
X17901310Y36258500D01*
X17901310Y36258500D02*
X17973881Y36476214D01*
X17973881Y36476214D02*
X17973881Y36839071D01*
X17973881Y34516786D02*
X17973881Y35387643D01*
X17973881Y34952214D02*
X16449881Y34952214D01*
X16449881Y34952214D02*
X16667595Y35097357D01*
X16667595Y35097357D02*
X16812738Y35242500D01*
X16812738Y35242500D02*
X16885310Y35387643D01*
X16449881Y34008785D02*
X16449881Y32992785D01*
X16449881Y32992785D02*
X17973881Y33645928D01*
D11*
X15755167Y31871677D02*
X15755167Y31633401D01*
X15898133Y31919332D02*
X15397753Y31752539D01*
X15397753Y31752539D02*
X15898133Y31585746D01*
X15799073Y38182791D02*
X15298693Y38182791D01*
X15799073Y37896860D02*
X15513142Y38111309D01*
X15298693Y37896860D02*
X15584625Y38182791D01*
D10*
X23053881Y36839071D02*
X21529881Y36839071D01*
X21529881Y36839071D02*
X21529881Y36476214D01*
X21529881Y36476214D02*
X21602452Y36258500D01*
X21602452Y36258500D02*
X21747595Y36113357D01*
X21747595Y36113357D02*
X21892738Y36040786D01*
X21892738Y36040786D02*
X22183024Y35968214D01*
X22183024Y35968214D02*
X22400738Y35968214D01*
X22400738Y35968214D02*
X22691024Y36040786D01*
X22691024Y36040786D02*
X22836167Y36113357D01*
X22836167Y36113357D02*
X22981310Y36258500D01*
X22981310Y36258500D02*
X23053881Y36476214D01*
X23053881Y36476214D02*
X23053881Y36839071D01*
X23053881Y34516786D02*
X23053881Y35387643D01*
X23053881Y34952214D02*
X21529881Y34952214D01*
X21529881Y34952214D02*
X21747595Y35097357D01*
X21747595Y35097357D02*
X21892738Y35242500D01*
X21892738Y35242500D02*
X21965310Y35387643D01*
X22183024Y33645928D02*
X22110452Y33791071D01*
X22110452Y33791071D02*
X22037881Y33863642D01*
X22037881Y33863642D02*
X21892738Y33936214D01*
X21892738Y33936214D02*
X21820167Y33936214D01*
X21820167Y33936214D02*
X21675024Y33863642D01*
X21675024Y33863642D02*
X21602452Y33791071D01*
X21602452Y33791071D02*
X21529881Y33645928D01*
X21529881Y33645928D02*
X21529881Y33355642D01*
X21529881Y33355642D02*
X21602452Y33210500D01*
X21602452Y33210500D02*
X21675024Y33137928D01*
X21675024Y33137928D02*
X21820167Y33065357D01*
X21820167Y33065357D02*
X21892738Y33065357D01*
X21892738Y33065357D02*
X22037881Y33137928D01*
X22037881Y33137928D02*
X22110452Y33210500D01*
X22110452Y33210500D02*
X22183024Y33355642D01*
X22183024Y33355642D02*
X22183024Y33645928D01*
X22183024Y33645928D02*
X22255595Y33791071D01*
X22255595Y33791071D02*
X22328167Y33863642D01*
X22328167Y33863642D02*
X22473310Y33936214D01*
X22473310Y33936214D02*
X22763595Y33936214D01*
X22763595Y33936214D02*
X22908738Y33863642D01*
X22908738Y33863642D02*
X22981310Y33791071D01*
X22981310Y33791071D02*
X23053881Y33645928D01*
X23053881Y33645928D02*
X23053881Y33355642D01*
X23053881Y33355642D02*
X22981310Y33210500D01*
X22981310Y33210500D02*
X22908738Y33137928D01*
X22908738Y33137928D02*
X22763595Y33065357D01*
X22763595Y33065357D02*
X22473310Y33065357D01*
X22473310Y33065357D02*
X22328167Y33137928D01*
X22328167Y33137928D02*
X22255595Y33210500D01*
X22255595Y33210500D02*
X22183024Y33355642D01*
D11*
X20879073Y38182791D02*
X20378693Y38182791D01*
X20879073Y37896860D02*
X20593142Y38111309D01*
X20378693Y37896860D02*
X20664625Y38182791D01*
X20835167Y31871677D02*
X20835167Y31633401D01*
X20978133Y31919332D02*
X20477753Y31752539D01*
X20477753Y31752539D02*
X20978133Y31585746D01*
D10*
X7375071Y27746118D02*
X7375071Y29270118D01*
X7375071Y29270118D02*
X7012214Y29270118D01*
X7012214Y29270118D02*
X6794500Y29197547D01*
X6794500Y29197547D02*
X6649357Y29052404D01*
X6649357Y29052404D02*
X6576786Y28907261D01*
X6576786Y28907261D02*
X6504214Y28616975D01*
X6504214Y28616975D02*
X6504214Y28399261D01*
X6504214Y28399261D02*
X6576786Y28108975D01*
X6576786Y28108975D02*
X6649357Y27963832D01*
X6649357Y27963832D02*
X6794500Y27818690D01*
X6794500Y27818690D02*
X7012214Y27746118D01*
X7012214Y27746118D02*
X7375071Y27746118D01*
X5052786Y27746118D02*
X5923643Y27746118D01*
X5488214Y27746118D02*
X5488214Y29270118D01*
X5488214Y29270118D02*
X5633357Y29052404D01*
X5633357Y29052404D02*
X5778500Y28907261D01*
X5778500Y28907261D02*
X5923643Y28834690D01*
X4327071Y27746118D02*
X4036785Y27746118D01*
X4036785Y27746118D02*
X3891642Y27818690D01*
X3891642Y27818690D02*
X3819071Y27891261D01*
X3819071Y27891261D02*
X3673928Y28108975D01*
X3673928Y28108975D02*
X3601357Y28399261D01*
X3601357Y28399261D02*
X3601357Y28979832D01*
X3601357Y28979832D02*
X3673928Y29124975D01*
X3673928Y29124975D02*
X3746500Y29197547D01*
X3746500Y29197547D02*
X3891642Y29270118D01*
X3891642Y29270118D02*
X4181928Y29270118D01*
X4181928Y29270118D02*
X4327071Y29197547D01*
X4327071Y29197547D02*
X4399642Y29124975D01*
X4399642Y29124975D02*
X4472214Y28979832D01*
X4472214Y28979832D02*
X4472214Y28616975D01*
X4472214Y28616975D02*
X4399642Y28471832D01*
X4399642Y28471832D02*
X4327071Y28399261D01*
X4327071Y28399261D02*
X4181928Y28326690D01*
X4181928Y28326690D02*
X3891642Y28326690D01*
X3891642Y28326690D02*
X3746500Y28399261D01*
X3746500Y28399261D02*
X3673928Y28471832D01*
X3673928Y28471832D02*
X3601357Y28616975D01*
D11*
X2407677Y29964832D02*
X2169401Y29964832D01*
X2455332Y29821866D02*
X2288539Y30322246D01*
X2288539Y30322246D02*
X2121746Y29821866D01*
X8718791Y29920926D02*
X8718791Y30421306D01*
X8432860Y29920926D02*
X8647309Y30206857D01*
X8432860Y30421306D02*
X8718791Y30135374D01*
D10*
X31759071Y14030118D02*
X31759071Y15554118D01*
X31759071Y15554118D02*
X31396214Y15554118D01*
X31396214Y15554118D02*
X31178500Y15481547D01*
X31178500Y15481547D02*
X31033357Y15336404D01*
X31033357Y15336404D02*
X30960786Y15191261D01*
X30960786Y15191261D02*
X30888214Y14900975D01*
X30888214Y14900975D02*
X30888214Y14683261D01*
X30888214Y14683261D02*
X30960786Y14392975D01*
X30960786Y14392975D02*
X31033357Y14247832D01*
X31033357Y14247832D02*
X31178500Y14102690D01*
X31178500Y14102690D02*
X31396214Y14030118D01*
X31396214Y14030118D02*
X31759071Y14030118D01*
X30307643Y15408975D02*
X30235071Y15481547D01*
X30235071Y15481547D02*
X30089929Y15554118D01*
X30089929Y15554118D02*
X29727071Y15554118D01*
X29727071Y15554118D02*
X29581929Y15481547D01*
X29581929Y15481547D02*
X29509357Y15408975D01*
X29509357Y15408975D02*
X29436786Y15263832D01*
X29436786Y15263832D02*
X29436786Y15118690D01*
X29436786Y15118690D02*
X29509357Y14900975D01*
X29509357Y14900975D02*
X30380214Y14030118D01*
X30380214Y14030118D02*
X29436786Y14030118D01*
X28493357Y15554118D02*
X28348214Y15554118D01*
X28348214Y15554118D02*
X28203071Y15481547D01*
X28203071Y15481547D02*
X28130500Y15408975D01*
X28130500Y15408975D02*
X28057928Y15263832D01*
X28057928Y15263832D02*
X27985357Y14973547D01*
X27985357Y14973547D02*
X27985357Y14610690D01*
X27985357Y14610690D02*
X28057928Y14320404D01*
X28057928Y14320404D02*
X28130500Y14175261D01*
X28130500Y14175261D02*
X28203071Y14102690D01*
X28203071Y14102690D02*
X28348214Y14030118D01*
X28348214Y14030118D02*
X28493357Y14030118D01*
X28493357Y14030118D02*
X28638500Y14102690D01*
X28638500Y14102690D02*
X28711071Y14175261D01*
X28711071Y14175261D02*
X28783642Y14320404D01*
X28783642Y14320404D02*
X28856214Y14610690D01*
X28856214Y14610690D02*
X28856214Y14973547D01*
X28856214Y14973547D02*
X28783642Y15263832D01*
X28783642Y15263832D02*
X28711071Y15408975D01*
X28711071Y15408975D02*
X28638500Y15481547D01*
X28638500Y15481547D02*
X28493357Y15554118D01*
D11*
X26791677Y16248832D02*
X26553401Y16248832D01*
X26839332Y16105866D02*
X26672539Y16606246D01*
X26672539Y16606246D02*
X26505746Y16105866D01*
X33102791Y16204926D02*
X33102791Y16705306D01*
X32816860Y16204926D02*
X33031309Y16490857D01*
X32816860Y16705306D02*
X33102791Y16419374D01*
D10*
X15503071Y14030118D02*
X15503071Y15554118D01*
X15503071Y15554118D02*
X15140214Y15554118D01*
X15140214Y15554118D02*
X14922500Y15481547D01*
X14922500Y15481547D02*
X14777357Y15336404D01*
X14777357Y15336404D02*
X14704786Y15191261D01*
X14704786Y15191261D02*
X14632214Y14900975D01*
X14632214Y14900975D02*
X14632214Y14683261D01*
X14632214Y14683261D02*
X14704786Y14392975D01*
X14704786Y14392975D02*
X14777357Y14247832D01*
X14777357Y14247832D02*
X14922500Y14102690D01*
X14922500Y14102690D02*
X15140214Y14030118D01*
X15140214Y14030118D02*
X15503071Y14030118D01*
X14051643Y15408975D02*
X13979071Y15481547D01*
X13979071Y15481547D02*
X13833929Y15554118D01*
X13833929Y15554118D02*
X13471071Y15554118D01*
X13471071Y15554118D02*
X13325929Y15481547D01*
X13325929Y15481547D02*
X13253357Y15408975D01*
X13253357Y15408975D02*
X13180786Y15263832D01*
X13180786Y15263832D02*
X13180786Y15118690D01*
X13180786Y15118690D02*
X13253357Y14900975D01*
X13253357Y14900975D02*
X14124214Y14030118D01*
X14124214Y14030118D02*
X13180786Y14030118D01*
X11729357Y14030118D02*
X12600214Y14030118D01*
X12164785Y14030118D02*
X12164785Y15554118D01*
X12164785Y15554118D02*
X12309928Y15336404D01*
X12309928Y15336404D02*
X12455071Y15191261D01*
X12455071Y15191261D02*
X12600214Y15118690D01*
D11*
X16846791Y16204926D02*
X16846791Y16705306D01*
X16560860Y16204926D02*
X16775309Y16490857D01*
X16560860Y16705306D02*
X16846791Y16419374D01*
X10535677Y16248832D02*
X10297401Y16248832D01*
X10583332Y16105866D02*
X10416539Y16606246D01*
X10416539Y16606246D02*
X10249746Y16105866D01*
D10*
X7375071Y14030118D02*
X7375071Y15554118D01*
X7375071Y15554118D02*
X7012214Y15554118D01*
X7012214Y15554118D02*
X6794500Y15481547D01*
X6794500Y15481547D02*
X6649357Y15336404D01*
X6649357Y15336404D02*
X6576786Y15191261D01*
X6576786Y15191261D02*
X6504214Y14900975D01*
X6504214Y14900975D02*
X6504214Y14683261D01*
X6504214Y14683261D02*
X6576786Y14392975D01*
X6576786Y14392975D02*
X6649357Y14247832D01*
X6649357Y14247832D02*
X6794500Y14102690D01*
X6794500Y14102690D02*
X7012214Y14030118D01*
X7012214Y14030118D02*
X7375071Y14030118D01*
X5923643Y15408975D02*
X5851071Y15481547D01*
X5851071Y15481547D02*
X5705929Y15554118D01*
X5705929Y15554118D02*
X5343071Y15554118D01*
X5343071Y15554118D02*
X5197929Y15481547D01*
X5197929Y15481547D02*
X5125357Y15408975D01*
X5125357Y15408975D02*
X5052786Y15263832D01*
X5052786Y15263832D02*
X5052786Y15118690D01*
X5052786Y15118690D02*
X5125357Y14900975D01*
X5125357Y14900975D02*
X5996214Y14030118D01*
X5996214Y14030118D02*
X5052786Y14030118D01*
X4472214Y15408975D02*
X4399642Y15481547D01*
X4399642Y15481547D02*
X4254500Y15554118D01*
X4254500Y15554118D02*
X3891642Y15554118D01*
X3891642Y15554118D02*
X3746500Y15481547D01*
X3746500Y15481547D02*
X3673928Y15408975D01*
X3673928Y15408975D02*
X3601357Y15263832D01*
X3601357Y15263832D02*
X3601357Y15118690D01*
X3601357Y15118690D02*
X3673928Y14900975D01*
X3673928Y14900975D02*
X4544785Y14030118D01*
X4544785Y14030118D02*
X3601357Y14030118D01*
D11*
X2407677Y16248832D02*
X2169401Y16248832D01*
X2455332Y16105866D02*
X2288539Y16606246D01*
X2288539Y16606246D02*
X2121746Y16105866D01*
X8718791Y16204926D02*
X8718791Y16705306D01*
X8432860Y16204926D02*
X8647309Y16490857D01*
X8432860Y16705306D02*
X8718791Y16419374D01*
D10*
X23631071Y14030118D02*
X23631071Y15554118D01*
X23631071Y15554118D02*
X23268214Y15554118D01*
X23268214Y15554118D02*
X23050500Y15481547D01*
X23050500Y15481547D02*
X22905357Y15336404D01*
X22905357Y15336404D02*
X22832786Y15191261D01*
X22832786Y15191261D02*
X22760214Y14900975D01*
X22760214Y14900975D02*
X22760214Y14683261D01*
X22760214Y14683261D02*
X22832786Y14392975D01*
X22832786Y14392975D02*
X22905357Y14247832D01*
X22905357Y14247832D02*
X23050500Y14102690D01*
X23050500Y14102690D02*
X23268214Y14030118D01*
X23268214Y14030118D02*
X23631071Y14030118D01*
X22179643Y15408975D02*
X22107071Y15481547D01*
X22107071Y15481547D02*
X21961929Y15554118D01*
X21961929Y15554118D02*
X21599071Y15554118D01*
X21599071Y15554118D02*
X21453929Y15481547D01*
X21453929Y15481547D02*
X21381357Y15408975D01*
X21381357Y15408975D02*
X21308786Y15263832D01*
X21308786Y15263832D02*
X21308786Y15118690D01*
X21308786Y15118690D02*
X21381357Y14900975D01*
X21381357Y14900975D02*
X22252214Y14030118D01*
X22252214Y14030118D02*
X21308786Y14030118D01*
X20800785Y15554118D02*
X19857357Y15554118D01*
X19857357Y15554118D02*
X20365357Y14973547D01*
X20365357Y14973547D02*
X20147642Y14973547D01*
X20147642Y14973547D02*
X20002500Y14900975D01*
X20002500Y14900975D02*
X19929928Y14828404D01*
X19929928Y14828404D02*
X19857357Y14683261D01*
X19857357Y14683261D02*
X19857357Y14320404D01*
X19857357Y14320404D02*
X19929928Y14175261D01*
X19929928Y14175261D02*
X20002500Y14102690D01*
X20002500Y14102690D02*
X20147642Y14030118D01*
X20147642Y14030118D02*
X20583071Y14030118D01*
X20583071Y14030118D02*
X20728214Y14102690D01*
X20728214Y14102690D02*
X20800785Y14175261D01*
D11*
X24974791Y16204926D02*
X24974791Y16705306D01*
X24688860Y16204926D02*
X24903309Y16490857D01*
X24688860Y16705306D02*
X24974791Y16419374D01*
X18663677Y16248832D02*
X18425401Y16248832D01*
X18711332Y16105866D02*
X18544539Y16606246D01*
X18544539Y16606246D02*
X18377746Y16105866D01*
D10*
X23631071Y9458118D02*
X23631071Y10982118D01*
X23631071Y10982118D02*
X23268214Y10982118D01*
X23268214Y10982118D02*
X23050500Y10909547D01*
X23050500Y10909547D02*
X22905357Y10764404D01*
X22905357Y10764404D02*
X22832786Y10619261D01*
X22832786Y10619261D02*
X22760214Y10328975D01*
X22760214Y10328975D02*
X22760214Y10111261D01*
X22760214Y10111261D02*
X22832786Y9820975D01*
X22832786Y9820975D02*
X22905357Y9675832D01*
X22905357Y9675832D02*
X23050500Y9530690D01*
X23050500Y9530690D02*
X23268214Y9458118D01*
X23268214Y9458118D02*
X23631071Y9458118D01*
X22179643Y10836975D02*
X22107071Y10909547D01*
X22107071Y10909547D02*
X21961929Y10982118D01*
X21961929Y10982118D02*
X21599071Y10982118D01*
X21599071Y10982118D02*
X21453929Y10909547D01*
X21453929Y10909547D02*
X21381357Y10836975D01*
X21381357Y10836975D02*
X21308786Y10691832D01*
X21308786Y10691832D02*
X21308786Y10546690D01*
X21308786Y10546690D02*
X21381357Y10328975D01*
X21381357Y10328975D02*
X22252214Y9458118D01*
X22252214Y9458118D02*
X21308786Y9458118D01*
X20002500Y10474118D02*
X20002500Y9458118D01*
X20365357Y11054690D02*
X20728214Y9966118D01*
X20728214Y9966118D02*
X19784785Y9966118D01*
D11*
X18663677Y11676832D02*
X18425401Y11676832D01*
X18711332Y11533866D02*
X18544539Y12034246D01*
X18544539Y12034246D02*
X18377746Y11533866D01*
X24974791Y11632926D02*
X24974791Y12133306D01*
X24688860Y11632926D02*
X24903309Y11918857D01*
X24688860Y12133306D02*
X24974791Y11847374D01*
D10*
X15503071Y9458118D02*
X15503071Y10982118D01*
X15503071Y10982118D02*
X15140214Y10982118D01*
X15140214Y10982118D02*
X14922500Y10909547D01*
X14922500Y10909547D02*
X14777357Y10764404D01*
X14777357Y10764404D02*
X14704786Y10619261D01*
X14704786Y10619261D02*
X14632214Y10328975D01*
X14632214Y10328975D02*
X14632214Y10111261D01*
X14632214Y10111261D02*
X14704786Y9820975D01*
X14704786Y9820975D02*
X14777357Y9675832D01*
X14777357Y9675832D02*
X14922500Y9530690D01*
X14922500Y9530690D02*
X15140214Y9458118D01*
X15140214Y9458118D02*
X15503071Y9458118D01*
X14051643Y10836975D02*
X13979071Y10909547D01*
X13979071Y10909547D02*
X13833929Y10982118D01*
X13833929Y10982118D02*
X13471071Y10982118D01*
X13471071Y10982118D02*
X13325929Y10909547D01*
X13325929Y10909547D02*
X13253357Y10836975D01*
X13253357Y10836975D02*
X13180786Y10691832D01*
X13180786Y10691832D02*
X13180786Y10546690D01*
X13180786Y10546690D02*
X13253357Y10328975D01*
X13253357Y10328975D02*
X14124214Y9458118D01*
X14124214Y9458118D02*
X13180786Y9458118D01*
X11801928Y10982118D02*
X12527642Y10982118D01*
X12527642Y10982118D02*
X12600214Y10256404D01*
X12600214Y10256404D02*
X12527642Y10328975D01*
X12527642Y10328975D02*
X12382500Y10401547D01*
X12382500Y10401547D02*
X12019642Y10401547D01*
X12019642Y10401547D02*
X11874500Y10328975D01*
X11874500Y10328975D02*
X11801928Y10256404D01*
X11801928Y10256404D02*
X11729357Y10111261D01*
X11729357Y10111261D02*
X11729357Y9748404D01*
X11729357Y9748404D02*
X11801928Y9603261D01*
X11801928Y9603261D02*
X11874500Y9530690D01*
X11874500Y9530690D02*
X12019642Y9458118D01*
X12019642Y9458118D02*
X12382500Y9458118D01*
X12382500Y9458118D02*
X12527642Y9530690D01*
X12527642Y9530690D02*
X12600214Y9603261D01*
D11*
X10535677Y11676832D02*
X10297401Y11676832D01*
X10583332Y11533866D02*
X10416539Y12034246D01*
X10416539Y12034246D02*
X10249746Y11533866D01*
X16846791Y11632926D02*
X16846791Y12133306D01*
X16560860Y11632926D02*
X16775309Y11918857D01*
X16560860Y12133306D02*
X16846791Y11847374D01*
D10*
X37785881Y19059071D02*
X36261881Y19059071D01*
X36261881Y19059071D02*
X36261881Y18696214D01*
X36261881Y18696214D02*
X36334452Y18478500D01*
X36334452Y18478500D02*
X36479595Y18333357D01*
X36479595Y18333357D02*
X36624738Y18260786D01*
X36624738Y18260786D02*
X36915024Y18188214D01*
X36915024Y18188214D02*
X37132738Y18188214D01*
X37132738Y18188214D02*
X37423024Y18260786D01*
X37423024Y18260786D02*
X37568167Y18333357D01*
X37568167Y18333357D02*
X37713310Y18478500D01*
X37713310Y18478500D02*
X37785881Y18696214D01*
X37785881Y18696214D02*
X37785881Y19059071D01*
X36407024Y17607643D02*
X36334452Y17535071D01*
X36334452Y17535071D02*
X36261881Y17389929D01*
X36261881Y17389929D02*
X36261881Y17027071D01*
X36261881Y17027071D02*
X36334452Y16881929D01*
X36334452Y16881929D02*
X36407024Y16809357D01*
X36407024Y16809357D02*
X36552167Y16736786D01*
X36552167Y16736786D02*
X36697310Y16736786D01*
X36697310Y16736786D02*
X36915024Y16809357D01*
X36915024Y16809357D02*
X37785881Y17680214D01*
X37785881Y17680214D02*
X37785881Y16736786D01*
X36261881Y15430500D02*
X36261881Y15720785D01*
X36261881Y15720785D02*
X36334452Y15865928D01*
X36334452Y15865928D02*
X36407024Y15938500D01*
X36407024Y15938500D02*
X36624738Y16083642D01*
X36624738Y16083642D02*
X36915024Y16156214D01*
X36915024Y16156214D02*
X37495595Y16156214D01*
X37495595Y16156214D02*
X37640738Y16083642D01*
X37640738Y16083642D02*
X37713310Y16011071D01*
X37713310Y16011071D02*
X37785881Y15865928D01*
X37785881Y15865928D02*
X37785881Y15575642D01*
X37785881Y15575642D02*
X37713310Y15430500D01*
X37713310Y15430500D02*
X37640738Y15357928D01*
X37640738Y15357928D02*
X37495595Y15285357D01*
X37495595Y15285357D02*
X37132738Y15285357D01*
X37132738Y15285357D02*
X36987595Y15357928D01*
X36987595Y15357928D02*
X36915024Y15430500D01*
X36915024Y15430500D02*
X36842452Y15575642D01*
X36842452Y15575642D02*
X36842452Y15865928D01*
X36842452Y15865928D02*
X36915024Y16011071D01*
X36915024Y16011071D02*
X36987595Y16083642D01*
X36987595Y16083642D02*
X37132738Y16156214D01*
D11*
X35611073Y20402791D02*
X35110693Y20402791D01*
X35611073Y20116860D02*
X35325142Y20331309D01*
X35110693Y20116860D02*
X35396625Y20402791D01*
X35567167Y14091677D02*
X35567167Y13853401D01*
X35710133Y14139332D02*
X35209753Y13972539D01*
X35209753Y13972539D02*
X35710133Y13805746D01*
D12*
%TO.C,D1*%
X19544000Y30298000D02*
X19544000Y29847540D01*
X19544000Y30298000D02*
X24144000Y30298000D01*
X19544000Y26598000D02*
X19544000Y27048460D01*
X19544000Y26598000D02*
X24144000Y26598000D01*
X23644860Y30298000D02*
X23644860Y29847540D01*
X23644860Y26598000D02*
X23644860Y27048460D01*
X24144000Y30298000D02*
X24144000Y29847540D01*
X24144000Y26598000D02*
X24144000Y27048460D01*
%TO.C,D2*%
X19544000Y25726000D02*
X19544000Y25275540D01*
X19544000Y25726000D02*
X24144000Y25726000D01*
X19544000Y22026000D02*
X19544000Y22476460D01*
X19544000Y22026000D02*
X24144000Y22026000D01*
X23644860Y25726000D02*
X23644860Y25275540D01*
X23644860Y22026000D02*
X23644860Y22476460D01*
X24144000Y25726000D02*
X24144000Y25275540D01*
X24144000Y22026000D02*
X24144000Y22476460D01*
%TO.C,D3*%
X27672000Y25726000D02*
X27672000Y25275540D01*
X27672000Y25726000D02*
X32272000Y25726000D01*
X27672000Y22026000D02*
X27672000Y22476460D01*
X27672000Y22026000D02*
X32272000Y22026000D01*
X31772860Y25726000D02*
X31772860Y25275540D01*
X31772860Y22026000D02*
X31772860Y22476460D01*
X32272000Y25726000D02*
X32272000Y25275540D01*
X32272000Y22026000D02*
X32272000Y22476460D01*
%TO.C,D4*%
X3288000Y21154000D02*
X3288000Y20703540D01*
X3288000Y21154000D02*
X7888000Y21154000D01*
X3288000Y17454000D02*
X3288000Y17904460D01*
X3288000Y17454000D02*
X7888000Y17454000D01*
X7388860Y21154000D02*
X7388860Y20703540D01*
X7388860Y17454000D02*
X7388860Y17904460D01*
X7888000Y21154000D02*
X7888000Y20703540D01*
X7888000Y17454000D02*
X7888000Y17904460D01*
%TO.C,D5*%
X35234000Y24116000D02*
X35684460Y24116000D01*
X35234000Y24116000D02*
X35234000Y28716000D01*
X38934000Y24116000D02*
X38483540Y24116000D01*
X38934000Y24116000D02*
X38934000Y28716000D01*
X35234000Y28216860D02*
X35684460Y28216860D01*
X38934000Y28216860D02*
X38483540Y28216860D01*
X35234000Y28716000D02*
X35684460Y28716000D01*
X38934000Y28716000D02*
X38483540Y28716000D01*
%TO.C,D6*%
X3288000Y25726000D02*
X3288000Y25275540D01*
X3288000Y25726000D02*
X7888000Y25726000D01*
X3288000Y22026000D02*
X3288000Y22476460D01*
X3288000Y22026000D02*
X7888000Y22026000D01*
X7388860Y25726000D02*
X7388860Y25275540D01*
X7388860Y22026000D02*
X7388860Y22476460D01*
X7888000Y25726000D02*
X7888000Y25275540D01*
X7888000Y22026000D02*
X7888000Y22476460D01*
%TO.C,D7*%
X11416000Y25726000D02*
X11416000Y25275540D01*
X11416000Y25726000D02*
X16016000Y25726000D01*
X11416000Y22026000D02*
X11416000Y22476460D01*
X11416000Y22026000D02*
X16016000Y22026000D01*
X15516860Y25726000D02*
X15516860Y25275540D01*
X15516860Y22026000D02*
X15516860Y22476460D01*
X16016000Y25726000D02*
X16016000Y25275540D01*
X16016000Y22026000D02*
X16016000Y22476460D01*
%TO.C,D8*%
X27672000Y12010000D02*
X27672000Y11559540D01*
X27672000Y12010000D02*
X32272000Y12010000D01*
X27672000Y8310000D02*
X27672000Y8760460D01*
X27672000Y8310000D02*
X32272000Y8310000D01*
X31772860Y12010000D02*
X31772860Y11559540D01*
X31772860Y8310000D02*
X31772860Y8760460D01*
X32272000Y12010000D02*
X32272000Y11559540D01*
X32272000Y8310000D02*
X32272000Y8760460D01*
%TO.C,D9*%
X11416000Y6930000D02*
X11416000Y6479540D01*
X11416000Y6930000D02*
X16016000Y6930000D01*
X11416000Y3230000D02*
X11416000Y3680460D01*
X11416000Y3230000D02*
X16016000Y3230000D01*
X15516860Y6930000D02*
X15516860Y6479540D01*
X15516860Y3230000D02*
X15516860Y3680460D01*
X16016000Y6930000D02*
X16016000Y6479540D01*
X16016000Y3230000D02*
X16016000Y3680460D01*
%TO.C,D10*%
X27672000Y30298000D02*
X27672000Y29847540D01*
X27672000Y30298000D02*
X32272000Y30298000D01*
X27672000Y26598000D02*
X27672000Y27048460D01*
X27672000Y26598000D02*
X32272000Y26598000D01*
X31772860Y30298000D02*
X31772860Y29847540D01*
X31772860Y26598000D02*
X31772860Y27048460D01*
X32272000Y30298000D02*
X32272000Y29847540D01*
X32272000Y26598000D02*
X32272000Y27048460D01*
%TO.C,D11*%
X25582000Y32752000D02*
X26032460Y32752000D01*
X25582000Y32752000D02*
X25582000Y37352000D01*
X29282000Y32752000D02*
X28831540Y32752000D01*
X29282000Y32752000D02*
X29282000Y37352000D01*
X25582000Y36852860D02*
X26032460Y36852860D01*
X29282000Y36852860D02*
X28831540Y36852860D01*
X25582000Y37352000D02*
X26032460Y37352000D01*
X29282000Y37352000D02*
X28831540Y37352000D01*
%TO.C,D12*%
X11416000Y30298000D02*
X11416000Y29847540D01*
X11416000Y30298000D02*
X16016000Y30298000D01*
X11416000Y26598000D02*
X11416000Y27048460D01*
X11416000Y26598000D02*
X16016000Y26598000D01*
X15516860Y30298000D02*
X15516860Y29847540D01*
X15516860Y26598000D02*
X15516860Y27048460D01*
X16016000Y30298000D02*
X16016000Y29847540D01*
X16016000Y26598000D02*
X16016000Y27048460D01*
%TO.C,D13*%
X10342000Y32752000D02*
X10792460Y32752000D01*
X10342000Y32752000D02*
X10342000Y37352000D01*
X14042000Y32752000D02*
X13591540Y32752000D01*
X14042000Y32752000D02*
X14042000Y37352000D01*
X10342000Y36852860D02*
X10792460Y36852860D01*
X14042000Y36852860D02*
X13591540Y36852860D01*
X10342000Y37352000D02*
X10792460Y37352000D01*
X14042000Y37352000D02*
X13591540Y37352000D01*
%TO.C,D14*%
X19544000Y21154000D02*
X19544000Y20703540D01*
X19544000Y21154000D02*
X24144000Y21154000D01*
X19544000Y17454000D02*
X19544000Y17904460D01*
X19544000Y17454000D02*
X24144000Y17454000D01*
X23644860Y21154000D02*
X23644860Y20703540D01*
X23644860Y17454000D02*
X23644860Y17904460D01*
X24144000Y21154000D02*
X24144000Y20703540D01*
X24144000Y17454000D02*
X24144000Y17904460D01*
%TO.C,D15*%
X27672000Y21154000D02*
X27672000Y20703540D01*
X27672000Y21154000D02*
X32272000Y21154000D01*
X27672000Y17454000D02*
X27672000Y17904460D01*
X27672000Y17454000D02*
X32272000Y17454000D01*
X31772860Y21154000D02*
X31772860Y20703540D01*
X31772860Y17454000D02*
X31772860Y17904460D01*
X32272000Y21154000D02*
X32272000Y20703540D01*
X32272000Y17454000D02*
X32272000Y17904460D01*
%TO.C,D16*%
X11416000Y21154000D02*
X11416000Y20703540D01*
X11416000Y21154000D02*
X16016000Y21154000D01*
X11416000Y17454000D02*
X11416000Y17904460D01*
X11416000Y17454000D02*
X16016000Y17454000D01*
X15516860Y21154000D02*
X15516860Y20703540D01*
X15516860Y17454000D02*
X15516860Y17904460D01*
X16016000Y21154000D02*
X16016000Y20703540D01*
X16016000Y17454000D02*
X16016000Y17904460D01*
%TO.C,D17*%
X15422000Y32752000D02*
X15872460Y32752000D01*
X15422000Y32752000D02*
X15422000Y37352000D01*
X19122000Y32752000D02*
X18671540Y32752000D01*
X19122000Y32752000D02*
X19122000Y37352000D01*
X15422000Y36852860D02*
X15872460Y36852860D01*
X19122000Y36852860D02*
X18671540Y36852860D01*
X15422000Y37352000D02*
X15872460Y37352000D01*
X19122000Y37352000D02*
X18671540Y37352000D01*
%TO.C,D18*%
X20502000Y32752000D02*
X20952460Y32752000D01*
X20502000Y32752000D02*
X20502000Y37352000D01*
X24202000Y32752000D02*
X23751540Y32752000D01*
X24202000Y32752000D02*
X24202000Y37352000D01*
X20502000Y36852860D02*
X20952460Y36852860D01*
X24202000Y36852860D02*
X23751540Y36852860D01*
X20502000Y37352000D02*
X20952460Y37352000D01*
X24202000Y37352000D02*
X23751540Y37352000D01*
%TO.C,D19*%
X3288000Y30298000D02*
X3288000Y29847540D01*
X3288000Y30298000D02*
X7888000Y30298000D01*
X3288000Y26598000D02*
X3288000Y27048460D01*
X3288000Y26598000D02*
X7888000Y26598000D01*
X7388860Y30298000D02*
X7388860Y29847540D01*
X7388860Y26598000D02*
X7388860Y27048460D01*
X7888000Y30298000D02*
X7888000Y29847540D01*
X7888000Y26598000D02*
X7888000Y27048460D01*
%TO.C,D20*%
X27672000Y16582000D02*
X27672000Y16131540D01*
X27672000Y16582000D02*
X32272000Y16582000D01*
X27672000Y12882000D02*
X27672000Y13332460D01*
X27672000Y12882000D02*
X32272000Y12882000D01*
X31772860Y16582000D02*
X31772860Y16131540D01*
X31772860Y12882000D02*
X31772860Y13332460D01*
X32272000Y16582000D02*
X32272000Y16131540D01*
X32272000Y12882000D02*
X32272000Y13332460D01*
%TO.C,D21*%
X11416000Y16582000D02*
X11416000Y16131540D01*
X11416000Y16582000D02*
X16016000Y16582000D01*
X11416000Y12882000D02*
X11416000Y13332460D01*
X11416000Y12882000D02*
X16016000Y12882000D01*
X15516860Y16582000D02*
X15516860Y16131540D01*
X15516860Y12882000D02*
X15516860Y13332460D01*
X16016000Y16582000D02*
X16016000Y16131540D01*
X16016000Y12882000D02*
X16016000Y13332460D01*
%TO.C,D22*%
X3288000Y16582000D02*
X3288000Y16131540D01*
X3288000Y16582000D02*
X7888000Y16582000D01*
X3288000Y12882000D02*
X3288000Y13332460D01*
X3288000Y12882000D02*
X7888000Y12882000D01*
X7388860Y16582000D02*
X7388860Y16131540D01*
X7388860Y12882000D02*
X7388860Y13332460D01*
X7888000Y16582000D02*
X7888000Y16131540D01*
X7888000Y12882000D02*
X7888000Y13332460D01*
%TO.C,D23*%
X19544000Y16582000D02*
X19544000Y16131540D01*
X19544000Y16582000D02*
X24144000Y16582000D01*
X19544000Y12882000D02*
X19544000Y13332460D01*
X19544000Y12882000D02*
X24144000Y12882000D01*
X23644860Y16582000D02*
X23644860Y16131540D01*
X23644860Y12882000D02*
X23644860Y13332460D01*
X24144000Y16582000D02*
X24144000Y16131540D01*
X24144000Y12882000D02*
X24144000Y13332460D01*
%TO.C,D24*%
X19544000Y12010000D02*
X19544000Y11559540D01*
X19544000Y12010000D02*
X24144000Y12010000D01*
X19544000Y8310000D02*
X19544000Y8760460D01*
X19544000Y8310000D02*
X24144000Y8310000D01*
X23644860Y12010000D02*
X23644860Y11559540D01*
X23644860Y8310000D02*
X23644860Y8760460D01*
X24144000Y12010000D02*
X24144000Y11559540D01*
X24144000Y8310000D02*
X24144000Y8760460D01*
%TO.C,D25*%
X11416000Y12010000D02*
X11416000Y11559540D01*
X11416000Y12010000D02*
X16016000Y12010000D01*
X11416000Y8310000D02*
X11416000Y8760460D01*
X11416000Y8310000D02*
X16016000Y8310000D01*
X15516860Y12010000D02*
X15516860Y11559540D01*
X15516860Y8310000D02*
X15516860Y8760460D01*
X16016000Y12010000D02*
X16016000Y11559540D01*
X16016000Y8310000D02*
X16016000Y8760460D01*
%TO.C,D26*%
X35234000Y14972000D02*
X35684460Y14972000D01*
X35234000Y14972000D02*
X35234000Y19572000D01*
X38934000Y14972000D02*
X38483540Y14972000D01*
X38934000Y14972000D02*
X38934000Y19572000D01*
X35234000Y19072860D02*
X35684460Y19072860D01*
X38934000Y19072860D02*
X38483540Y19072860D01*
X35234000Y19572000D02*
X35684460Y19572000D01*
X38934000Y19572000D02*
X38483540Y19572000D01*
%TD*%
M02*
