%TF.GenerationSoftware,KiCad,Pcbnew,7.0.11+1*%
%TF.CreationDate,2024-07-04T22:31:09+00:00*%
%TF.ProjectId,PIND01,50494e44-3031-42e6-9b69-6361645f7063,rev?*%
%TF.SameCoordinates,Original*%
%TF.FileFunction,Copper,L2,Bot*%
%TF.FilePolarity,Positive*%
%FSLAX46Y46*%
G04 Gerber Fmt 4.6, Leading zero omitted, Abs format (unit mm)*
G04 Created by KiCad (PCBNEW 7.0.11+1) date 2024-07-04 22:31:09*
%MOMM*%
%LPD*%
G01*
G04 APERTURE LIST*
%TA.AperFunction,ComponentPad*%
%ADD10R,1.524000X1.524000*%
%TD*%
%TA.AperFunction,ComponentPad*%
%ADD11C,6.000000*%
%TD*%
%TA.AperFunction,SMDPad,CuDef*%
%ADD12R,1.400000X2.000000*%
%TD*%
%TA.AperFunction,SMDPad,CuDef*%
%ADD13R,1.400000X1.200000*%
%TD*%
%TA.AperFunction,SMDPad,CuDef*%
%ADD14R,2.000000X1.400000*%
%TD*%
%TA.AperFunction,SMDPad,CuDef*%
%ADD15R,1.200000X1.400000*%
%TD*%
%TA.AperFunction,ViaPad*%
%ADD16C,0.800000*%
%TD*%
%TA.AperFunction,Conductor*%
%ADD17C,1.200000*%
%TD*%
G04 APERTURE END LIST*
D10*
%TO.P,J1,1*%
%TO.N,/A*%
X21336000Y3302000D03*
%TO.P,J1,2*%
X21336000Y5842000D03*
%TD*%
%TO.P,J2,1*%
%TO.N,/K*%
X23876000Y3302000D03*
%TO.P,J2,2*%
X23876000Y5842000D03*
%TD*%
%TO.P,J3,1*%
%TO.N,GNDA*%
X26416000Y3302000D03*
%TO.P,J3,2*%
X26416000Y5842000D03*
%TD*%
%TO.P,J4,1*%
%TO.N,GND*%
X28956000Y3302000D03*
%TO.P,J4,2*%
X28956000Y5842000D03*
%TD*%
D11*
%TO.P,M1,1*%
%TO.N,GND*%
X35560000Y5080000D03*
%TD*%
%TO.P,M2,1*%
%TO.N,GND*%
X5080000Y35560000D03*
%TD*%
%TO.P,M3,1*%
%TO.N,GND*%
X5080000Y5080000D03*
%TD*%
%TO.P,M4,1*%
%TO.N,GND*%
X35560000Y35560000D03*
%TD*%
D12*
%TO.P,D1,1*%
%TO.N,/K*%
X24894000Y28448000D03*
D13*
%TO.P,D1,2*%
%TO.N,/A*%
X18794000Y28448000D03*
%TD*%
D12*
%TO.P,D2,1*%
%TO.N,/K*%
X24894000Y23876000D03*
D13*
%TO.P,D2,2*%
%TO.N,/A*%
X18794000Y23876000D03*
%TD*%
D12*
%TO.P,D3,1*%
%TO.N,/K*%
X33022000Y23876000D03*
D13*
%TO.P,D3,2*%
%TO.N,/A*%
X26922000Y23876000D03*
%TD*%
D12*
%TO.P,D4,1*%
%TO.N,/K*%
X8638000Y19304000D03*
D13*
%TO.P,D4,2*%
%TO.N,/A*%
X2538000Y19304000D03*
%TD*%
D14*
%TO.P,D5,1*%
%TO.N,/K*%
X37084000Y29466000D03*
D15*
%TO.P,D5,2*%
%TO.N,/A*%
X37084000Y23366000D03*
%TD*%
D12*
%TO.P,D6,1*%
%TO.N,/K*%
X8638000Y23876000D03*
D13*
%TO.P,D6,2*%
%TO.N,/A*%
X2538000Y23876000D03*
%TD*%
D12*
%TO.P,D7,1*%
%TO.N,/K*%
X16766000Y23876000D03*
D13*
%TO.P,D7,2*%
%TO.N,/A*%
X10666000Y23876000D03*
%TD*%
D12*
%TO.P,D8,1*%
%TO.N,/K*%
X33022000Y10160000D03*
D13*
%TO.P,D8,2*%
%TO.N,/A*%
X26922000Y10160000D03*
%TD*%
D12*
%TO.P,D9,1*%
%TO.N,/K*%
X16766000Y5080000D03*
D13*
%TO.P,D9,2*%
%TO.N,/A*%
X10666000Y5080000D03*
%TD*%
D12*
%TO.P,D10,1*%
%TO.N,/K*%
X33022000Y28448000D03*
D13*
%TO.P,D10,2*%
%TO.N,/A*%
X26922000Y28448000D03*
%TD*%
D14*
%TO.P,D11,1*%
%TO.N,/K*%
X27432000Y38102000D03*
D15*
%TO.P,D11,2*%
%TO.N,/A*%
X27432000Y32002000D03*
%TD*%
D12*
%TO.P,D12,1*%
%TO.N,/K*%
X16766000Y28448000D03*
D13*
%TO.P,D12,2*%
%TO.N,/A*%
X10666000Y28448000D03*
%TD*%
D14*
%TO.P,D13,1*%
%TO.N,/K*%
X12192000Y38102000D03*
D15*
%TO.P,D13,2*%
%TO.N,/A*%
X12192000Y32002000D03*
%TD*%
D12*
%TO.P,D14,1*%
%TO.N,/K*%
X24894000Y19304000D03*
D13*
%TO.P,D14,2*%
%TO.N,/A*%
X18794000Y19304000D03*
%TD*%
D12*
%TO.P,D15,1*%
%TO.N,/K*%
X33022000Y19304000D03*
D13*
%TO.P,D15,2*%
%TO.N,/A*%
X26922000Y19304000D03*
%TD*%
D12*
%TO.P,D16,1*%
%TO.N,/K*%
X16766000Y19304000D03*
D13*
%TO.P,D16,2*%
%TO.N,/A*%
X10666000Y19304000D03*
%TD*%
D14*
%TO.P,D17,1*%
%TO.N,/K*%
X17272000Y38102000D03*
D15*
%TO.P,D17,2*%
%TO.N,/A*%
X17272000Y32002000D03*
%TD*%
D14*
%TO.P,D18,1*%
%TO.N,/K*%
X22352000Y38102000D03*
D15*
%TO.P,D18,2*%
%TO.N,/A*%
X22352000Y32002000D03*
%TD*%
D12*
%TO.P,D19,1*%
%TO.N,/K*%
X8638000Y28448000D03*
D13*
%TO.P,D19,2*%
%TO.N,/A*%
X2538000Y28448000D03*
%TD*%
D12*
%TO.P,D20,1*%
%TO.N,/K*%
X33022000Y14732000D03*
D13*
%TO.P,D20,2*%
%TO.N,/A*%
X26922000Y14732000D03*
%TD*%
D12*
%TO.P,D21,1*%
%TO.N,/K*%
X16766000Y14732000D03*
D13*
%TO.P,D21,2*%
%TO.N,/A*%
X10666000Y14732000D03*
%TD*%
D12*
%TO.P,D22,1*%
%TO.N,/K*%
X8638000Y14732000D03*
D13*
%TO.P,D22,2*%
%TO.N,/A*%
X2538000Y14732000D03*
%TD*%
D12*
%TO.P,D23,1*%
%TO.N,/K*%
X24894000Y14732000D03*
D13*
%TO.P,D23,2*%
%TO.N,/A*%
X18794000Y14732000D03*
%TD*%
D12*
%TO.P,D24,1*%
%TO.N,/K*%
X24894000Y10160000D03*
D13*
%TO.P,D24,2*%
%TO.N,/A*%
X18794000Y10160000D03*
%TD*%
D12*
%TO.P,D25,1*%
%TO.N,/K*%
X16766000Y10160000D03*
D13*
%TO.P,D25,2*%
%TO.N,/A*%
X10666000Y10160000D03*
%TD*%
D14*
%TO.P,D26,1*%
%TO.N,/K*%
X37084000Y20322000D03*
D15*
%TO.P,D26,2*%
%TO.N,/A*%
X37084000Y14222000D03*
%TD*%
D16*
%TO.N,/K*%
X16766000Y8636000D03*
X30988000Y10160000D03*
X8636000Y12192000D03*
%TO.N,/A*%
X35560000Y14732000D03*
X28448000Y14732000D03*
X20828000Y14732000D03*
X35560000Y23368000D03*
%TO.N,GNDA*%
X13716000Y14732000D03*
X29972000Y18796000D03*
X29972000Y23876000D03*
X21844000Y23876000D03*
X24384000Y34544000D03*
X13716000Y5588000D03*
X8636000Y8636000D03*
X12192000Y6096000D03*
X21844000Y19304000D03*
X26416000Y7804000D03*
X5588000Y14732000D03*
X5588000Y19304000D03*
X36068000Y11176000D03*
X37084000Y16764000D03*
X5588000Y28448000D03*
X19812000Y34544000D03*
X13716000Y23876000D03*
X36576000Y26416000D03*
X14732000Y34544000D03*
X28956000Y8636000D03*
X21844000Y28448000D03*
X29972000Y28448000D03*
X29972000Y34544000D03*
X13716000Y28448000D03*
X29972000Y12700000D03*
X13716000Y19304000D03*
X5588000Y23876000D03*
%TD*%
D17*
%TO.N,/K*%
X24894000Y23876000D02*
X24894000Y19304000D01*
X23876000Y3302000D02*
X23876000Y5842000D01*
X16766000Y5080000D02*
X16766000Y8636000D01*
X37084000Y20322000D02*
X34040000Y20322000D01*
X33022000Y10160000D02*
X33022000Y14732000D01*
X12192000Y38102000D02*
X12192000Y35560000D01*
X8638000Y32006000D02*
X8638000Y28448000D01*
X24894000Y14732000D02*
X24894000Y10160000D01*
X24894000Y19304000D02*
X24894000Y14732000D01*
X27432000Y38102000D02*
X22352000Y38102000D01*
X33022000Y23876000D02*
X33022000Y28448000D01*
X8638000Y28448000D02*
X8638000Y23876000D01*
X34040000Y29466000D02*
X33022000Y28448000D01*
X8638000Y14732000D02*
X8638000Y12194000D01*
X8638000Y19304000D02*
X8638000Y14732000D01*
X24894000Y28448000D02*
X24894000Y23876000D01*
X22352000Y38102000D02*
X17272000Y38102000D01*
X16766000Y19304000D02*
X16766000Y14732000D01*
X8638000Y12194000D02*
X8636000Y12192000D01*
X16766000Y28448000D02*
X16766000Y23876000D01*
X23876000Y9142000D02*
X24894000Y10160000D01*
X17272000Y38102000D02*
X12192000Y38102000D01*
X33022000Y10160000D02*
X30988000Y10160000D01*
X8638000Y23876000D02*
X8638000Y19304000D01*
X23876000Y5842000D02*
X23876000Y9142000D01*
X16766000Y23876000D02*
X16766000Y19304000D01*
X33022000Y19304000D02*
X33022000Y23876000D01*
X34040000Y20322000D02*
X33022000Y19304000D01*
X37084000Y29466000D02*
X34040000Y29466000D01*
X16766000Y14732000D02*
X16766000Y10160000D01*
X33022000Y14732000D02*
X33022000Y19304000D01*
X16766000Y10160000D02*
X16766000Y8636000D01*
X12192000Y35560000D02*
X8638000Y32006000D01*
%TO.N,/A*%
X37084000Y23366000D02*
X35562000Y23366000D01*
X26922000Y28448000D02*
X26922000Y31492000D01*
X18794000Y23876000D02*
X18794000Y28448000D01*
X26922000Y10160000D02*
X26922000Y14732000D01*
X19120000Y3048000D02*
X19374000Y3302000D01*
X10666000Y5080000D02*
X10766000Y5080000D01*
X12192000Y32002000D02*
X17272000Y32002000D01*
X10666000Y23876000D02*
X10666000Y28448000D01*
X12798000Y3048000D02*
X19120000Y3048000D01*
X2538000Y19304000D02*
X2538000Y14732000D01*
X18794000Y19304000D02*
X18794000Y23876000D01*
X26922000Y14732000D02*
X26922000Y19304000D01*
X36574000Y14732000D02*
X37084000Y14222000D01*
X20828000Y14732000D02*
X18794000Y14732000D01*
X18794000Y10160000D02*
X18794000Y15746000D01*
X10766000Y5080000D02*
X12798000Y3048000D01*
X2538000Y23876000D02*
X2538000Y19304000D01*
X35562000Y23366000D02*
X35560000Y23368000D01*
X18794000Y14732000D02*
X18794000Y19304000D01*
X10666000Y10160000D02*
X10666000Y14732000D01*
X19374000Y3302000D02*
X21336000Y3302000D01*
X21336000Y7618000D02*
X18794000Y10160000D01*
X21336000Y5842000D02*
X21336000Y7618000D01*
X10666000Y19304000D02*
X10666000Y23876000D01*
X26922000Y14732000D02*
X28448000Y14732000D01*
X26922000Y31492000D02*
X27432000Y32002000D01*
X2538000Y28448000D02*
X2538000Y23876000D01*
X17272000Y32002000D02*
X18288000Y32002000D01*
X10666000Y14732000D02*
X10666000Y19304000D01*
X27432000Y32002000D02*
X22352000Y32002000D01*
X35560000Y14732000D02*
X36574000Y14732000D01*
X21336000Y3302000D02*
X21336000Y5842000D01*
X10666000Y5080000D02*
X10666000Y10160000D01*
X18288000Y32002000D02*
X22352000Y32002000D01*
X26922000Y19304000D02*
X26922000Y23876000D01*
X26922000Y23876000D02*
X26922000Y28448000D01*
X18794000Y15746000D02*
X18794000Y14732000D01*
X7110000Y10160000D02*
X10666000Y10160000D01*
X2538000Y14732000D02*
X7110000Y10160000D01*
%TO.N,GNDA*%
X30480000Y13208000D02*
X30480000Y18288000D01*
X13716000Y19304000D02*
X13716000Y14732000D01*
X26416000Y3302000D02*
X26416000Y5842000D01*
X29972000Y23876000D02*
X29972000Y28448000D01*
X29972000Y34544000D02*
X24384000Y34544000D01*
X28956000Y8636000D02*
X28956000Y11684000D01*
X21844000Y19304000D02*
X21844000Y23876000D01*
X5588000Y23876000D02*
X5588000Y28448000D01*
X12700000Y5588000D02*
X12192000Y6096000D01*
X13716000Y5588000D02*
X12700000Y5588000D01*
X5588000Y14732000D02*
X5588000Y19304000D01*
X30480000Y18288000D02*
X29972000Y18796000D01*
X13716000Y28448000D02*
X13716000Y23876000D01*
X28956000Y11684000D02*
X29972000Y12700000D01*
X29972000Y12700000D02*
X30480000Y13208000D01*
X19812000Y34544000D02*
X14732000Y34544000D01*
%TO.N,GND*%
X28956000Y3302000D02*
X28956000Y5842000D01*
X35052000Y1524000D02*
X35052000Y4572000D01*
X28956000Y1524000D02*
X35052000Y1524000D01*
X35052000Y4572000D02*
X35560000Y5080000D01*
X5080000Y39116000D02*
X5080000Y35560000D01*
X28956000Y3302000D02*
X28956000Y1524000D01*
X5080000Y1524000D02*
X8128000Y1524000D01*
X35560000Y39116000D02*
X35560000Y35560000D01*
X5080000Y5080000D02*
X5080000Y1524000D01*
%TD*%
%TA.AperFunction,Conductor*%
%TO.N,GND*%
G36*
X40252621Y40290498D02*
G01*
X40299114Y40236842D01*
X40310500Y40184500D01*
X40310500Y455500D01*
X40290498Y387379D01*
X40236842Y340886D01*
X40184500Y329500D01*
X455500Y329500D01*
X387379Y349502D01*
X340886Y403158D01*
X329500Y455500D01*
X329500Y14083350D01*
X1329500Y14083350D01*
X1336009Y14022803D01*
X1336011Y14022795D01*
X1387110Y13885797D01*
X1387112Y13885792D01*
X1474738Y13768738D01*
X1591792Y13681112D01*
X1591797Y13681110D01*
X1728795Y13630011D01*
X1728803Y13630009D01*
X1789350Y13623500D01*
X1789362Y13623500D01*
X2026654Y13623500D01*
X2094775Y13603498D01*
X2115750Y13586595D01*
X2725036Y12977307D01*
X2759061Y12914995D01*
X2753996Y12844179D01*
X2731166Y12805701D01*
X2682135Y12749115D01*
X2636018Y12695892D01*
X2636017Y12695890D01*
X2575301Y12562942D01*
X2555302Y12494830D01*
X2555300Y12494822D01*
X2534500Y12350153D01*
X2534500Y12350149D01*
X2534500Y8743289D01*
X2540226Y8666830D01*
X2540228Y8666808D01*
X2545815Y8629711D01*
X2545820Y8629685D01*
X2562870Y8554930D01*
X2625359Y8422807D01*
X2625364Y8422799D01*
X2664537Y8363601D01*
X2664561Y8363572D01*
X2761728Y8254425D01*
X2885728Y8177064D01*
X2885730Y8177062D01*
X2885732Y8177062D01*
X2950702Y8148437D01*
X2950703Y8148436D01*
X3091472Y8109143D01*
X3091474Y8109143D01*
X3091475Y8109143D01*
X3237619Y8111100D01*
X3237620Y8111100D01*
X3237629Y8111101D01*
X3307745Y8122143D01*
X3307751Y8122144D01*
X3447423Y8165195D01*
X3447427Y8165197D01*
X3447437Y8165200D01*
X3738379Y8302807D01*
X3749803Y8307540D01*
X4060721Y8418787D01*
X4072553Y8422376D01*
X4392901Y8502619D01*
X4405029Y8505031D01*
X4731680Y8553485D01*
X4743985Y8554697D01*
X5073813Y8570902D01*
X5086179Y8570902D01*
X5416013Y8554697D01*
X5428318Y8553485D01*
X5754972Y8505031D01*
X5767099Y8502619D01*
X6087436Y8422379D01*
X6099269Y8418790D01*
X6410198Y8307538D01*
X6421622Y8302806D01*
X6720141Y8161617D01*
X6731046Y8155788D01*
X7014305Y7986009D01*
X7024586Y7979139D01*
X7289820Y7782428D01*
X7299379Y7774584D01*
X7544067Y7552810D01*
X7552810Y7544067D01*
X7774584Y7299379D01*
X7782428Y7289820D01*
X7979139Y7024586D01*
X7986009Y7014305D01*
X8155788Y6731046D01*
X8161617Y6720141D01*
X8302806Y6421622D01*
X8307538Y6410198D01*
X8418790Y6099269D01*
X8422379Y6087436D01*
X8502619Y5767099D01*
X8505031Y5754972D01*
X8553485Y5428318D01*
X8554697Y5416013D01*
X8570902Y5086183D01*
X8570902Y5073817D01*
X8554697Y4743985D01*
X8553485Y4731680D01*
X8505031Y4405026D01*
X8502619Y4392899D01*
X8422379Y4072562D01*
X8418790Y4060729D01*
X8307544Y3749813D01*
X8307540Y3749803D01*
X8302808Y3738379D01*
X8165192Y3447416D01*
X8137675Y3375843D01*
X8126857Y3339891D01*
X8126856Y3339887D01*
X8110305Y3265014D01*
X8110305Y3118845D01*
X8120408Y3048580D01*
X8161586Y2908342D01*
X8240602Y2785390D01*
X8240605Y2785386D01*
X8284872Y2734299D01*
X8286691Y2732080D01*
X8397554Y2636019D01*
X8397557Y2636017D01*
X8530506Y2575301D01*
X8598618Y2555302D01*
X8598625Y2555300D01*
X8634676Y2550117D01*
X8743296Y2534500D01*
X8743300Y2534500D01*
X10926151Y2534500D01*
X10926153Y2534500D01*
X10926855Y2534512D01*
X10944473Y2534826D01*
X10953453Y2535147D01*
X10971780Y2536129D01*
X11114592Y2567197D01*
X11114595Y2567197D01*
X11181105Y2592005D01*
X11181112Y2592008D01*
X11181629Y2592290D01*
X11309387Y2662051D01*
X11373747Y2726410D01*
X11436058Y2760434D01*
X11506873Y2755368D01*
X11551935Y2726408D01*
X11941285Y2337058D01*
X11954814Y2321067D01*
X11956433Y2318792D01*
X11956436Y2318790D01*
X12022435Y2255858D01*
X12024575Y2253768D01*
X12051506Y2226838D01*
X12058237Y2221280D01*
X12064954Y2215318D01*
X12109652Y2172698D01*
X12109653Y2172697D01*
X12136835Y2155228D01*
X12148932Y2146395D01*
X12173852Y2125820D01*
X12228059Y2096220D01*
X12235791Y2091632D01*
X12287744Y2058244D01*
X12317743Y2046234D01*
X12331290Y2039851D01*
X12359650Y2024366D01*
X12359655Y2024364D01*
X12418479Y2005559D01*
X12426938Y2002518D01*
X12484279Y1979563D01*
X12484281Y1979562D01*
X12516015Y1973446D01*
X12530530Y1969741D01*
X12561293Y1959907D01*
X12561299Y1959906D01*
X12561300Y1959906D01*
X12598060Y1955510D01*
X12622620Y1952574D01*
X12631505Y1951188D01*
X12692144Y1939501D01*
X12692147Y1939500D01*
X12692151Y1939500D01*
X12724460Y1939500D01*
X12739417Y1938609D01*
X12771500Y1934773D01*
X12833106Y1939179D01*
X12842094Y1939500D01*
X19016926Y1939500D01*
X19037817Y1937756D01*
X19040559Y1937294D01*
X19131677Y1939464D01*
X19134676Y1939500D01*
X19172813Y1939500D01*
X19181492Y1940329D01*
X19190464Y1940863D01*
X19236290Y1941954D01*
X19252199Y1942333D01*
X19259153Y1943845D01*
X19283779Y1949202D01*
X19298578Y1951509D01*
X19330729Y1954579D01*
X19330737Y1954580D01*
X19330739Y1954581D01*
X19330742Y1954581D01*
X19330747Y1954583D01*
X19390001Y1971981D01*
X19398715Y1974205D01*
X19459055Y1987331D01*
X19459059Y1987332D01*
X19488758Y2000050D01*
X19502857Y2005118D01*
X19533861Y2014222D01*
X19533862Y2014222D01*
X19588749Y2042519D01*
X19596886Y2046353D01*
X19653662Y2070666D01*
X19653664Y2070667D01*
X19680432Y2088784D01*
X19693310Y2096424D01*
X19703951Y2101911D01*
X19722023Y2111227D01*
X19770572Y2149406D01*
X19777827Y2154704D01*
X19803156Y2171847D01*
X19870782Y2193464D01*
X19873780Y2193500D01*
X20146412Y2193500D01*
X20214533Y2173498D01*
X20221921Y2168368D01*
X20327792Y2089112D01*
X20327797Y2089110D01*
X20464795Y2038011D01*
X20464803Y2038009D01*
X20525350Y2031500D01*
X20525362Y2031500D01*
X22146649Y2031500D01*
X22207196Y2038009D01*
X22207204Y2038011D01*
X22344202Y2089110D01*
X22344207Y2089112D01*
X22461261Y2176739D01*
X22505133Y2235343D01*
X22561969Y2277889D01*
X22632784Y2282953D01*
X22695096Y2248928D01*
X22706867Y2235343D01*
X22750738Y2176739D01*
X22867792Y2089112D01*
X22867797Y2089110D01*
X23004795Y2038011D01*
X23004803Y2038009D01*
X23065350Y2031500D01*
X23065362Y2031500D01*
X24686649Y2031500D01*
X24747196Y2038009D01*
X24747204Y2038011D01*
X24884202Y2089110D01*
X24884207Y2089112D01*
X25001261Y2176739D01*
X25045133Y2235343D01*
X25101969Y2277889D01*
X25172784Y2282953D01*
X25235096Y2248928D01*
X25246867Y2235343D01*
X25290738Y2176739D01*
X25407792Y2089112D01*
X25407797Y2089110D01*
X25544795Y2038011D01*
X25544803Y2038009D01*
X25605350Y2031500D01*
X25605362Y2031500D01*
X27226649Y2031500D01*
X27287196Y2038009D01*
X27287204Y2038011D01*
X27424202Y2089110D01*
X27424207Y2089112D01*
X27541261Y2176738D01*
X27628887Y2293792D01*
X27628889Y2293797D01*
X27638210Y2318785D01*
X27679989Y2430799D01*
X27679990Y2430803D01*
X27683952Y2467660D01*
X27711120Y2533252D01*
X27769437Y2573744D01*
X27769439Y2573745D01*
X27825154Y2592288D01*
X27832895Y2597263D01*
X27948112Y2671308D01*
X27948117Y2671312D01*
X27948121Y2671315D01*
X27999200Y2715575D01*
X28001420Y2717396D01*
X28097480Y2828258D01*
X28097482Y2828261D01*
X28158198Y2961210D01*
X28173257Y3012498D01*
X28178200Y3029331D01*
X28199000Y3174000D01*
X28199000Y4020397D01*
X28219002Y4088518D01*
X28224129Y4095903D01*
X28233445Y4108348D01*
X28244165Y4123215D01*
X28249297Y4130605D01*
X28259480Y4145845D01*
X28259481Y4145847D01*
X28320197Y4278795D01*
X28340197Y4346910D01*
X28340199Y4346917D01*
X28340200Y4346919D01*
X28361000Y4491588D01*
X28361000Y4652412D01*
X28360673Y4670738D01*
X28360352Y4679727D01*
X28359371Y4698036D01*
X28328302Y4840853D01*
X28305953Y4900770D01*
X28305503Y4902222D01*
X28303503Y4907338D01*
X28303491Y4907373D01*
X28303490Y4907377D01*
X28233442Y5035655D01*
X28224134Y5048089D01*
X28199321Y5114608D01*
X28199000Y5123601D01*
X28199000Y6472999D01*
X28219002Y6541120D01*
X28272658Y6587613D01*
X28325000Y6598999D01*
X29586999Y6598999D01*
X29655120Y6578997D01*
X29701613Y6525341D01*
X29712999Y6472999D01*
X29712999Y5123599D01*
X29692997Y5055478D01*
X29687866Y5048089D01*
X29678559Y5035657D01*
X29667850Y5020806D01*
X29662705Y5013398D01*
X29652519Y4998154D01*
X29652518Y4998152D01*
X29591802Y4865204D01*
X29571802Y4797089D01*
X29571800Y4797081D01*
X29551000Y4652412D01*
X29551000Y4652410D01*
X29551000Y4652408D01*
X29551000Y4491589D01*
X29551326Y4473267D01*
X29551647Y4464287D01*
X29552629Y4445960D01*
X29583697Y4303148D01*
X29583697Y4303145D01*
X29608505Y4236635D01*
X29608510Y4236623D01*
X29678552Y4108352D01*
X29687871Y4095903D01*
X29712678Y4029382D01*
X29712999Y4020399D01*
X29712999Y3174004D01*
X29713000Y3173989D01*
X29724735Y3064844D01*
X29724735Y3064840D01*
X29736117Y3012519D01*
X29736123Y3012498D01*
X29770788Y2908345D01*
X29849810Y2785385D01*
X29894076Y2734299D01*
X29895895Y2732080D01*
X30006758Y2636019D01*
X30006761Y2636017D01*
X30139710Y2575301D01*
X30207822Y2555302D01*
X30207829Y2555300D01*
X30243880Y2550117D01*
X30352500Y2534500D01*
X30352504Y2534500D01*
X31896709Y2534500D01*
X31954232Y2538807D01*
X31973183Y2540227D01*
X31973190Y2540228D01*
X32010287Y2545815D01*
X32010313Y2545820D01*
X32085068Y2562870D01*
X32217191Y2625359D01*
X32217199Y2625364D01*
X32276397Y2664537D01*
X32276426Y2664561D01*
X32385573Y2761728D01*
X32428348Y2830291D01*
X32462937Y2885732D01*
X32491562Y2950702D01*
X32530855Y3091467D01*
X32528900Y3237612D01*
X32517857Y3307744D01*
X32517856Y3307750D01*
X32474805Y3447423D01*
X32474804Y3447423D01*
X32474804Y3447427D01*
X32337188Y3738389D01*
X32332456Y3749813D01*
X32221211Y4060720D01*
X32217621Y4072552D01*
X32137375Y4392912D01*
X32134969Y4405011D01*
X32086512Y4731680D01*
X32085301Y4743977D01*
X32082692Y4797081D01*
X32072065Y5013410D01*
X32069098Y5073818D01*
X32069098Y5086182D01*
X32085301Y5416010D01*
X32086513Y5428316D01*
X32134967Y5754976D01*
X32137378Y5767094D01*
X32217621Y6087445D01*
X32221204Y6099257D01*
X32332464Y6410208D01*
X32337186Y6421607D01*
X32443291Y6645949D01*
X32478384Y6720146D01*
X32484213Y6731051D01*
X32535716Y6816979D01*
X32653997Y7014320D01*
X32660858Y7024586D01*
X32857558Y7289806D01*
X32865402Y7299365D01*
X33087188Y7544067D01*
X33095931Y7552810D01*
X33340620Y7774584D01*
X33350171Y7782422D01*
X33640652Y7997859D01*
X33640651Y7997859D01*
X33657523Y8010373D01*
X33659431Y8011760D01*
X33667611Y8017589D01*
X33676805Y8024141D01*
X33707253Y8049703D01*
X33707258Y8049707D01*
X33765159Y8106711D01*
X33765160Y8106713D01*
X33765163Y8106716D01*
X33844176Y8229659D01*
X33844177Y8229662D01*
X33844179Y8229665D01*
X33872760Y8292247D01*
X33873482Y8293755D01*
X33873676Y8294250D01*
X33876966Y8305453D01*
X33898339Y8378245D01*
X33936722Y8437972D01*
X34001302Y8467465D01*
X34064842Y8460204D01*
X34204056Y8406148D01*
X34204064Y8406146D01*
X34349683Y8393771D01*
X34349693Y8393770D01*
X34412787Y8397435D01*
X34420571Y8397888D01*
X34469402Y8407826D01*
X34488117Y8406235D01*
X34872904Y8502620D01*
X34885032Y8505032D01*
X35211680Y8553485D01*
X35223985Y8554697D01*
X35553813Y8570902D01*
X35566179Y8570902D01*
X35896013Y8554697D01*
X35908318Y8553485D01*
X36234972Y8505031D01*
X36247099Y8502619D01*
X36567436Y8422379D01*
X36579269Y8418790D01*
X36890195Y8307540D01*
X36901619Y8302808D01*
X37192579Y8165194D01*
X37264146Y8137677D01*
X37300087Y8126860D01*
X37374985Y8110304D01*
X37374990Y8110304D01*
X37521154Y8110304D01*
X37591419Y8120407D01*
X37731657Y8161585D01*
X37854609Y8240601D01*
X37854621Y8240610D01*
X37905700Y8284870D01*
X37907920Y8286691D01*
X38003980Y8397553D01*
X38003982Y8397556D01*
X38064698Y8530505D01*
X38074542Y8564031D01*
X38084700Y8598626D01*
X38105500Y8743295D01*
X38105500Y12887500D01*
X38093766Y12996649D01*
X38082380Y13048991D01*
X38067099Y13094899D01*
X38064566Y13165849D01*
X38085784Y13210199D01*
X38134887Y13275792D01*
X38134889Y13275797D01*
X38185988Y13412795D01*
X38185990Y13412803D01*
X38192499Y13473350D01*
X38192500Y13473367D01*
X38192500Y14118926D01*
X38194244Y14139817D01*
X38194705Y14142559D01*
X38192536Y14233676D01*
X38192500Y14236675D01*
X38192500Y14970632D01*
X38192499Y14970649D01*
X38185990Y15031196D01*
X38185988Y15031204D01*
X38178960Y15050045D01*
X38134889Y15168204D01*
X38134887Y15168207D01*
X38077602Y15244731D01*
X38052791Y15311251D01*
X38063408Y15370097D01*
X38063124Y15370204D01*
X38063712Y15371780D01*
X38063857Y15372584D01*
X38064698Y15374425D01*
X38066522Y15380638D01*
X38084700Y15442546D01*
X38105500Y15587215D01*
X38105500Y18987500D01*
X38105499Y18987505D01*
X38105319Y18990873D01*
X38106516Y18990937D01*
X38118248Y19055993D01*
X38166622Y19107959D01*
X38186892Y19117657D01*
X38330202Y19171110D01*
X38330207Y19171112D01*
X38447261Y19258738D01*
X38534887Y19375792D01*
X38534889Y19375797D01*
X38585988Y19512795D01*
X38585990Y19512803D01*
X38592499Y19573350D01*
X38592500Y19573367D01*
X38592500Y21070632D01*
X38592499Y21070649D01*
X38585990Y21131196D01*
X38585988Y21131204D01*
X38578960Y21150045D01*
X38534889Y21268204D01*
X38447261Y21385261D01*
X38330204Y21472889D01*
X38193201Y21523989D01*
X38193197Y21523989D01*
X38186922Y21526330D01*
X38130087Y21568877D01*
X38105276Y21635398D01*
X38105277Y21653382D01*
X38105500Y21656497D01*
X38105500Y22031494D01*
X38105499Y22031509D01*
X38093766Y22140649D01*
X38082380Y22192991D01*
X38067099Y22238899D01*
X38064566Y22309849D01*
X38085784Y22354199D01*
X38134887Y22419792D01*
X38134889Y22419797D01*
X38185988Y22556795D01*
X38185990Y22556803D01*
X38192499Y22617350D01*
X38192500Y22617367D01*
X38192500Y23277704D01*
X38193782Y23295635D01*
X38196281Y23313018D01*
X38192643Y23389385D01*
X38192500Y23395381D01*
X38192500Y24114632D01*
X38192499Y24114649D01*
X38185990Y24175196D01*
X38185988Y24175204D01*
X38178960Y24194045D01*
X38134889Y24312204D01*
X38085255Y24378506D01*
X38060444Y24445024D01*
X38065226Y24489510D01*
X38084700Y24555831D01*
X38105500Y24700500D01*
X38105500Y28131500D01*
X38105499Y28131505D01*
X38105319Y28134873D01*
X38106516Y28134937D01*
X38118248Y28199993D01*
X38166622Y28251959D01*
X38186892Y28261657D01*
X38330202Y28315110D01*
X38330207Y28315112D01*
X38447261Y28402738D01*
X38534887Y28519792D01*
X38534889Y28519797D01*
X38585988Y28656795D01*
X38585990Y28656803D01*
X38592499Y28717350D01*
X38592500Y28717367D01*
X38592500Y30214632D01*
X38592499Y30214649D01*
X38585990Y30275196D01*
X38585988Y30275204D01*
X38578960Y30294045D01*
X38534889Y30412204D01*
X38447261Y30529261D01*
X38330204Y30616889D01*
X38193201Y30667989D01*
X38193197Y30667989D01*
X38186922Y30670330D01*
X38130087Y30712877D01*
X38105276Y30779398D01*
X38105277Y30797382D01*
X38105500Y30800497D01*
X38105500Y31896703D01*
X38105500Y31896704D01*
X38099773Y31973183D01*
X38094183Y32010297D01*
X38077128Y32085072D01*
X38014638Y32217196D01*
X37975458Y32276403D01*
X37975455Y32276407D01*
X37878271Y32385573D01*
X37754268Y32462937D01*
X37689298Y32491562D01*
X37548533Y32530855D01*
X37402388Y32528900D01*
X37332256Y32517857D01*
X37332250Y32517856D01*
X37192580Y32474806D01*
X37192577Y32474805D01*
X37192572Y32474804D01*
X36901613Y32337189D01*
X36890215Y32332466D01*
X36579267Y32221207D01*
X36567446Y32217621D01*
X36247089Y32137376D01*
X36234982Y32134968D01*
X35908322Y32086512D01*
X35896028Y32085301D01*
X35566169Y32069096D01*
X35553835Y32069096D01*
X35223977Y32085301D01*
X35211686Y32086512D01*
X34885015Y32134968D01*
X34872913Y32137375D01*
X34552547Y32217622D01*
X34540747Y32221200D01*
X34229774Y32332469D01*
X34218383Y32337189D01*
X33919852Y32478385D01*
X33908948Y32484213D01*
X33820728Y32537088D01*
X33625676Y32653998D01*
X33615424Y32660847D01*
X33350180Y32857566D01*
X33340632Y32865403D01*
X33095931Y33087189D01*
X33087189Y33095931D01*
X32865403Y33340632D01*
X32857566Y33350180D01*
X32660847Y33615424D01*
X32653998Y33625676D01*
X32484217Y33908941D01*
X32478389Y33919845D01*
X32337188Y34218387D01*
X32332468Y34229778D01*
X32221203Y34540740D01*
X32217621Y34552552D01*
X32137375Y34872912D01*
X32134969Y34885011D01*
X32086512Y35211680D01*
X32085301Y35223977D01*
X32069098Y35553818D01*
X32069098Y35566182D01*
X32085301Y35896010D01*
X32086513Y35908316D01*
X32134967Y36234976D01*
X32137378Y36247094D01*
X32217621Y36567445D01*
X32221204Y36579257D01*
X32332464Y36890208D01*
X32337185Y36901607D01*
X32474805Y37192578D01*
X32502326Y37264161D01*
X32513141Y37300101D01*
X32529695Y37374990D01*
X32529695Y37521148D01*
X32519591Y37591422D01*
X32478414Y37731657D01*
X32399396Y37854612D01*
X32355109Y37905721D01*
X32353302Y37907924D01*
X32242445Y38003980D01*
X32242443Y38003982D01*
X32109494Y38064698D01*
X32041373Y38084700D01*
X31896704Y38105500D01*
X29066500Y38105500D01*
X28998379Y38125502D01*
X28951886Y38179158D01*
X28940500Y38231500D01*
X28940500Y38850632D01*
X28940499Y38850649D01*
X28933990Y38911196D01*
X28933988Y38911204D01*
X28926960Y38930045D01*
X28882889Y39048204D01*
X28795261Y39165261D01*
X28734400Y39210821D01*
X28678207Y39252887D01*
X28678206Y39252887D01*
X28678204Y39252889D01*
X28541201Y39303989D01*
X28541199Y39303989D01*
X28541196Y39303990D01*
X28480649Y39310499D01*
X28480645Y39310499D01*
X28480638Y39310500D01*
X26383362Y39310500D01*
X26383355Y39310499D01*
X26383350Y39310499D01*
X26322803Y39303990D01*
X26322795Y39303988D01*
X26244875Y39274924D01*
X26185796Y39252889D01*
X26162742Y39235631D01*
X26096224Y39210821D01*
X26087234Y39210500D01*
X23696766Y39210500D01*
X23628645Y39230502D01*
X23621264Y39235626D01*
X23598204Y39252889D01*
X23461201Y39303989D01*
X23461199Y39303989D01*
X23461196Y39303990D01*
X23400649Y39310499D01*
X23400645Y39310499D01*
X23400638Y39310500D01*
X21303362Y39310500D01*
X21303355Y39310499D01*
X21303350Y39310499D01*
X21242803Y39303990D01*
X21242795Y39303988D01*
X21164875Y39274924D01*
X21105796Y39252889D01*
X21082742Y39235631D01*
X21016224Y39210821D01*
X21007234Y39210500D01*
X18616766Y39210500D01*
X18548645Y39230502D01*
X18541264Y39235626D01*
X18518204Y39252889D01*
X18381201Y39303989D01*
X18381199Y39303989D01*
X18381196Y39303990D01*
X18320649Y39310499D01*
X18320645Y39310499D01*
X18320638Y39310500D01*
X16223362Y39310500D01*
X16223355Y39310499D01*
X16223350Y39310499D01*
X16162803Y39303990D01*
X16162795Y39303988D01*
X16084875Y39274924D01*
X16025796Y39252889D01*
X16002742Y39235631D01*
X15936224Y39210821D01*
X15927234Y39210500D01*
X13536766Y39210500D01*
X13468645Y39230502D01*
X13461264Y39235626D01*
X13438204Y39252889D01*
X13301201Y39303989D01*
X13301199Y39303989D01*
X13301196Y39303990D01*
X13240649Y39310499D01*
X13240645Y39310499D01*
X13240638Y39310500D01*
X11143362Y39310500D01*
X11143355Y39310499D01*
X11143350Y39310499D01*
X11082803Y39303990D01*
X11082795Y39303988D01*
X11004875Y39274924D01*
X10945796Y39252889D01*
X10945794Y39252888D01*
X10945792Y39252887D01*
X10828738Y39165261D01*
X10741112Y39048207D01*
X10741110Y39048202D01*
X10690011Y38911204D01*
X10690009Y38911196D01*
X10683500Y38850649D01*
X10683500Y38231500D01*
X10663498Y38163379D01*
X10609842Y38116886D01*
X10557500Y38105500D01*
X8743296Y38105500D01*
X8666817Y38099773D01*
X8629703Y38094183D01*
X8627875Y38093766D01*
X8554931Y38077129D01*
X8554929Y38077128D01*
X8554928Y38077128D01*
X8422804Y38014638D01*
X8406701Y38003982D01*
X8363602Y37975462D01*
X8363597Y37975458D01*
X8363593Y37975455D01*
X8363585Y37975448D01*
X8363573Y37975438D01*
X8254426Y37878271D01*
X8185863Y37768374D01*
X8177063Y37754268D01*
X8167101Y37731657D01*
X8148437Y37689296D01*
X8109145Y37548541D01*
X8111098Y37402397D01*
X8111099Y37402390D01*
X8122002Y37333142D01*
X8122121Y37332346D01*
X8122144Y37332246D01*
X8165195Y37192574D01*
X8302806Y36901622D01*
X8307538Y36890198D01*
X8418790Y36579269D01*
X8422379Y36567436D01*
X8502619Y36247099D01*
X8505031Y36234972D01*
X8553485Y35908318D01*
X8554697Y35896013D01*
X8570902Y35566183D01*
X8570902Y35553817D01*
X8554697Y35223985D01*
X8553485Y35211680D01*
X8505031Y34885026D01*
X8502619Y34872899D01*
X8422380Y34552566D01*
X8418791Y34540733D01*
X8312628Y34244025D01*
X8312627Y34244024D01*
X8287364Y34140717D01*
X8287359Y34140691D01*
X8280319Y34089274D01*
X8276878Y33982976D01*
X8276879Y33982971D01*
X8307947Y33840156D01*
X8307947Y33840153D01*
X8332755Y33773643D01*
X8332758Y33773636D01*
X8402800Y33645362D01*
X8467159Y33581002D01*
X8501183Y33518689D01*
X8496117Y33447873D01*
X8467157Y33402813D01*
X7927056Y32862712D01*
X7911050Y32849172D01*
X7908785Y32847559D01*
X7908781Y32847555D01*
X7845859Y32781564D01*
X7843803Y32779459D01*
X7825271Y32760927D01*
X7815703Y32751359D01*
X7753390Y32717335D01*
X7682574Y32722401D01*
X7682482Y32722435D01*
X7580676Y32760926D01*
X7511370Y32776327D01*
X7365636Y32787404D01*
X7222682Y32756975D01*
X7162257Y32734744D01*
X7157620Y32733310D01*
X7137428Y32722401D01*
X7027460Y32662990D01*
X7024581Y32660855D01*
X7014321Y32653998D01*
X6731040Y32484206D01*
X6720158Y32478389D01*
X6421620Y32337191D01*
X6410207Y32332463D01*
X6099258Y32221204D01*
X6087445Y32217621D01*
X5767092Y32137377D01*
X5754982Y32134968D01*
X5428322Y32086512D01*
X5416028Y32085301D01*
X5086169Y32069096D01*
X5073835Y32069096D01*
X4743977Y32085301D01*
X4731686Y32086512D01*
X4405015Y32134968D01*
X4392913Y32137375D01*
X4072547Y32217622D01*
X4060747Y32221200D01*
X3749768Y32332471D01*
X3738394Y32337183D01*
X3447421Y32474805D01*
X3375842Y32502325D01*
X3339903Y32513140D01*
X3265010Y32529695D01*
X3118852Y32529695D01*
X3118850Y32529695D01*
X3118845Y32529694D01*
X3048578Y32519591D01*
X2908343Y32478414D01*
X2884256Y32462934D01*
X2785390Y32399397D01*
X2785385Y32399394D01*
X2734300Y32355128D01*
X2732077Y32353304D01*
X2636019Y32242445D01*
X2636017Y32242442D01*
X2575301Y32109493D01*
X2563440Y32069096D01*
X2555300Y32041373D01*
X2534500Y31896704D01*
X2534500Y31896703D01*
X2534500Y31896700D01*
X2534500Y29682500D01*
X2514498Y29614379D01*
X2460842Y29567886D01*
X2408500Y29556500D01*
X1789362Y29556500D01*
X1789355Y29556499D01*
X1789350Y29556499D01*
X1728803Y29549990D01*
X1728795Y29549988D01*
X1650875Y29520924D01*
X1591796Y29498889D01*
X1591794Y29498888D01*
X1591792Y29498887D01*
X1474738Y29411261D01*
X1387112Y29294207D01*
X1387110Y29294202D01*
X1336011Y29157204D01*
X1336009Y29157196D01*
X1329500Y29096649D01*
X1329500Y27799350D01*
X1336009Y27738803D01*
X1336011Y27738795D01*
X1387110Y27601797D01*
X1387112Y27601793D01*
X1404369Y27578741D01*
X1429179Y27512221D01*
X1429500Y27503233D01*
X1429500Y24820765D01*
X1409498Y24752644D01*
X1404375Y24745266D01*
X1387111Y24722204D01*
X1336009Y24585196D01*
X1329501Y24524651D01*
X1329500Y24524632D01*
X1329500Y23227350D01*
X1336009Y23166803D01*
X1336011Y23166795D01*
X1387110Y23029797D01*
X1387112Y23029793D01*
X1404369Y23006741D01*
X1429179Y22940221D01*
X1429500Y22931233D01*
X1429500Y20248765D01*
X1409498Y20180644D01*
X1404375Y20173266D01*
X1387111Y20150204D01*
X1336009Y20013196D01*
X1329500Y19952649D01*
X1329500Y18655350D01*
X1336009Y18594803D01*
X1336011Y18594795D01*
X1387110Y18457797D01*
X1387112Y18457793D01*
X1404369Y18434741D01*
X1429179Y18368221D01*
X1429500Y18359233D01*
X1429500Y15676765D01*
X1409498Y15608644D01*
X1404375Y15601266D01*
X1393859Y15587218D01*
X1387111Y15578204D01*
X1336009Y15441196D01*
X1329500Y15380649D01*
X1329500Y14083350D01*
X329500Y14083350D01*
X329500Y40184500D01*
X349502Y40252621D01*
X403158Y40299114D01*
X455500Y40310500D01*
X40184500Y40310500D01*
X40252621Y40290498D01*
G37*
%TD.AperFunction*%
%TD*%
%TA.AperFunction,Conductor*%
%TO.N,GNDA*%
G36*
X3256512Y12445377D02*
G01*
X3263095Y12439248D01*
X6253290Y9449052D01*
X6266822Y9433057D01*
X6268433Y9430795D01*
X6268442Y9430784D01*
X6334414Y9367878D01*
X6336554Y9365788D01*
X6363505Y9338838D01*
X6370239Y9333277D01*
X6376948Y9327321D01*
X6421653Y9284697D01*
X6421654Y9284696D01*
X6448834Y9267228D01*
X6460929Y9258396D01*
X6485846Y9237823D01*
X6485852Y9237820D01*
X6540059Y9208220D01*
X6547791Y9203632D01*
X6599744Y9170244D01*
X6629743Y9158234D01*
X6643290Y9151851D01*
X6671650Y9136366D01*
X6671652Y9136365D01*
X6730485Y9117557D01*
X6738943Y9114516D01*
X6796278Y9091564D01*
X6828013Y9085446D01*
X6842521Y9081743D01*
X6873296Y9071906D01*
X6934624Y9064573D01*
X6943507Y9063187D01*
X7004149Y9051500D01*
X7004151Y9051500D01*
X7036467Y9051500D01*
X7051424Y9050609D01*
X7083500Y9046774D01*
X7145095Y9051179D01*
X7154083Y9051500D01*
X9431500Y9051500D01*
X9499621Y9031498D01*
X9546114Y8977842D01*
X9557500Y8925500D01*
X9557500Y6024765D01*
X9537498Y5956644D01*
X9532375Y5949266D01*
X9515111Y5926204D01*
X9464009Y5789196D01*
X9457500Y5728649D01*
X9457500Y4431350D01*
X9464009Y4370803D01*
X9464011Y4370795D01*
X9515110Y4233797D01*
X9515112Y4233792D01*
X9602738Y4116738D01*
X9719792Y4029112D01*
X9719797Y4029110D01*
X9856795Y3978011D01*
X9856803Y3978009D01*
X9917350Y3971500D01*
X9917362Y3971500D01*
X10254654Y3971500D01*
X10322775Y3951498D01*
X10343750Y3934595D01*
X11015249Y3263095D01*
X11049274Y3200783D01*
X11044209Y3129967D01*
X11001662Y3073132D01*
X10935142Y3048321D01*
X10926153Y3048000D01*
X8743296Y3048000D01*
X8675175Y3068002D01*
X8628682Y3121658D01*
X8618578Y3191932D01*
X8629393Y3227872D01*
X8646052Y3263095D01*
X8780438Y3547228D01*
X8912857Y3917316D01*
X9008364Y4298600D01*
X9066038Y4687409D01*
X9085325Y5080000D01*
X9066038Y5472591D01*
X9008364Y5861400D01*
X8912857Y6242684D01*
X8780438Y6612772D01*
X8612381Y6968097D01*
X8410306Y7305239D01*
X8176158Y7620951D01*
X7912192Y7912192D01*
X7620951Y8176158D01*
X7417592Y8326979D01*
X7305243Y8410303D01*
X7305239Y8410306D01*
X6968097Y8612381D01*
X6612772Y8780438D01*
X6242684Y8912857D01*
X5861400Y9008364D01*
X5472591Y9066038D01*
X5135384Y9082604D01*
X5080004Y9085325D01*
X5079996Y9085325D01*
X5022590Y9082504D01*
X4687409Y9066038D01*
X4298600Y9008364D01*
X3917316Y8912857D01*
X3917311Y8912855D01*
X3917310Y8912855D01*
X3899289Y8906407D01*
X3547228Y8780438D01*
X3227872Y8629393D01*
X3157740Y8618349D01*
X3092770Y8646974D01*
X3053590Y8706181D01*
X3048000Y8743295D01*
X3048000Y12350153D01*
X3068002Y12418274D01*
X3121658Y12464767D01*
X3191932Y12474871D01*
X3256512Y12445377D01*
G37*
%TD.AperFunction*%
%TA.AperFunction,Conductor*%
G36*
X31964825Y37571998D02*
G01*
X32011318Y37518342D01*
X32021422Y37448068D01*
X32010607Y37412128D01*
X31889369Y37155792D01*
X31859561Y37092769D01*
X31727144Y36722689D01*
X31727143Y36722684D01*
X31631636Y36341400D01*
X31631635Y36341393D01*
X31573963Y35952601D01*
X31573962Y35952587D01*
X31554675Y35560003D01*
X31554675Y35559996D01*
X31559875Y35454155D01*
X31573109Y35184762D01*
X31573962Y35167412D01*
X31573963Y35167398D01*
X31631635Y34778606D01*
X31631636Y34778600D01*
X31647109Y34716829D01*
X31727144Y34397310D01*
X31859561Y34027230D01*
X32027621Y33671899D01*
X32229696Y33334756D01*
X32463834Y33019057D01*
X32727808Y32727808D01*
X33019057Y32463834D01*
X33334756Y32229696D01*
X33671899Y32027621D01*
X33671902Y32027619D01*
X33671903Y32027619D01*
X33908786Y31915581D01*
X34027230Y31859561D01*
X34397310Y31727144D01*
X34587958Y31679389D01*
X34778600Y31631636D01*
X34778604Y31631635D01*
X34778606Y31631635D01*
X35167398Y31573963D01*
X35167406Y31573962D01*
X35167409Y31573962D01*
X35335662Y31565696D01*
X35559996Y31554675D01*
X35560000Y31554675D01*
X35560004Y31554675D01*
X35756295Y31564318D01*
X35952591Y31573962D01*
X35952594Y31573962D01*
X35952601Y31573963D01*
X36341393Y31631635D01*
X36341400Y31631636D01*
X36626995Y31703174D01*
X36722689Y31727144D01*
X37092769Y31859561D01*
X37092772Y31859562D01*
X37412128Y32010607D01*
X37482260Y32021650D01*
X37547230Y31993025D01*
X37586410Y31933818D01*
X37592000Y31896704D01*
X37592000Y30800500D01*
X37571998Y30732379D01*
X37518342Y30685886D01*
X37466000Y30674500D01*
X36035362Y30674500D01*
X36035355Y30674499D01*
X36035350Y30674499D01*
X35974803Y30667990D01*
X35974795Y30667988D01*
X35896875Y30638924D01*
X35837796Y30616889D01*
X35814742Y30599631D01*
X35748224Y30574821D01*
X35739234Y30574500D01*
X34143074Y30574500D01*
X34122183Y30576244D01*
X34119440Y30576705D01*
X34119439Y30576704D01*
X34119439Y30576705D01*
X34049018Y30575028D01*
X34028323Y30574536D01*
X34025324Y30574500D01*
X33987197Y30574500D01*
X33978514Y30573670D01*
X33969547Y30573136D01*
X33907801Y30571667D01*
X33876217Y30564795D01*
X33861434Y30562490D01*
X33829261Y30559419D01*
X33769988Y30542014D01*
X33761292Y30539795D01*
X33700941Y30526667D01*
X33691442Y30522599D01*
X33671233Y30513946D01*
X33657134Y30508878D01*
X33626138Y30499777D01*
X33571215Y30471461D01*
X33563111Y30467644D01*
X33506336Y30443332D01*
X33506334Y30443331D01*
X33506332Y30443330D01*
X33479586Y30425227D01*
X33466698Y30417579D01*
X33437974Y30402771D01*
X33437972Y30402769D01*
X33437969Y30402768D01*
X33389429Y30364596D01*
X33382166Y30359292D01*
X33331018Y30324674D01*
X33308166Y30301822D01*
X33296965Y30291881D01*
X33271567Y30271908D01*
X33271565Y30271906D01*
X33231120Y30225230D01*
X33224991Y30218647D01*
X32999749Y29993405D01*
X32937437Y29959379D01*
X32910654Y29956500D01*
X32273362Y29956500D01*
X32273355Y29956499D01*
X32273350Y29956499D01*
X32212803Y29949990D01*
X32212795Y29949988D01*
X32134875Y29920924D01*
X32075796Y29898889D01*
X32075794Y29898888D01*
X32075792Y29898887D01*
X31958738Y29811261D01*
X31871112Y29694207D01*
X31871110Y29694202D01*
X31820011Y29557204D01*
X31820009Y29557196D01*
X31813500Y29496649D01*
X31813500Y27399350D01*
X31820009Y27338803D01*
X31820011Y27338795D01*
X31871110Y27201797D01*
X31871112Y27201793D01*
X31888369Y27178741D01*
X31913179Y27112221D01*
X31913500Y27103233D01*
X31913500Y25220765D01*
X31893498Y25152644D01*
X31888375Y25145266D01*
X31871111Y25122204D01*
X31820009Y24985196D01*
X31813500Y24924649D01*
X31813500Y22827350D01*
X31820009Y22766803D01*
X31820011Y22766795D01*
X31871110Y22629797D01*
X31871112Y22629793D01*
X31888369Y22606741D01*
X31913179Y22540221D01*
X31913500Y22531233D01*
X31913500Y20648765D01*
X31893498Y20580644D01*
X31888375Y20573266D01*
X31871111Y20550204D01*
X31820009Y20413196D01*
X31813500Y20352649D01*
X31813500Y18255350D01*
X31820009Y18194803D01*
X31820011Y18194795D01*
X31871110Y18057797D01*
X31871112Y18057793D01*
X31888369Y18034741D01*
X31913179Y17968221D01*
X31913500Y17959233D01*
X31913500Y16076765D01*
X31893498Y16008644D01*
X31888375Y16001266D01*
X31871111Y15978204D01*
X31820009Y15841196D01*
X31813500Y15780649D01*
X31813500Y13683350D01*
X31820009Y13622803D01*
X31820011Y13622795D01*
X31871110Y13485797D01*
X31871112Y13485793D01*
X31888369Y13462741D01*
X31913179Y13396221D01*
X31913500Y13387233D01*
X31913500Y11504765D01*
X31893498Y11436644D01*
X31888375Y11429266D01*
X31871111Y11406204D01*
X31871110Y11406202D01*
X31850321Y11350466D01*
X31807774Y11293631D01*
X31741253Y11268821D01*
X31732266Y11268500D01*
X30935197Y11268500D01*
X30777261Y11253419D01*
X30624730Y11208632D01*
X30574135Y11193776D01*
X30401480Y11104765D01*
X30385974Y11096771D01*
X30342812Y11062828D01*
X30219564Y10965905D01*
X30080938Y10805922D01*
X30080930Y10805911D01*
X29975089Y10622587D01*
X29975086Y10622580D01*
X29905848Y10422530D01*
X29905845Y10422519D01*
X29875718Y10212985D01*
X29885790Y10001536D01*
X29885792Y10001523D01*
X29935700Y9795801D01*
X29935702Y9795795D01*
X30023644Y9603228D01*
X30023648Y9603221D01*
X30146435Y9430791D01*
X30146444Y9430781D01*
X30299656Y9284695D01*
X30477745Y9170244D01*
X30674281Y9091563D01*
X30882146Y9051500D01*
X30882151Y9051500D01*
X31732267Y9051500D01*
X31800388Y9031498D01*
X31846881Y8977842D01*
X31850312Y8969558D01*
X31860867Y8941262D01*
X31871113Y8913791D01*
X31958738Y8796738D01*
X32075792Y8709112D01*
X32075797Y8709110D01*
X32212795Y8658011D01*
X32212803Y8658009D01*
X32273350Y8651500D01*
X32273362Y8651500D01*
X33281863Y8651500D01*
X33349984Y8631498D01*
X33396477Y8577842D01*
X33406581Y8507568D01*
X33377087Y8442988D01*
X33346639Y8417426D01*
X33334760Y8410306D01*
X33019057Y8176165D01*
X33019050Y8176159D01*
X33019049Y8176158D01*
X32727808Y7912192D01*
X32509022Y7670799D01*
X32463834Y7620942D01*
X32229696Y7305243D01*
X32114171Y7112500D01*
X32027619Y6968097D01*
X31859562Y6612772D01*
X31859561Y6612769D01*
X31727144Y6242689D01*
X31727143Y6242684D01*
X31631636Y5861400D01*
X31631635Y5861393D01*
X31573963Y5472601D01*
X31573962Y5472587D01*
X31554675Y5080003D01*
X31554675Y5079996D01*
X31573962Y4687412D01*
X31573963Y4687398D01*
X31630888Y4303641D01*
X31631636Y4298600D01*
X31656186Y4200593D01*
X31727144Y3917310D01*
X31859561Y3547230D01*
X32010607Y3227872D01*
X32021650Y3157740D01*
X31993025Y3092770D01*
X31933818Y3053590D01*
X31896704Y3048000D01*
X30352500Y3048000D01*
X30284379Y3068002D01*
X30237886Y3121658D01*
X30226500Y3174000D01*
X30226500Y4112632D01*
X30226499Y4112649D01*
X30219990Y4173196D01*
X30219988Y4173204D01*
X30197388Y4233796D01*
X30168889Y4310204D01*
X30149744Y4335778D01*
X30089632Y4416079D01*
X30064821Y4482599D01*
X30064500Y4491588D01*
X30064500Y4652412D01*
X30084502Y4720533D01*
X30089632Y4727921D01*
X30168887Y4833792D01*
X30168889Y4833797D01*
X30219988Y4970795D01*
X30219990Y4970803D01*
X30226499Y5031350D01*
X30226500Y5031367D01*
X30226500Y6652632D01*
X30226499Y6652649D01*
X30219990Y6713196D01*
X30219988Y6713204D01*
X30212960Y6732045D01*
X30168889Y6850204D01*
X30081261Y6967261D01*
X30007338Y7022599D01*
X29964207Y7054887D01*
X29964206Y7054887D01*
X29964204Y7054889D01*
X29827201Y7105989D01*
X29827199Y7105989D01*
X29827196Y7105990D01*
X29766649Y7112499D01*
X29766645Y7112499D01*
X29766638Y7112500D01*
X28145362Y7112500D01*
X28145355Y7112499D01*
X28145350Y7112499D01*
X28084803Y7105990D01*
X28084795Y7105988D01*
X28006875Y7076924D01*
X27947796Y7054889D01*
X27947794Y7054888D01*
X27947792Y7054887D01*
X27830738Y6967261D01*
X27743112Y6850207D01*
X27743110Y6850202D01*
X27692011Y6713204D01*
X27692009Y6713196D01*
X27685500Y6652649D01*
X27685500Y5031350D01*
X27692009Y4970803D01*
X27692011Y4970795D01*
X27743110Y4833797D01*
X27743112Y4833792D01*
X27822368Y4727921D01*
X27847179Y4661401D01*
X27847500Y4652412D01*
X27847500Y4491588D01*
X27827498Y4423467D01*
X27822368Y4416079D01*
X27743112Y4310207D01*
X27743110Y4310202D01*
X27692011Y4173204D01*
X27692009Y4173196D01*
X27685500Y4112649D01*
X27685500Y3174000D01*
X27665498Y3105879D01*
X27611842Y3059386D01*
X27559500Y3048000D01*
X25272500Y3048000D01*
X25204379Y3068002D01*
X25157886Y3121658D01*
X25146500Y3174000D01*
X25146500Y4112632D01*
X25146499Y4112649D01*
X25139990Y4173196D01*
X25139988Y4173204D01*
X25117388Y4233796D01*
X25088889Y4310204D01*
X25069744Y4335778D01*
X25009632Y4416079D01*
X24984821Y4482599D01*
X24984500Y4491588D01*
X24984500Y4652412D01*
X25004502Y4720533D01*
X25009632Y4727921D01*
X25088887Y4833792D01*
X25088889Y4833797D01*
X25139988Y4970795D01*
X25139990Y4970803D01*
X25146499Y5031350D01*
X25146500Y5031367D01*
X25146500Y6652632D01*
X25146499Y6652649D01*
X25139990Y6713196D01*
X25139988Y6713204D01*
X25132960Y6732045D01*
X25088889Y6850204D01*
X25009632Y6956079D01*
X24984821Y7022599D01*
X24984500Y7031588D01*
X24984500Y8525500D01*
X25004502Y8593621D01*
X25058158Y8640114D01*
X25110500Y8651500D01*
X25642649Y8651500D01*
X25703196Y8658009D01*
X25703204Y8658011D01*
X25840202Y8709110D01*
X25840207Y8709112D01*
X25957261Y8796738D01*
X26044886Y8913791D01*
X26044887Y8913793D01*
X26044889Y8913796D01*
X26065679Y8969535D01*
X26108224Y9026368D01*
X26174744Y9051179D01*
X26183733Y9051500D01*
X26833709Y9051500D01*
X26851640Y9050217D01*
X26856054Y9049582D01*
X26869018Y9047718D01*
X26942023Y9051196D01*
X26945388Y9051357D01*
X26951382Y9051500D01*
X27670649Y9051500D01*
X27731196Y9058009D01*
X27731204Y9058011D01*
X27868202Y9109110D01*
X27868207Y9109112D01*
X27985261Y9196738D01*
X28072887Y9313792D01*
X28072889Y9313797D01*
X28077934Y9327321D01*
X28116524Y9430785D01*
X28123988Y9450795D01*
X28123990Y9450803D01*
X28130499Y9511350D01*
X28130500Y9511367D01*
X28130500Y10808632D01*
X28130499Y10808649D01*
X28123990Y10869196D01*
X28123989Y10869197D01*
X28123989Y10869201D01*
X28072889Y11006204D01*
X28055632Y11029255D01*
X28030821Y11095774D01*
X28030500Y11104765D01*
X28030500Y13497500D01*
X28050502Y13565621D01*
X28104158Y13612114D01*
X28156500Y13623500D01*
X28500801Y13623500D01*
X28500803Y13623500D01*
X28500804Y13623500D01*
X28500822Y13623501D01*
X28658728Y13638579D01*
X28658737Y13638580D01*
X28658739Y13638581D01*
X28658741Y13638581D01*
X28658743Y13638582D01*
X28861864Y13698223D01*
X29050023Y13795227D01*
X29216435Y13926094D01*
X29355061Y14086077D01*
X29355069Y14086088D01*
X29460910Y14269412D01*
X29460913Y14269419D01*
X29530153Y14469473D01*
X29538099Y14524735D01*
X29560281Y14679014D01*
X29550209Y14890463D01*
X29550208Y14890467D01*
X29550208Y14890474D01*
X29500298Y15096204D01*
X29412356Y15288771D01*
X29289559Y15461215D01*
X29136346Y15607303D01*
X28958254Y15721756D01*
X28761721Y15800436D01*
X28553849Y15840500D01*
X28553845Y15840500D01*
X28156500Y15840500D01*
X28088379Y15860502D01*
X28041886Y15914158D01*
X28030500Y15966500D01*
X28030500Y18359233D01*
X28050502Y18427354D01*
X28055631Y18434741D01*
X28072887Y18457793D01*
X28072889Y18457797D01*
X28123988Y18594795D01*
X28123990Y18594803D01*
X28130499Y18655350D01*
X28130500Y18655367D01*
X28130500Y19952632D01*
X28130499Y19952649D01*
X28123990Y20013196D01*
X28123989Y20013197D01*
X28123989Y20013201D01*
X28072889Y20150204D01*
X28055632Y20173255D01*
X28030821Y20239774D01*
X28030500Y20248765D01*
X28030500Y22931233D01*
X28050502Y22999354D01*
X28055631Y23006741D01*
X28072887Y23029793D01*
X28072889Y23029797D01*
X28123988Y23166795D01*
X28123990Y23166803D01*
X28130499Y23227350D01*
X28130500Y23227367D01*
X28130500Y24524632D01*
X28130499Y24524649D01*
X28123990Y24585196D01*
X28123989Y24585197D01*
X28123989Y24585201D01*
X28072889Y24722204D01*
X28055632Y24745255D01*
X28030821Y24811774D01*
X28030500Y24820765D01*
X28030500Y27503233D01*
X28050502Y27571354D01*
X28055631Y27578741D01*
X28072887Y27601793D01*
X28072889Y27601797D01*
X28123988Y27738795D01*
X28123990Y27738803D01*
X28130499Y27799350D01*
X28130500Y27799367D01*
X28130500Y29096632D01*
X28130499Y29096649D01*
X28123990Y29157196D01*
X28123989Y29157197D01*
X28123989Y29157201D01*
X28072889Y29294204D01*
X28055632Y29317255D01*
X28030821Y29383774D01*
X28030500Y29392765D01*
X28030500Y30674929D01*
X28050502Y30743050D01*
X28104158Y30789543D01*
X28133658Y30797636D01*
X28133526Y30798197D01*
X28141204Y30800011D01*
X28278202Y30851110D01*
X28278207Y30851112D01*
X28395261Y30938738D01*
X28482887Y31055792D01*
X28482889Y31055797D01*
X28533988Y31192795D01*
X28533990Y31192803D01*
X28540499Y31253350D01*
X28540500Y31253367D01*
X28540500Y31913704D01*
X28541782Y31931635D01*
X28544281Y31949019D01*
X28544149Y31951782D01*
X28544897Y31972741D01*
X28544916Y31972901D01*
X28545227Y31975501D01*
X28540821Y32037106D01*
X28540500Y32046094D01*
X28540500Y32750632D01*
X28540499Y32750649D01*
X28533990Y32811196D01*
X28533988Y32811204D01*
X28486903Y32937441D01*
X28482889Y32948204D01*
X28395261Y33065261D01*
X28334400Y33110821D01*
X28278207Y33152887D01*
X28278206Y33152887D01*
X28278204Y33152889D01*
X28141201Y33203989D01*
X28141199Y33203989D01*
X28141196Y33203990D01*
X28080649Y33210499D01*
X28080645Y33210499D01*
X28080638Y33210500D01*
X26783362Y33210500D01*
X26783355Y33210499D01*
X26783350Y33210499D01*
X26722803Y33203990D01*
X26722795Y33203988D01*
X26644875Y33174924D01*
X26585796Y33152889D01*
X26562742Y33135631D01*
X26496224Y33110821D01*
X26487234Y33110500D01*
X23296766Y33110500D01*
X23228645Y33130502D01*
X23221264Y33135626D01*
X23198204Y33152889D01*
X23061201Y33203989D01*
X23061199Y33203989D01*
X23061196Y33203990D01*
X23000649Y33210499D01*
X23000645Y33210499D01*
X23000638Y33210500D01*
X21703362Y33210500D01*
X21703355Y33210499D01*
X21703350Y33210499D01*
X21642803Y33203990D01*
X21642795Y33203988D01*
X21564875Y33174924D01*
X21505796Y33152889D01*
X21482742Y33135631D01*
X21416224Y33110821D01*
X21407234Y33110500D01*
X18216766Y33110500D01*
X18148645Y33130502D01*
X18141264Y33135626D01*
X18118204Y33152889D01*
X17981201Y33203989D01*
X17981199Y33203989D01*
X17981196Y33203990D01*
X17920649Y33210499D01*
X17920645Y33210499D01*
X17920638Y33210500D01*
X16623362Y33210500D01*
X16623355Y33210499D01*
X16623350Y33210499D01*
X16562803Y33203990D01*
X16562795Y33203988D01*
X16484875Y33174924D01*
X16425796Y33152889D01*
X16402742Y33135631D01*
X16336224Y33110821D01*
X16327234Y33110500D01*
X13136766Y33110500D01*
X13068645Y33130502D01*
X13061264Y33135626D01*
X13038204Y33152889D01*
X12901201Y33203989D01*
X12901199Y33203989D01*
X12901196Y33203990D01*
X12840649Y33210499D01*
X12840645Y33210499D01*
X12840638Y33210500D01*
X11714345Y33210500D01*
X11646224Y33230502D01*
X11599731Y33284158D01*
X11589627Y33354432D01*
X11619121Y33419012D01*
X11625250Y33425595D01*
X12139157Y33939501D01*
X12902943Y34703287D01*
X12918951Y34716829D01*
X12921215Y34718441D01*
X12921217Y34718443D01*
X12984140Y34784434D01*
X12986194Y34786538D01*
X13013165Y34813509D01*
X13018718Y34820234D01*
X13024684Y34826956D01*
X13067302Y34871652D01*
X13084767Y34898830D01*
X13093603Y34910931D01*
X13114179Y34935851D01*
X13119553Y34945694D01*
X13143777Y34990055D01*
X13148366Y34997790D01*
X13181757Y35049748D01*
X13193765Y35079743D01*
X13200150Y35093295D01*
X13215635Y35121654D01*
X13234444Y35180497D01*
X13237470Y35188915D01*
X13260436Y35246279D01*
X13266551Y35278010D01*
X13270253Y35292516D01*
X13280094Y35323300D01*
X13287426Y35384627D01*
X13288807Y35393482D01*
X13300500Y35454151D01*
X13300500Y35486466D01*
X13301391Y35501423D01*
X13301897Y35505663D01*
X13305226Y35533500D01*
X13300820Y35595095D01*
X13300500Y35604083D01*
X13300500Y36812266D01*
X13320502Y36880387D01*
X13374158Y36926880D01*
X13382466Y36930321D01*
X13416571Y36943042D01*
X13438204Y36951111D01*
X13461257Y36968368D01*
X13527776Y36993179D01*
X13536766Y36993500D01*
X15927234Y36993500D01*
X15995355Y36973498D01*
X16002735Y36968373D01*
X16010073Y36962880D01*
X16025796Y36951110D01*
X16162795Y36900011D01*
X16162803Y36900009D01*
X16223350Y36893500D01*
X16223362Y36893500D01*
X18320649Y36893500D01*
X18381196Y36900009D01*
X18381204Y36900011D01*
X18518202Y36951110D01*
X18518203Y36951110D01*
X18526279Y36957156D01*
X18541257Y36968368D01*
X18607776Y36993179D01*
X18616766Y36993500D01*
X21007234Y36993500D01*
X21075355Y36973498D01*
X21082735Y36968373D01*
X21090073Y36962880D01*
X21105796Y36951110D01*
X21242795Y36900011D01*
X21242803Y36900009D01*
X21303350Y36893500D01*
X21303362Y36893500D01*
X23400649Y36893500D01*
X23461196Y36900009D01*
X23461204Y36900011D01*
X23598202Y36951110D01*
X23598203Y36951110D01*
X23606279Y36957156D01*
X23621257Y36968368D01*
X23687776Y36993179D01*
X23696766Y36993500D01*
X26087234Y36993500D01*
X26155355Y36973498D01*
X26162735Y36968373D01*
X26170073Y36962880D01*
X26185796Y36951110D01*
X26322795Y36900011D01*
X26322803Y36900009D01*
X26383350Y36893500D01*
X26383362Y36893500D01*
X28480649Y36893500D01*
X28541196Y36900009D01*
X28541204Y36900011D01*
X28678202Y36951110D01*
X28678207Y36951112D01*
X28795261Y37038738D01*
X28882887Y37155792D01*
X28882889Y37155797D01*
X28933988Y37292795D01*
X28933990Y37292803D01*
X28940499Y37353350D01*
X28940500Y37353367D01*
X28940500Y37466000D01*
X28960502Y37534121D01*
X29014158Y37580614D01*
X29066500Y37592000D01*
X31896704Y37592000D01*
X31964825Y37571998D01*
G37*
%TD.AperFunction*%
%TA.AperFunction,Conductor*%
G36*
X11001532Y32697710D02*
G01*
X11058368Y32655163D01*
X11083179Y32588643D01*
X11083500Y32579654D01*
X11083500Y32090291D01*
X11082217Y32072359D01*
X11081098Y32064576D01*
X11079719Y32054984D01*
X11083357Y31978613D01*
X11083500Y31972617D01*
X11083500Y31253350D01*
X11090009Y31192803D01*
X11090011Y31192795D01*
X11141110Y31055797D01*
X11141112Y31055792D01*
X11228738Y30938738D01*
X11345792Y30851112D01*
X11345797Y30851110D01*
X11482795Y30800011D01*
X11482803Y30800009D01*
X11543350Y30793500D01*
X11543362Y30793500D01*
X12840649Y30793500D01*
X12901196Y30800009D01*
X12901204Y30800011D01*
X13038202Y30851110D01*
X13038203Y30851110D01*
X13046279Y30857156D01*
X13061257Y30868368D01*
X13127776Y30893179D01*
X13136766Y30893500D01*
X16327234Y30893500D01*
X16395355Y30873498D01*
X16402735Y30868373D01*
X16410073Y30862880D01*
X16425796Y30851110D01*
X16562795Y30800011D01*
X16562803Y30800009D01*
X16623350Y30793500D01*
X16623362Y30793500D01*
X17920649Y30793500D01*
X17981196Y30800009D01*
X17981204Y30800011D01*
X18118202Y30851110D01*
X18118203Y30851110D01*
X18126279Y30857156D01*
X18141257Y30868368D01*
X18207776Y30893179D01*
X18216766Y30893500D01*
X21407234Y30893500D01*
X21475355Y30873498D01*
X21482735Y30868373D01*
X21490073Y30862880D01*
X21505796Y30851110D01*
X21642795Y30800011D01*
X21642803Y30800009D01*
X21703350Y30793500D01*
X21703362Y30793500D01*
X23000649Y30793500D01*
X23061196Y30800009D01*
X23061204Y30800011D01*
X23198202Y30851110D01*
X23198203Y30851110D01*
X23206279Y30857156D01*
X23221257Y30868368D01*
X23287776Y30893179D01*
X23296766Y30893500D01*
X25687500Y30893500D01*
X25755621Y30873498D01*
X25802114Y30819842D01*
X25813500Y30767500D01*
X25813500Y30078403D01*
X25793498Y30010282D01*
X25739842Y29963789D01*
X25674031Y29953125D01*
X25642638Y29956500D01*
X24145362Y29956500D01*
X24145355Y29956499D01*
X24145350Y29956499D01*
X24084803Y29949990D01*
X24084795Y29949988D01*
X24006875Y29920924D01*
X23947796Y29898889D01*
X23947794Y29898888D01*
X23947792Y29898887D01*
X23830738Y29811261D01*
X23743112Y29694207D01*
X23743110Y29694202D01*
X23692011Y29557204D01*
X23692009Y29557196D01*
X23685500Y29496649D01*
X23685500Y27399350D01*
X23692009Y27338803D01*
X23692011Y27338795D01*
X23743110Y27201797D01*
X23743112Y27201793D01*
X23760369Y27178741D01*
X23785179Y27112221D01*
X23785500Y27103233D01*
X23785500Y25220765D01*
X23765498Y25152644D01*
X23760375Y25145266D01*
X23743111Y25122204D01*
X23692009Y24985196D01*
X23685500Y24924649D01*
X23685500Y22827350D01*
X23692009Y22766803D01*
X23692011Y22766795D01*
X23743110Y22629797D01*
X23743112Y22629793D01*
X23760369Y22606741D01*
X23785179Y22540221D01*
X23785500Y22531233D01*
X23785500Y20648765D01*
X23765498Y20580644D01*
X23760375Y20573266D01*
X23743111Y20550204D01*
X23692009Y20413196D01*
X23685500Y20352649D01*
X23685500Y18255350D01*
X23692009Y18194803D01*
X23692011Y18194795D01*
X23743110Y18057797D01*
X23743112Y18057793D01*
X23760369Y18034741D01*
X23785179Y17968221D01*
X23785500Y17959233D01*
X23785500Y16076765D01*
X23765498Y16008644D01*
X23760375Y16001266D01*
X23743111Y15978204D01*
X23692009Y15841196D01*
X23685500Y15780649D01*
X23685500Y13683350D01*
X23692009Y13622803D01*
X23692011Y13622795D01*
X23743110Y13485797D01*
X23743112Y13485793D01*
X23760369Y13462741D01*
X23785179Y13396221D01*
X23785500Y13387233D01*
X23785500Y11504765D01*
X23765498Y11436644D01*
X23760375Y11429266D01*
X23753060Y11419494D01*
X23743111Y11406204D01*
X23692009Y11269196D01*
X23685500Y11208649D01*
X23685500Y10571346D01*
X23665498Y10503225D01*
X23648595Y10482251D01*
X23165056Y9998712D01*
X23149050Y9985172D01*
X23146785Y9983559D01*
X23146781Y9983555D01*
X23083859Y9917564D01*
X23081803Y9915459D01*
X23054835Y9888491D01*
X23049281Y9881764D01*
X23043312Y9875040D01*
X23000700Y9830350D01*
X23000695Y9830344D01*
X22983230Y9803167D01*
X22974393Y9791064D01*
X22953818Y9766146D01*
X22924221Y9711942D01*
X22919632Y9704207D01*
X22886244Y9652255D01*
X22874234Y9622255D01*
X22867848Y9608702D01*
X22852367Y9580350D01*
X22852366Y9580348D01*
X22833562Y9521525D01*
X22830520Y9513064D01*
X22807564Y9455721D01*
X22801448Y9423988D01*
X22797742Y9409469D01*
X22787907Y9378703D01*
X22787906Y9378702D01*
X22780573Y9317375D01*
X22779187Y9308492D01*
X22767500Y9247850D01*
X22767500Y9215533D01*
X22766609Y9200576D01*
X22762774Y9168498D01*
X22767179Y9106902D01*
X22767500Y9097915D01*
X22767500Y7031588D01*
X22747498Y6963467D01*
X22742368Y6956079D01*
X22706868Y6908657D01*
X22650032Y6866110D01*
X22579216Y6861046D01*
X22516904Y6895071D01*
X22505132Y6908657D01*
X22469632Y6956079D01*
X22444821Y7022599D01*
X22444500Y7031588D01*
X22444500Y7514926D01*
X22446244Y7535817D01*
X22446705Y7538559D01*
X22444536Y7629675D01*
X22444500Y7632674D01*
X22444500Y7670799D01*
X22444500Y7670803D01*
X22443670Y7679486D01*
X22443136Y7688451D01*
X22441667Y7750198D01*
X22434797Y7781774D01*
X22432489Y7796576D01*
X22429419Y7828739D01*
X22412010Y7888024D01*
X22409796Y7896700D01*
X22396667Y7957059D01*
X22383946Y7986762D01*
X22378880Y8000853D01*
X22369777Y8031862D01*
X22341468Y8086771D01*
X22337657Y8094859D01*
X22313333Y8151664D01*
X22295214Y8178431D01*
X22287569Y8191319D01*
X22272770Y8220027D01*
X22234588Y8268577D01*
X22229311Y8275805D01*
X22194675Y8326981D01*
X22171816Y8349838D01*
X22161884Y8361028D01*
X22141908Y8386432D01*
X22095228Y8426879D01*
X22088660Y8432994D01*
X20039403Y10482252D01*
X20005379Y10544562D01*
X20002500Y10571345D01*
X20002500Y10808632D01*
X20002499Y10808649D01*
X19995990Y10869196D01*
X19995989Y10869197D01*
X19995989Y10869201D01*
X19944889Y11006204D01*
X19927632Y11029255D01*
X19902821Y11095774D01*
X19902500Y11104765D01*
X19902500Y13497500D01*
X19922502Y13565621D01*
X19976158Y13612114D01*
X20028500Y13623500D01*
X20880801Y13623500D01*
X20880803Y13623500D01*
X20880804Y13623500D01*
X20880822Y13623501D01*
X21038728Y13638579D01*
X21038737Y13638580D01*
X21038739Y13638581D01*
X21038741Y13638581D01*
X21038743Y13638582D01*
X21241864Y13698223D01*
X21430023Y13795227D01*
X21596435Y13926094D01*
X21735061Y14086077D01*
X21735069Y14086088D01*
X21840910Y14269412D01*
X21840913Y14269419D01*
X21910153Y14469473D01*
X21918099Y14524735D01*
X21940281Y14679014D01*
X21930209Y14890463D01*
X21930208Y14890467D01*
X21930208Y14890474D01*
X21880298Y15096204D01*
X21792356Y15288771D01*
X21669559Y15461215D01*
X21516346Y15607303D01*
X21338254Y15721756D01*
X21141721Y15800436D01*
X20933849Y15840500D01*
X20933845Y15840500D01*
X20028500Y15840500D01*
X19960379Y15860502D01*
X19913886Y15914158D01*
X19902500Y15966500D01*
X19902500Y18359233D01*
X19922502Y18427354D01*
X19927631Y18434741D01*
X19944887Y18457793D01*
X19944889Y18457797D01*
X19995988Y18594795D01*
X19995990Y18594803D01*
X20002499Y18655350D01*
X20002500Y18655367D01*
X20002500Y19952632D01*
X20002499Y19952649D01*
X19995990Y20013196D01*
X19995989Y20013197D01*
X19995989Y20013201D01*
X19944889Y20150204D01*
X19927632Y20173255D01*
X19902821Y20239774D01*
X19902500Y20248765D01*
X19902500Y22931233D01*
X19922502Y22999354D01*
X19927631Y23006741D01*
X19944887Y23029793D01*
X19944889Y23029797D01*
X19995988Y23166795D01*
X19995990Y23166803D01*
X20002499Y23227350D01*
X20002500Y23227367D01*
X20002500Y24524632D01*
X20002499Y24524649D01*
X19995990Y24585196D01*
X19995989Y24585197D01*
X19995989Y24585201D01*
X19944889Y24722204D01*
X19927632Y24745255D01*
X19902821Y24811774D01*
X19902500Y24820765D01*
X19902500Y27503233D01*
X19922502Y27571354D01*
X19927631Y27578741D01*
X19944887Y27601793D01*
X19944889Y27601797D01*
X19995988Y27738795D01*
X19995990Y27738803D01*
X20002499Y27799350D01*
X20002500Y27799367D01*
X20002500Y29096632D01*
X20002499Y29096649D01*
X19995990Y29157196D01*
X19995988Y29157204D01*
X19988960Y29176045D01*
X19944889Y29294204D01*
X19857261Y29411261D01*
X19743211Y29496638D01*
X19740207Y29498887D01*
X19740206Y29498887D01*
X19740204Y29498889D01*
X19603201Y29549989D01*
X19603199Y29549989D01*
X19603196Y29549990D01*
X19542649Y29556499D01*
X19542645Y29556499D01*
X19542638Y29556500D01*
X19542632Y29556500D01*
X18882291Y29556500D01*
X18864359Y29557782D01*
X18846984Y29560281D01*
X18770611Y29556642D01*
X18764618Y29556500D01*
X18055733Y29556500D01*
X17987612Y29576502D01*
X17941119Y29630158D01*
X17937687Y29638441D01*
X17916889Y29694204D01*
X17829261Y29811261D01*
X17712204Y29898889D01*
X17575201Y29949989D01*
X17575199Y29949989D01*
X17575196Y29949990D01*
X17514649Y29956499D01*
X17514645Y29956499D01*
X17514638Y29956500D01*
X16017362Y29956500D01*
X16017355Y29956499D01*
X16017350Y29956499D01*
X15956803Y29949990D01*
X15956795Y29949988D01*
X15878875Y29920924D01*
X15819796Y29898889D01*
X15819794Y29898888D01*
X15819792Y29898887D01*
X15702738Y29811261D01*
X15615112Y29694207D01*
X15615110Y29694202D01*
X15564011Y29557204D01*
X15564009Y29557196D01*
X15557500Y29496649D01*
X15557500Y27399350D01*
X15564009Y27338803D01*
X15564011Y27338795D01*
X15615110Y27201797D01*
X15615112Y27201793D01*
X15632369Y27178741D01*
X15657179Y27112221D01*
X15657500Y27103233D01*
X15657500Y25220765D01*
X15637498Y25152644D01*
X15632375Y25145266D01*
X15615111Y25122204D01*
X15564009Y24985196D01*
X15557500Y24924649D01*
X15557500Y22827350D01*
X15564009Y22766803D01*
X15564011Y22766795D01*
X15615110Y22629797D01*
X15615112Y22629793D01*
X15632369Y22606741D01*
X15657179Y22540221D01*
X15657500Y22531233D01*
X15657500Y20648765D01*
X15637498Y20580644D01*
X15632375Y20573266D01*
X15615111Y20550204D01*
X15564009Y20413196D01*
X15557500Y20352649D01*
X15557500Y18255350D01*
X15564009Y18194803D01*
X15564011Y18194795D01*
X15615110Y18057797D01*
X15615112Y18057793D01*
X15632369Y18034741D01*
X15657179Y17968221D01*
X15657500Y17959233D01*
X15657500Y16076765D01*
X15637498Y16008644D01*
X15632375Y16001266D01*
X15615111Y15978204D01*
X15564009Y15841196D01*
X15557500Y15780649D01*
X15557500Y13683350D01*
X15564009Y13622803D01*
X15564011Y13622795D01*
X15615110Y13485797D01*
X15615112Y13485793D01*
X15632369Y13462741D01*
X15657179Y13396221D01*
X15657500Y13387233D01*
X15657500Y11504765D01*
X15637498Y11436644D01*
X15632375Y11429266D01*
X15625060Y11419494D01*
X15615111Y11406204D01*
X15564009Y11269196D01*
X15557500Y11208649D01*
X15557500Y9111350D01*
X15564009Y9050803D01*
X15564011Y9050795D01*
X15615110Y8913797D01*
X15615112Y8913793D01*
X15632369Y8890741D01*
X15657179Y8824221D01*
X15657500Y8815233D01*
X15657500Y6424765D01*
X15637498Y6356644D01*
X15632375Y6349266D01*
X15615111Y6326204D01*
X15564009Y6189196D01*
X15557500Y6128649D01*
X15557500Y4282500D01*
X15537498Y4214379D01*
X15483842Y4167886D01*
X15431500Y4156500D01*
X13309345Y4156500D01*
X13241224Y4176502D01*
X13220250Y4193405D01*
X11911405Y5502250D01*
X11877379Y5564562D01*
X11874500Y5591345D01*
X11874500Y5728632D01*
X11874499Y5728649D01*
X11867990Y5789196D01*
X11867989Y5789197D01*
X11867989Y5789201D01*
X11816889Y5926204D01*
X11799632Y5949255D01*
X11774821Y6015774D01*
X11774500Y6024765D01*
X11774500Y9215233D01*
X11794502Y9283354D01*
X11799631Y9290741D01*
X11816887Y9313793D01*
X11816889Y9313797D01*
X11821934Y9327321D01*
X11860524Y9430785D01*
X11867988Y9450795D01*
X11867990Y9450803D01*
X11874499Y9511350D01*
X11874500Y9511367D01*
X11874500Y10808632D01*
X11874499Y10808649D01*
X11867990Y10869196D01*
X11867989Y10869197D01*
X11867989Y10869201D01*
X11816889Y11006204D01*
X11799632Y11029255D01*
X11774821Y11095774D01*
X11774500Y11104765D01*
X11774500Y13787233D01*
X11794502Y13855354D01*
X11799631Y13862741D01*
X11816887Y13885793D01*
X11816889Y13885797D01*
X11831920Y13926094D01*
X11860524Y14002785D01*
X11867988Y14022795D01*
X11867990Y14022803D01*
X11874499Y14083350D01*
X11874500Y14083367D01*
X11874500Y15380632D01*
X11874499Y15380649D01*
X11867990Y15441196D01*
X11867989Y15441197D01*
X11867989Y15441201D01*
X11816889Y15578204D01*
X11799632Y15601255D01*
X11774821Y15667774D01*
X11774500Y15676765D01*
X11774500Y18359233D01*
X11794502Y18427354D01*
X11799631Y18434741D01*
X11816887Y18457793D01*
X11816889Y18457797D01*
X11867988Y18594795D01*
X11867990Y18594803D01*
X11874499Y18655350D01*
X11874500Y18655367D01*
X11874500Y19952632D01*
X11874499Y19952649D01*
X11867990Y20013196D01*
X11867989Y20013197D01*
X11867989Y20013201D01*
X11816889Y20150204D01*
X11799632Y20173255D01*
X11774821Y20239774D01*
X11774500Y20248765D01*
X11774500Y22931233D01*
X11794502Y22999354D01*
X11799631Y23006741D01*
X11816887Y23029793D01*
X11816889Y23029797D01*
X11867988Y23166795D01*
X11867990Y23166803D01*
X11874499Y23227350D01*
X11874500Y23227367D01*
X11874500Y24524632D01*
X11874499Y24524649D01*
X11867990Y24585196D01*
X11867989Y24585197D01*
X11867989Y24585201D01*
X11816889Y24722204D01*
X11799632Y24745255D01*
X11774821Y24811774D01*
X11774500Y24820765D01*
X11774500Y27503233D01*
X11794502Y27571354D01*
X11799631Y27578741D01*
X11816887Y27601793D01*
X11816889Y27601797D01*
X11867988Y27738795D01*
X11867990Y27738803D01*
X11874499Y27799350D01*
X11874500Y27799367D01*
X11874500Y29096632D01*
X11874499Y29096649D01*
X11867990Y29157196D01*
X11867988Y29157204D01*
X11860960Y29176045D01*
X11816889Y29294204D01*
X11729261Y29411261D01*
X11615211Y29496638D01*
X11612207Y29498887D01*
X11612206Y29498887D01*
X11612204Y29498889D01*
X11475201Y29549989D01*
X11475199Y29549989D01*
X11475196Y29549990D01*
X11414649Y29556499D01*
X11414645Y29556499D01*
X11414638Y29556500D01*
X11414632Y29556500D01*
X10754291Y29556500D01*
X10736359Y29557782D01*
X10718984Y29560281D01*
X10642611Y29556642D01*
X10636618Y29556500D01*
X9927734Y29556500D01*
X9859613Y29576502D01*
X9813120Y29630158D01*
X9809679Y29638466D01*
X9793254Y29682500D01*
X9788889Y29694204D01*
X9771632Y29717255D01*
X9746821Y29783774D01*
X9746500Y29792765D01*
X9746500Y31494654D01*
X9766502Y31562775D01*
X9783405Y31583749D01*
X10868405Y32668749D01*
X10930717Y32702775D01*
X11001532Y32697710D01*
G37*
%TD.AperFunction*%
%TA.AperFunction,Conductor*%
G36*
X34439012Y14551838D02*
G01*
X34477396Y14492112D01*
X34478948Y14486320D01*
X34507700Y14367801D01*
X34507702Y14367795D01*
X34595644Y14175228D01*
X34595648Y14175221D01*
X34718435Y14002791D01*
X34718444Y14002781D01*
X34871656Y13856695D01*
X35049745Y13742244D01*
X35246281Y13663563D01*
X35454146Y13623500D01*
X35454151Y13623500D01*
X35849500Y13623500D01*
X35917621Y13603498D01*
X35964114Y13549842D01*
X35975500Y13497500D01*
X35975500Y13473350D01*
X35982009Y13412803D01*
X35982011Y13412795D01*
X36033110Y13275797D01*
X36033112Y13275792D01*
X36120738Y13158738D01*
X36237792Y13071112D01*
X36237797Y13071110D01*
X36374795Y13020011D01*
X36374803Y13020009D01*
X36435350Y13013500D01*
X37466000Y13013500D01*
X37534121Y12993498D01*
X37580614Y12939842D01*
X37592000Y12887500D01*
X37592000Y8743295D01*
X37571998Y8675174D01*
X37518342Y8628681D01*
X37448068Y8618577D01*
X37412128Y8629393D01*
X37092772Y8780438D01*
X36722684Y8912857D01*
X36341400Y9008364D01*
X35952591Y9066038D01*
X35615384Y9082604D01*
X35560004Y9085325D01*
X35559996Y9085325D01*
X35502590Y9082504D01*
X35167409Y9066038D01*
X34778600Y9008364D01*
X34397316Y8912857D01*
X34397306Y8912853D01*
X34397304Y8912853D01*
X34390794Y8910524D01*
X34319917Y8906407D01*
X34258066Y8941262D01*
X34224877Y9004024D01*
X34225526Y9042705D01*
X34223147Y9042961D01*
X34230499Y9111350D01*
X34230500Y9111367D01*
X34230500Y11208632D01*
X34230499Y11208649D01*
X34223990Y11269196D01*
X34223989Y11269197D01*
X34223989Y11269201D01*
X34172889Y11406204D01*
X34155632Y11429255D01*
X34130821Y11495774D01*
X34130500Y11504765D01*
X34130500Y13387233D01*
X34150502Y13455354D01*
X34155631Y13462741D01*
X34172887Y13485793D01*
X34172889Y13485797D01*
X34223988Y13622795D01*
X34223990Y13622803D01*
X34230499Y13683350D01*
X34230500Y13683367D01*
X34230500Y14456614D01*
X34250502Y14524735D01*
X34304158Y14571228D01*
X34374432Y14581332D01*
X34439012Y14551838D01*
G37*
%TD.AperFunction*%
%TA.AperFunction,Conductor*%
G36*
X7469285Y32259653D02*
G01*
X7519262Y32209227D01*
X7534044Y32139786D01*
X7532129Y32125492D01*
X7529500Y32111850D01*
X7529500Y32079533D01*
X7528609Y32064576D01*
X7524774Y32032498D01*
X7529179Y31970902D01*
X7529500Y31961915D01*
X7529500Y29792765D01*
X7509498Y29724644D01*
X7504375Y29717266D01*
X7487114Y29694208D01*
X7487111Y29694204D01*
X7436009Y29557196D01*
X7429500Y29496649D01*
X7429500Y27399350D01*
X7436009Y27338803D01*
X7436011Y27338795D01*
X7487110Y27201797D01*
X7487112Y27201793D01*
X7504369Y27178741D01*
X7529179Y27112221D01*
X7529500Y27103233D01*
X7529500Y25220765D01*
X7509498Y25152644D01*
X7504375Y25145266D01*
X7487111Y25122204D01*
X7436009Y24985196D01*
X7429500Y24924649D01*
X7429500Y22827350D01*
X7436009Y22766803D01*
X7436011Y22766795D01*
X7487110Y22629797D01*
X7487112Y22629793D01*
X7504369Y22606741D01*
X7529179Y22540221D01*
X7529500Y22531233D01*
X7529500Y20648765D01*
X7509498Y20580644D01*
X7504375Y20573266D01*
X7487111Y20550204D01*
X7436009Y20413196D01*
X7429500Y20352649D01*
X7429500Y18255350D01*
X7436009Y18194803D01*
X7436011Y18194795D01*
X7487110Y18057797D01*
X7487112Y18057793D01*
X7504369Y18034741D01*
X7529179Y17968221D01*
X7529500Y17959233D01*
X7529500Y16076765D01*
X7509498Y16008644D01*
X7504375Y16001266D01*
X7487111Y15978204D01*
X7436009Y15841196D01*
X7429500Y15780649D01*
X7429500Y13683350D01*
X7436009Y13622803D01*
X7436011Y13622795D01*
X7487110Y13485797D01*
X7487112Y13485793D01*
X7504369Y13462741D01*
X7529179Y13396221D01*
X7529500Y13387233D01*
X7529500Y12282260D01*
X7528609Y12267302D01*
X7522774Y12218498D01*
X7537874Y12007344D01*
X7592668Y11802854D01*
X7592671Y11802846D01*
X7685163Y11612444D01*
X7685168Y11612437D01*
X7772500Y11495774D01*
X7791788Y11470009D01*
X7816599Y11403489D01*
X7801507Y11334115D01*
X7751305Y11283912D01*
X7690920Y11268500D01*
X7621346Y11268500D01*
X7553225Y11288502D01*
X7532251Y11305405D01*
X3783405Y15054251D01*
X3749379Y15116563D01*
X3746500Y15143346D01*
X3746500Y15380632D01*
X3746499Y15380649D01*
X3739990Y15441196D01*
X3739989Y15441197D01*
X3739989Y15441201D01*
X3688889Y15578204D01*
X3671632Y15601255D01*
X3646821Y15667774D01*
X3646500Y15676765D01*
X3646500Y18359233D01*
X3666502Y18427354D01*
X3671631Y18434741D01*
X3688887Y18457793D01*
X3688889Y18457797D01*
X3739988Y18594795D01*
X3739990Y18594803D01*
X3746499Y18655350D01*
X3746500Y18655367D01*
X3746500Y19952632D01*
X3746499Y19952649D01*
X3739990Y20013196D01*
X3739989Y20013197D01*
X3739989Y20013201D01*
X3688889Y20150204D01*
X3671632Y20173255D01*
X3646821Y20239774D01*
X3646500Y20248765D01*
X3646500Y22931233D01*
X3666502Y22999354D01*
X3671631Y23006741D01*
X3688887Y23029793D01*
X3688889Y23029797D01*
X3739988Y23166795D01*
X3739990Y23166803D01*
X3746499Y23227350D01*
X3746500Y23227367D01*
X3746500Y24524632D01*
X3746499Y24524649D01*
X3739990Y24585196D01*
X3739989Y24585197D01*
X3739989Y24585201D01*
X3688889Y24722204D01*
X3671632Y24745255D01*
X3646821Y24811774D01*
X3646500Y24820765D01*
X3646500Y27503233D01*
X3666502Y27571354D01*
X3671631Y27578741D01*
X3688887Y27601793D01*
X3688889Y27601797D01*
X3739988Y27738795D01*
X3739990Y27738803D01*
X3746499Y27799350D01*
X3746500Y27799367D01*
X3746500Y29096632D01*
X3746499Y29096649D01*
X3739990Y29157196D01*
X3739988Y29157204D01*
X3732960Y29176045D01*
X3688889Y29294204D01*
X3601261Y29411261D01*
X3487211Y29496638D01*
X3484207Y29498887D01*
X3484206Y29498887D01*
X3484204Y29498889D01*
X3347201Y29549989D01*
X3347199Y29549989D01*
X3347196Y29549990D01*
X3286649Y29556499D01*
X3286645Y29556499D01*
X3286638Y29556500D01*
X3286632Y29556500D01*
X3174000Y29556500D01*
X3105879Y29576502D01*
X3059386Y29630158D01*
X3048000Y29682500D01*
X3048000Y31896704D01*
X3068002Y31964825D01*
X3121658Y32011318D01*
X3191932Y32021422D01*
X3227871Y32010607D01*
X3432755Y31913704D01*
X3547230Y31859561D01*
X3917310Y31727144D01*
X4107958Y31679389D01*
X4298600Y31631636D01*
X4298604Y31631635D01*
X4298606Y31631635D01*
X4687398Y31573963D01*
X4687406Y31573962D01*
X4687409Y31573962D01*
X4855662Y31565696D01*
X5079996Y31554675D01*
X5080000Y31554675D01*
X5080004Y31554675D01*
X5276295Y31564318D01*
X5472591Y31573962D01*
X5472594Y31573962D01*
X5472601Y31573963D01*
X5861393Y31631635D01*
X5861400Y31631636D01*
X6146995Y31703174D01*
X6242689Y31727144D01*
X6612769Y31859561D01*
X6612772Y31859562D01*
X6968097Y32027619D01*
X7305239Y32229694D01*
X7305241Y32229695D01*
X7333349Y32250541D01*
X7399979Y32275054D01*
X7469285Y32259653D01*
G37*
%TD.AperFunction*%
%TA.AperFunction,Conductor*%
G36*
X35807355Y19193498D02*
G01*
X35814735Y19188373D01*
X35822073Y19182880D01*
X35837796Y19171110D01*
X35974795Y19120011D01*
X35974803Y19120009D01*
X36035350Y19113500D01*
X37466000Y19113500D01*
X37534121Y19093498D01*
X37580614Y19039842D01*
X37592000Y18987500D01*
X37592000Y15587215D01*
X37571998Y15519094D01*
X37518342Y15472601D01*
X37448068Y15462497D01*
X37383488Y15491991D01*
X37379089Y15495987D01*
X37349518Y15524183D01*
X37347500Y15526154D01*
X37320491Y15553165D01*
X37313759Y15558722D01*
X37307042Y15564685D01*
X37296865Y15574388D01*
X37262346Y15607303D01*
X37235156Y15624775D01*
X37223076Y15633596D01*
X37198149Y15654179D01*
X37143926Y15683785D01*
X37136223Y15688356D01*
X37084254Y15721756D01*
X37054261Y15733763D01*
X37040700Y15740152D01*
X37040534Y15740242D01*
X37012346Y15755635D01*
X36953514Y15774440D01*
X36945070Y15777476D01*
X36887721Y15800436D01*
X36855987Y15806551D01*
X36841472Y15810256D01*
X36810700Y15820094D01*
X36749371Y15827426D01*
X36740521Y15828806D01*
X36679849Y15840500D01*
X36679845Y15840500D01*
X36647533Y15840500D01*
X36632576Y15841391D01*
X36632113Y15841446D01*
X36600500Y15845226D01*
X36538905Y15840821D01*
X36529917Y15840500D01*
X35507197Y15840500D01*
X35349261Y15825419D01*
X35196730Y15780632D01*
X35146135Y15765776D01*
X34973480Y15676765D01*
X34957974Y15668771D01*
X34872119Y15601254D01*
X34791564Y15537905D01*
X34652938Y15377922D01*
X34652930Y15377911D01*
X34547089Y15194587D01*
X34547086Y15194580D01*
X34475884Y14988855D01*
X34473522Y14989672D01*
X34443461Y14937591D01*
X34380360Y14905051D01*
X34309684Y14911791D01*
X34253872Y14955672D01*
X34230643Y15022761D01*
X34230500Y15028771D01*
X34230500Y15780632D01*
X34230499Y15780649D01*
X34223990Y15841196D01*
X34223989Y15841197D01*
X34223989Y15841201D01*
X34172889Y15978204D01*
X34155632Y16001255D01*
X34130821Y16067774D01*
X34130500Y16076765D01*
X34130500Y17959233D01*
X34150502Y18027354D01*
X34155631Y18034741D01*
X34172887Y18057793D01*
X34172889Y18057797D01*
X34223988Y18194795D01*
X34223990Y18194803D01*
X34230499Y18255350D01*
X34230500Y18255367D01*
X34230500Y18892654D01*
X34250502Y18960775D01*
X34267405Y18981749D01*
X34462251Y19176595D01*
X34524563Y19210621D01*
X34551346Y19213500D01*
X35739234Y19213500D01*
X35807355Y19193498D01*
G37*
%TD.AperFunction*%
%TA.AperFunction,Conductor*%
G36*
X35807355Y28337498D02*
G01*
X35814735Y28332373D01*
X35822073Y28326880D01*
X35837796Y28315110D01*
X35974795Y28264011D01*
X35974803Y28264009D01*
X36035350Y28257500D01*
X37466000Y28257500D01*
X37534121Y28237498D01*
X37580614Y28183842D01*
X37592000Y28131500D01*
X37592000Y24700500D01*
X37571998Y24632379D01*
X37518342Y24585886D01*
X37466000Y24574500D01*
X36435362Y24574500D01*
X36435355Y24574499D01*
X36435350Y24574499D01*
X36374803Y24567990D01*
X36374795Y24567988D01*
X36296875Y24538924D01*
X36237796Y24516889D01*
X36214742Y24499631D01*
X36148224Y24474821D01*
X36139234Y24474500D01*
X35650260Y24474500D01*
X35635303Y24475390D01*
X35586500Y24481226D01*
X35375341Y24466125D01*
X35170857Y24411333D01*
X35170849Y24411329D01*
X35170846Y24411328D01*
X34980444Y24318836D01*
X34980440Y24318833D01*
X34980437Y24318832D01*
X34810964Y24191967D01*
X34668563Y24035321D01*
X34558382Y23854556D01*
X34494234Y23682571D01*
X34484399Y23656201D01*
X34480755Y23634526D01*
X34449734Y23570666D01*
X34389111Y23533714D01*
X34318135Y23535404D01*
X34259339Y23575198D01*
X34231391Y23640462D01*
X34230500Y23655421D01*
X34230500Y24924632D01*
X34230499Y24924649D01*
X34223990Y24985196D01*
X34223989Y24985197D01*
X34223989Y24985201D01*
X34172889Y25122204D01*
X34155632Y25145255D01*
X34130821Y25211774D01*
X34130500Y25220765D01*
X34130500Y27103233D01*
X34150502Y27171354D01*
X34155631Y27178741D01*
X34172887Y27201793D01*
X34172889Y27201797D01*
X34223988Y27338795D01*
X34223990Y27338803D01*
X34230499Y27399350D01*
X34230500Y27399367D01*
X34230500Y28036654D01*
X34250502Y28104775D01*
X34267405Y28125749D01*
X34462251Y28320595D01*
X34524563Y28354621D01*
X34551346Y28357500D01*
X35739234Y28357500D01*
X35807355Y28337498D01*
G37*
%TD.AperFunction*%
%TD*%
M02*
