%TF.GenerationSoftware,KiCad,Pcbnew,7.0.11+1*%
%TF.CreationDate,2024-07-04T22:31:09+00:00*%
%TF.ProjectId,PIND01,50494e44-3031-42e6-9b69-6361645f7063,rev?*%
%TF.SameCoordinates,Original*%
%TF.FileFunction,Paste,Bot*%
%TF.FilePolarity,Positive*%
%FSLAX46Y46*%
G04 Gerber Fmt 4.6, Leading zero omitted, Abs format (unit mm)*
G04 Created by KiCad (PCBNEW 7.0.11+1) date 2024-07-04 22:31:09*
%MOMM*%
%LPD*%
G01*
G04 APERTURE LIST*
%ADD10R,1.400000X2.000000*%
%ADD11R,1.400000X1.200000*%
%ADD12R,2.000000X1.400000*%
%ADD13R,1.200000X1.400000*%
G04 APERTURE END LIST*
D10*
%TO.C,D1*%
X24894000Y28448000D03*
D11*
X18794000Y28448000D03*
%TD*%
D10*
%TO.C,D2*%
X24894000Y23876000D03*
D11*
X18794000Y23876000D03*
%TD*%
D10*
%TO.C,D3*%
X33022000Y23876000D03*
D11*
X26922000Y23876000D03*
%TD*%
D10*
%TO.C,D4*%
X8638000Y19304000D03*
D11*
X2538000Y19304000D03*
%TD*%
D12*
%TO.C,D5*%
X37084000Y29466000D03*
D13*
X37084000Y23366000D03*
%TD*%
D10*
%TO.C,D6*%
X8638000Y23876000D03*
D11*
X2538000Y23876000D03*
%TD*%
D10*
%TO.C,D7*%
X16766000Y23876000D03*
D11*
X10666000Y23876000D03*
%TD*%
D10*
%TO.C,D8*%
X33022000Y10160000D03*
D11*
X26922000Y10160000D03*
%TD*%
D10*
%TO.C,D9*%
X16766000Y5080000D03*
D11*
X10666000Y5080000D03*
%TD*%
D10*
%TO.C,D10*%
X33022000Y28448000D03*
D11*
X26922000Y28448000D03*
%TD*%
D12*
%TO.C,D11*%
X27432000Y38102000D03*
D13*
X27432000Y32002000D03*
%TD*%
D10*
%TO.C,D12*%
X16766000Y28448000D03*
D11*
X10666000Y28448000D03*
%TD*%
D12*
%TO.C,D13*%
X12192000Y38102000D03*
D13*
X12192000Y32002000D03*
%TD*%
D10*
%TO.C,D14*%
X24894000Y19304000D03*
D11*
X18794000Y19304000D03*
%TD*%
D10*
%TO.C,D15*%
X33022000Y19304000D03*
D11*
X26922000Y19304000D03*
%TD*%
D10*
%TO.C,D16*%
X16766000Y19304000D03*
D11*
X10666000Y19304000D03*
%TD*%
D12*
%TO.C,D17*%
X17272000Y38102000D03*
D13*
X17272000Y32002000D03*
%TD*%
D12*
%TO.C,D18*%
X22352000Y38102000D03*
D13*
X22352000Y32002000D03*
%TD*%
D10*
%TO.C,D19*%
X8638000Y28448000D03*
D11*
X2538000Y28448000D03*
%TD*%
D10*
%TO.C,D20*%
X33022000Y14732000D03*
D11*
X26922000Y14732000D03*
%TD*%
D10*
%TO.C,D21*%
X16766000Y14732000D03*
D11*
X10666000Y14732000D03*
%TD*%
D10*
%TO.C,D22*%
X8638000Y14732000D03*
D11*
X2538000Y14732000D03*
%TD*%
D10*
%TO.C,D23*%
X24894000Y14732000D03*
D11*
X18794000Y14732000D03*
%TD*%
D10*
%TO.C,D24*%
X24894000Y10160000D03*
D11*
X18794000Y10160000D03*
%TD*%
D10*
%TO.C,D25*%
X16766000Y10160000D03*
D11*
X10666000Y10160000D03*
%TD*%
D12*
%TO.C,D26*%
X37084000Y20322000D03*
D13*
X37084000Y14222000D03*
%TD*%
M02*
