%TF.GenerationSoftware,KiCad,Pcbnew,7.0.11+1*%
%TF.CreationDate,2024-07-04T22:31:09+00:00*%
%TF.ProjectId,PIND01,50494e44-3031-42e6-9b69-6361645f7063,rev?*%
%TF.SameCoordinates,Original*%
%TF.FileFunction,Soldermask,Top*%
%TF.FilePolarity,Negative*%
%FSLAX46Y46*%
G04 Gerber Fmt 4.6, Leading zero omitted, Abs format (unit mm)*
G04 Created by KiCad (PCBNEW 7.0.11+1) date 2024-07-04 22:31:09*
%MOMM*%
%LPD*%
G01*
G04 APERTURE LIST*
G04 APERTURE END LIST*
G36*
X5166184Y8275160D02*
G01*
X5253234Y8275160D01*
X5346177Y8265051D01*
X5438286Y8259879D01*
X5517513Y8246417D01*
X5597680Y8237699D01*
X5695312Y8216208D01*
X5792067Y8199769D01*
X5863535Y8179179D01*
X5936053Y8163217D01*
X6036973Y8129213D01*
X6136893Y8100427D01*
X6200048Y8074267D01*
X6264384Y8052590D01*
X6367038Y8005097D01*
X6468428Y7963100D01*
X6522969Y7932955D01*
X6578837Y7907109D01*
X6681484Y7845348D01*
X6782503Y7789517D01*
X6828398Y7756952D01*
X6875720Y7728480D01*
X6976503Y7651866D01*
X7075167Y7581861D01*
X7112602Y7548407D01*
X7151539Y7518808D01*
X7248498Y7426962D01*
X7342742Y7342742D01*
X7372153Y7309830D01*
X7403075Y7280540D01*
X7494181Y7173281D01*
X7581861Y7075167D01*
X7603884Y7044127D01*
X7627383Y7016463D01*
X7710624Y6893691D01*
X7789517Y6782503D01*
X7804968Y6754544D01*
X7821819Y6729693D01*
X7895172Y6591334D01*
X7963100Y6468428D01*
X7972984Y6444563D01*
X7984104Y6423591D01*
X8045517Y6269456D01*
X8100427Y6136893D01*
X8105887Y6117939D01*
X8112353Y6101712D01*
X8159945Y5930299D01*
X8199769Y5792067D01*
X8202046Y5778664D01*
X8205041Y5767878D01*
X8236964Y5573153D01*
X8259879Y5438286D01*
X8260298Y5430818D01*
X8261095Y5425959D01*
X8275741Y5155822D01*
X8280000Y5080000D01*
X8275742Y5004184D01*
X8261095Y4734040D01*
X8260298Y4729180D01*
X8259879Y4721714D01*
X8236968Y4586874D01*
X8205041Y4392121D01*
X8202045Y4381333D01*
X8199769Y4367933D01*
X8159952Y4229726D01*
X8112353Y4058287D01*
X8105886Y4042057D01*
X8100427Y4023107D01*
X8045527Y3890569D01*
X7984104Y3736408D01*
X7972983Y3715431D01*
X7963100Y3691572D01*
X7895185Y3568689D01*
X7821819Y3430306D01*
X7804965Y3405449D01*
X7789517Y3377497D01*
X7710639Y3266329D01*
X7627383Y3143536D01*
X7603880Y3115866D01*
X7581861Y3084833D01*
X7494198Y2986738D01*
X7403075Y2879459D01*
X7372147Y2850162D01*
X7342742Y2817258D01*
X7248517Y2733053D01*
X7151539Y2641191D01*
X7112594Y2611586D01*
X7075167Y2578139D01*
X6976523Y2508147D01*
X6875720Y2431519D01*
X6828388Y2403040D01*
X6782503Y2370483D01*
X6681504Y2314663D01*
X6578837Y2252890D01*
X6522958Y2227037D01*
X6468428Y2196900D01*
X6367059Y2154911D01*
X6264384Y2107409D01*
X6200035Y2085727D01*
X6136893Y2059573D01*
X6036993Y2030792D01*
X5936053Y1996782D01*
X5863520Y1980816D01*
X5792067Y1960231D01*
X5695332Y1943795D01*
X5597680Y1922300D01*
X5517500Y1913580D01*
X5438286Y1900121D01*
X5346182Y1894948D01*
X5253234Y1884840D01*
X5166184Y1884840D01*
X5080000Y1880000D01*
X4993816Y1884840D01*
X4906766Y1884840D01*
X4813816Y1894948D01*
X4721714Y1900121D01*
X4642500Y1913579D01*
X4562319Y1922300D01*
X4464662Y1943795D01*
X4367933Y1960231D01*
X4296482Y1980815D01*
X4223946Y1996782D01*
X4122999Y2030794D01*
X4023107Y2059573D01*
X3959969Y2085725D01*
X3895615Y2107409D01*
X3792931Y2154915D01*
X3691572Y2196900D01*
X3637046Y2227035D01*
X3581162Y2252890D01*
X3478483Y2314670D01*
X3377497Y2370483D01*
X3331616Y2403036D01*
X3284279Y2431519D01*
X3183461Y2508158D01*
X3084833Y2578139D01*
X3047411Y2611581D01*
X3008460Y2641191D01*
X2911465Y2733069D01*
X2817258Y2817258D01*
X2787857Y2850156D01*
X2756924Y2879459D01*
X2665781Y2986760D01*
X2578139Y3084833D01*
X2556124Y3115859D01*
X2532616Y3143536D01*
X2449337Y3266361D01*
X2370483Y3377497D01*
X2355038Y3405441D01*
X2338180Y3430306D01*
X2264790Y3568733D01*
X2196900Y3691572D01*
X2187020Y3715423D01*
X2175895Y3736408D01*
X2114445Y3890632D01*
X2059573Y4023107D01*
X2054116Y4042048D01*
X2047646Y4058287D01*
X2000019Y4229822D01*
X1960231Y4367933D01*
X1957955Y4381323D01*
X1954958Y4392121D01*
X1923002Y4587041D01*
X1900121Y4721714D01*
X1899702Y4729170D01*
X1898904Y4734040D01*
X1884228Y5004699D01*
X1880000Y5080000D01*
X1884229Y5155306D01*
X1898904Y5425959D01*
X1899702Y5430827D01*
X1900121Y5438286D01*
X1923007Y5572985D01*
X1954958Y5767878D01*
X1957955Y5778673D01*
X1960231Y5792067D01*
X2000027Y5930204D01*
X2047646Y6101712D01*
X2054115Y6117948D01*
X2059573Y6136893D01*
X2114456Y6269392D01*
X2175895Y6423591D01*
X2187018Y6444572D01*
X2196900Y6468428D01*
X2264803Y6591289D01*
X2338180Y6729693D01*
X2355035Y6754552D01*
X2370483Y6782503D01*
X2449352Y6893659D01*
X2532616Y7016463D01*
X2556120Y7044134D01*
X2578139Y7075167D01*
X2665798Y7173258D01*
X2756924Y7280540D01*
X2787852Y7309836D01*
X2817258Y7342742D01*
X2911483Y7426947D01*
X3008460Y7518808D01*
X3047403Y7548412D01*
X3084833Y7581861D01*
X3183481Y7651855D01*
X3284279Y7728480D01*
X3331607Y7756956D01*
X3377497Y7789517D01*
X3478503Y7845341D01*
X3581162Y7907109D01*
X3637035Y7932958D01*
X3691572Y7963100D01*
X3792952Y8005093D01*
X3895615Y8052590D01*
X3959956Y8074269D01*
X4023107Y8100427D01*
X4123019Y8129211D01*
X4223946Y8163217D01*
X4296467Y8179180D01*
X4367933Y8199769D01*
X4464682Y8216207D01*
X4562319Y8237699D01*
X4642488Y8246417D01*
X4721714Y8259879D01*
X4813822Y8265051D01*
X4906766Y8275160D01*
X4993816Y8275160D01*
X5080000Y8280000D01*
X5166184Y8275160D01*
G37*
G36*
X35646184Y8275160D02*
G01*
X35733234Y8275160D01*
X35826177Y8265051D01*
X35918286Y8259879D01*
X35997513Y8246417D01*
X36077680Y8237699D01*
X36175312Y8216208D01*
X36272067Y8199769D01*
X36343535Y8179179D01*
X36416053Y8163217D01*
X36516973Y8129213D01*
X36616893Y8100427D01*
X36680048Y8074267D01*
X36744384Y8052590D01*
X36847038Y8005097D01*
X36948428Y7963100D01*
X37002969Y7932955D01*
X37058837Y7907109D01*
X37161484Y7845348D01*
X37262503Y7789517D01*
X37308398Y7756952D01*
X37355720Y7728480D01*
X37456503Y7651866D01*
X37555167Y7581861D01*
X37592602Y7548407D01*
X37631539Y7518808D01*
X37728498Y7426962D01*
X37822742Y7342742D01*
X37852153Y7309830D01*
X37883075Y7280540D01*
X37974181Y7173281D01*
X38061861Y7075167D01*
X38083884Y7044127D01*
X38107383Y7016463D01*
X38190624Y6893691D01*
X38269517Y6782503D01*
X38284968Y6754544D01*
X38301819Y6729693D01*
X38375172Y6591334D01*
X38443100Y6468428D01*
X38452984Y6444563D01*
X38464104Y6423591D01*
X38525517Y6269456D01*
X38580427Y6136893D01*
X38585887Y6117939D01*
X38592353Y6101712D01*
X38639945Y5930299D01*
X38679769Y5792067D01*
X38682046Y5778664D01*
X38685041Y5767878D01*
X38716964Y5573153D01*
X38739879Y5438286D01*
X38740298Y5430818D01*
X38741095Y5425959D01*
X38755741Y5155822D01*
X38760000Y5080000D01*
X38755742Y5004184D01*
X38741095Y4734040D01*
X38740298Y4729180D01*
X38739879Y4721714D01*
X38716968Y4586874D01*
X38685041Y4392121D01*
X38682045Y4381333D01*
X38679769Y4367933D01*
X38639952Y4229726D01*
X38592353Y4058287D01*
X38585886Y4042057D01*
X38580427Y4023107D01*
X38525527Y3890569D01*
X38464104Y3736408D01*
X38452983Y3715431D01*
X38443100Y3691572D01*
X38375185Y3568689D01*
X38301819Y3430306D01*
X38284965Y3405449D01*
X38269517Y3377497D01*
X38190639Y3266329D01*
X38107383Y3143536D01*
X38083880Y3115866D01*
X38061861Y3084833D01*
X37974198Y2986738D01*
X37883075Y2879459D01*
X37852147Y2850162D01*
X37822742Y2817258D01*
X37728517Y2733053D01*
X37631539Y2641191D01*
X37592594Y2611586D01*
X37555167Y2578139D01*
X37456523Y2508147D01*
X37355720Y2431519D01*
X37308388Y2403040D01*
X37262503Y2370483D01*
X37161504Y2314663D01*
X37058837Y2252890D01*
X37002958Y2227037D01*
X36948428Y2196900D01*
X36847059Y2154911D01*
X36744384Y2107409D01*
X36680035Y2085727D01*
X36616893Y2059573D01*
X36516993Y2030792D01*
X36416053Y1996782D01*
X36343520Y1980816D01*
X36272067Y1960231D01*
X36175332Y1943795D01*
X36077680Y1922300D01*
X35997500Y1913580D01*
X35918286Y1900121D01*
X35826182Y1894948D01*
X35733234Y1884840D01*
X35646184Y1884840D01*
X35560000Y1880000D01*
X35473816Y1884840D01*
X35386766Y1884840D01*
X35293816Y1894948D01*
X35201714Y1900121D01*
X35122500Y1913579D01*
X35042319Y1922300D01*
X34944662Y1943795D01*
X34847933Y1960231D01*
X34776482Y1980815D01*
X34703946Y1996782D01*
X34602999Y2030794D01*
X34503107Y2059573D01*
X34439969Y2085725D01*
X34375615Y2107409D01*
X34272931Y2154915D01*
X34171572Y2196900D01*
X34117046Y2227035D01*
X34061162Y2252890D01*
X33958483Y2314670D01*
X33857497Y2370483D01*
X33811616Y2403036D01*
X33764279Y2431519D01*
X33663461Y2508158D01*
X33564833Y2578139D01*
X33527411Y2611581D01*
X33488460Y2641191D01*
X33391465Y2733069D01*
X33297258Y2817258D01*
X33267857Y2850156D01*
X33236924Y2879459D01*
X33145781Y2986760D01*
X33058139Y3084833D01*
X33036124Y3115859D01*
X33012616Y3143536D01*
X32929337Y3266361D01*
X32850483Y3377497D01*
X32835038Y3405441D01*
X32818180Y3430306D01*
X32744790Y3568733D01*
X32676900Y3691572D01*
X32667020Y3715423D01*
X32655895Y3736408D01*
X32594445Y3890632D01*
X32539573Y4023107D01*
X32534116Y4042048D01*
X32527646Y4058287D01*
X32480019Y4229822D01*
X32440231Y4367933D01*
X32437955Y4381323D01*
X32434958Y4392121D01*
X32403002Y4587041D01*
X32380121Y4721714D01*
X32379702Y4729170D01*
X32378904Y4734040D01*
X32364228Y5004699D01*
X32360000Y5080000D01*
X32364229Y5155306D01*
X32378904Y5425959D01*
X32379702Y5430827D01*
X32380121Y5438286D01*
X32403007Y5572985D01*
X32434958Y5767878D01*
X32437955Y5778673D01*
X32440231Y5792067D01*
X32480027Y5930204D01*
X32527646Y6101712D01*
X32534115Y6117948D01*
X32539573Y6136893D01*
X32594456Y6269392D01*
X32655895Y6423591D01*
X32667018Y6444572D01*
X32676900Y6468428D01*
X32744803Y6591289D01*
X32818180Y6729693D01*
X32835035Y6754552D01*
X32850483Y6782503D01*
X32929352Y6893659D01*
X33012616Y7016463D01*
X33036120Y7044134D01*
X33058139Y7075167D01*
X33145798Y7173258D01*
X33236924Y7280540D01*
X33267852Y7309836D01*
X33297258Y7342742D01*
X33391483Y7426947D01*
X33488460Y7518808D01*
X33527403Y7548412D01*
X33564833Y7581861D01*
X33663481Y7651855D01*
X33764279Y7728480D01*
X33811607Y7756956D01*
X33857497Y7789517D01*
X33958503Y7845341D01*
X34061162Y7907109D01*
X34117035Y7932958D01*
X34171572Y7963100D01*
X34272952Y8005093D01*
X34375615Y8052590D01*
X34439956Y8074269D01*
X34503107Y8100427D01*
X34603019Y8129211D01*
X34703946Y8163217D01*
X34776467Y8179180D01*
X34847933Y8199769D01*
X34944682Y8216207D01*
X35042319Y8237699D01*
X35122488Y8246417D01*
X35201714Y8259879D01*
X35293822Y8265051D01*
X35386766Y8275160D01*
X35473816Y8275160D01*
X35560000Y8280000D01*
X35646184Y8275160D01*
G37*
G36*
X22106107Y4262387D02*
G01*
X22140134Y4258440D01*
X22151759Y4253306D01*
X22174537Y4248776D01*
X22198921Y4232482D01*
X22210047Y4227570D01*
X22217646Y4219970D01*
X22239421Y4205421D01*
X22253970Y4183646D01*
X22261570Y4176047D01*
X22266482Y4164921D01*
X22282776Y4140537D01*
X22287306Y4117759D01*
X22292440Y4106134D01*
X22296387Y4072105D01*
X22298000Y4064000D01*
X22298000Y2540000D01*
X22296387Y2531894D01*
X22292440Y2497865D01*
X22287306Y2486238D01*
X22282776Y2463463D01*
X22266483Y2439080D01*
X22261570Y2427952D01*
X22253968Y2420350D01*
X22239421Y2398579D01*
X22217649Y2384031D01*
X22210047Y2376429D01*
X22198917Y2371514D01*
X22174537Y2355224D01*
X22151764Y2350694D01*
X22140134Y2345559D01*
X22106093Y2341609D01*
X22098000Y2340000D01*
X22092217Y2340000D01*
X20579784Y2340000D01*
X20574000Y2340000D01*
X20565906Y2341609D01*
X20531865Y2345559D01*
X20520234Y2350694D01*
X20497463Y2355224D01*
X20473084Y2371513D01*
X20461952Y2376429D01*
X20454347Y2384033D01*
X20432579Y2398579D01*
X20418033Y2420347D01*
X20410429Y2427952D01*
X20405513Y2439084D01*
X20389224Y2463463D01*
X20384694Y2486234D01*
X20379559Y2497865D01*
X20375609Y2531908D01*
X20374000Y2540000D01*
X20374000Y4064000D01*
X20375610Y4072095D01*
X20379559Y4106134D01*
X20384694Y4117764D01*
X20389224Y4140537D01*
X20405514Y4164917D01*
X20410429Y4176047D01*
X20418031Y4183649D01*
X20432579Y4205421D01*
X20454350Y4219968D01*
X20461952Y4227570D01*
X20473080Y4232483D01*
X20497463Y4248776D01*
X20520238Y4253306D01*
X20531865Y4258440D01*
X20565896Y4262388D01*
X20574000Y4264000D01*
X22098000Y4264000D01*
X22106107Y4262387D01*
G37*
G36*
X24646107Y4262387D02*
G01*
X24680134Y4258440D01*
X24691759Y4253306D01*
X24714537Y4248776D01*
X24738921Y4232482D01*
X24750047Y4227570D01*
X24757646Y4219970D01*
X24779421Y4205421D01*
X24793970Y4183646D01*
X24801570Y4176047D01*
X24806482Y4164921D01*
X24822776Y4140537D01*
X24827306Y4117759D01*
X24832440Y4106134D01*
X24836387Y4072105D01*
X24838000Y4064000D01*
X24838000Y2540000D01*
X24836387Y2531894D01*
X24832440Y2497865D01*
X24827306Y2486238D01*
X24822776Y2463463D01*
X24806483Y2439080D01*
X24801570Y2427952D01*
X24793968Y2420350D01*
X24779421Y2398579D01*
X24757649Y2384031D01*
X24750047Y2376429D01*
X24738917Y2371514D01*
X24714537Y2355224D01*
X24691764Y2350694D01*
X24680134Y2345559D01*
X24646093Y2341609D01*
X24638000Y2340000D01*
X24632217Y2340000D01*
X23119784Y2340000D01*
X23114000Y2340000D01*
X23105906Y2341609D01*
X23071865Y2345559D01*
X23060234Y2350694D01*
X23037463Y2355224D01*
X23013084Y2371513D01*
X23001952Y2376429D01*
X22994347Y2384033D01*
X22972579Y2398579D01*
X22958033Y2420347D01*
X22950429Y2427952D01*
X22945513Y2439084D01*
X22929224Y2463463D01*
X22924694Y2486234D01*
X22919559Y2497865D01*
X22915609Y2531908D01*
X22914000Y2540000D01*
X22914000Y4064000D01*
X22915610Y4072095D01*
X22919559Y4106134D01*
X22924694Y4117764D01*
X22929224Y4140537D01*
X22945514Y4164917D01*
X22950429Y4176047D01*
X22958031Y4183649D01*
X22972579Y4205421D01*
X22994350Y4219968D01*
X23001952Y4227570D01*
X23013080Y4232483D01*
X23037463Y4248776D01*
X23060238Y4253306D01*
X23071865Y4258440D01*
X23105896Y4262388D01*
X23114000Y4264000D01*
X24638000Y4264000D01*
X24646107Y4262387D01*
G37*
G36*
X27186107Y4262387D02*
G01*
X27220134Y4258440D01*
X27231759Y4253306D01*
X27254537Y4248776D01*
X27278921Y4232482D01*
X27290047Y4227570D01*
X27297646Y4219970D01*
X27319421Y4205421D01*
X27333970Y4183646D01*
X27341570Y4176047D01*
X27346482Y4164921D01*
X27362776Y4140537D01*
X27367306Y4117759D01*
X27372440Y4106134D01*
X27376387Y4072105D01*
X27378000Y4064000D01*
X27378000Y2540000D01*
X27376387Y2531894D01*
X27372440Y2497865D01*
X27367306Y2486238D01*
X27362776Y2463463D01*
X27346483Y2439080D01*
X27341570Y2427952D01*
X27333968Y2420350D01*
X27319421Y2398579D01*
X27297649Y2384031D01*
X27290047Y2376429D01*
X27278917Y2371514D01*
X27254537Y2355224D01*
X27231764Y2350694D01*
X27220134Y2345559D01*
X27186093Y2341609D01*
X27178000Y2340000D01*
X27172217Y2340000D01*
X25659784Y2340000D01*
X25654000Y2340000D01*
X25645906Y2341609D01*
X25611865Y2345559D01*
X25600234Y2350694D01*
X25577463Y2355224D01*
X25553084Y2371513D01*
X25541952Y2376429D01*
X25534347Y2384033D01*
X25512579Y2398579D01*
X25498033Y2420347D01*
X25490429Y2427952D01*
X25485513Y2439084D01*
X25469224Y2463463D01*
X25464694Y2486234D01*
X25459559Y2497865D01*
X25455609Y2531908D01*
X25454000Y2540000D01*
X25454000Y4064000D01*
X25455610Y4072095D01*
X25459559Y4106134D01*
X25464694Y4117764D01*
X25469224Y4140537D01*
X25485514Y4164917D01*
X25490429Y4176047D01*
X25498031Y4183649D01*
X25512579Y4205421D01*
X25534350Y4219968D01*
X25541952Y4227570D01*
X25553080Y4232483D01*
X25577463Y4248776D01*
X25600238Y4253306D01*
X25611865Y4258440D01*
X25645896Y4262388D01*
X25654000Y4264000D01*
X27178000Y4264000D01*
X27186107Y4262387D01*
G37*
G36*
X29726107Y4262387D02*
G01*
X29760134Y4258440D01*
X29771759Y4253306D01*
X29794537Y4248776D01*
X29818921Y4232482D01*
X29830047Y4227570D01*
X29837646Y4219970D01*
X29859421Y4205421D01*
X29873970Y4183646D01*
X29881570Y4176047D01*
X29886482Y4164921D01*
X29902776Y4140537D01*
X29907306Y4117759D01*
X29912440Y4106134D01*
X29916387Y4072105D01*
X29918000Y4064000D01*
X29918000Y2540000D01*
X29916387Y2531894D01*
X29912440Y2497865D01*
X29907306Y2486238D01*
X29902776Y2463463D01*
X29886483Y2439080D01*
X29881570Y2427952D01*
X29873968Y2420350D01*
X29859421Y2398579D01*
X29837649Y2384031D01*
X29830047Y2376429D01*
X29818917Y2371514D01*
X29794537Y2355224D01*
X29771764Y2350694D01*
X29760134Y2345559D01*
X29726093Y2341609D01*
X29718000Y2340000D01*
X29712217Y2340000D01*
X28199784Y2340000D01*
X28194000Y2340000D01*
X28185906Y2341609D01*
X28151865Y2345559D01*
X28140234Y2350694D01*
X28117463Y2355224D01*
X28093084Y2371513D01*
X28081952Y2376429D01*
X28074347Y2384033D01*
X28052579Y2398579D01*
X28038033Y2420347D01*
X28030429Y2427952D01*
X28025513Y2439084D01*
X28009224Y2463463D01*
X28004694Y2486234D01*
X27999559Y2497865D01*
X27995609Y2531908D01*
X27994000Y2540000D01*
X27994000Y4064000D01*
X27995610Y4072095D01*
X27999559Y4106134D01*
X28004694Y4117764D01*
X28009224Y4140537D01*
X28025514Y4164917D01*
X28030429Y4176047D01*
X28038031Y4183649D01*
X28052579Y4205421D01*
X28074350Y4219968D01*
X28081952Y4227570D01*
X28093080Y4232483D01*
X28117463Y4248776D01*
X28140238Y4253306D01*
X28151865Y4258440D01*
X28185896Y4262388D01*
X28194000Y4264000D01*
X29718000Y4264000D01*
X29726107Y4262387D01*
G37*
G36*
X22106107Y6802387D02*
G01*
X22140134Y6798440D01*
X22151759Y6793306D01*
X22174537Y6788776D01*
X22198921Y6772482D01*
X22210047Y6767570D01*
X22217646Y6759970D01*
X22239421Y6745421D01*
X22253970Y6723646D01*
X22261570Y6716047D01*
X22266482Y6704921D01*
X22282776Y6680537D01*
X22287306Y6657759D01*
X22292440Y6646134D01*
X22296387Y6612105D01*
X22298000Y6604000D01*
X22298000Y5080000D01*
X22296387Y5071894D01*
X22292440Y5037865D01*
X22287306Y5026238D01*
X22282776Y5003463D01*
X22266483Y4979080D01*
X22261570Y4967952D01*
X22253968Y4960350D01*
X22239421Y4938579D01*
X22217649Y4924031D01*
X22210047Y4916429D01*
X22198917Y4911514D01*
X22174537Y4895224D01*
X22151764Y4890694D01*
X22140134Y4885559D01*
X22106093Y4881609D01*
X22098000Y4880000D01*
X22092217Y4880000D01*
X20579784Y4880000D01*
X20574000Y4880000D01*
X20565906Y4881609D01*
X20531865Y4885559D01*
X20520234Y4890694D01*
X20497463Y4895224D01*
X20473084Y4911513D01*
X20461952Y4916429D01*
X20454347Y4924033D01*
X20432579Y4938579D01*
X20418033Y4960347D01*
X20410429Y4967952D01*
X20405513Y4979084D01*
X20389224Y5003463D01*
X20384694Y5026234D01*
X20379559Y5037865D01*
X20375609Y5071908D01*
X20374000Y5080000D01*
X20374000Y6604000D01*
X20375610Y6612095D01*
X20379559Y6646134D01*
X20384694Y6657764D01*
X20389224Y6680537D01*
X20405514Y6704917D01*
X20410429Y6716047D01*
X20418031Y6723649D01*
X20432579Y6745421D01*
X20454350Y6759968D01*
X20461952Y6767570D01*
X20473080Y6772483D01*
X20497463Y6788776D01*
X20520238Y6793306D01*
X20531865Y6798440D01*
X20565896Y6802388D01*
X20574000Y6804000D01*
X22098000Y6804000D01*
X22106107Y6802387D01*
G37*
G36*
X24646107Y6802387D02*
G01*
X24680134Y6798440D01*
X24691759Y6793306D01*
X24714537Y6788776D01*
X24738921Y6772482D01*
X24750047Y6767570D01*
X24757646Y6759970D01*
X24779421Y6745421D01*
X24793970Y6723646D01*
X24801570Y6716047D01*
X24806482Y6704921D01*
X24822776Y6680537D01*
X24827306Y6657759D01*
X24832440Y6646134D01*
X24836387Y6612105D01*
X24838000Y6604000D01*
X24838000Y5080000D01*
X24836387Y5071894D01*
X24832440Y5037865D01*
X24827306Y5026238D01*
X24822776Y5003463D01*
X24806483Y4979080D01*
X24801570Y4967952D01*
X24793968Y4960350D01*
X24779421Y4938579D01*
X24757649Y4924031D01*
X24750047Y4916429D01*
X24738917Y4911514D01*
X24714537Y4895224D01*
X24691764Y4890694D01*
X24680134Y4885559D01*
X24646093Y4881609D01*
X24638000Y4880000D01*
X24632217Y4880000D01*
X23119784Y4880000D01*
X23114000Y4880000D01*
X23105906Y4881609D01*
X23071865Y4885559D01*
X23060234Y4890694D01*
X23037463Y4895224D01*
X23013084Y4911513D01*
X23001952Y4916429D01*
X22994347Y4924033D01*
X22972579Y4938579D01*
X22958033Y4960347D01*
X22950429Y4967952D01*
X22945513Y4979084D01*
X22929224Y5003463D01*
X22924694Y5026234D01*
X22919559Y5037865D01*
X22915609Y5071908D01*
X22914000Y5080000D01*
X22914000Y6604000D01*
X22915610Y6612095D01*
X22919559Y6646134D01*
X22924694Y6657764D01*
X22929224Y6680537D01*
X22945514Y6704917D01*
X22950429Y6716047D01*
X22958031Y6723649D01*
X22972579Y6745421D01*
X22994350Y6759968D01*
X23001952Y6767570D01*
X23013080Y6772483D01*
X23037463Y6788776D01*
X23060238Y6793306D01*
X23071865Y6798440D01*
X23105896Y6802388D01*
X23114000Y6804000D01*
X24638000Y6804000D01*
X24646107Y6802387D01*
G37*
G36*
X27186107Y6802387D02*
G01*
X27220134Y6798440D01*
X27231759Y6793306D01*
X27254537Y6788776D01*
X27278921Y6772482D01*
X27290047Y6767570D01*
X27297646Y6759970D01*
X27319421Y6745421D01*
X27333970Y6723646D01*
X27341570Y6716047D01*
X27346482Y6704921D01*
X27362776Y6680537D01*
X27367306Y6657759D01*
X27372440Y6646134D01*
X27376387Y6612105D01*
X27378000Y6604000D01*
X27378000Y5080000D01*
X27376387Y5071894D01*
X27372440Y5037865D01*
X27367306Y5026238D01*
X27362776Y5003463D01*
X27346483Y4979080D01*
X27341570Y4967952D01*
X27333968Y4960350D01*
X27319421Y4938579D01*
X27297649Y4924031D01*
X27290047Y4916429D01*
X27278917Y4911514D01*
X27254537Y4895224D01*
X27231764Y4890694D01*
X27220134Y4885559D01*
X27186093Y4881609D01*
X27178000Y4880000D01*
X27172217Y4880000D01*
X25659784Y4880000D01*
X25654000Y4880000D01*
X25645906Y4881609D01*
X25611865Y4885559D01*
X25600234Y4890694D01*
X25577463Y4895224D01*
X25553084Y4911513D01*
X25541952Y4916429D01*
X25534347Y4924033D01*
X25512579Y4938579D01*
X25498033Y4960347D01*
X25490429Y4967952D01*
X25485513Y4979084D01*
X25469224Y5003463D01*
X25464694Y5026234D01*
X25459559Y5037865D01*
X25455609Y5071908D01*
X25454000Y5080000D01*
X25454000Y6604000D01*
X25455610Y6612095D01*
X25459559Y6646134D01*
X25464694Y6657764D01*
X25469224Y6680537D01*
X25485514Y6704917D01*
X25490429Y6716047D01*
X25498031Y6723649D01*
X25512579Y6745421D01*
X25534350Y6759968D01*
X25541952Y6767570D01*
X25553080Y6772483D01*
X25577463Y6788776D01*
X25600238Y6793306D01*
X25611865Y6798440D01*
X25645896Y6802388D01*
X25654000Y6804000D01*
X27178000Y6804000D01*
X27186107Y6802387D01*
G37*
G36*
X29726107Y6802387D02*
G01*
X29760134Y6798440D01*
X29771759Y6793306D01*
X29794537Y6788776D01*
X29818921Y6772482D01*
X29830047Y6767570D01*
X29837646Y6759970D01*
X29859421Y6745421D01*
X29873970Y6723646D01*
X29881570Y6716047D01*
X29886482Y6704921D01*
X29902776Y6680537D01*
X29907306Y6657759D01*
X29912440Y6646134D01*
X29916387Y6612105D01*
X29918000Y6604000D01*
X29918000Y5080000D01*
X29916387Y5071894D01*
X29912440Y5037865D01*
X29907306Y5026238D01*
X29902776Y5003463D01*
X29886483Y4979080D01*
X29881570Y4967952D01*
X29873968Y4960350D01*
X29859421Y4938579D01*
X29837649Y4924031D01*
X29830047Y4916429D01*
X29818917Y4911514D01*
X29794537Y4895224D01*
X29771764Y4890694D01*
X29760134Y4885559D01*
X29726093Y4881609D01*
X29718000Y4880000D01*
X29712217Y4880000D01*
X28199784Y4880000D01*
X28194000Y4880000D01*
X28185906Y4881609D01*
X28151865Y4885559D01*
X28140234Y4890694D01*
X28117463Y4895224D01*
X28093084Y4911513D01*
X28081952Y4916429D01*
X28074347Y4924033D01*
X28052579Y4938579D01*
X28038033Y4960347D01*
X28030429Y4967952D01*
X28025513Y4979084D01*
X28009224Y5003463D01*
X28004694Y5026234D01*
X27999559Y5037865D01*
X27995609Y5071908D01*
X27994000Y5080000D01*
X27994000Y6604000D01*
X27995610Y6612095D01*
X27999559Y6646134D01*
X28004694Y6657764D01*
X28009224Y6680537D01*
X28025514Y6704917D01*
X28030429Y6716047D01*
X28038031Y6723649D01*
X28052579Y6745421D01*
X28074350Y6759968D01*
X28081952Y6767570D01*
X28093080Y6772483D01*
X28117463Y6788776D01*
X28140238Y6793306D01*
X28151865Y6798440D01*
X28185896Y6802388D01*
X28194000Y6804000D01*
X29718000Y6804000D01*
X29726107Y6802387D01*
G37*
G36*
X5166184Y38755160D02*
G01*
X5253234Y38755160D01*
X5346177Y38745051D01*
X5438286Y38739879D01*
X5517513Y38726417D01*
X5597680Y38717699D01*
X5695312Y38696208D01*
X5792067Y38679769D01*
X5863535Y38659179D01*
X5936053Y38643217D01*
X6036973Y38609213D01*
X6136893Y38580427D01*
X6200048Y38554267D01*
X6264384Y38532590D01*
X6367038Y38485097D01*
X6468428Y38443100D01*
X6522969Y38412955D01*
X6578837Y38387109D01*
X6681484Y38325348D01*
X6782503Y38269517D01*
X6828398Y38236952D01*
X6875720Y38208480D01*
X6976503Y38131866D01*
X7075167Y38061861D01*
X7112602Y38028407D01*
X7151539Y37998808D01*
X7248498Y37906962D01*
X7342742Y37822742D01*
X7372153Y37789830D01*
X7403075Y37760540D01*
X7494181Y37653281D01*
X7581861Y37555167D01*
X7603884Y37524127D01*
X7627383Y37496463D01*
X7710624Y37373691D01*
X7789517Y37262503D01*
X7804968Y37234544D01*
X7821819Y37209693D01*
X7895172Y37071334D01*
X7963100Y36948428D01*
X7972984Y36924563D01*
X7984104Y36903591D01*
X8045517Y36749456D01*
X8100427Y36616893D01*
X8105887Y36597939D01*
X8112353Y36581712D01*
X8159945Y36410299D01*
X8199769Y36272067D01*
X8202046Y36258664D01*
X8205041Y36247878D01*
X8236964Y36053153D01*
X8259879Y35918286D01*
X8260298Y35910818D01*
X8261095Y35905959D01*
X8275741Y35635822D01*
X8280000Y35560000D01*
X8275742Y35484184D01*
X8261095Y35214040D01*
X8260298Y35209180D01*
X8259879Y35201714D01*
X8236968Y35066874D01*
X8205041Y34872121D01*
X8202045Y34861333D01*
X8199769Y34847933D01*
X8159952Y34709726D01*
X8112353Y34538287D01*
X8105886Y34522057D01*
X8100427Y34503107D01*
X8045527Y34370569D01*
X7984104Y34216408D01*
X7972983Y34195431D01*
X7963100Y34171572D01*
X7895185Y34048689D01*
X7821819Y33910306D01*
X7804965Y33885449D01*
X7789517Y33857497D01*
X7710639Y33746329D01*
X7627383Y33623536D01*
X7603880Y33595866D01*
X7581861Y33564833D01*
X7494198Y33466738D01*
X7403075Y33359459D01*
X7372147Y33330162D01*
X7342742Y33297258D01*
X7248517Y33213053D01*
X7151539Y33121191D01*
X7112594Y33091586D01*
X7075167Y33058139D01*
X6976523Y32988147D01*
X6875720Y32911519D01*
X6828388Y32883040D01*
X6782503Y32850483D01*
X6681504Y32794663D01*
X6578837Y32732890D01*
X6522958Y32707037D01*
X6468428Y32676900D01*
X6367059Y32634911D01*
X6264384Y32587409D01*
X6200035Y32565727D01*
X6136893Y32539573D01*
X6036993Y32510792D01*
X5936053Y32476782D01*
X5863520Y32460816D01*
X5792067Y32440231D01*
X5695332Y32423795D01*
X5597680Y32402300D01*
X5517500Y32393580D01*
X5438286Y32380121D01*
X5346182Y32374948D01*
X5253234Y32364840D01*
X5166184Y32364840D01*
X5080000Y32360000D01*
X4993816Y32364840D01*
X4906766Y32364840D01*
X4813816Y32374948D01*
X4721714Y32380121D01*
X4642500Y32393579D01*
X4562319Y32402300D01*
X4464662Y32423795D01*
X4367933Y32440231D01*
X4296482Y32460815D01*
X4223946Y32476782D01*
X4122999Y32510794D01*
X4023107Y32539573D01*
X3959969Y32565725D01*
X3895615Y32587409D01*
X3792931Y32634915D01*
X3691572Y32676900D01*
X3637046Y32707035D01*
X3581162Y32732890D01*
X3478483Y32794670D01*
X3377497Y32850483D01*
X3331616Y32883036D01*
X3284279Y32911519D01*
X3183461Y32988158D01*
X3084833Y33058139D01*
X3047411Y33091581D01*
X3008460Y33121191D01*
X2911465Y33213069D01*
X2817258Y33297258D01*
X2787857Y33330156D01*
X2756924Y33359459D01*
X2665781Y33466760D01*
X2578139Y33564833D01*
X2556124Y33595859D01*
X2532616Y33623536D01*
X2449337Y33746361D01*
X2370483Y33857497D01*
X2355038Y33885441D01*
X2338180Y33910306D01*
X2264790Y34048733D01*
X2196900Y34171572D01*
X2187020Y34195423D01*
X2175895Y34216408D01*
X2114445Y34370632D01*
X2059573Y34503107D01*
X2054116Y34522048D01*
X2047646Y34538287D01*
X2000019Y34709822D01*
X1960231Y34847933D01*
X1957955Y34861323D01*
X1954958Y34872121D01*
X1923002Y35067041D01*
X1900121Y35201714D01*
X1899702Y35209170D01*
X1898904Y35214040D01*
X1884228Y35484699D01*
X1880000Y35560000D01*
X1884229Y35635306D01*
X1898904Y35905959D01*
X1899702Y35910827D01*
X1900121Y35918286D01*
X1923007Y36052985D01*
X1954958Y36247878D01*
X1957955Y36258673D01*
X1960231Y36272067D01*
X2000027Y36410204D01*
X2047646Y36581712D01*
X2054115Y36597948D01*
X2059573Y36616893D01*
X2114456Y36749392D01*
X2175895Y36903591D01*
X2187018Y36924572D01*
X2196900Y36948428D01*
X2264803Y37071289D01*
X2338180Y37209693D01*
X2355035Y37234552D01*
X2370483Y37262503D01*
X2449352Y37373659D01*
X2532616Y37496463D01*
X2556120Y37524134D01*
X2578139Y37555167D01*
X2665798Y37653258D01*
X2756924Y37760540D01*
X2787852Y37789836D01*
X2817258Y37822742D01*
X2911483Y37906947D01*
X3008460Y37998808D01*
X3047403Y38028412D01*
X3084833Y38061861D01*
X3183481Y38131855D01*
X3284279Y38208480D01*
X3331607Y38236956D01*
X3377497Y38269517D01*
X3478503Y38325341D01*
X3581162Y38387109D01*
X3637035Y38412958D01*
X3691572Y38443100D01*
X3792952Y38485093D01*
X3895615Y38532590D01*
X3959956Y38554269D01*
X4023107Y38580427D01*
X4123019Y38609211D01*
X4223946Y38643217D01*
X4296467Y38659180D01*
X4367933Y38679769D01*
X4464682Y38696207D01*
X4562319Y38717699D01*
X4642488Y38726417D01*
X4721714Y38739879D01*
X4813822Y38745051D01*
X4906766Y38755160D01*
X4993816Y38755160D01*
X5080000Y38760000D01*
X5166184Y38755160D01*
G37*
G36*
X35646184Y38755160D02*
G01*
X35733234Y38755160D01*
X35826177Y38745051D01*
X35918286Y38739879D01*
X35997513Y38726417D01*
X36077680Y38717699D01*
X36175312Y38696208D01*
X36272067Y38679769D01*
X36343535Y38659179D01*
X36416053Y38643217D01*
X36516973Y38609213D01*
X36616893Y38580427D01*
X36680048Y38554267D01*
X36744384Y38532590D01*
X36847038Y38485097D01*
X36948428Y38443100D01*
X37002969Y38412955D01*
X37058837Y38387109D01*
X37161484Y38325348D01*
X37262503Y38269517D01*
X37308398Y38236952D01*
X37355720Y38208480D01*
X37456503Y38131866D01*
X37555167Y38061861D01*
X37592602Y38028407D01*
X37631539Y37998808D01*
X37728498Y37906962D01*
X37822742Y37822742D01*
X37852153Y37789830D01*
X37883075Y37760540D01*
X37974181Y37653281D01*
X38061861Y37555167D01*
X38083884Y37524127D01*
X38107383Y37496463D01*
X38190624Y37373691D01*
X38269517Y37262503D01*
X38284968Y37234544D01*
X38301819Y37209693D01*
X38375172Y37071334D01*
X38443100Y36948428D01*
X38452984Y36924563D01*
X38464104Y36903591D01*
X38525517Y36749456D01*
X38580427Y36616893D01*
X38585887Y36597939D01*
X38592353Y36581712D01*
X38639945Y36410299D01*
X38679769Y36272067D01*
X38682046Y36258664D01*
X38685041Y36247878D01*
X38716964Y36053153D01*
X38739879Y35918286D01*
X38740298Y35910818D01*
X38741095Y35905959D01*
X38755741Y35635822D01*
X38760000Y35560000D01*
X38755742Y35484184D01*
X38741095Y35214040D01*
X38740298Y35209180D01*
X38739879Y35201714D01*
X38716968Y35066874D01*
X38685041Y34872121D01*
X38682045Y34861333D01*
X38679769Y34847933D01*
X38639952Y34709726D01*
X38592353Y34538287D01*
X38585886Y34522057D01*
X38580427Y34503107D01*
X38525527Y34370569D01*
X38464104Y34216408D01*
X38452983Y34195431D01*
X38443100Y34171572D01*
X38375185Y34048689D01*
X38301819Y33910306D01*
X38284965Y33885449D01*
X38269517Y33857497D01*
X38190639Y33746329D01*
X38107383Y33623536D01*
X38083880Y33595866D01*
X38061861Y33564833D01*
X37974198Y33466738D01*
X37883075Y33359459D01*
X37852147Y33330162D01*
X37822742Y33297258D01*
X37728517Y33213053D01*
X37631539Y33121191D01*
X37592594Y33091586D01*
X37555167Y33058139D01*
X37456523Y32988147D01*
X37355720Y32911519D01*
X37308388Y32883040D01*
X37262503Y32850483D01*
X37161504Y32794663D01*
X37058837Y32732890D01*
X37002958Y32707037D01*
X36948428Y32676900D01*
X36847059Y32634911D01*
X36744384Y32587409D01*
X36680035Y32565727D01*
X36616893Y32539573D01*
X36516993Y32510792D01*
X36416053Y32476782D01*
X36343520Y32460816D01*
X36272067Y32440231D01*
X36175332Y32423795D01*
X36077680Y32402300D01*
X35997500Y32393580D01*
X35918286Y32380121D01*
X35826182Y32374948D01*
X35733234Y32364840D01*
X35646184Y32364840D01*
X35560000Y32360000D01*
X35473816Y32364840D01*
X35386766Y32364840D01*
X35293816Y32374948D01*
X35201714Y32380121D01*
X35122500Y32393579D01*
X35042319Y32402300D01*
X34944662Y32423795D01*
X34847933Y32440231D01*
X34776482Y32460815D01*
X34703946Y32476782D01*
X34602999Y32510794D01*
X34503107Y32539573D01*
X34439969Y32565725D01*
X34375615Y32587409D01*
X34272931Y32634915D01*
X34171572Y32676900D01*
X34117046Y32707035D01*
X34061162Y32732890D01*
X33958483Y32794670D01*
X33857497Y32850483D01*
X33811616Y32883036D01*
X33764279Y32911519D01*
X33663461Y32988158D01*
X33564833Y33058139D01*
X33527411Y33091581D01*
X33488460Y33121191D01*
X33391465Y33213069D01*
X33297258Y33297258D01*
X33267857Y33330156D01*
X33236924Y33359459D01*
X33145781Y33466760D01*
X33058139Y33564833D01*
X33036124Y33595859D01*
X33012616Y33623536D01*
X32929337Y33746361D01*
X32850483Y33857497D01*
X32835038Y33885441D01*
X32818180Y33910306D01*
X32744790Y34048733D01*
X32676900Y34171572D01*
X32667020Y34195423D01*
X32655895Y34216408D01*
X32594445Y34370632D01*
X32539573Y34503107D01*
X32534116Y34522048D01*
X32527646Y34538287D01*
X32480019Y34709822D01*
X32440231Y34847933D01*
X32437955Y34861323D01*
X32434958Y34872121D01*
X32403002Y35067041D01*
X32380121Y35201714D01*
X32379702Y35209170D01*
X32378904Y35214040D01*
X32364228Y35484699D01*
X32360000Y35560000D01*
X32364229Y35635306D01*
X32378904Y35905959D01*
X32379702Y35910827D01*
X32380121Y35918286D01*
X32403007Y36052985D01*
X32434958Y36247878D01*
X32437955Y36258673D01*
X32440231Y36272067D01*
X32480027Y36410204D01*
X32527646Y36581712D01*
X32534115Y36597948D01*
X32539573Y36616893D01*
X32594456Y36749392D01*
X32655895Y36903591D01*
X32667018Y36924572D01*
X32676900Y36948428D01*
X32744803Y37071289D01*
X32818180Y37209693D01*
X32835035Y37234552D01*
X32850483Y37262503D01*
X32929352Y37373659D01*
X33012616Y37496463D01*
X33036120Y37524134D01*
X33058139Y37555167D01*
X33145798Y37653258D01*
X33236924Y37760540D01*
X33267852Y37789836D01*
X33297258Y37822742D01*
X33391483Y37906947D01*
X33488460Y37998808D01*
X33527403Y38028412D01*
X33564833Y38061861D01*
X33663481Y38131855D01*
X33764279Y38208480D01*
X33811607Y38236956D01*
X33857497Y38269517D01*
X33958503Y38325341D01*
X34061162Y38387109D01*
X34117035Y38412958D01*
X34171572Y38443100D01*
X34272952Y38485093D01*
X34375615Y38532590D01*
X34439956Y38554269D01*
X34503107Y38580427D01*
X34603019Y38609211D01*
X34703946Y38643217D01*
X34776467Y38659180D01*
X34847933Y38679769D01*
X34944682Y38696207D01*
X35042319Y38717699D01*
X35122488Y38726417D01*
X35201714Y38739879D01*
X35293822Y38745051D01*
X35386766Y38755160D01*
X35473816Y38755160D01*
X35560000Y38760000D01*
X35646184Y38755160D01*
G37*
M02*
